<svg class="marks" width="652" height="254" viewBox="0 0 652 254" version="1.1" xmlns="http://www.w3.org/2000/svg" xmlns:xlink="http://www.w3.org/1999/xlink"><rect width="652" height="254" style="fill: white;"></rect><defs><clipPath id="clip1"><rect x="0" y="0" width="585" height="80"></rect></clipPath><clipPath id="clip2"><rect x="0" y="0" width="585" height="80"></rect></clipPath><clipPath id="clip3"><rect x="0" y="0" width="585" height="80"></rect></clipPath><clipPath id="clip4"><rect x="0" y="0" width="585" height="80"></rect></clipPath><clipPath id="clip5"><rect x="0" y="0" width="585" height="80"></rect></clipPath></defs><g transform="translate(60,13)"><g class="mark-group role-frame root"><g transform="translate(0,0)"><path class="background" d="M0,0h0v0h0Z" style="fill: none;"></path><g><g class="mark-group role-scope concat_0_group"><g transform="translate(0,0)"><path class="background" d="M0.5,0.5h585v80h-585Z" style="fill: none; stroke: #ddd;"></path><g><g class="mark-group role-axis"><g transform="translate(0.5,80.5)"><path class="background" d="M0,0h0v0h0Z" style="pointer-events: none; fill: none;"></path><g><g class="mark-rule role-axis-grid" style="pointer-events: none;"><line transform="translate(0,-80)" x2="0" y2="80" style="fill: none; stroke: #ddd; stroke-width: 1; opacity: 1;"></line><line transform="translate(21,-80)" x2="0" y2="80" style="fill: none; stroke: #ddd; stroke-width: 1; opacity: 1;"></line><line transform="translate(43,-80)" x2="0" y2="80" style="fill: none; stroke: #ddd; stroke-width: 1; opacity: 1;"></line><line transform="translate(64,-80)" x2="0" y2="80" style="fill: none; stroke: #ddd; stroke-width: 1; opacity: 1;"></line><line transform="translate(85,-80)" x2="0" y2="80" style="fill: none; stroke: #ddd; stroke-width: 1; opacity: 1;"></line><line transform="translate(106,-80)" x2="0" y2="80" style="fill: none; stroke: #ddd; stroke-width: 1; opacity: 1;"></line><line transform="translate(128,-80)" x2="0" y2="80" style="fill: none; stroke: #ddd; stroke-width: 1; opacity: 1;"></line><line transform="translate(149,-80)" x2="0" y2="80" style="fill: none; stroke: #ddd; stroke-width: 1; opacity: 1;"></line><line transform="translate(160,-80)" x2="0" y2="80" style="fill: none; stroke: #ddd; stroke-width: 1; opacity: 1;"></line><line transform="translate(181,-80)" x2="0" y2="80" style="fill: none; stroke: #ddd; stroke-width: 1; opacity: 1;"></line><line transform="translate(202,-80)" x2="0" y2="80" style="fill: none; stroke: #ddd; stroke-width: 1; opacity: 1;"></line><line transform="translate(223,-80)" x2="0" y2="80" style="fill: none; stroke: #ddd; stroke-width: 1; opacity: 1;"></line><line transform="translate(245,-80)" x2="0" y2="80" style="fill: none; stroke: #ddd; stroke-width: 1; opacity: 1;"></line><line transform="translate(266,-80)" x2="0" y2="80" style="fill: none; stroke: #ddd; stroke-width: 1; opacity: 1;"></line><line transform="translate(287,-80)" x2="0" y2="80" style="fill: none; stroke: #ddd; stroke-width: 1; opacity: 1;"></line><line transform="translate(308,-80)" x2="0" y2="80" style="fill: none; stroke: #ddd; stroke-width: 1; opacity: 1;"></line><line transform="translate(330,-80)" x2="0" y2="80" style="fill: none; stroke: #ddd; stroke-width: 1; opacity: 1;"></line><line transform="translate(351,-80)" x2="0" y2="80" style="fill: none; stroke: #ddd; stroke-width: 1; opacity: 1;"></line><line transform="translate(372,-80)" x2="0" y2="80" style="fill: none; stroke: #ddd; stroke-width: 1; opacity: 1;"></line><line transform="translate(394,-80)" x2="0" y2="80" style="fill: none; stroke: #ddd; stroke-width: 1; opacity: 1;"></line><line transform="translate(415,-80)" x2="0" y2="80" style="fill: none; stroke: #ddd; stroke-width: 1; opacity: 1;"></line><line transform="translate(436,-80)" x2="0" y2="80" style="fill: none; stroke: #ddd; stroke-width: 1; opacity: 1;"></line><line transform="translate(457,-80)" x2="0" y2="80" style="fill: none; stroke: #ddd; stroke-width: 1; opacity: 1;"></line><line transform="translate(479,-80)" x2="0" y2="80" style="fill: none; stroke: #ddd; stroke-width: 1; opacity: 1;"></line><line transform="translate(500,-80)" x2="0" y2="80" style="fill: none; stroke: #ddd; stroke-width: 1; opacity: 1;"></line><line transform="translate(521,-80)" x2="0" y2="80" style="fill: none; stroke: #ddd; stroke-width: 1; opacity: 1;"></line><line transform="translate(542,-80)" x2="0" y2="80" style="fill: none; stroke: #ddd; stroke-width: 1; opacity: 1;"></line><line transform="translate(564,-80)" x2="0" y2="80" style="fill: none; stroke: #ddd; stroke-width: 1; opacity: 1;"></line><line transform="translate(585,-80)" x2="0" y2="80" style="fill: none; stroke: #ddd; stroke-width: 1; opacity: 1;"></line></g></g><path class="foreground" d="" style="pointer-events: none; display: none; fill: none;"></path></g></g><g class="mark-group role-axis"><g transform="translate(0.5,0.5)"><path class="background" d="M0,0h0v0h0Z" style="pointer-events: none; fill: none;"></path><g><g class="mark-rule role-axis-grid" style="pointer-events: none;"><line transform="translate(0,80)" x2="585" y2="0" style="fill: none; stroke: #ddd; stroke-width: 1; opacity: 1;"></line><line transform="translate(0,40)" x2="585" y2="0" style="fill: none; stroke: #ddd; stroke-width: 1; opacity: 1;"></line><line transform="translate(0,0)" x2="585" y2="0" style="fill: none; stroke: #ddd; stroke-width: 1; opacity: 1;"></line></g></g><path class="foreground" d="" style="pointer-events: none; display: none; fill: none;"></path></g></g><g class="mark-group role-axis"><g transform="translate(0.5,80.5)"><path class="background" d="M0,0h0v0h0Z" style="pointer-events: none; fill: none;"></path><g><g class="mark-rule role-axis-tick" style="pointer-events: none;"><line transform="translate(0,0)" x2="0" y2="5" style="fill: none; stroke: #888; stroke-width: 1; opacity: 1;"></line><line transform="translate(21,0)" x2="0" y2="5" style="fill: none; stroke: #888; stroke-width: 1; opacity: 1;"></line><line transform="translate(43,0)" x2="0" y2="5" style="fill: none; stroke: #888; stroke-width: 1; opacity: 1;"></line><line transform="translate(64,0)" x2="0" y2="5" style="fill: none; stroke: #888; stroke-width: 1; opacity: 1;"></line><line transform="translate(85,0)" x2="0" y2="5" style="fill: none; stroke: #888; stroke-width: 1; opacity: 1;"></line><line transform="translate(106,0)" x2="0" y2="5" style="fill: none; stroke: #888; stroke-width: 1; opacity: 1;"></line><line transform="translate(128,0)" x2="0" y2="5" style="fill: none; stroke: #888; stroke-width: 1; opacity: 1;"></line><line transform="translate(149,0)" x2="0" y2="5" style="fill: none; stroke: #888; stroke-width: 1; opacity: 1;"></line><line transform="translate(160,0)" x2="0" y2="5" style="fill: none; stroke: #888; stroke-width: 1; opacity: 1;"></line><line transform="translate(181,0)" x2="0" y2="5" style="fill: none; stroke: #888; stroke-width: 1; opacity: 1;"></line><line transform="translate(202,0)" x2="0" y2="5" style="fill: none; stroke: #888; stroke-width: 1; opacity: 1;"></line><line transform="translate(223,0)" x2="0" y2="5" style="fill: none; stroke: #888; stroke-width: 1; opacity: 1;"></line><line transform="translate(245,0)" x2="0" y2="5" style="fill: none; stroke: #888; stroke-width: 1; opacity: 1;"></line><line transform="translate(266,0)" x2="0" y2="5" style="fill: none; stroke: #888; stroke-width: 1; opacity: 1;"></line><line transform="translate(287,0)" x2="0" y2="5" style="fill: none; stroke: #888; stroke-width: 1; opacity: 1;"></line><line transform="translate(308,0)" x2="0" y2="5" style="fill: none; stroke: #888; stroke-width: 1; opacity: 1;"></line><line transform="translate(330,0)" x2="0" y2="5" style="fill: none; stroke: #888; stroke-width: 1; opacity: 1;"></line><line transform="translate(351,0)" x2="0" y2="5" style="fill: none; stroke: #888; stroke-width: 1; opacity: 1;"></line><line transform="translate(372,0)" x2="0" y2="5" style="fill: none; stroke: #888; stroke-width: 1; opacity: 1;"></line><line transform="translate(394,0)" x2="0" y2="5" style="fill: none; stroke: #888; stroke-width: 1; opacity: 1;"></line><line transform="translate(415,0)" x2="0" y2="5" style="fill: none; stroke: #888; stroke-width: 1; opacity: 1;"></line><line transform="translate(436,0)" x2="0" y2="5" style="fill: none; stroke: #888; stroke-width: 1; opacity: 1;"></line><line transform="translate(457,0)" x2="0" y2="5" style="fill: none; stroke: #888; stroke-width: 1; opacity: 1;"></line><line transform="translate(479,0)" x2="0" y2="5" style="fill: none; stroke: #888; stroke-width: 1; opacity: 1;"></line><line transform="translate(500,0)" x2="0" y2="5" style="fill: none; stroke: #888; stroke-width: 1; opacity: 1;"></line><line transform="translate(521,0)" x2="0" y2="5" style="fill: none; stroke: #888; stroke-width: 1; opacity: 1;"></line><line transform="translate(542,0)" x2="0" y2="5" style="fill: none; stroke: #888; stroke-width: 1; opacity: 1;"></line><line transform="translate(564,0)" x2="0" y2="5" style="fill: none; stroke: #888; stroke-width: 1; opacity: 1;"></line><line transform="translate(585,0)" x2="0" y2="5" style="fill: none; stroke: #888; stroke-width: 1; opacity: 1;"></line></g><g class="mark-rule role-axis-domain" style="pointer-events: none;"><line transform="translate(0,0)" x2="585" y2="0" style="fill: none; stroke: #888; stroke-width: 1; opacity: 1;"></line></g></g><path class="foreground" d="" style="pointer-events: none; display: none; fill: none;"></path></g></g><g class="mark-group role-axis"><g transform="translate(0.5,0.5)"><path class="background" d="M0,0h0v0h0Z" style="pointer-events: none; fill: none;"></path><g><g class="mark-rule role-axis-tick" style="pointer-events: none;"><line transform="translate(0,80)" x2="-5" y2="0" style="fill: none; stroke: #888; stroke-width: 1; opacity: 1;"></line><line transform="translate(0,40)" x2="-5" y2="0" style="fill: none; stroke: #888; stroke-width: 1; opacity: 1;"></line><line transform="translate(0,0)" x2="-5" y2="0" style="fill: none; stroke: #888; stroke-width: 1; opacity: 1;"></line></g><g class="mark-text role-axis-label" style="pointer-events: none;"><text text-anchor="end" transform="translate(-7,84)" style="font-family: sans-serif; font-size: 14px; fill: #000; opacity: 1;">0</text><text text-anchor="end" transform="translate(-7,44)" style="font-family: sans-serif; font-size: 14px; fill: #000; opacity: 1;">100</text><text text-anchor="end" transform="translate(-7,4)" style="font-family: sans-serif; font-size: 14px; fill: #000; opacity: 1;">200</text></g><g class="mark-rule role-axis-domain" style="pointer-events: none;"><line transform="translate(0,80)" x2="0" y2="-80" style="fill: none; stroke: #888; stroke-width: 1; opacity: 1;"></line></g><g class="mark-text role-axis-title" style="pointer-events: none;"><text text-anchor="middle" transform="translate(-34.3583984375,40) rotate(-90) translate(0,-3)" style="font-family: sans-serif; font-size: 14px; font-weight: bold; fill: #000; opacity: 1;">Casos/100k</text></g></g><path class="foreground" d="" style="pointer-events: none; display: none; fill: none;"></path></g></g><g class="mark-rect role-mark concat_0_layer_0_marks" clip-path="url(#clip1)"><path d="M0,-320h585v360h-585Z" style="fill: red; opacity: 0.2;"></path><path d="M0,40h585v20h-585Z" style="fill: orange; opacity: 0.2;"></path><path d="M0,60h585v16h-585Z" style="fill: yellow; opacity: 0.2;"></path><path d="M0,76h585v3.5999999999999943h-585Z" style="fill: green; opacity: 0.2;"></path></g><g class="mark-symbol role-mark concat_0_layer_1_marks" clip-path="url(#clip2)"><path transform="translate(585,31.855124504727126)" d="M-2.7386127875258306,-2.7386127875258306h5.477225575051661v5.477225575051661h-5.477225575051661Z" style="fill: none; stroke: black; stroke-width: 2; opacity: 0.7;"></path><path transform="translate(574.3636363636364,31.892698549078276)" d="M-2.7386127875258306,-2.7386127875258306h5.477225575051661v5.477225575051661h-5.477225575051661Z" style="fill: none; stroke: black; stroke-width: 2; opacity: 0.7;"></path><path transform="translate(563.7272727272727,32.05551940793326)" d="M-2.7386127875258306,-2.7386127875258306h5.477225575051661v5.477225575051661h-5.477225575051661Z" style="fill: none; stroke: black; stroke-width: 2; opacity: 0.7;"></path><path transform="translate(553.0909090909091,32.78195093205548)" d="M-2.7386127875258306,-2.7386127875258306h5.477225575051661v5.477225575051661h-5.477225575051661Z" style="fill: none; stroke: black; stroke-width: 2; opacity: 0.7;"></path><path transform="translate(542.4545454545455,33.68372799648307)" d="M-2.7386127875258306,-2.7386127875258306h5.477225575051661v5.477225575051661h-5.477225575051661Z" style="fill: none; stroke: black; stroke-width: 2; opacity: 0.7;"></path><path transform="translate(531.8181818181818,35.01134423022368)" d="M-2.7386127875258306,-2.7386127875258306h5.477225575051661v5.477225575051661h-5.477225575051661Z" style="fill: none; stroke: black; stroke-width: 2; opacity: 0.7;"></path><path transform="translate(521.1818181818181,35.675152347093984)" d="M-2.7386127875258306,-2.7386127875258306h5.477225575051661v5.477225575051661h-5.477225575051661Z" style="fill: none; stroke: black; stroke-width: 2; opacity: 0.7;"></path><path transform="translate(510.5454545454545,35.95069533900242)" d="M-2.7386127875258306,-2.7386127875258306h5.477225575051661v5.477225575051661h-5.477225575051661Z" style="fill: none; stroke: black; stroke-width: 2; opacity: 0.7;"></path><path transform="translate(499.9090909090909,35.98826938335357)" d="M-2.7386127875258306,-2.7386127875258306h5.477225575051661v5.477225575051661h-5.477225575051661Z" style="fill: none; stroke: black; stroke-width: 2; opacity: 0.7;"></path><path transform="translate(489.27272727272725,35.68767702854437)" d="M-2.7386127875258306,-2.7386127875258306h5.477225575051661v5.477225575051661h-5.477225575051661Z" style="fill: none; stroke: black; stroke-width: 2; opacity: 0.7;"></path><path transform="translate(478.6363636363637,33.93422162549073)" d="M-2.7386127875258306,-2.7386127875258306h5.477225575051661v5.477225575051661h-5.477225575051661Z" style="fill: none; stroke: black; stroke-width: 2; opacity: 0.7;"></path><path transform="translate(468,31.36666192816218)" d="M-2.7386127875258306,-2.7386127875258306h5.477225575051661v5.477225575051661h-5.477225575051661Z" style="fill: none; stroke: black; stroke-width: 2; opacity: 0.7;"></path><path transform="translate(457.3636363636364,26.419412755260836)" d="M-2.7386127875258306,-2.7386127875258306h5.477225575051661v5.477225575051661h-5.477225575051661Z" style="fill: none; stroke: black; stroke-width: 2; opacity: 0.7;"></path><path transform="translate(446.72727272727275,25.392388876329413)" d="M-2.7386127875258306,-2.7386127875258306h5.477225575051661v5.477225575051661h-5.477225575051661Z" style="fill: none; stroke: black; stroke-width: 2; opacity: 0.7;"></path><path transform="translate(436.0909090909091,23.325816437016194)" d="M-2.7386127875258306,-2.7386127875258306h5.477225575051661v5.477225575051661h-5.477225575051661Z" style="fill: none; stroke: black; stroke-width: 2; opacity: 0.7;"></path><path transform="translate(425.45454545454544,23.175520259611595)" d="M-2.7386127875258306,-2.7386127875258306h5.477225575051661v5.477225575051661h-5.477225575051661Z" style="fill: none; stroke: black; stroke-width: 2; opacity: 0.7;"></path><path transform="translate(414.8181818181818,22.774730453199332)" d="M-2.7386127875258306,-2.7386127875258306h5.477225575051661v5.477225575051661h-5.477225575051661Z" style="fill: none; stroke: black; stroke-width: 2; opacity: 0.7;"></path><path transform="translate(404.1818181818182,19.81890563090891)" d="M-2.7386127875258306,-2.7386127875258306h5.477225575051661v5.477225575051661h-5.477225575051661Z" style="fill: none; stroke: black; stroke-width: 2; opacity: 0.7;"></path><path transform="translate(393.54545454545456,16.437241639305455)" d="M-2.7386127875258306,-2.7386127875258306h5.477225575051661v5.477225575051661h-5.477225575051661Z" style="fill: none; stroke: black; stroke-width: 2; opacity: 0.7;"></path><path transform="translate(382.90909090909093,14.683786236251812)" d="M-2.7386127875258306,-2.7386127875258306h5.477225575051661v5.477225575051661h-5.477225575051661Z" style="fill: none; stroke: black; stroke-width: 2; opacity: 0.7;"></path><path transform="translate(372.27272727272725,14.157749615335717)" d="M-2.7386127875258306,-2.7386127875258306h5.477225575051661v5.477225575051661h-5.477225575051661Z" style="fill: none; stroke: black; stroke-width: 2; opacity: 0.7;"></path><path transform="translate(361.6363636363636,17.113574437626138)" d="M-2.7386127875258306,-2.7386127875258306h5.477225575051661v5.477225575051661h-5.477225575051661Z" style="fill: none; stroke: black; stroke-width: 2; opacity: 0.7;"></path><path transform="translate(351,17.076000393274995)" d="M-2.7386127875258306,-2.7386127875258306h5.477225575051661v5.477225575051661h-5.477225575051661Z" style="fill: none; stroke: black; stroke-width: 2; opacity: 0.7;"></path><path transform="translate(340.3636363636364,17.58951233274071)" d="M-2.7386127875258306,-2.7386127875258306h5.477225575051661v5.477225575051661h-5.477225575051661Z" style="fill: none; stroke: black; stroke-width: 2; opacity: 0.7;"></path><path transform="translate(329.7272727272727,19.89405371961121)" d="M-2.7386127875258306,-2.7386127875258306h5.477225575051661v5.477225575051661h-5.477225575051661Z" style="fill: none; stroke: black; stroke-width: 2; opacity: 0.7;"></path><path transform="translate(319.09090909090907,22.561810868542818)" d="M-2.7386127875258306,-2.7386127875258306h5.477225575051661v5.477225575051661h-5.477225575051661Z" style="fill: none; stroke: black; stroke-width: 2; opacity: 0.7;"></path><path transform="translate(308.45454545454544,27.8597511220549)" d="M-2.7386127875258306,-2.7386127875258306h5.477225575051661v5.477225575051661h-5.477225575051661Z" style="fill: none; stroke: black; stroke-width: 2; opacity: 0.7;"></path><path transform="translate(297.8181818181818,29.776027383963523)" d="M-2.7386127875258306,-2.7386127875258306h5.477225575051661v5.477225575051661h-5.477225575051661Z" style="fill: none; stroke: black; stroke-width: 2; opacity: 0.7;"></path><path transform="translate(287.1818181818182,32.882148383658546)" d="M-2.7386127875258306,-2.7386127875258306h5.477225575051661v5.477225575051661h-5.477225575051661Z" style="fill: none; stroke: black; stroke-width: 2; opacity: 0.7;"></path><path transform="translate(276.54545454545456,32.98234583526161)" d="M-2.7386127875258306,-2.7386127875258306h5.477225575051661v5.477225575051661h-5.477225575051661Z" style="fill: none; stroke: black; stroke-width: 2; opacity: 0.7;"></path><path transform="translate(265.9090909090909,33.82149949243728)" d="M-2.7386127875258306,-2.7386127875258306h5.477225575051661v5.477225575051661h-5.477225575051661Z" style="fill: none; stroke: black; stroke-width: 2; opacity: 0.7;"></path><path transform="translate(255.27272727272725,38.40553290327752)" d="M-2.7386127875258306,-2.7386127875258306h5.477225575051661v5.477225575051661h-5.477225575051661Z" style="fill: none; stroke: black; stroke-width: 2; opacity: 0.7;"></path><path transform="translate(244.63636363636363,43.72852251969036)" d="M-2.7386127875258306,-2.7386127875258306h5.477225575051661v5.477225575051661h-5.477225575051661Z" style="fill: none; stroke: black; stroke-width: 2; opacity: 0.7;"></path><path transform="translate(234,46.88474224518692)" d="M-2.7386127875258306,-2.7386127875258306h5.477225575051661v5.477225575051661h-5.477225575051661Z" style="fill: none; stroke: black; stroke-width: 2; opacity: 0.7;"></path><path transform="translate(223.36363636363637,48.07458698297332)" d="M-2.7386127875258306,-2.7386127875258306h5.477225575051661v5.477225575051661h-5.477225575051661Z" style="fill: none; stroke: black; stroke-width: 2; opacity: 0.7;"></path><path transform="translate(212.72727272727272,45.65732346304937)" d="M-2.7386127875258306,-2.7386127875258306h5.477225575051661v5.477225575051661h-5.477225575051661Z" style="fill: none; stroke: black; stroke-width: 2; opacity: 0.7;"></path><path transform="translate(202.0909090909091,45.582175374347074)" d="M-2.7386127875258306,-2.7386127875258306h5.477225575051661v5.477225575051661h-5.477225575051661Z" style="fill: none; stroke: black; stroke-width: 2; opacity: 0.7;"></path><path transform="translate(191.45454545454547,46.4589030758739)" d="M-2.7386127875258306,-2.7386127875258306h5.477225575051661v5.477225575051661h-5.477225575051661Z" style="fill: none; stroke: black; stroke-width: 2; opacity: 0.7;"></path><path transform="translate(180.8181818181818,46.32113157991968)" d="M-2.7386127875258306,-2.7386127875258306h5.477225575051661v5.477225575051661h-5.477225575051661Z" style="fill: none; stroke: black; stroke-width: 2; opacity: 0.7;"></path><path transform="translate(170.1818181818182,46.220934128316614)" d="M-2.7386127875258306,-2.7386127875258306h5.477225575051661v5.477225575051661h-5.477225575051661Z" style="fill: none; stroke: black; stroke-width: 2; opacity: 0.7;"></path><path transform="translate(159.54545454545453,44.27960850350722)" d="M-2.7386127875258306,-2.7386127875258306h5.477225575051661v5.477225575051661h-5.477225575051661Z" style="fill: none; stroke: black; stroke-width: 2; opacity: 0.7;"></path><path transform="translate(148.9090909090909,43.415405483430774)" d="M-2.7386127875258306,-2.7386127875258306h5.477225575051661v5.477225575051661h-5.477225575051661Z" style="fill: none; stroke: black; stroke-width: 2; opacity: 0.7;"></path><path transform="translate(138.27272727272728,41.323783681216796)" d="M-2.7386127875258306,-2.7386127875258306h5.477225575051661v5.477225575051661h-5.477225575051661Z" style="fill: none; stroke: black; stroke-width: 2; opacity: 0.7;"></path><path transform="translate(127.63636363636363,41.323783681216796)" d="M-2.7386127875258306,-2.7386127875258306h5.477225575051661v5.477225575051661h-5.477225575051661Z" style="fill: none; stroke: black; stroke-width: 2; opacity: 0.7;"></path><path transform="translate(117,39.983642766025795)" d="M-2.7386127875258306,-2.7386127875258306h5.477225575051661v5.477225575051661h-5.477225575051661Z" style="fill: none; stroke: black; stroke-width: 2; opacity: 0.7;"></path><path transform="translate(106.36363636363636,36.915095810681926)" d="M-2.7386127875258306,-2.7386127875258306h5.477225575051661v5.477225575051661h-5.477225575051661Z" style="fill: none; stroke: black; stroke-width: 2; opacity: 0.7;"></path><path transform="translate(95.72727272727273,34.74832591976564)" d="M-2.7386127875258306,-2.7386127875258306h5.477225575051661v5.477225575051661h-5.477225575051661Z" style="fill: none; stroke: black; stroke-width: 2; opacity: 0.7;"></path><path transform="translate(85.0909090909091,31.880173867627892)" d="M-2.7386127875258306,-2.7386127875258306h5.477225575051661v5.477225575051661h-5.477225575051661Z" style="fill: none; stroke: black; stroke-width: 2; opacity: 0.7;"></path><path transform="translate(74.45454545454545,30.214391234726932)" d="M-2.7386127875258306,-2.7386127875258306h5.477225575051661v5.477225575051661h-5.477225575051661Z" style="fill: none; stroke: black; stroke-width: 2; opacity: 0.7;"></path><path transform="translate(63.81818181818181,28.861725638085545)" d="M-2.7386127875258306,-2.7386127875258306h5.477225575051661v5.477225575051661h-5.477225575051661Z" style="fill: none; stroke: black; stroke-width: 2; opacity: 0.7;"></path><path transform="translate(53.18181818181818,28.861725638085545)" d="M-2.7386127875258306,-2.7386127875258306h5.477225575051661v5.477225575051661h-5.477225575051661Z" style="fill: none; stroke: black; stroke-width: 2; opacity: 0.7;"></path><path transform="translate(42.54545454545455,27.133319597932683)" d="M-2.7386127875258306,-2.7386127875258306h5.477225575051661v5.477225575051661h-5.477225575051661Z" style="fill: none; stroke: black; stroke-width: 2; opacity: 0.7;"></path><path transform="translate(31.909090909090907,24.766154803810263)" d="M-2.7386127875258306,-2.7386127875258306h5.477225575051661v5.477225575051661h-5.477225575051661Z" style="fill: none; stroke: black; stroke-width: 2; opacity: 0.7;"></path><path transform="translate(21.272727272727273,24.039723279688026)" d="M-2.7386127875258306,-2.7386127875258306h5.477225575051661v5.477225575051661h-5.477225575051661Z" style="fill: none; stroke: black; stroke-width: 2; opacity: 0.7;"></path><path transform="translate(10.636363636363637,24.47808713045145)" d="M-2.7386127875258306,-2.7386127875258306h5.477225575051661v5.477225575051661h-5.477225575051661Z" style="fill: none; stroke: black; stroke-width: 2; opacity: 0.7;"></path><path transform="translate(0,22.662008320145894)" d="M-2.7386127875258306,-2.7386127875258306h5.477225575051661v5.477225575051661h-5.477225575051661Z" style="fill: none; stroke: black; stroke-width: 2; opacity: 0.7;"></path></g></g><path class="foreground" d="" style="display: none; fill: none;"></path></g></g><g class="mark-group role-scope concat_1_group"><g transform="translate(0,116)"><path class="background" d="M0.5,0.5h585v80h-585Z" style="fill: none; stroke: #ddd;"></path><g><g class="mark-group role-axis"><g transform="translate(0.5,80.5)"><path class="background" d="M0,0h0v0h0Z" style="pointer-events: none; fill: none;"></path><g><g class="mark-rule role-axis-grid" style="pointer-events: none;"><line transform="translate(0,-80)" x2="0" y2="80" style="fill: none; stroke: #ddd; stroke-width: 1; opacity: 1;"></line><line transform="translate(21,-80)" x2="0" y2="80" style="fill: none; stroke: #ddd; stroke-width: 1; opacity: 1;"></line><line transform="translate(43,-80)" x2="0" y2="80" style="fill: none; stroke: #ddd; stroke-width: 1; opacity: 1;"></line><line transform="translate(64,-80)" x2="0" y2="80" style="fill: none; stroke: #ddd; stroke-width: 1; opacity: 1;"></line><line transform="translate(85,-80)" x2="0" y2="80" style="fill: none; stroke: #ddd; stroke-width: 1; opacity: 1;"></line><line transform="translate(106,-80)" x2="0" y2="80" style="fill: none; stroke: #ddd; stroke-width: 1; opacity: 1;"></line><line transform="translate(128,-80)" x2="0" y2="80" style="fill: none; stroke: #ddd; stroke-width: 1; opacity: 1;"></line><line transform="translate(149,-80)" x2="0" y2="80" style="fill: none; stroke: #ddd; stroke-width: 1; opacity: 1;"></line><line transform="translate(160,-80)" x2="0" y2="80" style="fill: none; stroke: #ddd; stroke-width: 1; opacity: 1;"></line><line transform="translate(181,-80)" x2="0" y2="80" style="fill: none; stroke: #ddd; stroke-width: 1; opacity: 1;"></line><line transform="translate(202,-80)" x2="0" y2="80" style="fill: none; stroke: #ddd; stroke-width: 1; opacity: 1;"></line><line transform="translate(223,-80)" x2="0" y2="80" style="fill: none; stroke: #ddd; stroke-width: 1; opacity: 1;"></line><line transform="translate(245,-80)" x2="0" y2="80" style="fill: none; stroke: #ddd; stroke-width: 1; opacity: 1;"></line><line transform="translate(266,-80)" x2="0" y2="80" style="fill: none; stroke: #ddd; stroke-width: 1; opacity: 1;"></line><line transform="translate(287,-80)" x2="0" y2="80" style="fill: none; stroke: #ddd; stroke-width: 1; opacity: 1;"></line><line transform="translate(308,-80)" x2="0" y2="80" style="fill: none; stroke: #ddd; stroke-width: 1; opacity: 1;"></line><line transform="translate(330,-80)" x2="0" y2="80" style="fill: none; stroke: #ddd; stroke-width: 1; opacity: 1;"></line><line transform="translate(351,-80)" x2="0" y2="80" style="fill: none; stroke: #ddd; stroke-width: 1; opacity: 1;"></line><line transform="translate(372,-80)" x2="0" y2="80" style="fill: none; stroke: #ddd; stroke-width: 1; opacity: 1;"></line><line transform="translate(394,-80)" x2="0" y2="80" style="fill: none; stroke: #ddd; stroke-width: 1; opacity: 1;"></line><line transform="translate(415,-80)" x2="0" y2="80" style="fill: none; stroke: #ddd; stroke-width: 1; opacity: 1;"></line><line transform="translate(436,-80)" x2="0" y2="80" style="fill: none; stroke: #ddd; stroke-width: 1; opacity: 1;"></line><line transform="translate(457,-80)" x2="0" y2="80" style="fill: none; stroke: #ddd; stroke-width: 1; opacity: 1;"></line><line transform="translate(479,-80)" x2="0" y2="80" style="fill: none; stroke: #ddd; stroke-width: 1; opacity: 1;"></line><line transform="translate(500,-80)" x2="0" y2="80" style="fill: none; stroke: #ddd; stroke-width: 1; opacity: 1;"></line><line transform="translate(521,-80)" x2="0" y2="80" style="fill: none; stroke: #ddd; stroke-width: 1; opacity: 1;"></line><line transform="translate(542,-80)" x2="0" y2="80" style="fill: none; stroke: #ddd; stroke-width: 1; opacity: 1;"></line><line transform="translate(564,-80)" x2="0" y2="80" style="fill: none; stroke: #ddd; stroke-width: 1; opacity: 1;"></line><line transform="translate(585,-80)" x2="0" y2="80" style="fill: none; stroke: #ddd; stroke-width: 1; opacity: 1;"></line></g></g><path class="foreground" d="" style="pointer-events: none; display: none; fill: none;"></path></g></g><g class="mark-group role-axis"><g transform="translate(0.5,0.5)"><path class="background" d="M0,0h0v0h0Z" style="pointer-events: none; fill: none;"></path><g><g class="mark-rule role-axis-grid" style="pointer-events: none;"><line transform="translate(0,80)" x2="585" y2="0" style="fill: none; stroke: #ddd; stroke-width: 1; opacity: 1;"></line><line transform="translate(0,40)" x2="585" y2="0" style="fill: none; stroke: #ddd; stroke-width: 1; opacity: 1;"></line><line transform="translate(0,0)" x2="585" y2="0" style="fill: none; stroke: #ddd; stroke-width: 1; opacity: 1;"></line></g></g><path class="foreground" d="" style="pointer-events: none; display: none; fill: none;"></path></g></g><g class="mark-group role-axis"><g transform="translate(0.5,80.5)"><path class="background" d="M0,0h0v0h0Z" style="pointer-events: none; fill: none;"></path><g><g class="mark-rule role-axis-tick" style="pointer-events: none;"><line transform="translate(0,0)" x2="0" y2="5" style="fill: none; stroke: #888; stroke-width: 1; opacity: 1;"></line><line transform="translate(21,0)" x2="0" y2="5" style="fill: none; stroke: #888; stroke-width: 1; opacity: 1;"></line><line transform="translate(43,0)" x2="0" y2="5" style="fill: none; stroke: #888; stroke-width: 1; opacity: 1;"></line><line transform="translate(64,0)" x2="0" y2="5" style="fill: none; stroke: #888; stroke-width: 1; opacity: 1;"></line><line transform="translate(85,0)" x2="0" y2="5" style="fill: none; stroke: #888; stroke-width: 1; opacity: 1;"></line><line transform="translate(106,0)" x2="0" y2="5" style="fill: none; stroke: #888; stroke-width: 1; opacity: 1;"></line><line transform="translate(128,0)" x2="0" y2="5" style="fill: none; stroke: #888; stroke-width: 1; opacity: 1;"></line><line transform="translate(149,0)" x2="0" y2="5" style="fill: none; stroke: #888; stroke-width: 1; opacity: 1;"></line><line transform="translate(160,0)" x2="0" y2="5" style="fill: none; stroke: #888; stroke-width: 1; opacity: 1;"></line><line transform="translate(181,0)" x2="0" y2="5" style="fill: none; stroke: #888; stroke-width: 1; opacity: 1;"></line><line transform="translate(202,0)" x2="0" y2="5" style="fill: none; stroke: #888; stroke-width: 1; opacity: 1;"></line><line transform="translate(223,0)" x2="0" y2="5" style="fill: none; stroke: #888; stroke-width: 1; opacity: 1;"></line><line transform="translate(245,0)" x2="0" y2="5" style="fill: none; stroke: #888; stroke-width: 1; opacity: 1;"></line><line transform="translate(266,0)" x2="0" y2="5" style="fill: none; stroke: #888; stroke-width: 1; opacity: 1;"></line><line transform="translate(287,0)" x2="0" y2="5" style="fill: none; stroke: #888; stroke-width: 1; opacity: 1;"></line><line transform="translate(308,0)" x2="0" y2="5" style="fill: none; stroke: #888; stroke-width: 1; opacity: 1;"></line><line transform="translate(330,0)" x2="0" y2="5" style="fill: none; stroke: #888; stroke-width: 1; opacity: 1;"></line><line transform="translate(351,0)" x2="0" y2="5" style="fill: none; stroke: #888; stroke-width: 1; opacity: 1;"></line><line transform="translate(372,0)" x2="0" y2="5" style="fill: none; stroke: #888; stroke-width: 1; opacity: 1;"></line><line transform="translate(394,0)" x2="0" y2="5" style="fill: none; stroke: #888; stroke-width: 1; opacity: 1;"></line><line transform="translate(415,0)" x2="0" y2="5" style="fill: none; stroke: #888; stroke-width: 1; opacity: 1;"></line><line transform="translate(436,0)" x2="0" y2="5" style="fill: none; stroke: #888; stroke-width: 1; opacity: 1;"></line><line transform="translate(457,0)" x2="0" y2="5" style="fill: none; stroke: #888; stroke-width: 1; opacity: 1;"></line><line transform="translate(479,0)" x2="0" y2="5" style="fill: none; stroke: #888; stroke-width: 1; opacity: 1;"></line><line transform="translate(500,0)" x2="0" y2="5" style="fill: none; stroke: #888; stroke-width: 1; opacity: 1;"></line><line transform="translate(521,0)" x2="0" y2="5" style="fill: none; stroke: #888; stroke-width: 1; opacity: 1;"></line><line transform="translate(542,0)" x2="0" y2="5" style="fill: none; stroke: #888; stroke-width: 1; opacity: 1;"></line><line transform="translate(564,0)" x2="0" y2="5" style="fill: none; stroke: #888; stroke-width: 1; opacity: 1;"></line><line transform="translate(585,0)" x2="0" y2="5" style="fill: none; stroke: #888; stroke-width: 1; opacity: 1;"></line></g><g class="mark-text role-axis-label" style="pointer-events: none;"><text text-anchor="start" transform="translate(0,18)" style="font-family: sans-serif; font-size: 14px; fill: #000; opacity: 1;">lun 17</text><text text-anchor="middle" transform="translate(21.272727272727273,18)" style="font-family: sans-serif; font-size: 14px; fill: #000; opacity: 0;">mié 19</text><text text-anchor="middle" transform="translate(42.54545454545455,18)" style="font-family: sans-serif; font-size: 14px; fill: #000; opacity: 0;">vie 21</text><text text-anchor="middle" transform="translate(63.81818181818181,18)" style="font-family: sans-serif; font-size: 14px; fill: #000; opacity: 0;">ago 23</text><text text-anchor="middle" transform="translate(85.0909090909091,18)" style="font-family: sans-serif; font-size: 14px; fill: #000; opacity: 1;">mar 25</text><text text-anchor="middle" transform="translate(106.36363636363636,18)" style="font-family: sans-serif; font-size: 14px; fill: #000; opacity: 0;">jue 27</text><text text-anchor="middle" transform="translate(127.63636363636363,18)" style="font-family: sans-serif; font-size: 14px; fill: #000; opacity: 0;">sáb 29</text><text text-anchor="middle" transform="translate(148.9090909090909,18)" style="font-family: sans-serif; font-size: 14px; fill: #000; opacity: 0;">lun 31</text><text text-anchor="middle" transform="translate(159.54545454545453,18)" style="font-family: sans-serif; font-size: 14px; fill: #000; opacity: 1;">septiembre</text><text text-anchor="middle" transform="translate(180.8181818181818,18)" style="font-family: sans-serif; font-size: 14px; fill: #000; opacity: 0;">jue 03</text><text text-anchor="middle" transform="translate(202.0909090909091,18)" style="font-family: sans-serif; font-size: 14px; fill: #000; opacity: 0;">sáb 05</text><text text-anchor="middle" transform="translate(223.36363636363637,18)" style="font-family: sans-serif; font-size: 14px; fill: #000; opacity: 0;">lun 07</text><text text-anchor="middle" transform="translate(244.63636363636363,18)" style="font-family: sans-serif; font-size: 14px; fill: #000; opacity: 1;">mié 09</text><text text-anchor="middle" transform="translate(265.9090909090909,18)" style="font-family: sans-serif; font-size: 14px; fill: #000; opacity: 0;">vie 11</text><text text-anchor="middle" transform="translate(287.1818181818182,18)" style="font-family: sans-serif; font-size: 14px; fill: #000; opacity: 0;">sep 13</text><text text-anchor="middle" transform="translate(308.45454545454544,18)" style="font-family: sans-serif; font-size: 14px; fill: #000; opacity: 0;">mar 15</text><text text-anchor="middle" transform="translate(329.7272727272727,18)" style="font-family: sans-serif; font-size: 14px; fill: #000; opacity: 1;">jue 17</text><text text-anchor="middle" transform="translate(351,18)" style="font-family: sans-serif; font-size: 14px; fill: #000; opacity: 0;">sáb 19</text><text text-anchor="middle" transform="translate(372.27272727272725,18)" style="font-family: sans-serif; font-size: 14px; fill: #000; opacity: 0;">lun 21</text><text text-anchor="middle" transform="translate(393.54545454545456,18)" style="font-family: sans-serif; font-size: 14px; fill: #000; opacity: 0;">mié 23</text><text text-anchor="middle" transform="translate(414.8181818181818,18)" style="font-family: sans-serif; font-size: 14px; fill: #000; opacity: 1;">vie 25</text><text text-anchor="middle" transform="translate(436.0909090909091,18)" style="font-family: sans-serif; font-size: 14px; fill: #000; opacity: 0;">sep 27</text><text text-anchor="middle" transform="translate(457.3636363636364,18)" style="font-family: sans-serif; font-size: 14px; fill: #000; opacity: 0;">mar 29</text><text text-anchor="middle" transform="translate(478.6363636363637,18)" style="font-family: sans-serif; font-size: 14px; fill: #000; opacity: 0;">octubre</text><text text-anchor="middle" transform="translate(499.9090909090909,18)" style="font-family: sans-serif; font-size: 14px; fill: #000; opacity: 1;">sáb 03</text><text text-anchor="middle" transform="translate(521.1818181818181,18)" style="font-family: sans-serif; font-size: 14px; fill: #000; opacity: 0;">lun 05</text><text text-anchor="middle" transform="translate(542.4545454545455,18)" style="font-family: sans-serif; font-size: 14px; fill: #000; opacity: 0;">mié 07</text><text text-anchor="middle" transform="translate(563.7272727272727,18)" style="font-family: sans-serif; font-size: 14px; fill: #000; opacity: 0;">vie 09</text><text text-anchor="end" transform="translate(585,18)" style="font-family: sans-serif; font-size: 14px; fill: #000; opacity: 1;">oct 11</text></g><g class="mark-rule role-axis-domain" style="pointer-events: none;"><line transform="translate(0,0)" x2="585" y2="0" style="fill: none; stroke: #888; stroke-width: 1; opacity: 1;"></line></g><g class="mark-text role-axis-title" style="pointer-events: none;"><text text-anchor="middle" transform="translate(292.5,36)" style="font-family: sans-serif; font-size: 14px; font-weight: bold; fill: #000; opacity: 1;">Fecha de muestra</text></g></g><path class="foreground" d="" style="pointer-events: none; display: none; fill: none;"></path></g></g><g class="mark-group role-axis"><g transform="translate(0.5,0.5)"><path class="background" d="M0,0h0v0h0Z" style="pointer-events: none; fill: none;"></path><g><g class="mark-rule role-axis-tick" style="pointer-events: none;"><line transform="translate(0,80)" x2="-5" y2="0" style="fill: none; stroke: #888; stroke-width: 1; opacity: 1;"></line><line transform="translate(0,40)" x2="-5" y2="0" style="fill: none; stroke: #888; stroke-width: 1; opacity: 1;"></line><line transform="translate(0,0)" x2="-5" y2="0" style="fill: none; stroke: #888; stroke-width: 1; opacity: 1;"></line></g><g class="mark-text role-axis-label" style="pointer-events: none;"><text text-anchor="end" transform="translate(-7,84)" style="font-family: sans-serif; font-size: 14px; fill: #000; opacity: 1;">0%</text><text text-anchor="end" transform="translate(-7,44)" style="font-family: sans-serif; font-size: 14px; fill: #000; opacity: 1;">10%</text><text text-anchor="end" transform="translate(-7,4)" style="font-family: sans-serif; font-size: 14px; fill: #000; opacity: 1;">20%</text></g><g class="mark-rule role-axis-domain" style="pointer-events: none;"><line transform="translate(0,80)" x2="0" y2="-80" style="fill: none; stroke: #888; stroke-width: 1; opacity: 1;"></line></g><g class="mark-text role-axis-title" style="pointer-events: none;"><text text-anchor="middle" transform="translate(-39.0205078125,40) rotate(-90) translate(0,-3)" style="font-family: sans-serif; font-size: 14px; font-weight: bold; fill: #000; opacity: 1;">Positivad</text></g></g><path class="foreground" d="" style="pointer-events: none; display: none; fill: none;"></path></g></g><g class="mark-rect role-mark concat_1_layer_0_marks" clip-path="url(#clip3)"><path d="M0,-320h585v360h-585Z" style="fill: red; opacity: 0.2;"></path><path d="M0,40h585v20h-585Z" style="fill: orange; opacity: 0.2;"></path><path d="M0,60h585v8h-585Z" style="fill: yellow; opacity: 0.2;"></path><path d="M0,68h585v11.599999999999994h-585Z" style="fill: green; opacity: 0.2;"></path></g><g class="mark-symbol role-mark concat_1_layer_1_marks" clip-path="url(#clip4)"><path transform="translate(585,36.489143015080586)" d="M2.7386127875258306,0A2.7386127875258306,2.7386127875258306,0,1,1,-2.7386127875258306,0A2.7386127875258306,2.7386127875258306,0,1,1,2.7386127875258306,0" style="fill: none; stroke: black; stroke-width: 2; opacity: 0.7;"></path><path transform="translate(574.3636363636364,36.459809853068286)" d="M2.7386127875258306,0A2.7386127875258306,2.7386127875258306,0,1,1,-2.7386127875258306,0A2.7386127875258306,2.7386127875258306,0,1,1,2.7386127875258306,0" style="fill: none; stroke: black; stroke-width: 2; opacity: 0.7;"></path><path transform="translate(563.7272727272727,36.713054547331126)" d="M2.7386127875258306,0A2.7386127875258306,2.7386127875258306,0,1,1,-2.7386127875258306,0A2.7386127875258306,2.7386127875258306,0,1,1,2.7386127875258306,0" style="fill: none; stroke: black; stroke-width: 2; opacity: 0.7;"></path><path transform="translate(553.0909090909091,37.33185372704732)" d="M2.7386127875258306,0A2.7386127875258306,2.7386127875258306,0,1,1,-2.7386127875258306,0A2.7386127875258306,2.7386127875258306,0,1,1,2.7386127875258306,0" style="fill: none; stroke: black; stroke-width: 2; opacity: 0.7;"></path><path transform="translate(542.4545454545455,37.56594006409128)" d="M2.7386127875258306,0A2.7386127875258306,2.7386127875258306,0,1,1,-2.7386127875258306,0A2.7386127875258306,2.7386127875258306,0,1,1,2.7386127875258306,0" style="fill: none; stroke: black; stroke-width: 2; opacity: 0.7;"></path><path transform="translate(531.8181818181818,38.28190128624841)" d="M2.7386127875258306,0A2.7386127875258306,2.7386127875258306,0,1,1,-2.7386127875258306,0A2.7386127875258306,2.7386127875258306,0,1,1,2.7386127875258306,0" style="fill: none; stroke: black; stroke-width: 2; opacity: 0.7;"></path><path transform="translate(521.1818181818181,38.647909764090315)" d="M2.7386127875258306,0A2.7386127875258306,2.7386127875258306,0,1,1,-2.7386127875258306,0A2.7386127875258306,2.7386127875258306,0,1,1,2.7386127875258306,0" style="fill: none; stroke: black; stroke-width: 2; opacity: 0.7;"></path><path transform="translate(510.5454545454545,39.62909869531293)" d="M2.7386127875258306,0A2.7386127875258306,2.7386127875258306,0,1,1,-2.7386127875258306,0A2.7386127875258306,2.7386127875258306,0,1,1,2.7386127875258306,0" style="fill: none; stroke: black; stroke-width: 2; opacity: 0.7;"></path><path transform="translate(499.9090909090909,39.70287499318937)" d="M2.7386127875258306,0A2.7386127875258306,2.7386127875258306,0,1,1,-2.7386127875258306,0A2.7386127875258306,2.7386127875258306,0,1,1,2.7386127875258306,0" style="fill: none; stroke: black; stroke-width: 2; opacity: 0.7;"></path><path transform="translate(489.27272727272725,39.58029031731937)" d="M2.7386127875258306,0A2.7386127875258306,2.7386127875258306,0,1,1,-2.7386127875258306,0A2.7386127875258306,2.7386127875258306,0,1,1,2.7386127875258306,0" style="fill: none; stroke: black; stroke-width: 2; opacity: 0.7;"></path><path transform="translate(478.6363636363637,39.63658132901364)" d="M2.7386127875258306,0A2.7386127875258306,2.7386127875258306,0,1,1,-2.7386127875258306,0A2.7386127875258306,2.7386127875258306,0,1,1,2.7386127875258306,0" style="fill: none; stroke: black; stroke-width: 2; opacity: 0.7;"></path><path transform="translate(468,38.36085879438481)" d="M2.7386127875258306,0A2.7386127875258306,2.7386127875258306,0,1,1,-2.7386127875258306,0A2.7386127875258306,2.7386127875258306,0,1,1,2.7386127875258306,0" style="fill: none; stroke: black; stroke-width: 2; opacity: 0.7;"></path><path transform="translate(457.3636363636364,35.78818985669276)" d="M2.7386127875258306,0A2.7386127875258306,2.7386127875258306,0,1,1,-2.7386127875258306,0A2.7386127875258306,2.7386127875258306,0,1,1,2.7386127875258306,0" style="fill: none; stroke: black; stroke-width: 2; opacity: 0.7;"></path><path transform="translate(446.72727272727275,35.63648513197461)" d="M2.7386127875258306,0A2.7386127875258306,2.7386127875258306,0,1,1,-2.7386127875258306,0A2.7386127875258306,2.7386127875258306,0,1,1,2.7386127875258306,0" style="fill: none; stroke: black; stroke-width: 2; opacity: 0.7;"></path><path transform="translate(436.0909090909091,34.5963494219366)" d="M2.7386127875258306,0A2.7386127875258306,2.7386127875258306,0,1,1,-2.7386127875258306,0A2.7386127875258306,2.7386127875258306,0,1,1,2.7386127875258306,0" style="fill: none; stroke: black; stroke-width: 2; opacity: 0.7;"></path><path transform="translate(425.45454545454544,34.6467418256356)" d="M2.7386127875258306,0A2.7386127875258306,2.7386127875258306,0,1,1,-2.7386127875258306,0A2.7386127875258306,2.7386127875258306,0,1,1,2.7386127875258306,0" style="fill: none; stroke: black; stroke-width: 2; opacity: 0.7;"></path><path transform="translate(414.8181818181818,34.523364794948506)" d="M2.7386127875258306,0A2.7386127875258306,2.7386127875258306,0,1,1,-2.7386127875258306,0A2.7386127875258306,2.7386127875258306,0,1,1,2.7386127875258306,0" style="fill: none; stroke: black; stroke-width: 2; opacity: 0.7;"></path><path transform="translate(404.1818181818182,32.11793676764672)" d="M2.7386127875258306,0A2.7386127875258306,2.7386127875258306,0,1,1,-2.7386127875258306,0A2.7386127875258306,2.7386127875258306,0,1,1,2.7386127875258306,0" style="fill: none; stroke: black; stroke-width: 2; opacity: 0.7;"></path><path transform="translate(393.54545454545456,30.024675111038004)" d="M2.7386127875258306,0A2.7386127875258306,2.7386127875258306,0,1,1,-2.7386127875258306,0A2.7386127875258306,2.7386127875258306,0,1,1,2.7386127875258306,0" style="fill: none; stroke: black; stroke-width: 2; opacity: 0.7;"></path><path transform="translate(382.90909090909093,28.623733246158878)" d="M2.7386127875258306,0A2.7386127875258306,2.7386127875258306,0,1,1,-2.7386127875258306,0A2.7386127875258306,2.7386127875258306,0,1,1,2.7386127875258306,0" style="fill: none; stroke: black; stroke-width: 2; opacity: 0.7;"></path><path transform="translate(372.27272727272725,27.537856990184313)" d="M2.7386127875258306,0A2.7386127875258306,2.7386127875258306,0,1,1,-2.7386127875258306,0A2.7386127875258306,2.7386127875258306,0,1,1,2.7386127875258306,0" style="fill: none; stroke: black; stroke-width: 2; opacity: 0.7;"></path><path transform="translate(361.6363636363636,25.734365269993773)" d="M2.7386127875258306,0A2.7386127875258306,2.7386127875258306,0,1,1,-2.7386127875258306,0A2.7386127875258306,2.7386127875258306,0,1,1,2.7386127875258306,0" style="fill: none; stroke: black; stroke-width: 2; opacity: 0.7;"></path><path transform="translate(351,25.642214101078533)" d="M2.7386127875258306,0A2.7386127875258306,2.7386127875258306,0,1,1,-2.7386127875258306,0A2.7386127875258306,2.7386127875258306,0,1,1,2.7386127875258306,0" style="fill: none; stroke: black; stroke-width: 2; opacity: 0.7;"></path><path transform="translate(340.3636363636364,25.421073529942603)" d="M2.7386127875258306,0A2.7386127875258306,2.7386127875258306,0,1,1,-2.7386127875258306,0A2.7386127875258306,2.7386127875258306,0,1,1,2.7386127875258306,0" style="fill: none; stroke: black; stroke-width: 2; opacity: 0.7;"></path><path transform="translate(329.7272727272727,24.74879819021586)" d="M2.7386127875258306,0A2.7386127875258306,2.7386127875258306,0,1,1,-2.7386127875258306,0A2.7386127875258306,2.7386127875258306,0,1,1,2.7386127875258306,0" style="fill: none; stroke: black; stroke-width: 2; opacity: 0.7;"></path><path transform="translate(319.09090909090907,25.94344532469785)" d="M2.7386127875258306,0A2.7386127875258306,2.7386127875258306,0,1,1,-2.7386127875258306,0A2.7386127875258306,2.7386127875258306,0,1,1,2.7386127875258306,0" style="fill: none; stroke: black; stroke-width: 2; opacity: 0.7;"></path><path transform="translate(308.45454545454544,28.284856924314052)" d="M2.7386127875258306,0A2.7386127875258306,2.7386127875258306,0,1,1,-2.7386127875258306,0A2.7386127875258306,2.7386127875258306,0,1,1,2.7386127875258306,0" style="fill: none; stroke: black; stroke-width: 2; opacity: 0.7;"></path><path transform="translate(297.8181818181818,28.512403286272637)" d="M2.7386127875258306,0A2.7386127875258306,2.7386127875258306,0,1,1,-2.7386127875258306,0A2.7386127875258306,2.7386127875258306,0,1,1,2.7386127875258306,0" style="fill: none; stroke: black; stroke-width: 2; opacity: 0.7;"></path><path transform="translate(287.1818181818182,28.44911147011309)" d="M2.7386127875258306,0A2.7386127875258306,2.7386127875258306,0,1,1,-2.7386127875258306,0A2.7386127875258306,2.7386127875258306,0,1,1,2.7386127875258306,0" style="fill: none; stroke: black; stroke-width: 2; opacity: 0.7;"></path><path transform="translate(276.54545454545456,28.451855749382773)" d="M2.7386127875258306,0A2.7386127875258306,2.7386127875258306,0,1,1,-2.7386127875258306,0A2.7386127875258306,2.7386127875258306,0,1,1,2.7386127875258306,0" style="fill: none; stroke: black; stroke-width: 2; opacity: 0.7;"></path><path transform="translate(265.9090909090909,28.071319409067765)" d="M2.7386127875258306,0A2.7386127875258306,2.7386127875258306,0,1,1,-2.7386127875258306,0A2.7386127875258306,2.7386127875258306,0,1,1,2.7386127875258306,0" style="fill: none; stroke: black; stroke-width: 2; opacity: 0.7;"></path><path transform="translate(255.27272727272725,29.64374516809795)" d="M2.7386127875258306,0A2.7386127875258306,2.7386127875258306,0,1,1,-2.7386127875258306,0A2.7386127875258306,2.7386127875258306,0,1,1,2.7386127875258306,0" style="fill: none; stroke: black; stroke-width: 2; opacity: 0.7;"></path><path transform="translate(244.63636363636363,31.921751120303348)" d="M2.7386127875258306,0A2.7386127875258306,2.7386127875258306,0,1,1,-2.7386127875258306,0A2.7386127875258306,2.7386127875258306,0,1,1,2.7386127875258306,0" style="fill: none; stroke: black; stroke-width: 2; opacity: 0.7;"></path><path transform="translate(234,32.52692256132982)" d="M2.7386127875258306,0A2.7386127875258306,2.7386127875258306,0,1,1,-2.7386127875258306,0A2.7386127875258306,2.7386127875258306,0,1,1,2.7386127875258306,0" style="fill: none; stroke: black; stroke-width: 2; opacity: 0.7;"></path><path transform="translate(223.36363636363637,32.81115928030729)" d="M2.7386127875258306,0A2.7386127875258306,2.7386127875258306,0,1,1,-2.7386127875258306,0A2.7386127875258306,2.7386127875258306,0,1,1,2.7386127875258306,0" style="fill: none; stroke: black; stroke-width: 2; opacity: 0.7;"></path><path transform="translate(212.72727272727272,33.3639645553003)" d="M2.7386127875258306,0A2.7386127875258306,2.7386127875258306,0,1,1,-2.7386127875258306,0A2.7386127875258306,2.7386127875258306,0,1,1,2.7386127875258306,0" style="fill: none; stroke: black; stroke-width: 2; opacity: 0.7;"></path><path transform="translate(202.0909090909091,33.280248909995294)" d="M2.7386127875258306,0A2.7386127875258306,2.7386127875258306,0,1,1,-2.7386127875258306,0A2.7386127875258306,2.7386127875258306,0,1,1,2.7386127875258306,0" style="fill: none; stroke: black; stroke-width: 2; opacity: 0.7;"></path><path transform="translate(191.45454545454547,33.383677630073436)" d="M2.7386127875258306,0A2.7386127875258306,2.7386127875258306,0,1,1,-2.7386127875258306,0A2.7386127875258306,2.7386127875258306,0,1,1,2.7386127875258306,0" style="fill: none; stroke: black; stroke-width: 2; opacity: 0.7;"></path><path transform="translate(180.8181818181818,33.87543321914379)" d="M2.7386127875258306,0A2.7386127875258306,2.7386127875258306,0,1,1,-2.7386127875258306,0A2.7386127875258306,2.7386127875258306,0,1,1,2.7386127875258306,0" style="fill: none; stroke: black; stroke-width: 2; opacity: 0.7;"></path><path transform="translate(170.1818181818182,34.19590012934583)" d="M2.7386127875258306,0A2.7386127875258306,2.7386127875258306,0,1,1,-2.7386127875258306,0A2.7386127875258306,2.7386127875258306,0,1,1,2.7386127875258306,0" style="fill: none; stroke: black; stroke-width: 2; opacity: 0.7;"></path><path transform="translate(159.54545454545453,33.97158164453762)" d="M2.7386127875258306,0A2.7386127875258306,2.7386127875258306,0,1,1,-2.7386127875258306,0A2.7386127875258306,2.7386127875258306,0,1,1,2.7386127875258306,0" style="fill: none; stroke: black; stroke-width: 2; opacity: 0.7;"></path><path transform="translate(148.9090909090909,33.39889342900155)" d="M2.7386127875258306,0A2.7386127875258306,2.7386127875258306,0,1,1,-2.7386127875258306,0A2.7386127875258306,2.7386127875258306,0,1,1,2.7386127875258306,0" style="fill: none; stroke: black; stroke-width: 2; opacity: 0.7;"></path><path transform="translate(138.27272727272728,32.64487543239147)" d="M2.7386127875258306,0A2.7386127875258306,2.7386127875258306,0,1,1,-2.7386127875258306,0A2.7386127875258306,2.7386127875258306,0,1,1,2.7386127875258306,0" style="fill: none; stroke: black; stroke-width: 2; opacity: 0.7;"></path><path transform="translate(127.63636363636363,32.59461037065862)" d="M2.7386127875258306,0A2.7386127875258306,2.7386127875258306,0,1,1,-2.7386127875258306,0A2.7386127875258306,2.7386127875258306,0,1,1,2.7386127875258306,0" style="fill: none; stroke: black; stroke-width: 2; opacity: 0.7;"></path><path transform="translate(117,32.639197143684264)" d="M2.7386127875258306,0A2.7386127875258306,2.7386127875258306,0,1,1,-2.7386127875258306,0A2.7386127875258306,2.7386127875258306,0,1,1,2.7386127875258306,0" style="fill: none; stroke: black; stroke-width: 2; opacity: 0.7;"></path><path transform="translate(106.36363636363636,32.714266988745955)" d="M2.7386127875258306,0A2.7386127875258306,2.7386127875258306,0,1,1,-2.7386127875258306,0A2.7386127875258306,2.7386127875258306,0,1,1,2.7386127875258306,0" style="fill: none; stroke: black; stroke-width: 2; opacity: 0.7;"></path><path transform="translate(95.72727272727273,33.264479398562095)" d="M2.7386127875258306,0A2.7386127875258306,2.7386127875258306,0,1,1,-2.7386127875258306,0A2.7386127875258306,2.7386127875258306,0,1,1,2.7386127875258306,0" style="fill: none; stroke: black; stroke-width: 2; opacity: 0.7;"></path><path transform="translate(85.0909090909091,33.24453003798213)" d="M2.7386127875258306,0A2.7386127875258306,2.7386127875258306,0,1,1,-2.7386127875258306,0A2.7386127875258306,2.7386127875258306,0,1,1,2.7386127875258306,0" style="fill: none; stroke: black; stroke-width: 2; opacity: 0.7;"></path><path transform="translate(74.45454545454545,33.30769502169848)" d="M2.7386127875258306,0A2.7386127875258306,2.7386127875258306,0,1,1,-2.7386127875258306,0A2.7386127875258306,2.7386127875258306,0,1,1,2.7386127875258306,0" style="fill: none; stroke: black; stroke-width: 2; opacity: 0.7;"></path><path transform="translate(63.81818181818181,32.97110793573346)" d="M2.7386127875258306,0A2.7386127875258306,2.7386127875258306,0,1,1,-2.7386127875258306,0A2.7386127875258306,2.7386127875258306,0,1,1,2.7386127875258306,0" style="fill: none; stroke: black; stroke-width: 2; opacity: 0.7;"></path><path transform="translate(53.18181818181818,32.975671053090856)" d="M2.7386127875258306,0A2.7386127875258306,2.7386127875258306,0,1,1,-2.7386127875258306,0A2.7386127875258306,2.7386127875258306,0,1,1,2.7386127875258306,0" style="fill: none; stroke: black; stroke-width: 2; opacity: 0.7;"></path><path transform="translate(42.54545454545455,32.91914893617022)" d="M2.7386127875258306,0A2.7386127875258306,2.7386127875258306,0,1,1,-2.7386127875258306,0A2.7386127875258306,2.7386127875258306,0,1,1,2.7386127875258306,0" style="fill: none; stroke: black; stroke-width: 2; opacity: 0.7;"></path><path transform="translate(31.909090909090907,32.335577069804515)" d="M2.7386127875258306,0A2.7386127875258306,2.7386127875258306,0,1,1,-2.7386127875258306,0A2.7386127875258306,2.7386127875258306,0,1,1,2.7386127875258306,0" style="fill: none; stroke: black; stroke-width: 2; opacity: 0.7;"></path><path transform="translate(21.272727272727273,32.0983785256847)" d="M2.7386127875258306,0A2.7386127875258306,2.7386127875258306,0,1,1,-2.7386127875258306,0A2.7386127875258306,2.7386127875258306,0,1,1,2.7386127875258306,0" style="fill: none; stroke: black; stroke-width: 2; opacity: 0.7;"></path><path transform="translate(10.636363636363637,32.267077068781816)" d="M2.7386127875258306,0A2.7386127875258306,2.7386127875258306,0,1,1,-2.7386127875258306,0A2.7386127875258306,2.7386127875258306,0,1,1,2.7386127875258306,0" style="fill: none; stroke: black; stroke-width: 2; opacity: 0.7;"></path><path transform="translate(0,31.72482751724828)" d="M2.7386127875258306,0A2.7386127875258306,2.7386127875258306,0,1,1,-2.7386127875258306,0A2.7386127875258306,2.7386127875258306,0,1,1,2.7386127875258306,0" style="fill: none; stroke: black; stroke-width: 2; opacity: 0.7;"></path></g><g class="mark-symbol role-mark concat_1_layer_2_marks" clip-path="url(#clip5)"><path transform="translate(585,53.4388225742369)" d="M-2.7386127875258306,0L0,-2.7386127875258306L2.7386127875258306,0L0,2.7386127875258306Z" style="fill: none; stroke: black; stroke-width: 2; opacity: 0.7;"></path><path transform="translate(574.3636363636364,53.441659464131384)" d="M-2.7386127875258306,0L0,-2.7386127875258306L2.7386127875258306,0L0,2.7386127875258306Z" style="fill: none; stroke: black; stroke-width: 2; opacity: 0.7;"></path><path transform="translate(563.7272727272727,53.6603994288958)" d="M-2.7386127875258306,0L0,-2.7386127875258306L2.7386127875258306,0L0,2.7386127875258306Z" style="fill: none; stroke: black; stroke-width: 2; opacity: 0.7;"></path><path transform="translate(553.0909090909091,53.85258266433166)" d="M-2.7386127875258306,0L0,-2.7386127875258306L2.7386127875258306,0L0,2.7386127875258306Z" style="fill: none; stroke: black; stroke-width: 2; opacity: 0.7;"></path><path transform="translate(542.4545454545455,53.95499524597669)" d="M-2.7386127875258306,0L0,-2.7386127875258306L2.7386127875258306,0L0,2.7386127875258306Z" style="fill: none; stroke: black; stroke-width: 2; opacity: 0.7;"></path><path transform="translate(531.8181818181818,54.29649904291669)" d="M-2.7386127875258306,0L0,-2.7386127875258306L2.7386127875258306,0L0,2.7386127875258306Z" style="fill: none; stroke: black; stroke-width: 2; opacity: 0.7;"></path><path transform="translate(521.1818181818181,54.37039451052813)" d="M-2.7386127875258306,0L0,-2.7386127875258306L2.7386127875258306,0L0,2.7386127875258306Z" style="fill: none; stroke: black; stroke-width: 2; opacity: 0.7;"></path><path transform="translate(510.5454545454545,54.472409225353395)" d="M-2.7386127875258306,0L0,-2.7386127875258306L2.7386127875258306,0L0,2.7386127875258306Z" style="fill: none; stroke: black; stroke-width: 2; opacity: 0.7;"></path><path transform="translate(499.9090909090909,54.47194929260276)" d="M-2.7386127875258306,0L0,-2.7386127875258306L2.7386127875258306,0L0,2.7386127875258306Z" style="fill: none; stroke: black; stroke-width: 2; opacity: 0.7;"></path><path transform="translate(489.27272727272725,54.35349123792611)" d="M-2.7386127875258306,0L0,-2.7386127875258306L2.7386127875258306,0L0,2.7386127875258306Z" style="fill: none; stroke: black; stroke-width: 2; opacity: 0.7;"></path><path transform="translate(478.6363636363637,54.0958551959714)" d="M-2.7386127875258306,0L0,-2.7386127875258306L2.7386127875258306,0L0,2.7386127875258306Z" style="fill: none; stroke: black; stroke-width: 2; opacity: 0.7;"></path><path transform="translate(468,53.279658684282964)" d="M-2.7386127875258306,0L0,-2.7386127875258306L2.7386127875258306,0L0,2.7386127875258306Z" style="fill: none; stroke: black; stroke-width: 2; opacity: 0.7;"></path><path transform="translate(457.3636363636364,51.01331436121556)" d="M-2.7386127875258306,0L0,-2.7386127875258306L2.7386127875258306,0L0,2.7386127875258306Z" style="fill: none; stroke: black; stroke-width: 2; opacity: 0.7;"></path><path transform="translate(446.72727272727275,50.86535248914133)" d="M-2.7386127875258306,0L0,-2.7386127875258306L2.7386127875258306,0L0,2.7386127875258306Z" style="fill: none; stroke: black; stroke-width: 2; opacity: 0.7;"></path><path transform="translate(436.0909090909091,50.02020737403518)" d="M-2.7386127875258306,0L0,-2.7386127875258306L2.7386127875258306,0L0,2.7386127875258306Z" style="fill: none; stroke: black; stroke-width: 2; opacity: 0.7;"></path><path transform="translate(425.45454545454544,50.00033061130029)" d="M-2.7386127875258306,0L0,-2.7386127875258306L2.7386127875258306,0L0,2.7386127875258306Z" style="fill: none; stroke: black; stroke-width: 2; opacity: 0.7;"></path><path transform="translate(414.8181818181818,49.79023753243963)" d="M-2.7386127875258306,0L0,-2.7386127875258306L2.7386127875258306,0L0,2.7386127875258306Z" style="fill: none; stroke: black; stroke-width: 2; opacity: 0.7;"></path><path transform="translate(404.1818181818182,48.235080238650085)" d="M-2.7386127875258306,0L0,-2.7386127875258306L2.7386127875258306,0L0,2.7386127875258306Z" style="fill: none; stroke: black; stroke-width: 2; opacity: 0.7;"></path><path transform="translate(393.54545454545456,46.606349728573775)" d="M-2.7386127875258306,0L0,-2.7386127875258306L2.7386127875258306,0L0,2.7386127875258306Z" style="fill: none; stroke: black; stroke-width: 2; opacity: 0.7;"></path><path transform="translate(382.90909090909093,45.90389016018307)" d="M-2.7386127875258306,0L0,-2.7386127875258306L2.7386127875258306,0L0,2.7386127875258306Z" style="fill: none; stroke: black; stroke-width: 2; opacity: 0.7;"></path><path transform="translate(372.27272727272725,45.42641521842785)" d="M-2.7386127875258306,0L0,-2.7386127875258306L2.7386127875258306,0L0,2.7386127875258306Z" style="fill: none; stroke: black; stroke-width: 2; opacity: 0.7;"></path><path transform="translate(361.6363636363636,44.266524330575564)" d="M-2.7386127875258306,0L0,-2.7386127875258306L2.7386127875258306,0L0,2.7386127875258306Z" style="fill: none; stroke: black; stroke-width: 2; opacity: 0.7;"></path><path transform="translate(351,44.17506016579018)" d="M-2.7386127875258306,0L0,-2.7386127875258306L2.7386127875258306,0L0,2.7386127875258306Z" style="fill: none; stroke: black; stroke-width: 2; opacity: 0.7;"></path><path transform="translate(340.3636363636364,44.02555679890264)" d="M-2.7386127875258306,0L0,-2.7386127875258306L2.7386127875258306,0L0,2.7386127875258306Z" style="fill: none; stroke: black; stroke-width: 2; opacity: 0.7;"></path><path transform="translate(329.7272727272727,43.8118578565369)" d="M-2.7386127875258306,0L0,-2.7386127875258306L2.7386127875258306,0L0,2.7386127875258306Z" style="fill: none; stroke: black; stroke-width: 2; opacity: 0.7;"></path><path transform="translate(319.09090909090907,44.64079878178069)" d="M-2.7386127875258306,0L0,-2.7386127875258306L2.7386127875258306,0L0,2.7386127875258306Z" style="fill: none; stroke: black; stroke-width: 2; opacity: 0.7;"></path><path transform="translate(308.45454545454544,47.34069468688097)" d="M-2.7386127875258306,0L0,-2.7386127875258306L2.7386127875258306,0L0,2.7386127875258306Z" style="fill: none; stroke: black; stroke-width: 2; opacity: 0.7;"></path><path transform="translate(297.8181818181818,48.01467655739012)" d="M-2.7386127875258306,0L0,-2.7386127875258306L2.7386127875258306,0L0,2.7386127875258306Z" style="fill: none; stroke: black; stroke-width: 2; opacity: 0.7;"></path><path transform="translate(287.1818181818182,49.61227786752828)" d="M-2.7386127875258306,0L0,-2.7386127875258306L2.7386127875258306,0L0,2.7386127875258306Z" style="fill: none; stroke: black; stroke-width: 2; opacity: 0.7;"></path><path transform="translate(276.54545454545456,49.61185089245962)" d="M-2.7386127875258306,0L0,-2.7386127875258306L2.7386127875258306,0L0,2.7386127875258306Z" style="fill: none; stroke: black; stroke-width: 2; opacity: 0.7;"></path><path transform="translate(265.9090909090909,49.948038716250636)" d="M-2.7386127875258306,0L0,-2.7386127875258306L2.7386127875258306,0L0,2.7386127875258306Z" style="fill: none; stroke: black; stroke-width: 2; opacity: 0.7;"></path><path transform="translate(255.27272727272725,52.243465178963206)" d="M-2.7386127875258306,0L0,-2.7386127875258306L2.7386127875258306,0L0,2.7386127875258306Z" style="fill: none; stroke: black; stroke-width: 2; opacity: 0.7;"></path><path transform="translate(244.63636363636363,55.04308859014132)" d="M-2.7386127875258306,0L0,-2.7386127875258306L2.7386127875258306,0L0,2.7386127875258306Z" style="fill: none; stroke: black; stroke-width: 2; opacity: 0.7;"></path><path transform="translate(234,56.37070467849323)" d="M-2.7386127875258306,0L0,-2.7386127875258306L2.7386127875258306,0L0,2.7386127875258306Z" style="fill: none; stroke: black; stroke-width: 2; opacity: 0.7;"></path><path transform="translate(223.36363636363637,57.097419079494145)" d="M-2.7386127875258306,0L0,-2.7386127875258306L2.7386127875258306,0L0,2.7386127875258306Z" style="fill: none; stroke: black; stroke-width: 2; opacity: 0.7;"></path><path transform="translate(212.72727272727272,57.5024614374795)" d="M-2.7386127875258306,0L0,-2.7386127875258306L2.7386127875258306,0L0,2.7386127875258306Z" style="fill: none; stroke: black; stroke-width: 2; opacity: 0.7;"></path><path transform="translate(202.0909090909091,57.499846478210145)" d="M-2.7386127875258306,0L0,-2.7386127875258306L2.7386127875258306,0L0,2.7386127875258306Z" style="fill: none; stroke: black; stroke-width: 2; opacity: 0.7;"></path><path transform="translate(191.45454545454547,57.71536749256278)" d="M-2.7386127875258306,0L0,-2.7386127875258306L2.7386127875258306,0L0,2.7386127875258306Z" style="fill: none; stroke: black; stroke-width: 2; opacity: 0.7;"></path><path transform="translate(180.8181818181818,58.45223070296693)" d="M-2.7386127875258306,0L0,-2.7386127875258306L2.7386127875258306,0L0,2.7386127875258306Z" style="fill: none; stroke: black; stroke-width: 2; opacity: 0.7;"></path><path transform="translate(170.1818181818182,58.85783718104496)" d="M-2.7386127875258306,0L0,-2.7386127875258306L2.7386127875258306,0L0,2.7386127875258306Z" style="fill: none; stroke: black; stroke-width: 2; opacity: 0.7;"></path><path transform="translate(159.54545454545453,57.855423557729644)" d="M-2.7386127875258306,0L0,-2.7386127875258306L2.7386127875258306,0L0,2.7386127875258306Z" style="fill: none; stroke: black; stroke-width: 2; opacity: 0.7;"></path><path transform="translate(148.9090909090909,57.15693366439227)" d="M-2.7386127875258306,0L0,-2.7386127875258306L2.7386127875258306,0L0,2.7386127875258306Z" style="fill: none; stroke: black; stroke-width: 2; opacity: 0.7;"></path><path transform="translate(138.27272727272728,55.995957868553)" d="M-2.7386127875258306,0L0,-2.7386127875258306L2.7386127875258306,0L0,2.7386127875258306Z" style="fill: none; stroke: black; stroke-width: 2; opacity: 0.7;"></path><path transform="translate(127.63636363636363,55.966533709504816)" d="M-2.7386127875258306,0L0,-2.7386127875258306L2.7386127875258306,0L0,2.7386127875258306Z" style="fill: none; stroke: black; stroke-width: 2; opacity: 0.7;"></path><path transform="translate(117,55.33532760783557)" d="M-2.7386127875258306,0L0,-2.7386127875258306L2.7386127875258306,0L0,2.7386127875258306Z" style="fill: none; stroke: black; stroke-width: 2; opacity: 0.7;"></path><path transform="translate(106.36363636363636,54.23365728517125)" d="M-2.7386127875258306,0L0,-2.7386127875258306L2.7386127875258306,0L0,2.7386127875258306Z" style="fill: none; stroke: black; stroke-width: 2; opacity: 0.7;"></path><path transform="translate(95.72727272727273,53.62869968249334)" d="M-2.7386127875258306,0L0,-2.7386127875258306L2.7386127875258306,0L0,2.7386127875258306Z" style="fill: none; stroke: black; stroke-width: 2; opacity: 0.7;"></path><path transform="translate(85.0909090909091,52.59580235025589)" d="M-2.7386127875258306,0L0,-2.7386127875258306L2.7386127875258306,0L0,2.7386127875258306Z" style="fill: none; stroke: black; stroke-width: 2; opacity: 0.7;"></path><path transform="translate(74.45454545454545,51.9507462159969)" d="M-2.7386127875258306,0L0,-2.7386127875258306L2.7386127875258306,0L0,2.7386127875258306Z" style="fill: none; stroke: black; stroke-width: 2; opacity: 0.7;"></path><path transform="translate(63.81818181818181,51.540096887742656)" d="M-2.7386127875258306,0L0,-2.7386127875258306L2.7386127875258306,0L0,2.7386127875258306Z" style="fill: none; stroke: black; stroke-width: 2; opacity: 0.7;"></path><path transform="translate(53.18181818181818,51.49638730845754)" d="M-2.7386127875258306,0L0,-2.7386127875258306L2.7386127875258306,0L0,2.7386127875258306Z" style="fill: none; stroke: black; stroke-width: 2; opacity: 0.7;"></path><path transform="translate(42.54545454545455,51.26127659574468)" d="M-2.7386127875258306,0L0,-2.7386127875258306L2.7386127875258306,0L0,2.7386127875258306Z" style="fill: none; stroke: black; stroke-width: 2; opacity: 0.7;"></path><path transform="translate(31.909090909090907,50.091049356550634)" d="M-2.7386127875258306,0L0,-2.7386127875258306L2.7386127875258306,0L0,2.7386127875258306Z" style="fill: none; stroke: black; stroke-width: 2; opacity: 0.7;"></path><path transform="translate(21.272727272727273,49.55988554298951)" d="M-2.7386127875258306,0L0,-2.7386127875258306L2.7386127875258306,0L0,2.7386127875258306Z" style="fill: none; stroke: black; stroke-width: 2; opacity: 0.7;"></path><path transform="translate(10.636363636363637,50.011331157300134)" d="M-2.7386127875258306,0L0,-2.7386127875258306L2.7386127875258306,0L0,2.7386127875258306Z" style="fill: none; stroke: black; stroke-width: 2; opacity: 0.7;"></path><path transform="translate(0,49.48305169483052)" d="M-2.7386127875258306,0L0,-2.7386127875258306L2.7386127875258306,0L0,2.7386127875258306Z" style="fill: none; stroke: black; stroke-width: 2; opacity: 0.7;"></path></g></g><path class="foreground" d="" style="display: none; fill: none;"></path></g></g></g><path class="foreground" d="" style="display: none; fill: none;"></path></g></g></g></svg>