<svg class="marks" width="626" height="206" viewBox="0 0 626 206" version="1.1" xmlns="http://www.w3.org/2000/svg" xmlns:xlink="http://www.w3.org/1999/xlink"><rect width="626" height="206" style="fill: white;"></rect><g transform="translate(45,13)"><g class="mark-group role-frame root"><g transform="translate(0,0)"><path class="background" d="M0,0h0v0h0Z" style="fill: none;"></path><g><g class="mark-group role-row-header row_header"><g transform="translate(-1,0)"><path class="background" d="M0,0h0v37h0Z" style="fill: none;"></path><g><g class="mark-group role-axis"><g transform="translate(0.5,0.5)"><path class="background" d="M0,0h0v0h0Z" style="pointer-events: none; fill: none;"></path><g><g class="mark-rule role-axis-tick" style="pointer-events: none;"><line transform="translate(0,37)" x2="-5" y2="0" style="fill: none; stroke: #888; stroke-width: 1; opacity: 1;"></line><line transform="translate(0,11)" x2="-5" y2="0" style="fill: none; stroke: #888; stroke-width: 1; opacity: 1;"></line></g><g class="mark-text role-axis-label" style="pointer-events: none;"><text text-anchor="end" transform="translate(-7,41)" style="font-family: sans-serif; font-size: 14px; fill: #000; opacity: 1;">0</text><text text-anchor="end" transform="translate(-7,14.571428571428571)" style="font-family: sans-serif; font-size: 14px; fill: #000; opacity: 1;">5</text></g><g class="mark-rule role-axis-domain" style="pointer-events: none;"><line transform="translate(0,37)" x2="0" y2="-37" style="fill: none; stroke: #888; stroke-width: 1; opacity: 1;"></line></g></g><path class="foreground" d="" style="pointer-events: none; display: none; fill: none;"></path></g></g><g class="mark-group role-title"><g transform="translate(-38.7861328125,18.5)"><path class="background" d="M0,0h0v0h0Z" style="pointer-events: none; fill: none;"></path><g><g class="mark-text role-title-text" style="pointer-events: none;"><text text-anchor="middle" transform="translate(0,0) rotate(-90) translate(0,11)" style="font-family: sans-serif; font-size: 14px; fill: #000; opacity: 1;">Pruebas</text></g></g><path class="foreground" d="" style="pointer-events: none; display: none; fill: none;"></path></g></g></g><path class="foreground" d="" style="display: none; fill: none;"></path></g><g transform="translate(-1,71)"><path class="background" d="M0,0h0v37h0Z" style="fill: none;"></path><g><g class="mark-group role-axis"><g transform="translate(0.5,0.5)"><path class="background" d="M0,0h0v0h0Z" style="pointer-events: none; fill: none;"></path><g><g class="mark-rule role-axis-tick" style="pointer-events: none;"><line transform="translate(0,37)" x2="-5" y2="0" style="fill: none; stroke: #888; stroke-width: 1; opacity: 1;"></line><line transform="translate(0,11)" x2="-5" y2="0" style="fill: none; stroke: #888; stroke-width: 1; opacity: 1;"></line></g><g class="mark-text role-axis-label" style="pointer-events: none;"><text text-anchor="end" transform="translate(-7,41)" style="font-family: sans-serif; font-size: 14px; fill: #000; opacity: 1;">0</text><text text-anchor="end" transform="translate(-7,14.571428571428571)" style="font-family: sans-serif; font-size: 14px; fill: #000; opacity: 1;">5</text></g><g class="mark-rule role-axis-domain" style="pointer-events: none;"><line transform="translate(0,37)" x2="0" y2="-37" style="fill: none; stroke: #888; stroke-width: 1; opacity: 1;"></line></g></g><path class="foreground" d="" style="pointer-events: none; display: none; fill: none;"></path></g></g><g class="mark-group role-title"><g transform="translate(-38.7861328125,18.5)"><path class="background" d="M0,0h0v0h0Z" style="pointer-events: none; fill: none;"></path><g><g class="mark-text role-title-text" style="pointer-events: none;"><text text-anchor="middle" transform="translate(0,0) rotate(-90) translate(0,11)" style="font-family: sans-serif; font-size: 14px; fill: #000; opacity: 1;">Positivas</text></g></g><path class="foreground" d="" style="pointer-events: none; display: none; fill: none;"></path></g></g></g><path class="foreground" d="" style="display: none; fill: none;"></path></g></g><g class="mark-group role-column-footer column_footer"><g transform="translate(0,121)"><path class="background" d="M0,0h575v0h-575Z" style="fill: none;"></path><g><g class="mark-group role-axis"><g transform="translate(0.5,0.5)"><path class="background" d="M0,0h0v0h0Z" style="pointer-events: none; fill: none;"></path><g><g class="mark-rule role-axis-tick" style="pointer-events: none;"><line transform="translate(19,0)" x2="0" y2="5" style="fill: none; stroke: #888; stroke-width: 1; opacity: 1;"></line><line transform="translate(57,0)" x2="0" y2="5" style="fill: none; stroke: #888; stroke-width: 1; opacity: 1;"></line><line transform="translate(96,0)" x2="0" y2="5" style="fill: none; stroke: #888; stroke-width: 1; opacity: 1;"></line><line transform="translate(134,0)" x2="0" y2="5" style="fill: none; stroke: #888; stroke-width: 1; opacity: 1;"></line><line transform="translate(172,0)" x2="0" y2="5" style="fill: none; stroke: #888; stroke-width: 1; opacity: 1;"></line><line transform="translate(211,0)" x2="0" y2="5" style="fill: none; stroke: #888; stroke-width: 1; opacity: 1;"></line><line transform="translate(249,0)" x2="0" y2="5" style="fill: none; stroke: #888; stroke-width: 1; opacity: 1;"></line><line transform="translate(288,0)" x2="0" y2="5" style="fill: none; stroke: #888; stroke-width: 1; opacity: 1;"></line><line transform="translate(326,0)" x2="0" y2="5" style="fill: none; stroke: #888; stroke-width: 1; opacity: 1;"></line><line transform="translate(364,0)" x2="0" y2="5" style="fill: none; stroke: #888; stroke-width: 1; opacity: 1;"></line><line transform="translate(403,0)" x2="0" y2="5" style="fill: none; stroke: #888; stroke-width: 1; opacity: 1;"></line><line transform="translate(441,0)" x2="0" y2="5" style="fill: none; stroke: #888; stroke-width: 1; opacity: 1;"></line><line transform="translate(479,0)" x2="0" y2="5" style="fill: none; stroke: #888; stroke-width: 1; opacity: 1;"></line><line transform="translate(518,0)" x2="0" y2="5" style="fill: none; stroke: #888; stroke-width: 1; opacity: 1;"></line><line transform="translate(556,0)" x2="0" y2="5" style="fill: none; stroke: #888; stroke-width: 1; opacity: 1;"></line></g><g class="mark-text role-axis-label" style="pointer-events: none;"><text text-anchor="end" transform="translate(19.16666666666663,7) rotate(270) translate(0,4)" style="font-family: sans-serif; font-size: 14px; fill: #000; opacity: 1;">18/07</text><text text-anchor="end" transform="translate(57.499999999999964,7) rotate(270) translate(0,4)" style="font-family: sans-serif; font-size: 14px; fill: #000; opacity: 1;">19/07</text><text text-anchor="end" transform="translate(95.8333333333333,7) rotate(270) translate(0,4)" style="font-family: sans-serif; font-size: 14px; fill: #000; opacity: 1;">20/07</text><text text-anchor="end" transform="translate(134.16666666666663,7) rotate(270) translate(0,4)" style="font-family: sans-serif; font-size: 14px; fill: #000; opacity: 1;">21/07</text><text text-anchor="end" transform="translate(172.49999999999997,7) rotate(270) translate(0,4)" style="font-family: sans-serif; font-size: 14px; fill: #000; opacity: 1;">22/07</text><text text-anchor="end" transform="translate(210.83333333333331,7) rotate(270) translate(0,4)" style="font-family: sans-serif; font-size: 14px; fill: #000; opacity: 1;">23/07</text><text text-anchor="end" transform="translate(249.16666666666663,7) rotate(270) translate(0,4)" style="font-family: sans-serif; font-size: 14px; fill: #000; opacity: 1;">24/07</text><text text-anchor="end" transform="translate(287.5,7) rotate(270) translate(0,4)" style="font-family: sans-serif; font-size: 14px; fill: #000; opacity: 1;">25/07</text><text text-anchor="end" transform="translate(325.8333333333333,7) rotate(270) translate(0,4)" style="font-family: sans-serif; font-size: 14px; fill: #000; opacity: 1;">26/07</text><text text-anchor="end" transform="translate(364.16666666666663,7) rotate(270) translate(0,4)" style="font-family: sans-serif; font-size: 14px; fill: #000; opacity: 1;">27/07</text><text text-anchor="end" transform="translate(402.5,7) rotate(270) translate(0,4)" style="font-family: sans-serif; font-size: 14px; fill: #000; opacity: 1;">28/07</text><text text-anchor="end" transform="translate(440.8333333333333,7) rotate(270) translate(0,4)" style="font-family: sans-serif; font-size: 14px; fill: #000; opacity: 1;">29/07</text><text text-anchor="end" transform="translate(479.16666666666663,7) rotate(270) translate(0,4)" style="font-family: sans-serif; font-size: 14px; fill: #000; opacity: 1;">30/07</text><text text-anchor="end" transform="translate(517.5,7) rotate(270) translate(0,4)" style="font-family: sans-serif; font-size: 14px; fill: #000; opacity: 1;">31/07</text><text text-anchor="end" transform="translate(555.8333333333334,7) rotate(270) translate(0,4)" style="font-family: sans-serif; font-size: 14px; fill: #000; opacity: 1;">01/08</text></g><g class="mark-rule role-axis-domain" style="pointer-events: none;"><line transform="translate(0,0)" x2="575" y2="0" style="fill: none; stroke: #888; stroke-width: 1; opacity: 1;"></line></g><g class="mark-text role-axis-title" style="pointer-events: none;"><text text-anchor="middle" transform="translate(287.5,63.03417968750001)" style="font-family: sans-serif; font-size: 14px; font-weight: bold; fill: #000; opacity: 1;">Fecha de récord</text></g></g><path class="foreground" d="" style="pointer-events: none; display: none; fill: none;"></path></g></g></g><path class="foreground" d="" style="display: none; fill: none;"></path></g></g><g class="mark-group role-scope cell"><g transform="translate(0,0)"><path class="background" d="M0.5,0.5h575v37h-575Z" style="fill: none; stroke: #ddd;"></path><g><g class="mark-group role-axis"><g transform="translate(0.5,0.5)"><path class="background" d="M0,0h0v0h0Z" style="pointer-events: none; fill: none;"></path><g><g class="mark-rule role-axis-grid" style="pointer-events: none;"><line transform="translate(0,37)" x2="575" y2="0" style="fill: none; stroke: #ddd; stroke-width: 1; opacity: 1;"></line><line transform="translate(0,11)" x2="575" y2="0" style="fill: none; stroke: #ddd; stroke-width: 1; opacity: 1;"></line></g></g><path class="foreground" d="" style="pointer-events: none; display: none; fill: none;"></path></g></g><g class="mark-group role-scope child_layer_0_layer_0_pathgroup"><g transform="translate(0,0)"><path class="background" d="M0,0h575v37h-575Z" style="fill: none;"></path><g><g class="mark-line role-mark child_layer_0_layer_0_marks"><path d="M19.16666666666663,19.681193426042984L57.499999999999964,18.381308810949527L95.8333333333333,17.374656593406595L134.16666666666663,16.092535427298074L172.49999999999997,14.425169337180508L210.83333333333331,13.141252064784902L249.16666666666663,11.237909720921522L287.5,10.669127476166636L325.8333333333333,10.258490236016995L364.16666666666663,8.653912001853307L402.5,3.330611781742732L440.8333333333333,3.06141370455467L479.16666666666663,1.996192575230162L517.5,2.390978089470551L555.8333333333334,3.2715415743388685" style="fill: none; stroke: #4c78a8; stroke-width: 3;"></path></g></g><path class="foreground" d="" style="display: none; fill: none;"></path></g></g><g class="mark-symbol role-mark child_layer_0_layer_1_marks"><path transform="translate(555.8333333333334,3.2715415743388685)" d="M3.5355339059327378,0A3.5355339059327378,3.5355339059327378,0,1,1,-3.5355339059327378,0A3.5355339059327378,3.5355339059327378,0,1,1,3.5355339059327378,0" style="fill: #4c78a8; stroke-width: 2; opacity: 1;"></path><path transform="translate(517.5,2.390978089470551)" d="M3.5355339059327378,0A3.5355339059327378,3.5355339059327378,0,1,1,-3.5355339059327378,0A3.5355339059327378,3.5355339059327378,0,1,1,3.5355339059327378,0" style="fill: #4c78a8; stroke-width: 2; opacity: 1;"></path><path transform="translate(479.16666666666663,1.996192575230162)" d="M3.5355339059327378,0A3.5355339059327378,3.5355339059327378,0,1,1,-3.5355339059327378,0A3.5355339059327378,3.5355339059327378,0,1,1,3.5355339059327378,0" style="fill: #4c78a8; stroke-width: 2; opacity: 1;"></path><path transform="translate(440.8333333333333,3.06141370455467)" d="M3.5355339059327378,0A3.5355339059327378,3.5355339059327378,0,1,1,-3.5355339059327378,0A3.5355339059327378,3.5355339059327378,0,1,1,3.5355339059327378,0" style="fill: #4c78a8; stroke-width: 2; opacity: 1;"></path><path transform="translate(402.5,3.330611781742732)" d="M3.5355339059327378,0A3.5355339059327378,3.5355339059327378,0,1,1,-3.5355339059327378,0A3.5355339059327378,3.5355339059327378,0,1,1,3.5355339059327378,0" style="fill: #4c78a8; stroke-width: 2; opacity: 1;"></path><path transform="translate(364.16666666666663,8.653912001853307)" d="M3.5355339059327378,0A3.5355339059327378,3.5355339059327378,0,1,1,-3.5355339059327378,0A3.5355339059327378,3.5355339059327378,0,1,1,3.5355339059327378,0" style="fill: #4c78a8; stroke-width: 2; opacity: 1;"></path><path transform="translate(325.8333333333333,10.258490236016995)" d="M3.5355339059327378,0A3.5355339059327378,3.5355339059327378,0,1,1,-3.5355339059327378,0A3.5355339059327378,3.5355339059327378,0,1,1,3.5355339059327378,0" style="fill: #4c78a8; stroke-width: 2; opacity: 1;"></path><path transform="translate(287.5,10.669127476166636)" d="M3.5355339059327378,0A3.5355339059327378,3.5355339059327378,0,1,1,-3.5355339059327378,0A3.5355339059327378,3.5355339059327378,0,1,1,3.5355339059327378,0" style="fill: #4c78a8; stroke-width: 2; opacity: 1;"></path><path transform="translate(249.16666666666663,11.237909720921522)" d="M3.5355339059327378,0A3.5355339059327378,3.5355339059327378,0,1,1,-3.5355339059327378,0A3.5355339059327378,3.5355339059327378,0,1,1,3.5355339059327378,0" style="fill: #4c78a8; stroke-width: 2; opacity: 1;"></path><path transform="translate(210.83333333333331,13.141252064784902)" d="M3.5355339059327378,0A3.5355339059327378,3.5355339059327378,0,1,1,-3.5355339059327378,0A3.5355339059327378,3.5355339059327378,0,1,1,3.5355339059327378,0" style="fill: #4c78a8; stroke-width: 2; opacity: 1;"></path><path transform="translate(172.49999999999997,14.425169337180508)" d="M3.5355339059327378,0A3.5355339059327378,3.5355339059327378,0,1,1,-3.5355339059327378,0A3.5355339059327378,3.5355339059327378,0,1,1,3.5355339059327378,0" style="fill: #4c78a8; stroke-width: 2; opacity: 1;"></path><path transform="translate(134.16666666666663,16.092535427298074)" d="M3.5355339059327378,0A3.5355339059327378,3.5355339059327378,0,1,1,-3.5355339059327378,0A3.5355339059327378,3.5355339059327378,0,1,1,3.5355339059327378,0" style="fill: #4c78a8; stroke-width: 2; opacity: 1;"></path><path transform="translate(95.8333333333333,17.374656593406595)" d="M3.5355339059327378,0A3.5355339059327378,3.5355339059327378,0,1,1,-3.5355339059327378,0A3.5355339059327378,3.5355339059327378,0,1,1,3.5355339059327378,0" style="fill: #4c78a8; stroke-width: 2; opacity: 1;"></path><path transform="translate(57.499999999999964,18.381308810949527)" d="M3.5355339059327378,0A3.5355339059327378,3.5355339059327378,0,1,1,-3.5355339059327378,0A3.5355339059327378,3.5355339059327378,0,1,1,3.5355339059327378,0" style="fill: #4c78a8; stroke-width: 2; opacity: 1;"></path><path transform="translate(19.16666666666663,19.681193426042984)" d="M3.5355339059327378,0A3.5355339059327378,3.5355339059327378,0,1,1,-3.5355339059327378,0A3.5355339059327378,3.5355339059327378,0,1,1,3.5355339059327378,0" style="fill: #4c78a8; stroke-width: 2; opacity: 1;"></path></g><g class="mark-text role-mark child_layer_1_marks"><text text-anchor="middle" transform="translate(555.8333333333334,26.27154157433887)" style="font-family: sans-serif; font-size: 15px; fill: #4c78a8;">6.4</text><text text-anchor="middle" transform="translate(517.5,25.39097808947055)" style="font-family: sans-serif; font-size: 15px; fill: #4c78a8;">6.5</text><text text-anchor="middle" transform="translate(479.16666666666663,24.99619257523016)" style="font-family: sans-serif; font-size: 15px; fill: #4c78a8;">6.6</text><text text-anchor="middle" transform="translate(440.8333333333333,26.06141370455467)" style="font-family: sans-serif; font-size: 15px; fill: #4c78a8;">6.4</text><text text-anchor="middle" transform="translate(402.5,26.330611781742732)" style="font-family: sans-serif; font-size: 15px; fill: #4c78a8;">6.4</text><text text-anchor="middle" transform="translate(364.16666666666663,31.653912001853307)" style="font-family: sans-serif; font-size: 15px; fill: #4c78a8;">5.4</text><text text-anchor="middle" transform="translate(325.8333333333333,33.258490236016996)" style="font-family: sans-serif; font-size: 15px; fill: #4c78a8;">5.1</text><text text-anchor="middle" transform="translate(287.5,33.669127476166636)" style="font-family: sans-serif; font-size: 15px; fill: #4c78a8;">5.0</text><text text-anchor="middle" transform="translate(249.16666666666663,34.23790972092152)" style="font-family: sans-serif; font-size: 15px; fill: #4c78a8;">4.9</text><text text-anchor="middle" transform="translate(210.83333333333331,36.1412520647849)" style="font-family: sans-serif; font-size: 15px; fill: #4c78a8;">4.5</text><text text-anchor="middle" transform="translate(172.49999999999997,37.425169337180506)" style="font-family: sans-serif; font-size: 15px; fill: #4c78a8;">4.3</text><text text-anchor="middle" transform="translate(134.16666666666663,39.092535427298074)" style="font-family: sans-serif; font-size: 15px; fill: #4c78a8;">4.0</text><text text-anchor="middle" transform="translate(95.8333333333333,40.3746565934066)" style="font-family: sans-serif; font-size: 15px; fill: #4c78a8;">3.7</text><text text-anchor="middle" transform="translate(57.499999999999964,41.38130881094953)" style="font-family: sans-serif; font-size: 15px; fill: #4c78a8;">3.5</text><text text-anchor="middle" transform="translate(19.16666666666663,42.68119342604298)" style="font-family: sans-serif; font-size: 15px; fill: #4c78a8;">3.3</text></g></g><path class="foreground" d="" style="display: none; fill: none;"></path></g><g transform="translate(0,71)"><path class="background" d="M0.5,0.5h575v37h-575Z" style="fill: none; stroke: #ddd;"></path><g><g class="mark-group role-axis"><g transform="translate(0.5,0.5)"><path class="background" d="M0,0h0v0h0Z" style="pointer-events: none; fill: none;"></path><g><g class="mark-rule role-axis-grid" style="pointer-events: none;"><line transform="translate(0,37)" x2="575" y2="0" style="fill: none; stroke: #ddd; stroke-width: 1; opacity: 1;"></line><line transform="translate(0,11)" x2="575" y2="0" style="fill: none; stroke: #ddd; stroke-width: 1; opacity: 1;"></line></g></g><path class="foreground" d="" style="pointer-events: none; display: none; fill: none;"></path></g></g><g class="mark-group role-scope child_layer_0_layer_0_pathgroup"><g transform="translate(0,0)"><path class="background" d="M0,0h575v37h-575Z" style="fill: none;"></path><g><g class="mark-line role-mark child_layer_0_layer_0_marks"><path d="M19.16666666666663,22.094347499373804L57.499999999999964,21.481873954266593L95.8333333333333,20.473924128872746L134.16666666666663,18.944986185600523L172.49999999999997,17.7534736666944L210.83333333333331,17.14252549539839L249.16666666666663,16.864828738512948L287.5,16.914926795460453L325.8333333333333,16.80252875581702L364.16666666666663,15.150545634920636L402.5,12.07098074339454L440.8333333333333,12.425881353532493L479.16666666666663,11.61605764282038L517.5,12.19441723800196L555.8333333333334,12.820363917924892" style="fill: none; stroke: #f58518; stroke-width: 3;"></path></g></g><path class="foreground" d="" style="display: none; fill: none;"></path></g></g><g class="mark-symbol role-mark child_layer_0_layer_1_marks"><path transform="translate(555.8333333333334,12.820363917924892)" d="M3.5355339059327378,0A3.5355339059327378,3.5355339059327378,0,1,1,-3.5355339059327378,0A3.5355339059327378,3.5355339059327378,0,1,1,3.5355339059327378,0" style="fill: #f58518; stroke-width: 2; opacity: 1;"></path><path transform="translate(517.5,12.19441723800196)" d="M3.5355339059327378,0A3.5355339059327378,3.5355339059327378,0,1,1,-3.5355339059327378,0A3.5355339059327378,3.5355339059327378,0,1,1,3.5355339059327378,0" style="fill: #f58518; stroke-width: 2; opacity: 1;"></path><path transform="translate(479.16666666666663,11.61605764282038)" d="M3.5355339059327378,0A3.5355339059327378,3.5355339059327378,0,1,1,-3.5355339059327378,0A3.5355339059327378,3.5355339059327378,0,1,1,3.5355339059327378,0" style="fill: #f58518; stroke-width: 2; opacity: 1;"></path><path transform="translate(440.8333333333333,12.425881353532493)" d="M3.5355339059327378,0A3.5355339059327378,3.5355339059327378,0,1,1,-3.5355339059327378,0A3.5355339059327378,3.5355339059327378,0,1,1,3.5355339059327378,0" style="fill: #f58518; stroke-width: 2; opacity: 1;"></path><path transform="translate(402.5,12.07098074339454)" d="M3.5355339059327378,0A3.5355339059327378,3.5355339059327378,0,1,1,-3.5355339059327378,0A3.5355339059327378,3.5355339059327378,0,1,1,3.5355339059327378,0" style="fill: #f58518; stroke-width: 2; opacity: 1;"></path><path transform="translate(364.16666666666663,15.150545634920636)" d="M3.5355339059327378,0A3.5355339059327378,3.5355339059327378,0,1,1,-3.5355339059327378,0A3.5355339059327378,3.5355339059327378,0,1,1,3.5355339059327378,0" style="fill: #f58518; stroke-width: 2; opacity: 1;"></path><path transform="translate(325.8333333333333,16.80252875581702)" d="M3.5355339059327378,0A3.5355339059327378,3.5355339059327378,0,1,1,-3.5355339059327378,0A3.5355339059327378,3.5355339059327378,0,1,1,3.5355339059327378,0" style="fill: #f58518; stroke-width: 2; opacity: 1;"></path><path transform="translate(287.5,16.914926795460453)" d="M3.5355339059327378,0A3.5355339059327378,3.5355339059327378,0,1,1,-3.5355339059327378,0A3.5355339059327378,3.5355339059327378,0,1,1,3.5355339059327378,0" style="fill: #f58518; stroke-width: 2; opacity: 1;"></path><path transform="translate(249.16666666666663,16.864828738512948)" d="M3.5355339059327378,0A3.5355339059327378,3.5355339059327378,0,1,1,-3.5355339059327378,0A3.5355339059327378,3.5355339059327378,0,1,1,3.5355339059327378,0" style="fill: #f58518; stroke-width: 2; opacity: 1;"></path><path transform="translate(210.83333333333331,17.14252549539839)" d="M3.5355339059327378,0A3.5355339059327378,3.5355339059327378,0,1,1,-3.5355339059327378,0A3.5355339059327378,3.5355339059327378,0,1,1,3.5355339059327378,0" style="fill: #f58518; stroke-width: 2; opacity: 1;"></path><path transform="translate(172.49999999999997,17.7534736666944)" d="M3.5355339059327378,0A3.5355339059327378,3.5355339059327378,0,1,1,-3.5355339059327378,0A3.5355339059327378,3.5355339059327378,0,1,1,3.5355339059327378,0" style="fill: #f58518; stroke-width: 2; opacity: 1;"></path><path transform="translate(134.16666666666663,18.944986185600523)" d="M3.5355339059327378,0A3.5355339059327378,3.5355339059327378,0,1,1,-3.5355339059327378,0A3.5355339059327378,3.5355339059327378,0,1,1,3.5355339059327378,0" style="fill: #f58518; stroke-width: 2; opacity: 1;"></path><path transform="translate(95.8333333333333,20.473924128872746)" d="M3.5355339059327378,0A3.5355339059327378,3.5355339059327378,0,1,1,-3.5355339059327378,0A3.5355339059327378,3.5355339059327378,0,1,1,3.5355339059327378,0" style="fill: #f58518; stroke-width: 2; opacity: 1;"></path><path transform="translate(57.499999999999964,21.481873954266593)" d="M3.5355339059327378,0A3.5355339059327378,3.5355339059327378,0,1,1,-3.5355339059327378,0A3.5355339059327378,3.5355339059327378,0,1,1,3.5355339059327378,0" style="fill: #f58518; stroke-width: 2; opacity: 1;"></path><path transform="translate(19.16666666666663,22.094347499373804)" d="M3.5355339059327378,0A3.5355339059327378,3.5355339059327378,0,1,1,-3.5355339059327378,0A3.5355339059327378,3.5355339059327378,0,1,1,3.5355339059327378,0" style="fill: #f58518; stroke-width: 2; opacity: 1;"></path></g><g class="mark-text role-mark child_layer_1_marks"><text text-anchor="middle" transform="translate(555.8333333333334,35.820363917924894)" style="font-family: sans-serif; font-size: 15px; fill: #f58518;">4.6</text><text text-anchor="middle" transform="translate(517.5,35.19441723800196)" style="font-family: sans-serif; font-size: 15px; fill: #f58518;">4.7</text><text text-anchor="middle" transform="translate(479.16666666666663,34.61605764282038)" style="font-family: sans-serif; font-size: 15px; fill: #f58518;">4.8</text><text text-anchor="middle" transform="translate(440.8333333333333,35.42588135353249)" style="font-family: sans-serif; font-size: 15px; fill: #f58518;">4.6</text><text text-anchor="middle" transform="translate(402.5,35.07098074339454)" style="font-family: sans-serif; font-size: 15px; fill: #f58518;">4.7</text><text text-anchor="middle" transform="translate(364.16666666666663,38.15054563492063)" style="font-family: sans-serif; font-size: 15px; fill: #f58518;">4.1</text><text text-anchor="middle" transform="translate(325.8333333333333,39.80252875581702)" style="font-family: sans-serif; font-size: 15px; fill: #f58518;">3.8</text><text text-anchor="middle" transform="translate(287.5,39.91492679546045)" style="font-family: sans-serif; font-size: 15px; fill: #f58518;">3.8</text><text text-anchor="middle" transform="translate(249.16666666666663,39.86482873851295)" style="font-family: sans-serif; font-size: 15px; fill: #f58518;">3.8</text><text text-anchor="middle" transform="translate(210.83333333333331,40.14252549539839)" style="font-family: sans-serif; font-size: 15px; fill: #f58518;">3.8</text><text text-anchor="middle" transform="translate(172.49999999999997,40.753473666694404)" style="font-family: sans-serif; font-size: 15px; fill: #f58518;">3.6</text><text text-anchor="middle" transform="translate(134.16666666666663,41.94498618560053)" style="font-family: sans-serif; font-size: 15px; fill: #f58518;">3.4</text><text text-anchor="middle" transform="translate(95.8333333333333,43.473924128872746)" style="font-family: sans-serif; font-size: 15px; fill: #f58518;">3.1</text><text text-anchor="middle" transform="translate(57.499999999999964,44.48187395426659)" style="font-family: sans-serif; font-size: 15px; fill: #f58518;">2.9</text><text text-anchor="middle" transform="translate(19.16666666666663,45.094347499373804)" style="font-family: sans-serif; font-size: 15px; fill: #f58518;">2.8</text></g></g><path class="foreground" d="" style="display: none; fill: none;"></path></g></g></g><path class="foreground" d="" style="display: none; fill: none;"></path></g></g></g></svg>