<svg class="marks" width="643" height="299" viewBox="0 0 643 299" version="1.1" xmlns="http://www.w3.org/2000/svg" xmlns:xlink="http://www.w3.org/1999/xlink"><rect width="643" height="299" style="fill: white;"></rect><g transform="translate(50,5)"><g class="mark-group role-frame root"><g transform="translate(0,0)"><path class="background" d="M0.5,0.5h585v250h-585Z" style="fill: none; stroke: #ddd;"></path><g><g class="mark-group role-axis"><g transform="translate(0.5,250.5)"><path class="background" d="M0,0h0v0h0Z" style="pointer-events: none; fill: none;"></path><g><g class="mark-rule role-axis-grid" style="pointer-events: none;"><line transform="translate(15,-250)" x2="0" y2="250" style="fill: none; stroke: #ddd; stroke-width: 1; opacity: 1;"></line><line transform="translate(51,-250)" x2="0" y2="250" style="fill: none; stroke: #ddd; stroke-width: 1; opacity: 1;"></line><line transform="translate(87,-250)" x2="0" y2="250" style="fill: none; stroke: #ddd; stroke-width: 1; opacity: 1;"></line><line transform="translate(123,-250)" x2="0" y2="250" style="fill: none; stroke: #ddd; stroke-width: 1; opacity: 1;"></line><line transform="translate(159,-250)" x2="0" y2="250" style="fill: none; stroke: #ddd; stroke-width: 1; opacity: 1;"></line><line transform="translate(195,-250)" x2="0" y2="250" style="fill: none; stroke: #ddd; stroke-width: 1; opacity: 1;"></line><line transform="translate(231,-250)" x2="0" y2="250" style="fill: none; stroke: #ddd; stroke-width: 1; opacity: 1;"></line><line transform="translate(267,-250)" x2="0" y2="250" style="fill: none; stroke: #ddd; stroke-width: 1; opacity: 1;"></line><line transform="translate(303,-250)" x2="0" y2="250" style="fill: none; stroke: #ddd; stroke-width: 1; opacity: 1;"></line><line transform="translate(339,-250)" x2="0" y2="250" style="fill: none; stroke: #ddd; stroke-width: 1; opacity: 1;"></line><line transform="translate(375,-250)" x2="0" y2="250" style="fill: none; stroke: #ddd; stroke-width: 1; opacity: 1;"></line><line transform="translate(411,-250)" x2="0" y2="250" style="fill: none; stroke: #ddd; stroke-width: 1; opacity: 1;"></line><line transform="translate(446,-250)" x2="0" y2="250" style="fill: none; stroke: #ddd; stroke-width: 1; opacity: 1;"></line><line transform="translate(482,-250)" x2="0" y2="250" style="fill: none; stroke: #ddd; stroke-width: 1; opacity: 1;"></line><line transform="translate(518,-250)" x2="0" y2="250" style="fill: none; stroke: #ddd; stroke-width: 1; opacity: 1;"></line><line transform="translate(554,-250)" x2="0" y2="250" style="fill: none; stroke: #ddd; stroke-width: 1; opacity: 1;"></line></g></g><path class="foreground" d="" style="pointer-events: none; display: none; fill: none;"></path></g></g><g class="mark-group role-axis"><g transform="translate(0.5,0.5)"><path class="background" d="M0,0h0v0h0Z" style="pointer-events: none; fill: none;"></path><g><g class="mark-rule role-axis-grid" style="pointer-events: none;"><line transform="translate(0,250)" x2="585" y2="0" style="fill: none; stroke: #ddd; stroke-width: 1; opacity: 1;"></line><line transform="translate(0,212)" x2="585" y2="0" style="fill: none; stroke: #ddd; stroke-width: 1; opacity: 1;"></line><line transform="translate(0,173)" x2="585" y2="0" style="fill: none; stroke: #ddd; stroke-width: 1; opacity: 1;"></line><line transform="translate(0,135)" x2="585" y2="0" style="fill: none; stroke: #ddd; stroke-width: 1; opacity: 1;"></line><line transform="translate(0,96)" x2="585" y2="0" style="fill: none; stroke: #ddd; stroke-width: 1; opacity: 1;"></line><line transform="translate(0,58)" x2="585" y2="0" style="fill: none; stroke: #ddd; stroke-width: 1; opacity: 1;"></line><line transform="translate(0,19)" x2="585" y2="0" style="fill: none; stroke: #ddd; stroke-width: 1; opacity: 1;"></line></g></g><path class="foreground" d="" style="pointer-events: none; display: none; fill: none;"></path></g></g><g class="mark-group role-axis"><g transform="translate(0.5,250.5)"><path class="background" d="M0,0h0v0h0Z" style="pointer-events: none; fill: none;"></path><g><g class="mark-rule role-axis-tick" style="pointer-events: none;"><line transform="translate(15,0)" x2="0" y2="5" style="fill: none; stroke: #888; stroke-width: 1; opacity: 1;"></line><line transform="translate(51,0)" x2="0" y2="5" style="fill: none; stroke: #888; stroke-width: 1; opacity: 1;"></line><line transform="translate(87,0)" x2="0" y2="5" style="fill: none; stroke: #888; stroke-width: 1; opacity: 1;"></line><line transform="translate(123,0)" x2="0" y2="5" style="fill: none; stroke: #888; stroke-width: 1; opacity: 1;"></line><line transform="translate(159,0)" x2="0" y2="5" style="fill: none; stroke: #888; stroke-width: 1; opacity: 1;"></line><line transform="translate(195,0)" x2="0" y2="5" style="fill: none; stroke: #888; stroke-width: 1; opacity: 1;"></line><line transform="translate(231,0)" x2="0" y2="5" style="fill: none; stroke: #888; stroke-width: 1; opacity: 1;"></line><line transform="translate(267,0)" x2="0" y2="5" style="fill: none; stroke: #888; stroke-width: 1; opacity: 1;"></line><line transform="translate(303,0)" x2="0" y2="5" style="fill: none; stroke: #888; stroke-width: 1; opacity: 1;"></line><line transform="translate(339,0)" x2="0" y2="5" style="fill: none; stroke: #888; stroke-width: 1; opacity: 1;"></line><line transform="translate(375,0)" x2="0" y2="5" style="fill: none; stroke: #888; stroke-width: 1; opacity: 1;"></line><line transform="translate(411,0)" x2="0" y2="5" style="fill: none; stroke: #888; stroke-width: 1; opacity: 1;"></line><line transform="translate(446,0)" x2="0" y2="5" style="fill: none; stroke: #888; stroke-width: 1; opacity: 1;"></line><line transform="translate(482,0)" x2="0" y2="5" style="fill: none; stroke: #888; stroke-width: 1; opacity: 1;"></line><line transform="translate(518,0)" x2="0" y2="5" style="fill: none; stroke: #888; stroke-width: 1; opacity: 1;"></line><line transform="translate(554,0)" x2="0" y2="5" style="fill: none; stroke: #888; stroke-width: 1; opacity: 1;"></line></g><g class="mark-text role-axis-label" style="pointer-events: none;"><text text-anchor="middle" transform="translate(15.394736842105262,18)" style="font-family: sans-serif; font-size: 14px; fill: #000; opacity: 1;">15/03</text><text text-anchor="middle" transform="translate(51.315789473684205,18)" style="font-family: sans-serif; font-size: 14px; fill: #000; opacity: 1;">22/03</text><text text-anchor="middle" transform="translate(87.23684210526315,18)" style="font-family: sans-serif; font-size: 14px; fill: #000; opacity: 1;">29/03</text><text text-anchor="middle" transform="translate(123.1578947368421,18)" style="font-family: sans-serif; font-size: 14px; fill: #000; opacity: 1;">05/04</text><text text-anchor="middle" transform="translate(159.07894736842107,18)" style="font-family: sans-serif; font-size: 14px; fill: #000; opacity: 1;">12/04</text><text text-anchor="middle" transform="translate(195,18)" style="font-family: sans-serif; font-size: 14px; fill: #000; opacity: 1;">19/04</text><text text-anchor="middle" transform="translate(230.92105263157896,18)" style="font-family: sans-serif; font-size: 14px; fill: #000; opacity: 1;">26/04</text><text text-anchor="middle" transform="translate(266.84210526315786,18)" style="font-family: sans-serif; font-size: 14px; fill: #000; opacity: 1;">03/05</text><text text-anchor="middle" transform="translate(302.7631578947369,18)" style="font-family: sans-serif; font-size: 14px; fill: #000; opacity: 1;">10/05</text><text text-anchor="middle" transform="translate(338.6842105263158,18)" style="font-family: sans-serif; font-size: 14px; fill: #000; opacity: 1;">17/05</text><text text-anchor="middle" transform="translate(374.60526315789474,18)" style="font-family: sans-serif; font-size: 14px; fill: #000; opacity: 1;">24/05</text><text text-anchor="middle" transform="translate(410.52631578947364,18)" style="font-family: sans-serif; font-size: 14px; fill: #000; opacity: 1;">31/05</text><text text-anchor="middle" transform="translate(446.44736842105266,18)" style="font-family: sans-serif; font-size: 14px; fill: #000; opacity: 1;">07/06</text><text text-anchor="middle" transform="translate(482.36842105263156,18)" style="font-family: sans-serif; font-size: 14px; fill: #000; opacity: 1;">14/06</text><text text-anchor="middle" transform="translate(518.2894736842105,18)" style="font-family: sans-serif; font-size: 14px; fill: #000; opacity: 1;">21/06</text><text text-anchor="middle" transform="translate(554.2105263157895,18)" style="font-family: sans-serif; font-size: 14px; fill: #000; opacity: 1;">28/06</text></g><g class="mark-rule role-axis-domain" style="pointer-events: none;"><line transform="translate(0,0)" x2="585" y2="0" style="fill: none; stroke: #888; stroke-width: 1; opacity: 1;"></line></g><g class="mark-text role-axis-title" style="pointer-events: none;"><text text-anchor="middle" transform="translate(292.5,36)" style="font-family: sans-serif; font-size: 14px; font-weight: bold; fill: #000; opacity: 1;">Fecha de toma de muestra</text></g></g><path class="foreground" d="" style="pointer-events: none; display: none; fill: none;"></path></g></g><g class="mark-group role-axis"><g transform="translate(0.5,0.5)"><path class="background" d="M0,0h0v0h0Z" style="pointer-events: none; fill: none;"></path><g><g class="mark-rule role-axis-tick" style="pointer-events: none;"><line transform="translate(0,250)" x2="-5" y2="0" style="fill: none; stroke: #888; stroke-width: 1; opacity: 1;"></line><line transform="translate(0,212)" x2="-5" y2="0" style="fill: none; stroke: #888; stroke-width: 1; opacity: 1;"></line><line transform="translate(0,173)" x2="-5" y2="0" style="fill: none; stroke: #888; stroke-width: 1; opacity: 1;"></line><line transform="translate(0,135)" x2="-5" y2="0" style="fill: none; stroke: #888; stroke-width: 1; opacity: 1;"></line><line transform="translate(0,96)" x2="-5" y2="0" style="fill: none; stroke: #888; stroke-width: 1; opacity: 1;"></line><line transform="translate(0,58)" x2="-5" y2="0" style="fill: none; stroke: #888; stroke-width: 1; opacity: 1;"></line><line transform="translate(0,19)" x2="-5" y2="0" style="fill: none; stroke: #888; stroke-width: 1; opacity: 1;"></line></g><g class="mark-text role-axis-label" style="pointer-events: none;"><text text-anchor="end" transform="translate(-7,254)" style="font-family: sans-serif; font-size: 14px; fill: #000; opacity: 1;">0.0</text><text text-anchor="end" transform="translate(-7,215.53846153846155)" style="font-family: sans-serif; font-size: 14px; fill: #000; opacity: 1;">0.2</text><text text-anchor="end" transform="translate(-7,177.07692307692307)" style="font-family: sans-serif; font-size: 14px; fill: #000; opacity: 1;">0.4</text><text text-anchor="end" transform="translate(-7,138.61538461538464)" style="font-family: sans-serif; font-size: 14px; fill: #000; opacity: 1;">0.6</text><text text-anchor="end" transform="translate(-7,100.15384615384615)" style="font-family: sans-serif; font-size: 14px; fill: #000; opacity: 1;">0.8</text><text text-anchor="end" transform="translate(-7,61.69230769230771)" style="font-family: sans-serif; font-size: 14px; fill: #000; opacity: 1;">1.0</text><text text-anchor="end" transform="translate(-7,23.230769230769244)" style="font-family: sans-serif; font-size: 14px; fill: #000; opacity: 1;">1.2</text></g><g class="mark-rule role-axis-domain" style="pointer-events: none;"><line transform="translate(0,250)" x2="0" y2="-250" style="fill: none; stroke: #888; stroke-width: 1; opacity: 1;"></line></g><g class="mark-text role-axis-title" style="pointer-events: none;"><text text-anchor="middle" transform="translate(-30.4619140625,125) rotate(-90) translate(0,-3)" style="font-family: sans-serif; font-size: 14px; font-weight: bold; fill: #000; opacity: 1;">Pruebas (por 1K)</text></g></g><path class="foreground" d="" style="pointer-events: none; display: none; fill: none;"></path></g></g><g class="mark-group role-scope layer_0_pathgroup"><g transform="translate(0,0)"><path class="background" d="M0,0h585v250h-585Z" style="fill: none;"></path><g><g class="mark-line role-mark layer_0_marks"><path d="M0,249.9397851853347L5.13157894736842,249.90537671981167L10.26315789473684,249.86236613790788L15.394736842105262,249.82795767238485L20.52631578947368,249.5096793662968L25.657894736842103,248.96774603430907L30.789473684210524,248.51183386612894L35.921052631578945,247.82366455566833L41.05263157894736,246.9720550339733L46.18421052631579,246.36990688732027L51.315789473684205,246.11184339589752L56.44736842105263,245.41507196905616L61.57894736842105,244.107550279181L66.71052631578947,242.50755663236006L71.84210526315789,239.91831960175202L76.97368421052632,236.84736405382154L82.10526315789473,235.33339157080817L87.23684210526315,234.89468363538953L92.36842105263158,230.1635196259728L97.5,226.26676090548958L102.63157894736841,219.93560324925195L107.76315789473684,215.7635768045845L112.89473684210526,211.5141313124902L118.02631578947367,211.2560678210675L123.1578947368421,211.0496170279293L128.28947368421052,209.87972920014624L133.42105263157893,207.51414719543789L138.55263157894737,208.39156306627518L143.68421052631578,207.95285513085653L148.81578947368422,214.70551648975132L153.94736842105263,215.0926117268854L159.07894736842107,214.8517524682242L164.21052631578945,214.39584030004403L169.3421052631579,213.6732625240604L174.4736842105263,212.26251543761612L179.60526315789474,211.48832496334794L184.73684210526315,203.67760328961998L189.8684210526316,201.79373980223403L195,201.22600012110402L200.13157894736844,199.10987949143765L205.26315789473682,198.66256943963825L210.39473684210526,198.48192499564232L215.52631578947367,196.27118108578762L220.6578947368421,195.81526891760748L225.78947368421052,195.06688479248155L230.92105263157896,195.5227969606617L236.05263157894734,191.9099080807435L241.18421052631578,183.8583271483543L246.3157894736842,176.6239472721371L251.44736842105263,171.6863324695822L256.57894736842104,161.25196529972317L261.7105263157895,157.58746372152038L266.84210526315786,157.2691854154324L271.9736842105263,148.2369632156368L277.10526315789474,139.04990292098762L282.2368421052632,126.7230701473619L287.36842105263156,109.26077389442385L292.5,87.42860252006088L297.63157894736844,83.67807977805053L302.7631578947369,82.33614962265234L307.89473684210526,73.23511049181076L313.0263157894737,65.86309675350141L318.15789473684214,60.4351613172433L323.2894736842106,59.88462586887483L328.4210526315789,71.03296869833675L333.55263157894734,71.86737398727026L338.6842105263158,73.20930414266846L343.8157894736842,79.97916973432476L348.9473684210526,86.63720781303117L354.07894736842104,89.58773373163106L359.2105263157895,99.36834005655254L364.3421052631579,94.50814430142445L369.4736842105263,94.98986281874689L374.60526315789474,94.95545435322386L379.7368421052632,106.68874109657727L384.8684210526316,99.56618873330994L390,97.86296968991992L395.13157894736844,85.67377077838631L400.2631578947369,82.3447517390331L405.3947368421053,78.05229566503502L410.52631578947364,77.35552423819364L415.6578947368421,52.84809466941503L420.7894736842105,46.671775108031056L425.92105263157896,35.36859418371549L431.05263157894734,24.263261936157356L436.1842105263158,17.484794228120272L441.3157894736842,18.19016777134244L446.44736842105266,18.069738142011822L451.57894736842104,11.256861968451743L456.7105263157895,8.874075730981868L461.8421052631579,15.19663127083873L466.97368421052636,19.454678879313818L472.1052631578947,27.213787854757225L477.2368421052631,26.38798468220446L482.36842105263156,25.932072514024323L487.5,32.40946614873486L492.6315789473684,39.98793068018236L497.7631578947368,41.47609681405343L502.89473684210526,38.732021688591715L508.0263157894737,31.92774763141243L513.1578947368421,32.36645556683104L518.2894736842105,33.11483969195697L523.421052631579,37.28686613662443L528.5526315789474,46.49973278041594L533.6842105263157,55.540557096592224L538.8157894736842,73.91467768589061L543.9473684210526,100.95973158699267L549.078947368421,114.34462467545161" style="fill: none; stroke: #4c78a8; stroke-width: 2; stroke-dasharray: 4,2;"></path></g></g><path class="foreground" d="" style="display: none; fill: none;"></path></g><g transform="translate(0,0)"><path class="background" d="M0,0h585v250h-585Z" style="fill: none;"></path><g><g class="mark-line role-mark layer_0_marks"><path d="M0,249.9397851853347L5.13157894736842,249.90537671981167L10.26315789473684,249.86236613790788L15.394736842105262,249.82795767238485L20.52631578947368,249.5096793662968L25.657894736842103,248.96774603430907L30.789473684210524,248.51183386612894L35.921052631578945,247.82366455566833L41.05263157894736,246.9720550339733L46.18421052631579,246.36990688732027L51.315789473684205,246.11184339589752L56.44736842105263,245.41507196905616L61.57894736842105,244.107550279181L66.71052631578947,242.50755663236006L71.84210526315789,239.91831960175202L76.97368421052632,236.84736405382154L82.10526315789473,235.33339157080817L87.23684210526315,234.89468363538953L92.36842105263158,230.1635196259728L97.5,226.26676090548958L102.63157894736841,219.93560324925195L107.76315789473684,215.7635768045845L112.89473684210526,211.5141313124902L118.02631578947367,211.2560678210675L123.1578947368421,211.0496170279293L128.28947368421052,209.87972920014624L133.42105263157893,207.51414719543789L138.55263157894737,208.39156306627518L143.68421052631578,207.95285513085653L148.81578947368422,214.70551648975132L153.94736842105263,215.0926117268854L159.07894736842107,214.8517524682242L164.21052631578945,214.39584030004403L169.3421052631579,213.6732625240604L174.4736842105263,212.26251543761612L179.60526315789474,211.48832496334794L184.73684210526315,203.67760328961998L189.8684210526316,201.79373980223403L195,201.22600012110402L200.13157894736844,199.10987949143765L205.26315789473682,198.66256943963825L210.39473684210526,198.48192499564232L215.52631578947367,196.27118108578762L220.6578947368421,195.81526891760748L225.78947368421052,195.06688479248155L230.92105263157896,195.5227969606617L236.05263157894734,191.9099080807435L241.18421052631578,183.8583271483543L246.3157894736842,176.6239472721371L251.44736842105263,171.6863324695822L256.57894736842104,161.25196529972317L261.7105263157895,157.58746372152038L266.84210526315786,157.2691854154324L271.9736842105263,148.1767484009715L277.10526315789474,138.8176457787072L282.2368421052632,126.49081300508145L287.36842105263156,109.02851675214336L292.5,87.19634537778043L297.63157894736844,83.44582263577009L302.7631578947369,82.1038924803719L307.89473684210526,73.06306816419558L313.0263157894737,65.86309675350141L318.15789473684214,60.4351613172433L323.2894736842106,59.88462586887483L328.4210526315789,71.03296869833675L333.55263157894734,71.86737398727026L338.6842105263158,73.20930414266846L343.8157894736842,79.97916973432476L348.9473684210526,86.63720781303117L354.07894736842104,89.58773373163106L359.2105263157895,99.36834005655254L364.3421052631579,94.50814430142445L369.4736842105263,94.98986281874689L374.60526315789474,94.94685223684307L379.7368421052632,106.68013898019652L384.8684210526316,99.52317815140616L390,97.80275487525464L395.13157894736844,85.58774961457871L400.2631578947369,82.23292422608324L405.3947368421053,77.90605968656214L410.52631578947364,77.21789037610152L415.6578947368421,52.60723541075382L420.7894736842105,46.43091584936984L425.92105263157896,35.14493915781578L431.05263157894734,24.031004793876875L436.1842105263158,17.278343434982133L441.3157894736842,17.966512745442724L446.44736842105266,17.846083116112105L451.57894736842104,11.093421757217364L456.7105263157895,8.71063551974749L461.8421052631579,14.998782594081328L466.97368421052636,19.256830202556362L472.1052631578947,26.998734945238244L477.2368421052631,26.14712542354325L482.36842105263156,25.69121325536311L487.5,32.194413239215876L492.6315789473684,39.79868411980572L497.7631578947368,41.30405448643831L502.89473684210526,38.49976454631127L508.0263157894737,31.592265092562855L513.1578947368421,31.11914869162119L518.2894736842105,31.729898954654974L523.421052631579,31.454631230470735L528.5526315789474,32.95139948072259L533.6842105263157,34.99870317934292L538.8157894736842,46.86962378478846L543.9473684210526,58.82656555404167L549.078947368421,63.95342691697323L554.2105263157895,64.03084596440003L559.3421052631579,64.50396236534172L564.4736842105264,64.17708194287292L569.6052631578948,62.95558141680532L574.7368421052631,68.1426575944022L579.8684210526316,88.63289881336698L585,98.94683635389539" style="fill: none; stroke: #4c78a8; stroke-width: 2; stroke-dasharray: 1,0;"></path></g></g><path class="foreground" d="" style="display: none; fill: none;"></path></g></g><g class="mark-symbol role-mark layer_1_marks"><path transform="translate(0,249.9397851853347)" d="M2.7386127875258306,0A2.7386127875258306,2.7386127875258306,0,1,1,-2.7386127875258306,0A2.7386127875258306,2.7386127875258306,0,1,1,2.7386127875258306,0" style="fill: #4c78a8; stroke-width: 2; stroke-dasharray: 4,2; opacity: 0;"></path><path transform="translate(5.13157894736842,249.90537671981167)" d="M2.7386127875258306,0A2.7386127875258306,2.7386127875258306,0,1,1,-2.7386127875258306,0A2.7386127875258306,2.7386127875258306,0,1,1,2.7386127875258306,0" style="fill: #4c78a8; stroke-width: 2; stroke-dasharray: 4,2; opacity: 0;"></path><path transform="translate(10.26315789473684,249.86236613790788)" d="M2.7386127875258306,0A2.7386127875258306,2.7386127875258306,0,1,1,-2.7386127875258306,0A2.7386127875258306,2.7386127875258306,0,1,1,2.7386127875258306,0" style="fill: #4c78a8; stroke-width: 2; stroke-dasharray: 4,2; opacity: 0;"></path><path transform="translate(15.394736842105262,249.82795767238485)" d="M2.7386127875258306,0A2.7386127875258306,2.7386127875258306,0,1,1,-2.7386127875258306,0A2.7386127875258306,2.7386127875258306,0,1,1,2.7386127875258306,0" style="fill: #4c78a8; stroke-width: 2; stroke-dasharray: 4,2; opacity: 0;"></path><path transform="translate(20.52631578947368,249.5096793662968)" d="M2.7386127875258306,0A2.7386127875258306,2.7386127875258306,0,1,1,-2.7386127875258306,0A2.7386127875258306,2.7386127875258306,0,1,1,2.7386127875258306,0" style="fill: #4c78a8; stroke-width: 2; stroke-dasharray: 4,2; opacity: 0;"></path><path transform="translate(25.657894736842103,248.96774603430907)" d="M2.7386127875258306,0A2.7386127875258306,2.7386127875258306,0,1,1,-2.7386127875258306,0A2.7386127875258306,2.7386127875258306,0,1,1,2.7386127875258306,0" style="fill: #4c78a8; stroke-width: 2; stroke-dasharray: 4,2; opacity: 0;"></path><path transform="translate(30.789473684210524,248.51183386612894)" d="M2.7386127875258306,0A2.7386127875258306,2.7386127875258306,0,1,1,-2.7386127875258306,0A2.7386127875258306,2.7386127875258306,0,1,1,2.7386127875258306,0" style="fill: #4c78a8; stroke-width: 2; stroke-dasharray: 4,2; opacity: 0;"></path><path transform="translate(35.921052631578945,247.82366455566833)" d="M2.7386127875258306,0A2.7386127875258306,2.7386127875258306,0,1,1,-2.7386127875258306,0A2.7386127875258306,2.7386127875258306,0,1,1,2.7386127875258306,0" style="fill: #4c78a8; stroke-width: 2; stroke-dasharray: 4,2; opacity: 0;"></path><path transform="translate(41.05263157894736,246.9720550339733)" d="M2.7386127875258306,0A2.7386127875258306,2.7386127875258306,0,1,1,-2.7386127875258306,0A2.7386127875258306,2.7386127875258306,0,1,1,2.7386127875258306,0" style="fill: #4c78a8; stroke-width: 2; stroke-dasharray: 4,2; opacity: 0;"></path><path transform="translate(46.18421052631579,246.36990688732027)" d="M2.7386127875258306,0A2.7386127875258306,2.7386127875258306,0,1,1,-2.7386127875258306,0A2.7386127875258306,2.7386127875258306,0,1,1,2.7386127875258306,0" style="fill: #4c78a8; stroke-width: 2; stroke-dasharray: 4,2; opacity: 0;"></path><path transform="translate(51.315789473684205,246.11184339589752)" d="M2.7386127875258306,0A2.7386127875258306,2.7386127875258306,0,1,1,-2.7386127875258306,0A2.7386127875258306,2.7386127875258306,0,1,1,2.7386127875258306,0" style="fill: #4c78a8; stroke-width: 2; stroke-dasharray: 4,2; opacity: 0;"></path><path transform="translate(56.44736842105263,245.41507196905616)" d="M2.7386127875258306,0A2.7386127875258306,2.7386127875258306,0,1,1,-2.7386127875258306,0A2.7386127875258306,2.7386127875258306,0,1,1,2.7386127875258306,0" style="fill: #4c78a8; stroke-width: 2; stroke-dasharray: 4,2; opacity: 0;"></path><path transform="translate(61.57894736842105,244.107550279181)" d="M2.7386127875258306,0A2.7386127875258306,2.7386127875258306,0,1,1,-2.7386127875258306,0A2.7386127875258306,2.7386127875258306,0,1,1,2.7386127875258306,0" style="fill: #4c78a8; stroke-width: 2; stroke-dasharray: 4,2; opacity: 0;"></path><path transform="translate(66.71052631578947,242.50755663236006)" d="M2.7386127875258306,0A2.7386127875258306,2.7386127875258306,0,1,1,-2.7386127875258306,0A2.7386127875258306,2.7386127875258306,0,1,1,2.7386127875258306,0" style="fill: #4c78a8; stroke-width: 2; stroke-dasharray: 4,2; opacity: 0;"></path><path transform="translate(71.84210526315789,239.91831960175202)" d="M2.7386127875258306,0A2.7386127875258306,2.7386127875258306,0,1,1,-2.7386127875258306,0A2.7386127875258306,2.7386127875258306,0,1,1,2.7386127875258306,0" style="fill: #4c78a8; stroke-width: 2; stroke-dasharray: 4,2; opacity: 0;"></path><path transform="translate(76.97368421052632,236.84736405382154)" d="M2.7386127875258306,0A2.7386127875258306,2.7386127875258306,0,1,1,-2.7386127875258306,0A2.7386127875258306,2.7386127875258306,0,1,1,2.7386127875258306,0" style="fill: #4c78a8; stroke-width: 2; stroke-dasharray: 4,2; opacity: 0;"></path><path transform="translate(82.10526315789473,235.33339157080817)" d="M2.7386127875258306,0A2.7386127875258306,2.7386127875258306,0,1,1,-2.7386127875258306,0A2.7386127875258306,2.7386127875258306,0,1,1,2.7386127875258306,0" style="fill: #4c78a8; stroke-width: 2; stroke-dasharray: 4,2; opacity: 0;"></path><path transform="translate(87.23684210526315,234.89468363538953)" d="M2.7386127875258306,0A2.7386127875258306,2.7386127875258306,0,1,1,-2.7386127875258306,0A2.7386127875258306,2.7386127875258306,0,1,1,2.7386127875258306,0" style="fill: #4c78a8; stroke-width: 2; stroke-dasharray: 4,2; opacity: 0;"></path><path transform="translate(92.36842105263158,230.1635196259728)" d="M2.7386127875258306,0A2.7386127875258306,2.7386127875258306,0,1,1,-2.7386127875258306,0A2.7386127875258306,2.7386127875258306,0,1,1,2.7386127875258306,0" style="fill: #4c78a8; stroke-width: 2; stroke-dasharray: 4,2; opacity: 0;"></path><path transform="translate(97.5,226.26676090548958)" d="M2.7386127875258306,0A2.7386127875258306,2.7386127875258306,0,1,1,-2.7386127875258306,0A2.7386127875258306,2.7386127875258306,0,1,1,2.7386127875258306,0" style="fill: #4c78a8; stroke-width: 2; stroke-dasharray: 4,2; opacity: 0;"></path><path transform="translate(102.63157894736841,219.93560324925195)" d="M2.7386127875258306,0A2.7386127875258306,2.7386127875258306,0,1,1,-2.7386127875258306,0A2.7386127875258306,2.7386127875258306,0,1,1,2.7386127875258306,0" style="fill: #4c78a8; stroke-width: 2; stroke-dasharray: 4,2; opacity: 0;"></path><path transform="translate(107.76315789473684,215.7635768045845)" d="M2.7386127875258306,0A2.7386127875258306,2.7386127875258306,0,1,1,-2.7386127875258306,0A2.7386127875258306,2.7386127875258306,0,1,1,2.7386127875258306,0" style="fill: #4c78a8; stroke-width: 2; stroke-dasharray: 4,2; opacity: 0;"></path><path transform="translate(112.89473684210526,211.5141313124902)" d="M2.7386127875258306,0A2.7386127875258306,2.7386127875258306,0,1,1,-2.7386127875258306,0A2.7386127875258306,2.7386127875258306,0,1,1,2.7386127875258306,0" style="fill: #4c78a8; stroke-width: 2; stroke-dasharray: 4,2; opacity: 0;"></path><path transform="translate(118.02631578947367,211.2560678210675)" d="M2.7386127875258306,0A2.7386127875258306,2.7386127875258306,0,1,1,-2.7386127875258306,0A2.7386127875258306,2.7386127875258306,0,1,1,2.7386127875258306,0" style="fill: #4c78a8; stroke-width: 2; stroke-dasharray: 4,2; opacity: 0;"></path><path transform="translate(123.1578947368421,211.0496170279293)" d="M2.7386127875258306,0A2.7386127875258306,2.7386127875258306,0,1,1,-2.7386127875258306,0A2.7386127875258306,2.7386127875258306,0,1,1,2.7386127875258306,0" style="fill: #4c78a8; stroke-width: 2; stroke-dasharray: 4,2; opacity: 0;"></path><path transform="translate(128.28947368421052,209.87972920014624)" d="M2.7386127875258306,0A2.7386127875258306,2.7386127875258306,0,1,1,-2.7386127875258306,0A2.7386127875258306,2.7386127875258306,0,1,1,2.7386127875258306,0" style="fill: #4c78a8; stroke-width: 2; stroke-dasharray: 4,2; opacity: 0;"></path><path transform="translate(133.42105263157893,207.51414719543789)" d="M2.7386127875258306,0A2.7386127875258306,2.7386127875258306,0,1,1,-2.7386127875258306,0A2.7386127875258306,2.7386127875258306,0,1,1,2.7386127875258306,0" style="fill: #4c78a8; stroke-width: 2; stroke-dasharray: 4,2; opacity: 0;"></path><path transform="translate(138.55263157894737,208.39156306627518)" d="M2.7386127875258306,0A2.7386127875258306,2.7386127875258306,0,1,1,-2.7386127875258306,0A2.7386127875258306,2.7386127875258306,0,1,1,2.7386127875258306,0" style="fill: #4c78a8; stroke-width: 2; stroke-dasharray: 4,2; opacity: 0;"></path><path transform="translate(143.68421052631578,207.95285513085653)" d="M2.7386127875258306,0A2.7386127875258306,2.7386127875258306,0,1,1,-2.7386127875258306,0A2.7386127875258306,2.7386127875258306,0,1,1,2.7386127875258306,0" style="fill: #4c78a8; stroke-width: 2; stroke-dasharray: 4,2; opacity: 0;"></path><path transform="translate(148.81578947368422,214.70551648975132)" d="M2.7386127875258306,0A2.7386127875258306,2.7386127875258306,0,1,1,-2.7386127875258306,0A2.7386127875258306,2.7386127875258306,0,1,1,2.7386127875258306,0" style="fill: #4c78a8; stroke-width: 2; stroke-dasharray: 4,2; opacity: 0;"></path><path transform="translate(153.94736842105263,215.0926117268854)" d="M2.7386127875258306,0A2.7386127875258306,2.7386127875258306,0,1,1,-2.7386127875258306,0A2.7386127875258306,2.7386127875258306,0,1,1,2.7386127875258306,0" style="fill: #4c78a8; stroke-width: 2; stroke-dasharray: 4,2; opacity: 0;"></path><path transform="translate(159.07894736842107,214.8517524682242)" d="M2.7386127875258306,0A2.7386127875258306,2.7386127875258306,0,1,1,-2.7386127875258306,0A2.7386127875258306,2.7386127875258306,0,1,1,2.7386127875258306,0" style="fill: #4c78a8; stroke-width: 2; stroke-dasharray: 4,2; opacity: 0;"></path><path transform="translate(164.21052631578945,214.39584030004403)" d="M2.7386127875258306,0A2.7386127875258306,2.7386127875258306,0,1,1,-2.7386127875258306,0A2.7386127875258306,2.7386127875258306,0,1,1,2.7386127875258306,0" style="fill: #4c78a8; stroke-width: 2; stroke-dasharray: 4,2; opacity: 0;"></path><path transform="translate(169.3421052631579,213.6732625240604)" d="M2.7386127875258306,0A2.7386127875258306,2.7386127875258306,0,1,1,-2.7386127875258306,0A2.7386127875258306,2.7386127875258306,0,1,1,2.7386127875258306,0" style="fill: #4c78a8; stroke-width: 2; stroke-dasharray: 4,2; opacity: 0;"></path><path transform="translate(174.4736842105263,212.26251543761612)" d="M2.7386127875258306,0A2.7386127875258306,2.7386127875258306,0,1,1,-2.7386127875258306,0A2.7386127875258306,2.7386127875258306,0,1,1,2.7386127875258306,0" style="fill: #4c78a8; stroke-width: 2; stroke-dasharray: 4,2; opacity: 0;"></path><path transform="translate(179.60526315789474,211.48832496334794)" d="M2.7386127875258306,0A2.7386127875258306,2.7386127875258306,0,1,1,-2.7386127875258306,0A2.7386127875258306,2.7386127875258306,0,1,1,2.7386127875258306,0" style="fill: #4c78a8; stroke-width: 2; stroke-dasharray: 4,2; opacity: 0;"></path><path transform="translate(184.73684210526315,203.67760328961998)" d="M2.7386127875258306,0A2.7386127875258306,2.7386127875258306,0,1,1,-2.7386127875258306,0A2.7386127875258306,2.7386127875258306,0,1,1,2.7386127875258306,0" style="fill: #4c78a8; stroke-width: 2; stroke-dasharray: 4,2; opacity: 0;"></path><path transform="translate(189.8684210526316,201.79373980223403)" d="M2.7386127875258306,0A2.7386127875258306,2.7386127875258306,0,1,1,-2.7386127875258306,0A2.7386127875258306,2.7386127875258306,0,1,1,2.7386127875258306,0" style="fill: #4c78a8; stroke-width: 2; stroke-dasharray: 4,2; opacity: 0;"></path><path transform="translate(195,201.22600012110402)" d="M2.7386127875258306,0A2.7386127875258306,2.7386127875258306,0,1,1,-2.7386127875258306,0A2.7386127875258306,2.7386127875258306,0,1,1,2.7386127875258306,0" style="fill: #4c78a8; stroke-width: 2; stroke-dasharray: 4,2; opacity: 0;"></path><path transform="translate(200.13157894736844,199.10987949143765)" d="M2.7386127875258306,0A2.7386127875258306,2.7386127875258306,0,1,1,-2.7386127875258306,0A2.7386127875258306,2.7386127875258306,0,1,1,2.7386127875258306,0" style="fill: #4c78a8; stroke-width: 2; stroke-dasharray: 4,2; opacity: 0;"></path><path transform="translate(205.26315789473682,198.66256943963825)" d="M2.7386127875258306,0A2.7386127875258306,2.7386127875258306,0,1,1,-2.7386127875258306,0A2.7386127875258306,2.7386127875258306,0,1,1,2.7386127875258306,0" style="fill: #4c78a8; stroke-width: 2; stroke-dasharray: 4,2; opacity: 0;"></path><path transform="translate(210.39473684210526,198.48192499564232)" d="M2.7386127875258306,0A2.7386127875258306,2.7386127875258306,0,1,1,-2.7386127875258306,0A2.7386127875258306,2.7386127875258306,0,1,1,2.7386127875258306,0" style="fill: #4c78a8; stroke-width: 2; stroke-dasharray: 4,2; opacity: 0;"></path><path transform="translate(215.52631578947367,196.27118108578762)" d="M2.7386127875258306,0A2.7386127875258306,2.7386127875258306,0,1,1,-2.7386127875258306,0A2.7386127875258306,2.7386127875258306,0,1,1,2.7386127875258306,0" style="fill: #4c78a8; stroke-width: 2; stroke-dasharray: 4,2; opacity: 0;"></path><path transform="translate(220.6578947368421,195.81526891760748)" d="M2.7386127875258306,0A2.7386127875258306,2.7386127875258306,0,1,1,-2.7386127875258306,0A2.7386127875258306,2.7386127875258306,0,1,1,2.7386127875258306,0" style="fill: #4c78a8; stroke-width: 2; stroke-dasharray: 4,2; opacity: 0;"></path><path transform="translate(225.78947368421052,195.06688479248155)" d="M2.7386127875258306,0A2.7386127875258306,2.7386127875258306,0,1,1,-2.7386127875258306,0A2.7386127875258306,2.7386127875258306,0,1,1,2.7386127875258306,0" style="fill: #4c78a8; stroke-width: 2; stroke-dasharray: 4,2; opacity: 0;"></path><path transform="translate(230.92105263157896,195.5227969606617)" d="M2.7386127875258306,0A2.7386127875258306,2.7386127875258306,0,1,1,-2.7386127875258306,0A2.7386127875258306,2.7386127875258306,0,1,1,2.7386127875258306,0" style="fill: #4c78a8; stroke-width: 2; stroke-dasharray: 4,2; opacity: 0;"></path><path transform="translate(236.05263157894734,191.9099080807435)" d="M2.7386127875258306,0A2.7386127875258306,2.7386127875258306,0,1,1,-2.7386127875258306,0A2.7386127875258306,2.7386127875258306,0,1,1,2.7386127875258306,0" style="fill: #4c78a8; stroke-width: 2; stroke-dasharray: 4,2; opacity: 0;"></path><path transform="translate(241.18421052631578,183.8583271483543)" d="M2.7386127875258306,0A2.7386127875258306,2.7386127875258306,0,1,1,-2.7386127875258306,0A2.7386127875258306,2.7386127875258306,0,1,1,2.7386127875258306,0" style="fill: #4c78a8; stroke-width: 2; stroke-dasharray: 4,2; opacity: 0;"></path><path transform="translate(246.3157894736842,176.6239472721371)" d="M2.7386127875258306,0A2.7386127875258306,2.7386127875258306,0,1,1,-2.7386127875258306,0A2.7386127875258306,2.7386127875258306,0,1,1,2.7386127875258306,0" style="fill: #4c78a8; stroke-width: 2; stroke-dasharray: 4,2; opacity: 0;"></path><path transform="translate(251.44736842105263,171.6863324695822)" d="M2.7386127875258306,0A2.7386127875258306,2.7386127875258306,0,1,1,-2.7386127875258306,0A2.7386127875258306,2.7386127875258306,0,1,1,2.7386127875258306,0" style="fill: #4c78a8; stroke-width: 2; stroke-dasharray: 4,2; opacity: 0;"></path><path transform="translate(256.57894736842104,161.25196529972317)" d="M2.7386127875258306,0A2.7386127875258306,2.7386127875258306,0,1,1,-2.7386127875258306,0A2.7386127875258306,2.7386127875258306,0,1,1,2.7386127875258306,0" style="fill: #4c78a8; stroke-width: 2; stroke-dasharray: 4,2; opacity: 0;"></path><path transform="translate(261.7105263157895,157.58746372152038)" d="M2.7386127875258306,0A2.7386127875258306,2.7386127875258306,0,1,1,-2.7386127875258306,0A2.7386127875258306,2.7386127875258306,0,1,1,2.7386127875258306,0" style="fill: #4c78a8; stroke-width: 2; stroke-dasharray: 4,2; opacity: 0;"></path><path transform="translate(266.84210526315786,157.2691854154324)" d="M2.7386127875258306,0A2.7386127875258306,2.7386127875258306,0,1,1,-2.7386127875258306,0A2.7386127875258306,2.7386127875258306,0,1,1,2.7386127875258306,0" style="fill: #4c78a8; stroke-width: 2; stroke-dasharray: 4,2; opacity: 0;"></path><path transform="translate(271.9736842105263,148.2369632156368)" d="M2.7386127875258306,0A2.7386127875258306,2.7386127875258306,0,1,1,-2.7386127875258306,0A2.7386127875258306,2.7386127875258306,0,1,1,2.7386127875258306,0" style="fill: #4c78a8; stroke-width: 2; stroke-dasharray: 4,2; opacity: 0;"></path><path transform="translate(277.10526315789474,139.04990292098762)" d="M2.7386127875258306,0A2.7386127875258306,2.7386127875258306,0,1,1,-2.7386127875258306,0A2.7386127875258306,2.7386127875258306,0,1,1,2.7386127875258306,0" style="fill: #4c78a8; stroke-width: 2; stroke-dasharray: 4,2; opacity: 0;"></path><path transform="translate(282.2368421052632,126.7230701473619)" d="M2.7386127875258306,0A2.7386127875258306,2.7386127875258306,0,1,1,-2.7386127875258306,0A2.7386127875258306,2.7386127875258306,0,1,1,2.7386127875258306,0" style="fill: #4c78a8; stroke-width: 2; stroke-dasharray: 4,2; opacity: 0;"></path><path transform="translate(287.36842105263156,109.26077389442385)" d="M2.7386127875258306,0A2.7386127875258306,2.7386127875258306,0,1,1,-2.7386127875258306,0A2.7386127875258306,2.7386127875258306,0,1,1,2.7386127875258306,0" style="fill: #4c78a8; stroke-width: 2; stroke-dasharray: 4,2; opacity: 0;"></path><path transform="translate(292.5,87.42860252006088)" d="M2.7386127875258306,0A2.7386127875258306,2.7386127875258306,0,1,1,-2.7386127875258306,0A2.7386127875258306,2.7386127875258306,0,1,1,2.7386127875258306,0" style="fill: #4c78a8; stroke-width: 2; stroke-dasharray: 4,2; opacity: 0;"></path><path transform="translate(297.63157894736844,83.67807977805053)" d="M2.7386127875258306,0A2.7386127875258306,2.7386127875258306,0,1,1,-2.7386127875258306,0A2.7386127875258306,2.7386127875258306,0,1,1,2.7386127875258306,0" style="fill: #4c78a8; stroke-width: 2; stroke-dasharray: 4,2; opacity: 0;"></path><path transform="translate(302.7631578947369,82.33614962265234)" d="M2.7386127875258306,0A2.7386127875258306,2.7386127875258306,0,1,1,-2.7386127875258306,0A2.7386127875258306,2.7386127875258306,0,1,1,2.7386127875258306,0" style="fill: #4c78a8; stroke-width: 2; stroke-dasharray: 4,2; opacity: 0;"></path><path transform="translate(307.89473684210526,73.23511049181076)" d="M2.7386127875258306,0A2.7386127875258306,2.7386127875258306,0,1,1,-2.7386127875258306,0A2.7386127875258306,2.7386127875258306,0,1,1,2.7386127875258306,0" style="fill: #4c78a8; stroke-width: 2; stroke-dasharray: 4,2; opacity: 0;"></path><path transform="translate(313.0263157894737,65.86309675350141)" d="M2.7386127875258306,0A2.7386127875258306,2.7386127875258306,0,1,1,-2.7386127875258306,0A2.7386127875258306,2.7386127875258306,0,1,1,2.7386127875258306,0" style="fill: #4c78a8; stroke-width: 2; stroke-dasharray: 4,2; opacity: 0;"></path><path transform="translate(318.15789473684214,60.4351613172433)" d="M2.7386127875258306,0A2.7386127875258306,2.7386127875258306,0,1,1,-2.7386127875258306,0A2.7386127875258306,2.7386127875258306,0,1,1,2.7386127875258306,0" style="fill: #4c78a8; stroke-width: 2; stroke-dasharray: 4,2; opacity: 0;"></path><path transform="translate(323.2894736842106,59.88462586887483)" d="M2.7386127875258306,0A2.7386127875258306,2.7386127875258306,0,1,1,-2.7386127875258306,0A2.7386127875258306,2.7386127875258306,0,1,1,2.7386127875258306,0" style="fill: #4c78a8; stroke-width: 2; stroke-dasharray: 4,2; opacity: 0;"></path><path transform="translate(328.4210526315789,71.03296869833675)" d="M2.7386127875258306,0A2.7386127875258306,2.7386127875258306,0,1,1,-2.7386127875258306,0A2.7386127875258306,2.7386127875258306,0,1,1,2.7386127875258306,0" style="fill: #4c78a8; stroke-width: 2; stroke-dasharray: 4,2; opacity: 0;"></path><path transform="translate(333.55263157894734,71.86737398727026)" d="M2.7386127875258306,0A2.7386127875258306,2.7386127875258306,0,1,1,-2.7386127875258306,0A2.7386127875258306,2.7386127875258306,0,1,1,2.7386127875258306,0" style="fill: #4c78a8; stroke-width: 2; stroke-dasharray: 4,2; opacity: 0;"></path><path transform="translate(338.6842105263158,73.20930414266846)" d="M2.7386127875258306,0A2.7386127875258306,2.7386127875258306,0,1,1,-2.7386127875258306,0A2.7386127875258306,2.7386127875258306,0,1,1,2.7386127875258306,0" style="fill: #4c78a8; stroke-width: 2; stroke-dasharray: 4,2; opacity: 0;"></path><path transform="translate(343.8157894736842,79.97916973432476)" d="M2.7386127875258306,0A2.7386127875258306,2.7386127875258306,0,1,1,-2.7386127875258306,0A2.7386127875258306,2.7386127875258306,0,1,1,2.7386127875258306,0" style="fill: #4c78a8; stroke-width: 2; stroke-dasharray: 4,2; opacity: 0;"></path><path transform="translate(348.9473684210526,86.63720781303117)" d="M2.7386127875258306,0A2.7386127875258306,2.7386127875258306,0,1,1,-2.7386127875258306,0A2.7386127875258306,2.7386127875258306,0,1,1,2.7386127875258306,0" style="fill: #4c78a8; stroke-width: 2; stroke-dasharray: 4,2; opacity: 0;"></path><path transform="translate(354.07894736842104,89.58773373163106)" d="M2.7386127875258306,0A2.7386127875258306,2.7386127875258306,0,1,1,-2.7386127875258306,0A2.7386127875258306,2.7386127875258306,0,1,1,2.7386127875258306,0" style="fill: #4c78a8; stroke-width: 2; stroke-dasharray: 4,2; opacity: 0;"></path><path transform="translate(359.2105263157895,99.36834005655254)" d="M2.7386127875258306,0A2.7386127875258306,2.7386127875258306,0,1,1,-2.7386127875258306,0A2.7386127875258306,2.7386127875258306,0,1,1,2.7386127875258306,0" style="fill: #4c78a8; stroke-width: 2; stroke-dasharray: 4,2; opacity: 0;"></path><path transform="translate(364.3421052631579,94.50814430142445)" d="M2.7386127875258306,0A2.7386127875258306,2.7386127875258306,0,1,1,-2.7386127875258306,0A2.7386127875258306,2.7386127875258306,0,1,1,2.7386127875258306,0" style="fill: #4c78a8; stroke-width: 2; stroke-dasharray: 4,2; opacity: 0;"></path><path transform="translate(369.4736842105263,94.98986281874689)" d="M2.7386127875258306,0A2.7386127875258306,2.7386127875258306,0,1,1,-2.7386127875258306,0A2.7386127875258306,2.7386127875258306,0,1,1,2.7386127875258306,0" style="fill: #4c78a8; stroke-width: 2; stroke-dasharray: 4,2; opacity: 0;"></path><path transform="translate(374.60526315789474,94.95545435322386)" d="M2.7386127875258306,0A2.7386127875258306,2.7386127875258306,0,1,1,-2.7386127875258306,0A2.7386127875258306,2.7386127875258306,0,1,1,2.7386127875258306,0" style="fill: #4c78a8; stroke-width: 2; stroke-dasharray: 4,2; opacity: 0;"></path><path transform="translate(379.7368421052632,106.68874109657727)" d="M2.7386127875258306,0A2.7386127875258306,2.7386127875258306,0,1,1,-2.7386127875258306,0A2.7386127875258306,2.7386127875258306,0,1,1,2.7386127875258306,0" style="fill: #4c78a8; stroke-width: 2; stroke-dasharray: 4,2; opacity: 0;"></path><path transform="translate(384.8684210526316,99.56618873330994)" d="M2.7386127875258306,0A2.7386127875258306,2.7386127875258306,0,1,1,-2.7386127875258306,0A2.7386127875258306,2.7386127875258306,0,1,1,2.7386127875258306,0" style="fill: #4c78a8; stroke-width: 2; stroke-dasharray: 4,2; opacity: 0;"></path><path transform="translate(390,97.86296968991992)" d="M2.7386127875258306,0A2.7386127875258306,2.7386127875258306,0,1,1,-2.7386127875258306,0A2.7386127875258306,2.7386127875258306,0,1,1,2.7386127875258306,0" style="fill: #4c78a8; stroke-width: 2; stroke-dasharray: 4,2; opacity: 0;"></path><path transform="translate(395.13157894736844,85.67377077838631)" d="M2.7386127875258306,0A2.7386127875258306,2.7386127875258306,0,1,1,-2.7386127875258306,0A2.7386127875258306,2.7386127875258306,0,1,1,2.7386127875258306,0" style="fill: #4c78a8; stroke-width: 2; stroke-dasharray: 4,2; opacity: 0;"></path><path transform="translate(400.2631578947369,82.3447517390331)" d="M2.7386127875258306,0A2.7386127875258306,2.7386127875258306,0,1,1,-2.7386127875258306,0A2.7386127875258306,2.7386127875258306,0,1,1,2.7386127875258306,0" style="fill: #4c78a8; stroke-width: 2; stroke-dasharray: 4,2; opacity: 0;"></path><path transform="translate(405.3947368421053,78.05229566503502)" d="M2.7386127875258306,0A2.7386127875258306,2.7386127875258306,0,1,1,-2.7386127875258306,0A2.7386127875258306,2.7386127875258306,0,1,1,2.7386127875258306,0" style="fill: #4c78a8; stroke-width: 2; stroke-dasharray: 4,2; opacity: 0;"></path><path transform="translate(410.52631578947364,77.35552423819364)" d="M2.7386127875258306,0A2.7386127875258306,2.7386127875258306,0,1,1,-2.7386127875258306,0A2.7386127875258306,2.7386127875258306,0,1,1,2.7386127875258306,0" style="fill: #4c78a8; stroke-width: 2; stroke-dasharray: 4,2; opacity: 0;"></path><path transform="translate(415.6578947368421,52.84809466941503)" d="M2.7386127875258306,0A2.7386127875258306,2.7386127875258306,0,1,1,-2.7386127875258306,0A2.7386127875258306,2.7386127875258306,0,1,1,2.7386127875258306,0" style="fill: #4c78a8; stroke-width: 2; stroke-dasharray: 4,2; opacity: 0;"></path><path transform="translate(420.7894736842105,46.671775108031056)" d="M2.7386127875258306,0A2.7386127875258306,2.7386127875258306,0,1,1,-2.7386127875258306,0A2.7386127875258306,2.7386127875258306,0,1,1,2.7386127875258306,0" style="fill: #4c78a8; stroke-width: 2; stroke-dasharray: 4,2; opacity: 0;"></path><path transform="translate(425.92105263157896,35.36859418371549)" d="M2.7386127875258306,0A2.7386127875258306,2.7386127875258306,0,1,1,-2.7386127875258306,0A2.7386127875258306,2.7386127875258306,0,1,1,2.7386127875258306,0" style="fill: #4c78a8; stroke-width: 2; stroke-dasharray: 4,2; opacity: 0;"></path><path transform="translate(431.05263157894734,24.263261936157356)" d="M2.7386127875258306,0A2.7386127875258306,2.7386127875258306,0,1,1,-2.7386127875258306,0A2.7386127875258306,2.7386127875258306,0,1,1,2.7386127875258306,0" style="fill: #4c78a8; stroke-width: 2; stroke-dasharray: 4,2; opacity: 0;"></path><path transform="translate(436.1842105263158,17.484794228120272)" d="M2.7386127875258306,0A2.7386127875258306,2.7386127875258306,0,1,1,-2.7386127875258306,0A2.7386127875258306,2.7386127875258306,0,1,1,2.7386127875258306,0" style="fill: #4c78a8; stroke-width: 2; stroke-dasharray: 4,2; opacity: 0;"></path><path transform="translate(441.3157894736842,18.19016777134244)" d="M2.7386127875258306,0A2.7386127875258306,2.7386127875258306,0,1,1,-2.7386127875258306,0A2.7386127875258306,2.7386127875258306,0,1,1,2.7386127875258306,0" style="fill: #4c78a8; stroke-width: 2; stroke-dasharray: 4,2; opacity: 0;"></path><path transform="translate(446.44736842105266,18.069738142011822)" d="M2.7386127875258306,0A2.7386127875258306,2.7386127875258306,0,1,1,-2.7386127875258306,0A2.7386127875258306,2.7386127875258306,0,1,1,2.7386127875258306,0" style="fill: #4c78a8; stroke-width: 2; stroke-dasharray: 4,2; opacity: 0;"></path><path transform="translate(451.57894736842104,11.256861968451743)" d="M2.7386127875258306,0A2.7386127875258306,2.7386127875258306,0,1,1,-2.7386127875258306,0A2.7386127875258306,2.7386127875258306,0,1,1,2.7386127875258306,0" style="fill: #4c78a8; stroke-width: 2; stroke-dasharray: 4,2; opacity: 0;"></path><path transform="translate(456.7105263157895,8.874075730981868)" d="M2.7386127875258306,0A2.7386127875258306,2.7386127875258306,0,1,1,-2.7386127875258306,0A2.7386127875258306,2.7386127875258306,0,1,1,2.7386127875258306,0" style="fill: #4c78a8; stroke-width: 2; stroke-dasharray: 4,2; opacity: 0;"></path><path transform="translate(461.8421052631579,15.19663127083873)" d="M2.7386127875258306,0A2.7386127875258306,2.7386127875258306,0,1,1,-2.7386127875258306,0A2.7386127875258306,2.7386127875258306,0,1,1,2.7386127875258306,0" style="fill: #4c78a8; stroke-width: 2; stroke-dasharray: 4,2; opacity: 0;"></path><path transform="translate(466.97368421052636,19.454678879313818)" d="M2.7386127875258306,0A2.7386127875258306,2.7386127875258306,0,1,1,-2.7386127875258306,0A2.7386127875258306,2.7386127875258306,0,1,1,2.7386127875258306,0" style="fill: #4c78a8; stroke-width: 2; stroke-dasharray: 4,2; opacity: 0;"></path><path transform="translate(472.1052631578947,27.213787854757225)" d="M2.7386127875258306,0A2.7386127875258306,2.7386127875258306,0,1,1,-2.7386127875258306,0A2.7386127875258306,2.7386127875258306,0,1,1,2.7386127875258306,0" style="fill: #4c78a8; stroke-width: 2; stroke-dasharray: 4,2; opacity: 0;"></path><path transform="translate(477.2368421052631,26.38798468220446)" d="M2.7386127875258306,0A2.7386127875258306,2.7386127875258306,0,1,1,-2.7386127875258306,0A2.7386127875258306,2.7386127875258306,0,1,1,2.7386127875258306,0" style="fill: #4c78a8; stroke-width: 2; stroke-dasharray: 4,2; opacity: 0;"></path><path transform="translate(482.36842105263156,25.932072514024323)" d="M2.7386127875258306,0A2.7386127875258306,2.7386127875258306,0,1,1,-2.7386127875258306,0A2.7386127875258306,2.7386127875258306,0,1,1,2.7386127875258306,0" style="fill: #4c78a8; stroke-width: 2; stroke-dasharray: 4,2; opacity: 0;"></path><path transform="translate(487.5,32.40946614873486)" d="M2.7386127875258306,0A2.7386127875258306,2.7386127875258306,0,1,1,-2.7386127875258306,0A2.7386127875258306,2.7386127875258306,0,1,1,2.7386127875258306,0" style="fill: #4c78a8; stroke-width: 2; stroke-dasharray: 4,2; opacity: 0;"></path><path transform="translate(492.6315789473684,39.98793068018236)" d="M2.7386127875258306,0A2.7386127875258306,2.7386127875258306,0,1,1,-2.7386127875258306,0A2.7386127875258306,2.7386127875258306,0,1,1,2.7386127875258306,0" style="fill: #4c78a8; stroke-width: 2; stroke-dasharray: 4,2; opacity: 0;"></path><path transform="translate(497.7631578947368,41.47609681405343)" d="M2.7386127875258306,0A2.7386127875258306,2.7386127875258306,0,1,1,-2.7386127875258306,0A2.7386127875258306,2.7386127875258306,0,1,1,2.7386127875258306,0" style="fill: #4c78a8; stroke-width: 2; stroke-dasharray: 4,2; opacity: 0;"></path><path transform="translate(502.89473684210526,38.732021688591715)" d="M2.7386127875258306,0A2.7386127875258306,2.7386127875258306,0,1,1,-2.7386127875258306,0A2.7386127875258306,2.7386127875258306,0,1,1,2.7386127875258306,0" style="fill: #4c78a8; stroke-width: 2; stroke-dasharray: 4,2; opacity: 0;"></path><path transform="translate(508.0263157894737,31.92774763141243)" d="M2.7386127875258306,0A2.7386127875258306,2.7386127875258306,0,1,1,-2.7386127875258306,0A2.7386127875258306,2.7386127875258306,0,1,1,2.7386127875258306,0" style="fill: #4c78a8; stroke-width: 2; stroke-dasharray: 4,2; opacity: 0;"></path><path transform="translate(513.1578947368421,32.36645556683104)" d="M2.7386127875258306,0A2.7386127875258306,2.7386127875258306,0,1,1,-2.7386127875258306,0A2.7386127875258306,2.7386127875258306,0,1,1,2.7386127875258306,0" style="fill: #4c78a8; stroke-width: 2; stroke-dasharray: 4,2; opacity: 0;"></path><path transform="translate(518.2894736842105,33.11483969195697)" d="M2.7386127875258306,0A2.7386127875258306,2.7386127875258306,0,1,1,-2.7386127875258306,0A2.7386127875258306,2.7386127875258306,0,1,1,2.7386127875258306,0" style="fill: #4c78a8; stroke-width: 2; stroke-dasharray: 4,2; opacity: 0;"></path><path transform="translate(523.421052631579,37.28686613662443)" d="M2.7386127875258306,0A2.7386127875258306,2.7386127875258306,0,1,1,-2.7386127875258306,0A2.7386127875258306,2.7386127875258306,0,1,1,2.7386127875258306,0" style="fill: #4c78a8; stroke-width: 2; stroke-dasharray: 4,2; opacity: 0;"></path><path transform="translate(528.5526315789474,46.49973278041594)" d="M2.7386127875258306,0A2.7386127875258306,2.7386127875258306,0,1,1,-2.7386127875258306,0A2.7386127875258306,2.7386127875258306,0,1,1,2.7386127875258306,0" style="fill: #4c78a8; stroke-width: 2; stroke-dasharray: 4,2; opacity: 0;"></path><path transform="translate(533.6842105263157,55.540557096592224)" d="M2.7386127875258306,0A2.7386127875258306,2.7386127875258306,0,1,1,-2.7386127875258306,0A2.7386127875258306,2.7386127875258306,0,1,1,2.7386127875258306,0" style="fill: #4c78a8; stroke-width: 2; stroke-dasharray: 4,2; opacity: 0;"></path><path transform="translate(538.8157894736842,73.91467768589061)" d="M2.7386127875258306,0A2.7386127875258306,2.7386127875258306,0,1,1,-2.7386127875258306,0A2.7386127875258306,2.7386127875258306,0,1,1,2.7386127875258306,0" style="fill: #4c78a8; stroke-width: 2; stroke-dasharray: 4,2; opacity: 0;"></path><path transform="translate(543.9473684210526,100.95973158699267)" d="M2.7386127875258306,0A2.7386127875258306,2.7386127875258306,0,1,1,-2.7386127875258306,0A2.7386127875258306,2.7386127875258306,0,1,1,2.7386127875258306,0" style="fill: #4c78a8; stroke-width: 2; stroke-dasharray: 4,2; opacity: 0;"></path><path transform="translate(549.078947368421,114.34462467545161)" d="M2.7386127875258306,0A2.7386127875258306,2.7386127875258306,0,1,1,-2.7386127875258306,0A2.7386127875258306,2.7386127875258306,0,1,1,2.7386127875258306,0" style="fill: #4c78a8; stroke-width: 2; stroke-dasharray: 4,2; opacity: 0;"></path><path transform="translate(0,249.9397851853347)" d="M2.7386127875258306,0A2.7386127875258306,2.7386127875258306,0,1,1,-2.7386127875258306,0A2.7386127875258306,2.7386127875258306,0,1,1,2.7386127875258306,0" style="fill: #4c78a8; stroke-width: 2; stroke-dasharray: 1,0; opacity: 0;"></path><path transform="translate(5.13157894736842,249.90537671981167)" d="M2.7386127875258306,0A2.7386127875258306,2.7386127875258306,0,1,1,-2.7386127875258306,0A2.7386127875258306,2.7386127875258306,0,1,1,2.7386127875258306,0" style="fill: #4c78a8; stroke-width: 2; stroke-dasharray: 1,0; opacity: 0;"></path><path transform="translate(10.26315789473684,249.86236613790788)" d="M2.7386127875258306,0A2.7386127875258306,2.7386127875258306,0,1,1,-2.7386127875258306,0A2.7386127875258306,2.7386127875258306,0,1,1,2.7386127875258306,0" style="fill: #4c78a8; stroke-width: 2; stroke-dasharray: 1,0; opacity: 0;"></path><path transform="translate(15.394736842105262,249.82795767238485)" d="M2.7386127875258306,0A2.7386127875258306,2.7386127875258306,0,1,1,-2.7386127875258306,0A2.7386127875258306,2.7386127875258306,0,1,1,2.7386127875258306,0" style="fill: #4c78a8; stroke-width: 2; stroke-dasharray: 1,0; opacity: 0;"></path><path transform="translate(20.52631578947368,249.5096793662968)" d="M2.7386127875258306,0A2.7386127875258306,2.7386127875258306,0,1,1,-2.7386127875258306,0A2.7386127875258306,2.7386127875258306,0,1,1,2.7386127875258306,0" style="fill: #4c78a8; stroke-width: 2; stroke-dasharray: 1,0; opacity: 0;"></path><path transform="translate(25.657894736842103,248.96774603430907)" d="M2.7386127875258306,0A2.7386127875258306,2.7386127875258306,0,1,1,-2.7386127875258306,0A2.7386127875258306,2.7386127875258306,0,1,1,2.7386127875258306,0" style="fill: #4c78a8; stroke-width: 2; stroke-dasharray: 1,0; opacity: 0;"></path><path transform="translate(30.789473684210524,248.51183386612894)" d="M2.7386127875258306,0A2.7386127875258306,2.7386127875258306,0,1,1,-2.7386127875258306,0A2.7386127875258306,2.7386127875258306,0,1,1,2.7386127875258306,0" style="fill: #4c78a8; stroke-width: 2; stroke-dasharray: 1,0; opacity: 0;"></path><path transform="translate(35.921052631578945,247.82366455566833)" d="M2.7386127875258306,0A2.7386127875258306,2.7386127875258306,0,1,1,-2.7386127875258306,0A2.7386127875258306,2.7386127875258306,0,1,1,2.7386127875258306,0" style="fill: #4c78a8; stroke-width: 2; stroke-dasharray: 1,0; opacity: 0;"></path><path transform="translate(41.05263157894736,246.9720550339733)" d="M2.7386127875258306,0A2.7386127875258306,2.7386127875258306,0,1,1,-2.7386127875258306,0A2.7386127875258306,2.7386127875258306,0,1,1,2.7386127875258306,0" style="fill: #4c78a8; stroke-width: 2; stroke-dasharray: 1,0; opacity: 0;"></path><path transform="translate(46.18421052631579,246.36990688732027)" d="M2.7386127875258306,0A2.7386127875258306,2.7386127875258306,0,1,1,-2.7386127875258306,0A2.7386127875258306,2.7386127875258306,0,1,1,2.7386127875258306,0" style="fill: #4c78a8; stroke-width: 2; stroke-dasharray: 1,0; opacity: 0;"></path><path transform="translate(51.315789473684205,246.11184339589752)" d="M2.7386127875258306,0A2.7386127875258306,2.7386127875258306,0,1,1,-2.7386127875258306,0A2.7386127875258306,2.7386127875258306,0,1,1,2.7386127875258306,0" style="fill: #4c78a8; stroke-width: 2; stroke-dasharray: 1,0; opacity: 0;"></path><path transform="translate(56.44736842105263,245.41507196905616)" d="M2.7386127875258306,0A2.7386127875258306,2.7386127875258306,0,1,1,-2.7386127875258306,0A2.7386127875258306,2.7386127875258306,0,1,1,2.7386127875258306,0" style="fill: #4c78a8; stroke-width: 2; stroke-dasharray: 1,0; opacity: 0;"></path><path transform="translate(61.57894736842105,244.107550279181)" d="M2.7386127875258306,0A2.7386127875258306,2.7386127875258306,0,1,1,-2.7386127875258306,0A2.7386127875258306,2.7386127875258306,0,1,1,2.7386127875258306,0" style="fill: #4c78a8; stroke-width: 2; stroke-dasharray: 1,0; opacity: 0;"></path><path transform="translate(66.71052631578947,242.50755663236006)" d="M2.7386127875258306,0A2.7386127875258306,2.7386127875258306,0,1,1,-2.7386127875258306,0A2.7386127875258306,2.7386127875258306,0,1,1,2.7386127875258306,0" style="fill: #4c78a8; stroke-width: 2; stroke-dasharray: 1,0; opacity: 0;"></path><path transform="translate(71.84210526315789,239.91831960175202)" d="M2.7386127875258306,0A2.7386127875258306,2.7386127875258306,0,1,1,-2.7386127875258306,0A2.7386127875258306,2.7386127875258306,0,1,1,2.7386127875258306,0" style="fill: #4c78a8; stroke-width: 2; stroke-dasharray: 1,0; opacity: 0;"></path><path transform="translate(76.97368421052632,236.84736405382154)" d="M2.7386127875258306,0A2.7386127875258306,2.7386127875258306,0,1,1,-2.7386127875258306,0A2.7386127875258306,2.7386127875258306,0,1,1,2.7386127875258306,0" style="fill: #4c78a8; stroke-width: 2; stroke-dasharray: 1,0; opacity: 0;"></path><path transform="translate(82.10526315789473,235.33339157080817)" d="M2.7386127875258306,0A2.7386127875258306,2.7386127875258306,0,1,1,-2.7386127875258306,0A2.7386127875258306,2.7386127875258306,0,1,1,2.7386127875258306,0" style="fill: #4c78a8; stroke-width: 2; stroke-dasharray: 1,0; opacity: 0;"></path><path transform="translate(87.23684210526315,234.89468363538953)" d="M2.7386127875258306,0A2.7386127875258306,2.7386127875258306,0,1,1,-2.7386127875258306,0A2.7386127875258306,2.7386127875258306,0,1,1,2.7386127875258306,0" style="fill: #4c78a8; stroke-width: 2; stroke-dasharray: 1,0; opacity: 0;"></path><path transform="translate(92.36842105263158,230.1635196259728)" d="M2.7386127875258306,0A2.7386127875258306,2.7386127875258306,0,1,1,-2.7386127875258306,0A2.7386127875258306,2.7386127875258306,0,1,1,2.7386127875258306,0" style="fill: #4c78a8; stroke-width: 2; stroke-dasharray: 1,0; opacity: 0;"></path><path transform="translate(97.5,226.26676090548958)" d="M2.7386127875258306,0A2.7386127875258306,2.7386127875258306,0,1,1,-2.7386127875258306,0A2.7386127875258306,2.7386127875258306,0,1,1,2.7386127875258306,0" style="fill: #4c78a8; stroke-width: 2; stroke-dasharray: 1,0; opacity: 0;"></path><path transform="translate(102.63157894736841,219.93560324925195)" d="M2.7386127875258306,0A2.7386127875258306,2.7386127875258306,0,1,1,-2.7386127875258306,0A2.7386127875258306,2.7386127875258306,0,1,1,2.7386127875258306,0" style="fill: #4c78a8; stroke-width: 2; stroke-dasharray: 1,0; opacity: 0;"></path><path transform="translate(107.76315789473684,215.7635768045845)" d="M2.7386127875258306,0A2.7386127875258306,2.7386127875258306,0,1,1,-2.7386127875258306,0A2.7386127875258306,2.7386127875258306,0,1,1,2.7386127875258306,0" style="fill: #4c78a8; stroke-width: 2; stroke-dasharray: 1,0; opacity: 0;"></path><path transform="translate(112.89473684210526,211.5141313124902)" d="M2.7386127875258306,0A2.7386127875258306,2.7386127875258306,0,1,1,-2.7386127875258306,0A2.7386127875258306,2.7386127875258306,0,1,1,2.7386127875258306,0" style="fill: #4c78a8; stroke-width: 2; stroke-dasharray: 1,0; opacity: 0;"></path><path transform="translate(118.02631578947367,211.2560678210675)" d="M2.7386127875258306,0A2.7386127875258306,2.7386127875258306,0,1,1,-2.7386127875258306,0A2.7386127875258306,2.7386127875258306,0,1,1,2.7386127875258306,0" style="fill: #4c78a8; stroke-width: 2; stroke-dasharray: 1,0; opacity: 0;"></path><path transform="translate(123.1578947368421,211.0496170279293)" d="M2.7386127875258306,0A2.7386127875258306,2.7386127875258306,0,1,1,-2.7386127875258306,0A2.7386127875258306,2.7386127875258306,0,1,1,2.7386127875258306,0" style="fill: #4c78a8; stroke-width: 2; stroke-dasharray: 1,0; opacity: 0;"></path><path transform="translate(128.28947368421052,209.87972920014624)" d="M2.7386127875258306,0A2.7386127875258306,2.7386127875258306,0,1,1,-2.7386127875258306,0A2.7386127875258306,2.7386127875258306,0,1,1,2.7386127875258306,0" style="fill: #4c78a8; stroke-width: 2; stroke-dasharray: 1,0; opacity: 0;"></path><path transform="translate(133.42105263157893,207.51414719543789)" d="M2.7386127875258306,0A2.7386127875258306,2.7386127875258306,0,1,1,-2.7386127875258306,0A2.7386127875258306,2.7386127875258306,0,1,1,2.7386127875258306,0" style="fill: #4c78a8; stroke-width: 2; stroke-dasharray: 1,0; opacity: 0;"></path><path transform="translate(138.55263157894737,208.39156306627518)" d="M2.7386127875258306,0A2.7386127875258306,2.7386127875258306,0,1,1,-2.7386127875258306,0A2.7386127875258306,2.7386127875258306,0,1,1,2.7386127875258306,0" style="fill: #4c78a8; stroke-width: 2; stroke-dasharray: 1,0; opacity: 0;"></path><path transform="translate(143.68421052631578,207.95285513085653)" d="M2.7386127875258306,0A2.7386127875258306,2.7386127875258306,0,1,1,-2.7386127875258306,0A2.7386127875258306,2.7386127875258306,0,1,1,2.7386127875258306,0" style="fill: #4c78a8; stroke-width: 2; stroke-dasharray: 1,0; opacity: 0;"></path><path transform="translate(148.81578947368422,214.70551648975132)" d="M2.7386127875258306,0A2.7386127875258306,2.7386127875258306,0,1,1,-2.7386127875258306,0A2.7386127875258306,2.7386127875258306,0,1,1,2.7386127875258306,0" style="fill: #4c78a8; stroke-width: 2; stroke-dasharray: 1,0; opacity: 0;"></path><path transform="translate(153.94736842105263,215.0926117268854)" d="M2.7386127875258306,0A2.7386127875258306,2.7386127875258306,0,1,1,-2.7386127875258306,0A2.7386127875258306,2.7386127875258306,0,1,1,2.7386127875258306,0" style="fill: #4c78a8; stroke-width: 2; stroke-dasharray: 1,0; opacity: 0;"></path><path transform="translate(159.07894736842107,214.8517524682242)" d="M2.7386127875258306,0A2.7386127875258306,2.7386127875258306,0,1,1,-2.7386127875258306,0A2.7386127875258306,2.7386127875258306,0,1,1,2.7386127875258306,0" style="fill: #4c78a8; stroke-width: 2; stroke-dasharray: 1,0; opacity: 0;"></path><path transform="translate(164.21052631578945,214.39584030004403)" d="M2.7386127875258306,0A2.7386127875258306,2.7386127875258306,0,1,1,-2.7386127875258306,0A2.7386127875258306,2.7386127875258306,0,1,1,2.7386127875258306,0" style="fill: #4c78a8; stroke-width: 2; stroke-dasharray: 1,0; opacity: 0;"></path><path transform="translate(169.3421052631579,213.6732625240604)" d="M2.7386127875258306,0A2.7386127875258306,2.7386127875258306,0,1,1,-2.7386127875258306,0A2.7386127875258306,2.7386127875258306,0,1,1,2.7386127875258306,0" style="fill: #4c78a8; stroke-width: 2; stroke-dasharray: 1,0; opacity: 0;"></path><path transform="translate(174.4736842105263,212.26251543761612)" d="M2.7386127875258306,0A2.7386127875258306,2.7386127875258306,0,1,1,-2.7386127875258306,0A2.7386127875258306,2.7386127875258306,0,1,1,2.7386127875258306,0" style="fill: #4c78a8; stroke-width: 2; stroke-dasharray: 1,0; opacity: 0;"></path><path transform="translate(179.60526315789474,211.48832496334794)" d="M2.7386127875258306,0A2.7386127875258306,2.7386127875258306,0,1,1,-2.7386127875258306,0A2.7386127875258306,2.7386127875258306,0,1,1,2.7386127875258306,0" style="fill: #4c78a8; stroke-width: 2; stroke-dasharray: 1,0; opacity: 0;"></path><path transform="translate(184.73684210526315,203.67760328961998)" d="M2.7386127875258306,0A2.7386127875258306,2.7386127875258306,0,1,1,-2.7386127875258306,0A2.7386127875258306,2.7386127875258306,0,1,1,2.7386127875258306,0" style="fill: #4c78a8; stroke-width: 2; stroke-dasharray: 1,0; opacity: 0;"></path><path transform="translate(189.8684210526316,201.79373980223403)" d="M2.7386127875258306,0A2.7386127875258306,2.7386127875258306,0,1,1,-2.7386127875258306,0A2.7386127875258306,2.7386127875258306,0,1,1,2.7386127875258306,0" style="fill: #4c78a8; stroke-width: 2; stroke-dasharray: 1,0; opacity: 0;"></path><path transform="translate(195,201.22600012110402)" d="M2.7386127875258306,0A2.7386127875258306,2.7386127875258306,0,1,1,-2.7386127875258306,0A2.7386127875258306,2.7386127875258306,0,1,1,2.7386127875258306,0" style="fill: #4c78a8; stroke-width: 2; stroke-dasharray: 1,0; opacity: 0;"></path><path transform="translate(200.13157894736844,199.10987949143765)" d="M2.7386127875258306,0A2.7386127875258306,2.7386127875258306,0,1,1,-2.7386127875258306,0A2.7386127875258306,2.7386127875258306,0,1,1,2.7386127875258306,0" style="fill: #4c78a8; stroke-width: 2; stroke-dasharray: 1,0; opacity: 0;"></path><path transform="translate(205.26315789473682,198.66256943963825)" d="M2.7386127875258306,0A2.7386127875258306,2.7386127875258306,0,1,1,-2.7386127875258306,0A2.7386127875258306,2.7386127875258306,0,1,1,2.7386127875258306,0" style="fill: #4c78a8; stroke-width: 2; stroke-dasharray: 1,0; opacity: 0;"></path><path transform="translate(210.39473684210526,198.48192499564232)" d="M2.7386127875258306,0A2.7386127875258306,2.7386127875258306,0,1,1,-2.7386127875258306,0A2.7386127875258306,2.7386127875258306,0,1,1,2.7386127875258306,0" style="fill: #4c78a8; stroke-width: 2; stroke-dasharray: 1,0; opacity: 0;"></path><path transform="translate(215.52631578947367,196.27118108578762)" d="M2.7386127875258306,0A2.7386127875258306,2.7386127875258306,0,1,1,-2.7386127875258306,0A2.7386127875258306,2.7386127875258306,0,1,1,2.7386127875258306,0" style="fill: #4c78a8; stroke-width: 2; stroke-dasharray: 1,0; opacity: 0;"></path><path transform="translate(220.6578947368421,195.81526891760748)" d="M2.7386127875258306,0A2.7386127875258306,2.7386127875258306,0,1,1,-2.7386127875258306,0A2.7386127875258306,2.7386127875258306,0,1,1,2.7386127875258306,0" style="fill: #4c78a8; stroke-width: 2; stroke-dasharray: 1,0; opacity: 0;"></path><path transform="translate(225.78947368421052,195.06688479248155)" d="M2.7386127875258306,0A2.7386127875258306,2.7386127875258306,0,1,1,-2.7386127875258306,0A2.7386127875258306,2.7386127875258306,0,1,1,2.7386127875258306,0" style="fill: #4c78a8; stroke-width: 2; stroke-dasharray: 1,0; opacity: 0;"></path><path transform="translate(230.92105263157896,195.5227969606617)" d="M2.7386127875258306,0A2.7386127875258306,2.7386127875258306,0,1,1,-2.7386127875258306,0A2.7386127875258306,2.7386127875258306,0,1,1,2.7386127875258306,0" style="fill: #4c78a8; stroke-width: 2; stroke-dasharray: 1,0; opacity: 0;"></path><path transform="translate(236.05263157894734,191.9099080807435)" d="M2.7386127875258306,0A2.7386127875258306,2.7386127875258306,0,1,1,-2.7386127875258306,0A2.7386127875258306,2.7386127875258306,0,1,1,2.7386127875258306,0" style="fill: #4c78a8; stroke-width: 2; stroke-dasharray: 1,0; opacity: 0;"></path><path transform="translate(241.18421052631578,183.8583271483543)" d="M2.7386127875258306,0A2.7386127875258306,2.7386127875258306,0,1,1,-2.7386127875258306,0A2.7386127875258306,2.7386127875258306,0,1,1,2.7386127875258306,0" style="fill: #4c78a8; stroke-width: 2; stroke-dasharray: 1,0; opacity: 0;"></path><path transform="translate(246.3157894736842,176.6239472721371)" d="M2.7386127875258306,0A2.7386127875258306,2.7386127875258306,0,1,1,-2.7386127875258306,0A2.7386127875258306,2.7386127875258306,0,1,1,2.7386127875258306,0" style="fill: #4c78a8; stroke-width: 2; stroke-dasharray: 1,0; opacity: 0;"></path><path transform="translate(251.44736842105263,171.6863324695822)" d="M2.7386127875258306,0A2.7386127875258306,2.7386127875258306,0,1,1,-2.7386127875258306,0A2.7386127875258306,2.7386127875258306,0,1,1,2.7386127875258306,0" style="fill: #4c78a8; stroke-width: 2; stroke-dasharray: 1,0; opacity: 0;"></path><path transform="translate(256.57894736842104,161.25196529972317)" d="M2.7386127875258306,0A2.7386127875258306,2.7386127875258306,0,1,1,-2.7386127875258306,0A2.7386127875258306,2.7386127875258306,0,1,1,2.7386127875258306,0" style="fill: #4c78a8; stroke-width: 2; stroke-dasharray: 1,0; opacity: 0;"></path><path transform="translate(261.7105263157895,157.58746372152038)" d="M2.7386127875258306,0A2.7386127875258306,2.7386127875258306,0,1,1,-2.7386127875258306,0A2.7386127875258306,2.7386127875258306,0,1,1,2.7386127875258306,0" style="fill: #4c78a8; stroke-width: 2; stroke-dasharray: 1,0; opacity: 0;"></path><path transform="translate(266.84210526315786,157.2691854154324)" d="M2.7386127875258306,0A2.7386127875258306,2.7386127875258306,0,1,1,-2.7386127875258306,0A2.7386127875258306,2.7386127875258306,0,1,1,2.7386127875258306,0" style="fill: #4c78a8; stroke-width: 2; stroke-dasharray: 1,0; opacity: 0;"></path><path transform="translate(271.9736842105263,148.1767484009715)" d="M2.7386127875258306,0A2.7386127875258306,2.7386127875258306,0,1,1,-2.7386127875258306,0A2.7386127875258306,2.7386127875258306,0,1,1,2.7386127875258306,0" style="fill: #4c78a8; stroke-width: 2; stroke-dasharray: 1,0; opacity: 0;"></path><path transform="translate(277.10526315789474,138.8176457787072)" d="M2.7386127875258306,0A2.7386127875258306,2.7386127875258306,0,1,1,-2.7386127875258306,0A2.7386127875258306,2.7386127875258306,0,1,1,2.7386127875258306,0" style="fill: #4c78a8; stroke-width: 2; stroke-dasharray: 1,0; opacity: 0;"></path><path transform="translate(282.2368421052632,126.49081300508145)" d="M2.7386127875258306,0A2.7386127875258306,2.7386127875258306,0,1,1,-2.7386127875258306,0A2.7386127875258306,2.7386127875258306,0,1,1,2.7386127875258306,0" style="fill: #4c78a8; stroke-width: 2; stroke-dasharray: 1,0; opacity: 0;"></path><path transform="translate(287.36842105263156,109.02851675214336)" d="M2.7386127875258306,0A2.7386127875258306,2.7386127875258306,0,1,1,-2.7386127875258306,0A2.7386127875258306,2.7386127875258306,0,1,1,2.7386127875258306,0" style="fill: #4c78a8; stroke-width: 2; stroke-dasharray: 1,0; opacity: 0;"></path><path transform="translate(292.5,87.19634537778043)" d="M2.7386127875258306,0A2.7386127875258306,2.7386127875258306,0,1,1,-2.7386127875258306,0A2.7386127875258306,2.7386127875258306,0,1,1,2.7386127875258306,0" style="fill: #4c78a8; stroke-width: 2; stroke-dasharray: 1,0; opacity: 0;"></path><path transform="translate(297.63157894736844,83.44582263577009)" d="M2.7386127875258306,0A2.7386127875258306,2.7386127875258306,0,1,1,-2.7386127875258306,0A2.7386127875258306,2.7386127875258306,0,1,1,2.7386127875258306,0" style="fill: #4c78a8; stroke-width: 2; stroke-dasharray: 1,0; opacity: 0;"></path><path transform="translate(302.7631578947369,82.1038924803719)" d="M2.7386127875258306,0A2.7386127875258306,2.7386127875258306,0,1,1,-2.7386127875258306,0A2.7386127875258306,2.7386127875258306,0,1,1,2.7386127875258306,0" style="fill: #4c78a8; stroke-width: 2; stroke-dasharray: 1,0; opacity: 0;"></path><path transform="translate(307.89473684210526,73.06306816419558)" d="M2.7386127875258306,0A2.7386127875258306,2.7386127875258306,0,1,1,-2.7386127875258306,0A2.7386127875258306,2.7386127875258306,0,1,1,2.7386127875258306,0" style="fill: #4c78a8; stroke-width: 2; stroke-dasharray: 1,0; opacity: 0;"></path><path transform="translate(313.0263157894737,65.86309675350141)" d="M2.7386127875258306,0A2.7386127875258306,2.7386127875258306,0,1,1,-2.7386127875258306,0A2.7386127875258306,2.7386127875258306,0,1,1,2.7386127875258306,0" style="fill: #4c78a8; stroke-width: 2; stroke-dasharray: 1,0; opacity: 0;"></path><path transform="translate(318.15789473684214,60.4351613172433)" d="M2.7386127875258306,0A2.7386127875258306,2.7386127875258306,0,1,1,-2.7386127875258306,0A2.7386127875258306,2.7386127875258306,0,1,1,2.7386127875258306,0" style="fill: #4c78a8; stroke-width: 2; stroke-dasharray: 1,0; opacity: 0;"></path><path transform="translate(323.2894736842106,59.88462586887483)" d="M2.7386127875258306,0A2.7386127875258306,2.7386127875258306,0,1,1,-2.7386127875258306,0A2.7386127875258306,2.7386127875258306,0,1,1,2.7386127875258306,0" style="fill: #4c78a8; stroke-width: 2; stroke-dasharray: 1,0; opacity: 0;"></path><path transform="translate(328.4210526315789,71.03296869833675)" d="M2.7386127875258306,0A2.7386127875258306,2.7386127875258306,0,1,1,-2.7386127875258306,0A2.7386127875258306,2.7386127875258306,0,1,1,2.7386127875258306,0" style="fill: #4c78a8; stroke-width: 2; stroke-dasharray: 1,0; opacity: 0;"></path><path transform="translate(333.55263157894734,71.86737398727026)" d="M2.7386127875258306,0A2.7386127875258306,2.7386127875258306,0,1,1,-2.7386127875258306,0A2.7386127875258306,2.7386127875258306,0,1,1,2.7386127875258306,0" style="fill: #4c78a8; stroke-width: 2; stroke-dasharray: 1,0; opacity: 0;"></path><path transform="translate(338.6842105263158,73.20930414266846)" d="M2.7386127875258306,0A2.7386127875258306,2.7386127875258306,0,1,1,-2.7386127875258306,0A2.7386127875258306,2.7386127875258306,0,1,1,2.7386127875258306,0" style="fill: #4c78a8; stroke-width: 2; stroke-dasharray: 1,0; opacity: 0;"></path><path transform="translate(343.8157894736842,79.97916973432476)" d="M2.7386127875258306,0A2.7386127875258306,2.7386127875258306,0,1,1,-2.7386127875258306,0A2.7386127875258306,2.7386127875258306,0,1,1,2.7386127875258306,0" style="fill: #4c78a8; stroke-width: 2; stroke-dasharray: 1,0; opacity: 0;"></path><path transform="translate(348.9473684210526,86.63720781303117)" d="M2.7386127875258306,0A2.7386127875258306,2.7386127875258306,0,1,1,-2.7386127875258306,0A2.7386127875258306,2.7386127875258306,0,1,1,2.7386127875258306,0" style="fill: #4c78a8; stroke-width: 2; stroke-dasharray: 1,0; opacity: 0;"></path><path transform="translate(354.07894736842104,89.58773373163106)" d="M2.7386127875258306,0A2.7386127875258306,2.7386127875258306,0,1,1,-2.7386127875258306,0A2.7386127875258306,2.7386127875258306,0,1,1,2.7386127875258306,0" style="fill: #4c78a8; stroke-width: 2; stroke-dasharray: 1,0; opacity: 0;"></path><path transform="translate(359.2105263157895,99.36834005655254)" d="M2.7386127875258306,0A2.7386127875258306,2.7386127875258306,0,1,1,-2.7386127875258306,0A2.7386127875258306,2.7386127875258306,0,1,1,2.7386127875258306,0" style="fill: #4c78a8; stroke-width: 2; stroke-dasharray: 1,0; opacity: 0;"></path><path transform="translate(364.3421052631579,94.50814430142445)" d="M2.7386127875258306,0A2.7386127875258306,2.7386127875258306,0,1,1,-2.7386127875258306,0A2.7386127875258306,2.7386127875258306,0,1,1,2.7386127875258306,0" style="fill: #4c78a8; stroke-width: 2; stroke-dasharray: 1,0; opacity: 0;"></path><path transform="translate(369.4736842105263,94.98986281874689)" d="M2.7386127875258306,0A2.7386127875258306,2.7386127875258306,0,1,1,-2.7386127875258306,0A2.7386127875258306,2.7386127875258306,0,1,1,2.7386127875258306,0" style="fill: #4c78a8; stroke-width: 2; stroke-dasharray: 1,0; opacity: 0;"></path><path transform="translate(374.60526315789474,94.94685223684307)" d="M2.7386127875258306,0A2.7386127875258306,2.7386127875258306,0,1,1,-2.7386127875258306,0A2.7386127875258306,2.7386127875258306,0,1,1,2.7386127875258306,0" style="fill: #4c78a8; stroke-width: 2; stroke-dasharray: 1,0; opacity: 0;"></path><path transform="translate(379.7368421052632,106.68013898019652)" d="M2.7386127875258306,0A2.7386127875258306,2.7386127875258306,0,1,1,-2.7386127875258306,0A2.7386127875258306,2.7386127875258306,0,1,1,2.7386127875258306,0" style="fill: #4c78a8; stroke-width: 2; stroke-dasharray: 1,0; opacity: 0;"></path><path transform="translate(384.8684210526316,99.52317815140616)" d="M2.7386127875258306,0A2.7386127875258306,2.7386127875258306,0,1,1,-2.7386127875258306,0A2.7386127875258306,2.7386127875258306,0,1,1,2.7386127875258306,0" style="fill: #4c78a8; stroke-width: 2; stroke-dasharray: 1,0; opacity: 0;"></path><path transform="translate(390,97.80275487525464)" d="M2.7386127875258306,0A2.7386127875258306,2.7386127875258306,0,1,1,-2.7386127875258306,0A2.7386127875258306,2.7386127875258306,0,1,1,2.7386127875258306,0" style="fill: #4c78a8; stroke-width: 2; stroke-dasharray: 1,0; opacity: 0;"></path><path transform="translate(395.13157894736844,85.58774961457871)" d="M2.7386127875258306,0A2.7386127875258306,2.7386127875258306,0,1,1,-2.7386127875258306,0A2.7386127875258306,2.7386127875258306,0,1,1,2.7386127875258306,0" style="fill: #4c78a8; stroke-width: 2; stroke-dasharray: 1,0; opacity: 0;"></path><path transform="translate(400.2631578947369,82.23292422608324)" d="M2.7386127875258306,0A2.7386127875258306,2.7386127875258306,0,1,1,-2.7386127875258306,0A2.7386127875258306,2.7386127875258306,0,1,1,2.7386127875258306,0" style="fill: #4c78a8; stroke-width: 2; stroke-dasharray: 1,0; opacity: 0;"></path><path transform="translate(405.3947368421053,77.90605968656214)" d="M2.7386127875258306,0A2.7386127875258306,2.7386127875258306,0,1,1,-2.7386127875258306,0A2.7386127875258306,2.7386127875258306,0,1,1,2.7386127875258306,0" style="fill: #4c78a8; stroke-width: 2; stroke-dasharray: 1,0; opacity: 0;"></path><path transform="translate(410.52631578947364,77.21789037610152)" d="M2.7386127875258306,0A2.7386127875258306,2.7386127875258306,0,1,1,-2.7386127875258306,0A2.7386127875258306,2.7386127875258306,0,1,1,2.7386127875258306,0" style="fill: #4c78a8; stroke-width: 2; stroke-dasharray: 1,0; opacity: 0;"></path><path transform="translate(415.6578947368421,52.60723541075382)" d="M2.7386127875258306,0A2.7386127875258306,2.7386127875258306,0,1,1,-2.7386127875258306,0A2.7386127875258306,2.7386127875258306,0,1,1,2.7386127875258306,0" style="fill: #4c78a8; stroke-width: 2; stroke-dasharray: 1,0; opacity: 0;"></path><path transform="translate(420.7894736842105,46.43091584936984)" d="M2.7386127875258306,0A2.7386127875258306,2.7386127875258306,0,1,1,-2.7386127875258306,0A2.7386127875258306,2.7386127875258306,0,1,1,2.7386127875258306,0" style="fill: #4c78a8; stroke-width: 2; stroke-dasharray: 1,0; opacity: 0;"></path><path transform="translate(425.92105263157896,35.14493915781578)" d="M2.7386127875258306,0A2.7386127875258306,2.7386127875258306,0,1,1,-2.7386127875258306,0A2.7386127875258306,2.7386127875258306,0,1,1,2.7386127875258306,0" style="fill: #4c78a8; stroke-width: 2; stroke-dasharray: 1,0; opacity: 0;"></path><path transform="translate(431.05263157894734,24.031004793876875)" d="M2.7386127875258306,0A2.7386127875258306,2.7386127875258306,0,1,1,-2.7386127875258306,0A2.7386127875258306,2.7386127875258306,0,1,1,2.7386127875258306,0" style="fill: #4c78a8; stroke-width: 2; stroke-dasharray: 1,0; opacity: 0;"></path><path transform="translate(436.1842105263158,17.278343434982133)" d="M2.7386127875258306,0A2.7386127875258306,2.7386127875258306,0,1,1,-2.7386127875258306,0A2.7386127875258306,2.7386127875258306,0,1,1,2.7386127875258306,0" style="fill: #4c78a8; stroke-width: 2; stroke-dasharray: 1,0; opacity: 0;"></path><path transform="translate(441.3157894736842,17.966512745442724)" d="M2.7386127875258306,0A2.7386127875258306,2.7386127875258306,0,1,1,-2.7386127875258306,0A2.7386127875258306,2.7386127875258306,0,1,1,2.7386127875258306,0" style="fill: #4c78a8; stroke-width: 2; stroke-dasharray: 1,0; opacity: 0;"></path><path transform="translate(446.44736842105266,17.846083116112105)" d="M2.7386127875258306,0A2.7386127875258306,2.7386127875258306,0,1,1,-2.7386127875258306,0A2.7386127875258306,2.7386127875258306,0,1,1,2.7386127875258306,0" style="fill: #4c78a8; stroke-width: 2; stroke-dasharray: 1,0; opacity: 0;"></path><path transform="translate(451.57894736842104,11.093421757217364)" d="M2.7386127875258306,0A2.7386127875258306,2.7386127875258306,0,1,1,-2.7386127875258306,0A2.7386127875258306,2.7386127875258306,0,1,1,2.7386127875258306,0" style="fill: #4c78a8; stroke-width: 2; stroke-dasharray: 1,0; opacity: 0;"></path><path transform="translate(456.7105263157895,8.71063551974749)" d="M2.7386127875258306,0A2.7386127875258306,2.7386127875258306,0,1,1,-2.7386127875258306,0A2.7386127875258306,2.7386127875258306,0,1,1,2.7386127875258306,0" style="fill: #4c78a8; stroke-width: 2; stroke-dasharray: 1,0; opacity: 0;"></path><path transform="translate(461.8421052631579,14.998782594081328)" d="M2.7386127875258306,0A2.7386127875258306,2.7386127875258306,0,1,1,-2.7386127875258306,0A2.7386127875258306,2.7386127875258306,0,1,1,2.7386127875258306,0" style="fill: #4c78a8; stroke-width: 2; stroke-dasharray: 1,0; opacity: 0;"></path><path transform="translate(466.97368421052636,19.256830202556362)" d="M2.7386127875258306,0A2.7386127875258306,2.7386127875258306,0,1,1,-2.7386127875258306,0A2.7386127875258306,2.7386127875258306,0,1,1,2.7386127875258306,0" style="fill: #4c78a8; stroke-width: 2; stroke-dasharray: 1,0; opacity: 0;"></path><path transform="translate(472.1052631578947,26.998734945238244)" d="M2.7386127875258306,0A2.7386127875258306,2.7386127875258306,0,1,1,-2.7386127875258306,0A2.7386127875258306,2.7386127875258306,0,1,1,2.7386127875258306,0" style="fill: #4c78a8; stroke-width: 2; stroke-dasharray: 1,0; opacity: 0;"></path><path transform="translate(477.2368421052631,26.14712542354325)" d="M2.7386127875258306,0A2.7386127875258306,2.7386127875258306,0,1,1,-2.7386127875258306,0A2.7386127875258306,2.7386127875258306,0,1,1,2.7386127875258306,0" style="fill: #4c78a8; stroke-width: 2; stroke-dasharray: 1,0; opacity: 0;"></path><path transform="translate(482.36842105263156,25.69121325536311)" d="M2.7386127875258306,0A2.7386127875258306,2.7386127875258306,0,1,1,-2.7386127875258306,0A2.7386127875258306,2.7386127875258306,0,1,1,2.7386127875258306,0" style="fill: #4c78a8; stroke-width: 2; stroke-dasharray: 1,0; opacity: 0;"></path><path transform="translate(487.5,32.194413239215876)" d="M2.7386127875258306,0A2.7386127875258306,2.7386127875258306,0,1,1,-2.7386127875258306,0A2.7386127875258306,2.7386127875258306,0,1,1,2.7386127875258306,0" style="fill: #4c78a8; stroke-width: 2; stroke-dasharray: 1,0; opacity: 0;"></path><path transform="translate(492.6315789473684,39.79868411980572)" d="M2.7386127875258306,0A2.7386127875258306,2.7386127875258306,0,1,1,-2.7386127875258306,0A2.7386127875258306,2.7386127875258306,0,1,1,2.7386127875258306,0" style="fill: #4c78a8; stroke-width: 2; stroke-dasharray: 1,0; opacity: 0;"></path><path transform="translate(497.7631578947368,41.30405448643831)" d="M2.7386127875258306,0A2.7386127875258306,2.7386127875258306,0,1,1,-2.7386127875258306,0A2.7386127875258306,2.7386127875258306,0,1,1,2.7386127875258306,0" style="fill: #4c78a8; stroke-width: 2; stroke-dasharray: 1,0; opacity: 0;"></path><path transform="translate(502.89473684210526,38.49976454631127)" d="M2.7386127875258306,0A2.7386127875258306,2.7386127875258306,0,1,1,-2.7386127875258306,0A2.7386127875258306,2.7386127875258306,0,1,1,2.7386127875258306,0" style="fill: #4c78a8; stroke-width: 2; stroke-dasharray: 1,0; opacity: 0;"></path><path transform="translate(508.0263157894737,31.592265092562855)" d="M2.7386127875258306,0A2.7386127875258306,2.7386127875258306,0,1,1,-2.7386127875258306,0A2.7386127875258306,2.7386127875258306,0,1,1,2.7386127875258306,0" style="fill: #4c78a8; stroke-width: 2; stroke-dasharray: 1,0; opacity: 0;"></path><path transform="translate(513.1578947368421,31.11914869162119)" d="M2.7386127875258306,0A2.7386127875258306,2.7386127875258306,0,1,1,-2.7386127875258306,0A2.7386127875258306,2.7386127875258306,0,1,1,2.7386127875258306,0" style="fill: #4c78a8; stroke-width: 2; stroke-dasharray: 1,0; opacity: 0;"></path><path transform="translate(518.2894736842105,31.729898954654974)" d="M2.7386127875258306,0A2.7386127875258306,2.7386127875258306,0,1,1,-2.7386127875258306,0A2.7386127875258306,2.7386127875258306,0,1,1,2.7386127875258306,0" style="fill: #4c78a8; stroke-width: 2; stroke-dasharray: 1,0; opacity: 0;"></path><path transform="translate(523.421052631579,31.454631230470735)" d="M2.7386127875258306,0A2.7386127875258306,2.7386127875258306,0,1,1,-2.7386127875258306,0A2.7386127875258306,2.7386127875258306,0,1,1,2.7386127875258306,0" style="fill: #4c78a8; stroke-width: 2; stroke-dasharray: 1,0; opacity: 0;"></path><path transform="translate(528.5526315789474,32.95139948072259)" d="M2.7386127875258306,0A2.7386127875258306,2.7386127875258306,0,1,1,-2.7386127875258306,0A2.7386127875258306,2.7386127875258306,0,1,1,2.7386127875258306,0" style="fill: #4c78a8; stroke-width: 2; stroke-dasharray: 1,0; opacity: 0;"></path><path transform="translate(533.6842105263157,34.99870317934292)" d="M2.7386127875258306,0A2.7386127875258306,2.7386127875258306,0,1,1,-2.7386127875258306,0A2.7386127875258306,2.7386127875258306,0,1,1,2.7386127875258306,0" style="fill: #4c78a8; stroke-width: 2; stroke-dasharray: 1,0; opacity: 0;"></path><path transform="translate(538.8157894736842,46.86962378478846)" d="M2.7386127875258306,0A2.7386127875258306,2.7386127875258306,0,1,1,-2.7386127875258306,0A2.7386127875258306,2.7386127875258306,0,1,1,2.7386127875258306,0" style="fill: #4c78a8; stroke-width: 2; stroke-dasharray: 1,0; opacity: 0;"></path><path transform="translate(543.9473684210526,58.82656555404167)" d="M2.7386127875258306,0A2.7386127875258306,2.7386127875258306,0,1,1,-2.7386127875258306,0A2.7386127875258306,2.7386127875258306,0,1,1,2.7386127875258306,0" style="fill: #4c78a8; stroke-width: 2; stroke-dasharray: 1,0; opacity: 0;"></path><path transform="translate(549.078947368421,63.95342691697323)" d="M2.7386127875258306,0A2.7386127875258306,2.7386127875258306,0,1,1,-2.7386127875258306,0A2.7386127875258306,2.7386127875258306,0,1,1,2.7386127875258306,0" style="fill: #4c78a8; stroke-width: 2; stroke-dasharray: 1,0; opacity: 0;"></path><path transform="translate(554.2105263157895,64.03084596440003)" d="M2.7386127875258306,0A2.7386127875258306,2.7386127875258306,0,1,1,-2.7386127875258306,0A2.7386127875258306,2.7386127875258306,0,1,1,2.7386127875258306,0" style="fill: #4c78a8; stroke-width: 2; stroke-dasharray: 1,0; opacity: 0;"></path><path transform="translate(559.3421052631579,64.50396236534172)" d="M2.7386127875258306,0A2.7386127875258306,2.7386127875258306,0,1,1,-2.7386127875258306,0A2.7386127875258306,2.7386127875258306,0,1,1,2.7386127875258306,0" style="fill: #4c78a8; stroke-width: 2; stroke-dasharray: 1,0; opacity: 0;"></path><path transform="translate(564.4736842105264,64.17708194287292)" d="M2.7386127875258306,0A2.7386127875258306,2.7386127875258306,0,1,1,-2.7386127875258306,0A2.7386127875258306,2.7386127875258306,0,1,1,2.7386127875258306,0" style="fill: #4c78a8; stroke-width: 2; stroke-dasharray: 1,0; opacity: 0;"></path><path transform="translate(569.6052631578948,62.95558141680532)" d="M2.7386127875258306,0A2.7386127875258306,2.7386127875258306,0,1,1,-2.7386127875258306,0A2.7386127875258306,2.7386127875258306,0,1,1,2.7386127875258306,0" style="fill: #4c78a8; stroke-width: 2; stroke-dasharray: 1,0; opacity: 0;"></path><path transform="translate(574.7368421052631,68.1426575944022)" d="M2.7386127875258306,0A2.7386127875258306,2.7386127875258306,0,1,1,-2.7386127875258306,0A2.7386127875258306,2.7386127875258306,0,1,1,2.7386127875258306,0" style="fill: #4c78a8; stroke-width: 2; stroke-dasharray: 1,0; opacity: 0;"></path><path transform="translate(579.8684210526316,88.63289881336698)" d="M2.7386127875258306,0A2.7386127875258306,2.7386127875258306,0,1,1,-2.7386127875258306,0A2.7386127875258306,2.7386127875258306,0,1,1,2.7386127875258306,0" style="fill: #4c78a8; stroke-width: 2; stroke-dasharray: 1,0; opacity: 0;"></path><path transform="translate(585,98.94683635389539)" d="M2.7386127875258306,0A2.7386127875258306,2.7386127875258306,0,1,1,-2.7386127875258306,0A2.7386127875258306,2.7386127875258306,0,1,1,2.7386127875258306,0" style="fill: #4c78a8; stroke-width: 2; stroke-dasharray: 1,0; opacity: 0;"></path></g></g><path class="foreground" d="" style="display: none; fill: none;"></path></g></g></g></svg>