<svg class="marks" width="629" height="437" viewBox="0 0 629 437" version="1.1" xmlns="http://www.w3.org/2000/svg" xmlns:xlink="http://www.w3.org/1999/xlink"><rect width="629" height="437" style="fill: white;"></rect><g transform="translate(23,73)"><g class="mark-group role-frame root"><g transform="translate(0,0)"><path class="background" d="M0.5,0.5h600v320h-600Z" style="fill: none; stroke: #ddd;"></path><g><g class="mark-group role-axis"><g transform="translate(0.5,320.5)"><path class="background" d="M0,0h0v0h0Z" style="pointer-events: none; fill: none;"></path><g><g class="mark-rule role-axis-grid" style="pointer-events: none;"><line transform="translate(0,-320)" x2="0" y2="320" style="fill: none; stroke: #ddd; stroke-width: 1; opacity: 1;"></line><line transform="translate(23,-320)" x2="0" y2="320" style="fill: none; stroke: #ddd; stroke-width: 1; opacity: 1;"></line><line transform="translate(45,-320)" x2="0" y2="320" style="fill: none; stroke: #ddd; stroke-width: 1; opacity: 1;"></line><line transform="translate(68,-320)" x2="0" y2="320" style="fill: none; stroke: #ddd; stroke-width: 1; opacity: 1;"></line><line transform="translate(91,-320)" x2="0" y2="320" style="fill: none; stroke: #ddd; stroke-width: 1; opacity: 1;"></line><line transform="translate(113,-320)" x2="0" y2="320" style="fill: none; stroke: #ddd; stroke-width: 1; opacity: 1;"></line><line transform="translate(136,-320)" x2="0" y2="320" style="fill: none; stroke: #ddd; stroke-width: 1; opacity: 1;"></line><line transform="translate(158,-320)" x2="0" y2="320" style="fill: none; stroke: #ddd; stroke-width: 1; opacity: 1;"></line><line transform="translate(181,-320)" x2="0" y2="320" style="fill: none; stroke: #ddd; stroke-width: 1; opacity: 1;"></line><line transform="translate(204,-320)" x2="0" y2="320" style="fill: none; stroke: #ddd; stroke-width: 1; opacity: 1;"></line><line transform="translate(226,-320)" x2="0" y2="320" style="fill: none; stroke: #ddd; stroke-width: 1; opacity: 1;"></line><line transform="translate(249,-320)" x2="0" y2="320" style="fill: none; stroke: #ddd; stroke-width: 1; opacity: 1;"></line><line transform="translate(272,-320)" x2="0" y2="320" style="fill: none; stroke: #ddd; stroke-width: 1; opacity: 1;"></line><line transform="translate(294,-320)" x2="0" y2="320" style="fill: none; stroke: #ddd; stroke-width: 1; opacity: 1;"></line><line transform="translate(317,-320)" x2="0" y2="320" style="fill: none; stroke: #ddd; stroke-width: 1; opacity: 1;"></line><line transform="translate(340,-320)" x2="0" y2="320" style="fill: none; stroke: #ddd; stroke-width: 1; opacity: 1;"></line><line transform="translate(351,-320)" x2="0" y2="320" style="fill: none; stroke: #ddd; stroke-width: 1; opacity: 1;"></line><line transform="translate(374,-320)" x2="0" y2="320" style="fill: none; stroke: #ddd; stroke-width: 1; opacity: 1;"></line><line transform="translate(396,-320)" x2="0" y2="320" style="fill: none; stroke: #ddd; stroke-width: 1; opacity: 1;"></line><line transform="translate(419,-320)" x2="0" y2="320" style="fill: none; stroke: #ddd; stroke-width: 1; opacity: 1;"></line><line transform="translate(442,-320)" x2="0" y2="320" style="fill: none; stroke: #ddd; stroke-width: 1; opacity: 1;"></line><line transform="translate(464,-320)" x2="0" y2="320" style="fill: none; stroke: #ddd; stroke-width: 1; opacity: 1;"></line><line transform="translate(487,-320)" x2="0" y2="320" style="fill: none; stroke: #ddd; stroke-width: 1; opacity: 1;"></line><line transform="translate(509,-320)" x2="0" y2="320" style="fill: none; stroke: #ddd; stroke-width: 1; opacity: 1;"></line><line transform="translate(532,-320)" x2="0" y2="320" style="fill: none; stroke: #ddd; stroke-width: 1; opacity: 1;"></line><line transform="translate(555,-320)" x2="0" y2="320" style="fill: none; stroke: #ddd; stroke-width: 1; opacity: 1;"></line><line transform="translate(577,-320)" x2="0" y2="320" style="fill: none; stroke: #ddd; stroke-width: 1; opacity: 1;"></line><line transform="translate(600,-320)" x2="0" y2="320" style="fill: none; stroke: #ddd; stroke-width: 1; opacity: 1;"></line></g></g><path class="foreground" d="" style="pointer-events: none; display: none; fill: none;"></path></g></g><g class="mark-group role-axis"><g transform="translate(0.5,0.5)"><path class="background" d="M0,0h0v0h0Z" style="pointer-events: none; fill: none;"></path><g><g class="mark-rule role-axis-grid" style="pointer-events: none;"><line transform="translate(0,320)" x2="600" y2="0" style="fill: none; stroke: #ddd; stroke-width: 1; opacity: 1;"></line><line transform="translate(0,288)" x2="600" y2="0" style="fill: none; stroke: #ddd; stroke-width: 1; opacity: 1;"></line><line transform="translate(0,256)" x2="600" y2="0" style="fill: none; stroke: #ddd; stroke-width: 1; opacity: 1;"></line><line transform="translate(0,224)" x2="600" y2="0" style="fill: none; stroke: #ddd; stroke-width: 1; opacity: 1;"></line><line transform="translate(0,192)" x2="600" y2="0" style="fill: none; stroke: #ddd; stroke-width: 1; opacity: 1;"></line><line transform="translate(0,160)" x2="600" y2="0" style="fill: none; stroke: #ddd; stroke-width: 1; opacity: 1;"></line><line transform="translate(0,128)" x2="600" y2="0" style="fill: none; stroke: #ddd; stroke-width: 1; opacity: 1;"></line><line transform="translate(0,96)" x2="600" y2="0" style="fill: none; stroke: #ddd; stroke-width: 1; opacity: 1;"></line><line transform="translate(0,64)" x2="600" y2="0" style="fill: none; stroke: #ddd; stroke-width: 1; opacity: 1;"></line><line transform="translate(0,32)" x2="600" y2="0" style="fill: none; stroke: #ddd; stroke-width: 1; opacity: 1;"></line><line transform="translate(0,0)" x2="600" y2="0" style="fill: none; stroke: #ddd; stroke-width: 1; opacity: 1;"></line></g></g><path class="foreground" d="" style="pointer-events: none; display: none; fill: none;"></path></g></g><g class="mark-group role-axis"><g transform="translate(0.5,320.5)"><path class="background" d="M0,0h0v0h0Z" style="pointer-events: none; fill: none;"></path><g><g class="mark-rule role-axis-tick" style="pointer-events: none;"><line transform="translate(0,0)" x2="0" y2="5" style="fill: none; stroke: #888; stroke-width: 1; opacity: 1;"></line><line transform="translate(23,0)" x2="0" y2="5" style="fill: none; stroke: #888; stroke-width: 1; opacity: 1;"></line><line transform="translate(45,0)" x2="0" y2="5" style="fill: none; stroke: #888; stroke-width: 1; opacity: 1;"></line><line transform="translate(68,0)" x2="0" y2="5" style="fill: none; stroke: #888; stroke-width: 1; opacity: 1;"></line><line transform="translate(91,0)" x2="0" y2="5" style="fill: none; stroke: #888; stroke-width: 1; opacity: 1;"></line><line transform="translate(113,0)" x2="0" y2="5" style="fill: none; stroke: #888; stroke-width: 1; opacity: 1;"></line><line transform="translate(136,0)" x2="0" y2="5" style="fill: none; stroke: #888; stroke-width: 1; opacity: 1;"></line><line transform="translate(158,0)" x2="0" y2="5" style="fill: none; stroke: #888; stroke-width: 1; opacity: 1;"></line><line transform="translate(181,0)" x2="0" y2="5" style="fill: none; stroke: #888; stroke-width: 1; opacity: 1;"></line><line transform="translate(204,0)" x2="0" y2="5" style="fill: none; stroke: #888; stroke-width: 1; opacity: 1;"></line><line transform="translate(226,0)" x2="0" y2="5" style="fill: none; stroke: #888; stroke-width: 1; opacity: 1;"></line><line transform="translate(249,0)" x2="0" y2="5" style="fill: none; stroke: #888; stroke-width: 1; opacity: 1;"></line><line transform="translate(272,0)" x2="0" y2="5" style="fill: none; stroke: #888; stroke-width: 1; opacity: 1;"></line><line transform="translate(294,0)" x2="0" y2="5" style="fill: none; stroke: #888; stroke-width: 1; opacity: 1;"></line><line transform="translate(317,0)" x2="0" y2="5" style="fill: none; stroke: #888; stroke-width: 1; opacity: 1;"></line><line transform="translate(340,0)" x2="0" y2="5" style="fill: none; stroke: #888; stroke-width: 1; opacity: 1;"></line><line transform="translate(351,0)" x2="0" y2="5" style="fill: none; stroke: #888; stroke-width: 1; opacity: 1;"></line><line transform="translate(374,0)" x2="0" y2="5" style="fill: none; stroke: #888; stroke-width: 1; opacity: 1;"></line><line transform="translate(396,0)" x2="0" y2="5" style="fill: none; stroke: #888; stroke-width: 1; opacity: 1;"></line><line transform="translate(419,0)" x2="0" y2="5" style="fill: none; stroke: #888; stroke-width: 1; opacity: 1;"></line><line transform="translate(442,0)" x2="0" y2="5" style="fill: none; stroke: #888; stroke-width: 1; opacity: 1;"></line><line transform="translate(464,0)" x2="0" y2="5" style="fill: none; stroke: #888; stroke-width: 1; opacity: 1;"></line><line transform="translate(487,0)" x2="0" y2="5" style="fill: none; stroke: #888; stroke-width: 1; opacity: 1;"></line><line transform="translate(509,0)" x2="0" y2="5" style="fill: none; stroke: #888; stroke-width: 1; opacity: 1;"></line><line transform="translate(532,0)" x2="0" y2="5" style="fill: none; stroke: #888; stroke-width: 1; opacity: 1;"></line><line transform="translate(555,0)" x2="0" y2="5" style="fill: none; stroke: #888; stroke-width: 1; opacity: 1;"></line><line transform="translate(577,0)" x2="0" y2="5" style="fill: none; stroke: #888; stroke-width: 1; opacity: 1;"></line><line transform="translate(600,0)" x2="0" y2="5" style="fill: none; stroke: #888; stroke-width: 1; opacity: 1;"></line></g><g class="mark-text role-axis-label" style="pointer-events: none;"><text text-anchor="start" transform="translate(0,18)" style="font-family: sans-serif; font-size: 14px; fill: #000; opacity: 1;">mayo</text><text text-anchor="middle" transform="translate(22.641509433962263,18)" style="font-family: sans-serif; font-size: 14px; fill: #000; opacity: 0;">may 03</text><text text-anchor="middle" transform="translate(45.283018867924525,18)" style="font-family: sans-serif; font-size: 14px; fill: #000; opacity: 0;">mar 05</text><text text-anchor="middle" transform="translate(67.9245283018868,18)" style="font-family: sans-serif; font-size: 14px; fill: #000; opacity: 0;">jue 07</text><text text-anchor="middle" transform="translate(90.56603773584905,18)" style="font-family: sans-serif; font-size: 14px; fill: #000; opacity: 1;">sáb 09</text><text text-anchor="middle" transform="translate(113.20754716981133,18)" style="font-family: sans-serif; font-size: 14px; fill: #000; opacity: 0;">lun 11</text><text text-anchor="middle" transform="translate(135.8490566037736,18)" style="font-family: sans-serif; font-size: 14px; fill: #000; opacity: 0;">mié 13</text><text text-anchor="middle" transform="translate(158.49056603773585,18)" style="font-family: sans-serif; font-size: 14px; fill: #000; opacity: 0;">vie 15</text><text text-anchor="middle" transform="translate(181.1320754716981,18)" style="font-family: sans-serif; font-size: 14px; fill: #000; opacity: 1;">may 17</text><text text-anchor="middle" transform="translate(203.77358490566036,18)" style="font-family: sans-serif; font-size: 14px; fill: #000; opacity: 0;">mar 19</text><text text-anchor="middle" transform="translate(226.41509433962267,18)" style="font-family: sans-serif; font-size: 14px; fill: #000; opacity: 0;">jue 21</text><text text-anchor="middle" transform="translate(249.05660377358492,18)" style="font-family: sans-serif; font-size: 14px; fill: #000; opacity: 0;">sáb 23</text><text text-anchor="middle" transform="translate(271.6981132075472,18)" style="font-family: sans-serif; font-size: 14px; fill: #000; opacity: 1;">lun 25</text><text text-anchor="middle" transform="translate(294.33962264150944,18)" style="font-family: sans-serif; font-size: 14px; fill: #000; opacity: 0;">mié 27</text><text text-anchor="middle" transform="translate(316.9811320754717,18)" style="font-family: sans-serif; font-size: 14px; fill: #000; opacity: 0;">vie 29</text><text text-anchor="middle" transform="translate(339.62264150943395,18)" style="font-family: sans-serif; font-size: 14px; fill: #000; opacity: 0;">may 31</text><text text-anchor="middle" transform="translate(350.9433962264151,18)" style="font-family: sans-serif; font-size: 14px; fill: #000; opacity: 1;">junio</text><text text-anchor="middle" transform="translate(373.58490566037733,18)" style="font-family: sans-serif; font-size: 14px; fill: #000; opacity: 0;">mié 03</text><text text-anchor="middle" transform="translate(396.2264150943396,18)" style="font-family: sans-serif; font-size: 14px; fill: #000; opacity: 0;">vie 05</text><text text-anchor="middle" transform="translate(418.86792452830184,18)" style="font-family: sans-serif; font-size: 14px; fill: #000; opacity: 0;">jun 07</text><text text-anchor="middle" transform="translate(441.5094339622641,18)" style="font-family: sans-serif; font-size: 14px; fill: #000; opacity: 1;">mar 09</text><text text-anchor="middle" transform="translate(464.15094339622647,18)" style="font-family: sans-serif; font-size: 14px; fill: #000; opacity: 0;">jue 11</text><text text-anchor="middle" transform="translate(486.7924528301887,18)" style="font-family: sans-serif; font-size: 14px; fill: #000; opacity: 0;">sáb 13</text><text text-anchor="middle" transform="translate(509.433962264151,18)" style="font-family: sans-serif; font-size: 14px; fill: #000; opacity: 0;">lun 15</text><text text-anchor="middle" transform="translate(532.0754716981132,18)" style="font-family: sans-serif; font-size: 14px; fill: #000; opacity: 1;">mié 17</text><text text-anchor="middle" transform="translate(554.7169811320755,18)" style="font-family: sans-serif; font-size: 14px; fill: #000; opacity: 0;">vie 19</text><text text-anchor="middle" transform="translate(577.3584905660377,18)" style="font-family: sans-serif; font-size: 14px; fill: #000; opacity: 0;">jun 21</text><text text-anchor="end" transform="translate(600,18)" style="font-family: sans-serif; font-size: 14px; fill: #000; opacity: 0;">mar 23</text></g><g class="mark-rule role-axis-domain" style="pointer-events: none;"><line transform="translate(0,0)" x2="600" y2="0" style="fill: none; stroke: #888; stroke-width: 1; opacity: 1;"></line></g><g class="mark-text role-axis-title" style="pointer-events: none;"><text text-anchor="middle" transform="translate(300,36)" style="font-family: sans-serif; font-size: 14px; font-weight: bold; fill: #000; opacity: 1;">Fecha de boletín</text></g></g><path class="foreground" d="" style="pointer-events: none; display: none; fill: none;"></path></g></g><g class="mark-group role-axis"><g transform="translate(0.5,0.5)"><path class="background" d="M0,0h0v0h0Z" style="pointer-events: none; fill: none;"></path><g><g class="mark-rule role-axis-domain" style="pointer-events: none;"><line transform="translate(0,320)" x2="0" y2="-320" style="fill: none; stroke: #888; stroke-width: 1; opacity: 1;"></line></g><g class="mark-text role-axis-title" style="pointer-events: none;"><text text-anchor="middle" transform="translate(-4,160) rotate(-90) translate(0,-3)" style="font-family: sans-serif; font-size: 14px; font-weight: bold; fill: #000; opacity: 1;">Casos nuevos (molecular, promedio 7 días)</text></g></g><path class="foreground" d="" style="pointer-events: none; display: none; fill: none;"></path></g></g><g class="mark-group role-scope pathgroup"><g transform="translate(0,0)"><path class="background" d="M0,0h600v320h-600Z" style="fill: none;"></path><g><g class="mark-area role-mark marks"><path d="M0,-7.105427357601002e-14L11.320754716981131,0L22.641509433962263,0L33.9622641509434,7.105427357601002e-14L45.283018867924525,3.552713678800501e-14L56.60377358490567,0L67.9245283018868,0L79.24528301886792,0L90.56603773584905,-7.105427357601002e-14L101.88679245283018,3.552713678800501e-14L113.20754716981133,0L124.52830188679246,0L135.8490566037736,-7.105427357601002e-14L147.16981132075472,7.105427357601002e-14L158.49056603773585,-7.105427357601002e-14L169.81132075471697,-7.105427357601002e-14L181.1320754716981,7.105427357601002e-14L192.45283018867923,0L203.77358490566036,-7.105427357601002e-14L215.09433962264148,0L226.41509433962267,0L237.7358490566038,-7.105427357601002e-14L249.05660377358492,3.552713678800501e-14L260.37735849056605,0L271.6981132075472,0L283.0188679245283,0L294.33962264150944,0L305.66037735849056,3.552713678800501e-14L316.9811320754717,0L328.3018867924528,-7.105427357601002e-14L339.62264150943395,-7.105427357601002e-14L350.9433962264151,0L362.2641509433962,0L373.58490566037733,1.0658141036401503e-13L384.90566037735846,1.0658141036401503e-13L396.2264150943396,7.105427357601002e-14L407.5471698113207,0L418.86792452830184,3.552713678800501e-14L430.18867924528297,3.552713678800501e-14L441.5094339622641,0L452.83018867924534,3.552713678800501e-14L464.15094339622647,0L475.4716981132076,7.105427357601002e-14L486.7924528301887,0L498.11320754716985,0L509.433962264151,1.0658141036401503e-13L520.7547169811321,0L532.0754716981132,0L543.3962264150944,0L554.7169811320755,0L566.0377358490566,0L577.3584905660377,7.105427357601002e-14L588.6792452830189,3.552713678800501e-14L600,-7.105427357601002e-14L600,21.098901098901024L588.6792452830189,31.549295774647916L577.3584905660377,30.476190476190546L566.0377358490566,30.96774193548388L554.7169811320755,31.54929577464788L543.3962264150944,28.571428571428577L532.0754716981132,27.52688172043012L520.7547169811321,30.47619047619044L509.433962264151,17.20430107526891L498.11320754716985,18.461538461538467L486.7924528301887,17.943925233644897L475.4716981132076,16.00000000000005L464.15094339622647,31.150442477876155L452.83018867924534,31.604938271604937L441.5094339622641,31.648351648351642L430.18867924528297,35.55555555555561L418.86792452830184,37.10144927536234L407.5471698113207,42.66666666666666L396.2264150943396,42.666666666666764L384.90566037735846,16.41025641025653L373.58490566037733,21.81818181818194L362.2641509433962,18.113207547169807L350.9433962264151,15.000000000000036L339.62264150943395,14.999999999999964L328.3018867924528,4.210526315789416L316.9811320754717,4.444444444444393L305.66037735849056,4.324324324324351L294.33962264150944,0L283.0188679245283,5.51724137931032L271.6981132075472,7.272727272727302L260.37735849056605,5.81818181818182L249.05660377358492,19.512195121951237L237.7358490566038,24.827586206896477L226.41509433962267,24.24242424242422L215.09433962264148,25.323741007194265L203.77358490566036,24.964539007092164L192.45283018867923,24.4444444444445L181.1320754716981,25.14285714285723L169.81132075471697,20.363636363636317L158.49056603773585,11.999999999999957L147.16981132075472,5.333333333333385L135.8490566037736,10.491803278688465L124.52830188679246,16.27118644067796L113.20754716981133,16.551724137931032L101.88679245283018,17.77777777777782L90.56603773584905,30.76923076923073L79.24528301886792,36.72131147540988L67.9245283018868,39.38461538461539L56.60377358490567,32.00000000000003L45.283018867924525,37.64705882352942L33.9622641509434,38.87850467289727L22.641509433962263,36.57142857142855L11.320754716981131,30L0,27.234042553191422Z" style="fill: #f58518;"></path></g></g><path class="foreground" d="" style="display: none; fill: none;"></path></g><g transform="translate(0,0)"><path class="background" d="M0,0h600v320h-600Z" style="fill: none;"></path><g><g class="mark-area role-mark marks"><path d="M0,27.234042553191422L11.320754716981131,30L22.641509433962263,36.57142857142855L33.9622641509434,38.87850467289727L45.283018867924525,37.64705882352942L56.60377358490567,32.00000000000003L67.9245283018868,39.38461538461539L79.24528301886792,36.72131147540988L90.56603773584905,30.76923076923073L101.88679245283018,17.77777777777782L113.20754716981133,16.551724137931032L124.52830188679246,16.27118644067796L135.8490566037736,10.491803278688465L147.16981132075472,5.333333333333385L158.49056603773585,11.999999999999957L169.81132075471697,20.363636363636317L181.1320754716981,25.14285714285723L192.45283018867923,24.4444444444445L203.77358490566036,24.964539007092164L215.09433962264148,25.323741007194265L226.41509433962267,24.24242424242422L237.7358490566038,24.827586206896477L249.05660377358492,19.512195121951237L260.37735849056605,5.81818181818182L271.6981132075472,7.272727272727302L283.0188679245283,5.51724137931032L294.33962264150944,0L305.66037735849056,4.324324324324351L316.9811320754717,4.444444444444393L328.3018867924528,4.210526315789416L339.62264150943395,14.999999999999964L350.9433962264151,15.000000000000036L362.2641509433962,18.113207547169807L373.58490566037733,21.81818181818194L384.90566037735846,16.41025641025653L396.2264150943396,42.666666666666764L407.5471698113207,42.66666666666666L418.86792452830184,37.10144927536234L430.18867924528297,35.55555555555561L441.5094339622641,31.648351648351642L452.83018867924534,31.604938271604937L464.15094339622647,31.150442477876155L475.4716981132076,16.00000000000005L486.7924528301887,17.943925233644897L498.11320754716985,18.461538461538467L509.433962264151,17.20430107526891L520.7547169811321,30.47619047619044L532.0754716981132,27.52688172043012L543.3962264150944,28.571428571428577L554.7169811320755,31.54929577464788L566.0377358490566,30.96774193548388L577.3584905660377,30.476190476190546L588.6792452830189,31.549295774647916L600,21.098901098901024L600,84.39560439560435L588.6792452830189,94.64788732394368L577.3584905660377,96.50793650793656L566.0377358490566,103.22580645161293L554.7169811320755,108.16901408450701L543.3962264150944,91.42857142857142L532.0754716981132,79.13978494623656L520.7547169811321,83.80952380952377L509.433962264151,82.58064516129039L498.11320754716985,76.92307692307696L486.7924528301887,77.75700934579444L475.4716981132076,73.60000000000002L464.15094339622647,84.9557522123894L452.83018867924534,102.71604938271608L441.5094339622641,94.94505494505492L430.18867924528297,90.86419753086425L418.86792452830184,97.3913043478261L407.5471698113207,90.66666666666666L396.2264150943396,90.66666666666674L384.90566037735846,82.0512820512821L373.58490566037733,65.45454545454554L362.2641509433962,48.30188679245282L350.9433962264151,50.000000000000036L339.62264150943395,54.99999999999993L328.3018867924528,67.36842105263153L316.9811320754717,66.66666666666664L305.66037735849056,51.891891891891895L294.33962264150944,60.28985507246379L283.0188679245283,88.27586206896548L271.6981132075472,94.54545454545456L260.37735849056605,69.81818181818181L249.05660377358492,46.82926829268297L237.7358490566038,55.17241379310338L226.41509433962267,65.4545454545454L215.09433962264148,59.85611510791369L203.77358490566036,59.0070921985815L192.45283018867923,60L181.1320754716981,61.71428571428578L169.81132075471697,61.09090909090906L158.49056603773585,51.99999999999999L147.16981132075472,32.00000000000003L135.8490566037736,57.70491803278688L124.52830188679246,65.08474576271186L113.20754716981133,60.68965517241381L101.88679245283018,65.18518518518522L90.56603773584905,86.1538461538461L79.24528301886792,99.67213114754102L67.9245283018868,98.46153846153842L56.60377358490567,74.66666666666669L45.283018867924525,81.56862745098042L33.9622641509434,83.73831775700938L22.641509433962263,82.28571428571425L11.320754716981131,80L0,78.29787234042544Z" style="fill: #e45756;"></path></g></g><path class="foreground" d="" style="display: none; fill: none;"></path></g><g transform="translate(0,0)"><path class="background" d="M0,0h600v320h-600Z" style="fill: none;"></path><g><g class="mark-area role-mark marks"><path d="M0,78.29787234042544L11.320754716981131,80L22.641509433962263,82.28571428571425L33.9622641509434,83.73831775700938L45.283018867924525,81.56862745098042L56.60377358490567,74.66666666666669L67.9245283018868,98.46153846153842L79.24528301886792,99.67213114754102L90.56603773584905,86.1538461538461L101.88679245283018,65.18518518518522L113.20754716981133,60.68965517241381L124.52830188679246,65.08474576271186L135.8490566037736,57.70491803278688L147.16981132075472,32.00000000000003L158.49056603773585,51.99999999999999L169.81132075471697,61.09090909090906L181.1320754716981,61.71428571428578L192.45283018867923,60L203.77358490566036,59.0070921985815L215.09433962264148,59.85611510791369L226.41509433962267,65.4545454545454L237.7358490566038,55.17241379310338L249.05660377358492,46.82926829268297L260.37735849056605,69.81818181818181L271.6981132075472,94.54545454545456L283.0188679245283,88.27586206896548L294.33962264150944,60.28985507246379L305.66037735849056,51.891891891891895L316.9811320754717,66.66666666666664L328.3018867924528,67.36842105263153L339.62264150943395,54.99999999999993L350.9433962264151,50.000000000000036L362.2641509433962,48.30188679245282L373.58490566037733,65.45454545454554L384.90566037735846,82.05128205128212L396.2264150943396,90.66666666666674L407.5471698113207,90.66666666666666L418.86792452830184,97.3913043478261L430.18867924528297,90.86419753086425L441.5094339622641,94.94505494505492L452.83018867924534,102.71604938271608L464.15094339622647,84.9557522123894L475.4716981132076,73.60000000000002L486.7924528301887,77.75700934579444L498.11320754716985,76.92307692307696L509.433962264151,82.58064516129039L520.7547169811321,83.80952380952377L532.0754716981132,79.13978494623656L543.3962264150944,91.42857142857142L554.7169811320755,108.16901408450701L566.0377358490566,103.22580645161293L577.3584905660377,96.50793650793656L588.6792452830189,94.64788732394368L600,84.39560439560435L600,147.69230769230768L588.6792452830189,144.2253521126761L577.3584905660377,147.30158730158735L566.0377358490566,149.67741935483872L554.7169811320755,148.73239436619716L543.3962264150944,160L532.0754716981132,151.3978494623656L520.7547169811321,148.57142857142856L509.433962264151,141.07526881720435L498.11320754716985,144.61538461538464L486.7924528301887,143.5514018691589L475.4716981132076,144.00000000000003L464.15094339622647,135.92920353982305L452.83018867924534,158.0246913580247L441.5094339622641,140.65934065934067L430.18867924528297,146.17283950617286L418.86792452830184,139.13043478260872L407.5471698113207,144L396.2264150943396,144.00000000000006L384.90566037735846,147.69230769230774L373.58490566037733,109.09090909090918L362.2641509433962,90.56603773584904L350.9433962264151,85.00000000000003L339.62264150943395,89.99999999999997L328.3018867924528,96.84210526315783L316.9811320754717,97.77777777777771L305.66037735849056,82.16216216216222L294.33962264150944,97.3913043478261L283.0188679245283,132.41379310344826L271.6981132075472,130.90909090909093L260.37735849056605,116.36363636363633L249.05660377358492,117.07317073170731L237.7358490566038,126.89655172413791L226.41509433962267,128.48484848484847L215.09433962264148,122.01438848920861L203.77358490566036,122.55319148936167L192.45283018867923,124.44444444444443L181.1320754716981,128.00000000000006L169.81132075471697,116.36363636363633L158.49056603773585,99.99999999999997L147.16981132075472,101.33333333333333L135.8490566037736,120.65573770491802L124.52830188679246,124.74576271186439L113.20754716981133,126.89655172413794L101.88679245283018,118.51851851851855L90.56603773584905,153.84615384615384L79.24528301886792,167.86885245901644L67.9245283018868,147.69230769230768L56.60377358490567,133.33333333333331L45.283018867924525,147.45098039215688L33.9622641509434,143.55140186915892L22.641509433962263,146.28571428571428L11.320754716981131,143.33333333333331L0,132.76595744680847Z" style="fill: #72b7b2;"></path></g></g><path class="foreground" d="" style="display: none; fill: none;"></path></g><g transform="translate(0,0)"><path class="background" d="M0,0h600v320h-600Z" style="fill: none;"></path><g><g class="mark-area role-mark marks"><path d="M0,132.76595744680847L11.320754716981131,143.33333333333331L22.641509433962263,146.28571428571428L33.9622641509434,143.55140186915892L45.283018867924525,147.45098039215688L56.60377358490567,133.33333333333331L67.9245283018868,147.69230769230768L79.24528301886792,167.86885245901644L90.56603773584905,153.84615384615384L101.88679245283018,118.51851851851855L113.20754716981133,126.89655172413794L124.52830188679246,124.74576271186439L135.8490566037736,120.65573770491802L147.16981132075472,101.33333333333333L158.49056603773585,99.99999999999997L169.81132075471697,116.36363636363633L181.1320754716981,128.00000000000006L192.45283018867923,124.44444444444443L203.77358490566036,122.55319148936167L215.09433962264148,122.01438848920861L226.41509433962267,128.48484848484847L237.7358490566038,126.89655172413791L249.05660377358492,117.07317073170731L260.37735849056605,116.36363636363633L271.6981132075472,130.90909090909093L283.0188679245283,132.41379310344826L294.33962264150944,97.3913043478261L305.66037735849056,82.16216216216222L316.9811320754717,97.77777777777771L328.3018867924528,96.84210526315783L339.62264150943395,89.99999999999997L350.9433962264151,85.00000000000003L362.2641509433962,90.56603773584904L373.58490566037733,109.09090909090918L384.90566037735846,147.69230769230774L396.2264150943396,144.00000000000006L407.5471698113207,144L418.86792452830184,139.13043478260872L430.18867924528297,146.17283950617286L441.5094339622641,140.65934065934067L452.83018867924534,158.0246913580247L464.15094339622647,135.92920353982305L475.4716981132076,144.00000000000003L486.7924528301887,143.5514018691589L498.11320754716985,144.61538461538464L509.433962264151,141.07526881720435L520.7547169811321,148.57142857142856L532.0754716981132,151.3978494623656L543.3962264150944,160L554.7169811320755,148.73239436619716L566.0377358490566,149.67741935483872L577.3584905660377,147.30158730158735L588.6792452830189,144.2253521126761L600,147.69230769230768L600,203.95604395604394L588.6792452830189,202.81690140845072L577.3584905660377,203.1746031746032L566.0377358490566,211.61290322580646L554.7169811320755,184.7887323943662L543.3962264150944,194.2857142857143L532.0754716981132,189.24731182795696L520.7547169811321,186.66666666666663L509.433962264151,182.36559139784953L498.11320754716985,196.92307692307693L486.7924528301887,194.392523364486L475.4716981132076,217.60000000000002L464.15094339622647,203.89380530973455L452.83018867924534,217.28395061728395L441.5094339622641,196.92307692307693L430.18867924528297,209.38271604938274L418.86792452830184,190.14492753623188L407.5471698113207,192L396.2264150943396,186.6666666666667L384.90566037735846,180.51282051282055L373.58490566037733,160.00000000000003L362.2641509433962,144.9056603773585L350.9433962264151,140L339.62264150943395,144.99999999999997L328.3018867924528,151.57894736842098L316.9811320754717,151.1111111111111L305.66037735849056,134.05405405405406L294.33962264150944,143.768115942029L283.0188679245283,176.55172413793105L271.6981132075472,152.72727272727275L260.37735849056605,139.63636363636363L249.05660377358492,171.70731707317074L237.7358490566038,179.3103448275862L226.41509433962267,181.8181818181818L215.09433962264148,177.26618705035972L203.77358490566036,181.56028368794324L192.45283018867923,184.44444444444443L181.1320754716981,194.2857142857143L169.81132075471697,171.63636363636363L158.49056603773585,155.99999999999997L147.16981132075472,160L135.8490566037736,178.36065573770492L124.52830188679246,178.9830508474576L113.20754716981133,176.55172413793105L101.88679245283018,160L90.56603773584905,196.9230769230769L79.24528301886792,236.06557377049182L67.9245283018868,211.69230769230768L56.60377358490567,197.33333333333334L45.283018867924525,203.92156862745097L33.9622641509434,200.37383177570095L22.641509433962263,207.2380952380952L11.320754716981131,213.33333333333337L0,197.44680851063828Z" style="fill: #54a24b;"></path></g></g><path class="foreground" d="" style="display: none; fill: none;"></path></g><g transform="translate(0,0)"><path class="background" d="M0,0h600v320h-600Z" style="fill: none;"></path><g><g class="mark-area role-mark marks"><path d="M0,197.44680851063828L11.320754716981131,213.33333333333337L22.641509433962263,207.2380952380952L33.9622641509434,200.37383177570095L45.283018867924525,203.92156862745097L56.60377358490567,197.33333333333334L67.9245283018868,211.69230769230768L79.24528301886792,236.06557377049182L90.56603773584905,196.9230769230769L101.88679245283018,160L113.20754716981133,176.55172413793105L124.52830188679246,178.9830508474576L135.8490566037736,178.36065573770492L147.16981132075472,160L158.49056603773585,155.99999999999997L169.81132075471697,171.63636363636363L181.1320754716981,194.2857142857143L192.45283018867923,184.44444444444443L203.77358490566036,181.56028368794324L215.09433962264148,177.26618705035972L226.41509433962267,181.8181818181818L237.7358490566038,179.3103448275862L249.05660377358492,171.70731707317074L260.37735849056605,139.63636363636363L271.6981132075472,152.72727272727275L283.0188679245283,176.55172413793105L294.33962264150944,143.768115942029L305.66037735849056,134.05405405405406L316.9811320754717,151.1111111111111L328.3018867924528,151.57894736842098L339.62264150943395,144.99999999999997L350.9433962264151,140L362.2641509433962,144.9056603773585L373.58490566037733,160.00000000000003L384.90566037735846,180.51282051282055L396.2264150943396,186.6666666666667L407.5471698113207,192L418.86792452830184,190.14492753623188L430.18867924528297,209.38271604938274L441.5094339622641,196.92307692307693L452.83018867924534,217.28395061728395L464.15094339622647,203.89380530973455L475.4716981132076,217.60000000000002L486.7924528301887,194.392523364486L498.11320754716985,196.92307692307693L509.433962264151,182.36559139784953L520.7547169811321,186.66666666666663L532.0754716981132,189.24731182795696L543.3962264150944,194.2857142857143L554.7169811320755,184.7887323943662L566.0377358490566,211.61290322580646L577.3584905660377,203.1746031746032L588.6792452830189,202.81690140845072L600,203.95604395604394L600,246.15384615384613L588.6792452830189,252.3943661971831L577.3584905660377,253.96825396825398L566.0377358490566,268.38709677419354L554.7169811320755,256.90140845070425L543.3962264150944,274.28571428571433L532.0754716981132,254.6236559139785L520.7547169811321,243.8095238095238L509.433962264151,233.97849462365593L498.11320754716985,243.07692307692307L486.7924528301887,242.24299065420558L475.4716981132076,249.60000000000002L464.15094339622647,237.8761061946903L452.83018867924534,240.98765432098764L441.5094339622641,232.0879120879121L430.18867924528297,248.88888888888889L418.86792452830184,231.88405797101444L407.5471698113207,229.33333333333331L396.2264150943396,224.00000000000006L384.90566037735846,229.74358974358978L373.58490566037733,203.63636363636368L362.2641509433962,217.35849056603772L350.9433962264151,195L339.62264150943395,200L328.3018867924528,210.52631578947364L316.9811320754717,213.33333333333331L305.66037735849056,194.59459459459458L294.33962264150944,213.33333333333337L283.0188679245283,209.65517241379308L271.6981132075472,196.36363636363637L260.37735849056605,197.8181818181818L249.05660377358492,226.34146341463412L237.7358490566038,231.72413793103445L226.41509433962267,240L215.09433962264148,239.42446043165467L203.77358490566036,247.3758865248227L192.45283018867923,248.88888888888889L181.1320754716981,253.71428571428572L169.81132075471697,238.5454545454545L158.49056603773585,244L147.16981132075472,240L135.8490566037736,236.06557377049177L124.52830188679246,238.64406779661016L113.20754716981133,237.24137931034483L101.88679245283018,225.1851851851852L90.56603773584905,252.3076923076923L79.24528301886792,262.29508196721315L67.9245283018868,256L56.60377358490567,250.66666666666666L45.283018867924525,266.6666666666667L33.9622641509434,266.1682242990654L22.641509433962263,274.2857142857143L11.320754716981131,280L0,275.74468085106383Z" style="fill: #eeca3b;"></path></g></g><path class="foreground" d="" style="display: none; fill: none;"></path></g><g transform="translate(0,0)"><path class="background" d="M0,0h600v320h-600Z" style="fill: none;"></path><g><g class="mark-area role-mark marks"><path d="M0,275.74468085106383L11.320754716981131,280L22.641509433962263,274.2857142857143L33.9622641509434,266.1682242990654L45.283018867924525,266.6666666666667L56.60377358490567,250.66666666666666L67.9245283018868,256L79.24528301886792,262.29508196721315L90.56603773584905,252.3076923076923L101.88679245283018,225.1851851851852L113.20754716981133,237.24137931034483L124.52830188679246,238.64406779661016L135.8490566037736,236.06557377049177L147.16981132075472,240L158.49056603773585,244L169.81132075471697,238.5454545454545L181.1320754716981,253.71428571428572L192.45283018867923,248.88888888888889L203.77358490566036,247.3758865248227L215.09433962264148,239.42446043165467L226.41509433962267,240L237.7358490566038,231.72413793103445L249.05660377358492,226.34146341463412L260.37735849056605,197.8181818181818L271.6981132075472,196.36363636363637L283.0188679245283,209.65517241379308L294.33962264150944,213.33333333333337L305.66037735849056,194.59459459459458L316.9811320754717,213.33333333333331L328.3018867924528,210.52631578947364L339.62264150943395,200L350.9433962264151,195L362.2641509433962,217.35849056603772L373.58490566037733,203.63636363636368L384.90566037735846,229.74358974358978L396.2264150943396,224.00000000000006L407.5471698113207,229.33333333333331L418.86792452830184,231.88405797101444L430.18867924528297,248.88888888888889L441.5094339622641,232.0879120879121L452.83018867924534,240.98765432098764L464.15094339622647,237.8761061946903L475.4716981132076,249.60000000000002L486.7924528301887,242.24299065420558L498.11320754716985,243.07692307692307L509.433962264151,233.97849462365593L520.7547169811321,243.8095238095238L532.0754716981132,254.6236559139785L543.3962264150944,274.28571428571433L554.7169811320755,256.90140845070425L566.0377358490566,268.38709677419354L577.3584905660377,253.96825396825398L588.6792452830189,252.3943661971831L600,246.15384615384613L600,263.7362637362637L588.6792452830189,265.9154929577465L577.3584905660377,259.04761904761904L566.0377358490566,273.5483870967742L554.7169811320755,270.4225352112676L543.3962264150944,297.14285714285717L532.0754716981132,278.7096774193548L520.7547169811321,274.2857142857143L509.433962264151,268.38709677419354L498.11320754716985,273.84615384615387L486.7924528301887,278.13084112149534L475.4716981132076,281.6L464.15094339622647,277.5221238938053L452.83018867924534,284.44444444444446L441.5094339622641,274.2857142857143L430.18867924528297,288.39506172839504L418.86792452830184,282.8985507246377L407.5471698113207,277.33333333333337L396.2264150943396,277.33333333333337L384.90566037735846,262.56410256410254L373.58490566037733,269.0909090909091L362.2641509433962,277.7358490566038L350.9433962264151,260L339.62264150943395,260L328.3018867924528,261.05263157894734L316.9811320754717,262.22222222222223L305.66037735849056,259.4594594594595L294.33962264150944,259.71014492753625L283.0188679245283,270.3448275862069L271.6981132075472,254.54545454545453L260.37735849056605,261.8181818181818L249.05660377358492,277.0731707317073L237.7358490566038,275.8620689655172L226.41509433962267,281.2121212121212L215.09433962264148,283.1654676258993L203.77358490566036,283.68794326241135L192.45283018867923,284.44444444444446L181.1320754716981,283.42857142857144L169.81132075471697,282.1818181818182L158.49056603773585,292L147.16981132075472,288L135.8490566037736,278.0327868852459L124.52830188679246,276.6101694915254L113.20754716981133,275.86206896551727L101.88679245283018,266.6666666666667L90.56603773584905,283.0769230769231L79.24528301886792,293.7704918032787L67.9245283018868,285.53846153846155L56.60377358490567,277.33333333333337L45.283018867924525,288.62745098039215L33.9622641509434,287.10280373831773L22.641509433962263,295.61904761904765L11.320754716981131,293.3333333333333L0,285.9574468085106Z" style="fill: #b279a2;"></path></g></g><path class="foreground" d="" style="display: none; fill: none;"></path></g><g transform="translate(0,0)"><path class="background" d="M0,0h600v320h-600Z" style="fill: none;"></path><g><g class="mark-area role-mark marks"><path d="M0,285.9574468085106L11.320754716981131,293.3333333333333L22.641509433962263,295.61904761904765L33.9622641509434,287.10280373831773L45.283018867924525,288.62745098039215L56.60377358490567,277.33333333333337L67.9245283018868,285.53846153846155L79.24528301886792,293.7704918032787L90.56603773584905,283.0769230769231L101.88679245283018,266.6666666666667L113.20754716981133,275.86206896551727L124.52830188679246,276.6101694915254L135.8490566037736,278.0327868852459L147.16981132075472,288L158.49056603773585,292L169.81132075471697,282.1818181818182L181.1320754716981,283.42857142857144L192.45283018867923,284.44444444444446L203.77358490566036,283.68794326241135L215.09433962264148,283.1654676258993L226.41509433962267,281.2121212121212L237.7358490566038,275.8620689655172L249.05660377358492,277.0731707317073L260.37735849056605,261.8181818181818L271.6981132075472,254.54545454545453L283.0188679245283,270.3448275862069L294.33962264150944,259.71014492753625L305.66037735849056,259.4594594594595L316.9811320754717,262.22222222222223L328.3018867924528,261.05263157894734L339.62264150943395,260L350.9433962264151,260L362.2641509433962,277.7358490566038L373.58490566037733,269.0909090909091L384.90566037735846,262.56410256410254L396.2264150943396,277.33333333333337L407.5471698113207,277.33333333333337L418.86792452830184,282.8985507246377L430.18867924528297,288.39506172839504L441.5094339622641,274.2857142857143L452.83018867924534,284.44444444444446L464.15094339622647,277.5221238938053L475.4716981132076,281.6L486.7924528301887,278.13084112149534L498.11320754716985,273.84615384615387L509.433962264151,268.38709677419354L520.7547169811321,274.2857142857143L532.0754716981132,278.7096774193548L543.3962264150944,297.14285714285717L554.7169811320755,270.4225352112676L566.0377358490566,273.5483870967742L577.3584905660377,259.04761904761904L588.6792452830189,265.9154929577465L600,263.7362637362637L600,281.31868131868134L588.6792452830189,279.4366197183099L577.3584905660377,274.28571428571433L566.0377358490566,289.0322580645161L554.7169811320755,292.9577464788732L543.3962264150944,314.2857142857143L532.0754716981132,306.23655913978496L520.7547169811321,304.76190476190476L509.433962264151,302.7956989247312L498.11320754716985,304.61538461538464L486.7924528301887,308.03738317757006L475.4716981132076,307.2L464.15094339622647,305.8407079646018L452.83018867924534,312.0987654320988L441.5094339622641,305.9340659340659L430.18867924528297,312.0987654320988L418.86792452830184,310.72463768115944L407.5471698113207,304L396.2264150943396,298.6666666666667L384.90566037735846,287.1794871794872L373.58490566037733,290.90909090909093L362.2641509433962,301.8867924528302L350.9433962264151,290L339.62264150943395,290L328.3018867924528,294.7368421052631L316.9811320754717,297.77777777777777L305.66037735849056,298.3783783783784L294.33962264150944,296.81159420289856L283.0188679245283,303.44827586206895L271.6981132075472,283.6363636363636L260.37735849056605,290.9090909090909L249.05660377358492,304.390243902439L237.7358490566038,306.2068965517241L226.41509433962267,303.03030303030306L215.09433962264148,303.8848920863309L203.77358490566036,301.8439716312057L192.45283018867923,302.22222222222223L181.1320754716981,299.42857142857144L169.81132075471697,302.54545454545456L158.49056603773585,304L147.16981132075472,304L135.8490566037736,304.2622950819672L124.52830188679246,303.728813559322L113.20754716981133,303.44827586206895L101.88679245283018,296.2962962962963L90.56603773584905,295.3846153846154L79.24528301886792,304.26229508196724L67.9245283018868,295.3846153846154L56.60377358490567,288L45.283018867924525,298.03921568627453L33.9622641509434,299.06542056074767L22.641509433962263,307.8095238095238L11.320754716981131,310L0,302.97872340425533Z" style="fill: #ff9da6;"></path></g></g><path class="foreground" d="" style="display: none; fill: none;"></path></g><g transform="translate(0,0)"><path class="background" d="M0,0h600v320h-600Z" style="fill: none;"></path><g><g class="mark-area role-mark marks"><path d="M0,302.97872340425533L11.320754716981131,310L22.641509433962263,307.8095238095238L33.9622641509434,299.06542056074767L45.283018867924525,298.03921568627453L56.60377358490567,288L67.9245283018868,295.3846153846154L79.24528301886792,304.26229508196724L90.56603773584905,295.3846153846154L101.88679245283018,296.2962962962963L113.20754716981133,303.44827586206895L124.52830188679246,303.728813559322L135.8490566037736,304.2622950819672L147.16981132075472,304L158.49056603773585,304L169.81132075471697,302.54545454545456L181.1320754716981,299.42857142857144L192.45283018867923,302.22222222222223L203.77358490566036,301.8439716312057L215.09433962264148,303.8848920863309L226.41509433962267,303.03030303030306L237.7358490566038,306.2068965517241L249.05660377358492,304.390243902439L260.37735849056605,290.9090909090909L271.6981132075472,283.6363636363636L283.0188679245283,303.44827586206895L294.33962264150944,296.81159420289856L305.66037735849056,298.3783783783784L316.9811320754717,297.77777777777777L328.3018867924528,294.7368421052631L339.62264150943395,290L350.9433962264151,290L362.2641509433962,301.8867924528302L373.58490566037733,290.90909090909093L384.90566037735846,287.1794871794872L396.2264150943396,298.6666666666667L407.5471698113207,304L418.86792452830184,310.72463768115944L430.18867924528297,312.0987654320988L441.5094339622641,305.9340659340659L452.83018867924534,312.0987654320988L464.15094339622647,305.8407079646018L475.4716981132076,307.2L486.7924528301887,308.03738317757006L498.11320754716985,304.61538461538464L509.433962264151,302.7956989247312L520.7547169811321,304.76190476190476L532.0754716981132,306.23655913978496L543.3962264150944,314.2857142857143L554.7169811320755,292.9577464788732L566.0377358490566,289.0322580645161L577.3584905660377,274.28571428571433L588.6792452830189,279.4366197183099L600,281.31868131868134L600,309.45054945054943L588.6792452830189,310.98591549295776L577.3584905660377,309.8412698412698L566.0377358490566,304.51612903225805L554.7169811320755,306.47887323943667L543.3962264150944,314.2857142857143L532.0754716981132,309.6774193548387L520.7547169811321,308.57142857142856L509.433962264151,306.23655913978496L498.11320754716985,307.6923076923077L486.7924528301887,311.02803738317755L475.4716981132076,310.4L464.15094339622647,308.6725663716814L452.83018867924534,312.0987654320988L441.5094339622641,309.45054945054943L430.18867924528297,316.04938271604937L418.86792452830184,315.36231884057975L407.5471698113207,309.3333333333333L396.2264150943396,309.3333333333333L384.90566037735846,311.79487179487177L373.58490566037733,312.72727272727275L362.2641509433962,313.9622641509434L350.9433962264151,310L339.62264150943395,310L328.3018867924528,311.57894736842104L316.9811320754717,311.1111111111111L305.66037735849056,307.02702702702703L294.33962264150944,306.0869565217391L283.0188679245283,308.9655172413793L271.6981132075472,283.6363636363636L260.37735849056605,290.9090909090909L249.05660377358492,308.29268292682923L237.7358490566038,308.9655172413793L226.41509433962267,303.03030303030306L215.09433962264148,303.8848920863309L203.77358490566036,304.11347517730496L192.45283018867923,302.22222222222223L181.1320754716981,299.42857142857144L169.81132075471697,305.4545454545455L158.49056603773585,304L147.16981132075472,309.3333333333333L135.8490566037736,309.5081967213115L124.52830188679246,309.1525423728813L113.20754716981133,308.9655172413793L101.88679245283018,314.0740740740741L90.56603773584905,320L79.24528301886792,320L67.9245283018868,315.0769230769231L56.60377358490567,309.3333333333333L45.283018867924525,316.8627450980392L33.9622641509434,317.0093457943925L22.641509433962263,320L11.320754716981131,320L0,316.59574468085106Z" style="fill: #4c78a8;"></path></g></g><path class="foreground" d="" style="display: none; fill: none;"></path></g><g transform="translate(0,0)"><path class="background" d="M0,0h600v320h-600Z" style="fill: none;"></path><g><g class="mark-area role-mark marks"><path d="M0,316.59574468085106L11.320754716981131,320L22.641509433962263,320L33.9622641509434,317.0093457943925L45.283018867924525,316.8627450980392L56.60377358490567,314.66666666666663L67.9245283018868,315.0769230769231L79.24528301886792,320L90.56603773584905,320L101.88679245283018,314.0740740740741L113.20754716981133,308.9655172413793L124.52830188679246,309.1525423728813L135.8490566037736,309.5081967213115L147.16981132075472,309.3333333333333L158.49056603773585,304L169.81132075471697,305.4545454545455L181.1320754716981,308.57142857142856L192.45283018867923,311.1111111111111L203.77358490566036,310.92198581560285L215.09433962264148,310.7913669064748L226.41509433962267,310.3030303030303L237.7358490566038,314.48275862068965L249.05660377358492,316.0975609756098L260.37735849056605,314.1818181818182L271.6981132075472,312.72727272727275L283.0188679245283,314.48275862068965L294.33962264150944,310.72463768115944L305.66037735849056,311.35135135135135L316.9811320754717,315.55555555555554L328.3018867924528,315.7894736842105L339.62264150943395,315L350.9433962264151,315L362.2641509433962,313.9622641509434L373.58490566037733,320L384.90566037735846,320L396.2264150943396,309.3333333333333L407.5471698113207,309.3333333333333L418.86792452830184,315.36231884057975L430.18867924528297,316.04938271604937L441.5094339622641,312.96703296703294L452.83018867924534,312.0987654320988L464.15094339622647,308.6725663716814L475.4716981132076,310.4L486.7924528301887,314.01869158878503L498.11320754716985,313.8461538461538L509.433962264151,313.1182795698925L520.7547169811321,316.1904761904762L532.0754716981132,313.1182795698925L543.3962264150944,320L554.7169811320755,315.49295774647885L566.0377358490566,309.6774193548387L577.3584905660377,309.8412698412698L588.6792452830189,310.98591549295776L600,312.96703296703294L600,320L588.6792452830189,320L577.3584905660377,320L566.0377358490566,320L554.7169811320755,320L543.3962264150944,320L532.0754716981132,320L520.7547169811321,320L509.433962264151,320L498.11320754716985,320L486.7924528301887,320L475.4716981132076,320L464.15094339622647,320L452.83018867924534,320L441.5094339622641,320L430.18867924528297,320L418.86792452830184,320L407.5471698113207,320L396.2264150943396,320L384.90566037735846,320L373.58490566037733,320L362.2641509433962,320L350.9433962264151,320L339.62264150943395,320L328.3018867924528,320L316.9811320754717,320L305.66037735849056,320L294.33962264150944,320L283.0188679245283,320L271.6981132075472,320L260.37735849056605,320L249.05660377358492,320L237.7358490566038,320L226.41509433962267,320L215.09433962264148,320L203.77358490566036,320L192.45283018867923,320L181.1320754716981,320L169.81132075471697,320L158.49056603773585,320L147.16981132075472,320L135.8490566037736,320L124.52830188679246,320L113.20754716981133,320L101.88679245283018,320L90.56603773584905,320L79.24528301886792,320L67.9245283018868,320L56.60377358490567,320L45.283018867924525,320L33.9622641509434,320L22.641509433962263,320L11.320754716981131,320L0,320Z" style="fill: #9d755d;"></path></g></g><path class="foreground" d="" style="display: none; fill: none;"></path></g><g transform="translate(0,0)"><path class="background" d="M0,0h600v320h-600Z" style="fill: none;"></path><g><g class="mark-area role-mark marks"><path d="M0,316.59574468085106L11.320754716981131,320L22.641509433962263,320L33.9622641509434,317.0093457943925L45.283018867924525,316.8627450980392L56.60377358490567,309.3333333333333L67.9245283018868,315.0769230769231L79.24528301886792,320L90.56603773584905,320L101.88679245283018,314.0740740740741L113.20754716981133,308.9655172413793L124.52830188679246,309.1525423728813L135.8490566037736,309.5081967213115L147.16981132075472,309.3333333333333L158.49056603773585,304L169.81132075471697,305.4545454545455L181.1320754716981,299.42857142857144L192.45283018867923,302.22222222222223L203.77358490566036,304.11347517730496L215.09433962264148,303.8848920863309L226.41509433962267,303.03030303030306L237.7358490566038,308.9655172413793L249.05660377358492,308.29268292682923L260.37735849056605,290.9090909090909L271.6981132075472,283.6363636363636L283.0188679245283,308.9655172413793L294.33962264150944,306.0869565217391L305.66037735849056,307.02702702702703L316.9811320754717,311.1111111111111L328.3018867924528,311.57894736842104L339.62264150943395,310L350.9433962264151,310L362.2641509433962,313.9622641509434L373.58490566037733,312.72727272727275L384.90566037735846,311.79487179487177L396.2264150943396,309.3333333333333L407.5471698113207,309.3333333333333L418.86792452830184,315.36231884057975L430.18867924528297,316.04938271604937L441.5094339622641,309.45054945054943L452.83018867924534,312.0987654320988L464.15094339622647,308.6725663716814L475.4716981132076,310.4L486.7924528301887,311.02803738317755L498.11320754716985,307.6923076923077L509.433962264151,306.23655913978496L520.7547169811321,308.57142857142856L532.0754716981132,309.6774193548387L543.3962264150944,314.2857142857143L554.7169811320755,306.47887323943667L566.0377358490566,304.51612903225805L577.3584905660377,309.8412698412698L588.6792452830189,310.98591549295776L600,309.45054945054943L600,312.96703296703294L588.6792452830189,310.98591549295776L577.3584905660377,309.8412698412698L566.0377358490566,309.6774193548387L554.7169811320755,315.49295774647885L543.3962264150944,320L532.0754716981132,313.1182795698925L520.7547169811321,316.1904761904762L509.433962264151,313.1182795698925L498.11320754716985,313.8461538461538L486.7924528301887,314.01869158878503L475.4716981132076,310.4L464.15094339622647,308.6725663716814L452.83018867924534,312.0987654320988L441.5094339622641,312.96703296703294L430.18867924528297,316.04938271604937L418.86792452830184,315.36231884057975L407.5471698113207,309.3333333333333L396.2264150943396,309.3333333333333L384.90566037735846,320L373.58490566037733,320L362.2641509433962,313.9622641509434L350.9433962264151,315L339.62264150943395,315L328.3018867924528,315.7894736842105L316.9811320754717,315.55555555555554L305.66037735849056,311.35135135135135L294.33962264150944,310.72463768115944L283.0188679245283,314.48275862068965L271.6981132075472,312.72727272727275L260.37735849056605,314.1818181818182L249.05660377358492,316.0975609756098L237.7358490566038,314.48275862068965L226.41509433962267,310.3030303030303L215.09433962264148,310.7913669064748L203.77358490566036,310.92198581560285L192.45283018867923,311.1111111111111L181.1320754716981,308.57142857142856L169.81132075471697,305.4545454545455L158.49056603773585,304L147.16981132075472,309.3333333333333L135.8490566037736,309.5081967213115L124.52830188679246,309.1525423728813L113.20754716981133,308.9655172413793L101.88679245283018,314.0740740740741L90.56603773584905,320L79.24528301886792,320L67.9245283018868,315.0769230769231L56.60377358490567,314.66666666666663L45.283018867924525,316.8627450980392L33.9622641509434,317.0093457943925L22.641509433962263,320L11.320754716981131,320L0,316.59574468085106Z" style="fill: #bab0ac;"></path></g></g><path class="foreground" d="" style="display: none; fill: none;"></path></g></g><g class="mark-group role-legend"><g transform="translate(0,-68)"><path class="background" d="M0,0h359v49h-359Z" style="pointer-events: none; fill: none;"></path><g><g class="mark-group role-legend-entry"><g transform="translate(0,19)"><path class="background" d="M0,0h0v0h0Z" style="pointer-events: none; fill: none;"></path><g><g class="mark-group role-scope"><g transform="translate(0,0)"><path class="background" d="M0,0h53.806640625v14h-53.806640625Z" style="pointer-events: none; fill: none; opacity: 1;"></path><g><g class="mark-symbol role-legend-symbol" style="pointer-events: none;"><path transform="translate(7,7)" d="M5,0A5,5,0,1,1,-5,0A5,5,0,1,1,5,0" style="fill: #4c78a8; stroke-width: 1.5; opacity: 1;"></path></g><g class="mark-text role-legend-label" style="pointer-events: none;"><text text-anchor="start" transform="translate(18,11)" style="font-family: sans-serif; font-size: 14px; fill: #000; opacity: 1;">&lt; 10</text></g></g><path class="foreground" d="" style="pointer-events: none; display: none; fill: none;"></path></g><g transform="translate(64,0)"><path class="background" d="M0,0h53.806640625v14h-53.806640625Z" style="pointer-events: none; fill: none; opacity: 1;"></path><g><g class="mark-symbol role-legend-symbol" style="pointer-events: none;"><path transform="translate(7,7)" d="M5,0A5,5,0,1,1,-5,0A5,5,0,1,1,5,0" style="fill: #f58518; stroke-width: 1.5; opacity: 1;"></path></g><g class="mark-text role-legend-label" style="pointer-events: none;"><text text-anchor="start" transform="translate(18,11)" style="font-family: sans-serif; font-size: 14px; fill: #000; opacity: 1;">10-19</text></g></g><path class="foreground" d="" style="pointer-events: none; display: none; fill: none;"></path></g><g transform="translate(128,0)"><path class="background" d="M0,0h53.806640625v14h-53.806640625Z" style="pointer-events: none; fill: none; opacity: 1;"></path><g><g class="mark-symbol role-legend-symbol" style="pointer-events: none;"><path transform="translate(7,7)" d="M5,0A5,5,0,1,1,-5,0A5,5,0,1,1,5,0" style="fill: #e45756; stroke-width: 1.5; opacity: 1;"></path></g><g class="mark-text role-legend-label" style="pointer-events: none;"><text text-anchor="start" transform="translate(18,11)" style="font-family: sans-serif; font-size: 14px; fill: #000; opacity: 1;">20-29</text></g></g><path class="foreground" d="" style="pointer-events: none; display: none; fill: none;"></path></g><g transform="translate(192,0)"><path class="background" d="M0,0h53.806640625v14h-53.806640625Z" style="pointer-events: none; fill: none; opacity: 1;"></path><g><g class="mark-symbol role-legend-symbol" style="pointer-events: none;"><path transform="translate(7,7)" d="M5,0A5,5,0,1,1,-5,0A5,5,0,1,1,5,0" style="fill: #72b7b2; stroke-width: 1.5; opacity: 1;"></path></g><g class="mark-text role-legend-label" style="pointer-events: none;"><text text-anchor="start" transform="translate(18,11)" style="font-family: sans-serif; font-size: 14px; fill: #000; opacity: 1;">30-39</text></g></g><path class="foreground" d="" style="pointer-events: none; display: none; fill: none;"></path></g><g transform="translate(256,0)"><path class="background" d="M0,0h102.833984375v14h-102.833984375Z" style="pointer-events: none; fill: none; opacity: 1;"></path><g><g class="mark-symbol role-legend-symbol" style="pointer-events: none;"><path transform="translate(7,7)" d="M5,0A5,5,0,1,1,-5,0A5,5,0,1,1,5,0" style="fill: #54a24b; stroke-width: 1.5; opacity: 1;"></path></g><g class="mark-text role-legend-label" style="pointer-events: none;"><text text-anchor="start" transform="translate(18,11)" style="font-family: sans-serif; font-size: 14px; fill: #000; opacity: 1;">40-49</text></g></g><path class="foreground" d="" style="pointer-events: none; display: none; fill: none;"></path></g><g transform="translate(0,16)"><path class="background" d="M0,0h53.806640625v14h-53.806640625Z" style="pointer-events: none; fill: none; opacity: 1;"></path><g><g class="mark-symbol role-legend-symbol" style="pointer-events: none;"><path transform="translate(7,7)" d="M5,0A5,5,0,1,1,-5,0A5,5,0,1,1,5,0" style="fill: #eeca3b; stroke-width: 1.5; opacity: 1;"></path></g><g class="mark-text role-legend-label" style="pointer-events: none;"><text text-anchor="start" transform="translate(18,11)" style="font-family: sans-serif; font-size: 14px; fill: #000; opacity: 1;">50-59</text></g></g><path class="foreground" d="" style="pointer-events: none; display: none; fill: none;"></path></g><g transform="translate(64,16)"><path class="background" d="M0,0h53.806640625v14h-53.806640625Z" style="pointer-events: none; fill: none; opacity: 1;"></path><g><g class="mark-symbol role-legend-symbol" style="pointer-events: none;"><path transform="translate(7,7)" d="M5,0A5,5,0,1,1,-5,0A5,5,0,1,1,5,0" style="fill: #b279a2; stroke-width: 1.5; opacity: 1;"></path></g><g class="mark-text role-legend-label" style="pointer-events: none;"><text text-anchor="start" transform="translate(18,11)" style="font-family: sans-serif; font-size: 14px; fill: #000; opacity: 1;">60-69</text></g></g><path class="foreground" d="" style="pointer-events: none; display: none; fill: none;"></path></g><g transform="translate(128,16)"><path class="background" d="M0,0h53.806640625v14h-53.806640625Z" style="pointer-events: none; fill: none; opacity: 1;"></path><g><g class="mark-symbol role-legend-symbol" style="pointer-events: none;"><path transform="translate(7,7)" d="M5,0A5,5,0,1,1,-5,0A5,5,0,1,1,5,0" style="fill: #ff9da6; stroke-width: 1.5; opacity: 1;"></path></g><g class="mark-text role-legend-label" style="pointer-events: none;"><text text-anchor="start" transform="translate(18,11)" style="font-family: sans-serif; font-size: 14px; fill: #000; opacity: 1;">70-79</text></g></g><path class="foreground" d="" style="pointer-events: none; display: none; fill: none;"></path></g><g transform="translate(192,16)"><path class="background" d="M0,0h53.806640625v14h-53.806640625Z" style="pointer-events: none; fill: none; opacity: 1;"></path><g><g class="mark-symbol role-legend-symbol" style="pointer-events: none;"><path transform="translate(7,7)" d="M5,0A5,5,0,1,1,-5,0A5,5,0,1,1,5,0" style="fill: #9d755d; stroke-width: 1.5; opacity: 1;"></path></g><g class="mark-text role-legend-label" style="pointer-events: none;"><text text-anchor="start" transform="translate(18,11)" style="font-family: sans-serif; font-size: 14px; fill: #000; opacity: 1;">≥ 80</text></g></g><path class="foreground" d="" style="pointer-events: none; display: none; fill: none;"></path></g><g transform="translate(256,16)"><path class="background" d="M0,0h102.833984375v14h-102.833984375Z" style="pointer-events: none; fill: none; opacity: 1;"></path><g><g class="mark-symbol role-legend-symbol" style="pointer-events: none;"><path transform="translate(7,7)" d="M5,0A5,5,0,1,1,-5,0A5,5,0,1,1,5,0" style="fill: #bab0ac; stroke-width: 1.5; opacity: 1;"></path></g><g class="mark-text role-legend-label" style="pointer-events: none;"><text text-anchor="start" transform="translate(18,11)" style="font-family: sans-serif; font-size: 14px; fill: #000; opacity: 1;">No disponible</text></g></g><path class="foreground" d="" style="pointer-events: none; display: none; fill: none;"></path></g></g></g><path class="foreground" d="" style="pointer-events: none; display: none; fill: none;"></path></g></g><g class="mark-text role-legend-title" style="pointer-events: none;"><text text-anchor="start" transform="translate(0,11)" style="font-family: sans-serif; font-size: 14px; font-weight: bold; fill: #000; opacity: 1;">Edad</text></g></g><path class="foreground" d="" style="pointer-events: none; display: none; fill: none;"></path></g></g></g><path class="foreground" d="" style="display: none; fill: none;"></path></g></g></g></svg>