<svg class="marks" width="634" height="400" viewBox="0 0 634 400" version="1.1" xmlns="http://www.w3.org/2000/svg" xmlns:xlink="http://www.w3.org/1999/xlink"><rect width="634" height="400" style="fill: white;"></rect><g transform="translate(54,56)"><g class="mark-group role-frame root"><g transform="translate(0,0)"><path class="background" d="M0.5,0.5h575v300h-575Z" style="fill: none; stroke: #ddd;"></path><g><g class="mark-group role-axis"><g transform="translate(0.5,300.5)"><path class="background" d="M0,0h0v0h0Z" style="pointer-events: none; fill: none;"></path><g><g class="mark-rule role-axis-grid" style="pointer-events: none;"><line transform="translate(7,-300)" x2="0" y2="300" style="fill: none; stroke: #ddd; stroke-width: 1; opacity: 1;"></line><line transform="translate(56,-300)" x2="0" y2="300" style="fill: none; stroke: #ddd; stroke-width: 1; opacity: 1;"></line><line transform="translate(105,-300)" x2="0" y2="300" style="fill: none; stroke: #ddd; stroke-width: 1; opacity: 1;"></line><line transform="translate(154,-300)" x2="0" y2="300" style="fill: none; stroke: #ddd; stroke-width: 1; opacity: 1;"></line><line transform="translate(203,-300)" x2="0" y2="300" style="fill: none; stroke: #ddd; stroke-width: 1; opacity: 1;"></line><line transform="translate(252,-300)" x2="0" y2="300" style="fill: none; stroke: #ddd; stroke-width: 1; opacity: 1;"></line><line transform="translate(302,-300)" x2="0" y2="300" style="fill: none; stroke: #ddd; stroke-width: 1; opacity: 1;"></line><line transform="translate(351,-300)" x2="0" y2="300" style="fill: none; stroke: #ddd; stroke-width: 1; opacity: 1;"></line><line transform="translate(400,-300)" x2="0" y2="300" style="fill: none; stroke: #ddd; stroke-width: 1; opacity: 1;"></line><line transform="translate(449,-300)" x2="0" y2="300" style="fill: none; stroke: #ddd; stroke-width: 1; opacity: 1;"></line><line transform="translate(498,-300)" x2="0" y2="300" style="fill: none; stroke: #ddd; stroke-width: 1; opacity: 1;"></line><line transform="translate(547,-300)" x2="0" y2="300" style="fill: none; stroke: #ddd; stroke-width: 1; opacity: 1;"></line></g></g><path class="foreground" d="" style="pointer-events: none; display: none; fill: none;"></path></g></g><g class="mark-group role-axis"><g transform="translate(0.5,0.5)"><path class="background" d="M0,0h0v0h0Z" style="pointer-events: none; fill: none;"></path><g><g class="mark-rule role-axis-grid" style="pointer-events: none;"><line transform="translate(0,300)" x2="575" y2="0" style="fill: none; stroke: #ddd; stroke-width: 1; opacity: 1;"></line><line transform="translate(0,273)" x2="575" y2="0" style="fill: none; stroke: #ddd; stroke-width: 1; opacity: 1;"></line><line transform="translate(0,245)" x2="575" y2="0" style="fill: none; stroke: #ddd; stroke-width: 1; opacity: 1;"></line><line transform="translate(0,218)" x2="575" y2="0" style="fill: none; stroke: #ddd; stroke-width: 1; opacity: 1;"></line><line transform="translate(0,191)" x2="575" y2="0" style="fill: none; stroke: #ddd; stroke-width: 1; opacity: 1;"></line><line transform="translate(0,164)" x2="575" y2="0" style="fill: none; stroke: #ddd; stroke-width: 1; opacity: 1;"></line><line transform="translate(0,136)" x2="575" y2="0" style="fill: none; stroke: #ddd; stroke-width: 1; opacity: 1;"></line><line transform="translate(0,109)" x2="575" y2="0" style="fill: none; stroke: #ddd; stroke-width: 1; opacity: 1;"></line><line transform="translate(0,82)" x2="575" y2="0" style="fill: none; stroke: #ddd; stroke-width: 1; opacity: 1;"></line><line transform="translate(0,55)" x2="575" y2="0" style="fill: none; stroke: #ddd; stroke-width: 1; opacity: 1;"></line><line transform="translate(0,27)" x2="575" y2="0" style="fill: none; stroke: #ddd; stroke-width: 1; opacity: 1;"></line><line transform="translate(0,0)" x2="575" y2="0" style="fill: none; stroke: #ddd; stroke-width: 1; opacity: 1;"></line></g></g><path class="foreground" d="" style="pointer-events: none; display: none; fill: none;"></path></g></g><g class="mark-group role-axis"><g transform="translate(0.5,300.5)"><path class="background" d="M0,0h0v0h0Z" style="pointer-events: none; fill: none;"></path><g><g class="mark-rule role-axis-tick" style="pointer-events: none;"><line transform="translate(7,0)" x2="0" y2="5" style="fill: none; stroke: #888; stroke-width: 1; opacity: 1;"></line><line transform="translate(56,0)" x2="0" y2="5" style="fill: none; stroke: #888; stroke-width: 1; opacity: 1;"></line><line transform="translate(105,0)" x2="0" y2="5" style="fill: none; stroke: #888; stroke-width: 1; opacity: 1;"></line><line transform="translate(154,0)" x2="0" y2="5" style="fill: none; stroke: #888; stroke-width: 1; opacity: 1;"></line><line transform="translate(203,0)" x2="0" y2="5" style="fill: none; stroke: #888; stroke-width: 1; opacity: 1;"></line><line transform="translate(252,0)" x2="0" y2="5" style="fill: none; stroke: #888; stroke-width: 1; opacity: 1;"></line><line transform="translate(302,0)" x2="0" y2="5" style="fill: none; stroke: #888; stroke-width: 1; opacity: 1;"></line><line transform="translate(351,0)" x2="0" y2="5" style="fill: none; stroke: #888; stroke-width: 1; opacity: 1;"></line><line transform="translate(400,0)" x2="0" y2="5" style="fill: none; stroke: #888; stroke-width: 1; opacity: 1;"></line><line transform="translate(449,0)" x2="0" y2="5" style="fill: none; stroke: #888; stroke-width: 1; opacity: 1;"></line><line transform="translate(498,0)" x2="0" y2="5" style="fill: none; stroke: #888; stroke-width: 1; opacity: 1;"></line><line transform="translate(547,0)" x2="0" y2="5" style="fill: none; stroke: #888; stroke-width: 1; opacity: 1;"></line></g><g class="mark-text role-axis-label" style="pointer-events: none;"><text text-anchor="middle" transform="translate(7.01219512195122,18)" style="font-family: sans-serif; font-size: 14px; fill: #000; opacity: 1;">abr 19</text><text text-anchor="middle" transform="translate(56.09756097560976,18)" style="font-family: sans-serif; font-size: 14px; fill: #000; opacity: 1;">abr 26</text><text text-anchor="middle" transform="translate(105.1829268292683,18)" style="font-family: sans-serif; font-size: 14px; fill: #000; opacity: 1;">may 03</text><text text-anchor="middle" transform="translate(154.26829268292684,18)" style="font-family: sans-serif; font-size: 14px; fill: #000; opacity: 1;">may 10</text><text text-anchor="middle" transform="translate(203.35365853658536,18)" style="font-family: sans-serif; font-size: 14px; fill: #000; opacity: 1;">may 17</text><text text-anchor="middle" transform="translate(252.4390243902439,18)" style="font-family: sans-serif; font-size: 14px; fill: #000; opacity: 1;">may 24</text><text text-anchor="middle" transform="translate(301.5243902439025,18)" style="font-family: sans-serif; font-size: 14px; fill: #000; opacity: 1;">may 31</text><text text-anchor="middle" transform="translate(350.609756097561,18)" style="font-family: sans-serif; font-size: 14px; fill: #000; opacity: 1;">jun 07</text><text text-anchor="middle" transform="translate(399.6951219512195,18)" style="font-family: sans-serif; font-size: 14px; fill: #000; opacity: 1;">jun 14</text><text text-anchor="middle" transform="translate(448.7804878048781,18)" style="font-family: sans-serif; font-size: 14px; fill: #000; opacity: 1;">jun 21</text><text text-anchor="middle" transform="translate(497.8658536585366,18)" style="font-family: sans-serif; font-size: 14px; fill: #000; opacity: 1;">jun 28</text><text text-anchor="middle" transform="translate(546.951219512195,18)" style="font-family: sans-serif; font-size: 14px; fill: #000; opacity: 1;">jul 05</text></g><g class="mark-rule role-axis-domain" style="pointer-events: none;"><line transform="translate(0,0)" x2="575" y2="0" style="fill: none; stroke: #888; stroke-width: 1; opacity: 1;"></line></g><g class="mark-text role-axis-title" style="pointer-events: none;"><text text-anchor="middle" transform="translate(287.5,36)" style="font-family: sans-serif; font-size: 14px; font-weight: bold; fill: #000; opacity: 1;">Fecha</text></g></g><path class="foreground" d="" style="pointer-events: none; display: none; fill: none;"></path></g></g><g class="mark-group role-axis"><g transform="translate(0.5,0.5)"><path class="background" d="M0,0h0v0h0Z" style="pointer-events: none; fill: none;"></path><g><g class="mark-rule role-axis-tick" style="pointer-events: none;"><line transform="translate(0,300)" x2="-5" y2="0" style="fill: none; stroke: #888; stroke-width: 1; opacity: 1;"></line><line transform="translate(0,273)" x2="-5" y2="0" style="fill: none; stroke: #888; stroke-width: 1; opacity: 1;"></line><line transform="translate(0,245)" x2="-5" y2="0" style="fill: none; stroke: #888; stroke-width: 1; opacity: 1;"></line><line transform="translate(0,218)" x2="-5" y2="0" style="fill: none; stroke: #888; stroke-width: 1; opacity: 1;"></line><line transform="translate(0,191)" x2="-5" y2="0" style="fill: none; stroke: #888; stroke-width: 1; opacity: 1;"></line><line transform="translate(0,164)" x2="-5" y2="0" style="fill: none; stroke: #888; stroke-width: 1; opacity: 1;"></line><line transform="translate(0,136)" x2="-5" y2="0" style="fill: none; stroke: #888; stroke-width: 1; opacity: 1;"></line><line transform="translate(0,109)" x2="-5" y2="0" style="fill: none; stroke: #888; stroke-width: 1; opacity: 1;"></line><line transform="translate(0,82)" x2="-5" y2="0" style="fill: none; stroke: #888; stroke-width: 1; opacity: 1;"></line><line transform="translate(0,55)" x2="-5" y2="0" style="fill: none; stroke: #888; stroke-width: 1; opacity: 1;"></line><line transform="translate(0,27)" x2="-5" y2="0" style="fill: none; stroke: #888; stroke-width: 1; opacity: 1;"></line><line transform="translate(0,0)" x2="-5" y2="0" style="fill: none; stroke: #888; stroke-width: 1; opacity: 1;"></line></g><g class="mark-text role-axis-label" style="pointer-events: none;"><text text-anchor="end" transform="translate(-7,304)" style="font-family: sans-serif; font-size: 14px; fill: #000; opacity: 1;">0</text><text text-anchor="end" transform="translate(-7,276.7272727272727)" style="font-family: sans-serif; font-size: 14px; fill: #000; opacity: 1;">20</text><text text-anchor="end" transform="translate(-7,249.45454545454544)" style="font-family: sans-serif; font-size: 14px; fill: #000; opacity: 1;">40</text><text text-anchor="end" transform="translate(-7,222.1818181818182)" style="font-family: sans-serif; font-size: 14px; fill: #000; opacity: 1;">60</text><text text-anchor="end" transform="translate(-7,194.9090909090909)" style="font-family: sans-serif; font-size: 14px; fill: #000; opacity: 1;">80</text><text text-anchor="end" transform="translate(-7,167.63636363636363)" style="font-family: sans-serif; font-size: 14px; fill: #000; opacity: 1;">100</text><text text-anchor="end" transform="translate(-7,140.36363636363637)" style="font-family: sans-serif; font-size: 14px; fill: #000; opacity: 1;">120</text><text text-anchor="end" transform="translate(-7,113.0909090909091)" style="font-family: sans-serif; font-size: 14px; fill: #000; opacity: 1;">140</text><text text-anchor="end" transform="translate(-7,85.81818181818181)" style="font-family: sans-serif; font-size: 14px; fill: #000; opacity: 1;">160</text><text text-anchor="end" transform="translate(-7,58.54545454545453)" style="font-family: sans-serif; font-size: 14px; fill: #000; opacity: 1;">180</text><text text-anchor="end" transform="translate(-7,31.27272727272728)" style="font-family: sans-serif; font-size: 14px; fill: #000; opacity: 1;">200</text><text text-anchor="end" transform="translate(-7,4)" style="font-family: sans-serif; font-size: 14px; fill: #000; opacity: 1;">220</text></g><g class="mark-rule role-axis-domain" style="pointer-events: none;"><line transform="translate(0,300)" x2="0" y2="-300" style="fill: none; stroke: #888; stroke-width: 1; opacity: 1;"></line></g><g class="mark-text role-axis-title" style="pointer-events: none;"><text text-anchor="middle" transform="translate(-34.3583984375,150) rotate(-90) translate(0,-3)" style="font-family: sans-serif; font-size: 14px; font-weight: bold; fill: #000; opacity: 1;">Hospitalizados</text></g></g><path class="foreground" d="" style="pointer-events: none; display: none; fill: none;"></path></g></g><g class="mark-area role-mark layer_0_marks"><path d="M0,75L7.01219512195122,81.81818181818181L14.02439024390244,94.09090909090908L21.036585365853657,140.45454545454544L28.04878048780488,109.0909090909091L35.0609756097561,90.00000000000001L42.073170731707314,65.45454545454544L49.08536585365854,113.1818181818182L56.09756097560976,100.90909090909089L63.109756097560975,109.0909090909091L70.1219512195122,120L77.13414634146342,129.54545454545453L84.14634146341463,25.909090909090892L91.15853658536585,27.27272727272728L98.17073170731707,45.00000000000001L105.1829268292683,66.81818181818183L112.19512195121952,92.72727272727272L119.20731707317073,109.0909090909091L126.21951219512195,103.63636363636364L133.2317073170732,76.36363636363636L140.2439024390244,80.45454545454545L147.2560975609756,98.18181818181819L154.26829268292684,105L161.28048780487808,83.18181818181817L168.29268292682926,126.81818181818181L175.3048780487805,106.36363636363635L182.3170731707317,83.18181818181817L189.32926829268294,99.54545454545453L196.34146341463415,103.63636363636364L203.35365853658536,95.45454545454547L210.3658536585366,99.54545454545453L217.3780487804878,135L224.39024390243904,150L231.40243902439025,144.54545454545453L238.41463414634146,169.09090909090912L245.42682926829266,155.45454545454547L252.4390243902439,155.45454545454547L259.4512195121951,147.27272727272728L266.4634146341464,158.1818181818182L273.4756097560975,156.8181818181818L280.4878048780488,136.36363636363637L287.5,162.27272727272728L294.5121951219512,155.45454545454547L301.5243902439025,165L308.5365853658537,165L315.5487804878049,155.45454545454547L322.56097560975616,154.0909090909091L329.5731707317073,144.54545454545453L336.5853658536585,141.81818181818184L343.5975609756097,163.63636363636363L350.609756097561,156.8181818181818L357.6219512195122,154.0909090909091L364.6341463414634,170.45454545454544L371.6463414634147,167.72727272727272L378.6585365853659,175.90909090909093L385.6707317073171,174.54545454545453L392.6829268292683,140.45454545454544L399.6951219512195,150L406.7073170731707,158.1818181818182L413.7195121951219,171.8181818181818L420.7317073170732,193.63636363636365L427.7439024390244,200.45454545454547L434.7560975609756,193.63636363636365L441.7682926829268,186.81818181818184L448.7804878048781,203.1818181818182L455.7926829268293,204.54545454545456L462.8048780487805,195L469.8170731707317,190.9090909090909L476.8292682926829,184.0909090909091L483.8414634146341,178.63636363636363L490.8536585365853,156.8181818181818L497.8658536585366,165L504.8780487804878,158.1818181818182L511.890243902439,160.9090909090909L518.9024390243902,135L525.9146341463414,167.72727272727272L532.9268292682927,158.1818181818182L539.9390243902438,163.63636363636363L546.951219512195,139.0909090909091L553.9634146341464,143.1818181818182L560.9756097560976,133.63636363636363L567.9878048780488,126.81818181818181L575,99.54545454545453L575,300L567.9878048780488,300L560.9756097560976,300L553.9634146341464,300L546.951219512195,300L539.9390243902438,300L532.9268292682927,300L525.9146341463414,300L518.9024390243902,300L511.890243902439,300L504.8780487804878,300L497.8658536585366,300L490.8536585365853,300L483.8414634146341,300L476.8292682926829,300L469.8170731707317,300L462.8048780487805,300L455.7926829268293,300L448.7804878048781,300L441.7682926829268,300L434.7560975609756,300L427.7439024390244,300L420.7317073170732,300L413.7195121951219,300L406.7073170731707,300L399.6951219512195,300L392.6829268292683,300L385.6707317073171,300L378.6585365853659,300L371.6463414634147,300L364.6341463414634,300L357.6219512195122,300L350.609756097561,300L343.5975609756097,300L336.5853658536585,300L329.5731707317073,300L322.56097560975616,300L315.5487804878049,300L308.5365853658537,300L301.5243902439025,300L294.5121951219512,300L287.5,300L280.4878048780488,300L273.4756097560975,300L266.4634146341464,300L259.4512195121951,300L252.4390243902439,300L245.42682926829266,300L238.41463414634146,300L231.40243902439025,300L224.39024390243904,300L217.3780487804878,300L210.3658536585366,300L203.35365853658536,300L196.34146341463415,300L189.32926829268294,300L182.3170731707317,300L175.3048780487805,300L168.29268292682926,300L161.28048780487808,300L154.26829268292684,300L147.2560975609756,300L140.2439024390244,300L133.2317073170732,300L126.21951219512195,300L119.20731707317073,300L112.19512195121952,300L105.1829268292683,300L98.17073170731707,300L91.15853658536585,300L84.14634146341463,300L77.13414634146342,300L70.1219512195122,300L63.109756097560975,300L56.09756097560976,300L49.08536585365854,300L42.073170731707314,300L35.0609756097561,300L28.04878048780488,300L21.036585365853657,300L14.02439024390244,300L7.01219512195122,300L0,300Z" style="fill: lightgrey; fill-opacity: 0.85;"></path></g><g class="mark-group role-scope layer_1_pathgroup"><g transform="translate(0,0)"><path class="background" d="M0,0h575v300h-575Z" style="fill: none;"></path><g><g class="mark-area role-mark layer_1_marks"><path d="M0,75L7.01219512195122,81.81818181818181L14.02439024390244,94.09090909090908L21.036585365853657,140.45454545454544L28.04878048780488,109.0909090909091L35.0609756097561,90.00000000000001L42.073170731707314,65.45454545454544L49.08536585365854,113.1818181818182L56.09756097560976,100.90909090909089L63.109756097560975,109.0909090909091L70.1219512195122,120L77.13414634146342,129.54545454545453L84.14634146341463,25.909090909090892L91.15853658536585,27.27272727272728L98.17073170731707,45.00000000000001L105.1829268292683,66.81818181818183L112.19512195121952,92.72727272727272L119.20731707317073,109.0909090909091L126.21951219512195,103.63636363636364L133.2317073170732,76.36363636363636L140.2439024390244,80.45454545454545L147.2560975609756,98.18181818181819L154.26829268292684,105L161.28048780487808,83.18181818181817L168.29268292682926,126.81818181818181L175.3048780487805,106.36363636363635L182.3170731707317,83.18181818181817L189.32926829268294,99.54545454545453L196.34146341463415,103.63636363636364L203.35365853658536,95.45454545454547L210.3658536585366,99.54545454545453L217.3780487804878,135L224.39024390243904,150L231.40243902439025,144.54545454545453L238.41463414634146,169.09090909090912L245.42682926829266,155.45454545454547L252.4390243902439,155.45454545454547L259.4512195121951,147.27272727272728L266.4634146341464,158.1818181818182L273.4756097560975,156.8181818181818L280.4878048780488,136.36363636363637L287.5,162.27272727272728L294.5121951219512,155.45454545454547L301.5243902439025,165L308.5365853658537,165L315.5487804878049,155.45454545454547L322.56097560975616,154.0909090909091L329.5731707317073,144.54545454545453L336.5853658536585,141.81818181818184L343.5975609756097,163.63636363636363L350.609756097561,156.8181818181818L357.6219512195122,154.0909090909091L364.6341463414634,170.45454545454544L371.6463414634147,167.72727272727272L378.6585365853659,175.90909090909093L385.6707317073171,174.54545454545453L392.6829268292683,140.45454545454544L399.6951219512195,150L406.7073170731707,158.1818181818182L413.7195121951219,171.8181818181818L420.7317073170732,193.63636363636365L427.7439024390244,200.45454545454547L434.7560975609756,193.63636363636365L441.7682926829268,186.81818181818184L448.7804878048781,203.1818181818182L455.7926829268293,204.54545454545456L462.8048780487805,195L469.8170731707317,190.9090909090909L476.8292682926829,184.0909090909091L483.8414634146341,178.63636363636363L490.8536585365853,156.8181818181818L497.8658536585366,165L504.8780487804878,158.1818181818182L511.890243902439,160.9090909090909L518.9024390243902,135L525.9146341463414,167.72727272727272L532.9268292682927,158.1818181818182L539.9390243902438,163.63636363636363L546.951219512195,139.0909090909091L553.9634146341464,143.1818181818182L560.9756097560976,133.63636363636363L567.9878048780488,126.81818181818181L575,99.54545454545453L575,126.81818181818181L567.9878048780488,156.8181818181818L560.9756097560976,167.72727272727272L553.9634146341464,171.8181818181818L546.951219512195,158.1818181818182L539.9390243902438,181.36363636363635L532.9268292682927,178.63636363636363L525.9146341463414,189.54545454545456L518.9024390243902,152.72727272727272L511.890243902439,177.27272727272725L504.8780487804878,174.54545454545453L497.8658536585366,180L490.8536585365853,171.8181818181818L483.8414634146341,199.09090909090907L476.8292682926829,204.54545454545456L469.8170731707317,203.1818181818182L462.8048780487805,211.36363636363637L455.7926829268293,215.45454545454547L448.7804878048781,218.1818181818182L441.7682926829268,203.1818181818182L434.7560975609756,215.45454545454547L427.7439024390244,215.45454545454547L420.7317073170732,210L413.7195121951219,186.81818181818184L406.7073170731707,180L399.6951219512195,170.45454545454544L392.6829268292683,160.9090909090909L385.6707317073171,197.72727272727275L378.6585365853659,201.8181818181818L371.6463414634147,193.63636363636365L364.6341463414634,193.63636363636365L357.6219512195122,181.36363636363635L350.609756097561,180L343.5975609756097,189.54545454545456L336.5853658536585,167.72727272727272L329.5731707317073,173.1818181818182L322.56097560975616,175.90909090909093L315.5487804878049,184.0909090909091L308.5365853658537,195L301.5243902439025,193.63636363636365L294.5121951219512,190.9090909090909L287.5,190.9090909090909L280.4878048780488,167.72727272727272L273.4756097560975,186.81818181818184L266.4634146341464,190.9090909090909L259.4512195121951,180L252.4390243902439,178.63636363636363L245.42682926829266,184.0909090909091L238.41463414634146,182.72727272727275L231.40243902439025,162.27272727272728L224.39024390243904,167.72727272727272L217.3780487804878,156.8181818181818L210.3658536585366,139.0909090909091L203.35365853658536,132.27272727272728L196.34146341463415,137.72727272727272L189.32926829268294,137.72727272727272L182.3170731707317,132.27272727272728L175.3048780487805,148.63636363636365L168.29268292682926,156.8181818181818L161.28048780487808,125.45454545454547L154.26829268292684,147.27272727272728L147.2560975609756,133.63636363636363L140.2439024390244,118.63636363636365L133.2317073170732,111.8181818181818L126.21951219512195,136.36363636363637L119.20731707317073,136.36363636363637L112.19512195121952,129.54545454545453L105.1829268292683,113.1818181818182L98.17073170731707,88.63636363636363L91.15853658536585,68.18181818181819L84.14634146341463,83.18181818181817L77.13414634146342,173.1818181818182L70.1219512195122,152.72727272727272L63.109756097560975,136.36363636363637L56.09756097560976,130.9090909090909L49.08536585365854,154.0909090909091L42.073170731707314,105L35.0609756097561,133.63636363636363L28.04878048780488,141.81818181818184L21.036585365853657,163.63636363636363L14.02439024390244,130.9090909090909L7.01219512195122,118.63636363636365L0,105Z" style="fill: #4c78a8; fill-opacity: 0.85;"></path></g></g><path class="foreground" d="" style="display: none; fill: none;"></path></g><g transform="translate(0,0)"><path class="background" d="M0,0h575v300h-575Z" style="fill: none;"></path><g><g class="mark-area role-mark layer_1_marks"><path d="M0,105L7.01219512195122,118.63636363636365L14.02439024390244,130.9090909090909L21.036585365853657,163.63636363636363L28.04878048780488,141.81818181818184L35.0609756097561,133.63636363636363L42.073170731707314,105L49.08536585365854,154.0909090909091L56.09756097560976,130.9090909090909L63.109756097560975,136.36363636363637L70.1219512195122,152.72727272727272L77.13414634146342,173.1818181818182L84.14634146341463,83.18181818181817L91.15853658536585,68.18181818181819L98.17073170731707,88.63636363636363L105.1829268292683,113.1818181818182L112.19512195121952,129.54545454545453L119.20731707317073,136.36363636363637L126.21951219512195,136.36363636363637L133.2317073170732,111.8181818181818L140.2439024390244,118.63636363636365L147.2560975609756,133.63636363636363L154.26829268292684,147.27272727272728L161.28048780487808,125.45454545454547L168.29268292682926,156.8181818181818L175.3048780487805,148.63636363636365L182.3170731707317,132.27272727272728L189.32926829268294,137.72727272727272L196.34146341463415,137.72727272727272L203.35365853658536,132.27272727272728L210.3658536585366,139.0909090909091L217.3780487804878,156.8181818181818L224.39024390243904,167.72727272727272L231.40243902439025,162.27272727272728L238.41463414634146,182.72727272727275L245.42682926829266,184.0909090909091L252.4390243902439,178.63636363636363L259.4512195121951,180L266.4634146341464,190.9090909090909L273.4756097560975,186.81818181818184L280.4878048780488,167.72727272727272L287.5,190.9090909090909L294.5121951219512,190.9090909090909L301.5243902439025,193.63636363636365L308.5365853658537,195L315.5487804878049,184.0909090909091L322.56097560975616,175.90909090909093L329.5731707317073,173.1818181818182L336.5853658536585,167.72727272727272L343.5975609756097,189.54545454545456L350.609756097561,180L357.6219512195122,181.36363636363635L364.6341463414634,193.63636363636365L371.6463414634147,193.63636363636365L378.6585365853659,201.8181818181818L385.6707317073171,197.72727272727275L392.6829268292683,160.9090909090909L399.6951219512195,170.45454545454544L406.7073170731707,180L413.7195121951219,186.81818181818184L420.7317073170732,210L427.7439024390244,215.45454545454547L434.7560975609756,215.45454545454547L441.7682926829268,203.1818181818182L448.7804878048781,218.1818181818182L455.7926829268293,215.45454545454547L462.8048780487805,211.36363636363637L469.8170731707317,203.1818181818182L476.8292682926829,204.54545454545456L483.8414634146341,199.09090909090907L490.8536585365853,171.8181818181818L497.8658536585366,180L504.8780487804878,174.54545454545453L511.890243902439,177.27272727272725L518.9024390243902,152.72727272727272L525.9146341463414,189.54545454545456L532.9268292682927,178.63636363636363L539.9390243902438,181.36363636363635L546.951219512195,158.1818181818182L553.9634146341464,171.8181818181818L560.9756097560976,167.72727272727272L567.9878048780488,156.8181818181818L575,126.81818181818181L575,141.81818181818184L567.9878048780488,178.63636363636363L560.9756097560976,186.81818181818184L553.9634146341464,193.63636363636365L546.951219512195,180L539.9390243902438,200.45454545454547L532.9268292682927,199.09090909090907L525.9146341463414,203.1818181818182L518.9024390243902,181.36363636363635L511.890243902439,203.1818181818182L504.8780487804878,193.63636363636365L497.8658536585366,204.54545454545456L490.8536585365853,185.45454545454544L483.8414634146341,210L476.8292682926829,214.0909090909091L469.8170731707317,218.1818181818182L462.8048780487805,231.8181818181818L455.7926829268293,229.0909090909091L448.7804878048781,235.9090909090909L441.7682926829268,218.1818181818182L434.7560975609756,227.72727272727272L427.7439024390244,227.72727272727272L420.7317073170732,220.9090909090909L413.7195121951219,193.63636363636365L406.7073170731707,188.18181818181816L399.6951219512195,181.36363636363635L392.6829268292683,173.1818181818182L385.6707317073171,207.27272727272728L378.6585365853659,214.0909090909091L371.6463414634147,210L364.6341463414634,208.63636363636363L357.6219512195122,195L350.609756097561,193.63636363636365L343.5975609756097,201.8181818181818L336.5853658536585,182.72727272727275L329.5731707317073,182.72727272727275L322.56097560975616,192.27272727272725L315.5487804878049,190.9090909090909L308.5365853658537,205.90909090909088L301.5243902439025,204.54545454545456L294.5121951219512,204.54545454545456L287.5,203.1818181818182L280.4878048780488,180L273.4756097560975,199.09090909090907L266.4634146341464,201.8181818181818L259.4512195121951,199.09090909090907L252.4390243902439,195L245.42682926829266,201.8181818181818L238.41463414634146,195L231.40243902439025,186.81818181818184L224.39024390243904,193.63636363636365L217.3780487804878,174.54545454545453L210.3658536585366,147.27272727272728L203.35365853658536,140.45454545454544L196.34146341463415,154.0909090909091L189.32926829268294,162.27272727272728L182.3170731707317,154.0909090909091L175.3048780487805,171.8181818181818L168.29268292682926,178.63636363636363L161.28048780487808,144.54545454545453L154.26829268292684,169.09090909090912L147.2560975609756,152.72727272727272L140.2439024390244,133.63636363636363L133.2317073170732,122.72727272727272L126.21951219512195,148.63636363636365L119.20731707317073,144.54545454545453L112.19512195121952,136.36363636363637L105.1829268292683,124.09090909090911L98.17073170731707,102.27272727272728L91.15853658536585,83.18181818181817L84.14634146341463,100.90909090909089L77.13414634146342,173.1818181818182L70.1219512195122,152.72727272727272L63.109756097560975,152.72727272727272L56.09756097560976,140.45454545454544L49.08536585365854,154.0909090909091L42.073170731707314,113.1818181818182L35.0609756097561,152.72727272727272L28.04878048780488,152.72727272727272L21.036585365853657,169.09090909090912L14.02439024390244,151.36363636363635L7.01219512195122,121.36363636363636L0,121.36363636363636Z" style="fill: #f58518; fill-opacity: 0.85;"></path></g></g><path class="foreground" d="" style="display: none; fill: none;"></path></g><g transform="translate(0,0)"><path class="background" d="M0,0h575v300h-575Z" style="fill: none;"></path><g><g class="mark-area role-mark layer_1_marks"><path d="M0,121.36363636363636L7.01219512195122,121.36363636363636L14.02439024390244,151.36363636363635L21.036585365853657,169.09090909090912L28.04878048780488,152.72727272727272L35.0609756097561,152.72727272727272L42.073170731707314,113.1818181818182L49.08536585365854,154.0909090909091L56.09756097560976,140.45454545454544L63.109756097560975,152.72727272727272L70.1219512195122,152.72727272727272L77.13414634146342,173.1818181818182L84.14634146341463,100.90909090909089L91.15853658536585,83.18181818181817L98.17073170731707,102.27272727272728L105.1829268292683,124.09090909090911L112.19512195121952,136.36363636363637L119.20731707317073,144.54545454545453L126.21951219512195,148.63636363636365L133.2317073170732,122.72727272727272L140.2439024390244,133.63636363636363L147.2560975609756,152.72727272727272L154.26829268292684,169.09090909090912L161.28048780487808,144.54545454545453L168.29268292682926,178.63636363636363L175.3048780487805,171.8181818181818L182.3170731707317,154.0909090909091L189.32926829268294,162.27272727272728L196.34146341463415,154.0909090909091L203.35365853658536,140.45454545454544L210.3658536585366,147.27272727272728L217.3780487804878,174.54545454545453L224.39024390243904,193.63636363636365L231.40243902439025,186.81818181818184L238.41463414634146,195L245.42682926829266,201.8181818181818L252.4390243902439,195L259.4512195121951,199.09090909090907L266.4634146341464,201.8181818181818L273.4756097560975,199.09090909090907L280.4878048780488,180L287.5,203.1818181818182L294.5121951219512,204.54545454545456L301.5243902439025,204.54545454545456L308.5365853658537,205.90909090909088L315.5487804878049,190.9090909090909L322.56097560975616,192.27272727272725L329.5731707317073,182.72727272727275L336.5853658536585,182.72727272727275L343.5975609756097,201.8181818181818L350.609756097561,193.63636363636365L357.6219512195122,195L364.6341463414634,208.63636363636363L371.6463414634147,210L378.6585365853659,214.0909090909091L385.6707317073171,207.27272727272728L392.6829268292683,173.1818181818182L399.6951219512195,181.36363636363635L406.7073170731707,188.18181818181816L413.7195121951219,193.63636363636365L420.7317073170732,220.9090909090909L427.7439024390244,227.72727272727272L434.7560975609756,227.72727272727272L441.7682926829268,218.1818181818182L448.7804878048781,235.9090909090909L455.7926829268293,229.0909090909091L462.8048780487805,231.8181818181818L469.8170731707317,218.1818181818182L476.8292682926829,214.0909090909091L483.8414634146341,210L490.8536585365853,185.45454545454544L497.8658536585366,204.54545454545456L504.8780487804878,193.63636363636365L511.890243902439,203.1818181818182L518.9024390243902,181.36363636363635L525.9146341463414,203.1818181818182L532.9268292682927,199.09090909090907L539.9390243902438,200.45454545454547L546.951219512195,180L553.9634146341464,193.63636363636365L560.9756097560976,186.81818181818184L567.9878048780488,178.63636363636363L575,141.81818181818184L575,170.45454545454544L567.9878048780488,196.36363636363637L560.9756097560976,212.72727272727272L553.9634146341464,203.1818181818182L546.951219512195,188.18181818181816L539.9390243902438,208.63636363636363L532.9268292682927,211.36363636363637L525.9146341463414,211.36363636363637L518.9024390243902,195L511.890243902439,219.54545454545453L504.8780487804878,204.54545454545456L497.8658536585366,220.9090909090909L490.8536585365853,201.8181818181818L483.8414634146341,216.8181818181818L476.8292682926829,227.72727272727272L469.8170731707317,234.54545454545456L462.8048780487805,244.0909090909091L455.7926829268293,235.9090909090909L448.7804878048781,242.72727272727272L441.7682926829268,230.45454545454547L434.7560975609756,237.27272727272728L427.7439024390244,246.8181818181818L420.7317073170732,240L413.7195121951219,210L406.7073170731707,204.54545454545456L399.6951219512195,197.72727272727275L392.6829268292683,186.81818181818184L385.6707317073171,225L378.6585365853659,223.63636363636365L371.6463414634147,229.0909090909091L364.6341463414634,227.72727272727272L357.6219512195122,219.54545454545453L350.609756097561,204.54545454545456L343.5975609756097,215.45454545454547L336.5853658536585,205.90909090909088L329.5731707317073,197.72727272727275L322.56097560975616,210L315.5487804878049,212.72727272727272L308.5365853658537,216.8181818181818L301.5243902439025,212.72727272727272L294.5121951219512,219.54545454545453L287.5,214.0909090909091L280.4878048780488,201.8181818181818L273.4756097560975,214.0909090909091L266.4634146341464,223.63636363636365L259.4512195121951,227.72727272727272L252.4390243902439,215.45454545454547L245.42682926829266,222.27272727272728L238.41463414634146,219.54545454545453L231.40243902439025,212.72727272727272L224.39024390243904,222.27272727272728L217.3780487804878,215.45454545454547L210.3658536585366,186.81818181818184L203.35365853658536,178.63636363636363L196.34146341463415,184.0909090909091L189.32926829268294,193.63636363636365L182.3170731707317,181.36363636363635L175.3048780487805,200.45454545454547L168.29268292682926,207.27272727272728L161.28048780487808,178.63636363636363L154.26829268292684,181.36363636363635L147.2560975609756,169.09090909090912L140.2439024390244,162.27272727272728L133.2317073170732,151.36363636363635L126.21951219512195,173.1818181818182L119.20731707317073,180L112.19512195121952,173.1818181818182L105.1829268292683,159.54545454545453L98.17073170731707,144.54545454545453L91.15853658536585,126.81818181818181L84.14634146341463,139.0909090909091L77.13414634146342,195L70.1219512195122,186.81818181818184L63.109756097560975,170.45454545454544L56.09756097560976,159.54545454545453L49.08536585365854,178.63636363636363L42.073170731707314,141.81818181818184L35.0609756097561,171.8181818181818L28.04878048780488,167.72727272727272L21.036585365853657,180L14.02439024390244,158.1818181818182L7.01219512195122,133.63636363636363L0,141.81818181818184Z" style="fill: #e45756; fill-opacity: 0.85;"></path></g></g><path class="foreground" d="" style="display: none; fill: none;"></path></g><g transform="translate(0,0)"><path class="background" d="M0,0h575v300h-575Z" style="fill: none;"></path><g><g class="mark-area role-mark layer_1_marks"><path d="M0,141.81818181818184L7.01219512195122,133.63636363636363L14.02439024390244,158.1818181818182L21.036585365853657,180L28.04878048780488,167.72727272727272L35.0609756097561,171.8181818181818L42.073170731707314,141.81818181818184L49.08536585365854,178.63636363636363L56.09756097560976,159.54545454545453L63.109756097560975,170.45454545454544L70.1219512195122,186.81818181818184L77.13414634146342,195L84.14634146341463,139.0909090909091L91.15853658536585,126.81818181818181L98.17073170731707,144.54545454545453L105.1829268292683,159.54545454545453L112.19512195121952,173.1818181818182L119.20731707317073,180L126.21951219512195,173.1818181818182L133.2317073170732,151.36363636363635L140.2439024390244,162.27272727272728L147.2560975609756,169.09090909090912L154.26829268292684,181.36363636363635L161.28048780487808,178.63636363636363L168.29268292682926,207.27272727272728L175.3048780487805,200.45454545454547L182.3170731707317,181.36363636363635L189.32926829268294,193.63636363636365L196.34146341463415,184.0909090909091L203.35365853658536,178.63636363636363L210.3658536585366,186.81818181818184L217.3780487804878,215.45454545454547L224.39024390243904,222.27272727272728L231.40243902439025,212.72727272727272L238.41463414634146,219.54545454545453L245.42682926829266,222.27272727272728L252.4390243902439,215.45454545454547L259.4512195121951,227.72727272727272L266.4634146341464,223.63636363636365L273.4756097560975,214.0909090909091L280.4878048780488,201.8181818181818L287.5,214.0909090909091L294.5121951219512,219.54545454545453L301.5243902439025,212.72727272727272L308.5365853658537,216.8181818181818L315.5487804878049,212.72727272727272L322.56097560975616,210L329.5731707317073,197.72727272727275L336.5853658536585,205.90909090909088L343.5975609756097,215.45454545454547L350.609756097561,204.54545454545456L357.6219512195122,219.54545454545453L364.6341463414634,227.72727272727272L371.6463414634147,229.0909090909091L378.6585365853659,223.63636363636365L385.6707317073171,225L392.6829268292683,186.81818181818184L399.6951219512195,197.72727272727275L406.7073170731707,204.54545454545456L413.7195121951219,210L420.7317073170732,240L427.7439024390244,246.8181818181818L434.7560975609756,237.27272727272728L441.7682926829268,230.45454545454547L448.7804878048781,242.72727272727272L455.7926829268293,235.9090909090909L462.8048780487805,244.0909090909091L469.8170731707317,234.54545454545456L476.8292682926829,227.72727272727272L483.8414634146341,216.8181818181818L490.8536585365853,201.8181818181818L497.8658536585366,220.9090909090909L504.8780487804878,204.54545454545456L511.890243902439,219.54545454545453L518.9024390243902,195L525.9146341463414,211.36363636363637L532.9268292682927,211.36363636363637L539.9390243902438,208.63636363636363L546.951219512195,188.18181818181816L553.9634146341464,203.1818181818182L560.9756097560976,212.72727272727272L567.9878048780488,196.36363636363637L575,170.45454545454544L575,174.54545454545453L567.9878048780488,200.45454545454547L560.9756097560976,214.0909090909091L553.9634146341464,203.1818181818182L546.951219512195,189.54545454545456L539.9390243902438,210L532.9268292682927,212.72727272727272L525.9146341463414,212.72727272727272L518.9024390243902,200.45454545454547L511.890243902439,222.27272727272728L504.8780487804878,207.27272727272728L497.8658536585366,223.63636363636365L490.8536585365853,204.54545454545456L483.8414634146341,216.8181818181818L476.8292682926829,227.72727272727272L469.8170731707317,234.54545454545456L462.8048780487805,244.0909090909091L455.7926829268293,238.63636363636363L448.7804878048781,244.0909090909091L441.7682926829268,231.8181818181818L434.7560975609756,238.63636363636363L427.7439024390244,246.8181818181818L420.7317073170732,240L413.7195121951219,210L406.7073170731707,204.54545454545456L399.6951219512195,199.09090909090907L392.6829268292683,188.18181818181816L385.6707317073171,225L378.6585365853659,225L371.6463414634147,230.45454545454547L364.6341463414634,227.72727272727272L357.6219512195122,225L350.609756097561,211.36363636363637L343.5975609756097,219.54545454545453L336.5853658536585,207.27272727272728L329.5731707317073,199.09090909090907L322.56097560975616,210L315.5487804878049,214.0909090909091L308.5365853658537,218.1818181818182L301.5243902439025,212.72727272727272L294.5121951219512,220.9090909090909L287.5,214.0909090909091L280.4878048780488,201.8181818181818L273.4756097560975,214.0909090909091L266.4634146341464,225L259.4512195121951,229.0909090909091L252.4390243902439,215.45454545454547L245.42682926829266,222.27272727272728L238.41463414634146,219.54545454545453L231.40243902439025,212.72727272727272L224.39024390243904,222.27272727272728L217.3780487804878,216.8181818181818L210.3658536585366,188.18181818181816L203.35365853658536,180L196.34146341463415,185.45454545454544L189.32926829268294,195L182.3170731707317,184.0909090909091L175.3048780487805,203.1818181818182L168.29268292682926,207.27272727272728L161.28048780487808,178.63636363636363L154.26829268292684,181.36363636363635L147.2560975609756,170.45454545454544L140.2439024390244,163.63636363636363L133.2317073170732,151.36363636363635L126.21951219512195,173.1818181818182L119.20731707317073,181.36363636363635L112.19512195121952,174.54545454545453L105.1829268292683,160.9090909090909L98.17073170731707,147.27272727272728L91.15853658536585,128.1818181818182L84.14634146341463,139.0909090909091L77.13414634146342,197.72727272727275L70.1219512195122,189.54545454545456L63.109756097560975,175.90909090909093L56.09756097560976,159.54545454545453L49.08536585365854,178.63636363636363L42.073170731707314,141.81818181818184L35.0609756097561,171.8181818181818L28.04878048780488,167.72727272727272L21.036585365853657,180L14.02439024390244,158.1818181818182L7.01219512195122,133.63636363636363L0,141.81818181818184Z" style="fill: #72b7b2; fill-opacity: 0.85;"></path></g></g><path class="foreground" d="" style="display: none; fill: none;"></path></g><g transform="translate(0,0)"><path class="background" d="M0,0h575v300h-575Z" style="fill: none;"></path><g><g class="mark-area role-mark layer_1_marks"><path d="M0,141.81818181818184L7.01219512195122,133.63636363636363L14.02439024390244,158.1818181818182L21.036585365853657,180L28.04878048780488,167.72727272727272L35.0609756097561,171.8181818181818L42.073170731707314,141.81818181818184L49.08536585365854,178.63636363636363L56.09756097560976,159.54545454545453L63.109756097560975,175.90909090909093L70.1219512195122,189.54545454545456L77.13414634146342,197.72727272727275L84.14634146341463,139.0909090909091L91.15853658536585,128.1818181818182L98.17073170731707,147.27272727272728L105.1829268292683,160.9090909090909L112.19512195121952,174.54545454545453L119.20731707317073,181.36363636363635L126.21951219512195,173.1818181818182L133.2317073170732,151.36363636363635L140.2439024390244,163.63636363636363L147.2560975609756,170.45454545454544L154.26829268292684,181.36363636363635L161.28048780487808,178.63636363636363L168.29268292682926,207.27272727272728L175.3048780487805,203.1818181818182L182.3170731707317,184.0909090909091L189.32926829268294,195L196.34146341463415,185.45454545454544L203.35365853658536,180L210.3658536585366,188.18181818181816L217.3780487804878,216.8181818181818L224.39024390243904,222.27272727272728L231.40243902439025,212.72727272727272L238.41463414634146,219.54545454545453L245.42682926829266,222.27272727272728L252.4390243902439,215.45454545454547L259.4512195121951,229.0909090909091L266.4634146341464,225L273.4756097560975,214.0909090909091L280.4878048780488,201.8181818181818L287.5,214.0909090909091L294.5121951219512,220.9090909090909L301.5243902439025,212.72727272727272L308.5365853658537,218.1818181818182L315.5487804878049,214.0909090909091L322.56097560975616,210L329.5731707317073,199.09090909090907L336.5853658536585,207.27272727272728L343.5975609756097,219.54545454545453L350.609756097561,211.36363636363637L357.6219512195122,225L364.6341463414634,227.72727272727272L371.6463414634147,230.45454545454547L378.6585365853659,225L385.6707317073171,225L392.6829268292683,188.18181818181816L399.6951219512195,199.09090909090907L406.7073170731707,204.54545454545456L413.7195121951219,210L420.7317073170732,240L427.7439024390244,246.8181818181818L434.7560975609756,238.63636363636363L441.7682926829268,231.8181818181818L448.7804878048781,244.0909090909091L455.7926829268293,238.63636363636363L462.8048780487805,244.0909090909091L469.8170731707317,234.54545454545456L476.8292682926829,227.72727272727272L483.8414634146341,216.8181818181818L490.8536585365853,204.54545454545456L497.8658536585366,223.63636363636365L504.8780487804878,207.27272727272728L511.890243902439,222.27272727272728L518.9024390243902,200.45454545454547L525.9146341463414,212.72727272727272L532.9268292682927,212.72727272727272L539.9390243902438,210L546.951219512195,189.54545454545456L553.9634146341464,203.1818181818182L560.9756097560976,214.0909090909091L567.9878048780488,200.45454545454547L575,174.54545454545453L575,212.72727272727272L567.9878048780488,234.54545454545456L560.9756097560976,248.1818181818182L553.9634146341464,238.63636363636363L546.951219512195,229.0909090909091L539.9390243902438,245.45454545454544L532.9268292682927,246.8181818181818L525.9146341463414,238.63636363636363L518.9024390243902,252.27272727272728L511.890243902439,257.72727272727275L504.8780487804878,249.54545454545453L497.8658536585366,259.0909090909091L490.8536585365853,242.72727272727272L483.8414634146341,252.27272727272728L476.8292682926829,261.8181818181818L469.8170731707317,259.0909090909091L462.8048780487805,265.9090909090909L455.7926829268293,267.27272727272725L448.7804878048781,268.6363636363636L441.7682926829268,264.54545454545456L434.7560975609756,267.27272727272725L427.7439024390244,257.72727272727275L420.7317073170732,249.54545454545453L413.7195121951219,248.1818181818182L406.7073170731707,246.8181818181818L399.6951219512195,244.0909090909091L392.6829268292683,250.90909090909093L385.6707317073171,260.45454545454544L378.6585365853659,267.27272727272725L371.6463414634147,268.6363636363636L364.6341463414634,263.1818181818182L357.6219512195122,268.6363636363636L350.609756097561,252.27272727272728L343.5975609756097,259.0909090909091L336.5853658536585,253.63636363636363L329.5731707317073,231.8181818181818L322.56097560975616,238.63636363636363L315.5487804878049,250.90909090909093L308.5365853658537,255L301.5243902439025,242.72727272727272L294.5121951219512,248.1818181818182L287.5,241.36363636363637L280.4878048780488,227.72727272727272L273.4756097560975,231.8181818181818L266.4634146341464,246.8181818181818L259.4512195121951,256.3636363636364L252.4390243902439,252.27272727272728L245.42682926829266,250.90909090909093L238.41463414634146,252.27272727272728L231.40243902439025,245.45454545454544L224.39024390243904,256.3636363636364L217.3780487804878,248.1818181818182L210.3658536585366,242.72727272727272L203.35365853658536,231.8181818181818L196.34146341463415,242.72727272727272L189.32926829268294,233.1818181818182L182.3170731707317,241.36363636363637L175.3048780487805,248.1818181818182L168.29268292682926,248.1818181818182L161.28048780487808,222.27272727272728L154.26829268292684,215.45454545454547L147.2560975609756,225L140.2439024390244,216.8181818181818L133.2317073170732,203.1818181818182L126.21951219512195,216.8181818181818L119.20731707317073,223.63636363636365L112.19512195121952,219.54545454545453L105.1829268292683,203.1818181818182L98.17073170731707,195L91.15853658536585,173.1818181818182L84.14634146341463,175.90909090909093L77.13414634146342,197.72727272727275L70.1219512195122,189.54545454545456L63.109756097560975,207.27272727272728L56.09756097560976,188.18181818181816L49.08536585365854,178.63636363636363L42.073170731707314,175.90909090909093L35.0609756097561,192.27272727272725L28.04878048780488,195L21.036585365853657,201.8181818181818L14.02439024390244,199.09090909090907L7.01219512195122,174.54545454545453L0,180Z" style="fill: #54a24b; fill-opacity: 0.85;"></path></g></g><path class="foreground" d="" style="display: none; fill: none;"></path></g><g transform="translate(0,0)"><path class="background" d="M0,0h575v300h-575Z" style="fill: none;"></path><g><g class="mark-area role-mark layer_1_marks"><path d="M0,180L7.01219512195122,174.54545454545453L14.02439024390244,199.09090909090907L21.036585365853657,201.8181818181818L28.04878048780488,195L35.0609756097561,192.27272727272725L42.073170731707314,175.90909090909093L49.08536585365854,178.63636363636363L56.09756097560976,188.18181818181816L63.109756097560975,207.27272727272728L70.1219512195122,189.54545454545456L77.13414634146342,197.72727272727275L84.14634146341463,175.90909090909093L91.15853658536585,173.1818181818182L98.17073170731707,195L105.1829268292683,203.1818181818182L112.19512195121952,219.54545454545453L119.20731707317073,223.63636363636365L126.21951219512195,216.8181818181818L133.2317073170732,203.1818181818182L140.2439024390244,216.8181818181818L147.2560975609756,225L154.26829268292684,215.45454545454547L161.28048780487808,222.27272727272728L168.29268292682926,248.1818181818182L175.3048780487805,248.1818181818182L182.3170731707317,241.36363636363637L189.32926829268294,233.1818181818182L196.34146341463415,242.72727272727272L203.35365853658536,231.8181818181818L210.3658536585366,242.72727272727272L217.3780487804878,248.1818181818182L224.39024390243904,256.3636363636364L231.40243902439025,245.45454545454544L238.41463414634146,252.27272727272728L245.42682926829266,250.90909090909093L252.4390243902439,252.27272727272728L259.4512195121951,256.3636363636364L266.4634146341464,246.8181818181818L273.4756097560975,231.8181818181818L280.4878048780488,227.72727272727272L287.5,241.36363636363637L294.5121951219512,248.1818181818182L301.5243902439025,242.72727272727272L308.5365853658537,255L315.5487804878049,250.90909090909093L322.56097560975616,238.63636363636363L329.5731707317073,231.8181818181818L336.5853658536585,253.63636363636363L343.5975609756097,259.0909090909091L350.609756097561,252.27272727272728L357.6219512195122,268.6363636363636L364.6341463414634,263.1818181818182L371.6463414634147,268.6363636363636L378.6585365853659,267.27272727272725L385.6707317073171,260.45454545454544L392.6829268292683,250.90909090909093L399.6951219512195,244.0909090909091L406.7073170731707,246.8181818181818L413.7195121951219,248.1818181818182L420.7317073170732,249.54545454545453L427.7439024390244,257.72727272727275L434.7560975609756,267.27272727272725L441.7682926829268,264.54545454545456L448.7804878048781,268.6363636363636L455.7926829268293,267.27272727272725L462.8048780487805,265.9090909090909L469.8170731707317,259.0909090909091L476.8292682926829,261.8181818181818L483.8414634146341,252.27272727272728L490.8536585365853,242.72727272727272L497.8658536585366,259.0909090909091L504.8780487804878,249.54545454545453L511.890243902439,257.72727272727275L518.9024390243902,252.27272727272728L525.9146341463414,238.63636363636363L532.9268292682927,246.8181818181818L539.9390243902438,245.45454545454544L546.951219512195,229.0909090909091L553.9634146341464,238.63636363636363L560.9756097560976,248.1818181818182L567.9878048780488,234.54545454545456L575,212.72727272727272L575,286.3636363636364L567.9878048780488,287.72727272727275L560.9756097560976,291.8181818181818L553.9634146341464,287.72727272727275L546.951219512195,290.45454545454544L539.9390243902438,287.72727272727275L532.9268292682927,289.09090909090907L525.9146341463414,289.09090909090907L518.9024390243902,295.9090909090909L511.890243902439,297.2727272727273L504.8780487804878,295.9090909090909L497.8658536585366,295.9090909090909L490.8536585365853,290.45454545454544L483.8414634146341,293.1818181818182L476.8292682926829,298.6363636363636L469.8170731707317,293.1818181818182L462.8048780487805,291.8181818181818L455.7926829268293,290.45454545454544L448.7804878048781,293.1818181818182L441.7682926829268,290.45454545454544L434.7560975609756,293.1818181818182L427.7439024390244,291.8181818181818L420.7317073170732,289.09090909090907L413.7195121951219,286.3636363636364L406.7073170731707,297.2727272727273L399.6951219512195,295.9090909090909L392.6829268292683,294.54545454545456L385.6707317073171,293.1818181818182L378.6585365853659,291.8181818181818L371.6463414634147,291.8181818181818L364.6341463414634,283.6363636363636L357.6219512195122,293.1818181818182L350.609756097561,280.90909090909093L343.5975609756097,282.27272727272725L336.5853658536585,285L329.5731707317073,283.6363636363636L322.56097560975616,286.3636363636364L315.5487804878049,283.6363636363636L308.5365853658537,289.09090909090907L301.5243902439025,286.3636363636364L294.5121951219512,286.3636363636364L287.5,285L280.4878048780488,280.90909090909093L273.4756097560975,279.54545454545456L266.4634146341464,280.90909090909093L259.4512195121951,280.90909090909093L252.4390243902439,282.27272727272725L245.42682926829266,276.8181818181818L238.41463414634146,275.45454545454544L231.40243902439025,279.54545454545456L224.39024390243904,286.3636363636364L217.3780487804878,280.90909090909093L210.3658536585366,285L203.35365853658536,279.54545454545456L196.34146341463415,279.54545454545456L189.32926829268294,271.3636363636364L182.3170731707317,280.90909090909093L175.3048780487805,286.3636363636364L168.29268292682926,291.8181818181818L161.28048780487808,280.90909090909093L154.26829268292684,276.8181818181818L147.2560975609756,275.45454545454544L140.2439024390244,271.3636363636364L133.2317073170732,264.54545454545456L126.21951219512195,261.8181818181818L119.20731707317073,268.6363636363636L112.19512195121952,271.3636363636364L105.1829268292683,265.9090909090909L98.17073170731707,263.1818181818182L91.15853658536585,256.3636363636364L84.14634146341463,272.7272727272727L77.13414634146342,272.7272727272727L70.1219512195122,275.45454545454544L63.109756097560975,272.7272727272727L56.09756097560976,268.6363636363636L49.08536585365854,278.1818181818182L42.073170731707314,278.1818181818182L35.0609756097561,289.09090909090907L28.04878048780488,287.72727272727275L21.036585365853657,283.6363636363636L14.02439024390244,270L7.01219512195122,267.27272727272725L0,274.09090909090907Z" style="fill: #eeca3b; fill-opacity: 0.85;"></path></g></g><path class="foreground" d="" style="display: none; fill: none;"></path></g><g transform="translate(0,0)"><path class="background" d="M0,0h575v300h-575Z" style="fill: none;"></path><g><g class="mark-area role-mark layer_1_marks"><path d="M0,274.09090909090907L7.01219512195122,267.27272727272725L14.02439024390244,270L21.036585365853657,283.6363636363636L28.04878048780488,287.72727272727275L35.0609756097561,289.09090909090907L42.073170731707314,278.1818181818182L49.08536585365854,278.1818181818182L56.09756097560976,268.6363636363636L63.109756097560975,272.7272727272727L70.1219512195122,275.45454545454544L77.13414634146342,272.7272727272727L84.14634146341463,272.7272727272727L91.15853658536585,256.3636363636364L98.17073170731707,263.1818181818182L105.1829268292683,265.9090909090909L112.19512195121952,271.3636363636364L119.20731707317073,268.6363636363636L126.21951219512195,261.8181818181818L133.2317073170732,264.54545454545456L140.2439024390244,271.3636363636364L147.2560975609756,275.45454545454544L154.26829268292684,276.8181818181818L161.28048780487808,280.90909090909093L168.29268292682926,291.8181818181818L175.3048780487805,286.3636363636364L182.3170731707317,280.90909090909093L189.32926829268294,271.3636363636364L196.34146341463415,279.54545454545456L203.35365853658536,279.54545454545456L210.3658536585366,285L217.3780487804878,280.90909090909093L224.39024390243904,286.3636363636364L231.40243902439025,279.54545454545456L238.41463414634146,275.45454545454544L245.42682926829266,276.8181818181818L252.4390243902439,282.27272727272725L259.4512195121951,280.90909090909093L266.4634146341464,280.90909090909093L273.4756097560975,279.54545454545456L280.4878048780488,280.90909090909093L287.5,285L294.5121951219512,286.3636363636364L301.5243902439025,286.3636363636364L308.5365853658537,289.09090909090907L315.5487804878049,283.6363636363636L322.56097560975616,286.3636363636364L329.5731707317073,283.6363636363636L336.5853658536585,285L343.5975609756097,282.27272727272725L350.609756097561,280.90909090909093L357.6219512195122,293.1818181818182L364.6341463414634,283.6363636363636L371.6463414634147,291.8181818181818L378.6585365853659,291.8181818181818L385.6707317073171,293.1818181818182L392.6829268292683,294.54545454545456L399.6951219512195,295.9090909090909L406.7073170731707,297.2727272727273L413.7195121951219,286.3636363636364L420.7317073170732,289.09090909090907L427.7439024390244,291.8181818181818L434.7560975609756,293.1818181818182L441.7682926829268,290.45454545454544L448.7804878048781,293.1818181818182L455.7926829268293,290.45454545454544L462.8048780487805,291.8181818181818L469.8170731707317,293.1818181818182L476.8292682926829,298.6363636363636L483.8414634146341,293.1818181818182L490.8536585365853,290.45454545454544L497.8658536585366,295.9090909090909L504.8780487804878,295.9090909090909L511.890243902439,297.2727272727273L518.9024390243902,295.9090909090909L525.9146341463414,289.09090909090907L532.9268292682927,289.09090909090907L539.9390243902438,287.72727272727275L546.951219512195,290.45454545454544L553.9634146341464,287.72727272727275L560.9756097560976,291.8181818181818L567.9878048780488,287.72727272727275L575,286.3636363636364L575,300L567.9878048780488,300L560.9756097560976,300L553.9634146341464,300L546.951219512195,300L539.9390243902438,300L532.9268292682927,300L525.9146341463414,300L518.9024390243902,300L511.890243902439,300L504.8780487804878,300L497.8658536585366,300L490.8536585365853,300L483.8414634146341,300L476.8292682926829,300L469.8170731707317,300L462.8048780487805,300L455.7926829268293,300L448.7804878048781,300L441.7682926829268,300L434.7560975609756,300L427.7439024390244,300L420.7317073170732,300L413.7195121951219,300L406.7073170731707,300L399.6951219512195,300L392.6829268292683,300L385.6707317073171,300L378.6585365853659,300L371.6463414634147,300L364.6341463414634,300L357.6219512195122,300L350.609756097561,300L343.5975609756097,300L336.5853658536585,300L329.5731707317073,300L322.56097560975616,300L315.5487804878049,300L308.5365853658537,300L301.5243902439025,300L294.5121951219512,300L287.5,300L280.4878048780488,300L273.4756097560975,300L266.4634146341464,300L259.4512195121951,300L252.4390243902439,300L245.42682926829266,300L238.41463414634146,300L231.40243902439025,300L224.39024390243904,300L217.3780487804878,300L210.3658536585366,300L203.35365853658536,300L196.34146341463415,300L189.32926829268294,300L182.3170731707317,300L175.3048780487805,300L168.29268292682926,300L161.28048780487808,300L154.26829268292684,300L147.2560975609756,300L140.2439024390244,300L133.2317073170732,300L126.21951219512195,300L119.20731707317073,300L112.19512195121952,300L105.1829268292683,300L98.17073170731707,300L91.15853658536585,300L84.14634146341463,300L77.13414634146342,300L70.1219512195122,300L63.109756097560975,300L56.09756097560976,300L49.08536585365854,300L42.073170731707314,300L35.0609756097561,300L28.04878048780488,300L21.036585365853657,300L14.02439024390244,300L7.01219512195122,300L0,300Z" style="fill: #b279a2; fill-opacity: 0.85;"></path></g></g><path class="foreground" d="" style="display: none; fill: none;"></path></g></g><g class="mark-group role-legend"><g transform="translate(0,-51)"><path class="background" d="M0,0h532v33h-532Z" style="pointer-events: none; fill: none;"></path><g><g class="mark-group role-legend-entry"><g transform="translate(0,19)"><path class="background" d="M0,0h0v0h0Z" style="pointer-events: none; fill: none;"></path><g><g class="mark-group role-scope"><g transform="translate(0,0)"><path class="background" d="M0,0h65.46875v14h-65.46875Z" style="pointer-events: none; fill: none; opacity: 1;"></path><g><g class="mark-symbol role-legend-symbol" style="pointer-events: none;"><path transform="translate(7,7)" d="M5,0A5,5,0,1,1,-5,0A5,5,0,1,1,5,0" style="fill: #4c78a8; stroke-width: 1.5; opacity: 1;"></path></g><g class="mark-text role-legend-label" style="pointer-events: none;"><text text-anchor="start" transform="translate(18,11)" style="font-family: sans-serif; font-size: 14px; fill: #000; opacity: 1;">Arecibo</text></g></g><path class="foreground" d="" style="pointer-events: none; display: none; fill: none;"></path></g><g transform="translate(76,0)"><path class="background" d="M0,0h77.14453125v14h-77.14453125Z" style="pointer-events: none; fill: none; opacity: 1;"></path><g><g class="mark-symbol role-legend-symbol" style="pointer-events: none;"><path transform="translate(7,7)" d="M5,0A5,5,0,1,1,-5,0A5,5,0,1,1,5,0" style="fill: #f58518; stroke-width: 1.5; opacity: 1;"></path></g><g class="mark-text role-legend-label" style="pointer-events: none;"><text text-anchor="start" transform="translate(18,11)" style="font-family: sans-serif; font-size: 14px; fill: #000; opacity: 1;">Bayamn</text></g></g><path class="foreground" d="" style="pointer-events: none; display: none; fill: none;"></path></g><g transform="translate(164,0)"><path class="background" d="M0,0h66.2548828125v14h-66.2548828125Z" style="pointer-events: none; fill: none; opacity: 1;"></path><g><g class="mark-symbol role-legend-symbol" style="pointer-events: none;"><path transform="translate(7,7)" d="M5,0A5,5,0,1,1,-5,0A5,5,0,1,1,5,0" style="fill: #e45756; stroke-width: 1.5; opacity: 1;"></path></g><g class="mark-text role-legend-label" style="pointer-events: none;"><text text-anchor="start" transform="translate(18,11)" style="font-family: sans-serif; font-size: 14px; fill: #000; opacity: 1;">Caguas</text></g></g><path class="foreground" d="" style="pointer-events: none; display: none; fill: none;"></path></g><g transform="translate(241,0)"><path class="background" d="M0,0h65.46875v14h-65.46875Z" style="pointer-events: none; fill: none; opacity: 1;"></path><g><g class="mark-symbol role-legend-symbol" style="pointer-events: none;"><path transform="translate(7,7)" d="M5,0A5,5,0,1,1,-5,0A5,5,0,1,1,5,0" style="fill: #72b7b2; stroke-width: 1.5; opacity: 1;"></path></g><g class="mark-text role-legend-label" style="pointer-events: none;"><text text-anchor="start" transform="translate(18,11)" style="font-family: sans-serif; font-size: 14px; fill: #000; opacity: 1;">Fajardo</text></g></g><path class="foreground" d="" style="pointer-events: none; display: none; fill: none;"></path></g><g transform="translate(317,0)"><path class="background" d="M0,0h82.5927734375v14h-82.5927734375Z" style="pointer-events: none; fill: none; opacity: 1;"></path><g><g class="mark-symbol role-legend-symbol" style="pointer-events: none;"><path transform="translate(7,7)" d="M5,0A5,5,0,1,1,-5,0A5,5,0,1,1,5,0" style="fill: #54a24b; stroke-width: 1.5; opacity: 1;"></path></g><g class="mark-text role-legend-label" style="pointer-events: none;"><text text-anchor="start" transform="translate(18,11)" style="font-family: sans-serif; font-size: 14px; fill: #000; opacity: 1;">Mayagez</text></g></g><path class="foreground" d="" style="pointer-events: none; display: none; fill: none;"></path></g><g transform="translate(410,0)"><path class="background" d="M0,0h53.7861328125v14h-53.7861328125Z" style="pointer-events: none; fill: none; opacity: 1;"></path><g><g class="mark-symbol role-legend-symbol" style="pointer-events: none;"><path transform="translate(7,7)" d="M5,0A5,5,0,1,1,-5,0A5,5,0,1,1,5,0" style="fill: #eeca3b; stroke-width: 1.5; opacity: 1;"></path></g><g class="mark-text role-legend-label" style="pointer-events: none;"><text text-anchor="start" transform="translate(18,11)" style="font-family: sans-serif; font-size: 14px; fill: #000; opacity: 1;">Metro</text></g></g><path class="foreground" d="" style="pointer-events: none; display: none; fill: none;"></path></g><g transform="translate(474,0)"><path class="background" d="M0,0h57.6962890625v14h-57.6962890625Z" style="pointer-events: none; fill: none; opacity: 1;"></path><g><g class="mark-symbol role-legend-symbol" style="pointer-events: none;"><path transform="translate(7,7)" d="M5,0A5,5,0,1,1,-5,0A5,5,0,1,1,5,0" style="fill: #b279a2; stroke-width: 1.5; opacity: 1;"></path></g><g class="mark-text role-legend-label" style="pointer-events: none;"><text text-anchor="start" transform="translate(18,11)" style="font-family: sans-serif; font-size: 14px; fill: #000; opacity: 1;">Ponce</text></g></g><path class="foreground" d="" style="pointer-events: none; display: none; fill: none;"></path></g></g></g><path class="foreground" d="" style="pointer-events: none; display: none; fill: none;"></path></g></g><g class="mark-text role-legend-title" style="pointer-events: none;"><text text-anchor="start" transform="translate(0,11)" style="font-family: sans-serif; font-size: 14px; font-weight: bold; fill: #000; opacity: 1;">Regin</text></g></g><path class="foreground" d="" style="pointer-events: none; display: none; fill: none;"></path></g></g></g><path class="foreground" d="" style="display: none; fill: none;"></path></g></g></g></svg>