<svg class="marks" width="662" height="442" viewBox="0 0 662 442" version="1.1" xmlns="http://www.w3.org/2000/svg" xmlns:xlink="http://www.w3.org/1999/xlink"><rect width="662" height="442" style="fill: white;"></rect><g transform="translate(53,30)"><g class="mark-group role-frame root"><g transform="translate(0,0)"><path class="background" d="M0,0h0v0h0Z" style="fill: none;"></path><g><g class="mark-group role-column-footer column_footer"><g transform="translate(0,368)"><path class="background" d="M0,0h600v0h-600Z" style="fill: none;"></path><g><g class="mark-group role-axis"><g transform="translate(0.5,0.5)"><path class="background" d="M0,0h0v0h0Z" style="pointer-events: none; fill: none;"></path><g><g class="mark-rule role-axis-tick" style="pointer-events: none;"><line transform="translate(0,0)" x2="0" y2="5" style="fill: none; stroke: #888; stroke-width: 1; opacity: 1;"></line><line transform="translate(60,0)" x2="0" y2="5" style="fill: none; stroke: #888; stroke-width: 1; opacity: 1;"></line><line transform="translate(120,0)" x2="0" y2="5" style="fill: none; stroke: #888; stroke-width: 1; opacity: 1;"></line><line transform="translate(180,0)" x2="0" y2="5" style="fill: none; stroke: #888; stroke-width: 1; opacity: 1;"></line><line transform="translate(240,0)" x2="0" y2="5" style="fill: none; stroke: #888; stroke-width: 1; opacity: 1;"></line><line transform="translate(300,0)" x2="0" y2="5" style="fill: none; stroke: #888; stroke-width: 1; opacity: 1;"></line><line transform="translate(360,0)" x2="0" y2="5" style="fill: none; stroke: #888; stroke-width: 1; opacity: 1;"></line><line transform="translate(420,0)" x2="0" y2="5" style="fill: none; stroke: #888; stroke-width: 1; opacity: 1;"></line><line transform="translate(480,0)" x2="0" y2="5" style="fill: none; stroke: #888; stroke-width: 1; opacity: 1;"></line><line transform="translate(540,0)" x2="0" y2="5" style="fill: none; stroke: #888; stroke-width: 1; opacity: 1;"></line><line transform="translate(600,0)" x2="0" y2="5" style="fill: none; stroke: #888; stroke-width: 1; opacity: 1;"></line></g><g class="mark-text role-axis-label" style="pointer-events: none;"><text text-anchor="start" transform="translate(0,18)" style="font-family: sans-serif; font-size: 14px; fill: #000; opacity: 1;">05/04</text><text text-anchor="middle" transform="translate(60,18)" style="font-family: sans-serif; font-size: 14px; fill: #000; opacity: 1;">12/04</text><text text-anchor="middle" transform="translate(120,18)" style="font-family: sans-serif; font-size: 14px; fill: #000; opacity: 1;">19/04</text><text text-anchor="middle" transform="translate(180,18)" style="font-family: sans-serif; font-size: 14px; fill: #000; opacity: 1;">26/04</text><text text-anchor="middle" transform="translate(240,18)" style="font-family: sans-serif; font-size: 14px; fill: #000; opacity: 1;">03/05</text><text text-anchor="middle" transform="translate(300,18)" style="font-family: sans-serif; font-size: 14px; fill: #000; opacity: 1;">10/05</text><text text-anchor="middle" transform="translate(360,18)" style="font-family: sans-serif; font-size: 14px; fill: #000; opacity: 1;">17/05</text><text text-anchor="middle" transform="translate(420,18)" style="font-family: sans-serif; font-size: 14px; fill: #000; opacity: 1;">24/05</text><text text-anchor="middle" transform="translate(480,18)" style="font-family: sans-serif; font-size: 14px; fill: #000; opacity: 1;">31/05</text><text text-anchor="middle" transform="translate(540,18)" style="font-family: sans-serif; font-size: 14px; fill: #000; opacity: 1;">07/06</text><text text-anchor="end" transform="translate(600,18)" style="font-family: sans-serif; font-size: 14px; fill: #000; opacity: 1;">14/06</text></g><g class="mark-rule role-axis-domain" style="pointer-events: none;"><line transform="translate(0,0)" x2="600" y2="0" style="fill: none; stroke: #888; stroke-width: 1; opacity: 1;"></line></g><g class="mark-text role-axis-title" style="pointer-events: none;"><text text-anchor="middle" transform="translate(300,36)" style="font-family: sans-serif; font-size: 14px; font-weight: bold; fill: #000; opacity: 1;">Puerto Rico</text></g></g><path class="foreground" d="" style="pointer-events: none; display: none; fill: none;"></path></g></g></g><path class="foreground" d="" style="display: none; fill: none;"></path></g></g><g class="mark-group role-scope cell"><g transform="translate(0,0)"><path class="background" d="M0.5,0.5h600v150h-600Z" style="fill: none; stroke: #ddd;"></path><g><g class="mark-group role-axis"><g transform="translate(0.5,150.5)"><path class="background" d="M0,0h0v0h0Z" style="pointer-events: none; fill: none;"></path><g><g class="mark-rule role-axis-grid" style="pointer-events: none;"><line transform="translate(0,-150)" x2="0" y2="150" style="fill: none; stroke: #ddd; stroke-width: 1; opacity: 1;"></line><line transform="translate(60,-150)" x2="0" y2="150" style="fill: none; stroke: #ddd; stroke-width: 1; opacity: 1;"></line><line transform="translate(120,-150)" x2="0" y2="150" style="fill: none; stroke: #ddd; stroke-width: 1; opacity: 1;"></line><line transform="translate(180,-150)" x2="0" y2="150" style="fill: none; stroke: #ddd; stroke-width: 1; opacity: 1;"></line><line transform="translate(240,-150)" x2="0" y2="150" style="fill: none; stroke: #ddd; stroke-width: 1; opacity: 1;"></line><line transform="translate(300,-150)" x2="0" y2="150" style="fill: none; stroke: #ddd; stroke-width: 1; opacity: 1;"></line><line transform="translate(360,-150)" x2="0" y2="150" style="fill: none; stroke: #ddd; stroke-width: 1; opacity: 1;"></line><line transform="translate(420,-150)" x2="0" y2="150" style="fill: none; stroke: #ddd; stroke-width: 1; opacity: 1;"></line><line transform="translate(480,-150)" x2="0" y2="150" style="fill: none; stroke: #ddd; stroke-width: 1; opacity: 1;"></line><line transform="translate(540,-150)" x2="0" y2="150" style="fill: none; stroke: #ddd; stroke-width: 1; opacity: 1;"></line><line transform="translate(600,-150)" x2="0" y2="150" style="fill: none; stroke: #ddd; stroke-width: 1; opacity: 1;"></line></g></g><path class="foreground" d="" style="pointer-events: none; display: none; fill: none;"></path></g></g><g class="mark-group role-axis"><g transform="translate(0.5,0.5)"><path class="background" d="M0,0h0v0h0Z" style="pointer-events: none; fill: none;"></path><g><g class="mark-rule role-axis-grid" style="pointer-events: none;"><line transform="translate(0,150)" x2="600" y2="0" style="fill: none; stroke: #ddd; stroke-width: 1; opacity: 1;"></line><line transform="translate(0,108)" x2="600" y2="0" style="fill: none; stroke: #ddd; stroke-width: 1; opacity: 1;"></line><line transform="translate(0,67)" x2="600" y2="0" style="fill: none; stroke: #ddd; stroke-width: 1; opacity: 1;"></line><line transform="translate(0,25)" x2="600" y2="0" style="fill: none; stroke: #ddd; stroke-width: 1; opacity: 1;"></line></g></g><path class="foreground" d="" style="pointer-events: none; display: none; fill: none;"></path></g></g><g class="mark-group role-axis"><g transform="translate(0.5,0.5)"><path class="background" d="M0,0h0v0h0Z" style="pointer-events: none; fill: none;"></path><g><g class="mark-rule role-axis-tick" style="pointer-events: none;"><line transform="translate(0,150)" x2="-5" y2="0" style="fill: none; stroke: #888; stroke-width: 1; opacity: 1;"></line><line transform="translate(0,108)" x2="-5" y2="0" style="fill: none; stroke: #888; stroke-width: 1; opacity: 1;"></line><line transform="translate(0,67)" x2="-5" y2="0" style="fill: none; stroke: #888; stroke-width: 1; opacity: 1;"></line><line transform="translate(0,25)" x2="-5" y2="0" style="fill: none; stroke: #888; stroke-width: 1; opacity: 1;"></line></g><g class="mark-text role-axis-label" style="pointer-events: none;"><text text-anchor="end" transform="translate(-7,154)" style="font-family: sans-serif; font-size: 14px; fill: #000; opacity: 1;">0.00%</text><text text-anchor="end" transform="translate(-7,112.33333333333333)" style="font-family: sans-serif; font-size: 14px; fill: #000; opacity: 1;">0.50%</text><text text-anchor="end" transform="translate(-7,70.66666666666666)" style="font-family: sans-serif; font-size: 14px; fill: #000; opacity: 1;">1.00%</text><text text-anchor="end" transform="translate(-7,28.999999999999993)" style="font-family: sans-serif; font-size: 14px; fill: #000; opacity: 1;">1.50%</text></g><g class="mark-rule role-axis-domain" style="pointer-events: none;"><line transform="translate(0,150)" x2="0" y2="-150" style="fill: none; stroke: #888; stroke-width: 1; opacity: 1;"></line></g></g><path class="foreground" d="" style="pointer-events: none; display: none; fill: none;"></path></g></g><g class="mark-group role-scope child_layer_0_pathgroup"><g transform="translate(0,0)"><path class="background" d="M0,0h600v150h-600Z" style="fill: none;"></path><g><g class="mark-line role-mark child_layer_0_marks"><path d="M240,11.481365323297238L300,123.68839111958377L360,95.49587160218942L420,123.15868584925919L480,134.68225247477358L540,125.35467832497535L600,122.41408579219318" style="fill: none; stroke: #4c78a8; stroke-width: 2;"></path></g></g><path class="foreground" d="" style="display: none; fill: none;"></path></g><g transform="translate(0,0)"><path class="background" d="M0,0h600v150h-600Z" style="fill: none;"></path><g><g class="mark-line role-mark child_layer_0_marks"><path d="M454.2857142857143,120.8318749270797L531.4285714285714,131.47560071980521L582.8571428571429,117.58246211200259" style="fill: none; stroke: #f58518; stroke-width: 2;"></path></g></g><path class="foreground" d="" style="display: none; fill: none;"></path></g></g><g class="mark-symbol role-mark child_layer_1_marks"><path transform="translate(240,11.481365323297238)" d="M2.7386127875258306,0A2.7386127875258306,2.7386127875258306,0,1,1,-2.7386127875258306,0A2.7386127875258306,2.7386127875258306,0,1,1,2.7386127875258306,0" style="fill: #4c78a8; stroke-width: 2; opacity: 1;"></path><path transform="translate(300,123.68839111958377)" d="M2.7386127875258306,0A2.7386127875258306,2.7386127875258306,0,1,1,-2.7386127875258306,0A2.7386127875258306,2.7386127875258306,0,1,1,2.7386127875258306,0" style="fill: #4c78a8; stroke-width: 2; opacity: 1;"></path><path transform="translate(360,95.49587160218942)" d="M2.7386127875258306,0A2.7386127875258306,2.7386127875258306,0,1,1,-2.7386127875258306,0A2.7386127875258306,2.7386127875258306,0,1,1,2.7386127875258306,0" style="fill: #4c78a8; stroke-width: 2; opacity: 1;"></path><path transform="translate(420,123.15868584925919)" d="M2.7386127875258306,0A2.7386127875258306,2.7386127875258306,0,1,1,-2.7386127875258306,0A2.7386127875258306,2.7386127875258306,0,1,1,2.7386127875258306,0" style="fill: #4c78a8; stroke-width: 2; opacity: 1;"></path><path transform="translate(454.2857142857143,120.8318749270797)" d="M2.7386127875258306,0A2.7386127875258306,2.7386127875258306,0,1,1,-2.7386127875258306,0A2.7386127875258306,2.7386127875258306,0,1,1,2.7386127875258306,0" style="fill: #f58518; stroke-width: 2; opacity: 1;"></path><path transform="translate(480,134.68225247477358)" d="M2.7386127875258306,0A2.7386127875258306,2.7386127875258306,0,1,1,-2.7386127875258306,0A2.7386127875258306,2.7386127875258306,0,1,1,2.7386127875258306,0" style="fill: #4c78a8; stroke-width: 2; opacity: 1;"></path><path transform="translate(531.4285714285714,131.47560071980521)" d="M2.7386127875258306,0A2.7386127875258306,2.7386127875258306,0,1,1,-2.7386127875258306,0A2.7386127875258306,2.7386127875258306,0,1,1,2.7386127875258306,0" style="fill: #f58518; stroke-width: 2; opacity: 1;"></path><path transform="translate(540,125.35467832497535)" d="M2.7386127875258306,0A2.7386127875258306,2.7386127875258306,0,1,1,-2.7386127875258306,0A2.7386127875258306,2.7386127875258306,0,1,1,2.7386127875258306,0" style="fill: #4c78a8; stroke-width: 2; opacity: 1;"></path><path transform="translate(582.8571428571429,117.58246211200259)" d="M2.7386127875258306,0A2.7386127875258306,2.7386127875258306,0,1,1,-2.7386127875258306,0A2.7386127875258306,2.7386127875258306,0,1,1,2.7386127875258306,0" style="fill: #f58518; stroke-width: 2; opacity: 1;"></path><path transform="translate(600,122.41408579219318)" d="M2.7386127875258306,0A2.7386127875258306,2.7386127875258306,0,1,1,-2.7386127875258306,0A2.7386127875258306,2.7386127875258306,0,1,1,2.7386127875258306,0" style="fill: #4c78a8; stroke-width: 2; opacity: 1;"></path></g><g class="mark-group role-title"><g transform="translate(300,-24)"><path class="background" d="M0,0h0v0h0Z" style="pointer-events: none; fill: none;"></path><g><g class="mark-text role-title-text" style="pointer-events: none;"><text text-anchor="middle" transform="translate(0,11)" style="font-family: sans-serif; font-size: 14px; fill: #000; opacity: 1;">Casos confirmados / Moleculares total</text></g></g><path class="foreground" d="" style="pointer-events: none; display: none; fill: none;"></path></g></g></g><path class="foreground" d="" style="display: none; fill: none;"></path></g><g transform="translate(0,210)"><path class="background" d="M0.5,0.5h600v150h-600Z" style="fill: none; stroke: #ddd;"></path><g><g class="mark-group role-axis"><g transform="translate(0.5,150.5)"><path class="background" d="M0,0h0v0h0Z" style="pointer-events: none; fill: none;"></path><g><g class="mark-rule role-axis-grid" style="pointer-events: none;"><line transform="translate(0,-150)" x2="0" y2="150" style="fill: none; stroke: #ddd; stroke-width: 1; opacity: 1;"></line><line transform="translate(60,-150)" x2="0" y2="150" style="fill: none; stroke: #ddd; stroke-width: 1; opacity: 1;"></line><line transform="translate(120,-150)" x2="0" y2="150" style="fill: none; stroke: #ddd; stroke-width: 1; opacity: 1;"></line><line transform="translate(180,-150)" x2="0" y2="150" style="fill: none; stroke: #ddd; stroke-width: 1; opacity: 1;"></line><line transform="translate(240,-150)" x2="0" y2="150" style="fill: none; stroke: #ddd; stroke-width: 1; opacity: 1;"></line><line transform="translate(300,-150)" x2="0" y2="150" style="fill: none; stroke: #ddd; stroke-width: 1; opacity: 1;"></line><line transform="translate(360,-150)" x2="0" y2="150" style="fill: none; stroke: #ddd; stroke-width: 1; opacity: 1;"></line><line transform="translate(420,-150)" x2="0" y2="150" style="fill: none; stroke: #ddd; stroke-width: 1; opacity: 1;"></line><line transform="translate(480,-150)" x2="0" y2="150" style="fill: none; stroke: #ddd; stroke-width: 1; opacity: 1;"></line><line transform="translate(540,-150)" x2="0" y2="150" style="fill: none; stroke: #ddd; stroke-width: 1; opacity: 1;"></line><line transform="translate(600,-150)" x2="0" y2="150" style="fill: none; stroke: #ddd; stroke-width: 1; opacity: 1;"></line></g></g><path class="foreground" d="" style="pointer-events: none; display: none; fill: none;"></path></g></g><g class="mark-group role-axis"><g transform="translate(0.5,0.5)"><path class="background" d="M0,0h0v0h0Z" style="pointer-events: none; fill: none;"></path><g><g class="mark-rule role-axis-grid" style="pointer-events: none;"><line transform="translate(0,150)" x2="600" y2="0" style="fill: none; stroke: #ddd; stroke-width: 1; opacity: 1;"></line><line transform="translate(0,113)" x2="600" y2="0" style="fill: none; stroke: #ddd; stroke-width: 1; opacity: 1;"></line><line transform="translate(0,75)" x2="600" y2="0" style="fill: none; stroke: #ddd; stroke-width: 1; opacity: 1;"></line><line transform="translate(0,38)" x2="600" y2="0" style="fill: none; stroke: #ddd; stroke-width: 1; opacity: 1;"></line><line transform="translate(0,0)" x2="600" y2="0" style="fill: none; stroke: #ddd; stroke-width: 1; opacity: 1;"></line></g></g><path class="foreground" d="" style="pointer-events: none; display: none; fill: none;"></path></g></g><g class="mark-group role-axis"><g transform="translate(0.5,0.5)"><path class="background" d="M0,0h0v0h0Z" style="pointer-events: none; fill: none;"></path><g><g class="mark-rule role-axis-tick" style="pointer-events: none;"><line transform="translate(0,150)" x2="-5" y2="0" style="fill: none; stroke: #888; stroke-width: 1; opacity: 1;"></line><line transform="translate(0,113)" x2="-5" y2="0" style="fill: none; stroke: #888; stroke-width: 1; opacity: 1;"></line><line transform="translate(0,75)" x2="-5" y2="0" style="fill: none; stroke: #888; stroke-width: 1; opacity: 1;"></line><line transform="translate(0,38)" x2="-5" y2="0" style="fill: none; stroke: #888; stroke-width: 1; opacity: 1;"></line><line transform="translate(0,0)" x2="-5" y2="0" style="fill: none; stroke: #888; stroke-width: 1; opacity: 1;"></line></g><g class="mark-text role-axis-label" style="pointer-events: none;"><text text-anchor="end" transform="translate(-7,154)" style="font-family: sans-serif; font-size: 14px; fill: #000; opacity: 1;">0.00%</text><text text-anchor="end" transform="translate(-7,116.5)" style="font-family: sans-serif; font-size: 14px; fill: #000; opacity: 1;">2.00%</text><text text-anchor="end" transform="translate(-7,79)" style="font-family: sans-serif; font-size: 14px; fill: #000; opacity: 1;">4.00%</text><text text-anchor="end" transform="translate(-7,41.5)" style="font-family: sans-serif; font-size: 14px; fill: #000; opacity: 1;">6.00%</text><text text-anchor="end" transform="translate(-7,4)" style="font-family: sans-serif; font-size: 14px; fill: #000; opacity: 1;">8.00%</text></g><g class="mark-rule role-axis-domain" style="pointer-events: none;"><line transform="translate(0,150)" x2="0" y2="-150" style="fill: none; stroke: #888; stroke-width: 1; opacity: 1;"></line></g></g><path class="foreground" d="" style="pointer-events: none; display: none; fill: none;"></path></g></g><g class="mark-group role-scope child_layer_0_pathgroup"><g transform="translate(0,0)"><path class="background" d="M0,0h600v150h-600Z" style="fill: none;"></path><g><g class="mark-line role-mark child_layer_0_marks"><path d="M0,11.111111111111127L60,50.82504520795659L120,70.56713358387428L180,86.8032786885246L240,116.48110396738277L300,127.99505540331228L360,141.56345672140273L420,143.0212583208074L480,142.514647596071L540,142.84749903561786L600,145.28519591304072" style="fill: none; stroke: #4c78a8; stroke-width: 2;"></path></g></g><path class="foreground" d="" style="display: none; fill: none;"></path></g><g transform="translate(0,0)"><path class="background" d="M0,0h600v150h-600Z" style="fill: none;"></path><g><g class="mark-line role-mark child_layer_0_marks"><path d="M454.2857142857143,114.56072803640183L531.4285714285714,142.85487456335346L582.8571428571429,129.9416484318016" style="fill: none; stroke: #f58518; stroke-width: 2;"></path></g></g><path class="foreground" d="" style="display: none; fill: none;"></path></g></g><g class="mark-symbol role-mark child_layer_1_marks"><path transform="translate(0,11.111111111111127)" d="M2.7386127875258306,0A2.7386127875258306,2.7386127875258306,0,1,1,-2.7386127875258306,0A2.7386127875258306,2.7386127875258306,0,1,1,2.7386127875258306,0" style="fill: #4c78a8; stroke-width: 2; opacity: 1;"></path><path transform="translate(60,50.82504520795659)" d="M2.7386127875258306,0A2.7386127875258306,2.7386127875258306,0,1,1,-2.7386127875258306,0A2.7386127875258306,2.7386127875258306,0,1,1,2.7386127875258306,0" style="fill: #4c78a8; stroke-width: 2; opacity: 1;"></path><path transform="translate(120,70.56713358387428)" d="M2.7386127875258306,0A2.7386127875258306,2.7386127875258306,0,1,1,-2.7386127875258306,0A2.7386127875258306,2.7386127875258306,0,1,1,2.7386127875258306,0" style="fill: #4c78a8; stroke-width: 2; opacity: 1;"></path><path transform="translate(180,86.8032786885246)" d="M2.7386127875258306,0A2.7386127875258306,2.7386127875258306,0,1,1,-2.7386127875258306,0A2.7386127875258306,2.7386127875258306,0,1,1,2.7386127875258306,0" style="fill: #4c78a8; stroke-width: 2; opacity: 1;"></path><path transform="translate(240,116.48110396738277)" d="M2.7386127875258306,0A2.7386127875258306,2.7386127875258306,0,1,1,-2.7386127875258306,0A2.7386127875258306,2.7386127875258306,0,1,1,2.7386127875258306,0" style="fill: #4c78a8; stroke-width: 2; opacity: 1;"></path><path transform="translate(300,127.99505540331228)" d="M2.7386127875258306,0A2.7386127875258306,2.7386127875258306,0,1,1,-2.7386127875258306,0A2.7386127875258306,2.7386127875258306,0,1,1,2.7386127875258306,0" style="fill: #4c78a8; stroke-width: 2; opacity: 1;"></path><path transform="translate(360,141.56345672140273)" d="M2.7386127875258306,0A2.7386127875258306,2.7386127875258306,0,1,1,-2.7386127875258306,0A2.7386127875258306,2.7386127875258306,0,1,1,2.7386127875258306,0" style="fill: #4c78a8; stroke-width: 2; opacity: 1;"></path><path transform="translate(420,143.0212583208074)" d="M2.7386127875258306,0A2.7386127875258306,2.7386127875258306,0,1,1,-2.7386127875258306,0A2.7386127875258306,2.7386127875258306,0,1,1,2.7386127875258306,0" style="fill: #4c78a8; stroke-width: 2; opacity: 1;"></path><path transform="translate(454.2857142857143,114.56072803640183)" d="M2.7386127875258306,0A2.7386127875258306,2.7386127875258306,0,1,1,-2.7386127875258306,0A2.7386127875258306,2.7386127875258306,0,1,1,2.7386127875258306,0" style="fill: #f58518; stroke-width: 2; opacity: 1;"></path><path transform="translate(480,142.514647596071)" d="M2.7386127875258306,0A2.7386127875258306,2.7386127875258306,0,1,1,-2.7386127875258306,0A2.7386127875258306,2.7386127875258306,0,1,1,2.7386127875258306,0" style="fill: #4c78a8; stroke-width: 2; opacity: 1;"></path><path transform="translate(531.4285714285714,142.85487456335346)" d="M2.7386127875258306,0A2.7386127875258306,2.7386127875258306,0,1,1,-2.7386127875258306,0A2.7386127875258306,2.7386127875258306,0,1,1,2.7386127875258306,0" style="fill: #f58518; stroke-width: 2; opacity: 1;"></path><path transform="translate(540,142.84749903561786)" d="M2.7386127875258306,0A2.7386127875258306,2.7386127875258306,0,1,1,-2.7386127875258306,0A2.7386127875258306,2.7386127875258306,0,1,1,2.7386127875258306,0" style="fill: #4c78a8; stroke-width: 2; opacity: 1;"></path><path transform="translate(582.8571428571429,129.9416484318016)" d="M2.7386127875258306,0A2.7386127875258306,2.7386127875258306,0,1,1,-2.7386127875258306,0A2.7386127875258306,2.7386127875258306,0,1,1,2.7386127875258306,0" style="fill: #f58518; stroke-width: 2; opacity: 1;"></path><path transform="translate(600,145.28519591304072)" d="M2.7386127875258306,0A2.7386127875258306,2.7386127875258306,0,1,1,-2.7386127875258306,0A2.7386127875258306,2.7386127875258306,0,1,1,2.7386127875258306,0" style="fill: #4c78a8; stroke-width: 2; opacity: 1;"></path></g><g class="mark-group role-title"><g transform="translate(300,-31)"><path class="background" d="M0,0h0v0h0Z" style="pointer-events: none; fill: none;"></path><g><g class="mark-text role-title-text" style="pointer-events: none;"><text text-anchor="middle" transform="translate(0,11)" style="font-family: sans-serif; font-size: 14px; fill: #000; opacity: 1;">Moleculares positivas / total</text></g></g><path class="foreground" d="" style="pointer-events: none; display: none; fill: none;"></path></g></g></g><path class="foreground" d="" style="display: none; fill: none;"></path></g></g><g class="mark-group role-legend"><g transform="translate(0,-25)"><path class="background" d="M0,0h130v14h-130Z" style="pointer-events: none; fill: none;"></path><g><g class="mark-group role-legend-entry"><g transform="translate(0,0)"><path class="background" d="M0,0h0v0h0Z" style="pointer-events: none; fill: none;"></path><g><g class="mark-group role-scope"><g transform="translate(0,0)"><path class="background" d="M0,0h65.4482421875v14h-65.4482421875Z" style="pointer-events: none; fill: none; opacity: 1;"></path><g><g class="mark-symbol role-legend-symbol" style="pointer-events: none;"><path transform="translate(7,7)" d="M5,0A5,5,0,1,1,-5,0A5,5,0,1,1,5,0" style="fill: #4c78a8; stroke: #4c78a8; stroke-width: 1.5; opacity: 1;"></path></g><g class="mark-text role-legend-label" style="pointer-events: none;"><text text-anchor="start" transform="translate(18,11)" style="font-family: sans-serif; font-size: 14px; fill: #000; opacity: 1;">PRPHT</text></g></g><path class="foreground" d="" style="pointer-events: none; display: none; fill: none;"></path></g><g transform="translate(76,0)"><path class="background" d="M0,0h53.806640625v14h-53.806640625Z" style="pointer-events: none; fill: none; opacity: 1;"></path><g><g class="mark-symbol role-legend-symbol" style="pointer-events: none;"><path transform="translate(7,7)" d="M5,0A5,5,0,1,1,-5,0A5,5,0,1,1,5,0" style="fill: #f58518; stroke: #f58518; stroke-width: 1.5; opacity: 1;"></path></g><g class="mark-text role-legend-label" style="pointer-events: none;"><text text-anchor="start" transform="translate(18,11)" style="font-family: sans-serif; font-size: 14px; fill: #000; opacity: 1;">Salud</text></g></g><path class="foreground" d="" style="pointer-events: none; display: none; fill: none;"></path></g></g></g><path class="foreground" d="" style="pointer-events: none; display: none; fill: none;"></path></g></g></g><path class="foreground" d="" style="pointer-events: none; display: none; fill: none;"></path></g></g></g><path class="foreground" d="" style="display: none; fill: none;"></path></g></g></g></svg>