<svg class="marks" width="679" height="510" viewBox="0 0 679 510" version="1.1" xmlns="http://www.w3.org/2000/svg" xmlns:xlink="http://www.w3.org/1999/xlink"><rect width="679" height="510" style="fill: white;"></rect><g transform="translate(73,41)"><g class="mark-group role-frame root"><g transform="translate(0,0)"><path class="background" d="M0.5,0.5h585v425h-585Z" style="fill: none; stroke: #ddd;"></path><g><g class="mark-group role-axis"><g transform="translate(0.5,425.5)"><path class="background" d="M0,0h0v0h0Z" style="pointer-events: none; fill: none;"></path><g><g class="mark-rule role-axis-grid" style="pointer-events: none;"><line transform="translate(48,-425)" x2="0" y2="425" style="fill: none; stroke: #ddd; stroke-width: 1; opacity: 1;"></line><line transform="translate(123,-425)" x2="0" y2="425" style="fill: none; stroke: #ddd; stroke-width: 1; opacity: 1;"></line><line transform="translate(200,-425)" x2="0" y2="425" style="fill: none; stroke: #ddd; stroke-width: 1; opacity: 1;"></line><line transform="translate(275,-425)" x2="0" y2="425" style="fill: none; stroke: #ddd; stroke-width: 1; opacity: 1;"></line><line transform="translate(353,-425)" x2="0" y2="425" style="fill: none; stroke: #ddd; stroke-width: 1; opacity: 1;"></line><line transform="translate(430,-425)" x2="0" y2="425" style="fill: none; stroke: #ddd; stroke-width: 1; opacity: 1;"></line><line transform="translate(505,-425)" x2="0" y2="425" style="fill: none; stroke: #ddd; stroke-width: 1; opacity: 1;"></line><line transform="translate(583,-425)" x2="0" y2="425" style="fill: none; stroke: #ddd; stroke-width: 1; opacity: 1;"></line></g></g><path class="foreground" d="" style="pointer-events: none; display: none; fill: none;"></path></g></g><g class="mark-group role-axis"><g transform="translate(0.5,0.5)"><path class="background" d="M0,0h0v0h0Z" style="pointer-events: none; fill: none;"></path><g><g class="mark-rule role-axis-grid" style="pointer-events: none;"><line transform="translate(0,425)" x2="585" y2="0" style="fill: none; stroke: #ddd; stroke-width: 1; opacity: 1;"></line><line transform="translate(0,399)" x2="585" y2="0" style="fill: none; stroke: #ddd; stroke-width: 1; opacity: 1;"></line><line transform="translate(0,384)" x2="585" y2="0" style="fill: none; stroke: #ddd; stroke-width: 1; opacity: 1;"></line><line transform="translate(0,374)" x2="585" y2="0" style="fill: none; stroke: #ddd; stroke-width: 1; opacity: 1;"></line><line transform="translate(0,366)" x2="585" y2="0" style="fill: none; stroke: #ddd; stroke-width: 1; opacity: 1;"></line><line transform="translate(0,359)" x2="585" y2="0" style="fill: none; stroke: #ddd; stroke-width: 1; opacity: 1;"></line><line transform="translate(0,353)" x2="585" y2="0" style="fill: none; stroke: #ddd; stroke-width: 1; opacity: 1;"></line><line transform="translate(0,348)" x2="585" y2="0" style="fill: none; stroke: #ddd; stroke-width: 1; opacity: 1;"></line><line transform="translate(0,344)" x2="585" y2="0" style="fill: none; stroke: #ddd; stroke-width: 1; opacity: 1;"></line><line transform="translate(0,340)" x2="585" y2="0" style="fill: none; stroke: #ddd; stroke-width: 1; opacity: 1;"></line><line transform="translate(0,314)" x2="585" y2="0" style="fill: none; stroke: #ddd; stroke-width: 1; opacity: 1;"></line><line transform="translate(0,299)" x2="585" y2="0" style="fill: none; stroke: #ddd; stroke-width: 1; opacity: 1;"></line><line transform="translate(0,289)" x2="585" y2="0" style="fill: none; stroke: #ddd; stroke-width: 1; opacity: 1;"></line><line transform="translate(0,281)" x2="585" y2="0" style="fill: none; stroke: #ddd; stroke-width: 1; opacity: 1;"></line><line transform="translate(0,274)" x2="585" y2="0" style="fill: none; stroke: #ddd; stroke-width: 1; opacity: 1;"></line><line transform="translate(0,268)" x2="585" y2="0" style="fill: none; stroke: #ddd; stroke-width: 1; opacity: 1;"></line><line transform="translate(0,263)" x2="585" y2="0" style="fill: none; stroke: #ddd; stroke-width: 1; opacity: 1;"></line><line transform="translate(0,259)" x2="585" y2="0" style="fill: none; stroke: #ddd; stroke-width: 1; opacity: 1;"></line><line transform="translate(0,255)" x2="585" y2="0" style="fill: none; stroke: #ddd; stroke-width: 1; opacity: 1;"></line><line transform="translate(0,229)" x2="585" y2="0" style="fill: none; stroke: #ddd; stroke-width: 1; opacity: 1;"></line><line transform="translate(0,214)" x2="585" y2="0" style="fill: none; stroke: #ddd; stroke-width: 1; opacity: 1;"></line><line transform="translate(0,204)" x2="585" y2="0" style="fill: none; stroke: #ddd; stroke-width: 1; opacity: 1;"></line><line transform="translate(0,196)" x2="585" y2="0" style="fill: none; stroke: #ddd; stroke-width: 1; opacity: 1;"></line><line transform="translate(0,189)" x2="585" y2="0" style="fill: none; stroke: #ddd; stroke-width: 1; opacity: 1;"></line><line transform="translate(0,183)" x2="585" y2="0" style="fill: none; stroke: #ddd; stroke-width: 1; opacity: 1;"></line><line transform="translate(0,178)" x2="585" y2="0" style="fill: none; stroke: #ddd; stroke-width: 1; opacity: 1;"></line><line transform="translate(0,174)" x2="585" y2="0" style="fill: none; stroke: #ddd; stroke-width: 1; opacity: 1;"></line><line transform="translate(0,170)" x2="585" y2="0" style="fill: none; stroke: #ddd; stroke-width: 1; opacity: 1;"></line><line transform="translate(0,144)" x2="585" y2="0" style="fill: none; stroke: #ddd; stroke-width: 1; opacity: 1;"></line><line transform="translate(0,129)" x2="585" y2="0" style="fill: none; stroke: #ddd; stroke-width: 1; opacity: 1;"></line><line transform="translate(0,119)" x2="585" y2="0" style="fill: none; stroke: #ddd; stroke-width: 1; opacity: 1;"></line><line transform="translate(0,111)" x2="585" y2="0" style="fill: none; stroke: #ddd; stroke-width: 1; opacity: 1;"></line><line transform="translate(0,104)" x2="585" y2="0" style="fill: none; stroke: #ddd; stroke-width: 1; opacity: 1;"></line><line transform="translate(0,98)" x2="585" y2="0" style="fill: none; stroke: #ddd; stroke-width: 1; opacity: 1;"></line><line transform="translate(0,93)" x2="585" y2="0" style="fill: none; stroke: #ddd; stroke-width: 1; opacity: 1;"></line><line transform="translate(0,89)" x2="585" y2="0" style="fill: none; stroke: #ddd; stroke-width: 1; opacity: 1;"></line><line transform="translate(0,85)" x2="585" y2="0" style="fill: none; stroke: #ddd; stroke-width: 1; opacity: 1;"></line><line transform="translate(0,59)" x2="585" y2="0" style="fill: none; stroke: #ddd; stroke-width: 1; opacity: 1;"></line><line transform="translate(0,44)" x2="585" y2="0" style="fill: none; stroke: #ddd; stroke-width: 1; opacity: 1;"></line><line transform="translate(0,34)" x2="585" y2="0" style="fill: none; stroke: #ddd; stroke-width: 1; opacity: 1;"></line><line transform="translate(0,26)" x2="585" y2="0" style="fill: none; stroke: #ddd; stroke-width: 1; opacity: 1;"></line><line transform="translate(0,19)" x2="585" y2="0" style="fill: none; stroke: #ddd; stroke-width: 1; opacity: 1;"></line><line transform="translate(0,13)" x2="585" y2="0" style="fill: none; stroke: #ddd; stroke-width: 1; opacity: 1;"></line><line transform="translate(0,8)" x2="585" y2="0" style="fill: none; stroke: #ddd; stroke-width: 1; opacity: 1;"></line><line transform="translate(0,4)" x2="585" y2="0" style="fill: none; stroke: #ddd; stroke-width: 1; opacity: 1;"></line><line transform="translate(0,0)" x2="585" y2="0" style="fill: none; stroke: #ddd; stroke-width: 1; opacity: 1;"></line></g></g><path class="foreground" d="" style="pointer-events: none; display: none; fill: none;"></path></g></g><g class="mark-group role-axis"><g transform="translate(0.5,425.5)"><path class="background" d="M0,0h0v0h0Z" style="pointer-events: none; fill: none;"></path><g><g class="mark-rule role-axis-tick" style="pointer-events: none;"><line transform="translate(48,0)" x2="0" y2="5" style="fill: none; stroke: #888; stroke-width: 1; opacity: 1;"></line><line transform="translate(123,0)" x2="0" y2="5" style="fill: none; stroke: #888; stroke-width: 1; opacity: 1;"></line><line transform="translate(200,0)" x2="0" y2="5" style="fill: none; stroke: #888; stroke-width: 1; opacity: 1;"></line><line transform="translate(275,0)" x2="0" y2="5" style="fill: none; stroke: #888; stroke-width: 1; opacity: 1;"></line><line transform="translate(353,0)" x2="0" y2="5" style="fill: none; stroke: #888; stroke-width: 1; opacity: 1;"></line><line transform="translate(430,0)" x2="0" y2="5" style="fill: none; stroke: #888; stroke-width: 1; opacity: 1;"></line><line transform="translate(505,0)" x2="0" y2="5" style="fill: none; stroke: #888; stroke-width: 1; opacity: 1;"></line><line transform="translate(583,0)" x2="0" y2="5" style="fill: none; stroke: #888; stroke-width: 1; opacity: 1;"></line></g><g class="mark-text role-axis-label" style="pointer-events: none;"><text text-anchor="middle" transform="translate(47.5,18)" style="font-family: sans-serif; font-size: 14px; fill: #000; opacity: 1;">01/04</text><text text-anchor="middle" transform="translate(122.5,18)" style="font-family: sans-serif; font-size: 14px; fill: #000; opacity: 1;">01/05</text><text text-anchor="middle" transform="translate(200,18)" style="font-family: sans-serif; font-size: 14px; fill: #000; opacity: 1;">01/06</text><text text-anchor="middle" transform="translate(275,18)" style="font-family: sans-serif; font-size: 14px; fill: #000; opacity: 1;">01/07</text><text text-anchor="middle" transform="translate(352.5,18)" style="font-family: sans-serif; font-size: 14px; fill: #000; opacity: 1;">01/08</text><text text-anchor="middle" transform="translate(430.00000000000006,18)" style="font-family: sans-serif; font-size: 14px; fill: #000; opacity: 1;">01/09</text><text text-anchor="middle" transform="translate(505,18)" style="font-family: sans-serif; font-size: 14px; fill: #000; opacity: 1;">01/10</text><text text-anchor="middle" transform="translate(582.5,18)" style="font-family: sans-serif; font-size: 14px; fill: #000; opacity: 1;">01/11</text></g><g class="mark-rule role-axis-domain" style="pointer-events: none;"><line transform="translate(0,0)" x2="585" y2="0" style="fill: none; stroke: #888; stroke-width: 1; opacity: 1;"></line></g><g class="mark-text role-axis-title" style="pointer-events: none;"><text text-anchor="middle" transform="translate(292.5,36)" style="font-family: sans-serif; font-size: 14px; font-weight: bold; fill: #000; opacity: 1;">Fecha de muestra o deceso</text></g></g><path class="foreground" d="" style="pointer-events: none; display: none; fill: none;"></path></g></g><g class="mark-group role-axis"><g transform="translate(0.5,0.5)"><path class="background" d="M0,0h0v0h0Z" style="pointer-events: none; fill: none;"></path><g><g class="mark-rule role-axis-tick" style="pointer-events: none;"><line transform="translate(0,425)" x2="-5" y2="0" style="fill: none; stroke: #888; stroke-width: 1; opacity: 1;"></line><line transform="translate(0,399)" x2="-5" y2="0" style="fill: none; stroke: #888; stroke-width: 1; opacity: 1;"></line><line transform="translate(0,384)" x2="-5" y2="0" style="fill: none; stroke: #888; stroke-width: 1; opacity: 1;"></line><line transform="translate(0,374)" x2="-5" y2="0" style="fill: none; stroke: #888; stroke-width: 1; opacity: 1;"></line><line transform="translate(0,366)" x2="-5" y2="0" style="fill: none; stroke: #888; stroke-width: 1; opacity: 1;"></line><line transform="translate(0,359)" x2="-5" y2="0" style="fill: none; stroke: #888; stroke-width: 1; opacity: 1;"></line><line transform="translate(0,353)" x2="-5" y2="0" style="fill: none; stroke: #888; stroke-width: 1; opacity: 1;"></line><line transform="translate(0,348)" x2="-5" y2="0" style="fill: none; stroke: #888; stroke-width: 1; opacity: 1;"></line><line transform="translate(0,344)" x2="-5" y2="0" style="fill: none; stroke: #888; stroke-width: 1; opacity: 1;"></line><line transform="translate(0,340)" x2="-5" y2="0" style="fill: none; stroke: #888; stroke-width: 1; opacity: 1;"></line><line transform="translate(0,314)" x2="-5" y2="0" style="fill: none; stroke: #888; stroke-width: 1; opacity: 1;"></line><line transform="translate(0,299)" x2="-5" y2="0" style="fill: none; stroke: #888; stroke-width: 1; opacity: 1;"></line><line transform="translate(0,289)" x2="-5" y2="0" style="fill: none; stroke: #888; stroke-width: 1; opacity: 1;"></line><line transform="translate(0,281)" x2="-5" y2="0" style="fill: none; stroke: #888; stroke-width: 1; opacity: 1;"></line><line transform="translate(0,274)" x2="-5" y2="0" style="fill: none; stroke: #888; stroke-width: 1; opacity: 1;"></line><line transform="translate(0,268)" x2="-5" y2="0" style="fill: none; stroke: #888; stroke-width: 1; opacity: 1;"></line><line transform="translate(0,263)" x2="-5" y2="0" style="fill: none; stroke: #888; stroke-width: 1; opacity: 1;"></line><line transform="translate(0,259)" x2="-5" y2="0" style="fill: none; stroke: #888; stroke-width: 1; opacity: 1;"></line><line transform="translate(0,255)" x2="-5" y2="0" style="fill: none; stroke: #888; stroke-width: 1; opacity: 1;"></line><line transform="translate(0,229)" x2="-5" y2="0" style="fill: none; stroke: #888; stroke-width: 1; opacity: 1;"></line><line transform="translate(0,214)" x2="-5" y2="0" style="fill: none; stroke: #888; stroke-width: 1; opacity: 1;"></line><line transform="translate(0,204)" x2="-5" y2="0" style="fill: none; stroke: #888; stroke-width: 1; opacity: 1;"></line><line transform="translate(0,196)" x2="-5" y2="0" style="fill: none; stroke: #888; stroke-width: 1; opacity: 1;"></line><line transform="translate(0,189)" x2="-5" y2="0" style="fill: none; stroke: #888; stroke-width: 1; opacity: 1;"></line><line transform="translate(0,183)" x2="-5" y2="0" style="fill: none; stroke: #888; stroke-width: 1; opacity: 1;"></line><line transform="translate(0,178)" x2="-5" y2="0" style="fill: none; stroke: #888; stroke-width: 1; opacity: 1;"></line><line transform="translate(0,174)" x2="-5" y2="0" style="fill: none; stroke: #888; stroke-width: 1; opacity: 1;"></line><line transform="translate(0,170)" x2="-5" y2="0" style="fill: none; stroke: #888; stroke-width: 1; opacity: 1;"></line><line transform="translate(0,144)" x2="-5" y2="0" style="fill: none; stroke: #888; stroke-width: 1; opacity: 1;"></line><line transform="translate(0,129)" x2="-5" y2="0" style="fill: none; stroke: #888; stroke-width: 1; opacity: 1;"></line><line transform="translate(0,119)" x2="-5" y2="0" style="fill: none; stroke: #888; stroke-width: 1; opacity: 1;"></line><line transform="translate(0,111)" x2="-5" y2="0" style="fill: none; stroke: #888; stroke-width: 1; opacity: 1;"></line><line transform="translate(0,104)" x2="-5" y2="0" style="fill: none; stroke: #888; stroke-width: 1; opacity: 1;"></line><line transform="translate(0,98)" x2="-5" y2="0" style="fill: none; stroke: #888; stroke-width: 1; opacity: 1;"></line><line transform="translate(0,93)" x2="-5" y2="0" style="fill: none; stroke: #888; stroke-width: 1; opacity: 1;"></line><line transform="translate(0,89)" x2="-5" y2="0" style="fill: none; stroke: #888; stroke-width: 1; opacity: 1;"></line><line transform="translate(0,85)" x2="-5" y2="0" style="fill: none; stroke: #888; stroke-width: 1; opacity: 1;"></line><line transform="translate(0,59)" x2="-5" y2="0" style="fill: none; stroke: #888; stroke-width: 1; opacity: 1;"></line><line transform="translate(0,44)" x2="-5" y2="0" style="fill: none; stroke: #888; stroke-width: 1; opacity: 1;"></line><line transform="translate(0,34)" x2="-5" y2="0" style="fill: none; stroke: #888; stroke-width: 1; opacity: 1;"></line><line transform="translate(0,26)" x2="-5" y2="0" style="fill: none; stroke: #888; stroke-width: 1; opacity: 1;"></line><line transform="translate(0,19)" x2="-5" y2="0" style="fill: none; stroke: #888; stroke-width: 1; opacity: 1;"></line><line transform="translate(0,13)" x2="-5" y2="0" style="fill: none; stroke: #888; stroke-width: 1; opacity: 1;"></line><line transform="translate(0,8)" x2="-5" y2="0" style="fill: none; stroke: #888; stroke-width: 1; opacity: 1;"></line><line transform="translate(0,4)" x2="-5" y2="0" style="fill: none; stroke: #888; stroke-width: 1; opacity: 1;"></line><line transform="translate(0,0)" x2="-5" y2="0" style="fill: none; stroke: #888; stroke-width: 1; opacity: 1;"></line></g><g class="mark-text role-axis-label" style="pointer-events: none;"><text text-anchor="end" transform="translate(-7,429)" style="font-family: sans-serif; font-size: 14px; fill: #000; opacity: 1;">0.1</text><text text-anchor="end" transform="translate(-7,403.4124503685616)" style="font-family: sans-serif; font-size: 14px; fill: #000; opacity: 1;">0.2</text><text text-anchor="end" transform="translate(-7,388.4446933488287)" style="font-family: sans-serif; font-size: 14px; fill: #000; opacity: 1;"></text><text text-anchor="end" transform="translate(-7,377.8249007371232)" style="font-family: sans-serif; font-size: 14px; fill: #000; opacity: 1;"></text><text text-anchor="end" transform="translate(-7,369.58754963143843)" style="font-family: sans-serif; font-size: 14px; fill: #000; opacity: 1;"></text><text text-anchor="end" transform="translate(-7,362.8571437173903)" style="font-family: sans-serif; font-size: 14px; fill: #000; opacity: 1;"></text><text text-anchor="end" transform="translate(-7,357.1666665987882)" style="font-family: sans-serif; font-size: 14px; fill: #000; opacity: 1;"></text><text text-anchor="end" transform="translate(-7,352.2373511056848)" style="font-family: sans-serif; font-size: 14px; fill: #000; opacity: 1;"></text><text text-anchor="end" transform="translate(-7,347.8893866976574)" style="font-family: sans-serif; font-size: 14px; fill: #000; opacity: 1;"></text><text text-anchor="end" transform="translate(-7,344)" style="font-family: sans-serif; font-size: 14px; fill: #000; opacity: 1;">1</text><text text-anchor="end" transform="translate(-7,318.41245036856157)" style="font-family: sans-serif; font-size: 14px; fill: #000; opacity: 1;">2</text><text text-anchor="end" transform="translate(-7,303.4446933488287)" style="font-family: sans-serif; font-size: 14px; fill: #000; opacity: 1;"></text><text text-anchor="end" transform="translate(-7,292.82490073712324)" style="font-family: sans-serif; font-size: 14px; fill: #000; opacity: 1;"></text><text text-anchor="end" transform="translate(-7,284.58754963143843)" style="font-family: sans-serif; font-size: 14px; fill: #000; opacity: 1;"></text><text text-anchor="end" transform="translate(-7,277.8571437173903)" style="font-family: sans-serif; font-size: 14px; fill: #000; opacity: 1;"></text><text text-anchor="end" transform="translate(-7,272.16666659878814)" style="font-family: sans-serif; font-size: 14px; fill: #000; opacity: 1;"></text><text text-anchor="end" transform="translate(-7,267.23735110568475)" style="font-family: sans-serif; font-size: 14px; fill: #000; opacity: 1;"></text><text text-anchor="end" transform="translate(-7,262.8893866976574)" style="font-family: sans-serif; font-size: 14px; fill: #000; opacity: 1;"></text><text text-anchor="end" transform="translate(-7,259)" style="font-family: sans-serif; font-size: 14px; fill: #000; opacity: 1;">10</text><text text-anchor="end" transform="translate(-7,233.4124503685616)" style="font-family: sans-serif; font-size: 14px; fill: #000; opacity: 1;">20</text><text text-anchor="end" transform="translate(-7,218.44469334882874)" style="font-family: sans-serif; font-size: 14px; fill: #000; opacity: 1;"></text><text text-anchor="end" transform="translate(-7,207.8249007371232)" style="font-family: sans-serif; font-size: 14px; fill: #000; opacity: 1;"></text><text text-anchor="end" transform="translate(-7,199.5875496314384)" style="font-family: sans-serif; font-size: 14px; fill: #000; opacity: 1;"></text><text text-anchor="end" transform="translate(-7,192.8571437173903)" style="font-family: sans-serif; font-size: 14px; fill: #000; opacity: 1;"></text><text text-anchor="end" transform="translate(-7,187.16666659878814)" style="font-family: sans-serif; font-size: 14px; fill: #000; opacity: 1;"></text><text text-anchor="end" transform="translate(-7,182.23735110568484)" style="font-family: sans-serif; font-size: 14px; fill: #000; opacity: 1;"></text><text text-anchor="end" transform="translate(-7,177.88938669765744)" style="font-family: sans-serif; font-size: 14px; fill: #000; opacity: 1;"></text><text text-anchor="end" transform="translate(-7,174)" style="font-family: sans-serif; font-size: 14px; fill: #000; opacity: 1;">100</text><text text-anchor="end" transform="translate(-7,148.41245036856162)" style="font-family: sans-serif; font-size: 14px; fill: #000; opacity: 1;">200</text><text text-anchor="end" transform="translate(-7,133.4446933488287)" style="font-family: sans-serif; font-size: 14px; fill: #000; opacity: 1;"></text><text text-anchor="end" transform="translate(-7,122.82490073712322)" style="font-family: sans-serif; font-size: 14px; fill: #000; opacity: 1;"></text><text text-anchor="end" transform="translate(-7,114.58754963143842)" style="font-family: sans-serif; font-size: 14px; fill: #000; opacity: 1;"></text><text text-anchor="end" transform="translate(-7,107.85714371739031)" style="font-family: sans-serif; font-size: 14px; fill: #000; opacity: 1;"></text><text text-anchor="end" transform="translate(-7,102.1666665987882)" style="font-family: sans-serif; font-size: 14px; fill: #000; opacity: 1;"></text><text text-anchor="end" transform="translate(-7,97.23735110568482)" style="font-family: sans-serif; font-size: 14px; fill: #000; opacity: 1;"></text><text text-anchor="end" transform="translate(-7,92.88938669765736)" style="font-family: sans-serif; font-size: 14px; fill: #000; opacity: 1;"></text><text text-anchor="end" transform="translate(-7,89.00000000000003)" style="font-family: sans-serif; font-size: 14px; fill: #000; opacity: 1;">1,000</text><text text-anchor="end" transform="translate(-7,63.41245036856163)" style="font-family: sans-serif; font-size: 14px; fill: #000; opacity: 1;">2,000</text><text text-anchor="end" transform="translate(-7,48.44469334882877)" style="font-family: sans-serif; font-size: 14px; fill: #000; opacity: 1;"></text><text text-anchor="end" transform="translate(-7,37.82490073712324)" style="font-family: sans-serif; font-size: 14px; fill: #000; opacity: 1;"></text><text text-anchor="end" transform="translate(-7,29.587549631438396)" style="font-family: sans-serif; font-size: 14px; fill: #000; opacity: 1;"></text><text text-anchor="end" transform="translate(-7,22.85714371739033)" style="font-family: sans-serif; font-size: 14px; fill: #000; opacity: 1;"></text><text text-anchor="end" transform="translate(-7,17.16666659878822)" style="font-family: sans-serif; font-size: 14px; fill: #000; opacity: 1;"></text><text text-anchor="end" transform="translate(-7,12.237351105684837)" style="font-family: sans-serif; font-size: 14px; fill: #000; opacity: 1;"></text><text text-anchor="end" transform="translate(-7,7.889386697657423)" style="font-family: sans-serif; font-size: 14px; fill: #000; opacity: 1;"></text><text text-anchor="end" transform="translate(-7,4)" style="font-family: sans-serif; font-size: 14px; fill: #000; opacity: 1;">10,000</text></g><g class="mark-rule role-axis-domain" style="pointer-events: none;"><line transform="translate(0,425)" x2="0" y2="-425" style="fill: none; stroke: #888; stroke-width: 1; opacity: 1;"></line></g><g class="mark-text role-axis-title" style="pointer-events: none;"><text text-anchor="middle" transform="translate(-53.8203125,212.5) rotate(-90) translate(0,-3)" style="font-family: sans-serif; font-size: 14px; font-weight: bold; fill: #000; opacity: 1;">Nuevos (promedio 7 días)</text></g></g><path class="foreground" d="" style="pointer-events: none; display: none; fill: none;"></path></g></g><g class="mark-group role-scope pathgroup"><g transform="translate(0,0)"><path class="background" d="M0,0h585v425h-585Z" style="fill: none;"></path><g><g class="mark-line role-mark marks"><path d="M0,299.4446933488287L2.5000000000000004,299.4446933488287L7.5,280.58754963143843L10.000000000000002,277.0691713929893L12.5,277.74653041504763L15,278.2051081254177L17.5,270.498917708278L20.000000000000004,263.9025047942011L22.5,259.48003979386027L25,246.97419692862928L27.5,232.72048598114304L30,223.34719814302983L32.5,212.72740553132428L35,207.27741806432567L37.5,205.57987618522296L40.00000000000001,205.30438960100716L42.5,198.89558524401983L45,197.9840566857191L47.5,194.54762083599246L50,195.27248344324693L52.5,195.1680561290199L55,196.11871031998356L57.5,197.09449482307508L60,201.15518127573512L62.5,203.956976122956L65,210.76685468548538L67.5,213.74816266653062L70,222.90243335366725L72.5,223.57160631715752L75,223.34719814302983L77.5,228.88882412865203L80.00000000000001,231.5845492487146L82.5,230.21208519291727L85,232.720485981143L87.5,227.61135994761685L90,228.3725215731156L92.5,228.88882412865203L95,230.75496307913633L97.5,231.86527327047187L100,232.720485981143L102.5,235.4118416828467L105,236.99642103761164L107.50000000000001,239.6823348537063L110,239.33571229796897L112.5,240.74216930127218L115,241.83333340121177L117.5,245.72272009886916L120,244.11746584523738L122.5,246.97419692862917L125,244.9113680768396L127.5,244.9113680768396L130,248.26959408595184L132.5,244.9113680768396L135,244.9113680768396L137.5,246.55230626844747L140,240.74216930127218L142.5,241.46601662968715L147.5,236.99642103761164L150,234.49274779385823L152.5,239.33571229796897L155,242.95773598858096L157.5,245.31481505391884L160.00000000000003,256.07007582118166L162.5,257.17209888015293L165,262.58397066905L167.5,268.1666665987881L170,265.26988448514464L172.5,267.4208830326501L175,268.92782822428677L177.5,268.1666665987881L180,268.1666665987881L182.5,269.7050154766757L185,271.31026973030754L187.50000000000003,276.5928418039593L190,265.97304919225377L192.5,253.96007120455394L195,254.47637376009033L197.5,254.99999999999994L200,245.31481505391884L202.5,241.1023188014488L205,240.74216930127218L207.5,243.7268269516597L210,251.96417805734453L212.5,250.53503064152426L215.00000000000003,250.07068450689655L217.5,257.17209888015293L220,260.0802974252966L222.5,257.17209888015293L225,256.6169751716415L227.5,252.94863722407877L230,249.61210679652652L232.5,247.40096504550849L235,245.31481505391884L237.5,241.83333340121177L240,241.83333340121177L242.50000000000003,238.31495516276263L245,238.99231418482108L247.5,241.83333340121177L252.5,235.1029274871637L255,227.61135994761685L257.5,225.18186294642695L260,217.7527289614101L262.5,213.57606430838536L265,213.57606430838536L267.5,213.74816266653062L270,204.89497655830493L272.5,199.24329611270292L275,193.93744114268694L277.5,187.47698181338197L280,179.85432627732638L282.5,179.92326192940746L285,179.1044106628702L287.5,172.34027698863048L290,164.5665607932636L292.5,158.92162967792447L295,154.47397100251482L297.5,148.71429980374404L300,145.37411192397272L302.50000000000006,144.46522383139055L305,138.1463905891412L307.5,135.48546923130667L310,131.39374000375906L312.5,129.60324061170968L315,130.29825810383068L317.5,130.95163854046538L320.00000000000006,130.67798991180328L322.5,133.21707509603783L325,134.6259895538499L327.5,137.09348410645947L330,137.88033516027355L332.5,138.10191464284327L335,138.59412234771938L337.49999999999994,138.77474671278839L340,139.0245571650882L342.5,139.07015943273026L345,140.25246870138167L347.5,145.64574693153614L350,143.21902849973827L352.5,142.11250058616858L355,142.4110065062132L357.50000000000006,139.85414333466647L360,135.9437881439933L362.5,133.1587113985654L365,127.97996089016436L367.5,126.53862560289839L370,125.73504509199464L372.5,125.79869171286776L375.00000000000006,125.84649879612421L377.5,126.70146235110973L380,126.18289324816568L382.5,126.27957169092792L385,126.6362414313847L387.5,126.26344102387566L390,126.473691494754L392.49999999999994,126.57113553979643L395,128.11536693271879L397.5,128.06453144482043L400,128.95574539325597L402.5,132.01040634165926L405,135.17620997244893L407.5,134.91026512451683L410,137.02866401787875L412.5,138.01312318461302L415,143.4495081098026L417.5,146.64052352928258L420,148.6846848555357L422.5,146.97816336139212L425,147.3474587863783L427.5,149.0416420055786L430.00000000000006,149.73561071563907L432.5,147.49048504418934L435,144.41245036856157L437.5,142.73713530255088L440,142.46099301481485L442.5,142.28633556379935L445,145.8645033107354L447.49999999999994,142.7875656805604L450,138.6391956511968L452.5,132.1614655026778L455,126.93064731496483L457.5,126.08646733971639L460,126.0704208143771L462.5,120.49701412807003L465,119.97649671869577L467.5,116.73614302540749L470,117.95197950076063L472.5,119.57068430326116L475,119.71896470733567L477.5,119.77303286927058L480,121.63165761553131L482.5,122.7729292754872L485.00000000000006,128.95574539325588L487.5,132.40826272045837L490,134.78816458002885L492.5,135.2378549034931L495,135.40274643823204L497.5,136.13293474548658L500,136.28072174111995L502.49999999999994,136.3654378562386L505,136.59941463526417L507.5,136.4291027716368L510,136.25957305479994L512.5,136.02773367411172L515,134.68672172706854L517.5,133.15871139856532L520,130.80544020695208L522.5,128.4047645533827L525,126.61995419045782L527.5,125.59224015196276L530,125.70326288515687L532.5,127.52659797743566L535,126.66883748733193L537.5,125.41844768862258L540,126.53862560289839L542.5,126.022323047362L545,125.22978442808147L547.5,125.02648147723977L550,122.49520648931664L552.5,122.53891878685987L555,123.15638889807424L557.5,121.46134575190383L560,120.95507453501645L562.5,120.78784874072537L565,120.77394739205354L567.5,119.8814073499324L570,120.82958422392926L572.5,122.24847644703625L575,126.231200820113L577.5,133.0616431570931L580,137.9688074158313" style="fill: none; stroke: #4c78a8; stroke-width: 2; stroke-dasharray: 1,0;"></path></g></g><path class="foreground" d="" style="display: none; fill: none;"></path></g><g transform="translate(0,0)"><path class="background" d="M0,0h585v425h-585Z" style="fill: none;"></path><g><g class="mark-line role-mark marks"><path d="M0,299.4446933488287L2.5000000000000004,299.4446933488287L7.5,280.58754963143843L10.000000000000002,277.0691713929893L12.5,277.74653041504763L15,278.2051081254177L17.5,270.498917708278L20.000000000000004,263.9025047942011L22.5,259.48003979386027L25,246.97419692862928L27.5,232.72048598114304L30,223.34719814302983L32.5,212.72740553132428L35,207.27741806432567L37.5,205.57987618522296L40.00000000000001,205.30438960100716L42.5,198.89558524401983L45,197.9840566857191L47.5,194.54762083599246L50,195.27248344324693L52.5,195.1680561290199L55,196.11871031998356L57.5,197.09449482307508L60,201.15518127573512L62.5,203.956976122956L65,210.76685468548538L67.5,213.74816266653062L70,222.90243335366725L72.5,223.57160631715752L75,223.34719814302983L77.5,228.88882412865203L80.00000000000001,231.5845492487146L82.5,230.21208519291727L85,232.720485981143L87.5,227.61135994761685L90,228.3725215731156L92.5,228.88882412865203L95,230.75496307913633L97.5,231.86527327047187L100,232.720485981143L102.5,235.4118416828467L105,236.99642103761164L107.50000000000001,239.6823348537063L110,239.33571229796897L112.5,240.74216930127218L115,241.83333340121177L117.5,245.72272009886916L120,244.11746584523738L122.5,246.97419692862917L125,244.9113680768396L127.5,244.9113680768396L130,248.26959408595184L132.5,244.9113680768396L135,244.9113680768396L137.5,246.55230626844747L140,240.74216930127218L142.5,241.46601662968715L147.5,236.99642103761164L150,234.49274779385823L152.5,239.33571229796897L155,242.95773598858096L157.5,245.31481505391884L160.00000000000003,256.07007582118166L162.5,257.17209888015293L165,262.58397066905L167.5,268.1666665987881L170,265.26988448514464L172.5,267.4208830326501L175,268.92782822428677L177.5,268.1666665987881L180,268.1666665987881L182.5,269.7050154766757L185,271.31026973030754L187.50000000000003,276.5928418039593L190,265.97304919225377L192.5,253.96007120455394L195,254.47637376009033L197.5,254.99999999999994L200,245.31481505391884L202.5,241.1023188014488L205,240.74216930127218L207.5,243.7268269516597L210,251.96417805734453L212.5,250.53503064152426L215.00000000000003,250.07068450689655L217.5,257.17209888015293L220,260.0802974252966L222.5,257.17209888015293L225,256.6169751716415L227.5,252.94863722407877L230,249.61210679652652L232.5,247.40096504550849L235,245.31481505391884L237.5,241.83333340121177L240,241.83333340121177L242.50000000000003,238.6520810762588L245,239.33571229796897L247.5,242.20434186042002L252.5,235.4118416828467L255,227.86334065953463L257.5,225.4177425410826L260,217.94549718515495L262.5,213.57606430838536L265,213.57606430838536L267.5,213.74816266653062L270,204.89497655830493L272.5,199.24329611270292L275,193.93744114268694L277.5,187.47698181338197L280,179.99232655378455L282.5,180.0615206339532L285,179.23963070769724L287.5,172.45282290191028L290,164.65770906416867L292.5,159.03900666381725L295,154.57800591673166L297.5,148.77360107105386L300,145.40118565526458L302.50000000000006,144.49163888150642L305,138.19092018556822L307.5,135.52690024683614L310,131.412276298882L312.5,129.62089908177222L315,130.3522669371103L317.5,131.02495540858118L320.00000000000006,130.75076476230612L322.5,133.2755312142891L325,134.68672172706854L327.5,137.15841821460393L330,137.9466694655656L332.5,138.12414591780714L335,138.61665212013787L337.49999999999994,138.7973870268754L340,139.11581810393358L342.5,139.16153331839746L345,140.34682026958095L347.5,145.7549630791363L350,143.24456639834366L352.5,142.16208424837376L355,142.46099301481485L357.50000000000006,139.80756284777712L360,135.90188685576945L362.5,133.11985346764916L365,127.94618684301267L367.5,126.57113553979643L370,125.75094646245883L372.5,125.81462052906386L375.00000000000006,125.92631511037956L377.5,126.86502057597063L380,126.34416493743791L382.5,126.45747579892472L385,126.78315087960206L387.5,126.4088714061733L390,126.61995419045782L392.49999999999994,126.70146235110973L395,128.16627252243833L397.5,128.11536693271879L400,128.97309675947983L402.5,132.04811322028172L405,135.21729515305253L407.5,134.9510552181276L410,137.05025806994914L412.5,138.03530103506185L415,143.55240721743752L417.5,146.8371046075546L420,148.9222723592464L422.5,147.31891991293386L425,147.69165737291345L427.5,149.52301842364932L430.00000000000006,150.2570614520585L432.5,147.92291909065105L435,144.75683420998263L437.5,143.09160334400428L440,142.71194592527752L442.5,142.5360999195882L445,146.0018872838259L447.49999999999994,142.86334065953469L450,138.6843240565259L452.5,132.23722752200916L455,126.94707224558584L457.5,126.11858133126918L460,126.10252084332308L462.5,120.5246141525048L465,119.99010093147616L467.5,116.76106877312137L470,118.00351881937594L472.5,119.57068430326116L475,119.70546003150851L477.5,119.75950840274758L480,121.68860329741675L482.5,122.87577718946993L485.00000000000006,129.1470604695618L487.5,132.56096213555105L490,135.07369662980764L492.5,135.54763320495582L495,135.71391740937415L497.5,136.45034883320847L500,136.87785831253393L502.49999999999994,137.02866401787878L505,137.44112675540376L507.5,137.70402422947774L510,137.70402422947774L512.5,137.4629635090496L515,136.17509926287678L517.5,134.56535713239776L520,132.12364272174423L522.5,129.8690087212161L525,127.79458486007726L527.5,126.65253586155951L530,126.76679870615118L532.5,128.507448989445L535,127.52659797743566L537.5,126.3118541861745L540,127.16126405494666L542.5,126.6199541904579L545,125.84649879612421L547.5,125.6715080178553L550,123.79944600630975L552.5,125.87840461570921L555,130.11879722067448L557.5,133.90489168509666L560,142.16208424837376L562.5,148.12646841829826" style="fill: none; stroke: #4c78a8; stroke-width: 2; stroke-dasharray: 4,2;"></path></g></g><path class="foreground" d="" style="display: none; fill: none;"></path></g><g transform="translate(0,0)"><path class="background" d="M0,0h585v425h-585Z" style="fill: none;"></path><g><g class="mark-line role-mark marks"><path d="M0,340L2.5000000000000004,340L7.5,329.38020738829454L10.000000000000002,314.41245036856157L12.5,307.6820444545135L15,303.7926577568561L17.5,285.06758942529865L20.000000000000004,276.5928418039594L22.5,269.70501547667584L25,251.48162176155088L27.5,235.4118416828467L30,225.6551390567371L32.5,213.92106710891912L35,209.20902729287516L37.5,206.98901791805181L40.00000000000001,206.41889027745793L42.5,199.35993137864753L45,198.32324771800756L47.5,195.06392339152885L50,196.76635905394983L52.5,196.5492111868495L55,197.53659628636876L57.5,198.66558430706624L60,203.9569761229561L62.5,207.1329363497046L65,214.09478522226794L67.5,216.0616685204703L70,224.9474810100859L72.5,225.41774254108262L75,225.18186294642703L77.5,229.6770753796138L80.00000000000001,232.43320802577574L82.5,231.30594391900956L85,232.72048598114304L87.5,226.86557638147897L90,227.36108759264047L92.5,227.6113599476169L95,229.6770753796138L97.5,230.21208519291727L100,228.37252157311565L102.5,231.5845492487146L105,233.59598229552708L107.50000000000001,236.0375351527881L110,236.3544043169238L112.5,237.32166570512115L115,235.72336278019125L117.5,242.57911696734982L120,241.83333340121183L122.5,241.83333340121183L125,240.38549956081553L127.5,239.33571229796905L130,239.33571229796905L132.5,238.65208107625887L135,236.3544043169238L137.5,237.64980147424643L140,234.79657692431363L142.5,235.41184168284678L147.5,232.14814845513075L150,231.02942554020325L152.5,236.35440431692382L155,239.68233485370644L157.5,241.10231880144892L160.00000000000003,251.00529217252108L162.5,252.9486372240789L165,255.00000000000003L167.5,258.3080356125815L170,255.53116068854524L172.5,260.0802974252967L175,260.0802974252967L177.5,260.0802974252967L180,258.3080356125815L182.5,261.3109124116297L185,267.42088303265035L187.50000000000003,267.42088303265035L190,258.88938669765747L192.5,251.48162176155094L195,250.53503064152437L197.5,251.96417805734467L200,242.57911696734982L202.5,236.6740169711549L205,236.6740169711549L207.5,238.99231418482114L210,244.1174658452375L212.5,242.57911696734982L215.00000000000003,241.83333340121192L217.5,249.15915594859595L220,252.9486372240789L222.5,253.45089029097318L225,253.45089029097318L227.5,249.61210679652666L230,248.26959408595192L232.5,246.13518283639425L235,242.2043418604202L237.5,239.68233485370644L240,239.68233485370644L242.50000000000003,236.03753515278817L245,236.6740169711549L247.5,238.99231418482117L250,240.38549956081553L252.5,236.6740169711549L255,231.02942554020325L257.5,226.62029288129244L260,219.1237364869557L262.5,213.23425602408687L265,211.4088714061733L267.5,211.24731740232139L270,204.75950840274757L272.5,198.5511190030681L275,193.5361868555173L277.5,188.3335174774807L280,182.34712670249596L282.5,182.71739089954505L285,181.98053946982893L287.5,174.0067636835502L290,165.72241698786218L292.5,159.99170549910622L295,155.20844871321066L297.5,148.83299775476414L300,145.050766519755L302.50000000000006,143.42382808722837L305,137.57234145858644L307.5,134.9918904335326L310,130.42440185202622L312.5,128.64480740266762L315,129.1470604695618L317.5,130.04725644060568L320.00000000000006,130.22636902373657L322.5,132.199327076214L325,133.43186826515785L327.5,136.13293474548658L330,136.30188255050518L332.5,136.2384364776627L335,136.72766617467283L337.49999999999994,136.7919594233692L340,137.13676081828794L342.5,136.57808263180337L345,137.52855138113617L347.5,142.81280672835533L350,140.87010911014622L352.5,139.48313487545823L355,139.62182645110386L357.50000000000006,136.53545557052888L360,132.2941512510401L362.5,128.83451365552318L365,123.75421623022659L367.5,122.16178748908787L370,121.6886032974167L372.5,121.902935412751L375.00000000000006,122.20510652119962L377.5,123.5738492706115L380,123.93546879221097L382.5,124.59236439241235L385,125.27685992559202L387.5,124.8863863149336L390,125.04208047639932L392.49999999999994,125.08891706246048L395,126.66883748733193L397.5,126.53862560289839L400,126.79951029975089L402.5,128.45607106749551L405,131.26424590117188L407.5,130.98827877271583L410,132.04811322028172L412.5,132.199327076214L415,135.52690024683608L417.5,137.33213632795275L420,138.41437747178273L422.5,135.81822669313684L425,136.1540109841189L427.5,135.79734124366223L430.00000000000006,136.34424059412203L432.5,134.91026512451683L435,133.88506088635927L437.5,134.62598955384985L440,135.73475570005542L442.5,135.54763320495582L445,141.9641479512942L447.49999999999994,140.53624996536902L450,137.858250187457L452.5,131.63544089366815L455,126.32800602671294L457.5,125.6715080178553L460,125.60808011400022L462.5,120.44187590876474L465,119.6380106596251L467.5,116.62418496868617L470,117.70814562682646L472.5,119.51691148827324L475,119.53034735046404L477.5,119.58413975482685L480,121.10903318114877L482.5,122.45154589172353L485.00000000000006,128.33646660427664L487.5,131.97273793945018L490,133.9644480803139L492.5,134.24365548021493L495,134.32381844540123L497.5,134.82881990458068L500,134.46452387942338L502.49999999999994,134.48466850800614L505,134.84916436966535L507.5,134.62598955384985L510,134.5048241355676L512.5,134.26367990759056L515,132.8489872453173L517.5,131.9351079352113L520,129.46227612170782L522.5,126.97994404736778L525,125.1984340814314L527.5,124.42320544588662L530,124.60778098522852L532.5,126.4899143167957L535,125.12017449952003L537.5,124.17853160261399L540,124.96415131306588L542.5,124.91747265863319L545,123.84473126771793L547.5,123.64889510040501L550,121.26363662075083L552.5,121.32001697682193L555,121.85996931948716L557.5,120.37306874818802L560,119.53034735046408L562.5,119.32932109058979L565,119.19590919633144L567.5,118.11974605502846L570,118.69329620928004L572.5,118.77220261116905L575,120.88530503596057L577.5,123.95061342051028L580,126.84863210468625L582.5,127.62686521235729L585,136.0067293885028" style="fill: none; stroke: darkgray; stroke-width: 2; stroke-dasharray: 1,0;"></path></g></g><path class="foreground" d="" style="display: none; fill: none;"></path></g><g transform="translate(0,0)"><path class="background" d="M0,0h585v425h-585Z" style="fill: none;"></path><g><g class="mark-line role-mark marks"><path d="M0,340L2.5000000000000004,340L7.5,329.38020738829454L10.000000000000002,314.41245036856157L12.5,307.6820444545135L15,303.7926577568561L17.5,285.06758942529865L20.000000000000004,276.5928418039594L22.5,269.70501547667584L25,251.48162176155088L27.5,235.4118416828467L30,225.6551390567371L32.5,213.92106710891912L35,209.20902729287516L37.5,206.98901791805181L40.00000000000001,206.41889027745793L42.5,199.35993137864753L45,198.32324771800756L47.5,195.06392339152885L50,196.76635905394983L52.5,196.5492111868495L55,197.53659628636876L57.5,198.66558430706624L60,203.9569761229561L62.5,207.1329363497046L65,214.09478522226794L67.5,216.0616685204703L70,224.9474810100859L72.5,225.6551390567371L75,225.41774254108262L77.5,229.9436110571068L80.00000000000001,233.01001711995553L82.5,232.1481484551307L85,233.59598229552708L87.5,227.6113599476169L90,227.8633406595347L92.5,228.11705321123904L95,230.48252618974337L97.5,230.75496307913633L100,228.6297702166816L102.5,231.8652732704719L105,233.89249016242186L107.50000000000001,236.3544043169238L110,236.67401697115486L112.5,236.99642103761173L115,235.41184168284678L117.5,242.2043418604201L120,241.10231880144886L122.5,241.10231880144886L125,239.68233485370638L127.5,238.65208107625887L130,238.99231418482114L132.5,238.31495516276271L135,235.72336278019125L137.5,237.32166570512115L140,234.4927477938583L142.5,235.10292748716375L147.5,231.8652732704719L150,230.75496307913633L152.5,236.0375351527881L155,239.68233485370638L157.5,241.10231880144892L160.00000000000003,251.00529217252108L162.5,252.9486372240789L165,255.00000000000003L167.5,258.3080356125815L170,255.53116068854519L172.5,260.0802974252967L175,260.0802974252967L177.5,260.0802974252967L180,258.3080356125815L182.5,261.3109124116296L185,267.4208830326503L187.50000000000003,267.4208830326503L190,258.88938669765747L192.5,251.48162176155094L195,250.53503064152437L197.5,251.96417805734464L200,242.57911696734982L202.5,236.6740169711549L205,236.6740169711549L207.5,238.99231418482114L210,244.1174658452375L212.5,242.57911696734982L215.00000000000003,241.83333340121192L217.5,249.15915594859595L220,252.9486372240789L222.5,253.45089029097318L225,253.45089029097318L227.5,249.61210679652666L230,248.26959408595192L232.5,246.13518283639425L235,242.2043418604202L237.5,239.68233485370644L240,239.68233485370644L242.50000000000003,236.35440431692382L245,236.99642103761173L247.5,239.3357122979691L250,240.74216930127227L252.5,236.99642103761173L255,231.30594391900956L257.5,226.86557638147897L260,219.1237364869557L262.5,213.23425602408687L265,211.4088714061733L267.5,211.24731740232139L270,204.75950840274757L272.5,198.5511190030681L275,193.5361868555173L277.5,188.3335174774807L280,182.34712670249596L282.5,182.71739089954505L285,181.98053946982893L287.5,174.06559243060096L290,165.76941257786535L292.5,160.0722181394446L295,155.2791671849567L297.5,148.92227235924645L300,145.13133773608763L302.50000000000006,143.5009218102609L305,137.61618354326683L307.5,135.03277087066934L310,130.42440185202622L312.5,128.64480740266762L315,129.12962716063723L317.5,130.02939288789233L320.00000000000006,130.2084186071603L322.5,132.1803914353978L325,133.4122898871005L327.5,136.1540109841189L330,136.32305549686245L332.5,136.2384364776627L335,136.72766617467283L337.49999999999994,136.7919594233692L340,137.15841821460393L342.5,136.556762948299L345,137.48481318767608L347.5,142.76234187981012L350,140.84616163544212L352.5,139.46007018807137L355,139.59867497278987L357.50000000000006,136.492877675426L360,132.2941512510401L362.5,128.83451365552324L365,123.75421623022659L367.5,122.16178748908787L370,121.68860329741675L372.5,121.902935412751L375.00000000000006,122.23401414285058L377.5,123.63387372442486L380,123.99608462021796L382.5,124.7158777856377L385,125.40268887047L387.5,125.01088906688688L390,125.16711033669085L392.49999999999994,125.18276888664428L395,126.73411607368271L397.5,126.60367413243797L400,126.79951029975093L402.5,128.45607106749551L405,131.26424590117188L407.5,130.98827877271594L410,132.04811322028172L412.5,132.199327076214L415,135.52690024683614L417.5,137.33213632795275L420,138.41437747178273L422.5,135.81822669313695L425,136.1540109841189L427.5,135.79734124366223L430.00000000000006,136.34424059412206L432.5,134.88988696724437L435,133.8652407350312L437.5,134.60576767935805L440,135.71391740937415L442.5,135.52690024683614L445,141.9394803720524L447.49999999999994,140.51251802564988L450,137.858250187457L452.5,131.63544089366815L455,126.32800602671294L457.5,125.6715080178553L460,125.60808011400022L462.5,120.44187590876483L465,119.6380106596251L467.5,116.63660799790036L470,117.73373663718357L472.5,119.55723375439243L475,119.57068430326116L477.5,119.6245355614789L480,121.151133582171L482.5,122.49520648931664L485.00000000000006,128.42185880280223L487.5,132.0858586540015L490,134.1836472887913L492.5,134.46452387942338L495,134.54516843571636L497.5,135.15568451683995L500,134.91026512451683L502.49999999999994,135.03277087066925L505,135.54763320495582L507.5,135.60990203776115L510,135.6514730229672L512.5,135.40274643823204L515,134.04400636749116L517.5,133.21707509603772L520,130.75076476230612L522.5,128.38767821613624L525,126.39268415269666L527.5,125.5289481845307L530,125.71915056819182L532.5,127.50991321739488L535,126.13464880963461L537.5,125.07329826342826L540,125.6556408218398L542.5,125.40268887046994L545,124.25481811656152L547.5,124.05680014535524L550,121.80275887647984L552.5,122.24847644703625L555,123.63387372442482L557.5,124.16329319952378L560,127.84504970862237L562.5,131.0616685204702L565,131.59815298043532L567.5,139.32198387632744" style="fill: none; stroke: darkgray; stroke-width: 2; stroke-dasharray: 4,2;"></path></g></g><path class="foreground" d="" style="display: none; fill: none;"></path></g><g transform="translate(0,0)"><path class="background" d="M0,0h585v425h-585Z" style="fill: none;"></path><g><g class="mark-line role-mark marks"><path d="M0,299.4446933488287L2.5000000000000004,293.75421623022663L7.5,244.38020738829454L10.000000000000002,221.54610772208503L12.5,214.94020455999024L15,205.39599022111432L17.5,199.35993137864753L20.000000000000004,192.45471046878419L22.5,190.4741188890319L25,185.65976777088295L27.5,177.5839706690501L30,168.75555527445434L32.5,158.03392802999838L35,147.37601974019125L37.5,143.21902849973827L40.00000000000001,142.08773370770732L42.5,131.37521301167044L45,123.95061342051028L47.5,114.4769363290958L50,108.97780750095939L52.5,104.35265492855187L55,103.98921910322315L57.5,103.73429824308496L60,102.43467231767687L62.5,100.10777197564947L65,100.79704355553567L67.5,100.49891770827804L70,106.97341250411266L72.5,107.40629730648537L75,107.1171441495286L77.5,106.69710823367775L80.00000000000001,106.14127616141592L82.5,104.35265492855187L85,103.39422587051989L87.5,96.22950354568931L90,94.47746421949803L92.5,94.06394104694586L95,92.08863216019178L97.5,91.39234035717746L100,90.68432512609365L102.5,88.3311147199051L105,87.55440843571824L107.50000000000001,86.72733409079048L110,86.99911602869109L112.5,84.43480277488439L115,79.33514628345762L117.5,75.56310055780517L120,73.39415230547147L122.5,68.35188866355418L125,66.97699718503951L127.5,66.84776536756033L130,63.17315199197076L132.5,59.95431261710684L135,55.74097691446964L137.5,50.353201595592886L140,45.066916337973225L142.5,43.919334049555864L147.5,37.64842652353394L150,35.2084529527161L152.5,33.66703151164999L155,32.47099509412653L157.5,31.719950309999202L160.00000000000003,36.42879218837633L162.5,38.61435506932217L165,39.29149171602963L167.5,39.19377629866457L170,39.21970673901554L172.5,40.736634920844054L175,40.167110336690875L177.5,40.73504509199474L180,40.73345533161196L182.5,43.701616984226625L185,42.819808660827505L187.50000000000003,41.8846963502457L190,39.41860286113389L192.5,38.947583997755196L195,37.80815914706051L197.5,37.670367107218034L200,33.4001936154655L202.5,32.91208596321775L205,31.63412305757689L207.5,30.173723715449604L210,29.25028384612986L212.5,29.230488702485435L215.00000000000003,29.225832563865833L217.5,28.04037253334876L220,27.474382423868395L222.5,28.364160877623846L225,28.935983155771776L227.5,30.094988161962238L230,30.35929596150302L232.5,30.277768740791554L235,31.614249554560324L237.5,32.930097061137765L240,33.228555966105326L242.50000000000003,33.03060579451459L245,32.33272451186154L247.5,32.15336556062853L250,32.259359911378255L252.5,31.86844168552162L255,32.192447099029906L257.5,32.207586551447854L260,33.87371357219642L262.5,35.613073157749575L265,36.0543743428817L267.5,36.072584964729195L270,35.63937528281083L272.5,35.075922951074716L275,33.22466437011178L277.5,31.476670922780386L280,29.76163251990297L282.5,31.594386744846908L285,31.53114527154339L287.5,28.3937374964137L290,26.316117373101235L292.5,25.435982229344432L295,24.063732853145268L297.5,19.46417404835252L300,17.165873383480996L302.50000000000006,16.909021205414902L305,15.503733026365913L307.5,12.894949847575651L310,10.640892944353029L312.5,10.07468218424275L315,12.771761509920937L317.5,13.888626825947007L320.00000000000006,13.810348696783894L322.5,16.509326285468166L325,19.991514890185776L327.5,24.09815907355411L330,26.66305453285084L332.5,29.948700333930688L335,31.02907637592474L337.49999999999994,31.39017251782521L340,34.75545202881218L342.5,38.19792313322536L345,43.037447781858155L347.5,52.589872044674856L350,55.22421019199325L352.5,54.20043581255047L355,54.156959248512166L357.50000000000006,52.87812606832704L360,51.36755825205546L362.5,47.35306479850357L365,40.0514430408394L367.5,37.03788725714782L370,36.249554976116265L372.5,36.53079487173805L375.00000000000006,35.1441779645327L377.5,34.76086062645006L380,35.196136309896495L382.5,35.711456024048836L385,35.88948748938514L387.5,35.81010179299251L390,35.830976219667036L392.49999999999994,36.974656886568724L395,38.16676807661076L397.5,38.12823154355972L400,37.43118860466474L402.5,37.31362702354242L405,39.43701664426254L407.5,39.293020573620836L410,39.13740234191815L412.5,38.77983963228637L415,40.68579432788106L417.5,43.558898518277545L420,46.07820134046531L422.5,44.18020645549775L425,44.283323575160594L427.5,44.940204559990235L430.00000000000006,44.66861918685286L432.5,43.12723862632874L435,41.43964675681928L437.5,41.59390954278658L440,42.05566046149211L442.5,42.08533095013169L445,48.15676753026436L447.49999999999994,47.71429581794708L450,46.61306362628555L452.5,46.523689957785486L455,44.61030298612615L457.5,43.46462909024438L460,43.26148451948451L462.5,36.95886620208771L465,36.303093826634786L467.5,36.3835479760875L470,35.198872986520286L472.5,33.73798912691749L475,33.672282956421896L477.5,33.67884831311159L480,33.091301141668396L482.5,32.99578333281916L485.00000000000006,32.933957725689055L487.5,33.74193521870574L490,34.87869410668682L492.5,34.98329819839481L495,35.122322626414615L497.5,36.13709477958246L500,36.99476389533196L502.49999999999994,37.72454303450258L505,38.12230641518751L507.5,38.61735726767787L510,38.66692882375426L512.5,38.46605059613076L515,37.099785391378106L517.5,35.32360688599345L520,33.396283884199015L522.5,31.86469085681486L525,30.336498164926788L527.5,30.11048340451722L530,30.203591696885287L532.5,32.98933833202381L535,33.13527070555314L537.5,33.43539984324372L540,33.64078548782012L542.5,34.37345303642376L545,34.35071180882521L547.5,34.2078965420974L550,31.380299878857112L552.5,31.609282850084377L555,32.187401994339545L557.5,32.749099763282494L560,32.278319541468434L562.5,32.311205985480235L565,32.354255589148345L567.5,33.03060579451459L570,34.66632438661804L572.5,38.08085712395266L575,41.63461238388058L577.5,48.68142123066554L580,51.33788378826964L582.5,51.91227391317312L585,64.05360022756916" style="fill: none; stroke: #54a24b; stroke-width: 2; stroke-dasharray: 1,0;"></path></g></g><path class="foreground" d="" style="display: none; fill: none;"></path></g><g transform="translate(0,0)"><path class="background" d="M0,0h585v425h-585Z" style="fill: none;"></path><g><g class="mark-line role-mark marks"><path d="M0,299.4446933488287L2.5000000000000004,293.75421623022663L7.5,244.38020738829454L10.000000000000002,221.54610772208503L12.5,214.94020455999024L15,205.39599022111432L17.5,199.35993137864753L20.000000000000004,192.45471046878419L22.5,190.4741188890319L25,185.74045639527458L27.5,177.6487907576308L30,168.80657813117674L32.5,158.07208310415675L35,147.4046028085661L37.5,143.24456639834366L40.00000000000001,142.11250058616858L42.5,131.37521301167044L45,123.95061342051028L47.5,114.4769363290958L50,108.97780750095939L52.5,104.35265492855187L55,103.98921910322315L57.5,103.73429824308496L60,102.43467231767687L62.5,100.10777197564947L65,100.79704355553567L67.5,100.49891770827804L70,106.97341250411266L72.5,107.40629730648537L75,107.1171441495286L77.5,106.69710823367775L80.00000000000001,106.14127616141592L82.5,104.35265492855187L85,103.39422587051989L87.5,96.22950354568931L90,94.47746421949803L92.5,94.06394104694586L95,92.08863216019178L97.5,91.39234035717746L100,90.68432512609365L102.5,88.3311147199051L105,87.55440843571824L107.50000000000001,86.72733409079048L110,86.99911602869109L112.5,84.43480277488439L115,79.33514628345762L117.5,75.56310055780517L120,73.39415230547147L122.5,68.35188866355418L125,66.97699718503951L127.5,66.84776536756033L130,63.17315199197076L132.5,59.95431261710684L135,55.74097691446964L137.5,50.353201595592886L140,45.066916337973225L142.5,43.919334049555864L147.5,37.64842652353394L150,35.2084529527161L152.5,33.66703151164999L155,32.47099509412653L157.5,31.719950309999202L160.00000000000003,36.42879218837633L162.5,38.61435506932217L165,39.29149171602963L167.5,39.19377629866457L170,39.21970673901554L172.5,40.736634920844054L175,40.167110336690875L177.5,40.73504509199474L180,40.73345533161196L182.5,43.701616984226625L185,42.819808660827505L187.50000000000003,41.8846963502457L190,39.41860286113389L192.5,38.947583997755196L195,37.80815914706051L197.5,37.670367107218034L200,33.4001936154655L202.5,32.91208596321775L205,31.63412305757689L207.5,30.173723715449604L210,29.25028384612986L212.5,29.230488702485435L215.00000000000003,29.225832563865833L217.5,28.04037253334876L220,27.474382423868395L222.5,28.364160877623846L225,28.935983155771776L227.5,30.094988161962238L230,30.35929596150302L232.5,30.277768740791554L235,31.614249554560324L237.5,32.930097061137765L240,33.228555966105326L242.50000000000003,33.03060579451459L245,32.33272451186154L247.5,32.15336556062853L250,32.259359911378255L252.5,31.87344338337653L255,32.22399463454576L257.5,32.240410013991585L260,33.90805313835807L262.5,35.649070265391636L265,36.090804574526096L267.5,36.109033181148895L270,35.669853805939766L272.5,35.08137871032527L275,33.23115059137167L277.5,31.495232693931463L280,29.779351451601944L282.5,31.613007815792276L285,31.554693159343103L287.5,28.418782388396046L290,26.346250336902855L292.5,25.471712896657028L295,24.08803038146355L297.5,19.485624324797637L300,17.186028552511896L302.50000000000006,16.92569993472849L305,15.517379839676549L307.5,12.90093307721096L310,10.640892944353075L312.5,10.07468218424275L315,12.771761509920937L317.5,13.888626825947007L320.00000000000006,13.810348696783894L322.5,16.509326285468166L325,19.991514890185826L327.5,24.09815907355411L330,26.66305453285084L332.5,29.948700333930688L335,31.029076375924785L337.49999999999994,31.390172517825306L340,34.75815622857625L342.5,38.200891653267384L345,43.04083215325286L347.5,52.594255992303296L350,55.22891844159624L352.5,54.2050152730404L355,54.16153331839757L357.50000000000006,52.878126068327084L360,51.36755825205551L362.5,47.35306479850362L365,40.051443040839445L367.5,37.037887257147915L370,36.25096289888246L372.5,36.53221356203872L375.00000000000006,35.17561769952902L377.5,34.801450387497965L380,35.23720777715258L382.5,35.78228757304972L385,35.96066179565407L387.5,35.8797291684231L390,35.90064301576837L392.49999999999994,37.01488186202035L395,38.19792313322541L397.5,38.15935407988738L400,37.43118860466479L402.5,37.31362702354242L405,39.43701664426259L407.5,39.293020573620836L410,39.1374023419182L412.5,38.77983963228641L415,40.68579432788111L417.5,43.558898518277594L420,46.07820134046531L422.5,44.18020645549775L425,44.283323575160644L427.5,44.940204559990285L430.00000000000006,44.670387783377926L432.5,43.128934894265285L435,41.44126722304996L437.5,41.595536795038896L440,42.0573081964875L442.5,42.086980010057474L445,48.19177283039627L447.49999999999994,47.86634042412041L450,46.7606305499772L452.5,46.67089933214052L455,44.75006245366473L457.5,43.6001098325905L460,43.39622039619576L462.5,37.06234620869456L465,36.317195912974256L467.5,36.39768083650582L470,35.21255941369842L472.5,33.75246019285641L475,33.68672828275059L477.5,33.69329620928015L480,33.09259361688737L482.5,32.9970724680173L485.00000000000006,32.966145641651465L487.5,33.83017468969482L490,35.05138200773808L492.5,35.18108821390797L495,35.320860946991075L497.5,36.49818003384886L500,37.6615893088265L502.49999999999994,38.581346991966065L505,39.300665811498824L507.5,40.21724109430071L510,40.41529538675816L512.5,40.21724109430071L515,39.13587991564885L517.5,37.39341197268279L520,35.54947183019811L522.5,34.05899716250002L525,32.38974593891297L527.5,32.150845591280664L530,32.23914703330613L532.5,34.832599457020024L535,34.759508402747606L537.5,34.85428388731487L540,34.767622488056034L542.5,35.15237705340073L545,34.98329819839481L547.5,34.83937447327444L550,32.01376677620041L552.5,32.79522754139925L555,34.52094173348302L557.5,37.323771899908515L560,42.64360292788399L562.5,45.20841860716037L565,45.667086047904284L567.5,56.442259486289466" style="fill: none; stroke: #54a24b; stroke-width: 2; stroke-dasharray: 4,2;"></path></g></g><path class="foreground" d="" style="display: none; fill: none;"></path></g><g transform="translate(0,0)"><path class="background" d="M0,0h585v425h-585Z" style="fill: none;"></path><g><g class="mark-line role-mark marks"><path d="M10.000000000000002,340L12.5,365.58754963143843L15,380.55530665117135L17.5,391.1750992628768L20.000000000000004,358.8571437173903L22.5,354.9677570197329L25,345.69047711860213L27.5,345.69047711860213L30,345.69047711860213L32.5,330.7227200988692L35,323.3149551627627L37.5,320.10292748716375L40.00000000000001,314.41245036856157L42.5,311.86557638147895L45,311.86557638147895L47.5,307.24517508405853L50,314.4124503685616L52.5,307.24517508405853L55,305.13517046743084L57.5,307.24517508405853L60,307.24517508405853L62.5,303.13927732022137L65,301.2457837697734L67.5,294.5153778557253L70,293.0084326640887L72.5,294.5153778557253L75,297.7274055313243L77.5,293.0084326640887L80.00000000000001,293.0084326640887L82.5,291.5605988236923L85,291.5605988236923L87.5,297.7274055313243L90,299.4446933488287L92.5,294.5153778557253L95,303.13927732022137L97.5,299.4446933488287L100,299.4446933488287L102.5,303.13927732022137L105,301.2457837697734L107.50000000000001,303.13927732022137L110,299.4446933488287L112.5,301.2457837697734L115,307.24517508405853L117.5,317.1481484551307L120,320.10292748716375L122.5,320.10292748716375L125,311.86557638147895L127.5,320.10292748716375L130,311.86557638147895L132.5,311.86557638147895L135,309.4831348754582L137.5,307.24517508405853L140,314.41245036856157L142.5,326.83333340121186L147.5,335.0706845068966L150,352.42088303265024L152.5,360.65823413833505L155,371.2780267500405L157.5,386.2457837697734L160.00000000000003,371.2780267500405L162.5,360.65823413833505L165,352.42088303265024L167.5,340L170,335.0706845068966L172.5,330.7227200988692L175,330.7227200988692L177.5,330.7227200988692L180,335.0706845068966L182.5,340L185,345.69047711860213L187.50000000000003,345.69047711860213L190,345.69047711860213L192.5,352.42088303265024L195,345.69047711860213L197.5,340L200,330.7227200988692L202.5,335.0706845068966L205,345.69047711860213L207.5,340L210,340L212.5,345.69047711860213L215.00000000000003,345.69047711860213L217.5,345.69047711860213L220,345.69047711860213L222.5,345.69047711860213L225,352.42088303265024L227.5,352.42088303265024L230,360.65823413833505L232.5,371.2780267500405L235,386.2457837697734L237.5,386.2457837697734L240,386.2457837697734L242.50000000000003,386.2457837697734L245,386.2457837697734L247.5,371.2780267500405L250,371.2780267500405L252.5,386.2457837697734L255,386.2457837697734L257.5,386.2457837697734L260,411.8333334012118L262.5,386.2457837697734L265,386.2457837697734L267.5,386.2457837697734L270,371.2780267500405L272.5,360.65823413833505L275,360.65823413833505L277.5,352.42088303265024L280,352.42088303265024L282.5,352.42088303265024L285,345.69047711860213L287.5,340L290,330.7227200988692L292.5,323.3149551627627L295,323.3149551627627L297.5,317.14814845513075L300,314.4124503685616L302.50000000000006,311.86557638147895L305,305.13517046743084L307.5,311.86557638147895L310,314.4124503685616L312.5,307.24517508405853L315,309.48313487545823L317.5,309.48313487545823L320.00000000000006,311.86557638147895L322.5,311.86557638147895L325,305.13517046743084L327.5,301.2457837697734L330,299.4446933488287L332.5,293.0084326640887L335,288.82490073712324L337.49999999999994,287.5295035798006L340,283.89558524401986L342.5,274.7467055800343L345,272.1398558998859L347.5,270.4989177082781L350,270.4989177082781L352.5,270.4989177082781L355,264.57986381625955L357.50000000000006,265.9730491922539L360,269.70501547667584L362.5,269.70501547667584L365,269.70501547667584L367.5,272.988514676947L370,273.8571437173903L372.5,273.8571437173903L375.00000000000006,267.42088303265024L377.5,265.26988448514476L380,263.23735110568475L382.5,261.9419539483622L385,255.00000000000003L387.5,253.45089029097312L390,254.4763737600904L392.49999999999994,256.6169751716416L395,257.73569808656913L397.5,258.8893866976574L400,260.69047711860213L402.5,265.973049192254L405,267.42088303265024L407.5,270.4989177082781L410,274.7467055800343L412.5,276.5928418039594L415,277.551727688783L417.5,279.5476208359924L420,285.0675894252987L422.5,288.82490073712324L425,287.5295035798006L427.5,283.89558524401986L430.00000000000006,279.5476208359924L432.5,281.65762545262015L435,276.5928418039594L437.5,271.31026973030765L440,265.26988448514476L442.5,262.58397066905L445,262.58397066905L447.49999999999994,261.9419539483622L450,257.73569808656913L452.5,257.73569808656913L455,253.96007120455403L457.5,255.00000000000003L460,252.4531260129174L462.5,251.48162176155088L465,253.45089029097312L467.5,256.6169751716416L470,260.08029742529664L472.5,265.26988448514476L475,268.9278282242869L477.5,273.8571437173903L480,277.551727688783L482.5,281.65762545262015L485.00000000000006,275.65823413833505L487.5,272.988514676947L490,272.1398558998859L492.5,271.31026973030765L495,269.70501547667584L497.5,270.4989177082781L500,264.57986381625955L502.49999999999994,267.42088303265024L505,265.973049192254L507.5,269.70501547667584L510,269.70501547667584L512.5,274.7467055800343L515,274.7467055800343L517.5,274.7467055800343L520,275.65823413833505L522.5,280.58754963143843L525,279.54762083599246L527.5,275.6582341383351L530,272.98851467694703L532.5,270.4989177082781L535,276.5928418039594L537.5,276.5928418039594L540,275.6582341383351L542.5,276.5928418039594L545,283.89558524401986L547.5,288.82490073712324L550,290.167413447698L552.5,290.167413447698L555,286.27802675004057L557.5,287.52950357980063L560,286.27802675004057L562.5,281.6576254526202L565,283.89558524401986L567.5,290.167413447698L570,294.5153778557253L572.5,301.2457837697734L575,303.1392773202214L577.5,309.4831348754583L580,317.14814845513075L582.5,317.14814845513075L585,323.3149551627628" style="fill: none; stroke: #e45756; stroke-width: 2; stroke-dasharray: 1,0;"></path></g></g><path class="foreground" d="" style="display: none; fill: none;"></path></g><g transform="translate(0,0)"><path class="background" d="M0,0h585v425h-585Z" style="fill: none;"></path><g><g class="mark-line role-mark marks"><path d="M10.000000000000002,340L12.5,365.58754963143843L15,380.55530665117135L17.5,391.1750992628768L20.000000000000004,358.8571437173903L22.5,354.9677570197329L25,345.69047711860213L27.5,345.69047711860213L30,345.69047711860213L32.5,330.7227200988692L35,323.3149551627627L37.5,320.10292748716375L40.00000000000001,314.41245036856157L42.5,311.86557638147895L45,311.86557638147895L47.5,307.24517508405853L50,314.4124503685616L52.5,307.24517508405853L55,305.13517046743084L57.5,307.24517508405853L60,307.24517508405853L62.5,303.13927732022137L65,301.2457837697734L67.5,294.5153778557253L70,293.0084326640887L72.5,294.5153778557253L75,297.7274055313243L77.5,293.0084326640887L80.00000000000001,293.0084326640887L82.5,291.5605988236923L85,291.5605988236923L87.5,297.7274055313243L90,299.4446933488287L92.5,294.5153778557253L95,303.13927732022137L97.5,299.4446933488287L100,299.4446933488287L102.5,303.13927732022137L105,301.2457837697734L107.50000000000001,303.13927732022137L110,299.4446933488287L112.5,301.2457837697734L115,307.24517508405853L117.5,317.1481484551307L120,320.10292748716375L122.5,320.10292748716375L125,311.86557638147895L127.5,320.10292748716375L130,311.86557638147895L132.5,311.86557638147895L135,309.4831348754582L137.5,307.24517508405853L140,314.41245036856157L142.5,326.83333340121186L147.5,335.0706845068966L150,352.42088303265024L152.5,360.65823413833505L155,371.2780267500405L157.5,386.2457837697734L160.00000000000003,371.2780267500405L162.5,360.65823413833505L165,352.42088303265024L167.5,340L170,335.0706845068966L172.5,330.7227200988692L175,330.7227200988692L177.5,330.7227200988692L180,335.0706845068966L182.5,340L185,345.69047711860213L187.50000000000003,345.69047711860213L190,345.69047711860213L192.5,352.42088303265024L195,345.69047711860213L197.5,340L200,330.7227200988692L202.5,335.0706845068966L205,345.69047711860213L207.5,340L210,340L212.5,345.69047711860213L215.00000000000003,345.69047711860213L217.5,345.69047711860213L220,345.69047711860213L222.5,345.69047711860213L225,352.42088303265024L227.5,352.42088303265024L230,360.65823413833505L232.5,371.2780267500405L235,386.2457837697734L237.5,386.2457837697734L240,386.2457837697734L242.50000000000003,386.2457837697734L245,386.2457837697734L247.5,371.2780267500405L250,371.2780267500405L252.5,386.2457837697734L255,386.2457837697734L257.5,386.2457837697734L260,411.8333334012118L262.5,386.2457837697734L265,386.2457837697734L267.5,386.2457837697734L270,371.2780267500405L272.5,360.65823413833505L275,360.65823413833505L277.5,352.42088303265024L280,352.42088303265024L282.5,352.42088303265024L285,345.69047711860213L287.5,340L290,330.7227200988692L292.5,323.3149551627627L295,323.3149551627627L297.5,317.14814845513075L300,314.4124503685616L302.50000000000006,311.86557638147895L305,305.13517046743084L307.5,311.86557638147895L310,314.4124503685616L312.5,307.24517508405853L315,309.48313487545823L317.5,309.48313487545823L320.00000000000006,311.86557638147895L322.5,311.86557638147895L325,305.13517046743084L327.5,301.2457837697734L330,299.4446933488287L332.5,293.0084326640887L335,288.82490073712324L337.49999999999994,287.5295035798006L340,283.89558524401986L342.5,274.7467055800343L345,272.1398558998859L347.5,270.4989177082781L350,270.4989177082781L352.5,270.4989177082781L355,264.57986381625955L357.50000000000006,265.9730491922539L360,269.70501547667584L362.5,269.70501547667584L365,269.70501547667584L367.5,272.988514676947L370,273.8571437173903L372.5,273.8571437173903L375.00000000000006,267.42088303265024L377.5,265.26988448514476L380,263.23735110568475L382.5,261.9419539483622L385,255.00000000000003L387.5,253.45089029097312L390,254.4763737600904L392.49999999999994,256.6169751716416L395,257.73569808656913L397.5,258.8893866976574L400,260.69047711860213L402.5,265.973049192254L405,267.42088303265024L407.5,270.4989177082781L410,274.7467055800343L412.5,276.5928418039594L415,277.551727688783L417.5,279.5476208359924L420,285.0675894252987L422.5,288.82490073712324L425,287.5295035798006L427.5,283.89558524401986L430.00000000000006,279.5476208359924L432.5,281.65762545262015L435,276.5928418039594L437.5,271.31026973030765L440,265.9730491922539L442.5,263.23735110568475L445,263.23735110568475L447.49999999999994,262.58397066905L450,258.3080356125814L452.5,258.3080356125814L455,255L457.5,255.53116068854516L460,252.94863722407888L462.5,251.96417805734464L465,253.96007120455403L467.5,257.172098880153L470,260.69047711860213L472.5,265.26988448514476L475,268.9278282242869L477.5,273.8571437173903L480,277.551727688783L482.5,281.65762545262015L485.00000000000006,275.65823413833505L487.5,272.988514676947L490,272.1398558998859L492.5,271.31026973030765L495,269.70501547667584L497.5,270.4989177082781L500,264.57986381625955L502.49999999999994,267.42088303265024L505,265.973049192254L507.5,269.70501547667584L510,270.4989177082781L512.5,277.551727688783L515,277.551727688783L517.5,278.53618685551726L520,279.54762083599246L522.5,285.0675894252987L525,283.89558524401986L527.5,278.53618685551726L530,273.8571437173904L532.5,271.31026973030765L535,277.551727688783L537.5,277.551727688783L540,276.5928418039594L542.5,278.53618685551726L545,286.27802675004057L547.5,291.5605988236923L550,296.0864673397165L552.5,294.5153778557253L555,296.0864673397165L557.5,301.2457837697734L560,301.2457837697734L562.5,299.4446933488287L565,305.1351704674309L567.5,314.4124503685617" style="fill: none; stroke: #e45756; stroke-width: 2; stroke-dasharray: 4,2;"></path></g></g><path class="foreground" d="" style="display: none; fill: none;"></path></g></g><g class="mark-group role-legend"><g transform="translate(0,-36)"><path class="background" d="M0,0h533v18h-533Z" style="pointer-events: none; fill: none;"></path><g><g class="mark-group role-legend-entry"><g transform="translate(0,0)"><path class="background" d="M0,0h0v0h0Z" style="pointer-events: none; fill: none;"></path><g><g class="mark-group role-scope"><g transform="translate(0,0.25)"><path class="background" d="M0,0h113.689453125v17.5h-113.689453125Z" style="pointer-events: none; fill: none; opacity: 1;"></path><g><g class="mark-symbol role-legend-symbol" style="pointer-events: none;"><path transform="translate(10.5,10.5)" d="M-8.660254037844387,0L8.660254037844387,0" style="fill: none; stroke: #4c78a8; stroke-width: 3; opacity: 1;"></path></g><g class="mark-text role-legend-label" style="pointer-events: none;"><text text-anchor="start" transform="translate(25,14.5)" style="font-family: sans-serif; font-size: 14px; fill: #000; opacity: 1;">Casos (oficial)</text></g></g><path class="foreground" d="" style="pointer-events: none; display: none; fill: none;"></path></g><g transform="translate(126,0.25)"><path class="background" d="M0,0h133.1513671875v17.5h-133.1513671875Z" style="pointer-events: none; fill: none; opacity: 1;"></path><g><g class="mark-symbol role-legend-symbol" style="pointer-events: none;"><path transform="translate(10.5,10.5)" d="M-8.660254037844387,0L8.660254037844387,0" style="fill: none; stroke: darkgray; stroke-width: 3; opacity: 1;"></path></g><g class="mark-text role-legend-label" style="pointer-events: none;"><text text-anchor="start" transform="translate(25,14.5)" style="font-family: sans-serif; font-size: 14px; fill: #000; opacity: 1;">Casos (Bioportal)</text></g></g><path class="foreground" d="" style="pointer-events: none; display: none; fill: none;"></path></g><g transform="translate(272,0.25)"><path class="background" d="M0,0h172.0615234375v17.5h-172.0615234375Z" style="pointer-events: none; fill: none; opacity: 1;"></path><g><g class="mark-symbol role-legend-symbol" style="pointer-events: none;"><path transform="translate(10.5,10.5)" d="M-8.660254037844387,0L8.660254037844387,0" style="fill: none; stroke: #54a24b; stroke-width: 3; opacity: 1;"></path></g><g class="mark-text role-legend-label" style="pointer-events: none;"><text text-anchor="start" transform="translate(25,14.5)" style="font-family: sans-serif; font-size: 14px; fill: #000; opacity: 1;">Descartados (Bioportal)</text></g></g><path class="foreground" d="" style="pointer-events: none; display: none; fill: none;"></path></g><g transform="translate(457,0.25)"><path class="background" d="M0,0h75.572265625v17.5h-75.572265625Z" style="pointer-events: none; fill: none; opacity: 1;"></path><g><g class="mark-symbol role-legend-symbol" style="pointer-events: none;"><path transform="translate(10.5,10.5)" d="M-8.660254037844387,0L8.660254037844387,0" style="fill: none; stroke: #e45756; stroke-width: 3; opacity: 1;"></path></g><g class="mark-text role-legend-label" style="pointer-events: none;"><text text-anchor="start" transform="translate(25,14.5)" style="font-family: sans-serif; font-size: 14px; fill: #000; opacity: 1;">Muertes</text></g></g><path class="foreground" d="" style="pointer-events: none; display: none; fill: none;"></path></g></g></g><path class="foreground" d="" style="pointer-events: none; display: none; fill: none;"></path></g></g></g><path class="foreground" d="" style="pointer-events: none; display: none; fill: none;"></path></g></g><g class="mark-group role-legend"><g transform="translate(447,337)"><path class="background" d="M0,0h120v70h-120Z" style="pointer-events: none; fill: white;"></path><g><g class="mark-group role-legend-entry"><g transform="translate(7.5,26.5)"><path class="background" d="M0,0h0v0h0Z" style="pointer-events: none; fill: none;"></path><g><g class="mark-group role-scope"><g transform="translate(0,0)"><path class="background" d="M0,0h104.9580078125v17h-104.9580078125Z" style="pointer-events: none; fill: none; opacity: 1;"></path><g><g class="mark-symbol role-legend-symbol" style="pointer-events: none;"><path transform="translate(10,10)" d="M-8.660254037844387,0L8.660254037844387,0" style="fill: none; stroke: black; stroke-width: 2; stroke-dasharray: 1,0; opacity: 1;"></path></g><g class="mark-text role-legend-label" style="pointer-events: none;"><text text-anchor="start" transform="translate(24,14)" style="font-family: sans-serif; font-size: 14px; fill: #000; opacity: 1;">nov 02, 2020</text></g></g><path class="foreground" d="" style="pointer-events: none; display: none; fill: none;"></path></g><g transform="translate(0,19)"><path class="background" d="M0,0h104.9580078125v17h-104.9580078125Z" style="pointer-events: none; fill: none; opacity: 1;"></path><g><g class="mark-symbol role-legend-symbol" style="pointer-events: none;"><path transform="translate(10,10)" d="M-8.660254037844387,0L8.660254037844387,0" style="fill: none; stroke: black; stroke-width: 2; stroke-dasharray: 4,2; opacity: 1;"></path></g><g class="mark-text role-legend-label" style="pointer-events: none;"><text text-anchor="start" transform="translate(24,14)" style="font-family: sans-serif; font-size: 14px; fill: #000; opacity: 1;">oct 26, 2020</text></g></g><path class="foreground" d="" style="pointer-events: none; display: none; fill: none;"></path></g></g></g><path class="foreground" d="" style="pointer-events: none; display: none; fill: none;"></path></g></g><g class="mark-text role-legend-title" style="pointer-events: none;"><text text-anchor="start" transform="translate(7.5,18.5)" style="font-family: sans-serif; font-size: 14px; font-weight: bold; fill: #000; opacity: 1;">Datos hasta</text></g></g><path class="foreground" d="" style="pointer-events: none; display: none; fill: none;"></path></g></g></g><path class="foreground" d="" style="display: none; fill: none;"></path></g></g></g></svg>