<svg class="marks" width="635" height="357" viewBox="0 0 635 357" version="1.1" xmlns="http://www.w3.org/2000/svg" xmlns:xlink="http://www.w3.org/1999/xlink"><rect width="635" height="357" style="fill: white;"></rect><g transform="translate(29,34)"><g class="mark-group role-frame root"><g transform="translate(0,0)"><path class="background" d="M0,0h0v0h0Z" style="fill: none;"></path><g><g class="mark-group role-row-header row_header"><g transform="translate(-1,0)"><path class="background" d="M0,0h0v33h0Z" style="fill: none;"></path><g><g class="mark-group role-axis"><g transform="translate(0.5,0.5)"><path class="background" d="M0,0h0v0h0Z" style="pointer-events: none; fill: none;"></path><g><g class="mark-rule role-axis-tick" style="pointer-events: none;"><line transform="translate(0,33)" x2="-5" y2="0" style="fill: none; stroke: #888; stroke-width: 1; opacity: 1;"></line><line transform="translate(0,0)" x2="-5" y2="0" style="fill: none; stroke: #888; stroke-width: 1; opacity: 1;"></line></g><g class="mark-text role-axis-label" style="pointer-events: none;"><text text-anchor="end" transform="translate(-7,37)" style="font-family: sans-serif; font-size: 14px; fill: #000; opacity: 1;">0</text><text text-anchor="end" transform="translate(-7,4)" style="font-family: sans-serif; font-size: 14px; fill: #000; opacity: 1;">20</text></g><g class="mark-rule role-axis-domain" style="pointer-events: none;"><line transform="translate(0,33)" x2="0" y2="-33" style="fill: none; stroke: #888; stroke-width: 1; opacity: 1;"></line></g></g><path class="foreground" d="" style="pointer-events: none; display: none; fill: none;"></path></g></g></g><path class="foreground" d="" style="display: none; fill: none;"></path></g><g transform="translate(-1,100)"><path class="background" d="M0,0h0v33h0Z" style="fill: none;"></path><g><g class="mark-group role-axis"><g transform="translate(0.5,0.5)"><path class="background" d="M0,0h0v0h0Z" style="pointer-events: none; fill: none;"></path><g><g class="mark-rule role-axis-tick" style="pointer-events: none;"><line transform="translate(0,33)" x2="-5" y2="0" style="fill: none; stroke: #888; stroke-width: 1; opacity: 1;"></line><line transform="translate(0,0)" x2="-5" y2="0" style="fill: none; stroke: #888; stroke-width: 1; opacity: 1;"></line></g><g class="mark-text role-axis-label" style="pointer-events: none;"><text text-anchor="end" transform="translate(-7,37)" style="font-family: sans-serif; font-size: 14px; fill: #000; opacity: 1;">0</text><text text-anchor="end" transform="translate(-7,4)" style="font-family: sans-serif; font-size: 14px; fill: #000; opacity: 1;">20</text></g><g class="mark-rule role-axis-domain" style="pointer-events: none;"><line transform="translate(0,33)" x2="0" y2="-33" style="fill: none; stroke: #888; stroke-width: 1; opacity: 1;"></line></g></g><path class="foreground" d="" style="pointer-events: none; display: none; fill: none;"></path></g></g></g><path class="foreground" d="" style="display: none; fill: none;"></path></g><g transform="translate(-1,200)"><path class="background" d="M0,0h0v33h0Z" style="fill: none;"></path><g><g class="mark-group role-axis"><g transform="translate(0.5,0.5)"><path class="background" d="M0,0h0v0h0Z" style="pointer-events: none; fill: none;"></path><g><g class="mark-rule role-axis-tick" style="pointer-events: none;"><line transform="translate(0,33)" x2="-5" y2="0" style="fill: none; stroke: #888; stroke-width: 1; opacity: 1;"></line><line transform="translate(0,0)" x2="-5" y2="0" style="fill: none; stroke: #888; stroke-width: 1; opacity: 1;"></line></g><g class="mark-text role-axis-label" style="pointer-events: none;"><text text-anchor="end" transform="translate(-7,37)" style="font-family: sans-serif; font-size: 14px; fill: #000; opacity: 1;">0</text><text text-anchor="end" transform="translate(-7,4)" style="font-family: sans-serif; font-size: 14px; fill: #000; opacity: 1;">20</text></g><g class="mark-rule role-axis-domain" style="pointer-events: none;"><line transform="translate(0,33)" x2="0" y2="-33" style="fill: none; stroke: #888; stroke-width: 1; opacity: 1;"></line></g></g><path class="foreground" d="" style="pointer-events: none; display: none; fill: none;"></path></g></g></g><path class="foreground" d="" style="display: none; fill: none;"></path></g></g><g class="mark-group role-column-footer column_footer"><g transform="translate(0,251)"><path class="background" d="M0,0h600v0h-600Z" style="fill: none;"></path><g><g class="mark-group role-axis"><g transform="translate(0.5,0.5)"><path class="background" d="M0,0h0v0h0Z" style="pointer-events: none; fill: none;"></path><g><g class="mark-rule role-axis-tick" style="pointer-events: none;"><line transform="translate(20,0)" x2="0" y2="5" style="fill: none; stroke: #888; stroke-width: 1; opacity: 1;"></line><line transform="translate(60,0)" x2="0" y2="5" style="fill: none; stroke: #888; stroke-width: 1; opacity: 1;"></line><line transform="translate(100,0)" x2="0" y2="5" style="fill: none; stroke: #888; stroke-width: 1; opacity: 1;"></line><line transform="translate(140,0)" x2="0" y2="5" style="fill: none; stroke: #888; stroke-width: 1; opacity: 1;"></line><line transform="translate(180,0)" x2="0" y2="5" style="fill: none; stroke: #888; stroke-width: 1; opacity: 1;"></line><line transform="translate(220,0)" x2="0" y2="5" style="fill: none; stroke: #888; stroke-width: 1; opacity: 1;"></line><line transform="translate(260,0)" x2="0" y2="5" style="fill: none; stroke: #888; stroke-width: 1; opacity: 1;"></line><line transform="translate(300,0)" x2="0" y2="5" style="fill: none; stroke: #888; stroke-width: 1; opacity: 1;"></line><line transform="translate(340,0)" x2="0" y2="5" style="fill: none; stroke: #888; stroke-width: 1; opacity: 1;"></line><line transform="translate(380,0)" x2="0" y2="5" style="fill: none; stroke: #888; stroke-width: 1; opacity: 1;"></line><line transform="translate(420,0)" x2="0" y2="5" style="fill: none; stroke: #888; stroke-width: 1; opacity: 1;"></line><line transform="translate(460,0)" x2="0" y2="5" style="fill: none; stroke: #888; stroke-width: 1; opacity: 1;"></line><line transform="translate(500,0)" x2="0" y2="5" style="fill: none; stroke: #888; stroke-width: 1; opacity: 1;"></line><line transform="translate(540,0)" x2="0" y2="5" style="fill: none; stroke: #888; stroke-width: 1; opacity: 1;"></line><line transform="translate(580,0)" x2="0" y2="5" style="fill: none; stroke: #888; stroke-width: 1; opacity: 1;"></line></g><g class="mark-text role-axis-label" style="pointer-events: none;"><text text-anchor="end" transform="translate(20,7) rotate(270) translate(0,4)" style="font-family: sans-serif; font-size: 14px; fill: #000; opacity: 1;">16/12</text><text text-anchor="end" transform="translate(60,7) rotate(270) translate(0,4)" style="font-family: sans-serif; font-size: 14px; fill: #000; opacity: 1;">17/12</text><text text-anchor="end" transform="translate(100,7) rotate(270) translate(0,4)" style="font-family: sans-serif; font-size: 14px; fill: #000; opacity: 1;">18/12</text><text text-anchor="end" transform="translate(140,7) rotate(270) translate(0,4)" style="font-family: sans-serif; font-size: 14px; fill: #000; opacity: 1;">19/12</text><text text-anchor="end" transform="translate(180,7) rotate(270) translate(0,4)" style="font-family: sans-serif; font-size: 14px; fill: #000; opacity: 1;">20/12</text><text text-anchor="end" transform="translate(220,7) rotate(270) translate(0,4)" style="font-family: sans-serif; font-size: 14px; fill: #000; opacity: 1;">21/12</text><text text-anchor="end" transform="translate(260,7) rotate(270) translate(0,4)" style="font-family: sans-serif; font-size: 14px; fill: #000; opacity: 1;">22/12</text><text text-anchor="end" transform="translate(300,7) rotate(270) translate(0,4)" style="font-family: sans-serif; font-size: 14px; fill: #000; opacity: 1;">23/12</text><text text-anchor="end" transform="translate(340,7) rotate(270) translate(0,4)" style="font-family: sans-serif; font-size: 14px; fill: #000; opacity: 1;">24/12</text><text text-anchor="end" transform="translate(380,7) rotate(270) translate(0,4)" style="font-family: sans-serif; font-size: 14px; fill: #000; opacity: 1;">25/12</text><text text-anchor="end" transform="translate(420,7) rotate(270) translate(0,4)" style="font-family: sans-serif; font-size: 14px; fill: #000; opacity: 1;">26/12</text><text text-anchor="end" transform="translate(460,7) rotate(270) translate(0,4)" style="font-family: sans-serif; font-size: 14px; fill: #000; opacity: 1;">27/12</text><text text-anchor="end" transform="translate(500,7) rotate(270) translate(0,4)" style="font-family: sans-serif; font-size: 14px; fill: #000; opacity: 1;">28/12</text><text text-anchor="end" transform="translate(540,7) rotate(270) translate(0,4)" style="font-family: sans-serif; font-size: 14px; fill: #000; opacity: 1;">29/12</text><text text-anchor="end" transform="translate(580,7) rotate(270) translate(0,4)" style="font-family: sans-serif; font-size: 14px; fill: #000; opacity: 1;">30/12</text></g><g class="mark-rule role-axis-domain" style="pointer-events: none;"><line transform="translate(0,0)" x2="600" y2="0" style="fill: none; stroke: #888; stroke-width: 1; opacity: 1;"></line></g><g class="mark-text role-axis-title" style="pointer-events: none;"><text text-anchor="middle" transform="translate(300,63.0341796875)" style="font-family: sans-serif; font-size: 14px; font-weight: bold; fill: #000; opacity: 1;">Fecha boletín</text></g></g><path class="foreground" d="" style="pointer-events: none; display: none; fill: none;"></path></g></g></g><path class="foreground" d="" style="display: none; fill: none;"></path></g></g><g class="mark-group role-scope cell"><g transform="translate(0,0)"><path class="background" d="M0.5,0.5h600v33h-600Z" style="fill: none; stroke: #ddd;"></path><g><g class="mark-group role-axis"><g transform="translate(0.5,0.5)"><path class="background" d="M0,0h0v0h0Z" style="pointer-events: none; fill: none;"></path><g><g class="mark-rule role-axis-grid" style="pointer-events: none;"><line transform="translate(0,33)" x2="600" y2="0" style="fill: none; stroke: #ddd; stroke-width: 1; opacity: 1;"></line><line transform="translate(0,0)" x2="600" y2="0" style="fill: none; stroke: #ddd; stroke-width: 1; opacity: 1;"></line></g></g><path class="foreground" d="" style="pointer-events: none; display: none; fill: none;"></path></g></g><g class="mark-group role-scope child_layer_0_layer_0_pathgroup"><g transform="translate(0,0)"><path class="background" d="M0,0h600v33h-600Z" style="fill: none;"></path><g><g class="mark-line role-mark child_layer_0_layer_0_marks"><path d="M20,17.84946304485155L60,16.767518248175183L100,18.945921450151054L140,19.49354740061162L180,19.71412381951731L220,19.508074591218076L260,19.42690003423485L300,19.7646336710834L340,18.87849340009103L380,12.73482019363762L420,12.132185886402752L460,4.591197706519434L500,1.809687441159857L540,0.15557723911257304L580,0.36129659975420325" style="fill: none; stroke: #4c78a8; stroke-width: 3;"></path></g></g><path class="foreground" d="" style="display: none; fill: none;"></path></g></g><g class="mark-symbol role-mark child_layer_0_layer_1_marks"><path transform="translate(580,0.36129659975420325)" d="M3.5355339059327378,0A3.5355339059327378,3.5355339059327378,0,1,1,-3.5355339059327378,0A3.5355339059327378,3.5355339059327378,0,1,1,3.5355339059327378,0" style="fill: #4c78a8; stroke-width: 2; opacity: 1;"></path><path transform="translate(540,0.15557723911257304)" d="M3.5355339059327378,0A3.5355339059327378,3.5355339059327378,0,1,1,-3.5355339059327378,0A3.5355339059327378,3.5355339059327378,0,1,1,3.5355339059327378,0" style="fill: #4c78a8; stroke-width: 2; opacity: 1;"></path><path transform="translate(500,1.809687441159857)" d="M3.5355339059327378,0A3.5355339059327378,3.5355339059327378,0,1,1,-3.5355339059327378,0A3.5355339059327378,3.5355339059327378,0,1,1,3.5355339059327378,0" style="fill: #4c78a8; stroke-width: 2; opacity: 1;"></path><path transform="translate(460,4.591197706519434)" d="M3.5355339059327378,0A3.5355339059327378,3.5355339059327378,0,1,1,-3.5355339059327378,0A3.5355339059327378,3.5355339059327378,0,1,1,3.5355339059327378,0" style="fill: #4c78a8; stroke-width: 2; opacity: 1;"></path><path transform="translate(420,12.132185886402752)" d="M3.5355339059327378,0A3.5355339059327378,3.5355339059327378,0,1,1,-3.5355339059327378,0A3.5355339059327378,3.5355339059327378,0,1,1,3.5355339059327378,0" style="fill: #4c78a8; stroke-width: 2; opacity: 1;"></path><path transform="translate(380,12.73482019363762)" d="M3.5355339059327378,0A3.5355339059327378,3.5355339059327378,0,1,1,-3.5355339059327378,0A3.5355339059327378,3.5355339059327378,0,1,1,3.5355339059327378,0" style="fill: #4c78a8; stroke-width: 2; opacity: 1;"></path><path transform="translate(340,18.87849340009103)" d="M3.5355339059327378,0A3.5355339059327378,3.5355339059327378,0,1,1,-3.5355339059327378,0A3.5355339059327378,3.5355339059327378,0,1,1,3.5355339059327378,0" style="fill: #4c78a8; stroke-width: 2; opacity: 1;"></path><path transform="translate(300,19.7646336710834)" d="M3.5355339059327378,0A3.5355339059327378,3.5355339059327378,0,1,1,-3.5355339059327378,0A3.5355339059327378,3.5355339059327378,0,1,1,3.5355339059327378,0" style="fill: #4c78a8; stroke-width: 2; opacity: 1;"></path><path transform="translate(260,19.42690003423485)" d="M3.5355339059327378,0A3.5355339059327378,3.5355339059327378,0,1,1,-3.5355339059327378,0A3.5355339059327378,3.5355339059327378,0,1,1,3.5355339059327378,0" style="fill: #4c78a8; stroke-width: 2; opacity: 1;"></path><path transform="translate(220,19.508074591218076)" d="M3.5355339059327378,0A3.5355339059327378,3.5355339059327378,0,1,1,-3.5355339059327378,0A3.5355339059327378,3.5355339059327378,0,1,1,3.5355339059327378,0" style="fill: #4c78a8; stroke-width: 2; opacity: 1;"></path><path transform="translate(180,19.71412381951731)" d="M3.5355339059327378,0A3.5355339059327378,3.5355339059327378,0,1,1,-3.5355339059327378,0A3.5355339059327378,3.5355339059327378,0,1,1,3.5355339059327378,0" style="fill: #4c78a8; stroke-width: 2; opacity: 1;"></path><path transform="translate(140,19.49354740061162)" d="M3.5355339059327378,0A3.5355339059327378,3.5355339059327378,0,1,1,-3.5355339059327378,0A3.5355339059327378,3.5355339059327378,0,1,1,3.5355339059327378,0" style="fill: #4c78a8; stroke-width: 2; opacity: 1;"></path><path transform="translate(100,18.945921450151054)" d="M3.5355339059327378,0A3.5355339059327378,3.5355339059327378,0,1,1,-3.5355339059327378,0A3.5355339059327378,3.5355339059327378,0,1,1,3.5355339059327378,0" style="fill: #4c78a8; stroke-width: 2; opacity: 1;"></path><path transform="translate(60,16.767518248175183)" d="M3.5355339059327378,0A3.5355339059327378,3.5355339059327378,0,1,1,-3.5355339059327378,0A3.5355339059327378,3.5355339059327378,0,1,1,3.5355339059327378,0" style="fill: #4c78a8; stroke-width: 2; opacity: 1;"></path><path transform="translate(20,17.84946304485155)" d="M3.5355339059327378,0A3.5355339059327378,3.5355339059327378,0,1,1,-3.5355339059327378,0A3.5355339059327378,3.5355339059327378,0,1,1,3.5355339059327378,0" style="fill: #4c78a8; stroke-width: 2; opacity: 1;"></path></g><g class="mark-text role-mark child_layer_1_marks"><text text-anchor="middle" transform="translate(580,23.361296599754205)" style="font-family: sans-serif; font-size: 15px; fill: #4c78a8;">19.8</text><text text-anchor="middle" transform="translate(540,23.155577239112574)" style="font-family: sans-serif; font-size: 15px; fill: #4c78a8;">19.9</text><text text-anchor="middle" transform="translate(500,24.809687441159856)" style="font-family: sans-serif; font-size: 15px; fill: #4c78a8;">18.9</text><text text-anchor="middle" transform="translate(460,27.591197706519434)" style="font-family: sans-serif; font-size: 15px; fill: #4c78a8;">17.2</text><text text-anchor="middle" transform="translate(420,35.13218588640275)" style="font-family: sans-serif; font-size: 15px; fill: #4c78a8;">12.6</text><text text-anchor="middle" transform="translate(380,35.73482019363762)" style="font-family: sans-serif; font-size: 15px; fill: #4c78a8;">12.3</text><text text-anchor="middle" transform="translate(340,41.87849340009103)" style="font-family: sans-serif; font-size: 15px; fill: #4c78a8;">8.6</text><text text-anchor="middle" transform="translate(300,42.7646336710834)" style="font-family: sans-serif; font-size: 15px; fill: #4c78a8;">8.0</text><text text-anchor="middle" transform="translate(260,42.42690003423485)" style="font-family: sans-serif; font-size: 15px; fill: #4c78a8;">8.2</text><text text-anchor="middle" transform="translate(220,42.508074591218076)" style="font-family: sans-serif; font-size: 15px; fill: #4c78a8;">8.2</text><text text-anchor="middle" transform="translate(180,42.71412381951731)" style="font-family: sans-serif; font-size: 15px; fill: #4c78a8;">8.1</text><text text-anchor="middle" transform="translate(140,42.49354740061162)" style="font-family: sans-serif; font-size: 15px; fill: #4c78a8;">8.2</text><text text-anchor="middle" transform="translate(100,41.945921450151054)" style="font-family: sans-serif; font-size: 15px; fill: #4c78a8;">8.5</text><text text-anchor="middle" transform="translate(60,39.76751824817518)" style="font-family: sans-serif; font-size: 15px; fill: #4c78a8;">9.8</text><text text-anchor="middle" transform="translate(20,40.84946304485155)" style="font-family: sans-serif; font-size: 15px; fill: #4c78a8;">9.2</text></g><g class="mark-group role-title"><g transform="translate(300,-27.379956666820163)"><path class="background" d="M0,0h0v0h0Z" style="pointer-events: none; fill: none;"></path><g><g class="mark-text role-title-text" style="pointer-events: none;"><text text-anchor="middle" transform="translate(0,11)" style="font-family: sans-serif; font-size: 14px; fill: #000; opacity: 1;">Confirmados</text></g></g><path class="foreground" d="" style="pointer-events: none; display: none; fill: none;"></path></g></g></g><path class="foreground" d="" style="display: none; fill: none;"></path></g><g transform="translate(0,100)"><path class="background" d="M0.5,0.5h600v33h-600Z" style="fill: none; stroke: #ddd;"></path><g><g class="mark-group role-axis"><g transform="translate(0.5,0.5)"><path class="background" d="M0,0h0v0h0Z" style="pointer-events: none; fill: none;"></path><g><g class="mark-rule role-axis-grid" style="pointer-events: none;"><line transform="translate(0,33)" x2="600" y2="0" style="fill: none; stroke: #ddd; stroke-width: 1; opacity: 1;"></line><line transform="translate(0,0)" x2="600" y2="0" style="fill: none; stroke: #ddd; stroke-width: 1; opacity: 1;"></line></g></g><path class="foreground" d="" style="pointer-events: none; display: none; fill: none;"></path></g></g><g class="mark-group role-scope child_layer_0_layer_0_pathgroup"><g transform="translate(0,0)"><path class="background" d="M0,0h600v33h-600Z" style="fill: none;"></path><g><g class="mark-line role-mark child_layer_0_layer_0_marks"><path d="M20,27.599258343634116L60,27.3108L100,27.508922363847045L140,13.500854700854703L180,13.639688164422397L220,13.202368987796124L260,12.31144259818731L300,11.426250000000001L340,11.271339434276209L380,11.395439605587512L420,27.286837294332724L460,22.798249027237354L500,6.503354632587863L540,4.965017064846417L580,5.854782146652494" style="fill: none; stroke: #f58518; stroke-width: 3;"></path></g></g><path class="foreground" d="" style="display: none; fill: none;"></path></g></g><g class="mark-symbol role-mark child_layer_0_layer_1_marks"><path transform="translate(580,5.854782146652494)" d="M3.5355339059327378,0A3.5355339059327378,3.5355339059327378,0,1,1,-3.5355339059327378,0A3.5355339059327378,3.5355339059327378,0,1,1,3.5355339059327378,0" style="fill: #f58518; stroke-width: 2; opacity: 1;"></path><path transform="translate(540,4.965017064846417)" d="M3.5355339059327378,0A3.5355339059327378,3.5355339059327378,0,1,1,-3.5355339059327378,0A3.5355339059327378,3.5355339059327378,0,1,1,3.5355339059327378,0" style="fill: #f58518; stroke-width: 2; opacity: 1;"></path><path transform="translate(500,6.503354632587863)" d="M3.5355339059327378,0A3.5355339059327378,3.5355339059327378,0,1,1,-3.5355339059327378,0A3.5355339059327378,3.5355339059327378,0,1,1,3.5355339059327378,0" style="fill: #f58518; stroke-width: 2; opacity: 1;"></path><path transform="translate(460,22.798249027237354)" d="M3.5355339059327378,0A3.5355339059327378,3.5355339059327378,0,1,1,-3.5355339059327378,0A3.5355339059327378,3.5355339059327378,0,1,1,3.5355339059327378,0" style="fill: #f58518; stroke-width: 2; opacity: 1;"></path><path transform="translate(420,27.286837294332724)" d="M3.5355339059327378,0A3.5355339059327378,3.5355339059327378,0,1,1,-3.5355339059327378,0A3.5355339059327378,3.5355339059327378,0,1,1,3.5355339059327378,0" style="fill: #f58518; stroke-width: 2; opacity: 1;"></path><path transform="translate(380,11.395439605587512)" d="M3.5355339059327378,0A3.5355339059327378,3.5355339059327378,0,1,1,-3.5355339059327378,0A3.5355339059327378,3.5355339059327378,0,1,1,3.5355339059327378,0" style="fill: #f58518; stroke-width: 2; opacity: 1;"></path><path transform="translate(340,11.271339434276209)" d="M3.5355339059327378,0A3.5355339059327378,3.5355339059327378,0,1,1,-3.5355339059327378,0A3.5355339059327378,3.5355339059327378,0,1,1,3.5355339059327378,0" style="fill: #f58518; stroke-width: 2; opacity: 1;"></path><path transform="translate(300,11.426250000000001)" d="M3.5355339059327378,0A3.5355339059327378,3.5355339059327378,0,1,1,-3.5355339059327378,0A3.5355339059327378,3.5355339059327378,0,1,1,3.5355339059327378,0" style="fill: #f58518; stroke-width: 2; opacity: 1;"></path><path transform="translate(260,12.31144259818731)" d="M3.5355339059327378,0A3.5355339059327378,3.5355339059327378,0,1,1,-3.5355339059327378,0A3.5355339059327378,3.5355339059327378,0,1,1,3.5355339059327378,0" style="fill: #f58518; stroke-width: 2; opacity: 1;"></path><path transform="translate(220,13.202368987796124)" d="M3.5355339059327378,0A3.5355339059327378,3.5355339059327378,0,1,1,-3.5355339059327378,0A3.5355339059327378,3.5355339059327378,0,1,1,3.5355339059327378,0" style="fill: #f58518; stroke-width: 2; opacity: 1;"></path><path transform="translate(180,13.639688164422397)" d="M3.5355339059327378,0A3.5355339059327378,3.5355339059327378,0,1,1,-3.5355339059327378,0A3.5355339059327378,3.5355339059327378,0,1,1,3.5355339059327378,0" style="fill: #f58518; stroke-width: 2; opacity: 1;"></path><path transform="translate(140,13.500854700854703)" d="M3.5355339059327378,0A3.5355339059327378,3.5355339059327378,0,1,1,-3.5355339059327378,0A3.5355339059327378,3.5355339059327378,0,1,1,3.5355339059327378,0" style="fill: #f58518; stroke-width: 2; opacity: 1;"></path><path transform="translate(100,27.508922363847045)" d="M3.5355339059327378,0A3.5355339059327378,3.5355339059327378,0,1,1,-3.5355339059327378,0A3.5355339059327378,3.5355339059327378,0,1,1,3.5355339059327378,0" style="fill: #f58518; stroke-width: 2; opacity: 1;"></path><path transform="translate(60,27.3108)" d="M3.5355339059327378,0A3.5355339059327378,3.5355339059327378,0,1,1,-3.5355339059327378,0A3.5355339059327378,3.5355339059327378,0,1,1,3.5355339059327378,0" style="fill: #f58518; stroke-width: 2; opacity: 1;"></path><path transform="translate(20,27.599258343634116)" d="M3.5355339059327378,0A3.5355339059327378,3.5355339059327378,0,1,1,-3.5355339059327378,0A3.5355339059327378,3.5355339059327378,0,1,1,3.5355339059327378,0" style="fill: #f58518; stroke-width: 2; opacity: 1;"></path></g><g class="mark-text role-mark child_layer_1_marks"><text text-anchor="middle" transform="translate(580,28.854782146652493)" style="font-family: sans-serif; font-size: 15px; fill: #f58518;">16.5</text><text text-anchor="middle" transform="translate(540,27.965017064846418)" style="font-family: sans-serif; font-size: 15px; fill: #f58518;">17.0</text><text text-anchor="middle" transform="translate(500,29.503354632587865)" style="font-family: sans-serif; font-size: 15px; fill: #f58518;">16.1</text><text text-anchor="middle" transform="translate(460,45.798249027237354)" style="font-family: sans-serif; font-size: 15px; fill: #f58518;">6.2</text><text text-anchor="middle" transform="translate(420,50.28683729433273)" style="font-family: sans-serif; font-size: 15px; fill: #f58518;">3.5</text><text text-anchor="middle" transform="translate(380,34.39543960558751)" style="font-family: sans-serif; font-size: 15px; fill: #f58518;">13.1</text><text text-anchor="middle" transform="translate(340,34.27133943427621)" style="font-family: sans-serif; font-size: 15px; fill: #f58518;">13.2</text><text text-anchor="middle" transform="translate(300,34.42625)" style="font-family: sans-serif; font-size: 15px; fill: #f58518;">13.1</text><text text-anchor="middle" transform="translate(260,35.31144259818731)" style="font-family: sans-serif; font-size: 15px; fill: #f58518;">12.5</text><text text-anchor="middle" transform="translate(220,36.20236898779612)" style="font-family: sans-serif; font-size: 15px; fill: #f58518;">12.0</text><text text-anchor="middle" transform="translate(180,36.639688164422395)" style="font-family: sans-serif; font-size: 15px; fill: #f58518;">11.7</text><text text-anchor="middle" transform="translate(140,36.5008547008547)" style="font-family: sans-serif; font-size: 15px; fill: #f58518;">11.8</text><text text-anchor="middle" transform="translate(100,50.50892236384705)" style="font-family: sans-serif; font-size: 15px; fill: #f58518;">3.3</text><text text-anchor="middle" transform="translate(60,50.3108)" style="font-family: sans-serif; font-size: 15px; fill: #f58518;">3.4</text><text text-anchor="middle" transform="translate(20,50.59925834363412)" style="font-family: sans-serif; font-size: 15px; fill: #f58518;">3.3</text></g><g class="mark-group role-title"><g transform="translate(300,-24)"><path class="background" d="M0,0h0v0h0Z" style="pointer-events: none; fill: none;"></path><g><g class="mark-text role-title-text" style="pointer-events: none;"><text text-anchor="middle" transform="translate(0,11)" style="font-family: sans-serif; font-size: 14px; fill: #000; opacity: 1;">Probables</text></g></g><path class="foreground" d="" style="pointer-events: none; display: none; fill: none;"></path></g></g></g><path class="foreground" d="" style="display: none; fill: none;"></path></g><g transform="translate(0,200)"><path class="background" d="M0.5,0.5h600v33h-600Z" style="fill: none; stroke: #ddd;"></path><g><g class="mark-group role-axis"><g transform="translate(0.5,0.5)"><path class="background" d="M0,0h0v0h0Z" style="pointer-events: none; fill: none;"></path><g><g class="mark-rule role-axis-grid" style="pointer-events: none;"><line transform="translate(0,33)" x2="600" y2="0" style="fill: none; stroke: #ddd; stroke-width: 1; opacity: 1;"></line><line transform="translate(0,0)" x2="600" y2="0" style="fill: none; stroke: #ddd; stroke-width: 1; opacity: 1;"></line></g></g><path class="foreground" d="" style="pointer-events: none; display: none; fill: none;"></path></g></g><g class="mark-group role-scope child_layer_0_layer_0_pathgroup"><g transform="translate(0,0)"><path class="background" d="M0,0h600v33h-600Z" style="fill: none;"></path><g><g class="mark-line role-mark child_layer_0_layer_0_marks"><path d="M20,17.038043478260867L60,21.799411764705884L100,21.728571428571428L140,20.956701030927835L180,21.879L220,21.71938775510204L260,21.87525773195876L300,22.21782178217822L340,22.0935L380,22.01208791208791L420,23.375L460,23.44736842105263L500,22.864285714285714L540,14.292857142857143L580,14.279629629629628" style="fill: none; stroke: #e45756; stroke-width: 3;"></path></g></g><path class="foreground" d="" style="display: none; fill: none;"></path></g></g><g class="mark-symbol role-mark child_layer_0_layer_1_marks"><path transform="translate(580,14.279629629629628)" d="M3.5355339059327378,0A3.5355339059327378,3.5355339059327378,0,1,1,-3.5355339059327378,0A3.5355339059327378,3.5355339059327378,0,1,1,3.5355339059327378,0" style="fill: #e45756; stroke-width: 2; opacity: 1;"></path><path transform="translate(540,14.292857142857143)" d="M3.5355339059327378,0A3.5355339059327378,3.5355339059327378,0,1,1,-3.5355339059327378,0A3.5355339059327378,3.5355339059327378,0,1,1,3.5355339059327378,0" style="fill: #e45756; stroke-width: 2; opacity: 1;"></path><path transform="translate(500,22.864285714285714)" d="M3.5355339059327378,0A3.5355339059327378,3.5355339059327378,0,1,1,-3.5355339059327378,0A3.5355339059327378,3.5355339059327378,0,1,1,3.5355339059327378,0" style="fill: #e45756; stroke-width: 2; opacity: 1;"></path><path transform="translate(460,23.44736842105263)" d="M3.5355339059327378,0A3.5355339059327378,3.5355339059327378,0,1,1,-3.5355339059327378,0A3.5355339059327378,3.5355339059327378,0,1,1,3.5355339059327378,0" style="fill: #e45756; stroke-width: 2; opacity: 1;"></path><path transform="translate(420,23.375)" d="M3.5355339059327378,0A3.5355339059327378,3.5355339059327378,0,1,1,-3.5355339059327378,0A3.5355339059327378,3.5355339059327378,0,1,1,3.5355339059327378,0" style="fill: #e45756; stroke-width: 2; opacity: 1;"></path><path transform="translate(380,22.01208791208791)" d="M3.5355339059327378,0A3.5355339059327378,3.5355339059327378,0,1,1,-3.5355339059327378,0A3.5355339059327378,3.5355339059327378,0,1,1,3.5355339059327378,0" style="fill: #e45756; stroke-width: 2; opacity: 1;"></path><path transform="translate(340,22.0935)" d="M3.5355339059327378,0A3.5355339059327378,3.5355339059327378,0,1,1,-3.5355339059327378,0A3.5355339059327378,3.5355339059327378,0,1,1,3.5355339059327378,0" style="fill: #e45756; stroke-width: 2; opacity: 1;"></path><path transform="translate(300,22.21782178217822)" d="M3.5355339059327378,0A3.5355339059327378,3.5355339059327378,0,1,1,-3.5355339059327378,0A3.5355339059327378,3.5355339059327378,0,1,1,3.5355339059327378,0" style="fill: #e45756; stroke-width: 2; opacity: 1;"></path><path transform="translate(260,21.87525773195876)" d="M3.5355339059327378,0A3.5355339059327378,3.5355339059327378,0,1,1,-3.5355339059327378,0A3.5355339059327378,3.5355339059327378,0,1,1,3.5355339059327378,0" style="fill: #e45756; stroke-width: 2; opacity: 1;"></path><path transform="translate(220,21.71938775510204)" d="M3.5355339059327378,0A3.5355339059327378,3.5355339059327378,0,1,1,-3.5355339059327378,0A3.5355339059327378,3.5355339059327378,0,1,1,3.5355339059327378,0" style="fill: #e45756; stroke-width: 2; opacity: 1;"></path><path transform="translate(180,21.879)" d="M3.5355339059327378,0A3.5355339059327378,3.5355339059327378,0,1,1,-3.5355339059327378,0A3.5355339059327378,3.5355339059327378,0,1,1,3.5355339059327378,0" style="fill: #e45756; stroke-width: 2; opacity: 1;"></path><path transform="translate(140,20.956701030927835)" d="M3.5355339059327378,0A3.5355339059327378,3.5355339059327378,0,1,1,-3.5355339059327378,0A3.5355339059327378,3.5355339059327378,0,1,1,3.5355339059327378,0" style="fill: #e45756; stroke-width: 2; opacity: 1;"></path><path transform="translate(100,21.728571428571428)" d="M3.5355339059327378,0A3.5355339059327378,3.5355339059327378,0,1,1,-3.5355339059327378,0A3.5355339059327378,3.5355339059327378,0,1,1,3.5355339059327378,0" style="fill: #e45756; stroke-width: 2; opacity: 1;"></path><path transform="translate(60,21.799411764705884)" d="M3.5355339059327378,0A3.5355339059327378,3.5355339059327378,0,1,1,-3.5355339059327378,0A3.5355339059327378,3.5355339059327378,0,1,1,3.5355339059327378,0" style="fill: #e45756; stroke-width: 2; opacity: 1;"></path><path transform="translate(20,17.038043478260867)" d="M3.5355339059327378,0A3.5355339059327378,3.5355339059327378,0,1,1,-3.5355339059327378,0A3.5355339059327378,3.5355339059327378,0,1,1,3.5355339059327378,0" style="fill: #e45756; stroke-width: 2; opacity: 1;"></path></g><g class="mark-text role-mark child_layer_1_marks"><text text-anchor="middle" transform="translate(580,37.279629629629625)" style="font-family: sans-serif; font-size: 15px; fill: #e45756;">11.3</text><text text-anchor="middle" transform="translate(540,37.292857142857144)" style="font-family: sans-serif; font-size: 15px; fill: #e45756;">11.3</text><text text-anchor="middle" transform="translate(500,45.864285714285714)" style="font-family: sans-serif; font-size: 15px; fill: #e45756;">6.1</text><text text-anchor="middle" transform="translate(460,46.44736842105263)" style="font-family: sans-serif; font-size: 15px; fill: #e45756;">5.8</text><text text-anchor="middle" transform="translate(420,46.375)" style="font-family: sans-serif; font-size: 15px; fill: #e45756;">5.8</text><text text-anchor="middle" transform="translate(380,45.01208791208791)" style="font-family: sans-serif; font-size: 15px; fill: #e45756;">6.7</text><text text-anchor="middle" transform="translate(340,45.0935)" style="font-family: sans-serif; font-size: 15px; fill: #e45756;">6.6</text><text text-anchor="middle" transform="translate(300,45.21782178217822)" style="font-family: sans-serif; font-size: 15px; fill: #e45756;">6.5</text><text text-anchor="middle" transform="translate(260,44.87525773195876)" style="font-family: sans-serif; font-size: 15px; fill: #e45756;">6.7</text><text text-anchor="middle" transform="translate(220,44.71938775510204)" style="font-family: sans-serif; font-size: 15px; fill: #e45756;">6.8</text><text text-anchor="middle" transform="translate(180,44.879000000000005)" style="font-family: sans-serif; font-size: 15px; fill: #e45756;">6.7</text><text text-anchor="middle" transform="translate(140,43.95670103092783)" style="font-family: sans-serif; font-size: 15px; fill: #e45756;">7.3</text><text text-anchor="middle" transform="translate(100,44.72857142857143)" style="font-family: sans-serif; font-size: 15px; fill: #e45756;">6.8</text><text text-anchor="middle" transform="translate(60,44.79941176470588)" style="font-family: sans-serif; font-size: 15px; fill: #e45756;">6.8</text><text text-anchor="middle" transform="translate(20,40.03804347826087)" style="font-family: sans-serif; font-size: 15px; fill: #e45756;">9.7</text></g><g class="mark-group role-title"><g transform="translate(300,-24)"><path class="background" d="M0,0h0v0h0Z" style="pointer-events: none; fill: none;"></path><g><g class="mark-text role-title-text" style="pointer-events: none;"><text text-anchor="middle" transform="translate(0,11)" style="font-family: sans-serif; font-size: 14px; fill: #000; opacity: 1;">Muertes</text></g></g><path class="foreground" d="" style="pointer-events: none; display: none; fill: none;"></path></g></g></g><path class="foreground" d="" style="display: none; fill: none;"></path></g></g></g><path class="foreground" d="" style="display: none; fill: none;"></path></g></g></g></svg>