<svg class="marks" width="643" height="306" viewBox="0 0 643 306" version="1.1" xmlns="http://www.w3.org/2000/svg" xmlns:xlink="http://www.w3.org/1999/xlink"><rect width="643" height="306" style="fill: white;"></rect><g transform="translate(50,12)"><g class="mark-group role-frame root"><g transform="translate(0,0)"><path class="background" d="M0.5,0.5h585v250h-585Z" style="fill: none; stroke: #ddd;"></path><g><g class="mark-group role-axis"><g transform="translate(0.5,250.5)"><path class="background" d="M0,0h0v0h0Z" style="pointer-events: none; fill: none;"></path><g><g class="mark-rule role-axis-grid" style="pointer-events: none;"><line transform="translate(14,-250)" x2="0" y2="250" style="fill: none; stroke: #ddd; stroke-width: 1; opacity: 1;"></line><line transform="translate(46,-250)" x2="0" y2="250" style="fill: none; stroke: #ddd; stroke-width: 1; opacity: 1;"></line><line transform="translate(79,-250)" x2="0" y2="250" style="fill: none; stroke: #ddd; stroke-width: 1; opacity: 1;"></line><line transform="translate(111,-250)" x2="0" y2="250" style="fill: none; stroke: #ddd; stroke-width: 1; opacity: 1;"></line><line transform="translate(144,-250)" x2="0" y2="250" style="fill: none; stroke: #ddd; stroke-width: 1; opacity: 1;"></line><line transform="translate(176,-250)" x2="0" y2="250" style="fill: none; stroke: #ddd; stroke-width: 1; opacity: 1;"></line><line transform="translate(209,-250)" x2="0" y2="250" style="fill: none; stroke: #ddd; stroke-width: 1; opacity: 1;"></line><line transform="translate(241,-250)" x2="0" y2="250" style="fill: none; stroke: #ddd; stroke-width: 1; opacity: 1;"></line><line transform="translate(274,-250)" x2="0" y2="250" style="fill: none; stroke: #ddd; stroke-width: 1; opacity: 1;"></line><line transform="translate(306,-250)" x2="0" y2="250" style="fill: none; stroke: #ddd; stroke-width: 1; opacity: 1;"></line><line transform="translate(339,-250)" x2="0" y2="250" style="fill: none; stroke: #ddd; stroke-width: 1; opacity: 1;"></line><line transform="translate(371,-250)" x2="0" y2="250" style="fill: none; stroke: #ddd; stroke-width: 1; opacity: 1;"></line><line transform="translate(404,-250)" x2="0" y2="250" style="fill: none; stroke: #ddd; stroke-width: 1; opacity: 1;"></line><line transform="translate(436,-250)" x2="0" y2="250" style="fill: none; stroke: #ddd; stroke-width: 1; opacity: 1;"></line><line transform="translate(469,-250)" x2="0" y2="250" style="fill: none; stroke: #ddd; stroke-width: 1; opacity: 1;"></line><line transform="translate(501,-250)" x2="0" y2="250" style="fill: none; stroke: #ddd; stroke-width: 1; opacity: 1;"></line><line transform="translate(534,-250)" x2="0" y2="250" style="fill: none; stroke: #ddd; stroke-width: 1; opacity: 1;"></line><line transform="translate(566,-250)" x2="0" y2="250" style="fill: none; stroke: #ddd; stroke-width: 1; opacity: 1;"></line></g></g><path class="foreground" d="" style="pointer-events: none; display: none; fill: none;"></path></g></g><g class="mark-group role-axis"><g transform="translate(0.5,0.5)"><path class="background" d="M0,0h0v0h0Z" style="pointer-events: none; fill: none;"></path><g><g class="mark-rule role-axis-grid" style="pointer-events: none;"><line transform="translate(0,250)" x2="585" y2="0" style="fill: none; stroke: #ddd; stroke-width: 1; opacity: 1;"></line><line transform="translate(0,214)" x2="585" y2="0" style="fill: none; stroke: #ddd; stroke-width: 1; opacity: 1;"></line><line transform="translate(0,179)" x2="585" y2="0" style="fill: none; stroke: #ddd; stroke-width: 1; opacity: 1;"></line><line transform="translate(0,143)" x2="585" y2="0" style="fill: none; stroke: #ddd; stroke-width: 1; opacity: 1;"></line><line transform="translate(0,107)" x2="585" y2="0" style="fill: none; stroke: #ddd; stroke-width: 1; opacity: 1;"></line><line transform="translate(0,71)" x2="585" y2="0" style="fill: none; stroke: #ddd; stroke-width: 1; opacity: 1;"></line><line transform="translate(0,36)" x2="585" y2="0" style="fill: none; stroke: #ddd; stroke-width: 1; opacity: 1;"></line><line transform="translate(0,0)" x2="585" y2="0" style="fill: none; stroke: #ddd; stroke-width: 1; opacity: 1;"></line></g></g><path class="foreground" d="" style="pointer-events: none; display: none; fill: none;"></path></g></g><g class="mark-group role-axis"><g transform="translate(0.5,250.5)"><path class="background" d="M0,0h0v0h0Z" style="pointer-events: none; fill: none;"></path><g><g class="mark-rule role-axis-tick" style="pointer-events: none;"><line transform="translate(14,0)" x2="0" y2="5" style="fill: none; stroke: #888; stroke-width: 1; opacity: 1;"></line><line transform="translate(46,0)" x2="0" y2="5" style="fill: none; stroke: #888; stroke-width: 1; opacity: 1;"></line><line transform="translate(79,0)" x2="0" y2="5" style="fill: none; stroke: #888; stroke-width: 1; opacity: 1;"></line><line transform="translate(111,0)" x2="0" y2="5" style="fill: none; stroke: #888; stroke-width: 1; opacity: 1;"></line><line transform="translate(144,0)" x2="0" y2="5" style="fill: none; stroke: #888; stroke-width: 1; opacity: 1;"></line><line transform="translate(176,0)" x2="0" y2="5" style="fill: none; stroke: #888; stroke-width: 1; opacity: 1;"></line><line transform="translate(209,0)" x2="0" y2="5" style="fill: none; stroke: #888; stroke-width: 1; opacity: 1;"></line><line transform="translate(241,0)" x2="0" y2="5" style="fill: none; stroke: #888; stroke-width: 1; opacity: 1;"></line><line transform="translate(274,0)" x2="0" y2="5" style="fill: none; stroke: #888; stroke-width: 1; opacity: 1;"></line><line transform="translate(306,0)" x2="0" y2="5" style="fill: none; stroke: #888; stroke-width: 1; opacity: 1;"></line><line transform="translate(339,0)" x2="0" y2="5" style="fill: none; stroke: #888; stroke-width: 1; opacity: 1;"></line><line transform="translate(371,0)" x2="0" y2="5" style="fill: none; stroke: #888; stroke-width: 1; opacity: 1;"></line><line transform="translate(404,0)" x2="0" y2="5" style="fill: none; stroke: #888; stroke-width: 1; opacity: 1;"></line><line transform="translate(436,0)" x2="0" y2="5" style="fill: none; stroke: #888; stroke-width: 1; opacity: 1;"></line><line transform="translate(469,0)" x2="0" y2="5" style="fill: none; stroke: #888; stroke-width: 1; opacity: 1;"></line><line transform="translate(501,0)" x2="0" y2="5" style="fill: none; stroke: #888; stroke-width: 1; opacity: 1;"></line><line transform="translate(534,0)" x2="0" y2="5" style="fill: none; stroke: #888; stroke-width: 1; opacity: 1;"></line><line transform="translate(566,0)" x2="0" y2="5" style="fill: none; stroke: #888; stroke-width: 1; opacity: 1;"></line></g><g class="mark-text role-axis-label" style="pointer-events: none;"><text text-anchor="middle" transform="translate(13.928571428571427,18)" style="font-family: sans-serif; font-size: 14px; fill: #000; opacity: 1;">15/03</text><text text-anchor="middle" transform="translate(46.42857142857142,18)" style="font-family: sans-serif; font-size: 14px; fill: #000; opacity: 0;">22/03</text><text text-anchor="middle" transform="translate(78.92857142857143,18)" style="font-family: sans-serif; font-size: 14px; fill: #000; opacity: 1;">29/03</text><text text-anchor="middle" transform="translate(111.42857142857142,18)" style="font-family: sans-serif; font-size: 14px; fill: #000; opacity: 0;">05/04</text><text text-anchor="middle" transform="translate(143.92857142857142,18)" style="font-family: sans-serif; font-size: 14px; fill: #000; opacity: 1;">12/04</text><text text-anchor="middle" transform="translate(176.42857142857142,18)" style="font-family: sans-serif; font-size: 14px; fill: #000; opacity: 0;">19/04</text><text text-anchor="middle" transform="translate(208.92857142857144,18)" style="font-family: sans-serif; font-size: 14px; fill: #000; opacity: 1;">26/04</text><text text-anchor="middle" transform="translate(241.42857142857142,18)" style="font-family: sans-serif; font-size: 14px; fill: #000; opacity: 0;">03/05</text><text text-anchor="middle" transform="translate(273.92857142857144,18)" style="font-family: sans-serif; font-size: 14px; fill: #000; opacity: 1;">10/05</text><text text-anchor="middle" transform="translate(306.42857142857144,18)" style="font-family: sans-serif; font-size: 14px; fill: #000; opacity: 0;">17/05</text><text text-anchor="middle" transform="translate(338.92857142857144,18)" style="font-family: sans-serif; font-size: 14px; fill: #000; opacity: 1;">24/05</text><text text-anchor="middle" transform="translate(371.4285714285714,18)" style="font-family: sans-serif; font-size: 14px; fill: #000; opacity: 0;">31/05</text><text text-anchor="middle" transform="translate(403.92857142857144,18)" style="font-family: sans-serif; font-size: 14px; fill: #000; opacity: 1;">07/06</text><text text-anchor="middle" transform="translate(436.42857142857144,18)" style="font-family: sans-serif; font-size: 14px; fill: #000; opacity: 0;">14/06</text><text text-anchor="middle" transform="translate(468.92857142857144,18)" style="font-family: sans-serif; font-size: 14px; fill: #000; opacity: 1;">21/06</text><text text-anchor="middle" transform="translate(501.4285714285714,18)" style="font-family: sans-serif; font-size: 14px; fill: #000; opacity: 0;">28/06</text><text text-anchor="middle" transform="translate(533.9285714285714,18)" style="font-family: sans-serif; font-size: 14px; fill: #000; opacity: 1;">05/07</text><text text-anchor="middle" transform="translate(566.4285714285714,18)" style="font-family: sans-serif; font-size: 14px; fill: #000; opacity: 0;">12/07</text></g><g class="mark-rule role-axis-domain" style="pointer-events: none;"><line transform="translate(0,0)" x2="585" y2="0" style="fill: none; stroke: #888; stroke-width: 1; opacity: 1;"></line></g><g class="mark-text role-axis-title" style="pointer-events: none;"><text text-anchor="middle" transform="translate(292.5,36)" style="font-family: sans-serif; font-size: 14px; font-weight: bold; fill: #000; opacity: 1;">Fecha de toma de muestra</text></g></g><path class="foreground" d="" style="pointer-events: none; display: none; fill: none;"></path></g></g><g class="mark-group role-axis"><g transform="translate(0.5,0.5)"><path class="background" d="M0,0h0v0h0Z" style="pointer-events: none; fill: none;"></path><g><g class="mark-rule role-axis-tick" style="pointer-events: none;"><line transform="translate(0,250)" x2="-5" y2="0" style="fill: none; stroke: #888; stroke-width: 1; opacity: 1;"></line><line transform="translate(0,214)" x2="-5" y2="0" style="fill: none; stroke: #888; stroke-width: 1; opacity: 1;"></line><line transform="translate(0,179)" x2="-5" y2="0" style="fill: none; stroke: #888; stroke-width: 1; opacity: 1;"></line><line transform="translate(0,143)" x2="-5" y2="0" style="fill: none; stroke: #888; stroke-width: 1; opacity: 1;"></line><line transform="translate(0,107)" x2="-5" y2="0" style="fill: none; stroke: #888; stroke-width: 1; opacity: 1;"></line><line transform="translate(0,71)" x2="-5" y2="0" style="fill: none; stroke: #888; stroke-width: 1; opacity: 1;"></line><line transform="translate(0,36)" x2="-5" y2="0" style="fill: none; stroke: #888; stroke-width: 1; opacity: 1;"></line><line transform="translate(0,0)" x2="-5" y2="0" style="fill: none; stroke: #888; stroke-width: 1; opacity: 1;"></line></g><g class="mark-text role-axis-label" style="pointer-events: none;"><text text-anchor="end" transform="translate(-7,254)" style="font-family: sans-serif; font-size: 14px; fill: #000; opacity: 1;">0.0</text><text text-anchor="end" transform="translate(-7,218.28571428571428)" style="font-family: sans-serif; font-size: 14px; fill: #000; opacity: 1;">0.2</text><text text-anchor="end" transform="translate(-7,182.57142857142856)" style="font-family: sans-serif; font-size: 14px; fill: #000; opacity: 1;">0.4</text><text text-anchor="end" transform="translate(-7,146.85714285714286)" style="font-family: sans-serif; font-size: 14px; fill: #000; opacity: 1;">0.6</text><text text-anchor="end" transform="translate(-7,111.14285714285712)" style="font-family: sans-serif; font-size: 14px; fill: #000; opacity: 1;">0.8</text><text text-anchor="end" transform="translate(-7,75.42857142857143)" style="font-family: sans-serif; font-size: 14px; fill: #000; opacity: 1;">1.0</text><text text-anchor="end" transform="translate(-7,39.7142857142857)" style="font-family: sans-serif; font-size: 14px; fill: #000; opacity: 1;">1.2</text><text text-anchor="end" transform="translate(-7,4)" style="font-family: sans-serif; font-size: 14px; fill: #000; opacity: 1;">1.4</text></g><g class="mark-rule role-axis-domain" style="pointer-events: none;"><line transform="translate(0,250)" x2="0" y2="-250" style="fill: none; stroke: #888; stroke-width: 1; opacity: 1;"></line></g><g class="mark-text role-axis-title" style="pointer-events: none;"><text text-anchor="middle" transform="translate(-30.4619140625,125) rotate(-90) translate(0,-3)" style="font-family: sans-serif; font-size: 14px; font-weight: bold; fill: #000; opacity: 1;">Pruebas (por 1K)</text></g></g><path class="foreground" d="" style="pointer-events: none; display: none; fill: none;"></path></g></g><g class="mark-group role-scope layer_0_pathgroup"><g transform="translate(0,0)"><path class="background" d="M0,0h585v250h-585Z" style="fill: none;"></path><g><g class="mark-line role-mark layer_0_marks"><path d="M0,249.94408624352508L4.642857142857142,249.91213552553938L9.285714285714285,249.8721971280573L13.928571428571427,249.84024641007164L18.57142857142857,249.54470226870419L23.21428571428571,249.04147846042986L27.857142857142854,248.6181314471197L32.5,247.97911708740628L37.14285714285714,247.18833681726093L41.785714285714285,246.62919925251168L46.42857142857142,246.38956886761915L51.07142857142857,245.74256682840928L55.71428571428571,244.52843954495378L60.357142857142854,243.0427311586201L65,240.6384396301983L69.64285714285714,237.78683804997712L74.28571428571428,236.3810064586076L78.92857142857143,235.9736348042903L83.57142857142857,231.58041108126048L88.21428571428571,227.9619922693832L92.85714285714285,222.08306016001967L97.5,218.20903560425702L102.14285714285714,214.26312193302664L106.78571428571428,214.02349154813407L111.42857142857142,213.83178724022005L116.07142857142857,212.7294874697144L120.71428571428571,210.5248879287031L125.35714285714285,211.33963123733767L130,210.91628422402752L134.64285714285714,217.18661262871552L139.28571428571428,217.54605820605437L143.92857142857142,217.3144155006582L148.57142857142856,216.8990561668445L153.21428571428572,216.21211573015256L157.85714285714286,214.87817325425078L162.5,214.17525745856602L167.14285714285714,206.9144567963222L171.7857142857143,205.1651549866067L176.42857142857142,204.64595581933952L181.07142857142858,202.6889743427172L185.7142857142857,202.2975780473927L190.35714285714286,202.15379981645717L195,200.1009661858778L199.64285714285714,199.67761917256766L204.28571428571428,198.9747033768829L208.92857142857144,199.39805039019305L213.57142857142856,196.0272496427047L218.21428571428572,188.5427939545612L222.85714285714283,181.8171678185774L227.5,177.23223978763352L232.14285714285714,167.5272091994859L236.78571428571428,164.1324454135083L241.42857142857142,163.83690127214084L246.07142857142858,155.3939240444272L250.7142857142857,146.68735339333173L255.35714285714286,135.241008674965L260,119.01004393824397L264.64285714285717,98.76127641482476L269.2857142857143,95.27864815438659L273.92857142857144,94.03257015294538L278.57142857142856,85.64550668170668L283.2142857142857,78.97579430219776L287.85714285714283,73.93556853995811L292.5,73.43234473168381L297.1428571428571,83.76840200004848L301.78571428571433,84.53521923170459L306.42857142857144,85.78129723314576L311.07142857142856,92.0596133173302L315.7142857142857,98.25006492705401L320.3571428571429,100.99782667382176L325,110.07183058175241L329.64285714285717,105.57476702526917L334.2857142857143,106.03006475656498L338.92857142857144,105.9901263590829L343.5714285714286,116.90129655118963L348.2142857142857,110.24755953067358L352.85714285714283,108.65002363139004L357.50000000000006,97.32349410546956L362.14285714285717,94.2082991018666L366.7857142857143,90.1904963151684L371.4285714285714,89.55148195545497L376.0714285714286,66.69873091620354L380.7142857142857,60.97156471727197L385.35714285714283,50.475753858978955L390,40.14768427011067L394.64285714285717,33.8773558654227L399.2857142857143,34.508382545639705L403.92857142857144,34.39655503268985L408.57142857142856,28.13421430749827L413.2142857142857,25.92162708699053L417.8571428571429,31.776596157864823L422.5,35.73049750859164L427.1428571428571,42.91142137587126L431.78571428571433,42.128628785222304L436.42857142857144,41.70528177191218L441.07142857142856,47.73597979170763L445.71428571428567,54.79708846654099L450.3571428571429,56.19493237841408L455,53.57497350358906L459.6428571428571,47.168854547461976L464.2857142857143,46.72953217515899L468.92857142857144,47.29665741940464L473.57142857142856,46.9611748805551L478.2142857142857,48.327068074442536L482.85714285714283,50.19618507660434L487.5,61.13131830720034L492.14285714285717,72.05047617880354L496.7857142857143,75.34140013132765L501.4285714285714,75.38932620830619L506.0714285714286,73.98349461693662L510.7142857142857,73.27259114175544L515.3571428571429,70.99610248527632L520,66.83452146764266L524.6428571428571,66.13959335145431L529.2857142857143,74.92604079751392L533.9285714285714,74.66244737413216L538.5714285714286,71.93066098635725L543.2142857142858,74.17519892485066L547.8571428571429,95.33456191086148L552.5,127.26131685804357" style="fill: none; stroke: #4c78a8; stroke-width: 2; stroke-dasharray: 4,2;"></path></g></g><path class="foreground" d="" style="display: none; fill: none;"></path></g><g transform="translate(0,0)"><path class="background" d="M0,0h585v250h-585Z" style="fill: none;"></path><g><g class="mark-line role-mark layer_0_marks"><path d="M0,249.94408624352508L4.642857142857142,249.91213552553938L9.285714285714285,249.8721971280573L13.928571428571427,249.84024641007164L18.57142857142857,249.54470226870419L23.21428571428571,249.04147846042986L27.857142857142854,248.6181314471197L32.5,247.97911708740628L37.14285714285714,247.18833681726093L41.785714285714285,246.62919925251168L46.42857142857142,246.38956886761915L51.07142857142857,245.74256682840928L55.71428571428571,244.52843954495378L60.357142857142854,243.0427311586201L65,240.6384396301983L69.64285714285714,237.78683804997712L74.28571428571428,236.3810064586076L78.92857142857143,235.9736348042903L83.57142857142857,231.58041108126048L88.21428571428571,227.9619922693832L92.85714285714285,222.08306016001967L97.5,218.20903560425702L102.14285714285714,214.26312193302664L106.78571428571428,214.02349154813407L111.42857142857142,213.83178724022005L116.07142857142857,212.7294874697144L120.71428571428571,210.5248879287031L125.35714285714285,211.33963123733767L130,210.91628422402752L134.64285714285714,217.18661262871552L139.28571428571428,217.54605820605437L143.92857142857142,217.3144155006582L148.57142857142856,216.8990561668445L153.21428571428572,216.21211573015256L157.85714285714286,214.87817325425078L162.5,214.17525745856602L167.14285714285714,206.9144567963222L171.7857142857143,205.1651549866067L176.42857142857142,204.64595581933952L181.07142857142858,202.6889743427172L185.7142857142857,202.2975780473927L190.35714285714286,202.15379981645717L195,200.1009661858778L199.64285714285714,199.67761917256766L204.28571428571428,198.9747033768829L208.92857142857144,199.39805039019305L213.57142857142856,196.0272496427047L218.21428571428572,188.5427939545612L222.85714285714283,181.8171678185774L227.5,177.23223978763352L232.14285714285714,167.5272091994859L236.78571428571428,164.1324454135083L241.42857142857142,163.83690127214084L246.07142857142858,155.3939240444272L250.7142857142857,146.68735339333173L255.35714285714286,135.22503331597215L260,118.99406857925113L264.64285714285717,98.7453010558319L269.2857142857143,95.26267279539374L273.92857142857144,94.01659479395255L278.57142857142856,85.62953132271383L283.2142857142857,78.95981894320495L287.85714285714283,73.92758086046169L292.5,73.42435705218736L297.1428571428571,83.76041432055203L301.78571428571433,84.52723155220815L306.42857142857144,85.77330955364934L311.07142857142856,92.05162563783378L315.7142857142857,98.24207724755757L320.3571428571429,100.99782667382176L325,110.07183058175241L329.64285714285717,105.57476702526917L334.2857142857143,106.03006475656498L338.92857142857144,105.9901263590829L343.5714285714286,116.90129655118963L348.2142857142857,110.23957185117719L352.85714285714283,108.64203595189359L357.50000000000006,97.31550642597311L362.14285714285717,94.20031142237015L366.7857142857143,90.18250863567201L371.4285714285714,89.54349427595857L376.0714285714286,66.69074323670715L380.7142857142857,60.97156471727197L385.35714285714283,50.475753858978955L390,40.14768427011067L394.64285714285717,33.869368185926255L399.2857142857143,34.492407186646865L403.92857142857144,34.364604314704174L408.57142857142856,28.094275910016147L413.2142857142857,25.881688689508465L417.8571428571429,31.73665776038273L422.5,35.68257143161313L427.1428571428571,42.87148297838917L431.78571428571433,42.09667806723666L436.42857142857144,41.68930641291935L441.07142857142856,47.72000443271479L445.71428571428567,54.78111310754816L450.3571428571429,56.17895701942127L455,53.558998144596245L459.6428571428571,47.12891614997986L464.2857142857143,46.68959377767687L468.92857142857144,47.25671902192258L473.57142857142856,46.921236483073L478.2142857142857,48.27914199746402L482.85714285714283,49.91661629422972L487.5,60.676020575904545L492.14285714285717,71.51530165254353L496.7857142857143,74.79823792557124L501.4285714285714,74.84616400254976L506.0714285714286,73.34448025722318L510.7142857142857,71.91468562736442L515.3571428571429,68.61577399534386L520,64.40626690073168L524.6428571428571,63.54359751511854L529.2857142857143,72.31406960218531L533.9285714285714,71.95462402484651L538.5714285714286,65.70027097915133L543.2142857142858,55.835486801075305L547.8571428571429,51.13873125718166L552.5,43.00727352982825L557.1428571428571,29.939429873688695L561.7857142857143,19.379717579424334L566.4285714285714,17.83010775711924L571.0714285714286,28.661401154261856L575.7142857142857,45.755035276596026L580.3571428571429,74.52665682269306L585,116.66965384579356" style="fill: none; stroke: #4c78a8; stroke-width: 2; stroke-dasharray: 1,0;"></path></g></g><path class="foreground" d="" style="display: none; fill: none;"></path></g></g><g class="mark-symbol role-mark layer_1_marks"><path transform="translate(0,249.94408624352508)" d="M2.7386127875258306,0A2.7386127875258306,2.7386127875258306,0,1,1,-2.7386127875258306,0A2.7386127875258306,2.7386127875258306,0,1,1,2.7386127875258306,0" style="fill: #4c78a8; stroke-width: 2; stroke-dasharray: 4,2; opacity: 0;"></path><path transform="translate(4.642857142857142,249.91213552553938)" d="M2.7386127875258306,0A2.7386127875258306,2.7386127875258306,0,1,1,-2.7386127875258306,0A2.7386127875258306,2.7386127875258306,0,1,1,2.7386127875258306,0" style="fill: #4c78a8; stroke-width: 2; stroke-dasharray: 4,2; opacity: 0;"></path><path transform="translate(9.285714285714285,249.8721971280573)" d="M2.7386127875258306,0A2.7386127875258306,2.7386127875258306,0,1,1,-2.7386127875258306,0A2.7386127875258306,2.7386127875258306,0,1,1,2.7386127875258306,0" style="fill: #4c78a8; stroke-width: 2; stroke-dasharray: 4,2; opacity: 0;"></path><path transform="translate(13.928571428571427,249.84024641007164)" d="M2.7386127875258306,0A2.7386127875258306,2.7386127875258306,0,1,1,-2.7386127875258306,0A2.7386127875258306,2.7386127875258306,0,1,1,2.7386127875258306,0" style="fill: #4c78a8; stroke-width: 2; stroke-dasharray: 4,2; opacity: 0;"></path><path transform="translate(18.57142857142857,249.54470226870419)" d="M2.7386127875258306,0A2.7386127875258306,2.7386127875258306,0,1,1,-2.7386127875258306,0A2.7386127875258306,2.7386127875258306,0,1,1,2.7386127875258306,0" style="fill: #4c78a8; stroke-width: 2; stroke-dasharray: 4,2; opacity: 0;"></path><path transform="translate(23.21428571428571,249.04147846042986)" d="M2.7386127875258306,0A2.7386127875258306,2.7386127875258306,0,1,1,-2.7386127875258306,0A2.7386127875258306,2.7386127875258306,0,1,1,2.7386127875258306,0" style="fill: #4c78a8; stroke-width: 2; stroke-dasharray: 4,2; opacity: 0;"></path><path transform="translate(27.857142857142854,248.6181314471197)" d="M2.7386127875258306,0A2.7386127875258306,2.7386127875258306,0,1,1,-2.7386127875258306,0A2.7386127875258306,2.7386127875258306,0,1,1,2.7386127875258306,0" style="fill: #4c78a8; stroke-width: 2; stroke-dasharray: 4,2; opacity: 0;"></path><path transform="translate(32.5,247.97911708740628)" d="M2.7386127875258306,0A2.7386127875258306,2.7386127875258306,0,1,1,-2.7386127875258306,0A2.7386127875258306,2.7386127875258306,0,1,1,2.7386127875258306,0" style="fill: #4c78a8; stroke-width: 2; stroke-dasharray: 4,2; opacity: 0;"></path><path transform="translate(37.14285714285714,247.18833681726093)" d="M2.7386127875258306,0A2.7386127875258306,2.7386127875258306,0,1,1,-2.7386127875258306,0A2.7386127875258306,2.7386127875258306,0,1,1,2.7386127875258306,0" style="fill: #4c78a8; stroke-width: 2; stroke-dasharray: 4,2; opacity: 0;"></path><path transform="translate(41.785714285714285,246.62919925251168)" d="M2.7386127875258306,0A2.7386127875258306,2.7386127875258306,0,1,1,-2.7386127875258306,0A2.7386127875258306,2.7386127875258306,0,1,1,2.7386127875258306,0" style="fill: #4c78a8; stroke-width: 2; stroke-dasharray: 4,2; opacity: 0;"></path><path transform="translate(46.42857142857142,246.38956886761915)" d="M2.7386127875258306,0A2.7386127875258306,2.7386127875258306,0,1,1,-2.7386127875258306,0A2.7386127875258306,2.7386127875258306,0,1,1,2.7386127875258306,0" style="fill: #4c78a8; stroke-width: 2; stroke-dasharray: 4,2; opacity: 0;"></path><path transform="translate(51.07142857142857,245.74256682840928)" d="M2.7386127875258306,0A2.7386127875258306,2.7386127875258306,0,1,1,-2.7386127875258306,0A2.7386127875258306,2.7386127875258306,0,1,1,2.7386127875258306,0" style="fill: #4c78a8; stroke-width: 2; stroke-dasharray: 4,2; opacity: 0;"></path><path transform="translate(55.71428571428571,244.52843954495378)" d="M2.7386127875258306,0A2.7386127875258306,2.7386127875258306,0,1,1,-2.7386127875258306,0A2.7386127875258306,2.7386127875258306,0,1,1,2.7386127875258306,0" style="fill: #4c78a8; stroke-width: 2; stroke-dasharray: 4,2; opacity: 0;"></path><path transform="translate(60.357142857142854,243.0427311586201)" d="M2.7386127875258306,0A2.7386127875258306,2.7386127875258306,0,1,1,-2.7386127875258306,0A2.7386127875258306,2.7386127875258306,0,1,1,2.7386127875258306,0" style="fill: #4c78a8; stroke-width: 2; stroke-dasharray: 4,2; opacity: 0;"></path><path transform="translate(65,240.6384396301983)" d="M2.7386127875258306,0A2.7386127875258306,2.7386127875258306,0,1,1,-2.7386127875258306,0A2.7386127875258306,2.7386127875258306,0,1,1,2.7386127875258306,0" style="fill: #4c78a8; stroke-width: 2; stroke-dasharray: 4,2; opacity: 0;"></path><path transform="translate(69.64285714285714,237.78683804997712)" d="M2.7386127875258306,0A2.7386127875258306,2.7386127875258306,0,1,1,-2.7386127875258306,0A2.7386127875258306,2.7386127875258306,0,1,1,2.7386127875258306,0" style="fill: #4c78a8; stroke-width: 2; stroke-dasharray: 4,2; opacity: 0;"></path><path transform="translate(74.28571428571428,236.3810064586076)" d="M2.7386127875258306,0A2.7386127875258306,2.7386127875258306,0,1,1,-2.7386127875258306,0A2.7386127875258306,2.7386127875258306,0,1,1,2.7386127875258306,0" style="fill: #4c78a8; stroke-width: 2; stroke-dasharray: 4,2; opacity: 0;"></path><path transform="translate(78.92857142857143,235.9736348042903)" d="M2.7386127875258306,0A2.7386127875258306,2.7386127875258306,0,1,1,-2.7386127875258306,0A2.7386127875258306,2.7386127875258306,0,1,1,2.7386127875258306,0" style="fill: #4c78a8; stroke-width: 2; stroke-dasharray: 4,2; opacity: 0;"></path><path transform="translate(83.57142857142857,231.58041108126048)" d="M2.7386127875258306,0A2.7386127875258306,2.7386127875258306,0,1,1,-2.7386127875258306,0A2.7386127875258306,2.7386127875258306,0,1,1,2.7386127875258306,0" style="fill: #4c78a8; stroke-width: 2; stroke-dasharray: 4,2; opacity: 0;"></path><path transform="translate(88.21428571428571,227.9619922693832)" d="M2.7386127875258306,0A2.7386127875258306,2.7386127875258306,0,1,1,-2.7386127875258306,0A2.7386127875258306,2.7386127875258306,0,1,1,2.7386127875258306,0" style="fill: #4c78a8; stroke-width: 2; stroke-dasharray: 4,2; opacity: 0;"></path><path transform="translate(92.85714285714285,222.08306016001967)" d="M2.7386127875258306,0A2.7386127875258306,2.7386127875258306,0,1,1,-2.7386127875258306,0A2.7386127875258306,2.7386127875258306,0,1,1,2.7386127875258306,0" style="fill: #4c78a8; stroke-width: 2; stroke-dasharray: 4,2; opacity: 0;"></path><path transform="translate(97.5,218.20903560425702)" d="M2.7386127875258306,0A2.7386127875258306,2.7386127875258306,0,1,1,-2.7386127875258306,0A2.7386127875258306,2.7386127875258306,0,1,1,2.7386127875258306,0" style="fill: #4c78a8; stroke-width: 2; stroke-dasharray: 4,2; opacity: 0;"></path><path transform="translate(102.14285714285714,214.26312193302664)" d="M2.7386127875258306,0A2.7386127875258306,2.7386127875258306,0,1,1,-2.7386127875258306,0A2.7386127875258306,2.7386127875258306,0,1,1,2.7386127875258306,0" style="fill: #4c78a8; stroke-width: 2; stroke-dasharray: 4,2; opacity: 0;"></path><path transform="translate(106.78571428571428,214.02349154813407)" d="M2.7386127875258306,0A2.7386127875258306,2.7386127875258306,0,1,1,-2.7386127875258306,0A2.7386127875258306,2.7386127875258306,0,1,1,2.7386127875258306,0" style="fill: #4c78a8; stroke-width: 2; stroke-dasharray: 4,2; opacity: 0;"></path><path transform="translate(111.42857142857142,213.83178724022005)" d="M2.7386127875258306,0A2.7386127875258306,2.7386127875258306,0,1,1,-2.7386127875258306,0A2.7386127875258306,2.7386127875258306,0,1,1,2.7386127875258306,0" style="fill: #4c78a8; stroke-width: 2; stroke-dasharray: 4,2; opacity: 0;"></path><path transform="translate(116.07142857142857,212.7294874697144)" d="M2.7386127875258306,0A2.7386127875258306,2.7386127875258306,0,1,1,-2.7386127875258306,0A2.7386127875258306,2.7386127875258306,0,1,1,2.7386127875258306,0" style="fill: #4c78a8; stroke-width: 2; stroke-dasharray: 4,2; opacity: 0;"></path><path transform="translate(120.71428571428571,210.5248879287031)" d="M2.7386127875258306,0A2.7386127875258306,2.7386127875258306,0,1,1,-2.7386127875258306,0A2.7386127875258306,2.7386127875258306,0,1,1,2.7386127875258306,0" style="fill: #4c78a8; stroke-width: 2; stroke-dasharray: 4,2; opacity: 0;"></path><path transform="translate(125.35714285714285,211.33963123733767)" d="M2.7386127875258306,0A2.7386127875258306,2.7386127875258306,0,1,1,-2.7386127875258306,0A2.7386127875258306,2.7386127875258306,0,1,1,2.7386127875258306,0" style="fill: #4c78a8; stroke-width: 2; stroke-dasharray: 4,2; opacity: 0;"></path><path transform="translate(130,210.91628422402752)" d="M2.7386127875258306,0A2.7386127875258306,2.7386127875258306,0,1,1,-2.7386127875258306,0A2.7386127875258306,2.7386127875258306,0,1,1,2.7386127875258306,0" style="fill: #4c78a8; stroke-width: 2; stroke-dasharray: 4,2; opacity: 0;"></path><path transform="translate(134.64285714285714,217.18661262871552)" d="M2.7386127875258306,0A2.7386127875258306,2.7386127875258306,0,1,1,-2.7386127875258306,0A2.7386127875258306,2.7386127875258306,0,1,1,2.7386127875258306,0" style="fill: #4c78a8; stroke-width: 2; stroke-dasharray: 4,2; opacity: 0;"></path><path transform="translate(139.28571428571428,217.54605820605437)" d="M2.7386127875258306,0A2.7386127875258306,2.7386127875258306,0,1,1,-2.7386127875258306,0A2.7386127875258306,2.7386127875258306,0,1,1,2.7386127875258306,0" style="fill: #4c78a8; stroke-width: 2; stroke-dasharray: 4,2; opacity: 0;"></path><path transform="translate(143.92857142857142,217.3144155006582)" d="M2.7386127875258306,0A2.7386127875258306,2.7386127875258306,0,1,1,-2.7386127875258306,0A2.7386127875258306,2.7386127875258306,0,1,1,2.7386127875258306,0" style="fill: #4c78a8; stroke-width: 2; stroke-dasharray: 4,2; opacity: 0;"></path><path transform="translate(148.57142857142856,216.8990561668445)" d="M2.7386127875258306,0A2.7386127875258306,2.7386127875258306,0,1,1,-2.7386127875258306,0A2.7386127875258306,2.7386127875258306,0,1,1,2.7386127875258306,0" style="fill: #4c78a8; stroke-width: 2; stroke-dasharray: 4,2; opacity: 0;"></path><path transform="translate(153.21428571428572,216.21211573015256)" d="M2.7386127875258306,0A2.7386127875258306,2.7386127875258306,0,1,1,-2.7386127875258306,0A2.7386127875258306,2.7386127875258306,0,1,1,2.7386127875258306,0" style="fill: #4c78a8; stroke-width: 2; stroke-dasharray: 4,2; opacity: 0;"></path><path transform="translate(157.85714285714286,214.87817325425078)" d="M2.7386127875258306,0A2.7386127875258306,2.7386127875258306,0,1,1,-2.7386127875258306,0A2.7386127875258306,2.7386127875258306,0,1,1,2.7386127875258306,0" style="fill: #4c78a8; stroke-width: 2; stroke-dasharray: 4,2; opacity: 0;"></path><path transform="translate(162.5,214.17525745856602)" d="M2.7386127875258306,0A2.7386127875258306,2.7386127875258306,0,1,1,-2.7386127875258306,0A2.7386127875258306,2.7386127875258306,0,1,1,2.7386127875258306,0" style="fill: #4c78a8; stroke-width: 2; stroke-dasharray: 4,2; opacity: 0;"></path><path transform="translate(167.14285714285714,206.9144567963222)" d="M2.7386127875258306,0A2.7386127875258306,2.7386127875258306,0,1,1,-2.7386127875258306,0A2.7386127875258306,2.7386127875258306,0,1,1,2.7386127875258306,0" style="fill: #4c78a8; stroke-width: 2; stroke-dasharray: 4,2; opacity: 0;"></path><path transform="translate(171.7857142857143,205.1651549866067)" d="M2.7386127875258306,0A2.7386127875258306,2.7386127875258306,0,1,1,-2.7386127875258306,0A2.7386127875258306,2.7386127875258306,0,1,1,2.7386127875258306,0" style="fill: #4c78a8; stroke-width: 2; stroke-dasharray: 4,2; opacity: 0;"></path><path transform="translate(176.42857142857142,204.64595581933952)" d="M2.7386127875258306,0A2.7386127875258306,2.7386127875258306,0,1,1,-2.7386127875258306,0A2.7386127875258306,2.7386127875258306,0,1,1,2.7386127875258306,0" style="fill: #4c78a8; stroke-width: 2; stroke-dasharray: 4,2; opacity: 0;"></path><path transform="translate(181.07142857142858,202.6889743427172)" d="M2.7386127875258306,0A2.7386127875258306,2.7386127875258306,0,1,1,-2.7386127875258306,0A2.7386127875258306,2.7386127875258306,0,1,1,2.7386127875258306,0" style="fill: #4c78a8; stroke-width: 2; stroke-dasharray: 4,2; opacity: 0;"></path><path transform="translate(185.7142857142857,202.2975780473927)" d="M2.7386127875258306,0A2.7386127875258306,2.7386127875258306,0,1,1,-2.7386127875258306,0A2.7386127875258306,2.7386127875258306,0,1,1,2.7386127875258306,0" style="fill: #4c78a8; stroke-width: 2; stroke-dasharray: 4,2; opacity: 0;"></path><path transform="translate(190.35714285714286,202.15379981645717)" d="M2.7386127875258306,0A2.7386127875258306,2.7386127875258306,0,1,1,-2.7386127875258306,0A2.7386127875258306,2.7386127875258306,0,1,1,2.7386127875258306,0" style="fill: #4c78a8; stroke-width: 2; stroke-dasharray: 4,2; opacity: 0;"></path><path transform="translate(195,200.1009661858778)" d="M2.7386127875258306,0A2.7386127875258306,2.7386127875258306,0,1,1,-2.7386127875258306,0A2.7386127875258306,2.7386127875258306,0,1,1,2.7386127875258306,0" style="fill: #4c78a8; stroke-width: 2; stroke-dasharray: 4,2; opacity: 0;"></path><path transform="translate(199.64285714285714,199.67761917256766)" d="M2.7386127875258306,0A2.7386127875258306,2.7386127875258306,0,1,1,-2.7386127875258306,0A2.7386127875258306,2.7386127875258306,0,1,1,2.7386127875258306,0" style="fill: #4c78a8; stroke-width: 2; stroke-dasharray: 4,2; opacity: 0;"></path><path transform="translate(204.28571428571428,198.9747033768829)" d="M2.7386127875258306,0A2.7386127875258306,2.7386127875258306,0,1,1,-2.7386127875258306,0A2.7386127875258306,2.7386127875258306,0,1,1,2.7386127875258306,0" style="fill: #4c78a8; stroke-width: 2; stroke-dasharray: 4,2; opacity: 0;"></path><path transform="translate(208.92857142857144,199.39805039019305)" d="M2.7386127875258306,0A2.7386127875258306,2.7386127875258306,0,1,1,-2.7386127875258306,0A2.7386127875258306,2.7386127875258306,0,1,1,2.7386127875258306,0" style="fill: #4c78a8; stroke-width: 2; stroke-dasharray: 4,2; opacity: 0;"></path><path transform="translate(213.57142857142856,196.0272496427047)" d="M2.7386127875258306,0A2.7386127875258306,2.7386127875258306,0,1,1,-2.7386127875258306,0A2.7386127875258306,2.7386127875258306,0,1,1,2.7386127875258306,0" style="fill: #4c78a8; stroke-width: 2; stroke-dasharray: 4,2; opacity: 0;"></path><path transform="translate(218.21428571428572,188.5427939545612)" d="M2.7386127875258306,0A2.7386127875258306,2.7386127875258306,0,1,1,-2.7386127875258306,0A2.7386127875258306,2.7386127875258306,0,1,1,2.7386127875258306,0" style="fill: #4c78a8; stroke-width: 2; stroke-dasharray: 4,2; opacity: 0;"></path><path transform="translate(222.85714285714283,181.8171678185774)" d="M2.7386127875258306,0A2.7386127875258306,2.7386127875258306,0,1,1,-2.7386127875258306,0A2.7386127875258306,2.7386127875258306,0,1,1,2.7386127875258306,0" style="fill: #4c78a8; stroke-width: 2; stroke-dasharray: 4,2; opacity: 0;"></path><path transform="translate(227.5,177.23223978763352)" d="M2.7386127875258306,0A2.7386127875258306,2.7386127875258306,0,1,1,-2.7386127875258306,0A2.7386127875258306,2.7386127875258306,0,1,1,2.7386127875258306,0" style="fill: #4c78a8; stroke-width: 2; stroke-dasharray: 4,2; opacity: 0;"></path><path transform="translate(232.14285714285714,167.5272091994859)" d="M2.7386127875258306,0A2.7386127875258306,2.7386127875258306,0,1,1,-2.7386127875258306,0A2.7386127875258306,2.7386127875258306,0,1,1,2.7386127875258306,0" style="fill: #4c78a8; stroke-width: 2; stroke-dasharray: 4,2; opacity: 0;"></path><path transform="translate(236.78571428571428,164.1324454135083)" d="M2.7386127875258306,0A2.7386127875258306,2.7386127875258306,0,1,1,-2.7386127875258306,0A2.7386127875258306,2.7386127875258306,0,1,1,2.7386127875258306,0" style="fill: #4c78a8; stroke-width: 2; stroke-dasharray: 4,2; opacity: 0;"></path><path transform="translate(241.42857142857142,163.83690127214084)" d="M2.7386127875258306,0A2.7386127875258306,2.7386127875258306,0,1,1,-2.7386127875258306,0A2.7386127875258306,2.7386127875258306,0,1,1,2.7386127875258306,0" style="fill: #4c78a8; stroke-width: 2; stroke-dasharray: 4,2; opacity: 0;"></path><path transform="translate(246.07142857142858,155.3939240444272)" d="M2.7386127875258306,0A2.7386127875258306,2.7386127875258306,0,1,1,-2.7386127875258306,0A2.7386127875258306,2.7386127875258306,0,1,1,2.7386127875258306,0" style="fill: #4c78a8; stroke-width: 2; stroke-dasharray: 4,2; opacity: 0;"></path><path transform="translate(250.7142857142857,146.68735339333173)" d="M2.7386127875258306,0A2.7386127875258306,2.7386127875258306,0,1,1,-2.7386127875258306,0A2.7386127875258306,2.7386127875258306,0,1,1,2.7386127875258306,0" style="fill: #4c78a8; stroke-width: 2; stroke-dasharray: 4,2; opacity: 0;"></path><path transform="translate(255.35714285714286,135.241008674965)" d="M2.7386127875258306,0A2.7386127875258306,2.7386127875258306,0,1,1,-2.7386127875258306,0A2.7386127875258306,2.7386127875258306,0,1,1,2.7386127875258306,0" style="fill: #4c78a8; stroke-width: 2; stroke-dasharray: 4,2; opacity: 0;"></path><path transform="translate(260,119.01004393824397)" d="M2.7386127875258306,0A2.7386127875258306,2.7386127875258306,0,1,1,-2.7386127875258306,0A2.7386127875258306,2.7386127875258306,0,1,1,2.7386127875258306,0" style="fill: #4c78a8; stroke-width: 2; stroke-dasharray: 4,2; opacity: 0;"></path><path transform="translate(264.64285714285717,98.76127641482476)" d="M2.7386127875258306,0A2.7386127875258306,2.7386127875258306,0,1,1,-2.7386127875258306,0A2.7386127875258306,2.7386127875258306,0,1,1,2.7386127875258306,0" style="fill: #4c78a8; stroke-width: 2; stroke-dasharray: 4,2; opacity: 0;"></path><path transform="translate(269.2857142857143,95.27864815438659)" d="M2.7386127875258306,0A2.7386127875258306,2.7386127875258306,0,1,1,-2.7386127875258306,0A2.7386127875258306,2.7386127875258306,0,1,1,2.7386127875258306,0" style="fill: #4c78a8; stroke-width: 2; stroke-dasharray: 4,2; opacity: 0;"></path><path transform="translate(273.92857142857144,94.03257015294538)" d="M2.7386127875258306,0A2.7386127875258306,2.7386127875258306,0,1,1,-2.7386127875258306,0A2.7386127875258306,2.7386127875258306,0,1,1,2.7386127875258306,0" style="fill: #4c78a8; stroke-width: 2; stroke-dasharray: 4,2; opacity: 0;"></path><path transform="translate(278.57142857142856,85.64550668170668)" d="M2.7386127875258306,0A2.7386127875258306,2.7386127875258306,0,1,1,-2.7386127875258306,0A2.7386127875258306,2.7386127875258306,0,1,1,2.7386127875258306,0" style="fill: #4c78a8; stroke-width: 2; stroke-dasharray: 4,2; opacity: 0;"></path><path transform="translate(283.2142857142857,78.97579430219776)" d="M2.7386127875258306,0A2.7386127875258306,2.7386127875258306,0,1,1,-2.7386127875258306,0A2.7386127875258306,2.7386127875258306,0,1,1,2.7386127875258306,0" style="fill: #4c78a8; stroke-width: 2; stroke-dasharray: 4,2; opacity: 0;"></path><path transform="translate(287.85714285714283,73.93556853995811)" d="M2.7386127875258306,0A2.7386127875258306,2.7386127875258306,0,1,1,-2.7386127875258306,0A2.7386127875258306,2.7386127875258306,0,1,1,2.7386127875258306,0" style="fill: #4c78a8; stroke-width: 2; stroke-dasharray: 4,2; opacity: 0;"></path><path transform="translate(292.5,73.43234473168381)" d="M2.7386127875258306,0A2.7386127875258306,2.7386127875258306,0,1,1,-2.7386127875258306,0A2.7386127875258306,2.7386127875258306,0,1,1,2.7386127875258306,0" style="fill: #4c78a8; stroke-width: 2; stroke-dasharray: 4,2; opacity: 0;"></path><path transform="translate(297.1428571428571,83.76840200004848)" d="M2.7386127875258306,0A2.7386127875258306,2.7386127875258306,0,1,1,-2.7386127875258306,0A2.7386127875258306,2.7386127875258306,0,1,1,2.7386127875258306,0" style="fill: #4c78a8; stroke-width: 2; stroke-dasharray: 4,2; opacity: 0;"></path><path transform="translate(301.78571428571433,84.53521923170459)" d="M2.7386127875258306,0A2.7386127875258306,2.7386127875258306,0,1,1,-2.7386127875258306,0A2.7386127875258306,2.7386127875258306,0,1,1,2.7386127875258306,0" style="fill: #4c78a8; stroke-width: 2; stroke-dasharray: 4,2; opacity: 0;"></path><path transform="translate(306.42857142857144,85.78129723314576)" d="M2.7386127875258306,0A2.7386127875258306,2.7386127875258306,0,1,1,-2.7386127875258306,0A2.7386127875258306,2.7386127875258306,0,1,1,2.7386127875258306,0" style="fill: #4c78a8; stroke-width: 2; stroke-dasharray: 4,2; opacity: 0;"></path><path transform="translate(311.07142857142856,92.0596133173302)" d="M2.7386127875258306,0A2.7386127875258306,2.7386127875258306,0,1,1,-2.7386127875258306,0A2.7386127875258306,2.7386127875258306,0,1,1,2.7386127875258306,0" style="fill: #4c78a8; stroke-width: 2; stroke-dasharray: 4,2; opacity: 0;"></path><path transform="translate(315.7142857142857,98.25006492705401)" d="M2.7386127875258306,0A2.7386127875258306,2.7386127875258306,0,1,1,-2.7386127875258306,0A2.7386127875258306,2.7386127875258306,0,1,1,2.7386127875258306,0" style="fill: #4c78a8; stroke-width: 2; stroke-dasharray: 4,2; opacity: 0;"></path><path transform="translate(320.3571428571429,100.99782667382176)" d="M2.7386127875258306,0A2.7386127875258306,2.7386127875258306,0,1,1,-2.7386127875258306,0A2.7386127875258306,2.7386127875258306,0,1,1,2.7386127875258306,0" style="fill: #4c78a8; stroke-width: 2; stroke-dasharray: 4,2; opacity: 0;"></path><path transform="translate(325,110.07183058175241)" d="M2.7386127875258306,0A2.7386127875258306,2.7386127875258306,0,1,1,-2.7386127875258306,0A2.7386127875258306,2.7386127875258306,0,1,1,2.7386127875258306,0" style="fill: #4c78a8; stroke-width: 2; stroke-dasharray: 4,2; opacity: 0;"></path><path transform="translate(329.64285714285717,105.57476702526917)" d="M2.7386127875258306,0A2.7386127875258306,2.7386127875258306,0,1,1,-2.7386127875258306,0A2.7386127875258306,2.7386127875258306,0,1,1,2.7386127875258306,0" style="fill: #4c78a8; stroke-width: 2; stroke-dasharray: 4,2; opacity: 0;"></path><path transform="translate(334.2857142857143,106.03006475656498)" d="M2.7386127875258306,0A2.7386127875258306,2.7386127875258306,0,1,1,-2.7386127875258306,0A2.7386127875258306,2.7386127875258306,0,1,1,2.7386127875258306,0" style="fill: #4c78a8; stroke-width: 2; stroke-dasharray: 4,2; opacity: 0;"></path><path transform="translate(338.92857142857144,105.9901263590829)" d="M2.7386127875258306,0A2.7386127875258306,2.7386127875258306,0,1,1,-2.7386127875258306,0A2.7386127875258306,2.7386127875258306,0,1,1,2.7386127875258306,0" style="fill: #4c78a8; stroke-width: 2; stroke-dasharray: 4,2; opacity: 0;"></path><path transform="translate(343.5714285714286,116.90129655118963)" d="M2.7386127875258306,0A2.7386127875258306,2.7386127875258306,0,1,1,-2.7386127875258306,0A2.7386127875258306,2.7386127875258306,0,1,1,2.7386127875258306,0" style="fill: #4c78a8; stroke-width: 2; stroke-dasharray: 4,2; opacity: 0;"></path><path transform="translate(348.2142857142857,110.24755953067358)" d="M2.7386127875258306,0A2.7386127875258306,2.7386127875258306,0,1,1,-2.7386127875258306,0A2.7386127875258306,2.7386127875258306,0,1,1,2.7386127875258306,0" style="fill: #4c78a8; stroke-width: 2; stroke-dasharray: 4,2; opacity: 0;"></path><path transform="translate(352.85714285714283,108.65002363139004)" d="M2.7386127875258306,0A2.7386127875258306,2.7386127875258306,0,1,1,-2.7386127875258306,0A2.7386127875258306,2.7386127875258306,0,1,1,2.7386127875258306,0" style="fill: #4c78a8; stroke-width: 2; stroke-dasharray: 4,2; opacity: 0;"></path><path transform="translate(357.50000000000006,97.32349410546956)" d="M2.7386127875258306,0A2.7386127875258306,2.7386127875258306,0,1,1,-2.7386127875258306,0A2.7386127875258306,2.7386127875258306,0,1,1,2.7386127875258306,0" style="fill: #4c78a8; stroke-width: 2; stroke-dasharray: 4,2; opacity: 0;"></path><path transform="translate(362.14285714285717,94.2082991018666)" d="M2.7386127875258306,0A2.7386127875258306,2.7386127875258306,0,1,1,-2.7386127875258306,0A2.7386127875258306,2.7386127875258306,0,1,1,2.7386127875258306,0" style="fill: #4c78a8; stroke-width: 2; stroke-dasharray: 4,2; opacity: 0;"></path><path transform="translate(366.7857142857143,90.1904963151684)" d="M2.7386127875258306,0A2.7386127875258306,2.7386127875258306,0,1,1,-2.7386127875258306,0A2.7386127875258306,2.7386127875258306,0,1,1,2.7386127875258306,0" style="fill: #4c78a8; stroke-width: 2; stroke-dasharray: 4,2; opacity: 0;"></path><path transform="translate(371.4285714285714,89.55148195545497)" d="M2.7386127875258306,0A2.7386127875258306,2.7386127875258306,0,1,1,-2.7386127875258306,0A2.7386127875258306,2.7386127875258306,0,1,1,2.7386127875258306,0" style="fill: #4c78a8; stroke-width: 2; stroke-dasharray: 4,2; opacity: 0;"></path><path transform="translate(376.0714285714286,66.69873091620354)" d="M2.7386127875258306,0A2.7386127875258306,2.7386127875258306,0,1,1,-2.7386127875258306,0A2.7386127875258306,2.7386127875258306,0,1,1,2.7386127875258306,0" style="fill: #4c78a8; stroke-width: 2; stroke-dasharray: 4,2; opacity: 0;"></path><path transform="translate(380.7142857142857,60.97156471727197)" d="M2.7386127875258306,0A2.7386127875258306,2.7386127875258306,0,1,1,-2.7386127875258306,0A2.7386127875258306,2.7386127875258306,0,1,1,2.7386127875258306,0" style="fill: #4c78a8; stroke-width: 2; stroke-dasharray: 4,2; opacity: 0;"></path><path transform="translate(385.35714285714283,50.475753858978955)" d="M2.7386127875258306,0A2.7386127875258306,2.7386127875258306,0,1,1,-2.7386127875258306,0A2.7386127875258306,2.7386127875258306,0,1,1,2.7386127875258306,0" style="fill: #4c78a8; stroke-width: 2; stroke-dasharray: 4,2; opacity: 0;"></path><path transform="translate(390,40.14768427011067)" d="M2.7386127875258306,0A2.7386127875258306,2.7386127875258306,0,1,1,-2.7386127875258306,0A2.7386127875258306,2.7386127875258306,0,1,1,2.7386127875258306,0" style="fill: #4c78a8; stroke-width: 2; stroke-dasharray: 4,2; opacity: 0;"></path><path transform="translate(394.64285714285717,33.8773558654227)" d="M2.7386127875258306,0A2.7386127875258306,2.7386127875258306,0,1,1,-2.7386127875258306,0A2.7386127875258306,2.7386127875258306,0,1,1,2.7386127875258306,0" style="fill: #4c78a8; stroke-width: 2; stroke-dasharray: 4,2; opacity: 0;"></path><path transform="translate(399.2857142857143,34.508382545639705)" d="M2.7386127875258306,0A2.7386127875258306,2.7386127875258306,0,1,1,-2.7386127875258306,0A2.7386127875258306,2.7386127875258306,0,1,1,2.7386127875258306,0" style="fill: #4c78a8; stroke-width: 2; stroke-dasharray: 4,2; opacity: 0;"></path><path transform="translate(403.92857142857144,34.39655503268985)" d="M2.7386127875258306,0A2.7386127875258306,2.7386127875258306,0,1,1,-2.7386127875258306,0A2.7386127875258306,2.7386127875258306,0,1,1,2.7386127875258306,0" style="fill: #4c78a8; stroke-width: 2; stroke-dasharray: 4,2; opacity: 0;"></path><path transform="translate(408.57142857142856,28.13421430749827)" d="M2.7386127875258306,0A2.7386127875258306,2.7386127875258306,0,1,1,-2.7386127875258306,0A2.7386127875258306,2.7386127875258306,0,1,1,2.7386127875258306,0" style="fill: #4c78a8; stroke-width: 2; stroke-dasharray: 4,2; opacity: 0;"></path><path transform="translate(413.2142857142857,25.92162708699053)" d="M2.7386127875258306,0A2.7386127875258306,2.7386127875258306,0,1,1,-2.7386127875258306,0A2.7386127875258306,2.7386127875258306,0,1,1,2.7386127875258306,0" style="fill: #4c78a8; stroke-width: 2; stroke-dasharray: 4,2; opacity: 0;"></path><path transform="translate(417.8571428571429,31.776596157864823)" d="M2.7386127875258306,0A2.7386127875258306,2.7386127875258306,0,1,1,-2.7386127875258306,0A2.7386127875258306,2.7386127875258306,0,1,1,2.7386127875258306,0" style="fill: #4c78a8; stroke-width: 2; stroke-dasharray: 4,2; opacity: 0;"></path><path transform="translate(422.5,35.73049750859164)" d="M2.7386127875258306,0A2.7386127875258306,2.7386127875258306,0,1,1,-2.7386127875258306,0A2.7386127875258306,2.7386127875258306,0,1,1,2.7386127875258306,0" style="fill: #4c78a8; stroke-width: 2; stroke-dasharray: 4,2; opacity: 0;"></path><path transform="translate(427.1428571428571,42.91142137587126)" d="M2.7386127875258306,0A2.7386127875258306,2.7386127875258306,0,1,1,-2.7386127875258306,0A2.7386127875258306,2.7386127875258306,0,1,1,2.7386127875258306,0" style="fill: #4c78a8; stroke-width: 2; stroke-dasharray: 4,2; opacity: 0;"></path><path transform="translate(431.78571428571433,42.128628785222304)" d="M2.7386127875258306,0A2.7386127875258306,2.7386127875258306,0,1,1,-2.7386127875258306,0A2.7386127875258306,2.7386127875258306,0,1,1,2.7386127875258306,0" style="fill: #4c78a8; stroke-width: 2; stroke-dasharray: 4,2; opacity: 0;"></path><path transform="translate(436.42857142857144,41.70528177191218)" d="M2.7386127875258306,0A2.7386127875258306,2.7386127875258306,0,1,1,-2.7386127875258306,0A2.7386127875258306,2.7386127875258306,0,1,1,2.7386127875258306,0" style="fill: #4c78a8; stroke-width: 2; stroke-dasharray: 4,2; opacity: 0;"></path><path transform="translate(441.07142857142856,47.73597979170763)" d="M2.7386127875258306,0A2.7386127875258306,2.7386127875258306,0,1,1,-2.7386127875258306,0A2.7386127875258306,2.7386127875258306,0,1,1,2.7386127875258306,0" style="fill: #4c78a8; stroke-width: 2; stroke-dasharray: 4,2; opacity: 0;"></path><path transform="translate(445.71428571428567,54.79708846654099)" d="M2.7386127875258306,0A2.7386127875258306,2.7386127875258306,0,1,1,-2.7386127875258306,0A2.7386127875258306,2.7386127875258306,0,1,1,2.7386127875258306,0" style="fill: #4c78a8; stroke-width: 2; stroke-dasharray: 4,2; opacity: 0;"></path><path transform="translate(450.3571428571429,56.19493237841408)" d="M2.7386127875258306,0A2.7386127875258306,2.7386127875258306,0,1,1,-2.7386127875258306,0A2.7386127875258306,2.7386127875258306,0,1,1,2.7386127875258306,0" style="fill: #4c78a8; stroke-width: 2; stroke-dasharray: 4,2; opacity: 0;"></path><path transform="translate(455,53.57497350358906)" d="M2.7386127875258306,0A2.7386127875258306,2.7386127875258306,0,1,1,-2.7386127875258306,0A2.7386127875258306,2.7386127875258306,0,1,1,2.7386127875258306,0" style="fill: #4c78a8; stroke-width: 2; stroke-dasharray: 4,2; opacity: 0;"></path><path transform="translate(459.6428571428571,47.168854547461976)" d="M2.7386127875258306,0A2.7386127875258306,2.7386127875258306,0,1,1,-2.7386127875258306,0A2.7386127875258306,2.7386127875258306,0,1,1,2.7386127875258306,0" style="fill: #4c78a8; stroke-width: 2; stroke-dasharray: 4,2; opacity: 0;"></path><path transform="translate(464.2857142857143,46.72953217515899)" d="M2.7386127875258306,0A2.7386127875258306,2.7386127875258306,0,1,1,-2.7386127875258306,0A2.7386127875258306,2.7386127875258306,0,1,1,2.7386127875258306,0" style="fill: #4c78a8; stroke-width: 2; stroke-dasharray: 4,2; opacity: 0;"></path><path transform="translate(468.92857142857144,47.29665741940464)" d="M2.7386127875258306,0A2.7386127875258306,2.7386127875258306,0,1,1,-2.7386127875258306,0A2.7386127875258306,2.7386127875258306,0,1,1,2.7386127875258306,0" style="fill: #4c78a8; stroke-width: 2; stroke-dasharray: 4,2; opacity: 0;"></path><path transform="translate(473.57142857142856,46.9611748805551)" d="M2.7386127875258306,0A2.7386127875258306,2.7386127875258306,0,1,1,-2.7386127875258306,0A2.7386127875258306,2.7386127875258306,0,1,1,2.7386127875258306,0" style="fill: #4c78a8; stroke-width: 2; stroke-dasharray: 4,2; opacity: 0;"></path><path transform="translate(478.2142857142857,48.327068074442536)" d="M2.7386127875258306,0A2.7386127875258306,2.7386127875258306,0,1,1,-2.7386127875258306,0A2.7386127875258306,2.7386127875258306,0,1,1,2.7386127875258306,0" style="fill: #4c78a8; stroke-width: 2; stroke-dasharray: 4,2; opacity: 0;"></path><path transform="translate(482.85714285714283,50.19618507660434)" d="M2.7386127875258306,0A2.7386127875258306,2.7386127875258306,0,1,1,-2.7386127875258306,0A2.7386127875258306,2.7386127875258306,0,1,1,2.7386127875258306,0" style="fill: #4c78a8; stroke-width: 2; stroke-dasharray: 4,2; opacity: 0;"></path><path transform="translate(487.5,61.13131830720034)" d="M2.7386127875258306,0A2.7386127875258306,2.7386127875258306,0,1,1,-2.7386127875258306,0A2.7386127875258306,2.7386127875258306,0,1,1,2.7386127875258306,0" style="fill: #4c78a8; stroke-width: 2; stroke-dasharray: 4,2; opacity: 0;"></path><path transform="translate(492.14285714285717,72.05047617880354)" d="M2.7386127875258306,0A2.7386127875258306,2.7386127875258306,0,1,1,-2.7386127875258306,0A2.7386127875258306,2.7386127875258306,0,1,1,2.7386127875258306,0" style="fill: #4c78a8; stroke-width: 2; stroke-dasharray: 4,2; opacity: 0;"></path><path transform="translate(496.7857142857143,75.34140013132765)" d="M2.7386127875258306,0A2.7386127875258306,2.7386127875258306,0,1,1,-2.7386127875258306,0A2.7386127875258306,2.7386127875258306,0,1,1,2.7386127875258306,0" style="fill: #4c78a8; stroke-width: 2; stroke-dasharray: 4,2; opacity: 0;"></path><path transform="translate(501.4285714285714,75.38932620830619)" d="M2.7386127875258306,0A2.7386127875258306,2.7386127875258306,0,1,1,-2.7386127875258306,0A2.7386127875258306,2.7386127875258306,0,1,1,2.7386127875258306,0" style="fill: #4c78a8; stroke-width: 2; stroke-dasharray: 4,2; opacity: 0;"></path><path transform="translate(506.0714285714286,73.98349461693662)" d="M2.7386127875258306,0A2.7386127875258306,2.7386127875258306,0,1,1,-2.7386127875258306,0A2.7386127875258306,2.7386127875258306,0,1,1,2.7386127875258306,0" style="fill: #4c78a8; stroke-width: 2; stroke-dasharray: 4,2; opacity: 0;"></path><path transform="translate(510.7142857142857,73.27259114175544)" d="M2.7386127875258306,0A2.7386127875258306,2.7386127875258306,0,1,1,-2.7386127875258306,0A2.7386127875258306,2.7386127875258306,0,1,1,2.7386127875258306,0" style="fill: #4c78a8; stroke-width: 2; stroke-dasharray: 4,2; opacity: 0;"></path><path transform="translate(515.3571428571429,70.99610248527632)" d="M2.7386127875258306,0A2.7386127875258306,2.7386127875258306,0,1,1,-2.7386127875258306,0A2.7386127875258306,2.7386127875258306,0,1,1,2.7386127875258306,0" style="fill: #4c78a8; stroke-width: 2; stroke-dasharray: 4,2; opacity: 0;"></path><path transform="translate(520,66.83452146764266)" d="M2.7386127875258306,0A2.7386127875258306,2.7386127875258306,0,1,1,-2.7386127875258306,0A2.7386127875258306,2.7386127875258306,0,1,1,2.7386127875258306,0" style="fill: #4c78a8; stroke-width: 2; stroke-dasharray: 4,2; opacity: 0;"></path><path transform="translate(524.6428571428571,66.13959335145431)" d="M2.7386127875258306,0A2.7386127875258306,2.7386127875258306,0,1,1,-2.7386127875258306,0A2.7386127875258306,2.7386127875258306,0,1,1,2.7386127875258306,0" style="fill: #4c78a8; stroke-width: 2; stroke-dasharray: 4,2; opacity: 0;"></path><path transform="translate(529.2857142857143,74.92604079751392)" d="M2.7386127875258306,0A2.7386127875258306,2.7386127875258306,0,1,1,-2.7386127875258306,0A2.7386127875258306,2.7386127875258306,0,1,1,2.7386127875258306,0" style="fill: #4c78a8; stroke-width: 2; stroke-dasharray: 4,2; opacity: 0;"></path><path transform="translate(533.9285714285714,74.66244737413216)" d="M2.7386127875258306,0A2.7386127875258306,2.7386127875258306,0,1,1,-2.7386127875258306,0A2.7386127875258306,2.7386127875258306,0,1,1,2.7386127875258306,0" style="fill: #4c78a8; stroke-width: 2; stroke-dasharray: 4,2; opacity: 0;"></path><path transform="translate(538.5714285714286,71.93066098635725)" d="M2.7386127875258306,0A2.7386127875258306,2.7386127875258306,0,1,1,-2.7386127875258306,0A2.7386127875258306,2.7386127875258306,0,1,1,2.7386127875258306,0" style="fill: #4c78a8; stroke-width: 2; stroke-dasharray: 4,2; opacity: 0;"></path><path transform="translate(543.2142857142858,74.17519892485066)" d="M2.7386127875258306,0A2.7386127875258306,2.7386127875258306,0,1,1,-2.7386127875258306,0A2.7386127875258306,2.7386127875258306,0,1,1,2.7386127875258306,0" style="fill: #4c78a8; stroke-width: 2; stroke-dasharray: 4,2; opacity: 0;"></path><path transform="translate(547.8571428571429,95.33456191086148)" d="M2.7386127875258306,0A2.7386127875258306,2.7386127875258306,0,1,1,-2.7386127875258306,0A2.7386127875258306,2.7386127875258306,0,1,1,2.7386127875258306,0" style="fill: #4c78a8; stroke-width: 2; stroke-dasharray: 4,2; opacity: 0;"></path><path transform="translate(552.5,127.26131685804357)" d="M2.7386127875258306,0A2.7386127875258306,2.7386127875258306,0,1,1,-2.7386127875258306,0A2.7386127875258306,2.7386127875258306,0,1,1,2.7386127875258306,0" style="fill: #4c78a8; stroke-width: 2; stroke-dasharray: 4,2; opacity: 0;"></path><path transform="translate(0,249.94408624352508)" d="M2.7386127875258306,0A2.7386127875258306,2.7386127875258306,0,1,1,-2.7386127875258306,0A2.7386127875258306,2.7386127875258306,0,1,1,2.7386127875258306,0" style="fill: #4c78a8; stroke-width: 2; stroke-dasharray: 1,0; opacity: 0;"></path><path transform="translate(4.642857142857142,249.91213552553938)" d="M2.7386127875258306,0A2.7386127875258306,2.7386127875258306,0,1,1,-2.7386127875258306,0A2.7386127875258306,2.7386127875258306,0,1,1,2.7386127875258306,0" style="fill: #4c78a8; stroke-width: 2; stroke-dasharray: 1,0; opacity: 0;"></path><path transform="translate(9.285714285714285,249.8721971280573)" d="M2.7386127875258306,0A2.7386127875258306,2.7386127875258306,0,1,1,-2.7386127875258306,0A2.7386127875258306,2.7386127875258306,0,1,1,2.7386127875258306,0" style="fill: #4c78a8; stroke-width: 2; stroke-dasharray: 1,0; opacity: 0;"></path><path transform="translate(13.928571428571427,249.84024641007164)" d="M2.7386127875258306,0A2.7386127875258306,2.7386127875258306,0,1,1,-2.7386127875258306,0A2.7386127875258306,2.7386127875258306,0,1,1,2.7386127875258306,0" style="fill: #4c78a8; stroke-width: 2; stroke-dasharray: 1,0; opacity: 0;"></path><path transform="translate(18.57142857142857,249.54470226870419)" d="M2.7386127875258306,0A2.7386127875258306,2.7386127875258306,0,1,1,-2.7386127875258306,0A2.7386127875258306,2.7386127875258306,0,1,1,2.7386127875258306,0" style="fill: #4c78a8; stroke-width: 2; stroke-dasharray: 1,0; opacity: 0;"></path><path transform="translate(23.21428571428571,249.04147846042986)" d="M2.7386127875258306,0A2.7386127875258306,2.7386127875258306,0,1,1,-2.7386127875258306,0A2.7386127875258306,2.7386127875258306,0,1,1,2.7386127875258306,0" style="fill: #4c78a8; stroke-width: 2; stroke-dasharray: 1,0; opacity: 0;"></path><path transform="translate(27.857142857142854,248.6181314471197)" d="M2.7386127875258306,0A2.7386127875258306,2.7386127875258306,0,1,1,-2.7386127875258306,0A2.7386127875258306,2.7386127875258306,0,1,1,2.7386127875258306,0" style="fill: #4c78a8; stroke-width: 2; stroke-dasharray: 1,0; opacity: 0;"></path><path transform="translate(32.5,247.97911708740628)" d="M2.7386127875258306,0A2.7386127875258306,2.7386127875258306,0,1,1,-2.7386127875258306,0A2.7386127875258306,2.7386127875258306,0,1,1,2.7386127875258306,0" style="fill: #4c78a8; stroke-width: 2; stroke-dasharray: 1,0; opacity: 0;"></path><path transform="translate(37.14285714285714,247.18833681726093)" d="M2.7386127875258306,0A2.7386127875258306,2.7386127875258306,0,1,1,-2.7386127875258306,0A2.7386127875258306,2.7386127875258306,0,1,1,2.7386127875258306,0" style="fill: #4c78a8; stroke-width: 2; stroke-dasharray: 1,0; opacity: 0;"></path><path transform="translate(41.785714285714285,246.62919925251168)" d="M2.7386127875258306,0A2.7386127875258306,2.7386127875258306,0,1,1,-2.7386127875258306,0A2.7386127875258306,2.7386127875258306,0,1,1,2.7386127875258306,0" style="fill: #4c78a8; stroke-width: 2; stroke-dasharray: 1,0; opacity: 0;"></path><path transform="translate(46.42857142857142,246.38956886761915)" d="M2.7386127875258306,0A2.7386127875258306,2.7386127875258306,0,1,1,-2.7386127875258306,0A2.7386127875258306,2.7386127875258306,0,1,1,2.7386127875258306,0" style="fill: #4c78a8; stroke-width: 2; stroke-dasharray: 1,0; opacity: 0;"></path><path transform="translate(51.07142857142857,245.74256682840928)" d="M2.7386127875258306,0A2.7386127875258306,2.7386127875258306,0,1,1,-2.7386127875258306,0A2.7386127875258306,2.7386127875258306,0,1,1,2.7386127875258306,0" style="fill: #4c78a8; stroke-width: 2; stroke-dasharray: 1,0; opacity: 0;"></path><path transform="translate(55.71428571428571,244.52843954495378)" d="M2.7386127875258306,0A2.7386127875258306,2.7386127875258306,0,1,1,-2.7386127875258306,0A2.7386127875258306,2.7386127875258306,0,1,1,2.7386127875258306,0" style="fill: #4c78a8; stroke-width: 2; stroke-dasharray: 1,0; opacity: 0;"></path><path transform="translate(60.357142857142854,243.0427311586201)" d="M2.7386127875258306,0A2.7386127875258306,2.7386127875258306,0,1,1,-2.7386127875258306,0A2.7386127875258306,2.7386127875258306,0,1,1,2.7386127875258306,0" style="fill: #4c78a8; stroke-width: 2; stroke-dasharray: 1,0; opacity: 0;"></path><path transform="translate(65,240.6384396301983)" d="M2.7386127875258306,0A2.7386127875258306,2.7386127875258306,0,1,1,-2.7386127875258306,0A2.7386127875258306,2.7386127875258306,0,1,1,2.7386127875258306,0" style="fill: #4c78a8; stroke-width: 2; stroke-dasharray: 1,0; opacity: 0;"></path><path transform="translate(69.64285714285714,237.78683804997712)" d="M2.7386127875258306,0A2.7386127875258306,2.7386127875258306,0,1,1,-2.7386127875258306,0A2.7386127875258306,2.7386127875258306,0,1,1,2.7386127875258306,0" style="fill: #4c78a8; stroke-width: 2; stroke-dasharray: 1,0; opacity: 0;"></path><path transform="translate(74.28571428571428,236.3810064586076)" d="M2.7386127875258306,0A2.7386127875258306,2.7386127875258306,0,1,1,-2.7386127875258306,0A2.7386127875258306,2.7386127875258306,0,1,1,2.7386127875258306,0" style="fill: #4c78a8; stroke-width: 2; stroke-dasharray: 1,0; opacity: 0;"></path><path transform="translate(78.92857142857143,235.9736348042903)" d="M2.7386127875258306,0A2.7386127875258306,2.7386127875258306,0,1,1,-2.7386127875258306,0A2.7386127875258306,2.7386127875258306,0,1,1,2.7386127875258306,0" style="fill: #4c78a8; stroke-width: 2; stroke-dasharray: 1,0; opacity: 0;"></path><path transform="translate(83.57142857142857,231.58041108126048)" d="M2.7386127875258306,0A2.7386127875258306,2.7386127875258306,0,1,1,-2.7386127875258306,0A2.7386127875258306,2.7386127875258306,0,1,1,2.7386127875258306,0" style="fill: #4c78a8; stroke-width: 2; stroke-dasharray: 1,0; opacity: 0;"></path><path transform="translate(88.21428571428571,227.9619922693832)" d="M2.7386127875258306,0A2.7386127875258306,2.7386127875258306,0,1,1,-2.7386127875258306,0A2.7386127875258306,2.7386127875258306,0,1,1,2.7386127875258306,0" style="fill: #4c78a8; stroke-width: 2; stroke-dasharray: 1,0; opacity: 0;"></path><path transform="translate(92.85714285714285,222.08306016001967)" d="M2.7386127875258306,0A2.7386127875258306,2.7386127875258306,0,1,1,-2.7386127875258306,0A2.7386127875258306,2.7386127875258306,0,1,1,2.7386127875258306,0" style="fill: #4c78a8; stroke-width: 2; stroke-dasharray: 1,0; opacity: 0;"></path><path transform="translate(97.5,218.20903560425702)" d="M2.7386127875258306,0A2.7386127875258306,2.7386127875258306,0,1,1,-2.7386127875258306,0A2.7386127875258306,2.7386127875258306,0,1,1,2.7386127875258306,0" style="fill: #4c78a8; stroke-width: 2; stroke-dasharray: 1,0; opacity: 0;"></path><path transform="translate(102.14285714285714,214.26312193302664)" d="M2.7386127875258306,0A2.7386127875258306,2.7386127875258306,0,1,1,-2.7386127875258306,0A2.7386127875258306,2.7386127875258306,0,1,1,2.7386127875258306,0" style="fill: #4c78a8; stroke-width: 2; stroke-dasharray: 1,0; opacity: 0;"></path><path transform="translate(106.78571428571428,214.02349154813407)" d="M2.7386127875258306,0A2.7386127875258306,2.7386127875258306,0,1,1,-2.7386127875258306,0A2.7386127875258306,2.7386127875258306,0,1,1,2.7386127875258306,0" style="fill: #4c78a8; stroke-width: 2; stroke-dasharray: 1,0; opacity: 0;"></path><path transform="translate(111.42857142857142,213.83178724022005)" d="M2.7386127875258306,0A2.7386127875258306,2.7386127875258306,0,1,1,-2.7386127875258306,0A2.7386127875258306,2.7386127875258306,0,1,1,2.7386127875258306,0" style="fill: #4c78a8; stroke-width: 2; stroke-dasharray: 1,0; opacity: 0;"></path><path transform="translate(116.07142857142857,212.7294874697144)" d="M2.7386127875258306,0A2.7386127875258306,2.7386127875258306,0,1,1,-2.7386127875258306,0A2.7386127875258306,2.7386127875258306,0,1,1,2.7386127875258306,0" style="fill: #4c78a8; stroke-width: 2; stroke-dasharray: 1,0; opacity: 0;"></path><path transform="translate(120.71428571428571,210.5248879287031)" d="M2.7386127875258306,0A2.7386127875258306,2.7386127875258306,0,1,1,-2.7386127875258306,0A2.7386127875258306,2.7386127875258306,0,1,1,2.7386127875258306,0" style="fill: #4c78a8; stroke-width: 2; stroke-dasharray: 1,0; opacity: 0;"></path><path transform="translate(125.35714285714285,211.33963123733767)" d="M2.7386127875258306,0A2.7386127875258306,2.7386127875258306,0,1,1,-2.7386127875258306,0A2.7386127875258306,2.7386127875258306,0,1,1,2.7386127875258306,0" style="fill: #4c78a8; stroke-width: 2; stroke-dasharray: 1,0; opacity: 0;"></path><path transform="translate(130,210.91628422402752)" d="M2.7386127875258306,0A2.7386127875258306,2.7386127875258306,0,1,1,-2.7386127875258306,0A2.7386127875258306,2.7386127875258306,0,1,1,2.7386127875258306,0" style="fill: #4c78a8; stroke-width: 2; stroke-dasharray: 1,0; opacity: 0;"></path><path transform="translate(134.64285714285714,217.18661262871552)" d="M2.7386127875258306,0A2.7386127875258306,2.7386127875258306,0,1,1,-2.7386127875258306,0A2.7386127875258306,2.7386127875258306,0,1,1,2.7386127875258306,0" style="fill: #4c78a8; stroke-width: 2; stroke-dasharray: 1,0; opacity: 0;"></path><path transform="translate(139.28571428571428,217.54605820605437)" d="M2.7386127875258306,0A2.7386127875258306,2.7386127875258306,0,1,1,-2.7386127875258306,0A2.7386127875258306,2.7386127875258306,0,1,1,2.7386127875258306,0" style="fill: #4c78a8; stroke-width: 2; stroke-dasharray: 1,0; opacity: 0;"></path><path transform="translate(143.92857142857142,217.3144155006582)" d="M2.7386127875258306,0A2.7386127875258306,2.7386127875258306,0,1,1,-2.7386127875258306,0A2.7386127875258306,2.7386127875258306,0,1,1,2.7386127875258306,0" style="fill: #4c78a8; stroke-width: 2; stroke-dasharray: 1,0; opacity: 0;"></path><path transform="translate(148.57142857142856,216.8990561668445)" d="M2.7386127875258306,0A2.7386127875258306,2.7386127875258306,0,1,1,-2.7386127875258306,0A2.7386127875258306,2.7386127875258306,0,1,1,2.7386127875258306,0" style="fill: #4c78a8; stroke-width: 2; stroke-dasharray: 1,0; opacity: 0;"></path><path transform="translate(153.21428571428572,216.21211573015256)" d="M2.7386127875258306,0A2.7386127875258306,2.7386127875258306,0,1,1,-2.7386127875258306,0A2.7386127875258306,2.7386127875258306,0,1,1,2.7386127875258306,0" style="fill: #4c78a8; stroke-width: 2; stroke-dasharray: 1,0; opacity: 0;"></path><path transform="translate(157.85714285714286,214.87817325425078)" d="M2.7386127875258306,0A2.7386127875258306,2.7386127875258306,0,1,1,-2.7386127875258306,0A2.7386127875258306,2.7386127875258306,0,1,1,2.7386127875258306,0" style="fill: #4c78a8; stroke-width: 2; stroke-dasharray: 1,0; opacity: 0;"></path><path transform="translate(162.5,214.17525745856602)" d="M2.7386127875258306,0A2.7386127875258306,2.7386127875258306,0,1,1,-2.7386127875258306,0A2.7386127875258306,2.7386127875258306,0,1,1,2.7386127875258306,0" style="fill: #4c78a8; stroke-width: 2; stroke-dasharray: 1,0; opacity: 0;"></path><path transform="translate(167.14285714285714,206.9144567963222)" d="M2.7386127875258306,0A2.7386127875258306,2.7386127875258306,0,1,1,-2.7386127875258306,0A2.7386127875258306,2.7386127875258306,0,1,1,2.7386127875258306,0" style="fill: #4c78a8; stroke-width: 2; stroke-dasharray: 1,0; opacity: 0;"></path><path transform="translate(171.7857142857143,205.1651549866067)" d="M2.7386127875258306,0A2.7386127875258306,2.7386127875258306,0,1,1,-2.7386127875258306,0A2.7386127875258306,2.7386127875258306,0,1,1,2.7386127875258306,0" style="fill: #4c78a8; stroke-width: 2; stroke-dasharray: 1,0; opacity: 0;"></path><path transform="translate(176.42857142857142,204.64595581933952)" d="M2.7386127875258306,0A2.7386127875258306,2.7386127875258306,0,1,1,-2.7386127875258306,0A2.7386127875258306,2.7386127875258306,0,1,1,2.7386127875258306,0" style="fill: #4c78a8; stroke-width: 2; stroke-dasharray: 1,0; opacity: 0;"></path><path transform="translate(181.07142857142858,202.6889743427172)" d="M2.7386127875258306,0A2.7386127875258306,2.7386127875258306,0,1,1,-2.7386127875258306,0A2.7386127875258306,2.7386127875258306,0,1,1,2.7386127875258306,0" style="fill: #4c78a8; stroke-width: 2; stroke-dasharray: 1,0; opacity: 0;"></path><path transform="translate(185.7142857142857,202.2975780473927)" d="M2.7386127875258306,0A2.7386127875258306,2.7386127875258306,0,1,1,-2.7386127875258306,0A2.7386127875258306,2.7386127875258306,0,1,1,2.7386127875258306,0" style="fill: #4c78a8; stroke-width: 2; stroke-dasharray: 1,0; opacity: 0;"></path><path transform="translate(190.35714285714286,202.15379981645717)" d="M2.7386127875258306,0A2.7386127875258306,2.7386127875258306,0,1,1,-2.7386127875258306,0A2.7386127875258306,2.7386127875258306,0,1,1,2.7386127875258306,0" style="fill: #4c78a8; stroke-width: 2; stroke-dasharray: 1,0; opacity: 0;"></path><path transform="translate(195,200.1009661858778)" d="M2.7386127875258306,0A2.7386127875258306,2.7386127875258306,0,1,1,-2.7386127875258306,0A2.7386127875258306,2.7386127875258306,0,1,1,2.7386127875258306,0" style="fill: #4c78a8; stroke-width: 2; stroke-dasharray: 1,0; opacity: 0;"></path><path transform="translate(199.64285714285714,199.67761917256766)" d="M2.7386127875258306,0A2.7386127875258306,2.7386127875258306,0,1,1,-2.7386127875258306,0A2.7386127875258306,2.7386127875258306,0,1,1,2.7386127875258306,0" style="fill: #4c78a8; stroke-width: 2; stroke-dasharray: 1,0; opacity: 0;"></path><path transform="translate(204.28571428571428,198.9747033768829)" d="M2.7386127875258306,0A2.7386127875258306,2.7386127875258306,0,1,1,-2.7386127875258306,0A2.7386127875258306,2.7386127875258306,0,1,1,2.7386127875258306,0" style="fill: #4c78a8; stroke-width: 2; stroke-dasharray: 1,0; opacity: 0;"></path><path transform="translate(208.92857142857144,199.39805039019305)" d="M2.7386127875258306,0A2.7386127875258306,2.7386127875258306,0,1,1,-2.7386127875258306,0A2.7386127875258306,2.7386127875258306,0,1,1,2.7386127875258306,0" style="fill: #4c78a8; stroke-width: 2; stroke-dasharray: 1,0; opacity: 0;"></path><path transform="translate(213.57142857142856,196.0272496427047)" d="M2.7386127875258306,0A2.7386127875258306,2.7386127875258306,0,1,1,-2.7386127875258306,0A2.7386127875258306,2.7386127875258306,0,1,1,2.7386127875258306,0" style="fill: #4c78a8; stroke-width: 2; stroke-dasharray: 1,0; opacity: 0;"></path><path transform="translate(218.21428571428572,188.5427939545612)" d="M2.7386127875258306,0A2.7386127875258306,2.7386127875258306,0,1,1,-2.7386127875258306,0A2.7386127875258306,2.7386127875258306,0,1,1,2.7386127875258306,0" style="fill: #4c78a8; stroke-width: 2; stroke-dasharray: 1,0; opacity: 0;"></path><path transform="translate(222.85714285714283,181.8171678185774)" d="M2.7386127875258306,0A2.7386127875258306,2.7386127875258306,0,1,1,-2.7386127875258306,0A2.7386127875258306,2.7386127875258306,0,1,1,2.7386127875258306,0" style="fill: #4c78a8; stroke-width: 2; stroke-dasharray: 1,0; opacity: 0;"></path><path transform="translate(227.5,177.23223978763352)" d="M2.7386127875258306,0A2.7386127875258306,2.7386127875258306,0,1,1,-2.7386127875258306,0A2.7386127875258306,2.7386127875258306,0,1,1,2.7386127875258306,0" style="fill: #4c78a8; stroke-width: 2; stroke-dasharray: 1,0; opacity: 0;"></path><path transform="translate(232.14285714285714,167.5272091994859)" d="M2.7386127875258306,0A2.7386127875258306,2.7386127875258306,0,1,1,-2.7386127875258306,0A2.7386127875258306,2.7386127875258306,0,1,1,2.7386127875258306,0" style="fill: #4c78a8; stroke-width: 2; stroke-dasharray: 1,0; opacity: 0;"></path><path transform="translate(236.78571428571428,164.1324454135083)" d="M2.7386127875258306,0A2.7386127875258306,2.7386127875258306,0,1,1,-2.7386127875258306,0A2.7386127875258306,2.7386127875258306,0,1,1,2.7386127875258306,0" style="fill: #4c78a8; stroke-width: 2; stroke-dasharray: 1,0; opacity: 0;"></path><path transform="translate(241.42857142857142,163.83690127214084)" d="M2.7386127875258306,0A2.7386127875258306,2.7386127875258306,0,1,1,-2.7386127875258306,0A2.7386127875258306,2.7386127875258306,0,1,1,2.7386127875258306,0" style="fill: #4c78a8; stroke-width: 2; stroke-dasharray: 1,0; opacity: 0;"></path><path transform="translate(246.07142857142858,155.3939240444272)" d="M2.7386127875258306,0A2.7386127875258306,2.7386127875258306,0,1,1,-2.7386127875258306,0A2.7386127875258306,2.7386127875258306,0,1,1,2.7386127875258306,0" style="fill: #4c78a8; stroke-width: 2; stroke-dasharray: 1,0; opacity: 0;"></path><path transform="translate(250.7142857142857,146.68735339333173)" d="M2.7386127875258306,0A2.7386127875258306,2.7386127875258306,0,1,1,-2.7386127875258306,0A2.7386127875258306,2.7386127875258306,0,1,1,2.7386127875258306,0" style="fill: #4c78a8; stroke-width: 2; stroke-dasharray: 1,0; opacity: 0;"></path><path transform="translate(255.35714285714286,135.22503331597215)" d="M2.7386127875258306,0A2.7386127875258306,2.7386127875258306,0,1,1,-2.7386127875258306,0A2.7386127875258306,2.7386127875258306,0,1,1,2.7386127875258306,0" style="fill: #4c78a8; stroke-width: 2; stroke-dasharray: 1,0; opacity: 0;"></path><path transform="translate(260,118.99406857925113)" d="M2.7386127875258306,0A2.7386127875258306,2.7386127875258306,0,1,1,-2.7386127875258306,0A2.7386127875258306,2.7386127875258306,0,1,1,2.7386127875258306,0" style="fill: #4c78a8; stroke-width: 2; stroke-dasharray: 1,0; opacity: 0;"></path><path transform="translate(264.64285714285717,98.7453010558319)" d="M2.7386127875258306,0A2.7386127875258306,2.7386127875258306,0,1,1,-2.7386127875258306,0A2.7386127875258306,2.7386127875258306,0,1,1,2.7386127875258306,0" style="fill: #4c78a8; stroke-width: 2; stroke-dasharray: 1,0; opacity: 0;"></path><path transform="translate(269.2857142857143,95.26267279539374)" d="M2.7386127875258306,0A2.7386127875258306,2.7386127875258306,0,1,1,-2.7386127875258306,0A2.7386127875258306,2.7386127875258306,0,1,1,2.7386127875258306,0" style="fill: #4c78a8; stroke-width: 2; stroke-dasharray: 1,0; opacity: 0;"></path><path transform="translate(273.92857142857144,94.01659479395255)" d="M2.7386127875258306,0A2.7386127875258306,2.7386127875258306,0,1,1,-2.7386127875258306,0A2.7386127875258306,2.7386127875258306,0,1,1,2.7386127875258306,0" style="fill: #4c78a8; stroke-width: 2; stroke-dasharray: 1,0; opacity: 0;"></path><path transform="translate(278.57142857142856,85.62953132271383)" d="M2.7386127875258306,0A2.7386127875258306,2.7386127875258306,0,1,1,-2.7386127875258306,0A2.7386127875258306,2.7386127875258306,0,1,1,2.7386127875258306,0" style="fill: #4c78a8; stroke-width: 2; stroke-dasharray: 1,0; opacity: 0;"></path><path transform="translate(283.2142857142857,78.95981894320495)" d="M2.7386127875258306,0A2.7386127875258306,2.7386127875258306,0,1,1,-2.7386127875258306,0A2.7386127875258306,2.7386127875258306,0,1,1,2.7386127875258306,0" style="fill: #4c78a8; stroke-width: 2; stroke-dasharray: 1,0; opacity: 0;"></path><path transform="translate(287.85714285714283,73.92758086046169)" d="M2.7386127875258306,0A2.7386127875258306,2.7386127875258306,0,1,1,-2.7386127875258306,0A2.7386127875258306,2.7386127875258306,0,1,1,2.7386127875258306,0" style="fill: #4c78a8; stroke-width: 2; stroke-dasharray: 1,0; opacity: 0;"></path><path transform="translate(292.5,73.42435705218736)" d="M2.7386127875258306,0A2.7386127875258306,2.7386127875258306,0,1,1,-2.7386127875258306,0A2.7386127875258306,2.7386127875258306,0,1,1,2.7386127875258306,0" style="fill: #4c78a8; stroke-width: 2; stroke-dasharray: 1,0; opacity: 0;"></path><path transform="translate(297.1428571428571,83.76041432055203)" d="M2.7386127875258306,0A2.7386127875258306,2.7386127875258306,0,1,1,-2.7386127875258306,0A2.7386127875258306,2.7386127875258306,0,1,1,2.7386127875258306,0" style="fill: #4c78a8; stroke-width: 2; stroke-dasharray: 1,0; opacity: 0;"></path><path transform="translate(301.78571428571433,84.52723155220815)" d="M2.7386127875258306,0A2.7386127875258306,2.7386127875258306,0,1,1,-2.7386127875258306,0A2.7386127875258306,2.7386127875258306,0,1,1,2.7386127875258306,0" style="fill: #4c78a8; stroke-width: 2; stroke-dasharray: 1,0; opacity: 0;"></path><path transform="translate(306.42857142857144,85.77330955364934)" d="M2.7386127875258306,0A2.7386127875258306,2.7386127875258306,0,1,1,-2.7386127875258306,0A2.7386127875258306,2.7386127875258306,0,1,1,2.7386127875258306,0" style="fill: #4c78a8; stroke-width: 2; stroke-dasharray: 1,0; opacity: 0;"></path><path transform="translate(311.07142857142856,92.05162563783378)" d="M2.7386127875258306,0A2.7386127875258306,2.7386127875258306,0,1,1,-2.7386127875258306,0A2.7386127875258306,2.7386127875258306,0,1,1,2.7386127875258306,0" style="fill: #4c78a8; stroke-width: 2; stroke-dasharray: 1,0; opacity: 0;"></path><path transform="translate(315.7142857142857,98.24207724755757)" d="M2.7386127875258306,0A2.7386127875258306,2.7386127875258306,0,1,1,-2.7386127875258306,0A2.7386127875258306,2.7386127875258306,0,1,1,2.7386127875258306,0" style="fill: #4c78a8; stroke-width: 2; stroke-dasharray: 1,0; opacity: 0;"></path><path transform="translate(320.3571428571429,100.99782667382176)" d="M2.7386127875258306,0A2.7386127875258306,2.7386127875258306,0,1,1,-2.7386127875258306,0A2.7386127875258306,2.7386127875258306,0,1,1,2.7386127875258306,0" style="fill: #4c78a8; stroke-width: 2; stroke-dasharray: 1,0; opacity: 0;"></path><path transform="translate(325,110.07183058175241)" d="M2.7386127875258306,0A2.7386127875258306,2.7386127875258306,0,1,1,-2.7386127875258306,0A2.7386127875258306,2.7386127875258306,0,1,1,2.7386127875258306,0" style="fill: #4c78a8; stroke-width: 2; stroke-dasharray: 1,0; opacity: 0;"></path><path transform="translate(329.64285714285717,105.57476702526917)" d="M2.7386127875258306,0A2.7386127875258306,2.7386127875258306,0,1,1,-2.7386127875258306,0A2.7386127875258306,2.7386127875258306,0,1,1,2.7386127875258306,0" style="fill: #4c78a8; stroke-width: 2; stroke-dasharray: 1,0; opacity: 0;"></path><path transform="translate(334.2857142857143,106.03006475656498)" d="M2.7386127875258306,0A2.7386127875258306,2.7386127875258306,0,1,1,-2.7386127875258306,0A2.7386127875258306,2.7386127875258306,0,1,1,2.7386127875258306,0" style="fill: #4c78a8; stroke-width: 2; stroke-dasharray: 1,0; opacity: 0;"></path><path transform="translate(338.92857142857144,105.9901263590829)" d="M2.7386127875258306,0A2.7386127875258306,2.7386127875258306,0,1,1,-2.7386127875258306,0A2.7386127875258306,2.7386127875258306,0,1,1,2.7386127875258306,0" style="fill: #4c78a8; stroke-width: 2; stroke-dasharray: 1,0; opacity: 0;"></path><path transform="translate(343.5714285714286,116.90129655118963)" d="M2.7386127875258306,0A2.7386127875258306,2.7386127875258306,0,1,1,-2.7386127875258306,0A2.7386127875258306,2.7386127875258306,0,1,1,2.7386127875258306,0" style="fill: #4c78a8; stroke-width: 2; stroke-dasharray: 1,0; opacity: 0;"></path><path transform="translate(348.2142857142857,110.23957185117719)" d="M2.7386127875258306,0A2.7386127875258306,2.7386127875258306,0,1,1,-2.7386127875258306,0A2.7386127875258306,2.7386127875258306,0,1,1,2.7386127875258306,0" style="fill: #4c78a8; stroke-width: 2; stroke-dasharray: 1,0; opacity: 0;"></path><path transform="translate(352.85714285714283,108.64203595189359)" d="M2.7386127875258306,0A2.7386127875258306,2.7386127875258306,0,1,1,-2.7386127875258306,0A2.7386127875258306,2.7386127875258306,0,1,1,2.7386127875258306,0" style="fill: #4c78a8; stroke-width: 2; stroke-dasharray: 1,0; opacity: 0;"></path><path transform="translate(357.50000000000006,97.31550642597311)" d="M2.7386127875258306,0A2.7386127875258306,2.7386127875258306,0,1,1,-2.7386127875258306,0A2.7386127875258306,2.7386127875258306,0,1,1,2.7386127875258306,0" style="fill: #4c78a8; stroke-width: 2; stroke-dasharray: 1,0; opacity: 0;"></path><path transform="translate(362.14285714285717,94.20031142237015)" d="M2.7386127875258306,0A2.7386127875258306,2.7386127875258306,0,1,1,-2.7386127875258306,0A2.7386127875258306,2.7386127875258306,0,1,1,2.7386127875258306,0" style="fill: #4c78a8; stroke-width: 2; stroke-dasharray: 1,0; opacity: 0;"></path><path transform="translate(366.7857142857143,90.18250863567201)" d="M2.7386127875258306,0A2.7386127875258306,2.7386127875258306,0,1,1,-2.7386127875258306,0A2.7386127875258306,2.7386127875258306,0,1,1,2.7386127875258306,0" style="fill: #4c78a8; stroke-width: 2; stroke-dasharray: 1,0; opacity: 0;"></path><path transform="translate(371.4285714285714,89.54349427595857)" d="M2.7386127875258306,0A2.7386127875258306,2.7386127875258306,0,1,1,-2.7386127875258306,0A2.7386127875258306,2.7386127875258306,0,1,1,2.7386127875258306,0" style="fill: #4c78a8; stroke-width: 2; stroke-dasharray: 1,0; opacity: 0;"></path><path transform="translate(376.0714285714286,66.69074323670715)" d="M2.7386127875258306,0A2.7386127875258306,2.7386127875258306,0,1,1,-2.7386127875258306,0A2.7386127875258306,2.7386127875258306,0,1,1,2.7386127875258306,0" style="fill: #4c78a8; stroke-width: 2; stroke-dasharray: 1,0; opacity: 0;"></path><path transform="translate(380.7142857142857,60.97156471727197)" d="M2.7386127875258306,0A2.7386127875258306,2.7386127875258306,0,1,1,-2.7386127875258306,0A2.7386127875258306,2.7386127875258306,0,1,1,2.7386127875258306,0" style="fill: #4c78a8; stroke-width: 2; stroke-dasharray: 1,0; opacity: 0;"></path><path transform="translate(385.35714285714283,50.475753858978955)" d="M2.7386127875258306,0A2.7386127875258306,2.7386127875258306,0,1,1,-2.7386127875258306,0A2.7386127875258306,2.7386127875258306,0,1,1,2.7386127875258306,0" style="fill: #4c78a8; stroke-width: 2; stroke-dasharray: 1,0; opacity: 0;"></path><path transform="translate(390,40.14768427011067)" d="M2.7386127875258306,0A2.7386127875258306,2.7386127875258306,0,1,1,-2.7386127875258306,0A2.7386127875258306,2.7386127875258306,0,1,1,2.7386127875258306,0" style="fill: #4c78a8; stroke-width: 2; stroke-dasharray: 1,0; opacity: 0;"></path><path transform="translate(394.64285714285717,33.869368185926255)" d="M2.7386127875258306,0A2.7386127875258306,2.7386127875258306,0,1,1,-2.7386127875258306,0A2.7386127875258306,2.7386127875258306,0,1,1,2.7386127875258306,0" style="fill: #4c78a8; stroke-width: 2; stroke-dasharray: 1,0; opacity: 0;"></path><path transform="translate(399.2857142857143,34.492407186646865)" d="M2.7386127875258306,0A2.7386127875258306,2.7386127875258306,0,1,1,-2.7386127875258306,0A2.7386127875258306,2.7386127875258306,0,1,1,2.7386127875258306,0" style="fill: #4c78a8; stroke-width: 2; stroke-dasharray: 1,0; opacity: 0;"></path><path transform="translate(403.92857142857144,34.364604314704174)" d="M2.7386127875258306,0A2.7386127875258306,2.7386127875258306,0,1,1,-2.7386127875258306,0A2.7386127875258306,2.7386127875258306,0,1,1,2.7386127875258306,0" style="fill: #4c78a8; stroke-width: 2; stroke-dasharray: 1,0; opacity: 0;"></path><path transform="translate(408.57142857142856,28.094275910016147)" d="M2.7386127875258306,0A2.7386127875258306,2.7386127875258306,0,1,1,-2.7386127875258306,0A2.7386127875258306,2.7386127875258306,0,1,1,2.7386127875258306,0" style="fill: #4c78a8; stroke-width: 2; stroke-dasharray: 1,0; opacity: 0;"></path><path transform="translate(413.2142857142857,25.881688689508465)" d="M2.7386127875258306,0A2.7386127875258306,2.7386127875258306,0,1,1,-2.7386127875258306,0A2.7386127875258306,2.7386127875258306,0,1,1,2.7386127875258306,0" style="fill: #4c78a8; stroke-width: 2; stroke-dasharray: 1,0; opacity: 0;"></path><path transform="translate(417.8571428571429,31.73665776038273)" d="M2.7386127875258306,0A2.7386127875258306,2.7386127875258306,0,1,1,-2.7386127875258306,0A2.7386127875258306,2.7386127875258306,0,1,1,2.7386127875258306,0" style="fill: #4c78a8; stroke-width: 2; stroke-dasharray: 1,0; opacity: 0;"></path><path transform="translate(422.5,35.68257143161313)" d="M2.7386127875258306,0A2.7386127875258306,2.7386127875258306,0,1,1,-2.7386127875258306,0A2.7386127875258306,2.7386127875258306,0,1,1,2.7386127875258306,0" style="fill: #4c78a8; stroke-width: 2; stroke-dasharray: 1,0; opacity: 0;"></path><path transform="translate(427.1428571428571,42.87148297838917)" d="M2.7386127875258306,0A2.7386127875258306,2.7386127875258306,0,1,1,-2.7386127875258306,0A2.7386127875258306,2.7386127875258306,0,1,1,2.7386127875258306,0" style="fill: #4c78a8; stroke-width: 2; stroke-dasharray: 1,0; opacity: 0;"></path><path transform="translate(431.78571428571433,42.09667806723666)" d="M2.7386127875258306,0A2.7386127875258306,2.7386127875258306,0,1,1,-2.7386127875258306,0A2.7386127875258306,2.7386127875258306,0,1,1,2.7386127875258306,0" style="fill: #4c78a8; stroke-width: 2; stroke-dasharray: 1,0; opacity: 0;"></path><path transform="translate(436.42857142857144,41.68930641291935)" d="M2.7386127875258306,0A2.7386127875258306,2.7386127875258306,0,1,1,-2.7386127875258306,0A2.7386127875258306,2.7386127875258306,0,1,1,2.7386127875258306,0" style="fill: #4c78a8; stroke-width: 2; stroke-dasharray: 1,0; opacity: 0;"></path><path transform="translate(441.07142857142856,47.72000443271479)" d="M2.7386127875258306,0A2.7386127875258306,2.7386127875258306,0,1,1,-2.7386127875258306,0A2.7386127875258306,2.7386127875258306,0,1,1,2.7386127875258306,0" style="fill: #4c78a8; stroke-width: 2; stroke-dasharray: 1,0; opacity: 0;"></path><path transform="translate(445.71428571428567,54.78111310754816)" d="M2.7386127875258306,0A2.7386127875258306,2.7386127875258306,0,1,1,-2.7386127875258306,0A2.7386127875258306,2.7386127875258306,0,1,1,2.7386127875258306,0" style="fill: #4c78a8; stroke-width: 2; stroke-dasharray: 1,0; opacity: 0;"></path><path transform="translate(450.3571428571429,56.17895701942127)" d="M2.7386127875258306,0A2.7386127875258306,2.7386127875258306,0,1,1,-2.7386127875258306,0A2.7386127875258306,2.7386127875258306,0,1,1,2.7386127875258306,0" style="fill: #4c78a8; stroke-width: 2; stroke-dasharray: 1,0; opacity: 0;"></path><path transform="translate(455,53.558998144596245)" d="M2.7386127875258306,0A2.7386127875258306,2.7386127875258306,0,1,1,-2.7386127875258306,0A2.7386127875258306,2.7386127875258306,0,1,1,2.7386127875258306,0" style="fill: #4c78a8; stroke-width: 2; stroke-dasharray: 1,0; opacity: 0;"></path><path transform="translate(459.6428571428571,47.12891614997986)" d="M2.7386127875258306,0A2.7386127875258306,2.7386127875258306,0,1,1,-2.7386127875258306,0A2.7386127875258306,2.7386127875258306,0,1,1,2.7386127875258306,0" style="fill: #4c78a8; stroke-width: 2; stroke-dasharray: 1,0; opacity: 0;"></path><path transform="translate(464.2857142857143,46.68959377767687)" d="M2.7386127875258306,0A2.7386127875258306,2.7386127875258306,0,1,1,-2.7386127875258306,0A2.7386127875258306,2.7386127875258306,0,1,1,2.7386127875258306,0" style="fill: #4c78a8; stroke-width: 2; stroke-dasharray: 1,0; opacity: 0;"></path><path transform="translate(468.92857142857144,47.25671902192258)" d="M2.7386127875258306,0A2.7386127875258306,2.7386127875258306,0,1,1,-2.7386127875258306,0A2.7386127875258306,2.7386127875258306,0,1,1,2.7386127875258306,0" style="fill: #4c78a8; stroke-width: 2; stroke-dasharray: 1,0; opacity: 0;"></path><path transform="translate(473.57142857142856,46.921236483073)" d="M2.7386127875258306,0A2.7386127875258306,2.7386127875258306,0,1,1,-2.7386127875258306,0A2.7386127875258306,2.7386127875258306,0,1,1,2.7386127875258306,0" style="fill: #4c78a8; stroke-width: 2; stroke-dasharray: 1,0; opacity: 0;"></path><path transform="translate(478.2142857142857,48.27914199746402)" d="M2.7386127875258306,0A2.7386127875258306,2.7386127875258306,0,1,1,-2.7386127875258306,0A2.7386127875258306,2.7386127875258306,0,1,1,2.7386127875258306,0" style="fill: #4c78a8; stroke-width: 2; stroke-dasharray: 1,0; opacity: 0;"></path><path transform="translate(482.85714285714283,49.91661629422972)" d="M2.7386127875258306,0A2.7386127875258306,2.7386127875258306,0,1,1,-2.7386127875258306,0A2.7386127875258306,2.7386127875258306,0,1,1,2.7386127875258306,0" style="fill: #4c78a8; stroke-width: 2; stroke-dasharray: 1,0; opacity: 0;"></path><path transform="translate(487.5,60.676020575904545)" d="M2.7386127875258306,0A2.7386127875258306,2.7386127875258306,0,1,1,-2.7386127875258306,0A2.7386127875258306,2.7386127875258306,0,1,1,2.7386127875258306,0" style="fill: #4c78a8; stroke-width: 2; stroke-dasharray: 1,0; opacity: 0;"></path><path transform="translate(492.14285714285717,71.51530165254353)" d="M2.7386127875258306,0A2.7386127875258306,2.7386127875258306,0,1,1,-2.7386127875258306,0A2.7386127875258306,2.7386127875258306,0,1,1,2.7386127875258306,0" style="fill: #4c78a8; stroke-width: 2; stroke-dasharray: 1,0; opacity: 0;"></path><path transform="translate(496.7857142857143,74.79823792557124)" d="M2.7386127875258306,0A2.7386127875258306,2.7386127875258306,0,1,1,-2.7386127875258306,0A2.7386127875258306,2.7386127875258306,0,1,1,2.7386127875258306,0" style="fill: #4c78a8; stroke-width: 2; stroke-dasharray: 1,0; opacity: 0;"></path><path transform="translate(501.4285714285714,74.84616400254976)" d="M2.7386127875258306,0A2.7386127875258306,2.7386127875258306,0,1,1,-2.7386127875258306,0A2.7386127875258306,2.7386127875258306,0,1,1,2.7386127875258306,0" style="fill: #4c78a8; stroke-width: 2; stroke-dasharray: 1,0; opacity: 0;"></path><path transform="translate(506.0714285714286,73.34448025722318)" d="M2.7386127875258306,0A2.7386127875258306,2.7386127875258306,0,1,1,-2.7386127875258306,0A2.7386127875258306,2.7386127875258306,0,1,1,2.7386127875258306,0" style="fill: #4c78a8; stroke-width: 2; stroke-dasharray: 1,0; opacity: 0;"></path><path transform="translate(510.7142857142857,71.91468562736442)" d="M2.7386127875258306,0A2.7386127875258306,2.7386127875258306,0,1,1,-2.7386127875258306,0A2.7386127875258306,2.7386127875258306,0,1,1,2.7386127875258306,0" style="fill: #4c78a8; stroke-width: 2; stroke-dasharray: 1,0; opacity: 0;"></path><path transform="translate(515.3571428571429,68.61577399534386)" d="M2.7386127875258306,0A2.7386127875258306,2.7386127875258306,0,1,1,-2.7386127875258306,0A2.7386127875258306,2.7386127875258306,0,1,1,2.7386127875258306,0" style="fill: #4c78a8; stroke-width: 2; stroke-dasharray: 1,0; opacity: 0;"></path><path transform="translate(520,64.40626690073168)" d="M2.7386127875258306,0A2.7386127875258306,2.7386127875258306,0,1,1,-2.7386127875258306,0A2.7386127875258306,2.7386127875258306,0,1,1,2.7386127875258306,0" style="fill: #4c78a8; stroke-width: 2; stroke-dasharray: 1,0; opacity: 0;"></path><path transform="translate(524.6428571428571,63.54359751511854)" d="M2.7386127875258306,0A2.7386127875258306,2.7386127875258306,0,1,1,-2.7386127875258306,0A2.7386127875258306,2.7386127875258306,0,1,1,2.7386127875258306,0" style="fill: #4c78a8; stroke-width: 2; stroke-dasharray: 1,0; opacity: 0;"></path><path transform="translate(529.2857142857143,72.31406960218531)" d="M2.7386127875258306,0A2.7386127875258306,2.7386127875258306,0,1,1,-2.7386127875258306,0A2.7386127875258306,2.7386127875258306,0,1,1,2.7386127875258306,0" style="fill: #4c78a8; stroke-width: 2; stroke-dasharray: 1,0; opacity: 0;"></path><path transform="translate(533.9285714285714,71.95462402484651)" d="M2.7386127875258306,0A2.7386127875258306,2.7386127875258306,0,1,1,-2.7386127875258306,0A2.7386127875258306,2.7386127875258306,0,1,1,2.7386127875258306,0" style="fill: #4c78a8; stroke-width: 2; stroke-dasharray: 1,0; opacity: 0;"></path><path transform="translate(538.5714285714286,65.70027097915133)" d="M2.7386127875258306,0A2.7386127875258306,2.7386127875258306,0,1,1,-2.7386127875258306,0A2.7386127875258306,2.7386127875258306,0,1,1,2.7386127875258306,0" style="fill: #4c78a8; stroke-width: 2; stroke-dasharray: 1,0; opacity: 0;"></path><path transform="translate(543.2142857142858,55.835486801075305)" d="M2.7386127875258306,0A2.7386127875258306,2.7386127875258306,0,1,1,-2.7386127875258306,0A2.7386127875258306,2.7386127875258306,0,1,1,2.7386127875258306,0" style="fill: #4c78a8; stroke-width: 2; stroke-dasharray: 1,0; opacity: 0;"></path><path transform="translate(547.8571428571429,51.13873125718166)" d="M2.7386127875258306,0A2.7386127875258306,2.7386127875258306,0,1,1,-2.7386127875258306,0A2.7386127875258306,2.7386127875258306,0,1,1,2.7386127875258306,0" style="fill: #4c78a8; stroke-width: 2; stroke-dasharray: 1,0; opacity: 0;"></path><path transform="translate(552.5,43.00727352982825)" d="M2.7386127875258306,0A2.7386127875258306,2.7386127875258306,0,1,1,-2.7386127875258306,0A2.7386127875258306,2.7386127875258306,0,1,1,2.7386127875258306,0" style="fill: #4c78a8; stroke-width: 2; stroke-dasharray: 1,0; opacity: 0;"></path><path transform="translate(557.1428571428571,29.939429873688695)" d="M2.7386127875258306,0A2.7386127875258306,2.7386127875258306,0,1,1,-2.7386127875258306,0A2.7386127875258306,2.7386127875258306,0,1,1,2.7386127875258306,0" style="fill: #4c78a8; stroke-width: 2; stroke-dasharray: 1,0; opacity: 0;"></path><path transform="translate(561.7857142857143,19.379717579424334)" d="M2.7386127875258306,0A2.7386127875258306,2.7386127875258306,0,1,1,-2.7386127875258306,0A2.7386127875258306,2.7386127875258306,0,1,1,2.7386127875258306,0" style="fill: #4c78a8; stroke-width: 2; stroke-dasharray: 1,0; opacity: 0;"></path><path transform="translate(566.4285714285714,17.83010775711924)" d="M2.7386127875258306,0A2.7386127875258306,2.7386127875258306,0,1,1,-2.7386127875258306,0A2.7386127875258306,2.7386127875258306,0,1,1,2.7386127875258306,0" style="fill: #4c78a8; stroke-width: 2; stroke-dasharray: 1,0; opacity: 0;"></path><path transform="translate(571.0714285714286,28.661401154261856)" d="M2.7386127875258306,0A2.7386127875258306,2.7386127875258306,0,1,1,-2.7386127875258306,0A2.7386127875258306,2.7386127875258306,0,1,1,2.7386127875258306,0" style="fill: #4c78a8; stroke-width: 2; stroke-dasharray: 1,0; opacity: 0;"></path><path transform="translate(575.7142857142857,45.755035276596026)" d="M2.7386127875258306,0A2.7386127875258306,2.7386127875258306,0,1,1,-2.7386127875258306,0A2.7386127875258306,2.7386127875258306,0,1,1,2.7386127875258306,0" style="fill: #4c78a8; stroke-width: 2; stroke-dasharray: 1,0; opacity: 0;"></path><path transform="translate(580.3571428571429,74.52665682269306)" d="M2.7386127875258306,0A2.7386127875258306,2.7386127875258306,0,1,1,-2.7386127875258306,0A2.7386127875258306,2.7386127875258306,0,1,1,2.7386127875258306,0" style="fill: #4c78a8; stroke-width: 2; stroke-dasharray: 1,0; opacity: 0;"></path><path transform="translate(585,116.66965384579356)" d="M2.7386127875258306,0A2.7386127875258306,2.7386127875258306,0,1,1,-2.7386127875258306,0A2.7386127875258306,2.7386127875258306,0,1,1,2.7386127875258306,0" style="fill: #4c78a8; stroke-width: 2; stroke-dasharray: 1,0; opacity: 0;"></path></g></g><path class="foreground" d="" style="display: none; fill: none;"></path></g></g></g></svg>