<svg class="marks" width="665" height="510" viewBox="0 0 665 510" version="1.1" xmlns="http://www.w3.org/2000/svg" xmlns:xlink="http://www.w3.org/1999/xlink"><rect width="665" height="510" style="fill: white;"></rect><g transform="translate(73,41)"><g class="mark-group role-frame root"><g transform="translate(0,0)"><path class="background" d="M0.5,0.5h585v425h-585Z" style="fill: none; stroke: #ddd;"></path><g><g class="mark-group role-axis"><g transform="translate(0.5,425.5)"><path class="background" d="M0,0h0v0h0Z" style="pointer-events: none; fill: none;"></path><g><g class="mark-rule role-axis-grid" style="pointer-events: none;"><line transform="translate(49,-425)" x2="0" y2="425" style="fill: none; stroke: #ddd; stroke-width: 1; opacity: 1;"></line><line transform="translate(126,-425)" x2="0" y2="425" style="fill: none; stroke: #ddd; stroke-width: 1; opacity: 1;"></line><line transform="translate(206,-425)" x2="0" y2="425" style="fill: none; stroke: #ddd; stroke-width: 1; opacity: 1;"></line><line transform="translate(283,-425)" x2="0" y2="425" style="fill: none; stroke: #ddd; stroke-width: 1; opacity: 1;"></line><line transform="translate(363,-425)" x2="0" y2="425" style="fill: none; stroke: #ddd; stroke-width: 1; opacity: 1;"></line><line transform="translate(443,-425)" x2="0" y2="425" style="fill: none; stroke: #ddd; stroke-width: 1; opacity: 1;"></line><line transform="translate(521,-425)" x2="0" y2="425" style="fill: none; stroke: #ddd; stroke-width: 1; opacity: 1;"></line></g></g><path class="foreground" d="" style="pointer-events: none; display: none; fill: none;"></path></g></g><g class="mark-group role-axis"><g transform="translate(0.5,0.5)"><path class="background" d="M0,0h0v0h0Z" style="pointer-events: none; fill: none;"></path><g><g class="mark-rule role-axis-grid" style="pointer-events: none;"><line transform="translate(0,425)" x2="585" y2="0" style="fill: none; stroke: #ddd; stroke-width: 1; opacity: 1;"></line><line transform="translate(0,399)" x2="585" y2="0" style="fill: none; stroke: #ddd; stroke-width: 1; opacity: 1;"></line><line transform="translate(0,384)" x2="585" y2="0" style="fill: none; stroke: #ddd; stroke-width: 1; opacity: 1;"></line><line transform="translate(0,374)" x2="585" y2="0" style="fill: none; stroke: #ddd; stroke-width: 1; opacity: 1;"></line><line transform="translate(0,366)" x2="585" y2="0" style="fill: none; stroke: #ddd; stroke-width: 1; opacity: 1;"></line><line transform="translate(0,359)" x2="585" y2="0" style="fill: none; stroke: #ddd; stroke-width: 1; opacity: 1;"></line><line transform="translate(0,353)" x2="585" y2="0" style="fill: none; stroke: #ddd; stroke-width: 1; opacity: 1;"></line><line transform="translate(0,348)" x2="585" y2="0" style="fill: none; stroke: #ddd; stroke-width: 1; opacity: 1;"></line><line transform="translate(0,344)" x2="585" y2="0" style="fill: none; stroke: #ddd; stroke-width: 1; opacity: 1;"></line><line transform="translate(0,340)" x2="585" y2="0" style="fill: none; stroke: #ddd; stroke-width: 1; opacity: 1;"></line><line transform="translate(0,314)" x2="585" y2="0" style="fill: none; stroke: #ddd; stroke-width: 1; opacity: 1;"></line><line transform="translate(0,299)" x2="585" y2="0" style="fill: none; stroke: #ddd; stroke-width: 1; opacity: 1;"></line><line transform="translate(0,289)" x2="585" y2="0" style="fill: none; stroke: #ddd; stroke-width: 1; opacity: 1;"></line><line transform="translate(0,281)" x2="585" y2="0" style="fill: none; stroke: #ddd; stroke-width: 1; opacity: 1;"></line><line transform="translate(0,274)" x2="585" y2="0" style="fill: none; stroke: #ddd; stroke-width: 1; opacity: 1;"></line><line transform="translate(0,268)" x2="585" y2="0" style="fill: none; stroke: #ddd; stroke-width: 1; opacity: 1;"></line><line transform="translate(0,263)" x2="585" y2="0" style="fill: none; stroke: #ddd; stroke-width: 1; opacity: 1;"></line><line transform="translate(0,259)" x2="585" y2="0" style="fill: none; stroke: #ddd; stroke-width: 1; opacity: 1;"></line><line transform="translate(0,255)" x2="585" y2="0" style="fill: none; stroke: #ddd; stroke-width: 1; opacity: 1;"></line><line transform="translate(0,229)" x2="585" y2="0" style="fill: none; stroke: #ddd; stroke-width: 1; opacity: 1;"></line><line transform="translate(0,214)" x2="585" y2="0" style="fill: none; stroke: #ddd; stroke-width: 1; opacity: 1;"></line><line transform="translate(0,204)" x2="585" y2="0" style="fill: none; stroke: #ddd; stroke-width: 1; opacity: 1;"></line><line transform="translate(0,196)" x2="585" y2="0" style="fill: none; stroke: #ddd; stroke-width: 1; opacity: 1;"></line><line transform="translate(0,189)" x2="585" y2="0" style="fill: none; stroke: #ddd; stroke-width: 1; opacity: 1;"></line><line transform="translate(0,183)" x2="585" y2="0" style="fill: none; stroke: #ddd; stroke-width: 1; opacity: 1;"></line><line transform="translate(0,178)" x2="585" y2="0" style="fill: none; stroke: #ddd; stroke-width: 1; opacity: 1;"></line><line transform="translate(0,174)" x2="585" y2="0" style="fill: none; stroke: #ddd; stroke-width: 1; opacity: 1;"></line><line transform="translate(0,170)" x2="585" y2="0" style="fill: none; stroke: #ddd; stroke-width: 1; opacity: 1;"></line><line transform="translate(0,144)" x2="585" y2="0" style="fill: none; stroke: #ddd; stroke-width: 1; opacity: 1;"></line><line transform="translate(0,129)" x2="585" y2="0" style="fill: none; stroke: #ddd; stroke-width: 1; opacity: 1;"></line><line transform="translate(0,119)" x2="585" y2="0" style="fill: none; stroke: #ddd; stroke-width: 1; opacity: 1;"></line><line transform="translate(0,111)" x2="585" y2="0" style="fill: none; stroke: #ddd; stroke-width: 1; opacity: 1;"></line><line transform="translate(0,104)" x2="585" y2="0" style="fill: none; stroke: #ddd; stroke-width: 1; opacity: 1;"></line><line transform="translate(0,98)" x2="585" y2="0" style="fill: none; stroke: #ddd; stroke-width: 1; opacity: 1;"></line><line transform="translate(0,93)" x2="585" y2="0" style="fill: none; stroke: #ddd; stroke-width: 1; opacity: 1;"></line><line transform="translate(0,89)" x2="585" y2="0" style="fill: none; stroke: #ddd; stroke-width: 1; opacity: 1;"></line><line transform="translate(0,85)" x2="585" y2="0" style="fill: none; stroke: #ddd; stroke-width: 1; opacity: 1;"></line><line transform="translate(0,59)" x2="585" y2="0" style="fill: none; stroke: #ddd; stroke-width: 1; opacity: 1;"></line><line transform="translate(0,44)" x2="585" y2="0" style="fill: none; stroke: #ddd; stroke-width: 1; opacity: 1;"></line><line transform="translate(0,34)" x2="585" y2="0" style="fill: none; stroke: #ddd; stroke-width: 1; opacity: 1;"></line><line transform="translate(0,26)" x2="585" y2="0" style="fill: none; stroke: #ddd; stroke-width: 1; opacity: 1;"></line><line transform="translate(0,19)" x2="585" y2="0" style="fill: none; stroke: #ddd; stroke-width: 1; opacity: 1;"></line><line transform="translate(0,13)" x2="585" y2="0" style="fill: none; stroke: #ddd; stroke-width: 1; opacity: 1;"></line><line transform="translate(0,8)" x2="585" y2="0" style="fill: none; stroke: #ddd; stroke-width: 1; opacity: 1;"></line><line transform="translate(0,4)" x2="585" y2="0" style="fill: none; stroke: #ddd; stroke-width: 1; opacity: 1;"></line><line transform="translate(0,0)" x2="585" y2="0" style="fill: none; stroke: #ddd; stroke-width: 1; opacity: 1;"></line></g></g><path class="foreground" d="" style="pointer-events: none; display: none; fill: none;"></path></g></g><g class="mark-group role-axis"><g transform="translate(0.5,425.5)"><path class="background" d="M0,0h0v0h0Z" style="pointer-events: none; fill: none;"></path><g><g class="mark-rule role-axis-tick" style="pointer-events: none;"><line transform="translate(49,0)" x2="0" y2="5" style="fill: none; stroke: #888; stroke-width: 1; opacity: 1;"></line><line transform="translate(126,0)" x2="0" y2="5" style="fill: none; stroke: #888; stroke-width: 1; opacity: 1;"></line><line transform="translate(206,0)" x2="0" y2="5" style="fill: none; stroke: #888; stroke-width: 1; opacity: 1;"></line><line transform="translate(283,0)" x2="0" y2="5" style="fill: none; stroke: #888; stroke-width: 1; opacity: 1;"></line><line transform="translate(363,0)" x2="0" y2="5" style="fill: none; stroke: #888; stroke-width: 1; opacity: 1;"></line><line transform="translate(443,0)" x2="0" y2="5" style="fill: none; stroke: #888; stroke-width: 1; opacity: 1;"></line><line transform="translate(521,0)" x2="0" y2="5" style="fill: none; stroke: #888; stroke-width: 1; opacity: 1;"></line></g><g class="mark-text role-axis-label" style="pointer-events: none;"><text text-anchor="middle" transform="translate(48.9647577092511,18)" style="font-family: sans-serif; font-size: 14px; fill: #000; opacity: 1;">01/04</text><text text-anchor="middle" transform="translate(126.27753303964758,18)" style="font-family: sans-serif; font-size: 14px; fill: #000; opacity: 1;">01/05</text><text text-anchor="middle" transform="translate(206.1674008810573,18)" style="font-family: sans-serif; font-size: 14px; fill: #000; opacity: 1;">01/06</text><text text-anchor="middle" transform="translate(283.48017621145374,18)" style="font-family: sans-serif; font-size: 14px; fill: #000; opacity: 1;">01/07</text><text text-anchor="middle" transform="translate(363.3700440528635,18)" style="font-family: sans-serif; font-size: 14px; fill: #000; opacity: 1;">01/08</text><text text-anchor="middle" transform="translate(443.2599118942731,18)" style="font-family: sans-serif; font-size: 14px; fill: #000; opacity: 1;">01/09</text><text text-anchor="middle" transform="translate(520.5726872246696,18)" style="font-family: sans-serif; font-size: 14px; fill: #000; opacity: 1;">01/10</text></g><g class="mark-rule role-axis-domain" style="pointer-events: none;"><line transform="translate(0,0)" x2="585" y2="0" style="fill: none; stroke: #888; stroke-width: 1; opacity: 1;"></line></g><g class="mark-text role-axis-title" style="pointer-events: none;"><text text-anchor="middle" transform="translate(292.5,36)" style="font-family: sans-serif; font-size: 14px; font-weight: bold; fill: #000; opacity: 1;">Fecha de muestra o deceso</text></g></g><path class="foreground" d="" style="pointer-events: none; display: none; fill: none;"></path></g></g><g class="mark-group role-axis"><g transform="translate(0.5,0.5)"><path class="background" d="M0,0h0v0h0Z" style="pointer-events: none; fill: none;"></path><g><g class="mark-rule role-axis-tick" style="pointer-events: none;"><line transform="translate(0,425)" x2="-5" y2="0" style="fill: none; stroke: #888; stroke-width: 1; opacity: 1;"></line><line transform="translate(0,399)" x2="-5" y2="0" style="fill: none; stroke: #888; stroke-width: 1; opacity: 1;"></line><line transform="translate(0,384)" x2="-5" y2="0" style="fill: none; stroke: #888; stroke-width: 1; opacity: 1;"></line><line transform="translate(0,374)" x2="-5" y2="0" style="fill: none; stroke: #888; stroke-width: 1; opacity: 1;"></line><line transform="translate(0,366)" x2="-5" y2="0" style="fill: none; stroke: #888; stroke-width: 1; opacity: 1;"></line><line transform="translate(0,359)" x2="-5" y2="0" style="fill: none; stroke: #888; stroke-width: 1; opacity: 1;"></line><line transform="translate(0,353)" x2="-5" y2="0" style="fill: none; stroke: #888; stroke-width: 1; opacity: 1;"></line><line transform="translate(0,348)" x2="-5" y2="0" style="fill: none; stroke: #888; stroke-width: 1; opacity: 1;"></line><line transform="translate(0,344)" x2="-5" y2="0" style="fill: none; stroke: #888; stroke-width: 1; opacity: 1;"></line><line transform="translate(0,340)" x2="-5" y2="0" style="fill: none; stroke: #888; stroke-width: 1; opacity: 1;"></line><line transform="translate(0,314)" x2="-5" y2="0" style="fill: none; stroke: #888; stroke-width: 1; opacity: 1;"></line><line transform="translate(0,299)" x2="-5" y2="0" style="fill: none; stroke: #888; stroke-width: 1; opacity: 1;"></line><line transform="translate(0,289)" x2="-5" y2="0" style="fill: none; stroke: #888; stroke-width: 1; opacity: 1;"></line><line transform="translate(0,281)" x2="-5" y2="0" style="fill: none; stroke: #888; stroke-width: 1; opacity: 1;"></line><line transform="translate(0,274)" x2="-5" y2="0" style="fill: none; stroke: #888; stroke-width: 1; opacity: 1;"></line><line transform="translate(0,268)" x2="-5" y2="0" style="fill: none; stroke: #888; stroke-width: 1; opacity: 1;"></line><line transform="translate(0,263)" x2="-5" y2="0" style="fill: none; stroke: #888; stroke-width: 1; opacity: 1;"></line><line transform="translate(0,259)" x2="-5" y2="0" style="fill: none; stroke: #888; stroke-width: 1; opacity: 1;"></line><line transform="translate(0,255)" x2="-5" y2="0" style="fill: none; stroke: #888; stroke-width: 1; opacity: 1;"></line><line transform="translate(0,229)" x2="-5" y2="0" style="fill: none; stroke: #888; stroke-width: 1; opacity: 1;"></line><line transform="translate(0,214)" x2="-5" y2="0" style="fill: none; stroke: #888; stroke-width: 1; opacity: 1;"></line><line transform="translate(0,204)" x2="-5" y2="0" style="fill: none; stroke: #888; stroke-width: 1; opacity: 1;"></line><line transform="translate(0,196)" x2="-5" y2="0" style="fill: none; stroke: #888; stroke-width: 1; opacity: 1;"></line><line transform="translate(0,189)" x2="-5" y2="0" style="fill: none; stroke: #888; stroke-width: 1; opacity: 1;"></line><line transform="translate(0,183)" x2="-5" y2="0" style="fill: none; stroke: #888; stroke-width: 1; opacity: 1;"></line><line transform="translate(0,178)" x2="-5" y2="0" style="fill: none; stroke: #888; stroke-width: 1; opacity: 1;"></line><line transform="translate(0,174)" x2="-5" y2="0" style="fill: none; stroke: #888; stroke-width: 1; opacity: 1;"></line><line transform="translate(0,170)" x2="-5" y2="0" style="fill: none; stroke: #888; stroke-width: 1; opacity: 1;"></line><line transform="translate(0,144)" x2="-5" y2="0" style="fill: none; stroke: #888; stroke-width: 1; opacity: 1;"></line><line transform="translate(0,129)" x2="-5" y2="0" style="fill: none; stroke: #888; stroke-width: 1; opacity: 1;"></line><line transform="translate(0,119)" x2="-5" y2="0" style="fill: none; stroke: #888; stroke-width: 1; opacity: 1;"></line><line transform="translate(0,111)" x2="-5" y2="0" style="fill: none; stroke: #888; stroke-width: 1; opacity: 1;"></line><line transform="translate(0,104)" x2="-5" y2="0" style="fill: none; stroke: #888; stroke-width: 1; opacity: 1;"></line><line transform="translate(0,98)" x2="-5" y2="0" style="fill: none; stroke: #888; stroke-width: 1; opacity: 1;"></line><line transform="translate(0,93)" x2="-5" y2="0" style="fill: none; stroke: #888; stroke-width: 1; opacity: 1;"></line><line transform="translate(0,89)" x2="-5" y2="0" style="fill: none; stroke: #888; stroke-width: 1; opacity: 1;"></line><line transform="translate(0,85)" x2="-5" y2="0" style="fill: none; stroke: #888; stroke-width: 1; opacity: 1;"></line><line transform="translate(0,59)" x2="-5" y2="0" style="fill: none; stroke: #888; stroke-width: 1; opacity: 1;"></line><line transform="translate(0,44)" x2="-5" y2="0" style="fill: none; stroke: #888; stroke-width: 1; opacity: 1;"></line><line transform="translate(0,34)" x2="-5" y2="0" style="fill: none; stroke: #888; stroke-width: 1; opacity: 1;"></line><line transform="translate(0,26)" x2="-5" y2="0" style="fill: none; stroke: #888; stroke-width: 1; opacity: 1;"></line><line transform="translate(0,19)" x2="-5" y2="0" style="fill: none; stroke: #888; stroke-width: 1; opacity: 1;"></line><line transform="translate(0,13)" x2="-5" y2="0" style="fill: none; stroke: #888; stroke-width: 1; opacity: 1;"></line><line transform="translate(0,8)" x2="-5" y2="0" style="fill: none; stroke: #888; stroke-width: 1; opacity: 1;"></line><line transform="translate(0,4)" x2="-5" y2="0" style="fill: none; stroke: #888; stroke-width: 1; opacity: 1;"></line><line transform="translate(0,0)" x2="-5" y2="0" style="fill: none; stroke: #888; stroke-width: 1; opacity: 1;"></line></g><g class="mark-text role-axis-label" style="pointer-events: none;"><text text-anchor="end" transform="translate(-7,429)" style="font-family: sans-serif; font-size: 14px; fill: #000; opacity: 1;">0.1</text><text text-anchor="end" transform="translate(-7,403.4124503685616)" style="font-family: sans-serif; font-size: 14px; fill: #000; opacity: 1;">0.2</text><text text-anchor="end" transform="translate(-7,388.4446933488287)" style="font-family: sans-serif; font-size: 14px; fill: #000; opacity: 1;"></text><text text-anchor="end" transform="translate(-7,377.8249007371232)" style="font-family: sans-serif; font-size: 14px; fill: #000; opacity: 1;"></text><text text-anchor="end" transform="translate(-7,369.58754963143843)" style="font-family: sans-serif; font-size: 14px; fill: #000; opacity: 1;"></text><text text-anchor="end" transform="translate(-7,362.8571437173903)" style="font-family: sans-serif; font-size: 14px; fill: #000; opacity: 1;"></text><text text-anchor="end" transform="translate(-7,357.1666665987882)" style="font-family: sans-serif; font-size: 14px; fill: #000; opacity: 1;"></text><text text-anchor="end" transform="translate(-7,352.2373511056848)" style="font-family: sans-serif; font-size: 14px; fill: #000; opacity: 1;"></text><text text-anchor="end" transform="translate(-7,347.8893866976574)" style="font-family: sans-serif; font-size: 14px; fill: #000; opacity: 1;"></text><text text-anchor="end" transform="translate(-7,344)" style="font-family: sans-serif; font-size: 14px; fill: #000; opacity: 1;">1</text><text text-anchor="end" transform="translate(-7,318.41245036856157)" style="font-family: sans-serif; font-size: 14px; fill: #000; opacity: 1;">2</text><text text-anchor="end" transform="translate(-7,303.4446933488287)" style="font-family: sans-serif; font-size: 14px; fill: #000; opacity: 1;"></text><text text-anchor="end" transform="translate(-7,292.82490073712324)" style="font-family: sans-serif; font-size: 14px; fill: #000; opacity: 1;"></text><text text-anchor="end" transform="translate(-7,284.58754963143843)" style="font-family: sans-serif; font-size: 14px; fill: #000; opacity: 1;"></text><text text-anchor="end" transform="translate(-7,277.8571437173903)" style="font-family: sans-serif; font-size: 14px; fill: #000; opacity: 1;"></text><text text-anchor="end" transform="translate(-7,272.16666659878814)" style="font-family: sans-serif; font-size: 14px; fill: #000; opacity: 1;"></text><text text-anchor="end" transform="translate(-7,267.23735110568475)" style="font-family: sans-serif; font-size: 14px; fill: #000; opacity: 1;"></text><text text-anchor="end" transform="translate(-7,262.8893866976574)" style="font-family: sans-serif; font-size: 14px; fill: #000; opacity: 1;"></text><text text-anchor="end" transform="translate(-7,259)" style="font-family: sans-serif; font-size: 14px; fill: #000; opacity: 1;">10</text><text text-anchor="end" transform="translate(-7,233.4124503685616)" style="font-family: sans-serif; font-size: 14px; fill: #000; opacity: 1;">20</text><text text-anchor="end" transform="translate(-7,218.44469334882874)" style="font-family: sans-serif; font-size: 14px; fill: #000; opacity: 1;"></text><text text-anchor="end" transform="translate(-7,207.8249007371232)" style="font-family: sans-serif; font-size: 14px; fill: #000; opacity: 1;"></text><text text-anchor="end" transform="translate(-7,199.5875496314384)" style="font-family: sans-serif; font-size: 14px; fill: #000; opacity: 1;"></text><text text-anchor="end" transform="translate(-7,192.8571437173903)" style="font-family: sans-serif; font-size: 14px; fill: #000; opacity: 1;"></text><text text-anchor="end" transform="translate(-7,187.16666659878814)" style="font-family: sans-serif; font-size: 14px; fill: #000; opacity: 1;"></text><text text-anchor="end" transform="translate(-7,182.23735110568484)" style="font-family: sans-serif; font-size: 14px; fill: #000; opacity: 1;"></text><text text-anchor="end" transform="translate(-7,177.88938669765744)" style="font-family: sans-serif; font-size: 14px; fill: #000; opacity: 1;"></text><text text-anchor="end" transform="translate(-7,174)" style="font-family: sans-serif; font-size: 14px; fill: #000; opacity: 1;">100</text><text text-anchor="end" transform="translate(-7,148.41245036856162)" style="font-family: sans-serif; font-size: 14px; fill: #000; opacity: 1;">200</text><text text-anchor="end" transform="translate(-7,133.4446933488287)" style="font-family: sans-serif; font-size: 14px; fill: #000; opacity: 1;"></text><text text-anchor="end" transform="translate(-7,122.82490073712322)" style="font-family: sans-serif; font-size: 14px; fill: #000; opacity: 1;"></text><text text-anchor="end" transform="translate(-7,114.58754963143842)" style="font-family: sans-serif; font-size: 14px; fill: #000; opacity: 1;"></text><text text-anchor="end" transform="translate(-7,107.85714371739031)" style="font-family: sans-serif; font-size: 14px; fill: #000; opacity: 1;"></text><text text-anchor="end" transform="translate(-7,102.1666665987882)" style="font-family: sans-serif; font-size: 14px; fill: #000; opacity: 1;"></text><text text-anchor="end" transform="translate(-7,97.23735110568482)" style="font-family: sans-serif; font-size: 14px; fill: #000; opacity: 1;"></text><text text-anchor="end" transform="translate(-7,92.88938669765736)" style="font-family: sans-serif; font-size: 14px; fill: #000; opacity: 1;"></text><text text-anchor="end" transform="translate(-7,89.00000000000003)" style="font-family: sans-serif; font-size: 14px; fill: #000; opacity: 1;">1,000</text><text text-anchor="end" transform="translate(-7,63.41245036856163)" style="font-family: sans-serif; font-size: 14px; fill: #000; opacity: 1;">2,000</text><text text-anchor="end" transform="translate(-7,48.44469334882877)" style="font-family: sans-serif; font-size: 14px; fill: #000; opacity: 1;"></text><text text-anchor="end" transform="translate(-7,37.82490073712324)" style="font-family: sans-serif; font-size: 14px; fill: #000; opacity: 1;"></text><text text-anchor="end" transform="translate(-7,29.587549631438396)" style="font-family: sans-serif; font-size: 14px; fill: #000; opacity: 1;"></text><text text-anchor="end" transform="translate(-7,22.85714371739033)" style="font-family: sans-serif; font-size: 14px; fill: #000; opacity: 1;"></text><text text-anchor="end" transform="translate(-7,17.16666659878822)" style="font-family: sans-serif; font-size: 14px; fill: #000; opacity: 1;"></text><text text-anchor="end" transform="translate(-7,12.237351105684837)" style="font-family: sans-serif; font-size: 14px; fill: #000; opacity: 1;"></text><text text-anchor="end" transform="translate(-7,7.889386697657423)" style="font-family: sans-serif; font-size: 14px; fill: #000; opacity: 1;"></text><text text-anchor="end" transform="translate(-7,4)" style="font-family: sans-serif; font-size: 14px; fill: #000; opacity: 1;">10,000</text></g><g class="mark-rule role-axis-domain" style="pointer-events: none;"><line transform="translate(0,425)" x2="0" y2="-425" style="fill: none; stroke: #888; stroke-width: 1; opacity: 1;"></line></g><g class="mark-text role-axis-title" style="pointer-events: none;"><text text-anchor="middle" transform="translate(-53.8203125,212.5) rotate(-90) translate(0,-3)" style="font-family: sans-serif; font-size: 14px; font-weight: bold; fill: #000; opacity: 1;">Nuevos (promedio 7 días)</text></g></g><path class="foreground" d="" style="pointer-events: none; display: none; fill: none;"></path></g></g><g class="mark-group role-scope pathgroup"><g transform="translate(0,0)"><path class="background" d="M0,0h585v425h-585Z" style="fill: none;"></path><g><g class="mark-line role-mark marks"><path d="M0,299.4446933488287L2.577092511013216,299.4446933488287L7.7312775330396475,280.58754963143843L10.308370044052865,277.0691713929893L12.88546255506608,277.74653041504763L15.462555066079295,278.2051081254177L18.039647577092513,270.498917708278L20.61674008810573,263.9025047942011L23.193832599118945,259.48003979386027L25.77092511013216,246.97419692862928L28.348017621145374,232.72048598114304L30.92511013215859,223.34719814302983L33.502202643171806,212.72740553132428L36.079295154185026,207.27741806432567L38.65638766519824,205.57987618522296L41.23348017621146,205.30438960100716L43.81057268722467,198.89558524401983L46.38766519823789,197.9840566857191L48.9647577092511,194.54762083599246L51.54185022026432,195.27248344324693L54.11894273127753,195.1680561290199L56.69603524229075,196.11871031998356L59.27312775330396,197.09449482307508L61.85022026431718,201.15518127573512L64.42731277533039,203.956976122956L67.00440528634361,210.76685468548538L69.58149779735683,213.74816266653062L72.15859030837005,222.90243335366725L74.73568281938326,223.57160631715752L77.31277533039648,223.34719814302983L79.8898678414097,228.88882412865203L82.46696035242292,231.5845492487146L85.04405286343612,230.21208519291727L87.62114537444934,232.720485981143L90.19823788546256,227.61135994761685L92.77533039647578,228.3725215731156L95.35242290748899,228.88882412865203L97.9295154185022,230.75496307913633L100.50660792951543,231.86527327047187L103.08370044052865,232.720485981143L105.66079295154184,235.4118416828467L108.23788546255506,236.99642103761164L110.81497797356828,239.6823348537063L113.3920704845815,239.33571229796897L115.9691629955947,240.74216930127218L118.54625550660792,241.83333340121177L121.12334801762114,245.72272009886916L123.70044052863436,244.11746584523738L126.27753303964758,246.97419692862917L128.85462555066078,244.9113680768396L131.43171806167402,244.9113680768396L134.00881057268722,248.26959408595184L136.58590308370046,244.9113680768396L139.16299559471366,244.9113680768396L141.74008810572687,246.55230626844747L144.3171806167401,240.74216930127218L146.8942731277533,241.46601662968715L152.04845814977975,236.99642103761164L154.62555066079295,234.49274779385823L157.20264317180616,239.33571229796897L159.7797356828194,242.95773598858096L162.3568281938326,245.31481505391884L164.93392070484583,256.07007582118166L167.51101321585904,257.17209888015293L170.08810572687224,262.58397066905L172.66519823788548,268.1666665987881L175.24229074889868,265.26988448514464L177.8193832599119,267.4208830326501L180.39647577092512,268.92782822428677L182.97356828193833,268.1666665987881L185.55066079295156,268.1666665987881L188.12775330396477,269.7050154766757L190.70484581497797,271.31026973030754L193.2819383259912,276.5928418039593L195.8590308370044,265.97304919225377L198.43612334801765,253.96007120455394L201.01321585903085,254.47637376009033L203.59030837004406,254.99999999999994L206.1674008810573,245.31481505391884L208.7444933920705,241.1023188014488L211.32158590308367,240.74216930127218L213.89867841409693,243.7268269516597L216.4757709251101,251.96417805734453L219.05286343612337,250.53503064152426L221.62995594713655,250.07068450689655L224.20704845814976,257.17209888015293L226.784140969163,260.0802974252966L229.3612334801762,257.17209888015293L231.9383259911894,256.6169751716415L234.51541850220264,252.94863722407877L237.09251101321584,249.61210679652652L239.66960352422907,247.40096504550849L242.24669603524228,245.31481505391884L244.82378854625549,241.83333340121177L247.40088105726872,241.83333340121177L249.97797356828193,238.6520810762588L252.55506607929516,239.33571229796897L255.13215859030836,242.20434186042002L260.2863436123348,235.4118416828467L262.86343612334804,227.86334065953463L265.4405286343612,225.4177425410826L268.01762114537445,217.94549718515495L270.5947136563877,213.57606430838536L273.1718061674009,213.57606430838536L275.7488986784141,213.74816266653062L278.3259911894273,204.89497655830493L280.90308370044056,199.24329611270292L283.48017621145374,193.93744114268694L286.057268722467,187.47698181338197L288.6343612334802,179.99232655378455L291.2114537444934,180.0615206339532L293.7885462555066,179.23963070769724L296.36563876651985,172.45282290191028L298.942731277533,164.65770906416867L301.51982378854626,159.03900666381725L304.0969162995595,154.57800591673166L306.6740088105727,148.77360107105386L309.2511013215859,145.40118565526458L311.82819383259914,144.49163888150642L314.4052863436123,138.19092018556822L316.98237885462555,135.52690024683614L319.5594713656388,131.412276298882L322.13656387665196,129.62089908177222L324.7136563876652,130.3522669371103L327.29074889867843,131.02495540858118L329.86784140969166,130.75076476230612L332.44493392070484,133.2755312142891L335.0220264317181,134.68672172706854L337.5991189427313,137.15841821460393L340.1762114537445,137.9466694655656L342.7533039647577,138.12414591780714L345.33039647577095,138.61665212013787L347.90748898678413,138.7973870268754L350.48458149779736,139.11581810393358L353.0616740088106,139.16153331839746L355.6387665198238,140.34682026958095L358.215859030837,145.7549630791363L360.79295154185024,143.24456639834366L363.3700440528635,142.16208424837376L365.94713656387665,142.46099301481485L368.5242290748899,139.80756284777712L371.1013215859031,135.90188685576945L373.6784140969163,133.11985346764916L376.25550660792953,127.94618684301267L378.83259911894277,126.57113553979643L381.40969162995594,125.75094646245883L383.9867841409692,125.81462052906386L386.5638766519824,125.92631511037956L389.1409691629956,126.86502057597063L391.7180616740088,126.34416493743791L394.29515418502206,126.45747579892472L396.8722466960353,126.78315087960206L399.44933920704847,126.4088714061733L402.0264317180617,126.61995419045782L404.60352422907494,126.70146235110973L407.1806167400881,128.16627252243833L409.75770925110135,128.11536693271879L412.3348017621146,128.97309675947983L414.91189427312776,132.04811322028172L417.488986784141,135.21729515305253L420.0660792951542,134.9510552181276L422.64317180616735,137.05025806994914L425.22026431718064,138.03530103506185L427.79735682819387,143.55240721743752L430.3744493392071,146.8371046075546L432.9515418502202,148.9222723592464L435.5286343612335,147.31891991293386L438.10572687224675,147.69165737291345L440.68281938325987,149.52301842364932L443.2599118942731,150.2570614520585L445.8370044052864,147.92291909065105L448.4140969162995,144.75683420998263L450.99118942731275,143.09160334400428L453.568281938326,142.71194592527752L456.14537444933916,142.5360999195882L458.7224669603524,146.0018872838259L461.2995594713656,142.86334065953469L463.8766519823788,138.6843240565259L466.45374449339204,132.23722752200916L469.03083700440527,126.94707224558584L471.6079295154185,126.11858133126918L474.1850220264317,126.10252084332308L476.7621145374449,120.5246141525048L479.33920704845815,119.99010093147616L481.9162995594713,116.76106877312137L484.49339207048456,118.00351881937594L487.0704845814978,119.57068430326116L489.64757709251097,119.70546003150851L492.2246696035242,119.75950840274758L494.80176211453744,121.68860329741675L497.3788546255506,122.87577718946993L499.95594713656385,129.1470604695618L502.5330396475771,132.56096213555105L505.1101321585903,135.07369662980764L507.6872246696035,135.54763320495582L510.26431718061673,135.71391740937415L512.84140969163,136.45034883320847L515.4185022026431,136.87785831253393L517.9955947136564,137.02866401787878L520.5726872246696,137.44112675540376L523.1497797356828,137.70402422947774L525.7268722466961,137.70402422947774L528.3039647577093,137.4629635090496L530.8810572687224,136.17509926287678L533.4581497797357,134.56535713239776L536.0352422907489,132.12364272174423L538.6123348017621,129.8690087212161L541.1894273127754,127.79458486007726L543.7665198237886,126.65253586155951L546.3436123348018,126.76679870615118L548.920704845815,128.507448989445L551.4977973568282,127.52659797743566L554.0748898678414,126.3118541861745L556.6519823788547,127.16126405494666L559.2290748898679,126.6199541904579L561.8061674008811,125.84649879612421L564.3832599118942,125.6715080178553L566.9603524229075,123.79944600630975L569.5374449339207,125.87840461570921L572.114537444934,130.11879722067448L574.6916299559472,133.90489168509666L577.2687224669604,142.16208424837376L579.8458149779736,148.12646841829826" style="fill: none; stroke: #4c78a8; stroke-width: 2; stroke-dasharray: 1,0;"></path></g></g><path class="foreground" d="" style="display: none; fill: none;"></path></g><g transform="translate(0,0)"><path class="background" d="M0,0h585v425h-585Z" style="fill: none;"></path><g><g class="mark-line role-mark marks"><path d="M0,299.4446933488287L2.577092511013216,299.4446933488287L7.7312775330396475,280.58754963143843L10.308370044052865,277.0691713929893L12.88546255506608,277.74653041504763L15.462555066079295,278.2051081254177L18.039647577092513,270.498917708278L20.61674008810573,263.9025047942011L23.193832599118945,259.48003979386027L25.77092511013216,246.97419692862928L28.348017621145374,232.72048598114304L30.92511013215859,223.34719814302983L33.502202643171806,212.72740553132428L36.079295154185026,207.27741806432567L38.65638766519824,205.57987618522296L41.23348017621146,205.30438960100716L43.81057268722467,198.89558524401983L46.38766519823789,197.9840566857191L48.9647577092511,194.54762083599246L51.54185022026432,195.27248344324693L54.11894273127753,195.1680561290199L56.69603524229075,196.11871031998356L59.27312775330396,197.09449482307508L61.85022026431718,201.15518127573512L64.42731277533039,203.956976122956L67.00440528634361,210.76685468548538L69.58149779735683,213.74816266653062L72.15859030837005,222.90243335366725L74.73568281938326,223.57160631715752L77.31277533039648,223.34719814302983L79.8898678414097,228.62977021668155L82.46696035242292,231.3059439190095L85.04405286343612,229.9436110571067L87.62114537444934,232.43320802577563L90.19823788546256,227.36108759264042L92.77533039647578,228.11705321123895L95.35242290748899,228.62977021668155L97.9295154185022,230.75496307913633L100.50660792951543,231.86527327047187L103.08370044052865,232.720485981143L105.66079295154184,235.4118416828467L108.23788546255506,236.99642103761167L110.81497797356828,239.68233485370638L113.3920704845815,239.335712297969L115.9691629955947,240.74216930127218L118.54625550660792,242.20434186042004L121.12334801762114,246.13518283639425L123.70044052863436,244.5122827741273L126.27753303964758,247.4009650455086L128.85462555066078,245.31481505391884L131.43171806167402,245.31481505391884L134.00881057268722,248.71169554924546L136.58590308370046,245.31481505391884L139.16299559471366,245.31481505391884L141.74008810572687,246.97419692862923L144.3171806167401,241.1023188014488L146.8942731277533,241.83333340121183L152.04845814977975,237.32166570512115L154.62555066079295,234.79657692431357L157.20264317180616,239.335712297969L159.7797356828194,242.95773598858096L162.3568281938326,245.31481505391884L164.93392070484583,256.0700758211818L167.51101321585904,257.17209888015293L170.08810572687224,262.58397066905L172.66519823788548,268.16666659878814L175.24229074889868,265.26988448514476L177.8193832599119,267.4208830326502L180.39647577092512,268.9278282242869L182.97356828193833,268.16666659878814L185.55066079295156,268.16666659878814L188.12775330396477,269.7050154766758L190.70484581497797,271.3102697303076L193.2819383259912,276.59284180395935L195.8590308370044,265.9730491922539L198.43612334801765,253.960071204554L201.01321585903085,254.4763737600904L203.59030837004406,255L206.1674008810573,245.31481505391884L208.7444933920705,241.1023188014488L211.32158590308367,240.74216930127218L213.89867841409693,243.72682695165975L216.4757709251101,251.96417805734453L219.05286343612337,250.53503064152426L221.62995594713655,250.0706845068966L224.20704845814976,257.17209888015293L226.784140969163,260.0802974252966L229.3612334801762,257.17209888015293L231.9383259911894,256.6169751716415L234.51541850220264,252.94863722407882L237.09251101321584,249.61210679652658L239.66960352422907,247.4009650455086L242.24669603524228,245.31481505391884L244.82378854625549,241.83333340121183L247.40088105726872,241.83333340121183L249.97797356828193,238.6520810762588L252.55506607929516,239.335712297969L255.13215859030836,242.20434186042004L260.2863436123348,235.4118416828467L262.86343612334804,227.86334065953463L265.4405286343612,225.4177425410826L268.01762114537445,217.945497185155L270.5947136563877,213.5760643083854L273.1718061674009,213.5760643083854L275.7488986784141,213.74816266653062L278.3259911894273,204.89497655830493L280.90308370044056,199.24329611270292L283.48017621145374,193.93744114268694L286.057268722467,187.47698181338197L288.6343612334802,179.99232655378455L291.2114537444934,180.0615206339532L293.7885462555066,179.23963070769724L296.36563876651985,172.45282290191028L298.942731277533,164.65770906416867L301.51982378854626,158.99983951853892L304.0969162995595,154.54329502469437L306.6740088105727,148.77360107105386L309.2511013215859,145.45539275892835L311.82819383259914,144.57099763144265L314.4052863436123,138.25781545780697L316.98237885462555,135.60990203776123L319.5594713656388,131.50509764766602L322.13656387665196,129.70931835988088L324.7136563876652,130.42440185202622L327.29074889867843,131.06166852047028L329.86784140969166,130.76898091414958L332.44493392070484,133.27553121428915L335.0220264317181,134.68672172706863L337.5991189427313,137.15841821460393L340.1762114537445,137.92454478347588L342.7533039647577,138.0574922175527L345.33039647577095,138.57160631715752L347.90748898678413,138.75212027569523L350.48458149779736,139.0929817091678L353.0616740088106,139.11581810393366L355.6387665198238,140.29961434120216L358.215859030837,145.72762873433928L360.79295154185024,143.32128626862198L363.3700440528635,142.13728409227687L365.94713656387665,142.4359912996961L368.5242290748899,139.78429462704972L371.1013215859031,135.88095403356877L373.6784140969163,133.10043983009328L376.25550660792953,127.91244366793765L378.83259911894277,126.52238136458936L381.40969162995594,125.75094646245883L383.9867841409692,125.81462052906396L386.5638766519824,125.8943678725901L389.1409691629956,126.83225090585438L391.7180616740088,126.27957169092801L394.29515418502206,126.3926841526967L396.8722466960353,126.68514631505994L399.44933920704847,126.3118541861745L402.0264317180617,126.52238136458936L404.60352422907494,126.6362414313847L407.1806167400881,128.08146883028013L409.75770925110135,128.06453144482043L412.3348017621146,128.93840217895442L414.91189427312776,132.02925496650673L417.488986784141,135.19674684694908L420.0660792951542,134.93065453733115L422.64317180616735,137.05025806994922L425.22026431718064,138.05749221755275L427.79735682819387,143.55240721743755L430.3744493392071,146.83710460755475L432.9515418502202,148.98190893273662L435.5286343612335,147.40460280856615L438.10572687224675,147.77821082630948L440.68281938325987,149.73561071563915L443.2599118942731,150.4428757586231L445.8370044052864,148.18483211577077L448.4140969162995,144.99714990762524L450.99118942731275,143.3468950320228L453.568281938326,142.9392715007627L456.14537444933916,142.76234187981012L458.7224669603524,146.1121637839432L461.2995594713656,142.9899789688481L463.8766519823788,138.75212027569523L466.45374449339204,132.31314535023031L469.03083700440527,126.96350448754953L471.6079295154185,126.13464880963465L474.1850220264317,126.11858133126923L476.7621145374449,120.5384219069062L479.33920704845815,120.05819730009776L481.9162995594713,116.8484416682577L484.49339207048456,118.0938861373602L487.0704845814978,119.66497562135132L489.64757709251097,119.8000966761733L492.2246696035242,119.85428388731485L494.80176211453744,121.78847010875286L497.3788546255506,122.90521501476348L499.95594713656385,129.07737657730408L502.5330396475771,132.19932707621402L505.1101321585903,134.4846685080062L507.6872246696035,134.93065453733115L510.26431718061673,135.0941765365531L512.84140969163,135.63068167859242L515.4185022026431,135.7347557000555L517.9955947136564,135.9228315547494L520.5726872246696,136.62075897292846L523.1497797356828,137.11511612053403L525.7268722466961,137.15841821460393L528.3039647577093,136.92088282901477L530.8810572687224,135.90188685576945L533.4581497797357,134.70698800864366L536.0352422907489,132.44637839855997L538.6123348017621,130.4966780003459L541.1894273127754,129.05997613815953L543.7665198237886,128.79994901726593L546.3436123348018,128.93840217895442L548.920704845815,132.79120216026706L551.4977973568282,136.04874991775475L554.0748898678414,141.54702451924098L556.6519823788547,149.61397953159099L559.2290748898679,160.0722181394446L561.8061674008811,165.39511247921553" style="fill: none; stroke: #4c78a8; stroke-width: 2; stroke-dasharray: 4,2;"></path></g></g><path class="foreground" d="" style="display: none; fill: none;"></path></g><g transform="translate(0,0)"><path class="background" d="M0,0h585v425h-585Z" style="fill: none;"></path><g><g class="mark-line role-mark marks"><path d="M0,340L2.577092511013216,340L7.7312775330396475,329.38020738829454L10.308370044052865,314.41245036856157L12.88546255506608,307.6820444545135L15.462555066079295,303.7926577568561L18.039647577092513,285.06758942529865L20.61674008810573,276.5928418039594L23.193832599118945,269.70501547667584L25.77092511013216,251.48162176155088L28.348017621145374,235.4118416828467L30.92511013215859,225.6551390567371L33.502202643171806,213.92106710891912L36.079295154185026,209.20902729287516L38.65638766519824,206.98901791805181L41.23348017621146,206.41889027745793L43.81057268722467,199.35993137864753L46.38766519823789,198.32324771800756L48.9647577092511,195.06392339152885L51.54185022026432,196.76635905394983L54.11894273127753,196.5492111868495L56.69603524229075,197.53659628636876L59.27312775330396,198.66558430706624L61.85022026431718,203.9569761229561L64.42731277533039,207.1329363497046L67.00440528634361,214.09478522226794L69.58149779735683,216.0616685204703L72.15859030837005,224.9474810100859L74.73568281938326,225.6551390567371L77.31277533039648,225.41774254108262L79.8898678414097,229.9436110571068L82.46696035242292,233.01001711995553L85.04405286343612,232.1481484551307L87.62114537444934,233.59598229552708L90.19823788546256,227.6113599476169L92.77533039647578,227.8633406595347L95.35242290748899,228.11705321123904L97.9295154185022,230.48252618974337L100.50660792951543,230.75496307913633L103.08370044052865,228.6297702166816L105.66079295154184,231.8652732704719L108.23788546255506,233.89249016242186L110.81497797356828,236.3544043169238L113.3920704845815,236.67401697115486L115.9691629955947,236.99642103761173L118.54625550660792,235.41184168284678L121.12334801762114,242.2043418604201L123.70044052863436,241.10231880144886L126.27753303964758,241.10231880144886L128.85462555066078,239.68233485370638L131.43171806167402,238.65208107625887L134.00881057268722,238.99231418482114L136.58590308370046,238.31495516276271L139.16299559471366,235.72336278019125L141.74008810572687,237.32166570512115L144.3171806167401,234.4927477938583L146.8942731277533,235.10292748716375L152.04845814977975,231.8652732704719L154.62555066079295,230.75496307913633L157.20264317180616,236.0375351527881L159.7797356828194,239.68233485370638L162.3568281938326,241.10231880144892L164.93392070484583,251.00529217252108L167.51101321585904,252.9486372240789L170.08810572687224,255.00000000000003L172.66519823788548,258.3080356125815L175.24229074889868,255.53116068854519L177.8193832599119,260.0802974252967L180.39647577092512,260.0802974252967L182.97356828193833,260.0802974252967L185.55066079295156,258.3080356125815L188.12775330396477,261.3109124116296L190.70484581497797,267.4208830326503L193.2819383259912,267.4208830326503L195.8590308370044,258.88938669765747L198.43612334801765,251.48162176155094L201.01321585903085,250.53503064152437L203.59030837004406,251.96417805734464L206.1674008810573,242.57911696734982L208.7444933920705,236.6740169711549L211.32158590308367,236.6740169711549L213.89867841409693,238.99231418482114L216.4757709251101,244.1174658452375L219.05286343612337,242.57911696734982L221.62995594713655,241.83333340121192L224.20704845814976,249.15915594859595L226.784140969163,252.9486372240789L229.3612334801762,253.45089029097318L231.9383259911894,253.45089029097318L234.51541850220264,249.61210679652666L237.09251101321584,248.26959408595192L239.66960352422907,246.13518283639425L242.24669603524228,242.2043418604202L244.82378854625549,239.68233485370644L247.40088105726872,239.68233485370644L249.97797356828193,236.35440431692382L252.55506607929516,236.99642103761173L255.13215859030836,239.3357122979691L257.70925110132157,240.74216930127227L260.2863436123348,236.99642103761173L262.86343612334804,231.30594391900956L265.4405286343612,226.86557638147897L268.01762114537445,219.1237364869557L270.5947136563877,213.23425602408687L273.1718061674009,211.4088714061733L275.7488986784141,211.24731740232139L278.3259911894273,204.75950840274757L280.90308370044056,198.5511190030681L283.48017621145374,193.5361868555173L286.057268722467,188.3335174774807L288.6343612334802,182.27351744388523L291.2114537444934,182.6430403588786L293.7885462555066,181.90765685787827L296.36563876651985,174.0067636835502L298.942731277533,165.72241698786218L301.51982378854626,160.0319398692601L304.0969162995595,155.24379101458112L306.6740088105727,148.92227235924645L309.2511013215859,145.13133773608763L311.82819383259914,143.5009218102609L314.4052863436123,137.61618354326683L316.98237885462555,135.03277087066934L319.5594713656388,130.4063549042398L322.13656387665196,128.62760962413074L324.7136563876652,129.1122020807943L327.29074889867843,130.0115379753499L329.86784140969166,130.19047691496664L332.44493392070484,132.1614655026778L335.0220264317181,133.3927218871927L337.5991189427313,136.1540109841189L340.1762114537445,136.32305549686237L342.7533039647577,136.2384364776627L345.33039647577095,136.72766617467283L347.90748898678413,136.7919594233692L350.48458149779736,137.15841821460393L353.0616740088106,136.556762948299L355.6387665198238,137.48481318767608L358.215859030837,142.76234187981012L360.79295154185024,140.84616163544212L363.3700440528635,139.46007018807137L365.94713656387665,139.59867497278987L368.5242290748899,136.492877675426L371.1013215859031,132.27516691996505L373.6784140969163,128.83451365552324L376.25550660792953,123.75421623022659L378.83259911894277,122.16178748908787L381.40969162995594,121.68860329741675L383.9867841409692,121.902935412751L386.5638766519824,122.23401414285058L389.1409691629956,123.64889510040501L391.7180616740088,123.9809213294063L394.29515418502206,124.70041599233873L396.8722466960353,125.38693677679737L399.44933920704847,124.99530323977685L402.0264317180617,125.15145842593627L404.60352422907494,125.16711033669085L407.1806167400881,126.71778560185625L409.75770925110135,126.60367413243802L412.3348017621146,126.79951029975093L414.91189427312776,128.45607106749551L417.488986784141,131.26424590117188L420.0660792951542,130.98827877271594L422.64317180616735,132.04811322028178L425.22026431718064,132.19932707621402L427.79735682819387,135.52690024683614L430.3744493392071,137.33213632795275L432.9515418502202,138.41437747178273L435.5286343612335,135.81822669313695L438.10572687224675,136.1540109841189L440.68281938325987,135.79734124366223L443.2599118942731,136.34424059412206L445.8370044052864,134.88988696724437L448.4140969162995,133.8652407350312L450.99118942731275,134.60576767935805L453.568281938326,135.71391740937415L456.14537444933916,135.52690024683614L458.7224669603524,141.9394803720524L461.2995594713656,140.51251802564988L463.8766519823788,137.85825018745706L466.45374449339204,131.63544089366815L469.03083700440527,126.32800602671294L471.6079295154185,125.6715080178553L474.1850220264317,125.60808011400022L476.7621145374449,120.44187590876483L479.33920704845815,119.6380106596251L481.9162995594713,116.63660799790036L484.49339207048456,117.73373663718357L487.0704845814978,119.54378810464924L489.64757709251097,119.55723375439243L492.2246696035242,119.61106538035449L494.80176211453744,121.13709477958244L497.3788546255506,122.48064721838773L499.95594713656385,128.4047645533827L502.5330396475771,132.06698111282725L505.1101321585903,134.1836472887913L507.6872246696035,134.46452387942338L510.26431718061673,134.54516843571636L512.84140969163,135.15568451683995L515.4185022026431,134.91026512451683L517.9955947136564,135.03277087066925L520.5726872246696,135.54763320495582L523.1497797356828,135.60990203776115L525.7268722466961,135.6514730229672L528.3039647577093,135.40274643823204L530.8810572687224,134.0241007153713L533.4581497797357,133.19761027567546L536.0352422907489,130.73255759500142L538.6123348017621,128.37059978374205L541.1894273127754,126.3765039942252L543.7665198237886,125.51314213378103L546.3436123348018,125.70326288515692L548.920704845815,127.50991321739488L551.4977973568282,126.11858133126918L554.0748898678414,125.05768606993627L556.6519823788547,125.63978044309447L559.2290748898679,125.38693677679733L561.8061674008811,124.2395481966078L564.3832599118942,124.04161189952828L566.9603524229075,121.78847010875286L569.5374449339207,122.23401414285058L572.114537444934,123.61885845842087L574.6916299559472,124.1480610842007L577.2687224669604,127.82822042592296L579.8458149779736,131.0433074004887L582.4229074889868,131.579523138525L585,139.29901962615503" style="fill: none; stroke: darkgray; stroke-width: 2; stroke-dasharray: 1,0;"></path></g></g><path class="foreground" d="" style="display: none; fill: none;"></path></g><g transform="translate(0,0)"><path class="background" d="M0,0h585v425h-585Z" style="fill: none;"></path><g><g class="mark-line role-mark marks"><path d="M0,340L2.577092511013216,340L7.7312775330396475,329.38020738829454L10.308370044052865,314.41245036856157L12.88546255506608,307.6820444545135L15.462555066079295,303.7926577568561L18.039647577092513,285.06758942529865L20.61674008810573,276.5928418039594L23.193832599118945,269.70501547667584L25.77092511013216,251.48162176155088L28.348017621145374,235.4118416828467L30.92511013215859,225.6551390567371L33.502202643171806,213.92106710891912L36.079295154185026,209.20902729287516L38.65638766519824,206.98901791805181L41.23348017621146,206.41889027745793L43.81057268722467,199.59431331498854L46.38766519823789,198.5511190030681L48.9647577092511,195.27248344324693L51.54185022026432,196.9847918271481L54.11894273127753,196.87541387761118L56.69603524229075,197.871682075464L59.27312775330396,199.01112534135143L61.85022026431718,204.08952574817542L64.42731277533039,207.27741806432567L67.00440528634361,214.26932470090802L69.58149779735683,216.43082190638677L72.15859030837005,225.18186294642703L74.73568281938326,225.8940721301125L77.31277533039648,225.6551390567371L79.8898678414097,230.21208519291733L82.46696035242292,233.301837066219L85.04405286343612,232.43320802577574L87.62114537444934,233.59598229552708L90.19823788546256,227.6113599476169L92.77533039647578,227.8633406595347L95.35242290748899,228.11705321123904L97.9295154185022,231.02942554020325L100.50660792951543,231.30594391900956L103.08370044052865,229.41245036856165L105.66079295154184,232.43320802577574L108.23788546255506,234.4927477938583L110.81497797356828,236.99642103761173L113.3920704845815,237.32166570512115L115.9691629955947,236.99642103761173L118.54625550660792,236.0375351527881L121.12334801762114,242.95773598858105L123.70044052863436,242.57911696734982L126.27753303964758,242.57911696734982L128.85462555066078,241.10231880144892L131.43171806167402,240.03224298026717L134.00881057268722,240.74216930127227L136.58590308370046,239.68233485370644L139.16299559471366,237.6498014742465L141.74008810572687,238.99231418482117L144.3171806167401,236.03753515278817L146.8942731277533,236.6740169711549L152.04845814977975,233.30183706621906L154.62555066079295,231.8652732704719L157.20264317180616,236.99642103761173L159.7797356828194,240.38549956081553L162.3568281938326,241.83333340121192L164.93392070484583,251.96417805734467L167.51101321585904,253.96007120455408L170.08810572687224,256.07007582118183L172.66519823788548,259.4800397938603L175.24229074889868,257.17209888015304L177.8193832599119,260.6904771186022L180.39647577092512,260.6904771186022L182.97356828193833,260.6904771186022L185.55066079295156,258.88938669765747L188.12775330396477,261.94195394836225L190.70484581497797,268.16666659878825L193.2819383259912,267.42088303265035L195.8590308370044,258.88938669765747L198.43612334801765,251.48162176155094L201.01321585903085,250.53503064152437L203.59030837004406,251.96417805734467L206.1674008810573,242.57911696734982L208.7444933920705,236.99642103761173L211.32158590308367,236.99642103761173L213.89867841409693,239.3357122979691L216.4757709251101,244.51228277412744L219.05286343612337,242.95773598858105L221.62995594713655,242.2043418604202L224.20704845814976,249.61210679652666L226.784140969163,252.9486372240789L229.3612334801762,253.45089029097318L231.9383259911894,252.9486372240789L234.51541850220264,249.15915594859595L237.09251101321584,247.83272471549702L239.66960352422907,245.7227200988693L242.24669603524228,242.2043418604202L244.82378854625549,240.03224298026717L247.40088105726872,240.03224298026717L249.97797356828193,236.99642103761173L252.55506607929516,237.6498014742465L255.13215859030836,240.03224298026717L257.70925110132157,241.46601662968726L260.2863436123348,237.32166570512123L262.86343612334804,231.30594391900956L265.4405286343612,226.86557638147897L268.01762114537445,219.32381844540126L270.5947136563877,213.5760643083854L273.1718061674009,211.7341160736828L275.7488986784141,211.57113553979647L278.3259911894273,205.3043896010072L280.90308370044056,199.1270282025351L283.48017621145374,194.6503052720547L286.057268722467,190.29091736681045L288.6343612334802,184.7050154766759L291.2114537444934,185.09983240556582L293.7885462555066,184.47013643849792L296.36563876651985,176.0614855778104L298.942731277533,167.79928423156295L301.51982378854626,161.5942790199412L304.0969162995595,156.1385277606656L306.6740088105727,149.61397953159099L309.2511013215859,145.97436955540908L311.82819383259914,144.25458114308836L314.4052863436123,138.23550356171413L316.98237885462555,135.42340976424697L319.5594713656388,130.75076476230612L322.13656387665196,129.00782397837375L324.7136563876652,129.40955290737284L327.29074889867843,130.19047691496664L329.86784140969166,130.37028745538942L332.44493392070484,132.25619234696356L335.0220264317181,133.47105619979536L337.5991189427313,136.21731199584914L340.1762114537445,136.30188255050524L342.7533039647577,136.17509926287678L345.33039647577095,136.64211565906749L347.90748898678413,136.70625995142194L350.48458149779736,137.266896197343L353.0616740088106,136.64211565906749L355.6387665198238,137.61618354326683L358.215859030837,142.93927150076266L360.79295154185024,140.99008006709496L363.3700440528635,139.64499245811564L365.94713656387665,139.80756284777712L368.5242290748899,136.51416048429553L371.1013215859031,132.25619234696356L373.6784140969163,128.8172272909077L376.25550660792953,123.78436325596236L378.83259911894277,122.21955750238311L381.40969162995594,121.73137028149547L383.9867841409692,121.9316072829006L386.5638766519824,122.34987153402574L389.1409691629956,123.87495233445844L391.7180616740088,124.17853160261399L394.29515418502206,124.8553261271847L396.8722466960353,125.49734284787255L399.44933920704847,125.08891706246048L402.0264317180617,125.24546959125003L404.60352422907494,125.32399553228784L407.1806167400881,126.83225090585438L409.75770925110135,126.73411607368271L412.3348017621146,126.94707224558589L414.91189427312776,128.66201319694872L417.488986784141,131.48651469687755L420.0660792951542,131.2088871840314L422.64317180616735,132.23722752200916L425.22026431718064,132.37018635714261L427.79735682819387,135.7347557000555L430.3744493392071,137.57234145858644L432.9515418502202,138.75212027569523L435.5286343612335,136.30188255050524L438.10572687224675,136.64211565906749L440.68281938325987,136.4716071297716L443.2599118942731,137.07186476120796L445.8370044052864,135.75560576045822L448.4140969162995,134.97146717936755L450.99118942731275,135.79734124366223L453.568281938326,136.7919594233692L456.14537444933916,136.59941463526422L458.7224669603524,142.86334065953469L461.2995594713656,141.47390129104886L463.8766519823788,138.52661541462095L466.45374449339204,132.04811322028178L469.03083700440527,126.52238136458928L471.6079295154185,125.86244825887471L474.1850220264317,125.79869171286776L476.7621145374449,120.70451906434377L479.33920704845815,119.90855075627434L481.9162995594713,116.94855028814985L484.49339207048456,118.10681383175317L487.0704845814978,119.89497655830495L489.64757709251097,119.92212994751145L492.2246696035242,119.99010093147616L494.80176211453744,121.57479964362581L497.3788546255506,122.9346763339344L499.95594713656385,128.92106710891917L502.5330396475771,132.52272802445654L505.1101321585903,134.76785369590624L507.6872246696035,135.11466781155156L510.26431718061673,135.17620997244904L512.84140969163,135.71391740937415L515.4185022026431,135.52690024683614L517.9955947136564,135.71391740937415L520.5726872246696,136.30188255050524L523.1497797356828,136.62075897292843L525.7268722466961,136.66348470797786L528.3039647577093,136.4291027716368L530.8810572687224,134.9918904335326L533.4581497797357,134.10378780721499L536.0352422907489,131.59815298043534L538.6123348017621,129.46227612170782L541.1894273127754,127.96307000404875L543.7665198237886,127.79458486007726L546.3436123348018,128.01376586593503L548.920704845815,131.39374000375906L551.4977973568282,133.47105619979536L554.0748898678414,137.72601709933392L556.6519823788547,143.9408537792128L559.2290748898679,149.9800820128584L561.8061674008811,152.35434833758958L564.3832599118942,153.18096216279156L566.9603524229075,159.07821540989505" style="fill: none; stroke: darkgray; stroke-width: 2; stroke-dasharray: 4,2;"></path></g></g><path class="foreground" d="" style="display: none; fill: none;"></path></g><g transform="translate(0,0)"><path class="background" d="M0,0h585v425h-585Z" style="fill: none;"></path><g><g class="mark-line role-mark marks"><path d="M0,299.4446933488287L2.577092511013216,293.75421623022663L7.7312775330396475,244.38020738829454L10.308370044052865,221.54610772208503L12.88546255506608,214.94020455999024L15.462555066079295,205.39599022111432L18.039647577092513,199.35993137864753L20.61674008810573,192.45471046878419L23.193832599118945,190.4741188890319L25.77092511013216,185.74045639527458L28.348017621145374,177.6487907576308L30.92511013215859,168.80657813117674L33.502202643171806,158.07208310415675L36.079295154185026,147.4046028085661L38.65638766519824,143.24456639834366L41.23348017621146,142.11250058616858L43.81057268722467,131.37521301167044L46.38766519823789,123.95061342051028L48.9647577092511,114.4769363290958L51.54185022026432,108.97780750095939L54.11894273127753,104.35265492855187L56.69603524229075,103.98921910322315L59.27312775330396,103.73429824308496L61.85022026431718,102.43467231767687L64.42731277533039,100.10777197564947L67.00440528634361,100.79704355553567L69.58149779735683,100.49891770827804L72.15859030837005,106.97341250411266L74.73568281938326,107.40629730648537L77.31277533039648,107.1171441495286L79.8898678414097,106.69710823367775L82.46696035242292,106.14127616141592L85.04405286343612,104.35265492855187L87.62114537444934,103.39422587051989L90.19823788546256,96.22950354568931L92.77533039647578,94.47746421949803L95.35242290748899,94.06394104694586L97.9295154185022,92.08863216019178L100.50660792951543,91.39234035717746L103.08370044052865,90.68432512609365L105.66079295154184,88.3311147199051L108.23788546255506,87.55440843571824L110.81497797356828,86.72733409079048L113.3920704845815,86.99911602869109L115.9691629955947,84.43480277488439L118.54625550660792,79.33514628345762L121.12334801762114,75.56310055780517L123.70044052863436,73.39415230547147L126.27753303964758,68.35188866355418L128.85462555066078,66.97699718503951L131.43171806167402,66.84776536756033L134.00881057268722,63.17315199197076L136.58590308370046,59.95431261710684L139.16299559471366,55.74097691446964L141.74008810572687,50.353201595592886L144.3171806167401,45.066916337973225L146.8942731277533,43.919334049555864L152.04845814977975,37.64842652353394L154.62555066079295,35.2084529527161L157.20264317180616,33.66703151164999L159.7797356828194,32.47099509412653L162.3568281938326,31.719950309999202L164.93392070484583,36.42879218837633L167.51101321585904,38.61435506932217L170.08810572687224,39.29149171602963L172.66519823788548,39.19377629866457L175.24229074889868,39.21970673901554L177.8193832599119,40.736634920844054L180.39647577092512,40.167110336690875L182.97356828193833,40.73504509199474L185.55066079295156,40.73345533161196L188.12775330396477,43.701616984226625L190.70484581497797,42.819808660827505L193.2819383259912,41.8846963502457L195.8590308370044,39.41860286113389L198.43612334801765,38.947583997755196L201.01321585903085,37.80815914706051L203.59030837004406,37.670367107218034L206.1674008810573,33.4001936154655L208.7444933920705,32.91208596321775L211.32158590308367,31.63412305757689L213.89867841409693,30.173723715449604L216.4757709251101,29.25028384612986L219.05286343612337,29.230488702485435L221.62995594713655,29.225832563865833L224.20704845814976,28.04037253334876L226.784140969163,27.474382423868395L229.3612334801762,28.364160877623846L231.9383259911894,28.935983155771776L234.51541850220264,30.094988161962238L237.09251101321584,30.35929596150302L239.66960352422907,30.277768740791554L242.24669603524228,31.614249554560324L244.82378854625549,32.930097061137765L247.40088105726872,33.228555966105326L249.97797356828193,33.03060579451459L252.55506607929516,32.33272451186154L255.13215859030836,32.15336556062853L257.70925110132157,32.259359911378255L260.2863436123348,31.87344338337653L262.86343612334804,32.22399463454576L265.4405286343612,32.240410013991585L268.01762114537445,33.90805313835807L270.5947136563877,35.649070265391636L273.1718061674009,36.090804574526096L275.7488986784141,36.109033181148895L278.3259911894273,35.669853805939766L280.90308370044056,35.08137871032527L283.48017621145374,33.23115059137167L286.057268722467,31.495232693931463L288.6343612334802,29.779351451601944L291.2114537444934,31.613007815792276L293.7885462555066,31.554693159343103L296.36563876651985,28.418782388396046L298.942731277533,26.346250336902855L301.51982378854626,25.471712896657028L304.0969162995595,24.08803038146355L306.6740088105727,19.485624324797637L309.2511013215859,17.186028552511896L311.82819383259914,16.92569993472849L314.4052863436123,15.517379839676549L316.98237885462555,12.90093307721096L319.5594713656388,10.640892944353075L322.13656387665196,10.07468218424275L324.7136563876652,12.771761509920937L327.29074889867843,13.888626825947007L329.86784140969166,13.810348696783894L332.44493392070484,16.509326285468166L335.0220264317181,19.991514890185826L337.5991189427313,24.09815907355411L340.1762114537445,26.66305453285084L342.7533039647577,29.948700333930688L345.33039647577095,31.029076375924785L347.90748898678413,31.390172517825306L350.48458149779736,34.75815622857625L353.0616740088106,38.200891653267384L355.6387665198238,43.04083215325286L358.215859030837,52.594255992303296L360.79295154185024,55.22891844159624L363.3700440528635,54.2050152730404L365.94713656387665,54.16153331839757L368.5242290748899,52.878126068327084L371.1013215859031,51.36755825205551L373.6784140969163,47.35306479850362L376.25550660792953,40.051443040839445L378.83259911894277,37.037887257147915L381.40969162995594,36.25096289888246L383.9867841409692,36.53221356203872L386.5638766519824,35.17561769952902L389.1409691629956,34.801450387497965L391.7180616740088,35.23720777715258L394.29515418502206,35.78228757304972L396.8722466960353,35.96066179565407L399.44933920704847,35.8797291684231L402.0264317180617,35.90064301576837L404.60352422907494,37.01488186202035L407.1806167400881,38.19792313322541L409.75770925110135,38.15935407988738L412.3348017621146,37.43118860466479L414.91189427312776,37.31362702354242L417.488986784141,39.43701664426259L420.0660792951542,39.293020573620836L422.64317180616735,39.1374023419182L425.22026431718064,38.77983963228641L427.79735682819387,40.68579432788111L430.3744493392071,43.558898518277594L432.9515418502202,46.07820134046531L435.5286343612335,44.18020645549775L438.10572687224675,44.283323575160644L440.68281938325987,44.940204559990285L443.2599118942731,44.670387783377926L445.8370044052864,43.128934894265285L448.4140969162995,41.44126722304996L450.99118942731275,41.595536795038896L453.568281938326,42.0573081964875L456.14537444933916,42.086980010057474L458.7224669603524,48.19177283039627L461.2995594713656,47.86634042412041L463.8766519823788,46.7606305499772L466.45374449339204,46.67089933214052L469.03083700440527,44.75006245366473L471.6079295154185,43.6001098325905L474.1850220264317,43.39622039619576L476.7621145374449,37.06234620869456L479.33920704845815,36.317195912974256L481.9162995594713,36.39768083650582L484.49339207048456,35.21255941369842L487.0704845814978,33.75246019285641L489.64757709251097,33.68672828275059L492.2246696035242,33.69329620928015L494.80176211453744,33.09259361688737L497.3788546255506,32.9970724680173L499.95594713656385,32.966145641651465L502.5330396475771,33.82885613091191L505.1101321585903,35.050019100242686L507.6872246696035,35.179720509309476L510.26431718061673,35.31948805408282L512.84140969163,36.49676265087108L515.4185022026431,37.6601265453305L517.9955947136564,38.579847325862715L520.5726872246696,39.300665811498824L523.1497797356828,40.21724109430071L525.7268722466961,40.41529538675816L528.3039647577093,40.21724109430071L530.8810572687224,39.13587991564885L533.4581497797357,37.39341197268279L536.0352422907489,35.54947183019811L538.6123348017621,34.05899716250002L541.1894273127754,32.38974593891297L543.7665198237886,32.150845591280664L546.3436123348018,32.23914703330613L548.920704845815,34.832599457020024L551.4977973568282,34.759508402747606L554.0748898678414,34.85428388731487L556.6519823788547,34.767622488056034L559.2290748898679,35.14964382143138L561.8061674008811,34.98057745613524L564.3832599118942,34.836664317560576L566.9603524229075,32.01125631811099L569.5374449339207,32.792663374346354L572.114537444934,34.51825485445411L574.6916299559472,37.31797448631804L577.2687224669604,42.64025477759724L579.8458149779736,45.204829571042445L582.4229074889868,45.66345214221037L585,56.43739392269179" style="fill: none; stroke: #54a24b; stroke-width: 2; stroke-dasharray: 1,0;"></path></g></g><path class="foreground" d="" style="display: none; fill: none;"></path></g><g transform="translate(0,0)"><path class="background" d="M0,0h585v425h-585Z" style="fill: none;"></path><g><g class="mark-line role-mark marks"><path d="M0,299.4446933488287L2.577092511013216,293.75421623022663L7.7312775330396475,244.38020738829454L10.308370044052865,221.54610772208503L12.88546255506608,214.94020455999024L15.462555066079295,205.39599022111432L18.039647577092513,199.35993137864753L20.61674008810573,192.45471046878419L23.193832599118945,190.4741188890319L25.77092511013216,185.74045639527458L28.348017621145374,177.6487907576308L30.92511013215859,168.80657813117674L33.502202643171806,158.07208310415675L36.079295154185026,147.4046028085661L38.65638766519824,143.24456639834366L41.23348017621146,142.11250058616858L43.81057268722467,131.37521301167044L46.38766519823789,123.96576426454067L48.9647577092511,114.4886572471056L51.54185022026432,108.98790599123208L54.11894273127753,104.36156407085684L56.69603524229075,103.99804095317829L59.27312775330396,103.7430593754298L61.85022026431718,102.443130338326L64.42731277533039,100.10777197564947L67.00440528634361,100.79704355553567L69.58149779735683,100.49891770827804L72.15859030837005,106.97341250411266L74.73568281938326,107.40629730648537L77.31277533039648,107.1171441495286L79.8898678414097,106.69710823367775L82.46696035242292,106.14127616141592L85.04405286343612,104.42398834391152L87.62114537444934,103.50723559082952L90.19823788546256,96.4014682866134L92.77533039647578,94.64828836033901L95.35242290748899,94.23285792885763L97.9295154185022,92.293680594146L100.50660792951543,91.62508478422652L103.08370044052865,90.9312080457062L105.66079295154184,88.71401804973662L108.23788546255506,87.91788244629099L110.81497797356828,87.08829627671263L113.3920704845815,87.36275873777954L115.9691629955947,84.78965737413233L118.54625550660792,79.66683628166155L121.12334801762114,75.99029606967045L123.70044052863436,73.73071294892236L126.27753303964758,68.96839552644443L128.85462555066078,67.570782469486L131.43171806167402,67.43945884837868L134.00881057268722,63.972957302503566L136.58590308370046,60.76590248682103L139.16299559471366,56.5787562898002L141.74008810572687,51.30823315939698L144.3171806167401,45.9516385404654L146.8942731277533,44.83879201989491L152.04845814977975,38.49745937181144L154.62555066079295,36.109033181148845L157.20264317180616,34.54916577687992L159.7797356828194,33.47455729436788L162.3568281938326,32.80035640989817L164.93392070484583,37.47919160706443L167.51101321585904,39.6772354383828L170.08810572687224,40.3334298802444L172.66519823788548,40.14989359980002L175.24229074889868,40.148328839993866L177.8193832599119,41.462339759793736L180.39647577092512,41.12822097904869L182.97356828193833,41.75535649308405L185.55066079295156,41.74881967763264L188.12775330396477,45.111636900418965L190.70484581497797,44.432390388887555L193.2819383259912,43.65685061656665L195.8590308370044,41.227978347852115L198.43612334801765,40.6366091849025L201.01321585903085,39.56771122781852L203.59030837004406,39.42473976833592L206.1674008810573,34.96969649191746L208.7444933920705,34.39486934999412L211.32158590308367,33.20002711790988L213.89867841409693,31.8047293707146L216.4757709251101,30.812157901791448L219.05286343612337,30.883916711490432L221.62995594713655,30.881481923971016L224.20704845814976,29.642545966393243L226.784140969163,29.06787227468052L229.3612334801762,30.022366453830188L231.9383259911894,30.50963350032612L234.51541850220264,31.772290852843614L237.09251101321584,31.927254479277554L239.66960352422907,31.842193884378613L242.24669603524228,33.18706674458514L244.82378854625549,34.577411415983576L247.40088105726872,34.81769879664929L249.97797356828193,34.7243679612918L252.55506607929516,33.82094576710407L255.13215859030836,33.609314871283374L257.70925110132157,33.72089426856576L260.2863436123348,33.51244902047662L262.86343612334804,33.77351914787503L265.4405286343612,33.889558633481336L268.01762114537445,35.5743462577223L270.5947136563877,37.467548782300305L273.1718061674009,38.08381624467268L275.7488986784141,38.09713522409735L278.3259911894273,37.460273881115604L280.90308370044056,37.001947624889766L283.48017621145374,36.83564404673657L286.057268722467,35.81566715271395L288.6343612334802,35.07183166071888L291.2114537444934,36.938778731385874L293.7885462555066,36.88287834572041L296.36563876651985,33.449752752976174L298.942731277533,31.270644482050475L301.51982378854626,28.81607290197834L304.0969162995595,26.853577123965465L306.6740088105727,23.889059705929576L309.2511013215859,21.413436005573207L311.82819383259914,21.124449435775457L314.4052863436123,19.560798599868257L316.98237885462555,16.56049744128274L319.5594713656388,14.035654387631268L322.13656387665196,13.234532061402868L324.7136563876652,13.824150428361165L327.29074889867843,15.011025689745722L329.86784140969166,14.92164204688797L332.44493392070484,17.656914725006985L335.0220264317181,21.037633330835924L337.5991189427313,25.167013346263627L340.1762114537445,27.736164599613723L342.7533039647577,31.136789663150978L345.33039647577095,32.04767468094612L347.90748898678413,32.418924273065066L350.48458149779736,35.581258796544034L353.0616740088106,39.1176156961148L355.6387665198238,44.058236545267384L358.215859030837,53.650472581469955L360.79295154185024,56.617848258202166L363.3700440528635,55.67419689451806L365.94713656387665,55.63847151578687L368.5242290748899,54.66353573664796L371.1013215859031,53.179782749683035L373.6784140969163,48.89497495408696L376.25550660792953,41.582520785044906L378.83259911894277,38.301963632392244L381.40969162995594,37.61188783801913L383.9867841409692,37.897853357353156L386.5638766519824,36.60606069022863L389.1409691629956,36.30873401472246L391.7180616740088,36.89577092345897L394.29515418502206,37.38615166565542L396.8722466960353,37.5505841467174L399.44933920704847,37.41374843223244L402.0264317180617,37.435549935491416L404.60352422907494,38.534885648880085L407.1806167400881,39.85532612718472L409.75770925110135,39.827394285198345L412.3348017621146,39.09783965037353L414.91189427312776,39.132835251457855L417.488986784141,41.21992339768779L420.0660792951542,41.06881654541445L422.64317180616735,40.82418111899831L425.22026431718064,40.37119140186823L427.79735682819387,42.318578544066554L430.3744493392071,45.49125237787405L432.9515418502202,48.09655832743879L435.5286343612335,46.317838356225344L438.10572687224675,46.427112039446214L440.68281938325987,47.258089365436284L443.2599118942731,47.239123566127944L445.8370044052864,45.818209471365925L448.4140969162995,44.2955769463869L450.99118942731275,44.792626029991204L453.568281938326,45.309053550891626L456.14537444933916,45.34145884715997L458.7224669603524,51.48862258569028L461.2995594713656,51.32305549686248L463.8766519823788,50.11056864648576L466.45374449339204,49.93065453733117L469.03083700440527,47.82393593527011L471.6079295154185,46.60001648183473L474.1850220264317,46.378917666293596L476.7621145374449,40.09516643287694L479.33920704845815,39.12674667632252L481.9162995594713,39.26398310133048L484.49339207048456,38.135639291655544L487.0704845814978,36.785613018781184L489.64757709251097,36.868558538348246L492.2246696035242,36.892905517033334L494.80176211453744,36.418890277458004L497.3788546255506,36.51377483948736L499.95594713656385,36.54498422883229L502.5330396475771,37.48210288711028L505.1101321585903,38.39734366048673L507.6872246696035,38.29452243601917L510.26431718061673,38.42869400713676L512.84140969163,39.33126260642223L515.4185022026431,40.28314119682748L517.9955947136564,41.041554634648705L520.5726872246696,41.66883748733199L523.1497797356828,42.845049708622426L525.7268722466961,43.08994043811123L528.3039647577093,42.88041619551729L530.8810572687224,41.95857404688224L533.4581497797357,40.13894167377369L536.0352422907489,38.32727492571246L538.6123348017621,36.75419961491439L541.1894273127754,35.43085814089861L543.7665198237886,35.7322747280287L546.3436123348018,35.849076942424965L548.920704845815,39.839805828044284L551.4977973568282,43.4509372060087L554.0748898678414,49.410188228325445L556.6519823788547,57.443490036417316L559.2290748898679,67.13592520955629L561.8061674008811,69.90939750596178L564.3832599118942,70.51350403454L566.9603524229075,78.34437877772105" style="fill: none; stroke: #54a24b; stroke-width: 2; stroke-dasharray: 4,2;"></path></g></g><path class="foreground" d="" style="display: none; fill: none;"></path></g><g transform="translate(0,0)"><path class="background" d="M0,0h585v425h-585Z" style="fill: none;"></path><g><g class="mark-line role-mark marks"><path d="M10.308370044052865,340L12.88546255506608,365.58754963143843L15.462555066079295,380.55530665117135L18.039647577092513,391.1750992628768L20.61674008810573,358.8571437173903L23.193832599118945,354.9677570197329L25.77092511013216,345.69047711860213L28.348017621145374,345.69047711860213L30.92511013215859,345.69047711860213L33.502202643171806,330.7227200988692L36.079295154185026,323.3149551627627L38.65638766519824,320.10292748716375L41.23348017621146,314.41245036856157L43.81057268722467,311.86557638147895L46.38766519823789,311.86557638147895L48.9647577092511,307.24517508405853L51.54185022026432,314.4124503685616L54.11894273127753,307.24517508405853L56.69603524229075,305.13517046743084L59.27312775330396,307.24517508405853L61.85022026431718,307.24517508405853L64.42731277533039,303.13927732022137L67.00440528634361,301.2457837697734L69.58149779735683,294.5153778557253L72.15859030837005,293.0084326640887L74.73568281938326,294.5153778557253L77.31277533039648,297.7274055313243L79.8898678414097,293.0084326640887L82.46696035242292,293.0084326640887L85.04405286343612,291.5605988236923L87.62114537444934,291.5605988236923L90.19823788546256,297.7274055313243L92.77533039647578,299.4446933488287L95.35242290748899,294.5153778557253L97.9295154185022,303.13927732022137L100.50660792951543,299.4446933488287L103.08370044052865,299.4446933488287L105.66079295154184,303.13927732022137L108.23788546255506,301.2457837697734L110.81497797356828,303.13927732022137L113.3920704845815,299.4446933488287L115.9691629955947,301.2457837697734L118.54625550660792,307.24517508405853L121.12334801762114,317.1481484551307L123.70044052863436,320.10292748716375L126.27753303964758,320.10292748716375L128.85462555066078,311.86557638147895L131.43171806167402,320.10292748716375L134.00881057268722,311.86557638147895L136.58590308370046,311.86557638147895L139.16299559471366,309.4831348754582L141.74008810572687,307.24517508405853L144.3171806167401,314.41245036856157L146.8942731277533,326.83333340121186L152.04845814977975,335.0706845068966L154.62555066079295,352.42088303265024L157.20264317180616,360.65823413833505L159.7797356828194,371.2780267500405L162.3568281938326,386.2457837697734L164.93392070484583,371.2780267500405L167.51101321585904,360.65823413833505L170.08810572687224,352.42088303265024L172.66519823788548,340L175.24229074889868,335.0706845068966L177.8193832599119,330.7227200988692L180.39647577092512,330.7227200988692L182.97356828193833,330.7227200988692L185.55066079295156,335.0706845068966L188.12775330396477,340L190.70484581497797,345.69047711860213L193.2819383259912,345.69047711860213L195.8590308370044,345.69047711860213L198.43612334801765,352.42088303265024L201.01321585903085,345.69047711860213L203.59030837004406,340L206.1674008810573,330.7227200988692L208.7444933920705,335.0706845068966L211.32158590308367,345.69047711860213L213.89867841409693,340L216.4757709251101,340L219.05286343612337,345.69047711860213L221.62995594713655,345.69047711860213L224.20704845814976,345.69047711860213L226.784140969163,345.69047711860213L229.3612334801762,345.69047711860213L231.9383259911894,352.42088303265024L234.51541850220264,352.42088303265024L237.09251101321584,360.65823413833505L239.66960352422907,371.2780267500405L242.24669603524228,386.2457837697734L244.82378854625549,386.2457837697734L247.40088105726872,386.2457837697734L249.97797356828193,386.2457837697734L252.55506607929516,386.2457837697734L255.13215859030836,371.2780267500405L257.70925110132157,371.2780267500405L260.2863436123348,386.2457837697734L262.86343612334804,386.2457837697734L265.4405286343612,386.2457837697734L268.01762114537445,411.8333334012118L270.5947136563877,386.2457837697734L273.1718061674009,386.2457837697734L275.7488986784141,386.2457837697734L278.3259911894273,371.2780267500405L280.90308370044056,360.65823413833505L283.48017621145374,360.65823413833505L286.057268722467,352.42088303265024L288.6343612334802,352.42088303265024L291.2114537444934,352.42088303265024L293.7885462555066,345.69047711860213L296.36563876651985,340L298.942731277533,330.7227200988692L301.51982378854626,323.3149551627627L304.0969162995595,323.3149551627627L306.6740088105727,317.14814845513075L309.2511013215859,314.4124503685616L311.82819383259914,311.86557638147895L314.4052863436123,305.13517046743084L316.98237885462555,311.86557638147895L319.5594713656388,314.4124503685616L322.13656387665196,307.24517508405853L324.7136563876652,309.48313487545823L327.29074889867843,309.48313487545823L329.86784140969166,311.86557638147895L332.44493392070484,311.86557638147895L335.0220264317181,305.13517046743084L337.5991189427313,301.2457837697734L340.1762114537445,299.4446933488287L342.7533039647577,293.0084326640887L345.33039647577095,288.82490073712324L347.90748898678413,287.5295035798006L350.48458149779736,283.89558524401986L353.0616740088106,274.7467055800343L355.6387665198238,272.1398558998859L358.215859030837,270.4989177082781L360.79295154185024,270.4989177082781L363.3700440528635,270.4989177082781L365.94713656387665,264.57986381625955L368.5242290748899,265.9730491922539L371.1013215859031,269.70501547667584L373.6784140969163,269.70501547667584L376.25550660792953,269.70501547667584L378.83259911894277,272.988514676947L381.40969162995594,273.8571437173903L383.9867841409692,273.8571437173903L386.5638766519824,267.42088303265024L389.1409691629956,265.26988448514476L391.7180616740088,263.23735110568475L394.29515418502206,261.9419539483622L396.8722466960353,255.00000000000003L399.44933920704847,253.45089029097312L402.0264317180617,254.4763737600904L404.60352422907494,256.6169751716416L407.1806167400881,257.73569808656913L409.75770925110135,258.8893866976574L412.3348017621146,260.69047711860213L414.91189427312776,265.973049192254L417.488986784141,267.42088303265024L420.0660792951542,270.4989177082781L422.64317180616735,274.7467055800343L425.22026431718064,276.5928418039594L427.79735682819387,277.551727688783L430.3744493392071,279.5476208359924L432.9515418502202,285.0675894252987L435.5286343612335,288.82490073712324L438.10572687224675,287.5295035798006L440.68281938325987,283.89558524401986L443.2599118942731,279.5476208359924L445.8370044052864,281.65762545262015L448.4140969162995,276.5928418039594L450.99118942731275,271.31026973030765L453.568281938326,265.9730491922539L456.14537444933916,263.23735110568475L458.7224669603524,263.23735110568475L461.2995594713656,262.58397066905L463.8766519823788,258.3080356125814L466.45374449339204,258.3080356125814L469.03083700440527,255L471.6079295154185,255.53116068854516L474.1850220264317,252.94863722407888L476.7621145374449,251.96417805734464L479.33920704845815,253.96007120455403L481.9162995594713,257.172098880153L484.49339207048456,260.69047711860213L487.0704845814978,265.26988448514476L489.64757709251097,268.9278282242869L492.2246696035242,273.8571437173903L494.80176211453744,277.551727688783L497.3788546255506,281.65762545262015L499.95594713656385,275.65823413833505L502.5330396475771,272.988514676947L505.1101321585903,272.1398558998859L507.6872246696035,271.31026973030765L510.26431718061673,269.70501547667584L512.84140969163,270.4989177082781L515.4185022026431,264.57986381625955L517.9955947136564,267.42088303265024L520.5726872246696,265.973049192254L523.1497797356828,269.70501547667584L525.7268722466961,270.4989177082781L528.3039647577093,277.551727688783L530.8810572687224,277.551727688783L533.4581497797357,278.53618685551726L536.0352422907489,279.54762083599246L538.6123348017621,285.0675894252987L541.1894273127754,283.89558524401986L543.7665198237886,278.53618685551726L546.3436123348018,273.8571437173904L548.920704845815,271.31026973030765L551.4977973568282,277.551727688783L554.0748898678414,277.551727688783L556.6519823788547,276.5928418039594L559.2290748898679,278.53618685551726L561.8061674008811,286.27802675004057L564.3832599118942,291.5605988236923L566.9603524229075,296.0864673397165L569.5374449339207,294.5153778557253L572.114537444934,296.0864673397165L574.6916299559472,301.2457837697734L577.2687224669604,301.2457837697734L579.8458149779736,299.4446933488287L582.4229074889868,305.1351704674309L585,314.4124503685617" style="fill: none; stroke: #e45756; stroke-width: 2; stroke-dasharray: 1,0;"></path></g></g><path class="foreground" d="" style="display: none; fill: none;"></path></g><g transform="translate(0,0)"><path class="background" d="M0,0h585v425h-585Z" style="fill: none;"></path><g><g class="mark-line role-mark marks"><path d="M10.308370044052865,340L12.88546255506608,365.58754963143843L15.462555066079295,380.55530665117135L18.039647577092513,391.1750992628768L20.61674008810573,358.8571437173903L23.193832599118945,354.9677570197329L25.77092511013216,345.69047711860213L28.348017621145374,345.69047711860213L30.92511013215859,345.69047711860213L33.502202643171806,330.7227200988692L36.079295154185026,323.3149551627627L38.65638766519824,320.10292748716375L41.23348017621146,314.41245036856157L43.81057268722467,311.86557638147895L46.38766519823789,311.86557638147895L48.9647577092511,307.24517508405853L51.54185022026432,314.4124503685616L54.11894273127753,307.24517508405853L56.69603524229075,305.13517046743084L59.27312775330396,307.24517508405853L61.85022026431718,307.24517508405853L64.42731277533039,303.13927732022137L67.00440528634361,301.2457837697734L69.58149779735683,294.5153778557253L72.15859030837005,293.0084326640887L74.73568281938326,294.5153778557253L77.31277533039648,297.7274055313243L79.8898678414097,293.0084326640887L82.46696035242292,293.0084326640887L85.04405286343612,291.5605988236923L87.62114537444934,291.5605988236923L90.19823788546256,297.7274055313243L92.77533039647578,299.4446933488287L95.35242290748899,294.5153778557253L97.9295154185022,303.13927732022137L100.50660792951543,299.4446933488287L103.08370044052865,299.4446933488287L105.66079295154184,303.13927732022137L108.23788546255506,301.2457837697734L110.81497797356828,303.13927732022137L113.3920704845815,299.4446933488287L115.9691629955947,301.2457837697734L118.54625550660792,307.24517508405853L121.12334801762114,317.1481484551307L123.70044052863436,320.10292748716375L126.27753303964758,320.10292748716375L128.85462555066078,311.86557638147895L131.43171806167402,320.10292748716375L134.00881057268722,311.86557638147895L136.58590308370046,311.86557638147895L139.16299559471366,309.4831348754582L141.74008810572687,307.24517508405853L144.3171806167401,314.41245036856157L146.8942731277533,326.83333340121186L152.04845814977975,335.0706845068966L154.62555066079295,352.42088303265024L157.20264317180616,360.65823413833505L159.7797356828194,371.2780267500405L162.3568281938326,386.2457837697734L164.93392070484583,371.2780267500405L167.51101321585904,360.65823413833505L170.08810572687224,352.42088303265024L172.66519823788548,340L175.24229074889868,335.0706845068966L177.8193832599119,330.7227200988692L180.39647577092512,330.7227200988692L182.97356828193833,330.7227200988692L185.55066079295156,335.0706845068966L188.12775330396477,340L190.70484581497797,345.69047711860213L193.2819383259912,345.69047711860213L195.8590308370044,345.69047711860213L198.43612334801765,352.42088303265024L201.01321585903085,345.69047711860213L203.59030837004406,340L206.1674008810573,330.7227200988692L208.7444933920705,335.0706845068966L211.32158590308367,345.69047711860213L213.89867841409693,340L216.4757709251101,340L219.05286343612337,345.69047711860213L221.62995594713655,345.69047711860213L224.20704845814976,345.69047711860213L226.784140969163,345.69047711860213L229.3612334801762,345.69047711860213L231.9383259911894,352.42088303265024L234.51541850220264,352.42088303265024L237.09251101321584,360.65823413833505L239.66960352422907,371.2780267500405L242.24669603524228,386.2457837697734L244.82378854625549,386.2457837697734L247.40088105726872,386.2457837697734L249.97797356828193,386.2457837697734L252.55506607929516,386.2457837697734L255.13215859030836,371.2780267500405L257.70925110132157,371.2780267500405L260.2863436123348,386.2457837697734L262.86343612334804,386.2457837697734L265.4405286343612,386.2457837697734L268.01762114537445,411.8333334012118L270.5947136563877,386.2457837697734L273.1718061674009,386.2457837697734L275.7488986784141,386.2457837697734L278.3259911894273,371.2780267500405L280.90308370044056,360.65823413833505L283.48017621145374,360.65823413833505L286.057268722467,352.42088303265024L288.6343612334802,352.42088303265024L291.2114537444934,352.42088303265024L293.7885462555066,345.69047711860213L296.36563876651985,340L298.942731277533,330.7227200988692L301.51982378854626,323.3149551627627L304.0969162995595,323.3149551627627L306.6740088105727,317.14814845513075L309.2511013215859,314.4124503685616L311.82819383259914,311.86557638147895L314.4052863436123,305.13517046743084L316.98237885462555,311.86557638147895L319.5594713656388,314.4124503685616L322.13656387665196,307.24517508405853L324.7136563876652,309.48313487545823L327.29074889867843,309.48313487545823L329.86784140969166,311.86557638147895L332.44493392070484,311.86557638147895L335.0220264317181,305.13517046743084L337.5991189427313,301.2457837697734L340.1762114537445,299.4446933488287L342.7533039647577,293.0084326640887L345.33039647577095,288.82490073712324L347.90748898678413,287.5295035798006L350.48458149779736,283.89558524401986L353.0616740088106,274.7467055800343L355.6387665198238,272.1398558998859L358.215859030837,270.4989177082781L360.79295154185024,270.4989177082781L363.3700440528635,270.4989177082781L365.94713656387665,264.57986381625955L368.5242290748899,265.9730491922539L371.1013215859031,269.70501547667584L373.6784140969163,269.70501547667584L376.25550660792953,269.70501547667584L378.83259911894277,272.988514676947L381.40969162995594,273.8571437173903L383.9867841409692,273.8571437173903L386.5638766519824,267.42088303265024L389.1409691629956,265.26988448514476L391.7180616740088,263.23735110568475L394.29515418502206,261.9419539483622L396.8722466960353,255.00000000000003L399.44933920704847,253.45089029097312L402.0264317180617,254.4763737600904L404.60352422907494,256.6169751716416L407.1806167400881,257.73569808656913L409.75770925110135,258.8893866976574L412.3348017621146,260.69047711860213L414.91189427312776,265.973049192254L417.488986784141,267.42088303265024L420.0660792951542,270.4989177082781L422.64317180616735,274.7467055800343L425.22026431718064,276.5928418039594L427.79735682819387,277.551727688783L430.3744493392071,279.5476208359924L432.9515418502202,285.0675894252987L435.5286343612335,288.82490073712324L438.10572687224675,287.5295035798006L440.68281938325987,283.89558524401986L443.2599118942731,279.5476208359924L445.8370044052864,281.65762545262015L448.4140969162995,276.5928418039594L450.99118942731275,271.31026973030765L453.568281938326,265.9730491922539L456.14537444933916,263.23735110568475L458.7224669603524,263.23735110568475L461.2995594713656,262.58397066905L463.8766519823788,258.3080356125814L466.45374449339204,258.3080356125814L469.03083700440527,255L471.6079295154185,256.0700758211818L474.1850220264317,253.45089029097312L476.7621145374449,252.94863722407888L479.33920704845815,255L481.9162995594713,258.3080356125814L484.49339207048456,261.9419539483622L487.0704845814978,266.68986843288724L489.64757709251097,269.70501547667584L492.2246696035242,274.7467055800343L494.80176211453744,277.551727688783L497.3788546255506,281.65762545262015L499.95594713656385,276.5928418039594L502.5330396475771,273.8571437173903L505.1101321585903,273.8571437173903L507.6872246696035,272.988514676947L510.26431718061673,271.31026973030765L512.84140969163,272.1398558998859L515.4185022026431,265.9730491922539L517.9955947136564,268.16666659878814L520.5726872246696,266.68986843288724L523.1497797356828,269.70501547667584L525.7268722466961,270.498917708278L528.3039647577093,277.551727688783L530.8810572687224,278.53618685551726L533.4581497797357,279.5476208359924L536.0352422907489,280.5875496314384L538.6123348017621,286.2780267500405L541.1894273127754,285.06758942529865L543.7665198237886,279.5476208359924L546.3436123348018,276.5928418039594L548.920704845815,273.8571437173903L551.4977973568282,281.6576254526201L554.0748898678414,286.2780267500405L556.6519823788547,288.8249007371232L559.2290748898679,293.0084326640886L561.8061674008811,307.24517508405853L564.3832599118942,317.1481484551307L566.9603524229075,345.690477118602" style="fill: none; stroke: #e45756; stroke-width: 2; stroke-dasharray: 4,2;"></path></g></g><path class="foreground" d="" style="display: none; fill: none;"></path></g></g><g class="mark-group role-legend"><g transform="translate(0,-36)"><path class="background" d="M0,0h533v18h-533Z" style="pointer-events: none; fill: none;"></path><g><g class="mark-group role-legend-entry"><g transform="translate(0,0)"><path class="background" d="M0,0h0v0h0Z" style="pointer-events: none; fill: none;"></path><g><g class="mark-group role-scope"><g transform="translate(0,0.25)"><path class="background" d="M0,0h113.689453125v17.5h-113.689453125Z" style="pointer-events: none; fill: none; opacity: 1;"></path><g><g class="mark-symbol role-legend-symbol" style="pointer-events: none;"><path transform="translate(10.5,10.5)" d="M-8.660254037844387,0L8.660254037844387,0" style="fill: none; stroke: #4c78a8; stroke-width: 3; opacity: 1;"></path></g><g class="mark-text role-legend-label" style="pointer-events: none;"><text text-anchor="start" transform="translate(25,14.5)" style="font-family: sans-serif; font-size: 14px; fill: #000; opacity: 1;">Casos (oficial)</text></g></g><path class="foreground" d="" style="pointer-events: none; display: none; fill: none;"></path></g><g transform="translate(126,0.25)"><path class="background" d="M0,0h133.1513671875v17.5h-133.1513671875Z" style="pointer-events: none; fill: none; opacity: 1;"></path><g><g class="mark-symbol role-legend-symbol" style="pointer-events: none;"><path transform="translate(10.5,10.5)" d="M-8.660254037844387,0L8.660254037844387,0" style="fill: none; stroke: darkgray; stroke-width: 3; opacity: 1;"></path></g><g class="mark-text role-legend-label" style="pointer-events: none;"><text text-anchor="start" transform="translate(25,14.5)" style="font-family: sans-serif; font-size: 14px; fill: #000; opacity: 1;">Casos (Bioportal)</text></g></g><path class="foreground" d="" style="pointer-events: none; display: none; fill: none;"></path></g><g transform="translate(272,0.25)"><path class="background" d="M0,0h172.0615234375v17.5h-172.0615234375Z" style="pointer-events: none; fill: none; opacity: 1;"></path><g><g class="mark-symbol role-legend-symbol" style="pointer-events: none;"><path transform="translate(10.5,10.5)" d="M-8.660254037844387,0L8.660254037844387,0" style="fill: none; stroke: #54a24b; stroke-width: 3; opacity: 1;"></path></g><g class="mark-text role-legend-label" style="pointer-events: none;"><text text-anchor="start" transform="translate(25,14.5)" style="font-family: sans-serif; font-size: 14px; fill: #000; opacity: 1;">Descartados (Bioportal)</text></g></g><path class="foreground" d="" style="pointer-events: none; display: none; fill: none;"></path></g><g transform="translate(457,0.25)"><path class="background" d="M0,0h75.572265625v17.5h-75.572265625Z" style="pointer-events: none; fill: none; opacity: 1;"></path><g><g class="mark-symbol role-legend-symbol" style="pointer-events: none;"><path transform="translate(10.5,10.5)" d="M-8.660254037844387,0L8.660254037844387,0" style="fill: none; stroke: #e45756; stroke-width: 3; opacity: 1;"></path></g><g class="mark-text role-legend-label" style="pointer-events: none;"><text text-anchor="start" transform="translate(25,14.5)" style="font-family: sans-serif; font-size: 14px; fill: #000; opacity: 1;">Muertes</text></g></g><path class="foreground" d="" style="pointer-events: none; display: none; fill: none;"></path></g></g></g><path class="foreground" d="" style="pointer-events: none; display: none; fill: none;"></path></g></g></g><path class="foreground" d="" style="pointer-events: none; display: none; fill: none;"></path></g></g><g class="mark-group role-legend"><g transform="translate(450,337)"><path class="background" d="M0,0h117v70h-117Z" style="pointer-events: none; fill: white;"></path><g><g class="mark-group role-legend-entry"><g transform="translate(7.5,26.5)"><path class="background" d="M0,0h0v0h0Z" style="pointer-events: none; fill: none;"></path><g><g class="mark-group role-scope"><g transform="translate(0,0)"><path class="background" d="M0,0h101.0615234375v17h-101.0615234375Z" style="pointer-events: none; fill: none; opacity: 1;"></path><g><g class="mark-symbol role-legend-symbol" style="pointer-events: none;"><path transform="translate(10,10)" d="M-8.660254037844387,0L8.660254037844387,0" style="fill: none; stroke: black; stroke-width: 2; stroke-dasharray: 1,0; opacity: 1;"></path></g><g class="mark-text role-legend-label" style="pointer-events: none;"><text text-anchor="start" transform="translate(24,14)" style="font-family: sans-serif; font-size: 14px; fill: #000; opacity: 1;">oct 26, 2020</text></g></g><path class="foreground" d="" style="pointer-events: none; display: none; fill: none;"></path></g><g transform="translate(0,19)"><path class="background" d="M0,0h101.0615234375v17h-101.0615234375Z" style="pointer-events: none; fill: none; opacity: 1;"></path><g><g class="mark-symbol role-legend-symbol" style="pointer-events: none;"><path transform="translate(10,10)" d="M-8.660254037844387,0L8.660254037844387,0" style="fill: none; stroke: black; stroke-width: 2; stroke-dasharray: 4,2; opacity: 1;"></path></g><g class="mark-text role-legend-label" style="pointer-events: none;"><text text-anchor="start" transform="translate(24,14)" style="font-family: sans-serif; font-size: 14px; fill: #000; opacity: 1;">oct 19, 2020</text></g></g><path class="foreground" d="" style="pointer-events: none; display: none; fill: none;"></path></g></g></g><path class="foreground" d="" style="pointer-events: none; display: none; fill: none;"></path></g></g><g class="mark-text role-legend-title" style="pointer-events: none;"><text text-anchor="start" transform="translate(7.5,18.5)" style="font-family: sans-serif; font-size: 14px; font-weight: bold; fill: #000; opacity: 1;">Datos hasta</text></g></g><path class="foreground" d="" style="pointer-events: none; display: none; fill: none;"></path></g></g></g><path class="foreground" d="" style="display: none; fill: none;"></path></g></g></g></svg>