<svg class="marks" width="646" height="399" viewBox="0 0 646 399" version="1.1" xmlns="http://www.w3.org/2000/svg" xmlns:xlink="http://www.w3.org/1999/xlink"><rect width="646" height="399" style="fill: white;"></rect><g transform="translate(66,5)"><g class="mark-group role-frame root"><g transform="translate(0,0)"><path class="background" d="M0.5,0.5h575v350h-575Z" style="fill: none; stroke: #ddd;"></path><g><g class="mark-group role-axis"><g transform="translate(0.5,350.5)"><path class="background" d="M0,0h0v0h0Z" style="pointer-events: none; fill: none;"></path><g><g class="mark-rule role-axis-grid" style="pointer-events: none;"><line transform="translate(9,-350)" x2="0" y2="350" style="fill: none; stroke: #ddd; stroke-width: 1; opacity: 1;"></line><line transform="translate(31,-350)" x2="0" y2="350" style="fill: none; stroke: #ddd; stroke-width: 1; opacity: 1;"></line><line transform="translate(52,-350)" x2="0" y2="350" style="fill: none; stroke: #ddd; stroke-width: 1; opacity: 1;"></line><line transform="translate(73,-350)" x2="0" y2="350" style="fill: none; stroke: #ddd; stroke-width: 1; opacity: 1;"></line><line transform="translate(95,-350)" x2="0" y2="350" style="fill: none; stroke: #ddd; stroke-width: 1; opacity: 1;"></line><line transform="translate(116,-350)" x2="0" y2="350" style="fill: none; stroke: #ddd; stroke-width: 1; opacity: 1;"></line><line transform="translate(138,-350)" x2="0" y2="350" style="fill: none; stroke: #ddd; stroke-width: 1; opacity: 1;"></line><line transform="translate(159,-350)" x2="0" y2="350" style="fill: none; stroke: #ddd; stroke-width: 1; opacity: 1;"></line><line transform="translate(180,-350)" x2="0" y2="350" style="fill: none; stroke: #ddd; stroke-width: 1; opacity: 1;"></line><line transform="translate(202,-350)" x2="0" y2="350" style="fill: none; stroke: #ddd; stroke-width: 1; opacity: 1;"></line><line transform="translate(223,-350)" x2="0" y2="350" style="fill: none; stroke: #ddd; stroke-width: 1; opacity: 1;"></line><line transform="translate(245,-350)" x2="0" y2="350" style="fill: none; stroke: #ddd; stroke-width: 1; opacity: 1;"></line><line transform="translate(266,-350)" x2="0" y2="350" style="fill: none; stroke: #ddd; stroke-width: 1; opacity: 1;"></line><line transform="translate(288,-350)" x2="0" y2="350" style="fill: none; stroke: #ddd; stroke-width: 1; opacity: 1;"></line><line transform="translate(309,-350)" x2="0" y2="350" style="fill: none; stroke: #ddd; stroke-width: 1; opacity: 1;"></line><line transform="translate(330,-350)" x2="0" y2="350" style="fill: none; stroke: #ddd; stroke-width: 1; opacity: 1;"></line><line transform="translate(352,-350)" x2="0" y2="350" style="fill: none; stroke: #ddd; stroke-width: 1; opacity: 1;"></line><line transform="translate(373,-350)" x2="0" y2="350" style="fill: none; stroke: #ddd; stroke-width: 1; opacity: 1;"></line><line transform="translate(395,-350)" x2="0" y2="350" style="fill: none; stroke: #ddd; stroke-width: 1; opacity: 1;"></line><line transform="translate(416,-350)" x2="0" y2="350" style="fill: none; stroke: #ddd; stroke-width: 1; opacity: 1;"></line><line transform="translate(437,-350)" x2="0" y2="350" style="fill: none; stroke: #ddd; stroke-width: 1; opacity: 1;"></line><line transform="translate(459,-350)" x2="0" y2="350" style="fill: none; stroke: #ddd; stroke-width: 1; opacity: 1;"></line><line transform="translate(480,-350)" x2="0" y2="350" style="fill: none; stroke: #ddd; stroke-width: 1; opacity: 1;"></line><line transform="translate(502,-350)" x2="0" y2="350" style="fill: none; stroke: #ddd; stroke-width: 1; opacity: 1;"></line><line transform="translate(523,-350)" x2="0" y2="350" style="fill: none; stroke: #ddd; stroke-width: 1; opacity: 1;"></line><line transform="translate(544,-350)" x2="0" y2="350" style="fill: none; stroke: #ddd; stroke-width: 1; opacity: 1;"></line><line transform="translate(566,-350)" x2="0" y2="350" style="fill: none; stroke: #ddd; stroke-width: 1; opacity: 1;"></line></g></g><path class="foreground" d="" style="pointer-events: none; display: none; fill: none;"></path></g></g><g class="mark-group role-axis"><g transform="translate(0.5,0.5)"><path class="background" d="M0,0h0v0h0Z" style="pointer-events: none; fill: none;"></path><g><g class="mark-rule role-axis-grid" style="pointer-events: none;"><line transform="translate(0,350)" x2="575" y2="0" style="fill: none; stroke: #ddd; stroke-width: 1; opacity: 1;"></line><line transform="translate(0,296)" x2="575" y2="0" style="fill: none; stroke: #ddd; stroke-width: 1; opacity: 1;"></line><line transform="translate(0,242)" x2="575" y2="0" style="fill: none; stroke: #ddd; stroke-width: 1; opacity: 1;"></line><line transform="translate(0,188)" x2="575" y2="0" style="fill: none; stroke: #ddd; stroke-width: 1; opacity: 1;"></line><line transform="translate(0,135)" x2="575" y2="0" style="fill: none; stroke: #ddd; stroke-width: 1; opacity: 1;"></line><line transform="translate(0,81)" x2="575" y2="0" style="fill: none; stroke: #ddd; stroke-width: 1; opacity: 1;"></line><line transform="translate(0,27)" x2="575" y2="0" style="fill: none; stroke: #ddd; stroke-width: 1; opacity: 1;"></line></g></g><path class="foreground" d="" style="pointer-events: none; display: none; fill: none;"></path></g></g><g class="mark-group role-axis"><g transform="translate(0.5,350.5)"><path class="background" d="M0,0h0v0h0Z" style="pointer-events: none; fill: none;"></path><g><g class="mark-rule role-axis-tick" style="pointer-events: none;"><line transform="translate(9,0)" x2="0" y2="5" style="fill: none; stroke: #888; stroke-width: 1; opacity: 1;"></line><line transform="translate(31,0)" x2="0" y2="5" style="fill: none; stroke: #888; stroke-width: 1; opacity: 1;"></line><line transform="translate(52,0)" x2="0" y2="5" style="fill: none; stroke: #888; stroke-width: 1; opacity: 1;"></line><line transform="translate(73,0)" x2="0" y2="5" style="fill: none; stroke: #888; stroke-width: 1; opacity: 1;"></line><line transform="translate(95,0)" x2="0" y2="5" style="fill: none; stroke: #888; stroke-width: 1; opacity: 1;"></line><line transform="translate(116,0)" x2="0" y2="5" style="fill: none; stroke: #888; stroke-width: 1; opacity: 1;"></line><line transform="translate(138,0)" x2="0" y2="5" style="fill: none; stroke: #888; stroke-width: 1; opacity: 1;"></line><line transform="translate(159,0)" x2="0" y2="5" style="fill: none; stroke: #888; stroke-width: 1; opacity: 1;"></line><line transform="translate(180,0)" x2="0" y2="5" style="fill: none; stroke: #888; stroke-width: 1; opacity: 1;"></line><line transform="translate(202,0)" x2="0" y2="5" style="fill: none; stroke: #888; stroke-width: 1; opacity: 1;"></line><line transform="translate(223,0)" x2="0" y2="5" style="fill: none; stroke: #888; stroke-width: 1; opacity: 1;"></line><line transform="translate(245,0)" x2="0" y2="5" style="fill: none; stroke: #888; stroke-width: 1; opacity: 1;"></line><line transform="translate(266,0)" x2="0" y2="5" style="fill: none; stroke: #888; stroke-width: 1; opacity: 1;"></line><line transform="translate(288,0)" x2="0" y2="5" style="fill: none; stroke: #888; stroke-width: 1; opacity: 1;"></line><line transform="translate(309,0)" x2="0" y2="5" style="fill: none; stroke: #888; stroke-width: 1; opacity: 1;"></line><line transform="translate(330,0)" x2="0" y2="5" style="fill: none; stroke: #888; stroke-width: 1; opacity: 1;"></line><line transform="translate(352,0)" x2="0" y2="5" style="fill: none; stroke: #888; stroke-width: 1; opacity: 1;"></line><line transform="translate(373,0)" x2="0" y2="5" style="fill: none; stroke: #888; stroke-width: 1; opacity: 1;"></line><line transform="translate(395,0)" x2="0" y2="5" style="fill: none; stroke: #888; stroke-width: 1; opacity: 1;"></line><line transform="translate(416,0)" x2="0" y2="5" style="fill: none; stroke: #888; stroke-width: 1; opacity: 1;"></line><line transform="translate(437,0)" x2="0" y2="5" style="fill: none; stroke: #888; stroke-width: 1; opacity: 1;"></line><line transform="translate(459,0)" x2="0" y2="5" style="fill: none; stroke: #888; stroke-width: 1; opacity: 1;"></line><line transform="translate(480,0)" x2="0" y2="5" style="fill: none; stroke: #888; stroke-width: 1; opacity: 1;"></line><line transform="translate(502,0)" x2="0" y2="5" style="fill: none; stroke: #888; stroke-width: 1; opacity: 1;"></line><line transform="translate(523,0)" x2="0" y2="5" style="fill: none; stroke: #888; stroke-width: 1; opacity: 1;"></line><line transform="translate(544,0)" x2="0" y2="5" style="fill: none; stroke: #888; stroke-width: 1; opacity: 1;"></line><line transform="translate(566,0)" x2="0" y2="5" style="fill: none; stroke: #888; stroke-width: 1; opacity: 1;"></line></g><g class="mark-text role-axis-label" style="pointer-events: none;"><text text-anchor="middle" transform="translate(9.175531914893616,18)" style="font-family: sans-serif; font-size: 14px; fill: #000; opacity: 1;">mar 15</text><text text-anchor="middle" transform="translate(30.585106382978722,18)" style="font-family: sans-serif; font-size: 14px; fill: #000; opacity: 0;">mar 22</text><text text-anchor="middle" transform="translate(51.99468085106383,18)" style="font-family: sans-serif; font-size: 14px; fill: #000; opacity: 0;">mar 29</text><text text-anchor="middle" transform="translate(73.40425531914893,18)" style="font-family: sans-serif; font-size: 14px; fill: #000; opacity: 0;">abr 05</text><text text-anchor="middle" transform="translate(94.81382978723404,18)" style="font-family: sans-serif; font-size: 14px; fill: #000; opacity: 1;">abr 12</text><text text-anchor="middle" transform="translate(116.22340425531914,18)" style="font-family: sans-serif; font-size: 14px; fill: #000; opacity: 0;">abr 19</text><text text-anchor="middle" transform="translate(137.63297872340425,18)" style="font-family: sans-serif; font-size: 14px; fill: #000; opacity: 0;">abr 26</text><text text-anchor="middle" transform="translate(159.04255319148936,18)" style="font-family: sans-serif; font-size: 14px; fill: #000; opacity: 0;">may 03</text><text text-anchor="middle" transform="translate(180.45212765957444,18)" style="font-family: sans-serif; font-size: 14px; fill: #000; opacity: 1;">may 10</text><text text-anchor="middle" transform="translate(201.86170212765958,18)" style="font-family: sans-serif; font-size: 14px; fill: #000; opacity: 0;">may 17</text><text text-anchor="middle" transform="translate(223.27127659574467,18)" style="font-family: sans-serif; font-size: 14px; fill: #000; opacity: 0;">may 24</text><text text-anchor="middle" transform="translate(244.68085106382978,18)" style="font-family: sans-serif; font-size: 14px; fill: #000; opacity: 0;">may 31</text><text text-anchor="middle" transform="translate(266.0904255319149,18)" style="font-family: sans-serif; font-size: 14px; fill: #000; opacity: 1;">jun 07</text><text text-anchor="middle" transform="translate(287.5,18)" style="font-family: sans-serif; font-size: 14px; fill: #000; opacity: 0;">jun 14</text><text text-anchor="middle" transform="translate(308.9095744680851,18)" style="font-family: sans-serif; font-size: 14px; fill: #000; opacity: 0;">jun 21</text><text text-anchor="middle" transform="translate(330.3191489361702,18)" style="font-family: sans-serif; font-size: 14px; fill: #000; opacity: 0;">jun 28</text><text text-anchor="middle" transform="translate(351.7287234042553,18)" style="font-family: sans-serif; font-size: 14px; fill: #000; opacity: 1;">jul 05</text><text text-anchor="middle" transform="translate(373.13829787234044,18)" style="font-family: sans-serif; font-size: 14px; fill: #000; opacity: 0;">jul 12</text><text text-anchor="middle" transform="translate(394.54787234042556,18)" style="font-family: sans-serif; font-size: 14px; fill: #000; opacity: 0;">jul 19</text><text text-anchor="middle" transform="translate(415.95744680851067,18)" style="font-family: sans-serif; font-size: 14px; fill: #000; opacity: 0;">jul 26</text><text text-anchor="middle" transform="translate(437.3670212765957,18)" style="font-family: sans-serif; font-size: 14px; fill: #000; opacity: 1;">ago 02</text><text text-anchor="middle" transform="translate(458.77659574468083,18)" style="font-family: sans-serif; font-size: 14px; fill: #000; opacity: 0;">ago 09</text><text text-anchor="middle" transform="translate(480.18617021276594,18)" style="font-family: sans-serif; font-size: 14px; fill: #000; opacity: 0;">ago 16</text><text text-anchor="middle" transform="translate(501.5957446808511,18)" style="font-family: sans-serif; font-size: 14px; fill: #000; opacity: 0;">ago 23</text><text text-anchor="middle" transform="translate(523.0053191489361,18)" style="font-family: sans-serif; font-size: 14px; fill: #000; opacity: 1;">ago 30</text><text text-anchor="middle" transform="translate(544.4148936170212,18)" style="font-family: sans-serif; font-size: 14px; fill: #000; opacity: 0;">sep 06</text><text text-anchor="middle" transform="translate(565.8244680851063,18)" style="font-family: sans-serif; font-size: 14px; fill: #000; opacity: 0;">sep 13</text></g><g class="mark-rule role-axis-domain" style="pointer-events: none;"><line transform="translate(0,0)" x2="575" y2="0" style="fill: none; stroke: #888; stroke-width: 1; opacity: 1;"></line></g><g class="mark-text role-axis-title" style="pointer-events: none;"><text text-anchor="middle" transform="translate(287.5,36)" style="font-family: sans-serif; font-size: 14px; font-weight: bold; fill: #000; opacity: 1;">Fecha de muestra</text></g></g><path class="foreground" d="" style="pointer-events: none; display: none; fill: none;"></path></g></g><g class="mark-group role-axis"><g transform="translate(0.5,0.5)"><path class="background" d="M0,0h0v0h0Z" style="pointer-events: none; fill: none;"></path><g><g class="mark-rule role-axis-tick" style="pointer-events: none;"><line transform="translate(0,350)" x2="-5" y2="0" style="fill: none; stroke: #888; stroke-width: 1; opacity: 1;"></line><line transform="translate(0,296)" x2="-5" y2="0" style="fill: none; stroke: #888; stroke-width: 1; opacity: 1;"></line><line transform="translate(0,242)" x2="-5" y2="0" style="fill: none; stroke: #888; stroke-width: 1; opacity: 1;"></line><line transform="translate(0,188)" x2="-5" y2="0" style="fill: none; stroke: #888; stroke-width: 1; opacity: 1;"></line><line transform="translate(0,135)" x2="-5" y2="0" style="fill: none; stroke: #888; stroke-width: 1; opacity: 1;"></line><line transform="translate(0,81)" x2="-5" y2="0" style="fill: none; stroke: #888; stroke-width: 1; opacity: 1;"></line><line transform="translate(0,27)" x2="-5" y2="0" style="fill: none; stroke: #888; stroke-width: 1; opacity: 1;"></line></g><g class="mark-text role-axis-label" style="pointer-events: none;"><text text-anchor="end" transform="translate(-7,354)" style="font-family: sans-serif; font-size: 14px; fill: #000; opacity: 1;">0</text><text text-anchor="end" transform="translate(-7,300.15384615384613)" style="font-family: sans-serif; font-size: 14px; fill: #000; opacity: 1;">1,000</text><text text-anchor="end" transform="translate(-7,246.3076923076923)" style="font-family: sans-serif; font-size: 14px; fill: #000; opacity: 1;">2,000</text><text text-anchor="end" transform="translate(-7,192.46153846153845)" style="font-family: sans-serif; font-size: 14px; fill: #000; opacity: 1;">3,000</text><text text-anchor="end" transform="translate(-7,138.6153846153846)" style="font-family: sans-serif; font-size: 14px; fill: #000; opacity: 1;">4,000</text><text text-anchor="end" transform="translate(-7,84.76923076923076)" style="font-family: sans-serif; font-size: 14px; fill: #000; opacity: 1;">5,000</text><text text-anchor="end" transform="translate(-7,30.923076923076906)" style="font-family: sans-serif; font-size: 14px; fill: #000; opacity: 1;">6,000</text></g><g class="mark-rule role-axis-domain" style="pointer-events: none;"><line transform="translate(0,350)" x2="0" y2="-350" style="fill: none; stroke: #888; stroke-width: 1; opacity: 1;"></line></g><g class="mark-text role-axis-title" style="pointer-events: none;"><text text-anchor="middle" transform="translate(-46.0341796875,175) rotate(-90) translate(0,-3)" style="font-family: sans-serif; font-size: 14px; font-weight: bold; fill: #000; opacity: 1;">Pruebas (promedio 7 días)</text></g></g><path class="foreground" d="" style="pointer-events: none; display: none; fill: none;"></path></g></g><g class="mark-area role-mark layer_0_marks"><path d="M21.409574468085104,348.0538461538461L24.46808510638298,347.2923076923077L27.52659574468085,346.74615384615385L30.585106382978722,346.5153846153846L33.6436170212766,345.87692307692305L36.702127659574465,344.6846153846154L39.76063829787234,343.23846153846154L42.81914893617021,340.89230769230767L45.87765957446809,338.13076923076926L48.93617021276596,336.7846153846154L51.99468085106383,336.39230769230767L55.0531914893617,332.13846153846157L58.11170212765957,328.65384615384613L61.170212765957444,322.96923076923076L64.22872340425532,319.2230769230769L67.2872340425532,315.4307692307693L70.34574468085106,315.2L73.40425531914893,315.0153846153846L76.4627659574468,313.9923076923077L79.52127659574468,311.8692307692308L82.57978723404256,312.65384615384613L85.63829787234042,312.2923076923077L88.69680851063829,318.33846153846156L91.75531914893618,318.6846153846154L94.81382978723404,318.46153846153845L97.87234042553192,318.0076923076923L100.93085106382979,317.32307692307694L103.98936170212767,316.03846153846155L107.04787234042553,315.2692307692308L110.1063829787234,308.25384615384615L113.16489361702128,306.55384615384617L116.22340425531914,306.05384615384617L119.28191489361701,304.2076923076923L122.34042553191489,303.8384615384615L125.39893617021278,303.73846153846154L128.45744680851064,301.83076923076925L131.5159574468085,301.41538461538465L134.5744680851064,300.74615384615385L137.63297872340425,301.1538461538462L140.6914893617021,297.91538461538465L143.75,290.7153846153846L146.80851063829786,284.2153846153846L149.86702127659575,279.81538461538463L152.9255319148936,270.4923076923077L155.98404255319147,267.2307692307692L159.04255319148936,266.94615384615383L162.10106382978722,258.8L165.1595744680851,250.41538461538465L168.21808510638297,239.39230769230767L171.27659574468083,223.75384615384615L174.33510638297872,204.23846153846154L177.39361702127658,200.87692307692308L180.45212765957444,199.67692307692306L183.51063829787236,191.60769230769233L186.56914893617022,185.2076923076923L189.62765957446808,180.33846153846156L192.68617021276597,179.84615384615384L195.74468085106383,189.76923076923077L198.80319148936172,190.5153846153846L201.86170212765958,191.71538461538464L204.92021276595744,197.75384615384615L207.97872340425533,203.70000000000002L211.0372340425532,206.3769230769231L214.09574468085106,215.1076923076923L217.15425531914894,210.79230769230767L220.2127659574468,211.2L223.27127659574467,211.16153846153844L226.32978723404256,221.6692307692308L229.38829787234042,215.24615384615387L232.44680851063828,213.6769230769231L235.50531914893617,202.7846153846154L238.56382978723403,199.7846153846154L241.62234042553192,195.93076923076924L244.68085106382978,195.30769230769232L247.73936170212764,173.31538461538463L250.79787234042556,167.76153846153844L253.85638297872342,157.6384615384615L256.9148936170213,147.66153846153847L259.97340425531917,141.62307692307695L263.031914893617,142.23846153846154L266.0904255319149,142.1153846153846L269.1489361702128,136.05384615384617L272.2074468085106,133.98461538461538L275.2659574468085,139.66923076923075L278.3244680851064,143.23846153846156L281.3829787234042,150.16923076923075L284.44148936170217,149.42307692307693L287.5,149.03846153846152L290.5585106382979,154.86923076923077L293.6170212765957,161.5923076923077L296.6755319148936,162.8923076923077L299.7340425531915,160.59230769230768L302.79255319148933,154.37692307692305L305.8510638297872,153.8769230769231L308.9095744680851,154.4L311.96808510638294,153.73076923076923L315.02659574468083,155.0923076923077L318.0851063829787,156.68461538461537L321.14361702127655,167.05384615384614L324.20212765957444,177.35384615384615L327.26063829787233,180.5230769230769L330.3191489361702,180.59230769230766L333.37765957446805,178.86923076923077L336.43617021276594,177.14615384615382L339.49468085106383,172.79230769230767L342.55319148936167,165.0153846153846L345.61170212765956,158.23846153846154L348.67021276595744,166.74615384615387L351.7287234042553,166.36153846153843L354.78723404255317,155.10000000000002L357.8457446808511,142.44615384615383L360.9042553191489,132.1769230769231L363.96276595744683,121.4L367.0212765957447,104.07692307692307L370.07978723404256,88.56153846153843L373.13829787234044,85.83076923076923L376.19680851063833,67.63846153846153L379.25531914893617,41.90769230769232L382.31382978723406,16.238461538461546L385.37234042553195,10.39230769230769L388.4308510638298,15.961538461538483L391.48936170212767,25.38461538461541L394.54787234042556,24.86153846153846L397.60638297872345,49.261538461538464L400.6648936170213,78.10000000000002L403.72340425531917,108.48461538461537L406.78191489361706,125.49230769230769L409.8404255319149,143.83076923076922L412.8989361702128,147.7923076923077L415.95744680851067,149.53846153846155L419.0159574468085,162.95384615384614L422.0744680851064,175.76153846153846L425.1329787234043,196.0076923076923L428.1914893617021,226.73846153846154L431.25,234.1846153846154L434.3085106382979,232.02307692307693L437.3670212765957,231.99230769230772L440.4255319148936,230.2153846153846L443.4840425531915,227.01538461538462L446.54255319148933,213.97692307692304L449.6010638297872,189.9923076923077L452.6595744680851,179.17692307692306L455.71808510638294,175.96923076923076L458.77659574468083,177.8846153846154L461.8351063829787,172.99999999999997L464.89361702127655,171.42307692307693L467.95212765957444,172.4153846153846L471.01063829787233,170.9923076923077L474.0691489361702,167.26153846153844L477.12765957446805,164.74615384615385L480.18617021276594,164.74615384615385L483.24468085106383,164.24615384615385L486.30319148936167,169.84615384615384L489.36170212765956,168.96923076923076L492.42021276595744,162.81538461538463L495.4787234042553,163.79230769230767L498.53723404255317,174.21538461538464L501.5957446808511,173.20769230769233L504.6542553191489,175.75384615384615L507.71276595744683,174.9692307692308L510.7712765957447,185.33846153846153L513.8297872340426,201.07692307692307L516.8882978723404,211.9153846153846L519.9468085106383,204.76923076923077L523.0053191489361,205.30769230769232L526.063829787234,203.5307692307692L529.1223404255319,198.36923076923074L532.1808510638298,189.88461538461536L535.2393617021277,179.69999999999996L538.2978723404256,181.4692307692308L541.3563829787234,184.43076923076924L544.4148936170212,184.71538461538464L547.4734042553191,210.47692307692304L550.531914893617,208.6846153846154L553.5904255319149,201.83846153846153L556.6489361702128,200.13076923076926L559.7074468085107,199.33846153846153L562.7659574468084,199.03846153846152L565.8244680851063,198.83846153846153L568.8829787234043,195.86923076923074L571.9414893617021,225.03846153846152L575,261.83846153846156L575,274.0769230769231L571.9414893617021,240.12307692307692L568.8829787234043,211.47692307692307L565.8244680851063,212.93846153846152L562.7659574468084,212.91538461538462L559.7074468085107,212.84615384615384L556.6489361702128,211.06153846153848L553.5904255319149,209.56923076923076L550.531914893617,215.24615384615382L547.4734042553191,217.4153846153846L544.4148936170212,194.25384615384618L541.3563829787234,193.9692307692308L538.2978723404256,191.64615384615388L535.2393617021277,191.0230769230769L532.1808510638298,201.59230769230768L529.1223404255319,210.16153846153844L526.063829787234,215.13846153846154L523.0053191489361,216.14615384615382L519.9468085106383,215.7153846153846L516.8882978723404,221.99999999999997L513.8297872340426,211.25384615384615L510.7712765957447,195.6846153846154L507.71276595744683,184.7769230769231L504.6542553191489,185.34615384615387L501.5957446808511,183.23846153846154L498.53723404255317,184.13076923076923L495.4787234042553,174.09230769230766L492.42021276595744,172.63846153846154L489.36170212765956,177.9692307692308L486.30319148936167,178.76153846153846L483.24468085106383,172.76153846153846L480.18617021276594,172.55384615384614L477.12765957446805,172.59230769230768L474.0691489361702,175L471.01063829787233,178.53846153846155L467.95212765957444,180.14615384615385L464.89361702127655,179.56153846153845L461.8351063829787,181.76923076923077L458.77659574468083,186.26923076923077L455.71808510638294,184.42307692307693L452.6595744680851,187.59230769230766L449.6010638297872,197.74615384615385L446.54255319148933,220.73846153846154L443.4840425531915,232.65384615384616L440.4255319148936,234.6846153846154L437.3670212765957,235.53846153846155L434.3085106382979,235.46923076923076L431.25,237.54615384615386L428.1914893617021,229.77692307692305L425.1329787234043,199.23846153846156L422.0744680851064,178.73076923076925L419.0159574468085,165.56923076923076L415.95744680851067,151.86923076923077L412.8989361702128,150.09230769230768L409.8404255319149,145.96153846153845L406.78191489361706,127.3923076923077L403.72340425531917,109.9846153846154L400.6648936170213,79.68461538461541L397.60638297872345,50.607692307692304L394.54787234042556,26.138461538461495L391.48936170212767,26.9615384615385L388.4308510638298,17.63846153846155L385.37234042553195,11.869230769230759L382.31382978723406,17.746153846153828L379.25531914893617,42.89230769230773L376.19680851063833,68.5L373.13829787234044,86.5846153846154L370.07978723404256,88.95384615384616L367.0212765957447,104.36153846153847L363.96276595744683,121.46923076923076L360.9042553191489,132.02307692307693L357.8457446808511,142.41538461538462L354.78723404255317,155.0846153846154L351.7287234042553,166.16923076923075L348.67021276595744,166.55384615384617L345.61170212765956,158.0923076923077L342.55319148936167,165.0923076923077L339.49468085106383,173.02307692307693L336.43617021276594,177.36923076923077L333.37765957446805,179.07692307692307L330.3191489361702,180.93076923076922L327.26063829787233,180.86153846153846L324.20212765957444,177.65384615384613L321.14361702127655,167.3153846153846L318.0851063829787,156.99230769230766L315.02659574468083,155.42307692307693L311.96808510638294,154.03846153846155L308.9095744680851,154.6923076923077L305.8510638297872,154.14615384615385L302.79255319148933,154.64615384615385L299.7340425531915,160.8923076923077L296.6755319148936,163.10769230769233L293.6170212765957,161.7615384615385L290.5585106382979,155.06923076923078L287.5,149.29230769230767L284.44148936170217,149.6923076923077L281.3829787234042,150.49230769230766L278.3244680851064,143.53076923076927L275.2659574468085,139.93846153846155L272.2074468085106,134.33076923076925L269.1489361702128,136.37692307692308L266.0904255319149,142.39999999999998L263.031914893617,142.5L259.97340425531917,141.84615384615387L256.9148936170213,147.83846153846156L253.85638297872342,157.85384615384615L250.79787234042556,168L247.73936170212764,173.56923076923078L244.68085106382978,195.56923076923078L241.62234042553192,196.2153846153846L238.56382978723403,200.03846153846155L235.50531914893617,203.0923076923077L232.44680851063828,213.9692307692308L229.38829787234042,215.44615384615386L226.32978723404256,221.9230769230769L223.27127659574467,211.43076923076924L220.2127659574468,211.45384615384614L217.15425531914894,211.05384615384614L214.09574468085106,215.4230769230769L211.0372340425532,206.73076923076923L207.97872340425533,204.09230769230768L204.92021276595744,198.13846153846154L201.86170212765958,192.13846153846154L198.80319148936172,190.93846153846152L195.74468085106383,190.2L192.68617021276597,180.27692307692308L189.62765957446808,180.73846153846154L186.56914893617022,185.65384615384616L183.51063829787236,192.06923076923078L180.45212765957444,200.23846153846154L177.39361702127658,201.4461538461538L174.33510638297872,204.83846153846156L171.27659574468083,224.4076923076923L168.21808510638297,240.06923076923076L165.1595744680851,251.06153846153848L162.10106382978722,259.5384615384615L159.04255319148936,267.6153846153846L155.98404255319147,267.88461538461536L152.9255319148936,271.1461538461539L149.86702127659575,280.4L146.80851063829786,284.87692307692305L143.75,291.5230769230769L140.6914893617021,298.7153846153846L137.63297872340425,301.90769230769234L134.5744680851064,301.54615384615386L131.5159574468085,302.26153846153846L128.45744680851064,302.7307692307692L125.39893617021278,304.7307692307692L122.34042553191489,304.7846153846154L119.28191489361701,305.2L116.22340425531914,307.16923076923075L113.16489361702128,307.6461538461538L110.1063829787234,309.2769230769231L107.04787234042553,316.1923076923077L103.98936170212767,316.7846153846154L100.93085106382979,318.05384615384617L97.87234042553192,318.5769230769231L94.81382978723404,318.8538461538461L91.75531914893618,319.0923076923077L88.69680851063829,318.7307692307692L85.63829787234042,312.67692307692306L82.57978723404256,312.95384615384614L79.52127659574468,312L76.4627659574468,314.0615384615385L73.40425531914893,315.0230769230769L70.34574468085106,315.17692307692306L67.2872340425532,315.4307692307693L64.22872340425532,319.17692307692306L61.170212765957444,322.9846153846154L58.11170212765957,328.66923076923075L55.0531914893617,332.13076923076926L51.99468085106383,336.39230769230767L48.93617021276596,336.7692307692308L45.87765957446809,338.0615384615385L42.81914893617021,340.8615384615385L39.76063829787234,343.1538461538462L36.702127659574465,344.62307692307695L33.6436170212766,345.8076923076923L30.585106382978722,346.41538461538465L27.52659574468085,346.65384615384613L24.46808510638298,347.2076923076923L21.409574468085104,347.9384615384615Z" style="fill: red;"></path></g><g class="mark-area role-mark layer_1_marks"><path d="M0,350L3.0585106382978724,350L6.117021276595745,350L9.175531914893616,350L12.23404255319149,350L15.292553191489361,350L18.351063829787233,350L21.409574468085104,347.9384615384615L24.46808510638298,347.2076923076923L27.52659574468085,346.65384615384613L30.585106382978722,346.41538461538465L33.6436170212766,345.8076923076923L36.702127659574465,344.62307692307695L39.76063829787234,343.1538461538462L42.81914893617021,340.8615384615385L45.87765957446809,338.0615384615385L48.93617021276596,336.7692307692308L51.99468085106383,336.39230769230767L55.0531914893617,332.13076923076926L58.11170212765957,328.66923076923075L61.170212765957444,322.9846153846154L64.22872340425532,319.17692307692306L67.2872340425532,315.4307692307693L70.34574468085106,315.17692307692306L73.40425531914893,315.0230769230769L76.4627659574468,314.0615384615385L79.52127659574468,312L82.57978723404256,312.95384615384614L85.63829787234042,312.67692307692306L88.69680851063829,318.7307692307692L91.75531914893618,319.0923076923077L94.81382978723404,318.8538461538461L97.87234042553192,318.5769230769231L100.93085106382979,318.05384615384617L103.98936170212767,316.7846153846154L107.04787234042553,316.1923076923077L110.1063829787234,309.2769230769231L113.16489361702128,307.6461538461538L116.22340425531914,307.16923076923075L119.28191489361701,305.2L122.34042553191489,304.7846153846154L125.39893617021278,304.7307692307692L128.45744680851064,302.7307692307692L131.5159574468085,302.26153846153846L134.5744680851064,301.54615384615386L137.63297872340425,301.90769230769234L140.6914893617021,298.7153846153846L143.75,291.5230769230769L146.80851063829786,284.87692307692305L149.86702127659575,280.4L152.9255319148936,271.1461538461539L155.98404255319147,267.88461538461536L159.04255319148936,267.6153846153846L162.10106382978722,259.5384615384615L165.1595744680851,251.06153846153848L168.21808510638297,240.06923076923076L171.27659574468083,224.4076923076923L174.33510638297872,204.83846153846156L177.39361702127658,201.4461538461538L180.45212765957444,200.23846153846154L183.51063829787236,192.06923076923078L186.56914893617022,185.65384615384616L189.62765957446808,180.73846153846154L192.68617021276597,180.27692307692308L195.74468085106383,190.2L198.80319148936172,190.93846153846152L201.86170212765958,192.13846153846154L204.92021276595744,198.13846153846154L207.97872340425533,204.09230769230768L211.0372340425532,206.73076923076923L214.09574468085106,215.4230769230769L217.15425531914894,211.05384615384614L220.2127659574468,211.45384615384614L223.27127659574467,211.43076923076924L226.32978723404256,221.9230769230769L229.38829787234042,215.44615384615386L232.44680851063828,213.9692307692308L235.50531914893617,203.0923076923077L238.56382978723403,200.03846153846155L241.62234042553192,196.2153846153846L244.68085106382978,195.56923076923078L247.73936170212764,173.56923076923078L250.79787234042556,168L253.85638297872342,157.85384615384615L256.9148936170213,147.83846153846156L259.97340425531917,141.84615384615387L263.031914893617,142.5L266.0904255319149,142.39999999999998L269.1489361702128,136.37692307692308L272.2074468085106,134.33076923076925L275.2659574468085,139.93846153846155L278.3244680851064,143.53076923076927L281.3829787234042,150.49230769230766L284.44148936170217,149.6923076923077L287.5,149.29230769230767L290.5585106382979,155.06923076923078L293.6170212765957,161.7615384615385L296.6755319148936,163.10769230769233L299.7340425531915,160.8923076923077L302.79255319148933,154.64615384615385L305.8510638297872,154.14615384615385L308.9095744680851,154.6923076923077L311.96808510638294,154.03846153846155L315.02659574468083,155.42307692307693L318.0851063829787,156.99230769230766L321.14361702127655,167.3153846153846L324.20212765957444,177.65384615384613L327.26063829787233,180.86153846153846L330.3191489361702,180.93076923076922L333.37765957446805,179.07692307692307L336.43617021276594,177.36923076923077L339.49468085106383,173.02307692307693L342.55319148936167,165.0923076923077L345.61170212765956,158.0923076923077L348.67021276595744,166.55384615384617L351.7287234042553,166.16923076923075L354.78723404255317,155.0846153846154L357.8457446808511,142.41538461538462L360.9042553191489,132.02307692307693L363.96276595744683,121.46923076923076L367.0212765957447,104.36153846153847L370.07978723404256,88.95384615384616L373.13829787234044,86.5846153846154L376.19680851063833,68.5L379.25531914893617,42.89230769230773L382.31382978723406,17.746153846153828L385.37234042553195,11.869230769230759L388.4308510638298,17.63846153846155L391.48936170212767,26.9615384615385L394.54787234042556,26.138461538461495L397.60638297872345,50.607692307692304L400.6648936170213,79.68461538461541L403.72340425531917,109.9846153846154L406.78191489361706,127.3923076923077L409.8404255319149,145.96153846153845L412.8989361702128,150.09230769230768L415.95744680851067,151.86923076923077L419.0159574468085,165.56923076923076L422.0744680851064,178.73076923076925L425.1329787234043,199.23846153846156L428.1914893617021,229.77692307692305L431.25,237.54615384615386L434.3085106382979,235.46923076923076L437.3670212765957,235.53846153846155L440.4255319148936,234.6846153846154L443.4840425531915,232.65384615384616L446.54255319148933,220.73846153846154L449.6010638297872,197.74615384615385L452.6595744680851,187.59230769230766L455.71808510638294,184.42307692307693L458.77659574468083,186.26923076923077L461.8351063829787,181.76923076923077L464.89361702127655,179.56153846153845L467.95212765957444,180.14615384615385L471.01063829787233,178.53846153846155L474.0691489361702,175L477.12765957446805,172.59230769230768L480.18617021276594,172.55384615384614L483.24468085106383,172.76153846153846L486.30319148936167,178.76153846153846L489.36170212765956,177.9692307692308L492.42021276595744,172.63846153846154L495.4787234042553,174.09230769230766L498.53723404255317,184.13076923076923L501.5957446808511,183.23846153846154L504.6542553191489,185.34615384615387L507.71276595744683,184.7769230769231L510.7712765957447,195.6846153846154L513.8297872340426,211.25384615384615L516.8882978723404,221.99999999999997L519.9468085106383,215.7153846153846L523.0053191489361,216.14615384615382L526.063829787234,215.13846153846154L529.1223404255319,210.16153846153844L532.1808510638298,201.59230769230768L535.2393617021277,191.0230769230769L538.2978723404256,191.64615384615388L541.3563829787234,193.9692307692308L544.4148936170212,194.25384615384618L547.4734042553191,217.4153846153846L550.531914893617,215.24615384615382L553.5904255319149,209.56923076923076L556.6489361702128,211.06153846153848L559.7074468085107,212.84615384615384L562.7659574468084,212.91538461538462L565.8244680851063,212.93846153846152L568.8829787234043,211.47692307692307L571.9414893617021,240.12307692307692L575,274.0769230769231L575,350L571.9414893617021,350L568.8829787234043,350L565.8244680851063,350L562.7659574468084,350L559.7074468085107,350L556.6489361702128,350L553.5904255319149,350L550.531914893617,350L547.4734042553191,350L544.4148936170212,350L541.3563829787234,350L538.2978723404256,350L535.2393617021277,350L532.1808510638298,350L529.1223404255319,350L526.063829787234,350L523.0053191489361,350L519.9468085106383,350L516.8882978723404,350L513.8297872340426,350L510.7712765957447,350L507.71276595744683,350L504.6542553191489,350L501.5957446808511,350L498.53723404255317,350L495.4787234042553,350L492.42021276595744,350L489.36170212765956,350L486.30319148936167,350L483.24468085106383,350L480.18617021276594,350L477.12765957446805,350L474.0691489361702,350L471.01063829787233,350L467.95212765957444,350L464.89361702127655,350L461.8351063829787,350L458.77659574468083,350L455.71808510638294,350L452.6595744680851,350L449.6010638297872,350L446.54255319148933,350L443.4840425531915,350L440.4255319148936,350L437.3670212765957,350L434.3085106382979,350L431.25,350L428.1914893617021,350L425.1329787234043,350L422.0744680851064,350L419.0159574468085,350L415.95744680851067,350L412.8989361702128,350L409.8404255319149,350L406.78191489361706,350L403.72340425531917,350L400.6648936170213,350L397.60638297872345,350L394.54787234042556,350L391.48936170212767,350L388.4308510638298,350L385.37234042553195,350L382.31382978723406,350L379.25531914893617,350L376.19680851063833,350L373.13829787234044,350L370.07978723404256,350L367.0212765957447,350L363.96276595744683,350L360.9042553191489,350L357.8457446808511,350L354.78723404255317,350L351.7287234042553,350L348.67021276595744,350L345.61170212765956,350L342.55319148936167,350L339.49468085106383,350L336.43617021276594,350L333.37765957446805,350L330.3191489361702,350L327.26063829787233,350L324.20212765957444,350L321.14361702127655,350L318.0851063829787,350L315.02659574468083,350L311.96808510638294,350L308.9095744680851,350L305.8510638297872,350L302.79255319148933,350L299.7340425531915,350L296.6755319148936,350L293.6170212765957,350L290.5585106382979,350L287.5,350L284.44148936170217,350L281.3829787234042,350L278.3244680851064,350L275.2659574468085,350L272.2074468085106,350L269.1489361702128,350L266.0904255319149,350L263.031914893617,350L259.97340425531917,350L256.9148936170213,350L253.85638297872342,350L250.79787234042556,350L247.73936170212764,350L244.68085106382978,350L241.62234042553192,350L238.56382978723403,350L235.50531914893617,350L232.44680851063828,350L229.38829787234042,350L226.32978723404256,350L223.27127659574467,350L220.2127659574468,350L217.15425531914894,350L214.09574468085106,350L211.0372340425532,350L207.97872340425533,350L204.92021276595744,350L201.86170212765958,350L198.80319148936172,350L195.74468085106383,350L192.68617021276597,350L189.62765957446808,350L186.56914893617022,350L183.51063829787236,350L180.45212765957444,350L177.39361702127658,350L174.33510638297872,350L171.27659574468083,350L168.21808510638297,350L165.1595744680851,350L162.10106382978722,350L159.04255319148936,350L155.98404255319147,350L152.9255319148936,350L149.86702127659575,350L146.80851063829786,350L143.75,350L140.6914893617021,350L137.63297872340425,350L134.5744680851064,350L131.5159574468085,350L128.45744680851064,350L125.39893617021278,350L122.34042553191489,350L119.28191489361701,350L116.22340425531914,350L113.16489361702128,350L110.1063829787234,350L107.04787234042553,350L103.98936170212767,350L100.93085106382979,350L97.87234042553192,350L94.81382978723404,350L91.75531914893618,350L88.69680851063829,350L85.63829787234042,350L82.57978723404256,350L79.52127659574468,350L76.4627659574468,350L73.40425531914893,350L70.34574468085106,350L67.2872340425532,350L64.22872340425532,350L61.170212765957444,350L58.11170212765957,350L55.0531914893617,350L51.99468085106383,350L48.93617021276596,350L45.87765957446809,350L42.81914893617021,350L39.76063829787234,350L36.702127659574465,350L33.6436170212766,350L30.585106382978722,350L27.52659574468085,350L24.46808510638298,350L21.409574468085104,350L18.351063829787233,350L15.292553191489361,350L12.23404255319149,350L9.175531914893616,350L6.117021276595745,350L3.0585106382978724,350L0,350Z" style="fill: lightgrey;"></path></g></g><path class="foreground" d="" style="display: none; fill: none;"></path></g></g></g></svg>