<svg class="marks" width="655" height="344" viewBox="0 0 655 344" version="1.1" xmlns="http://www.w3.org/2000/svg" xmlns:xlink="http://www.w3.org/1999/xlink"><rect width="655" height="344" style="fill: white;"></rect><defs><clipPath id="clip1"><rect x="0" y="0" width="525" height="280"></rect></clipPath><clipPath id="clip2"><rect x="0" y="0" width="525" height="280"></rect></clipPath><clipPath id="clip3"><rect x="0" y="0" width="525" height="280"></rect></clipPath><clipPath id="clip4"><rect x="0" y="0" width="525" height="280"></rect></clipPath><clipPath id="clip5"><rect x="0" y="0" width="525" height="280"></rect></clipPath></defs><g transform="translate(81,20)"><g class="mark-group role-frame root"><g transform="translate(0,0)"><path class="background" d="M0.5,0.5h525v280h-525Z" style="fill: none; stroke: #ddd;"></path><g><g class="mark-group role-axis"><g transform="translate(0.5,280.5)"><path class="background" d="M0,0h0v0h0Z" style="pointer-events: none; fill: none;"></path><g><g class="mark-rule role-axis-grid" style="pointer-events: none;"><line transform="translate(0,-280)" x2="0" y2="280" style="fill: none; stroke: #ddd; stroke-width: 1; opacity: 1;"></line><line transform="translate(35,-280)" x2="0" y2="280" style="fill: none; stroke: #ddd; stroke-width: 1; opacity: 1;"></line><line transform="translate(70,-280)" x2="0" y2="280" style="fill: none; stroke: #ddd; stroke-width: 1; opacity: 1;"></line><line transform="translate(105,-280)" x2="0" y2="280" style="fill: none; stroke: #ddd; stroke-width: 1; opacity: 1;"></line><line transform="translate(140,-280)" x2="0" y2="280" style="fill: none; stroke: #ddd; stroke-width: 1; opacity: 1;"></line><line transform="translate(175,-280)" x2="0" y2="280" style="fill: none; stroke: #ddd; stroke-width: 1; opacity: 1;"></line><line transform="translate(210,-280)" x2="0" y2="280" style="fill: none; stroke: #ddd; stroke-width: 1; opacity: 1;"></line><line transform="translate(245,-280)" x2="0" y2="280" style="fill: none; stroke: #ddd; stroke-width: 1; opacity: 1;"></line><line transform="translate(280,-280)" x2="0" y2="280" style="fill: none; stroke: #ddd; stroke-width: 1; opacity: 1;"></line><line transform="translate(315,-280)" x2="0" y2="280" style="fill: none; stroke: #ddd; stroke-width: 1; opacity: 1;"></line><line transform="translate(350,-280)" x2="0" y2="280" style="fill: none; stroke: #ddd; stroke-width: 1; opacity: 1;"></line><line transform="translate(385,-280)" x2="0" y2="280" style="fill: none; stroke: #ddd; stroke-width: 1; opacity: 1;"></line><line transform="translate(420,-280)" x2="0" y2="280" style="fill: none; stroke: #ddd; stroke-width: 1; opacity: 1;"></line><line transform="translate(455,-280)" x2="0" y2="280" style="fill: none; stroke: #ddd; stroke-width: 1; opacity: 1;"></line><line transform="translate(490,-280)" x2="0" y2="280" style="fill: none; stroke: #ddd; stroke-width: 1; opacity: 1;"></line><line transform="translate(525,-280)" x2="0" y2="280" style="fill: none; stroke: #ddd; stroke-width: 1; opacity: 1;"></line></g></g><path class="foreground" d="" style="pointer-events: none; display: none; fill: none;"></path></g></g><g class="mark-group role-axis"><g transform="translate(0.5,0.5)"><path class="background" d="M0,0h0v0h0Z" style="pointer-events: none; fill: none;"></path><g><g class="mark-rule role-axis-grid" style="pointer-events: none;"><line transform="translate(0,280)" x2="525" y2="0" style="fill: none; stroke: #ddd; stroke-width: 1; opacity: 1;"></line><line transform="translate(0,245)" x2="525" y2="0" style="fill: none; stroke: #ddd; stroke-width: 1; opacity: 1;"></line><line transform="translate(0,210)" x2="525" y2="0" style="fill: none; stroke: #ddd; stroke-width: 1; opacity: 1;"></line><line transform="translate(0,175)" x2="525" y2="0" style="fill: none; stroke: #ddd; stroke-width: 1; opacity: 1;"></line><line transform="translate(0,140)" x2="525" y2="0" style="fill: none; stroke: #ddd; stroke-width: 1; opacity: 1;"></line><line transform="translate(0,105)" x2="525" y2="0" style="fill: none; stroke: #ddd; stroke-width: 1; opacity: 1;"></line><line transform="translate(0,70)" x2="525" y2="0" style="fill: none; stroke: #ddd; stroke-width: 1; opacity: 1;"></line><line transform="translate(0,35)" x2="525" y2="0" style="fill: none; stroke: #ddd; stroke-width: 1; opacity: 1;"></line><line transform="translate(0,0)" x2="525" y2="0" style="fill: none; stroke: #ddd; stroke-width: 1; opacity: 1;"></line></g></g><path class="foreground" d="" style="pointer-events: none; display: none; fill: none;"></path></g></g><g class="mark-group role-axis"><g transform="translate(0.5,280.5)"><path class="background" d="M0,0h0v0h0Z" style="pointer-events: none; fill: none;"></path><g><g class="mark-rule role-axis-tick" style="pointer-events: none;"><line transform="translate(0,0)" x2="0" y2="5" style="fill: none; stroke: #888; stroke-width: 1; opacity: 1;"></line><line transform="translate(35,0)" x2="0" y2="5" style="fill: none; stroke: #888; stroke-width: 1; opacity: 1;"></line><line transform="translate(70,0)" x2="0" y2="5" style="fill: none; stroke: #888; stroke-width: 1; opacity: 1;"></line><line transform="translate(105,0)" x2="0" y2="5" style="fill: none; stroke: #888; stroke-width: 1; opacity: 1;"></line><line transform="translate(140,0)" x2="0" y2="5" style="fill: none; stroke: #888; stroke-width: 1; opacity: 1;"></line><line transform="translate(175,0)" x2="0" y2="5" style="fill: none; stroke: #888; stroke-width: 1; opacity: 1;"></line><line transform="translate(210,0)" x2="0" y2="5" style="fill: none; stroke: #888; stroke-width: 1; opacity: 1;"></line><line transform="translate(245,0)" x2="0" y2="5" style="fill: none; stroke: #888; stroke-width: 1; opacity: 1;"></line><line transform="translate(280,0)" x2="0" y2="5" style="fill: none; stroke: #888; stroke-width: 1; opacity: 1;"></line><line transform="translate(315,0)" x2="0" y2="5" style="fill: none; stroke: #888; stroke-width: 1; opacity: 1;"></line><line transform="translate(350,0)" x2="0" y2="5" style="fill: none; stroke: #888; stroke-width: 1; opacity: 1;"></line><line transform="translate(385,0)" x2="0" y2="5" style="fill: none; stroke: #888; stroke-width: 1; opacity: 1;"></line><line transform="translate(420,0)" x2="0" y2="5" style="fill: none; stroke: #888; stroke-width: 1; opacity: 1;"></line><line transform="translate(455,0)" x2="0" y2="5" style="fill: none; stroke: #888; stroke-width: 1; opacity: 1;"></line><line transform="translate(490,0)" x2="0" y2="5" style="fill: none; stroke: #888; stroke-width: 1; opacity: 1;"></line><line transform="translate(525,0)" x2="0" y2="5" style="fill: none; stroke: #888; stroke-width: 1; opacity: 1;"></line></g><g class="mark-text role-axis-label" style="pointer-events: none;"><text text-anchor="start" transform="translate(0,18)" style="font-family: sans-serif; font-size: 14px; fill: #000; opacity: 1;">0</text><text text-anchor="middle" transform="translate(35,18)" style="font-family: sans-serif; font-size: 14px; fill: #000; opacity: 0;">200</text><text text-anchor="middle" transform="translate(70,18)" style="font-family: sans-serif; font-size: 14px; fill: #000; opacity: 1;">400</text><text text-anchor="middle" transform="translate(105,18)" style="font-family: sans-serif; font-size: 14px; fill: #000; opacity: 0;">600</text><text text-anchor="middle" transform="translate(140,18)" style="font-family: sans-serif; font-size: 14px; fill: #000; opacity: 1;">800</text><text text-anchor="middle" transform="translate(175,18)" style="font-family: sans-serif; font-size: 14px; fill: #000; opacity: 0;">1,000</text><text text-anchor="middle" transform="translate(210,18)" style="font-family: sans-serif; font-size: 14px; fill: #000; opacity: 1;">1,200</text><text text-anchor="middle" transform="translate(245,18)" style="font-family: sans-serif; font-size: 14px; fill: #000; opacity: 0;">1,400</text><text text-anchor="middle" transform="translate(280,18)" style="font-family: sans-serif; font-size: 14px; fill: #000; opacity: 1;">1,600</text><text text-anchor="middle" transform="translate(315,18)" style="font-family: sans-serif; font-size: 14px; fill: #000; opacity: 0;">1,800</text><text text-anchor="middle" transform="translate(350,18)" style="font-family: sans-serif; font-size: 14px; fill: #000; opacity: 1;">2,000</text><text text-anchor="middle" transform="translate(385,18)" style="font-family: sans-serif; font-size: 14px; fill: #000; opacity: 0;">2,200</text><text text-anchor="middle" transform="translate(420,18)" style="font-family: sans-serif; font-size: 14px; fill: #000; opacity: 1;">2,400</text><text text-anchor="middle" transform="translate(455,18)" style="font-family: sans-serif; font-size: 14px; fill: #000; opacity: 0;">2,600</text><text text-anchor="middle" transform="translate(490,18)" style="font-family: sans-serif; font-size: 14px; fill: #000; opacity: 1;">2,800</text><text text-anchor="end" transform="translate(525,18)" style="font-family: sans-serif; font-size: 14px; fill: #000; opacity: 0;">3,000</text></g><g class="mark-rule role-axis-domain" style="pointer-events: none;"><line transform="translate(0,0)" x2="525" y2="0" style="fill: none; stroke: #888; stroke-width: 1; opacity: 1;"></line></g><g class="mark-text role-axis-title" style="pointer-events: none;"><text text-anchor="middle" transform="translate(262.5,36)" style="font-family: sans-serif; font-size: 14px; font-weight: bold; fill: #000; opacity: 1;">Total de casos por millón de habitantes</text></g></g><path class="foreground" d="" style="pointer-events: none; display: none; fill: none;"></path></g></g><g class="mark-group role-axis"><g transform="translate(0.5,0.5)"><path class="background" d="M0,0h0v0h0Z" style="pointer-events: none; fill: none;"></path><g><g class="mark-rule role-axis-tick" style="pointer-events: none;"><line transform="translate(0,280)" x2="-5" y2="0" style="fill: none; stroke: #888; stroke-width: 1; opacity: 1;"></line><line transform="translate(0,245)" x2="-5" y2="0" style="fill: none; stroke: #888; stroke-width: 1; opacity: 1;"></line><line transform="translate(0,210)" x2="-5" y2="0" style="fill: none; stroke: #888; stroke-width: 1; opacity: 1;"></line><line transform="translate(0,175)" x2="-5" y2="0" style="fill: none; stroke: #888; stroke-width: 1; opacity: 1;"></line><line transform="translate(0,140)" x2="-5" y2="0" style="fill: none; stroke: #888; stroke-width: 1; opacity: 1;"></line><line transform="translate(0,105)" x2="-5" y2="0" style="fill: none; stroke: #888; stroke-width: 1; opacity: 1;"></line><line transform="translate(0,70)" x2="-5" y2="0" style="fill: none; stroke: #888; stroke-width: 1; opacity: 1;"></line><line transform="translate(0,35)" x2="-5" y2="0" style="fill: none; stroke: #888; stroke-width: 1; opacity: 1;"></line><line transform="translate(0,0)" x2="-5" y2="0" style="fill: none; stroke: #888; stroke-width: 1; opacity: 1;"></line></g><g class="mark-text role-axis-label" style="pointer-events: none;"><text text-anchor="end" transform="translate(-7,284)" style="font-family: sans-serif; font-size: 14px; fill: #000; opacity: 1;">0</text><text text-anchor="end" transform="translate(-7,249)" style="font-family: sans-serif; font-size: 14px; fill: #000; opacity: 1;">20,000</text><text text-anchor="end" transform="translate(-7,214)" style="font-family: sans-serif; font-size: 14px; fill: #000; opacity: 1;">40,000</text><text text-anchor="end" transform="translate(-7,179)" style="font-family: sans-serif; font-size: 14px; fill: #000; opacity: 1;">60,000</text><text text-anchor="end" transform="translate(-7,144)" style="font-family: sans-serif; font-size: 14px; fill: #000; opacity: 1;">80,000</text><text text-anchor="end" transform="translate(-7,109)" style="font-family: sans-serif; font-size: 14px; fill: #000; opacity: 1;">100,000</text><text text-anchor="end" transform="translate(-7,74)" style="font-family: sans-serif; font-size: 14px; fill: #000; opacity: 1;">120,000</text><text text-anchor="end" transform="translate(-7,39)" style="font-family: sans-serif; font-size: 14px; fill: #000; opacity: 1;">140,000</text><text text-anchor="end" transform="translate(-7,4)" style="font-family: sans-serif; font-size: 14px; fill: #000; opacity: 1;">160,000</text></g><g class="mark-rule role-axis-domain" style="pointer-events: none;"><line transform="translate(0,280)" x2="0" y2="-280" style="fill: none; stroke: #888; stroke-width: 1; opacity: 1;"></line></g><g class="mark-text role-axis-title" style="pointer-events: none;"><text text-anchor="middle" transform="translate(-61.6064453125,140) rotate(-90) translate(0,-3)" style="font-family: sans-serif; font-size: 14px; font-weight: bold; fill: #000; opacity: 1;">Total de pruebas por millón de habitantes</text></g></g><path class="foreground" d="" style="pointer-events: none; display: none; fill: none;"></path></g></g><g class="mark-group role-scope layer_0_pathgroup"><g transform="translate(0,0)"><path class="background" d="M0,0h525v280h-525Z" style="fill: none;"></path><g><g class="mark-line role-mark layer_0_marks" clip-path="url(#clip1)"><path d="M0,280L140,0" style="fill: none; stroke: grey; stroke-width: 0.5; stroke-dasharray: 6,4;"></path></g></g><path class="foreground" d="" style="display: none; fill: none;"></path></g><g transform="translate(0,0)"><path class="background" d="M0,0h525v280h-525Z" style="fill: none;"></path><g><g class="mark-line role-mark layer_0_marks" clip-path="url(#clip2)"><path d="M0,280L280,0" style="fill: none; stroke: grey; stroke-width: 0.5; stroke-dasharray: 6,4;"></path></g></g><path class="foreground" d="" style="display: none; fill: none;"></path></g><g transform="translate(0,0)"><path class="background" d="M0,0h525v280h-525Z" style="fill: none;"></path><g><g class="mark-line role-mark layer_0_marks" clip-path="url(#clip3)"><path d="M0,280L525,17.5" style="fill: none; stroke: grey; stroke-width: 0.5; stroke-dasharray: 6,4;"></path></g></g><path class="foreground" d="" style="display: none; fill: none;"></path></g><g transform="translate(0,0)"><path class="background" d="M0,0h525v280h-525Z" style="fill: none;"></path><g><g class="mark-line role-mark layer_0_marks" clip-path="url(#clip4)"><path d="M0,280L525,175" style="fill: none; stroke: grey; stroke-width: 0.5; stroke-dasharray: 6,4;"></path></g></g><path class="foreground" d="" style="display: none; fill: none;"></path></g><g transform="translate(0,0)"><path class="background" d="M0,0h525v280h-525Z" style="fill: none;"></path><g><g class="mark-line role-mark layer_0_marks" clip-path="url(#clip5)"><path d="M0,280L525,227.5" style="fill: none; stroke: grey; stroke-width: 0.5; stroke-dasharray: 6,4;"></path></g></g><path class="foreground" d="" style="display: none; fill: none;"></path></g></g><g class="mark-text role-mark layer_1_marks"><text text-anchor="start" transform="translate(144,-4)" style="font-family: sans-serif; font-size: 14px; fill: grey;">0.5%</text><text text-anchor="start" transform="translate(284,-4)" style="font-family: sans-serif; font-size: 14px; fill: grey;">1.0%</text><text text-anchor="start" transform="translate(529,13.5)" style="font-family: sans-serif; font-size: 14px; fill: grey;">2.0%</text><text text-anchor="start" transform="translate(529,171)" style="font-family: sans-serif; font-size: 14px; fill: grey;">5.0%</text><text text-anchor="start" transform="translate(529,223.5)" style="font-family: sans-serif; font-size: 14px; fill: grey;">10.0%</text></g><g class="mark-symbol role-mark layer_2_marks"><path transform="translate(0.05479548134542633,279.99726022593273)" d="M2.7386127875258306,0A2.7386127875258306,2.7386127875258306,0,1,1,-2.7386127875258306,0A2.7386127875258306,2.7386127875258306,0,1,1,2.7386127875258306,0" style="fill: none; stroke: #4c78a8; stroke-width: 2; opacity: 0.7;"></path><path transform="translate(0.21918192538170533,279.9950684066789)" d="M2.7386127875258306,0A2.7386127875258306,2.7386127875258306,0,1,1,-2.7386127875258306,0A2.7386127875258306,2.7386127875258306,0,1,1,2.7386127875258306,0" style="fill: none; stroke: #4c78a8; stroke-width: 2; opacity: 0.7;"></path><path transform="translate(0.38356836941798433,279.99232863261165)" d="M2.7386127875258306,0A2.7386127875258306,2.7386127875258306,0,1,1,-2.7386127875258306,0A2.7386127875258306,2.7386127875258306,0,1,1,2.7386127875258306,0" style="fill: none; stroke: #4c78a8; stroke-width: 2; opacity: 0.7;"></path><path transform="translate(0.38356836941798433,279.9901368133578)" d="M2.7386127875258306,0A2.7386127875258306,2.7386127875258306,0,1,1,-2.7386127875258306,0A2.7386127875258306,2.7386127875258306,0,1,1,2.7386127875258306,0" style="fill: none; stroke: #4c78a8; stroke-width: 2; opacity: 0.7;"></path><path transform="translate(0.8767277015268213,279.9693145304466)" d="M2.7386127875258306,0A2.7386127875258306,2.7386127875258306,0,1,1,-2.7386127875258306,0A2.7386127875258306,2.7386127875258306,0,1,1,2.7386127875258306,0" style="fill: none; stroke: #4c78a8; stroke-width: 2; opacity: 0.7;"></path><path transform="translate(1.2602960709448057,279.9331495127586)" d="M2.7386127875258306,0A2.7386127875258306,2.7386127875258306,0,1,1,-2.7386127875258306,0A2.7386127875258306,2.7386127875258306,0,1,1,2.7386127875258306,0" style="fill: none; stroke: #4c78a8; stroke-width: 2; opacity: 0.7;"></path><path transform="translate(1.5342734776719373,279.90575177208586)" d="M2.7386127875258306,0A2.7386127875258306,2.7386127875258306,0,1,1,-2.7386127875258306,0A2.7386127875258306,2.7386127875258306,0,1,1,2.7386127875258306,0" style="fill: none; stroke: #4c78a8; stroke-width: 2; opacity: 0.7;"></path><path transform="translate(1.8082508843990688,279.86191538700956)" d="M2.7386127875258306,0A2.7386127875258306,2.7386127875258306,0,1,1,-2.7386127875258306,0A2.7386127875258306,2.7386127875258306,0,1,1,2.7386127875258306,0" style="fill: none; stroke: #4c78a8; stroke-width: 2; opacity: 0.7;"></path><path transform="translate(2.575387623235038,279.80164035752955)" d="M2.7386127875258306,0A2.7386127875258306,2.7386127875258306,0,1,1,-2.7386127875258306,0A2.7386127875258306,2.7386127875258306,0,1,1,2.7386127875258306,0" style="fill: none; stroke: #4c78a8; stroke-width: 2; opacity: 0.7;"></path><path transform="translate(3.1781379180347273,279.75725601763975)" d="M2.7386127875258306,0A2.7386127875258306,2.7386127875258306,0,1,1,-2.7386127875258306,0A2.7386127875258306,2.7386127875258306,0,1,1,2.7386127875258306,0" style="fill: none; stroke: #4c78a8; stroke-width: 2; opacity: 0.7;"></path><path transform="translate(3.726092731488991,279.7375296443554)" d="M2.7386127875258306,0A2.7386127875258306,2.7386127875258306,0,1,1,-2.7386127875258306,0A2.7386127875258306,2.7386127875258306,0,1,1,2.7386127875258306,0" style="fill: none; stroke: #4c78a8; stroke-width: 2; opacity: 0.7;"></path><path transform="translate(5.589139097233486,279.66848733786014)" d="M2.7386127875258306,0A2.7386127875258306,2.7386127875258306,0,1,1,-2.7386127875258306,0A2.7386127875258306,2.7386127875258306,0,1,1,2.7386127875258306,0" style="fill: none; stroke: #4c78a8; stroke-width: 2; opacity: 0.7;"></path><path transform="translate(8.21932220181395,279.54300568557915)" d="M2.7386127875258306,0A2.7386127875258306,2.7386127875258306,0,1,1,-2.7386127875258306,0A2.7386127875258306,2.7386127875258306,0,1,1,2.7386127875258306,0" style="fill: none; stroke: #4c78a8; stroke-width: 2; opacity: 0.7;"></path><path transform="translate(10.46593693697643,279.4027292533348)" d="M2.7386127875258306,0A2.7386127875258306,2.7386127875258306,0,1,1,-2.7386127875258306,0A2.7386127875258306,2.7386127875258306,0,1,1,2.7386127875258306,0" style="fill: none; stroke: #4c78a8; stroke-width: 2; opacity: 0.7;"></path><path transform="translate(13.698870336356583,279.179711644259)" d="M2.7386127875258306,0A2.7386127875258306,2.7386127875258306,0,1,1,-2.7386127875258306,0A2.7386127875258306,2.7386127875258306,0,1,1,2.7386127875258306,0" style="fill: none; stroke: #4c78a8; stroke-width: 2; opacity: 0.7;"></path><path transform="translate(16.383848922282475,278.90135059902417)" d="M2.7386127875258306,0A2.7386127875258306,2.7386127875258306,0,1,1,-2.7386127875258306,0A2.7386127875258306,2.7386127875258306,0,1,1,2.7386127875258306,0" style="fill: none; stroke: #4c78a8; stroke-width: 2; opacity: 0.7;"></path><path transform="translate(17.698940474572705,278.74847120607046)" d="M2.7386127875258306,0A2.7386127875258306,2.7386127875258306,0,1,1,-2.7386127875258306,0A2.7386127875258306,2.7386127875258306,0,1,1,2.7386127875258306,0" style="fill: none; stroke: #4c78a8; stroke-width: 2; opacity: 0.7;"></path><path transform="translate(18.356486250717822,278.7024430017403)" d="M2.7386127875258306,0A2.7386127875258306,2.7386127875258306,0,1,1,-2.7386127875258306,0A2.7386127875258306,2.7386127875258306,0,1,1,2.7386127875258306,0" style="fill: none; stroke: #4c78a8; stroke-width: 2; opacity: 0.7;"></path><path transform="translate(23.014102165079063,278.29914825903796)" d="M2.7386127875258306,0A2.7386127875258306,2.7386127875258306,0,1,1,-2.7386127875258306,0A2.7386127875258306,2.7386127875258306,0,1,1,2.7386127875258306,0" style="fill: none; stroke: #4c78a8; stroke-width: 2; opacity: 0.7;"></path><path transform="translate(26.082649120422932,277.91064829629886)" d="M2.7386127875258306,0A2.7386127875258306,2.7386127875258306,0,1,1,-2.7386127875258306,0A2.7386127875258306,2.7386127875258306,0,1,1,2.7386127875258306,0" style="fill: none; stroke: #4c78a8; stroke-width: 2; opacity: 0.7;"></path><path transform="translate(30.192310221329908,277.33036414885083)" d="M2.7386127875258306,0A2.7386127875258306,2.7386127875258306,0,1,1,-2.7386127875258306,0A2.7386127875258306,2.7386127875258306,0,1,1,2.7386127875258306,0" style="fill: none; stroke: #4c78a8; stroke-width: 2; opacity: 0.7;"></path><path transform="translate(33.04167525129208,276.8119988953231)" d="M2.7386127875258306,0A2.7386127875258306,2.7386127875258306,0,1,1,-2.7386127875258306,0A2.7386127875258306,2.7386127875258306,0,1,1,2.7386127875258306,0" style="fill: none; stroke: #4c78a8; stroke-width: 2; opacity: 0.7;"></path><path transform="translate(35.781449318563396,276.2443177085845)" d="M2.7386127875258306,0A2.7386127875258306,2.7386127875258306,0,1,1,-2.7386127875258306,0A2.7386127875258306,2.7386127875258306,0,1,1,2.7386127875258306,0" style="fill: none; stroke: #4c78a8; stroke-width: 2; opacity: 0.7;"></path><path transform="translate(36.60338153874479,276.0749996712271)" d="M2.7386127875258306,0A2.7386127875258306,2.7386127875258306,0,1,1,-2.7386127875258306,0A2.7386127875258306,2.7386127875258306,0,1,1,2.7386127875258306,0" style="fill: none; stroke: #4c78a8; stroke-width: 2; opacity: 0.7;"></path><path transform="translate(36.76776798278107,276.015820551374)" d="M2.7386127875258306,0A2.7386127875258306,2.7386127875258306,0,1,1,-2.7386127875258306,0A2.7386127875258306,2.7386127875258306,0,1,1,2.7386127875258306,0" style="fill: none; stroke: #4c78a8; stroke-width: 2; opacity: 0.7;"></path><path transform="translate(39.507542050052386,275.5347162251612)" d="M2.7386127875258306,0A2.7386127875258306,2.7386127875258306,0,1,1,-2.7386127875258306,0A2.7386127875258306,2.7386127875258306,0,1,1,2.7386127875258306,0" style="fill: none; stroke: #4c78a8; stroke-width: 2; opacity: 0.7;"></path><path transform="translate(41.37058841579689,274.95333616808625)" d="M2.7386127875258306,0A2.7386127875258306,2.7386127875258306,0,1,1,-2.7386127875258306,0A2.7386127875258306,2.7386127875258306,0,1,1,2.7386127875258306,0" style="fill: none; stroke: #4c78a8; stroke-width: 2; opacity: 0.7;"></path><path transform="translate(42.85006641212339,274.4157924960876)" d="M2.7386127875258306,0A2.7386127875258306,2.7386127875258306,0,1,1,-2.7386127875258306,0A2.7386127875258306,2.7386127875258306,0,1,1,2.7386127875258306,0" style="fill: none; stroke: #4c78a8; stroke-width: 2; opacity: 0.7;"></path><path transform="translate(44.767908259213314,273.8645499537526)" d="M2.7386127875258306,0A2.7386127875258306,2.7386127875258306,0,1,1,-2.7386127875258306,0A2.7386127875258306,2.7386127875258306,0,1,1,2.7386127875258306,0" style="fill: none; stroke: #4c78a8; stroke-width: 2; opacity: 0.7;"></path><path transform="translate(44.93229470324959,273.76865786139814)" d="M2.7386127875258306,0A2.7386127875258306,2.7386127875258306,0,1,1,-2.7386127875258306,0A2.7386127875258306,2.7386127875258306,0,1,1,2.7386127875258306,0" style="fill: none; stroke: #4c78a8; stroke-width: 2; opacity: 0.7;"></path><path transform="translate(45.58984047939471,273.6250937002731)" d="M2.7386127875258306,0A2.7386127875258306,2.7386127875258306,0,1,1,-2.7386127875258306,0A2.7386127875258306,2.7386127875258306,0,1,1,2.7386127875258306,0" style="fill: none; stroke: #4c78a8; stroke-width: 2; opacity: 0.7;"></path><path transform="translate(45.809022404776414,273.55002389082983)" d="M2.7386127875258306,0A2.7386127875258306,2.7386127875258306,0,1,1,-2.7386127875258306,0A2.7386127875258306,2.7386127875258306,0,1,1,2.7386127875258306,0" style="fill: none; stroke: #4c78a8; stroke-width: 2; opacity: 0.7;"></path><path transform="translate(47.398091363793775,273.0442615980116)" d="M2.7386127875258306,0A2.7386127875258306,2.7386127875258306,0,1,1,-2.7386127875258306,0A2.7386127875258306,2.7386127875258306,0,1,1,2.7386127875258306,0" style="fill: none; stroke: #4c78a8; stroke-width: 2; opacity: 0.7;"></path><path transform="translate(48.71318291608401,272.41411356253917)" d="M2.7386127875258306,0A2.7386127875258306,2.7386127875258306,0,1,1,-2.7386127875258306,0A2.7386127875258306,2.7386127875258306,0,1,1,2.7386127875258306,0" style="fill: none; stroke: #4c78a8; stroke-width: 2; opacity: 0.7;"></path><path transform="translate(50.41184283779222,271.7549239219537)" d="M2.7386127875258306,0A2.7386127875258306,2.7386127875258306,0,1,1,-2.7386127875258306,0A2.7386127875258306,2.7386127875258306,0,1,1,2.7386127875258306,0" style="fill: none; stroke: #4c78a8; stroke-width: 2; opacity: 0.7;"></path><path transform="translate(51.83652535277331,271.14833794345986)" d="M2.7386127875258306,0A2.7386127875258306,2.7386127875258306,0,1,1,-2.7386127875258306,0A2.7386127875258306,2.7386127875258306,0,1,1,2.7386127875258306,0" style="fill: none; stroke: #4c78a8; stroke-width: 2; opacity: 0.7;"></path><path transform="translate(52.987230461027266,270.493531941382)" d="M2.7386127875258306,0A2.7386127875258306,2.7386127875258306,0,1,1,-2.7386127875258306,0A2.7386127875258306,2.7386127875258306,0,1,1,2.7386127875258306,0" style="fill: none; stroke: #4c78a8; stroke-width: 2; opacity: 0.7;"></path><path transform="translate(53.480389793136105,270.21955453465483)" d="M2.7386127875258306,0A2.7386127875258306,2.7386127875258306,0,1,1,-2.7386127875258306,0A2.7386127875258306,2.7386127875258306,0,1,1,2.7386127875258306,0" style="fill: none; stroke: #4c78a8; stroke-width: 2; opacity: 0.7;"></path><path transform="translate(53.58998075582696,270.1565397311076)" d="M2.7386127875258306,0A2.7386127875258306,2.7386127875258306,0,1,1,-2.7386127875258306,0A2.7386127875258306,2.7386127875258306,0,1,1,2.7386127875258306,0" style="fill: none; stroke: #4c78a8; stroke-width: 2; opacity: 0.7;"></path><path transform="translate(54.57629942004463,269.50063781940287)" d="M2.7386127875258306,0A2.7386127875258306,2.7386127875258306,0,1,1,-2.7386127875258306,0A2.7386127875258306,2.7386127875258306,0,1,1,2.7386127875258306,0" style="fill: none; stroke: #4c78a8; stroke-width: 2; opacity: 0.7;"></path><path transform="translate(55.61741356560773,268.86227046172866)" d="M2.7386127875258306,0A2.7386127875258306,2.7386127875258306,0,1,1,-2.7386127875258306,0A2.7386127875258306,2.7386127875258306,0,1,1,2.7386127875258306,0" style="fill: none; stroke: #4c78a8; stroke-width: 2; opacity: 0.7;"></path><path transform="translate(57.09689156193424,268.22719083293515)" d="M2.7386127875258306,0A2.7386127875258306,2.7386127875258306,0,1,1,-2.7386127875258306,0A2.7386127875258306,2.7386127875258306,0,1,1,2.7386127875258306,0" style="fill: none; stroke: #4c78a8; stroke-width: 2; opacity: 0.7;"></path><path transform="translate(58.02841474480648,267.4452593141359)" d="M2.7386127875258306,0A2.7386127875258306,2.7386127875258306,0,1,1,-2.7386127875258306,0A2.7386127875258306,2.7386127875258306,0,1,1,2.7386127875258306,0" style="fill: none; stroke: #4c78a8; stroke-width: 2; opacity: 0.7;"></path><path transform="translate(58.90514244633331,266.7663433002661)" d="M2.7386127875258306,0A2.7386127875258306,2.7386127875258306,0,1,1,-2.7386127875258306,0A2.7386127875258306,2.7386127875258306,0,1,1,2.7386127875258306,0" style="fill: none; stroke: #4c78a8; stroke-width: 2; opacity: 0.7;"></path><path transform="translate(58.95993792767874,266.42770722555133)" d="M2.7386127875258306,0A2.7386127875258306,2.7386127875258306,0,1,1,-2.7386127875258306,0A2.7386127875258306,2.7386127875258306,0,1,1,2.7386127875258306,0" style="fill: none; stroke: #4c78a8; stroke-width: 2; opacity: 0.7;"></path><path transform="translate(59.12432437171502,266.3389385457717)" d="M2.7386127875258306,0A2.7386127875258306,2.7386127875258306,0,1,1,-2.7386127875258306,0A2.7386127875258306,2.7386127875258306,0,1,1,2.7386127875258306,0" style="fill: none; stroke: #4c78a8; stroke-width: 2; opacity: 0.7;"></path><path transform="translate(59.94625659189641,265.5011156360002)" d="M2.7386127875258306,0A2.7386127875258306,2.7386127875258306,0,1,1,-2.7386127875258306,0A2.7386127875258306,2.7386127875258306,0,1,1,2.7386127875258306,0" style="fill: none; stroke: #4c78a8; stroke-width: 2; opacity: 0.7;"></path><path transform="translate(60.82298429342323,264.3558900758808)" d="M2.7386127875258306,0A2.7386127875258306,2.7386127875258306,0,1,1,-2.7386127875258306,0A2.7386127875258306,2.7386127875258306,0,1,1,2.7386127875258306,0" style="fill: none; stroke: #4c78a8; stroke-width: 2; opacity: 0.7;"></path><path transform="translate(61.86409843898633,263.2079247416941)" d="M2.7386127875258306,0A2.7386127875258306,2.7386127875258306,0,1,1,-2.7386127875258306,0A2.7386127875258306,2.7386127875258306,0,1,1,2.7386127875258306,0" style="fill: none; stroke: #4c78a8; stroke-width: 2; opacity: 0.7;"></path><path transform="translate(63.06959902858571,262.00516392616197)" d="M2.7386127875258306,0A2.7386127875258306,2.7386127875258306,0,1,1,-2.7386127875258306,0A2.7386127875258306,2.7386127875258306,0,1,1,2.7386127875258306,0" style="fill: none; stroke: #4c78a8; stroke-width: 2; opacity: 0.7;"></path><path transform="translate(63.56275836069455,260.51746660763365)" d="M2.7386127875258306,0A2.7386127875258306,2.7386127875258306,0,1,1,-2.7386127875258306,0A2.7386127875258306,2.7386127875258306,0,1,1,2.7386127875258306,0" style="fill: none; stroke: #4c78a8; stroke-width: 2; opacity: 0.7;"></path><path transform="translate(63.89153124876711,259.9464976920143)" d="M2.7386127875258306,0A2.7386127875258306,2.7386127875258306,0,1,1,-2.7386127875258306,0A2.7386127875258306,2.7386127875258306,0,1,1,2.7386127875258306,0" style="fill: none; stroke: #4c78a8; stroke-width: 2; opacity: 0.7;"></path><path transform="translate(64.05591769280339,259.83745468413696)" d="M2.7386127875258306,0A2.7386127875258306,2.7386127875258306,0,1,1,-2.7386127875258306,0A2.7386127875258306,2.7386127875258306,0,1,1,2.7386127875258306,0" style="fill: none; stroke: #4c78a8; stroke-width: 2; opacity: 0.7;"></path><path transform="translate(64.38469058087594,258.200713656349)" d="M2.7386127875258306,0A2.7386127875258306,2.7386127875258306,0,1,1,-2.7386127875258306,0A2.7386127875258306,2.7386127875258306,0,1,1,2.7386127875258306,0" style="fill: none; stroke: #4c78a8; stroke-width: 2; opacity: 0.7;"></path><path transform="translate(65.59019117047532,256.3354754713507)" d="M2.7386127875258306,0A2.7386127875258306,2.7386127875258306,0,1,1,-2.7386127875258306,0A2.7386127875258306,2.7386127875258306,0,1,1,2.7386127875258306,0" style="fill: none; stroke: #4c78a8; stroke-width: 2; opacity: 0.7;"></path><path transform="translate(66.68610079738384,254.33544040224268)" d="M2.7386127875258306,0A2.7386127875258306,2.7386127875258306,0,1,1,-2.7386127875258306,0A2.7386127875258306,2.7386127875258306,0,1,1,2.7386127875258306,0" style="fill: none; stroke: #4c78a8; stroke-width: 2; opacity: 0.7;"></path><path transform="translate(67.56282849891066,251.83621849807776)" d="M2.7386127875258306,0A2.7386127875258306,2.7386127875258306,0,1,1,-2.7386127875258306,0A2.7386127875258306,2.7386127875258306,0,1,1,2.7386127875258306,0" style="fill: none; stroke: #4c78a8; stroke-width: 2; opacity: 0.7;"></path><path transform="translate(68.93271553254633,248.82191906926585)" d="M2.7386127875258306,0A2.7386127875258306,2.7386127875258306,0,1,1,-2.7386127875258306,0A2.7386127875258306,2.7386127875258306,0,1,1,2.7386127875258306,0" style="fill: none; stroke: #4c78a8; stroke-width: 2; opacity: 0.7;"></path><path transform="translate(69.15189745792804,247.95395864475432)" d="M2.7386127875258306,0A2.7386127875258306,2.7386127875258306,0,1,1,-2.7386127875258306,0A2.7386127875258306,2.7386127875258306,0,1,1,2.7386127875258306,0" style="fill: none; stroke: #4c78a8; stroke-width: 2; opacity: 0.7;"></path><path transform="translate(69.15189745792804,247.86025837165363)" d="M2.7386127875258306,0A2.7386127875258306,2.7386127875258306,0,1,1,-2.7386127875258306,0A2.7386127875258306,2.7386127875258306,0,1,1,2.7386127875258306,0" style="fill: none; stroke: #4c78a8; stroke-width: 2; opacity: 0.7;"></path><path transform="translate(69.97382967810944,245.71994687030127)" d="M2.7386127875258306,0A2.7386127875258306,2.7386127875258306,0,1,1,-2.7386127875258306,0A2.7386127875258306,2.7386127875258306,0,1,1,2.7386127875258306,0" style="fill: none; stroke: #4c78a8; stroke-width: 2; opacity: 0.7;"></path><path transform="translate(70.52178449156368,243.3856593649861)" d="M2.7386127875258306,0A2.7386127875258306,2.7386127875258306,0,1,1,-2.7386127875258306,0A2.7386127875258306,2.7386127875258306,0,1,1,2.7386127875258306,0" style="fill: none; stroke: #4c78a8; stroke-width: 2; opacity: 0.7;"></path><path transform="translate(71.01494382367252,240.96424704433173)" d="M2.7386127875258306,0A2.7386127875258306,2.7386127875258306,0,1,1,-2.7386127875258306,0A2.7386127875258306,2.7386127875258306,0,1,1,2.7386127875258306,0" style="fill: none; stroke: #4c78a8; stroke-width: 2; opacity: 0.7;"></path><path transform="translate(71.50810315578137,238.54995813625226)" d="M2.7386127875258306,0A2.7386127875258306,2.7386127875258306,0,1,1,-2.7386127875258306,0A2.7386127875258306,2.7386127875258306,0,1,1,2.7386127875258306,0" style="fill: none; stroke: #4c78a8; stroke-width: 2; opacity: 0.7;"></path><path transform="translate(72.11085345058105,236.246904055304)" d="M2.7386127875258306,0A2.7386127875258306,2.7386127875258306,0,1,1,-2.7386127875258306,0A2.7386127875258306,2.7386127875258306,0,1,1,2.7386127875258306,0" style="fill: none; stroke: #4c78a8; stroke-width: 2; opacity: 0.7;"></path><path transform="translate(72.2204444132719,235.45894503355674)" d="M2.7386127875258306,0A2.7386127875258306,2.7386127875258306,0,1,1,-2.7386127875258306,0A2.7386127875258306,2.7386127875258306,0,1,1,2.7386127875258306,0" style="fill: none; stroke: #4c78a8; stroke-width: 2; opacity: 0.7;"></path><path transform="translate(72.33003537596277,235.3805874952328)" d="M2.7386127875258306,0A2.7386127875258306,2.7386127875258306,0,1,1,-2.7386127875258306,0A2.7386127875258306,2.7386127875258306,0,1,1,2.7386127875258306,0" style="fill: none; stroke: #4c78a8; stroke-width: 2; opacity: 0.7;"></path><path transform="translate(72.71360374538074,233.64795437509042)" d="M2.7386127875258306,0A2.7386127875258306,2.7386127875258306,0,1,1,-2.7386127875258306,0A2.7386127875258306,2.7386127875258306,0,1,1,2.7386127875258306,0" style="fill: none; stroke: #4c78a8; stroke-width: 2; opacity: 0.7;"></path><path transform="translate(73.0423766334533,231.72353707023905)" d="M2.7386127875258306,0A2.7386127875258306,2.7386127875258306,0,1,1,-2.7386127875258306,0A2.7386127875258306,2.7386127875258306,0,1,1,2.7386127875258306,0" style="fill: none; stroke: #4c78a8; stroke-width: 2; opacity: 0.7;"></path><path transform="translate(73.69992240959841,229.55034828007942)" d="M2.7386127875258306,0A2.7386127875258306,2.7386127875258306,0,1,1,-2.7386127875258306,0A2.7386127875258306,2.7386127875258306,0,1,1,2.7386127875258306,0" style="fill: none; stroke: #4c78a8; stroke-width: 2; opacity: 0.7;"></path><path transform="translate(73.97389981632554,227.83689357840794)" d="M2.7386127875258306,0A2.7386127875258306,2.7386127875258306,0,1,1,-2.7386127875258306,0A2.7386127875258306,2.7386127875258306,0,1,1,2.7386127875258306,0" style="fill: none; stroke: #4c78a8; stroke-width: 2; opacity: 0.7;"></path><path transform="translate(74.3026727043981,225.24287549151546)" d="M2.7386127875258306,0A2.7386127875258306,2.7386127875258306,0,1,1,-2.7386127875258306,0A2.7386127875258306,2.7386127875258306,0,1,1,2.7386127875258306,0" style="fill: none; stroke: #4c78a8; stroke-width: 2; opacity: 0.7;"></path><path transform="translate(74.46705914843439,224.48067034600058)" d="M2.7386127875258306,0A2.7386127875258306,2.7386127875258306,0,1,1,-2.7386127875258306,0A2.7386127875258306,2.7386127875258306,0,1,1,2.7386127875258306,0" style="fill: none; stroke: #4c78a8; stroke-width: 2; opacity: 0.7;"></path><path transform="translate(74.57665011112525,224.3666957448021)" d="M2.7386127875258306,0A2.7386127875258306,2.7386127875258306,0,1,1,-2.7386127875258306,0A2.7386127875258306,2.7386127875258306,0,1,1,2.7386127875258306,0" style="fill: none; stroke: #4c78a8; stroke-width: 2; opacity: 0.7;"></path><path transform="translate(74.85062751785237,223.48065281144656)" d="M2.7386127875258306,0A2.7386127875258306,2.7386127875258306,0,1,1,-2.7386127875258306,0A2.7386127875258306,2.7386127875258306,0,1,1,2.7386127875258306,0" style="fill: none; stroke: #4c78a8; stroke-width: 2; opacity: 0.7;"></path><path transform="translate(75.1246049245795,221.01266433164855)" d="M2.7386127875258306,0A2.7386127875258306,2.7386127875258306,0,1,1,-2.7386127875258306,0A2.7386127875258306,2.7386127875258306,0,1,1,2.7386127875258306,0" style="fill: none; stroke: #4c78a8; stroke-width: 2; opacity: 0.7;"></path><path transform="translate(75.56296877534291,218.71125411514063)" d="M2.7386127875258306,0A2.7386127875258306,2.7386127875258306,0,1,1,-2.7386127875258306,0A2.7386127875258306,2.7386127875258306,0,1,1,2.7386127875258306,0" style="fill: none; stroke: #4c78a8; stroke-width: 2; opacity: 0.7;"></path><path transform="translate(76.60408292090602,216.11559216380778)" d="M2.7386127875258306,0A2.7386127875258306,2.7386127875258306,0,1,1,-2.7386127875258306,0A2.7386127875258306,2.7386127875258306,0,1,1,2.7386127875258306,0" style="fill: none; stroke: #4c78a8; stroke-width: 2; opacity: 0.7;"></path><path transform="translate(78.19315187992338,213.29910442265287)" d="M2.7386127875258306,0A2.7386127875258306,2.7386127875258306,0,1,1,-2.7386127875258306,0A2.7386127875258306,2.7386127875258306,0,1,1,2.7386127875258306,0" style="fill: none; stroke: #4c78a8; stroke-width: 2; opacity: 0.7;"></path><path transform="translate(78.30274284261424,212.2519627741418)" d="M2.7386127875258306,0A2.7386127875258306,2.7386127875258306,0,1,1,-2.7386127875258306,0A2.7386127875258306,2.7386127875258306,0,1,1,2.7386127875258306,0" style="fill: none; stroke: #4c78a8; stroke-width: 2; opacity: 0.7;"></path><path transform="translate(78.35753832395966,212.0996313360015)" d="M2.7386127875258306,0A2.7386127875258306,2.7386127875258306,0,1,1,-2.7386127875258306,0A2.7386127875258306,2.7386127875258306,0,1,1,2.7386127875258306,0" style="fill: none; stroke: #4c78a8; stroke-width: 2; opacity: 0.7;"></path><path transform="translate(79.72742535759532,209.39711819604508)" d="M2.7386127875258306,0A2.7386127875258306,2.7386127875258306,0,1,1,-2.7386127875258306,0A2.7386127875258306,2.7386127875258306,0,1,1,2.7386127875258306,0" style="fill: none; stroke: #4c78a8; stroke-width: 2; opacity: 0.7;"></path><path transform="translate(80.65894854046756,206.4902179106702)" d="M2.7386127875258306,0A2.7386127875258306,2.7386127875258306,0,1,1,-2.7386127875258306,0A2.7386127875258306,2.7386127875258306,0,1,1,2.7386127875258306,0" style="fill: none; stroke: #4c78a8; stroke-width: 2; opacity: 0.7;"></path><path transform="translate(81.1521078725764,203.42495868420707)" d="M2.7386127875258306,0A2.7386127875258306,2.7386127875258306,0,1,1,-2.7386127875258306,0A2.7386127875258306,2.7386127875258306,0,1,1,2.7386127875258306,0" style="fill: none; stroke: #4c78a8; stroke-width: 2; opacity: 0.7;"></path><path transform="translate(81.70006268603066,200.02873475041753)" d="M2.7386127875258306,0A2.7386127875258306,2.7386127875258306,0,1,1,-2.7386127875258306,0A2.7386127875258306,2.7386127875258306,0,1,1,2.7386127875258306,0" style="fill: none; stroke: #4c78a8; stroke-width: 2; opacity: 0.7;"></path><path transform="translate(82.24801749948493,196.75908837853595)" d="M2.7386127875258306,0A2.7386127875258306,2.7386127875258306,0,1,1,-2.7386127875258306,0A2.7386127875258306,2.7386127875258306,0,1,1,2.7386127875258306,0" style="fill: none; stroke: #4c78a8; stroke-width: 2; opacity: 0.7;"></path><path transform="translate(82.46719942486664,195.73660469663028)" d="M2.7386127875258306,0A2.7386127875258306,2.7386127875258306,0,1,1,-2.7386127875258306,0A2.7386127875258306,2.7386127875258306,0,1,1,2.7386127875258306,0" style="fill: none; stroke: #4c78a8; stroke-width: 2; opacity: 0.7;"></path><path transform="translate(82.5767903875575,195.58865689699763)" d="M2.7386127875258306,0A2.7386127875258306,2.7386127875258306,0,1,1,-2.7386127875258306,0A2.7386127875258306,2.7386127875258306,0,1,1,2.7386127875258306,0" style="fill: none; stroke: #4c78a8; stroke-width: 2; opacity: 0.7;"></path><path transform="translate(83.06994971966633,192.54038426975157)" d="M2.7386127875258306,0A2.7386127875258306,2.7386127875258306,0,1,1,-2.7386127875258306,0A2.7386127875258306,2.7386127875258306,0,1,1,2.7386127875258306,0" style="fill: none; stroke: #4c78a8; stroke-width: 2; opacity: 0.7;"></path><path transform="translate(83.72749549581144,189.50855028690913)" d="M2.7386127875258306,0A2.7386127875258306,2.7386127875258306,0,1,1,-2.7386127875258306,0A2.7386127875258306,2.7386127875258306,0,1,1,2.7386127875258306,0" style="fill: none; stroke: #4c78a8; stroke-width: 2; opacity: 0.7;"></path><path transform="translate(84.49463223464741,186.83288693281196)" d="M2.7386127875258306,0A2.7386127875258306,2.7386127875258306,0,1,1,-2.7386127875258306,0A2.7386127875258306,2.7386127875258306,0,1,1,2.7386127875258306,0" style="fill: none; stroke: #4c78a8; stroke-width: 2; opacity: 0.7;"></path><path transform="translate(85.0973825294471,183.83940978691135)" d="M2.7386127875258306,0A2.7386127875258306,2.7386127875258306,0,1,1,-2.7386127875258306,0A2.7386127875258306,2.7386127875258306,0,1,1,2.7386127875258306,0" style="fill: none; stroke: #4c78a8; stroke-width: 2; opacity: 0.7;"></path><path transform="translate(85.97411023097392,181.10511526777455)" d="M2.7386127875258306,0A2.7386127875258306,2.7386127875258306,0,1,1,-2.7386127875258306,0A2.7386127875258306,2.7386127875258306,0,1,1,2.7386127875258306,0" style="fill: none; stroke: #4c78a8; stroke-width: 2; opacity: 0.7;"></path><path transform="translate(86.57686052577361,180.01139746011984)" d="M2.7386127875258306,0A2.7386127875258306,2.7386127875258306,0,1,1,-2.7386127875258306,0A2.7386127875258306,2.7386127875258306,0,1,1,2.7386127875258306,0" style="fill: none; stroke: #4c78a8; stroke-width: 2; opacity: 0.7;"></path><path transform="translate(86.9604288951916,179.83659987462795)" d="M2.7386127875258306,0A2.7386127875258306,2.7386127875258306,0,1,1,-2.7386127875258306,0A2.7386127875258306,2.7386127875258306,0,1,1,2.7386127875258306,0" style="fill: none; stroke: #4c78a8; stroke-width: 2; opacity: 0.7;"></path><path transform="translate(87.89195207806384,177.21299222780894)" d="M2.7386127875258306,0A2.7386127875258306,2.7386127875258306,0,1,1,-2.7386127875258306,0A2.7386127875258306,2.7386127875258306,0,1,1,2.7386127875258306,0" style="fill: none; stroke: #4c78a8; stroke-width: 2; opacity: 0.7;"></path><path transform="translate(88.98786170497236,174.75760670872037)" d="M2.7386127875258306,0A2.7386127875258306,2.7386127875258306,0,1,1,-2.7386127875258306,0A2.7386127875258306,2.7386127875258306,0,1,1,2.7386127875258306,0" style="fill: none; stroke: #4c78a8; stroke-width: 2; opacity: 0.7;"></path><path transform="translate(89.75499844380833,172.22167183205406)" d="M2.7386127875258306,0A2.7386127875258306,2.7386127875258306,0,1,1,-2.7386127875258306,0A2.7386127875258306,2.7386127875258306,0,1,1,2.7386127875258306,0" style="fill: none; stroke: #4c78a8; stroke-width: 2; opacity: 0.7;"></path><path transform="translate(90.85090807071686,169.00846480595825)" d="M2.7386127875258306,0A2.7386127875258306,2.7386127875258306,0,1,1,-2.7386127875258306,0A2.7386127875258306,2.7386127875258306,0,1,1,2.7386127875258306,0" style="fill: none; stroke: #4c78a8; stroke-width: 2; opacity: 0.7;"></path><path transform="translate(91.67284029089825,165.8314227975504)" d="M2.7386127875258306,0A2.7386127875258306,2.7386127875258306,0,1,1,-2.7386127875258306,0A2.7386127875258306,2.7386127875258306,0,1,1,2.7386127875258306,0" style="fill: none; stroke: #4c78a8; stroke-width: 2; opacity: 0.7;"></path><path transform="translate(91.83722673493453,164.71852657142483)" d="M2.7386127875258306,0A2.7386127875258306,2.7386127875258306,0,1,1,-2.7386127875258306,0A2.7386127875258306,2.7386127875258306,0,1,1,2.7386127875258306,0" style="fill: none; stroke: #4c78a8; stroke-width: 2; opacity: 0.7;"></path><path transform="translate(91.83722673493453,164.61605902130887)" d="M2.7386127875258306,0A2.7386127875258306,2.7386127875258306,0,1,1,-2.7386127875258306,0A2.7386127875258306,2.7386127875258306,0,1,1,2.7386127875258306,0" style="fill: none; stroke: #4c78a8; stroke-width: 2; opacity: 0.7;"></path><path transform="translate(93.26190924991562,161.99573910337057)" d="M2.7386127875258306,0A2.7386127875258306,2.7386127875258306,0,1,1,-2.7386127875258306,0A2.7386127875258306,2.7386127875258306,0,1,1,2.7386127875258306,0" style="fill: none; stroke: #4c78a8; stroke-width: 2; opacity: 0.7;"></path><path transform="translate(95.67291042911438,159.65597204992085)" d="M2.7386127875258306,0A2.7386127875258306,2.7386127875258306,0,1,1,-2.7386127875258306,0A2.7386127875258306,2.7386127875258306,0,1,1,2.7386127875258306,0" style="fill: none; stroke: #4c78a8; stroke-width: 2; opacity: 0.7;"></path><path transform="translate(97.3715703508226,157.29867044244062)" d="M2.7386127875258306,0A2.7386127875258306,2.7386127875258306,0,1,1,-2.7386127875258306,0A2.7386127875258306,2.7386127875258306,0,1,1,2.7386127875258306,0" style="fill: none; stroke: #4c78a8; stroke-width: 2; opacity: 0.7;"></path><path transform="translate(99.94695797405764,154.89808040469748)" d="M2.7386127875258306,0A2.7386127875258306,2.7386127875258306,0,1,1,-2.7386127875258306,0A2.7386127875258306,2.7386127875258306,0,1,1,2.7386127875258306,0" style="fill: none; stroke: #4c78a8; stroke-width: 2; opacity: 0.7;"></path><path transform="translate(102.30316367191097,152.4470785241166)" d="M2.7386127875258306,0A2.7386127875258306,2.7386127875258306,0,1,1,-2.7386127875258306,0A2.7386127875258306,2.7386127875258306,0,1,1,2.7386127875258306,0" style="fill: none; stroke: #4c78a8; stroke-width: 2; opacity: 0.7;"></path><path transform="translate(103.0155049294015,151.5687069581494)" d="M2.7386127875258306,0A2.7386127875258306,2.7386127875258306,0,1,1,-2.7386127875258306,0A2.7386127875258306,2.7386127875258306,0,1,1,2.7386127875258306,0" style="fill: none; stroke: #4c78a8; stroke-width: 2; opacity: 0.7;"></path><path transform="translate(103.17989137343778,151.42897848071854)" d="M2.7386127875258306,0A2.7386127875258306,2.7386127875258306,0,1,1,-2.7386127875258306,0A2.7386127875258306,2.7386127875258306,0,1,1,2.7386127875258306,0" style="fill: none; stroke: #4c78a8; stroke-width: 2; opacity: 0.7;"></path><path transform="translate(107.67312084376276,148.6360527965422)" d="M2.7386127875258306,0A2.7386127875258306,2.7386127875258306,0,1,1,-2.7386127875258306,0A2.7386127875258306,2.7386127875258306,0,1,1,2.7386127875258306,0" style="fill: none; stroke: #4c78a8; stroke-width: 2; opacity: 0.7;"></path><path transform="translate(112.49512320216026,146.06559676662826)" d="M2.7386127875258306,0A2.7386127875258306,2.7386127875258306,0,1,1,-2.7386127875258306,0A2.7386127875258306,2.7386127875258306,0,1,1,2.7386127875258306,0" style="fill: none; stroke: #4c78a8; stroke-width: 2; opacity: 0.7;"></path><path transform="translate(116.65957978441266,143.48637345969902)" d="M2.7386127875258306,0A2.7386127875258306,2.7386127875258306,0,1,1,-2.7386127875258306,0A2.7386127875258306,2.7386127875258306,0,1,1,2.7386127875258306,0" style="fill: none; stroke: #4c78a8; stroke-width: 2; opacity: 0.7;"></path><path transform="translate(123.01585562048213,140.53289701518054)" d="M2.7386127875258306,0A2.7386127875258306,2.7386127875258306,0,1,1,-2.7386127875258306,0A2.7386127875258306,2.7386127875258306,0,1,1,2.7386127875258306,0" style="fill: none; stroke: #4c78a8; stroke-width: 2; opacity: 0.7;"></path><path transform="translate(130.85160945287808,137.59037966693114)" d="M2.7386127875258306,0A2.7386127875258306,2.7386127875258306,0,1,1,-2.7386127875258306,0A2.7386127875258306,2.7386127875258306,0,1,1,2.7386127875258306,0" style="fill: none; stroke: #4c78a8; stroke-width: 2; opacity: 0.7;"></path><path transform="translate(131.61874619171405,137.3920200244607)" d="M2.7386127875258306,0A2.7386127875258306,2.7386127875258306,0,1,1,-2.7386127875258306,0A2.7386127875258306,2.7386127875258306,0,1,1,2.7386127875258306,0" style="fill: none; stroke: #4c78a8; stroke-width: 2; opacity: 0.7;"></path><path transform="translate(132.44067841189545,137.21009902639386)" d="M2.7386127875258306,0A2.7386127875258306,2.7386127875258306,0,1,1,-2.7386127875258306,0A2.7386127875258306,2.7386127875258306,0,1,1,2.7386127875258306,0" style="fill: none; stroke: #4c78a8; stroke-width: 2; opacity: 0.7;"></path><path transform="translate(143.12579727425359,133.62811841084337)" d="M2.7386127875258306,0A2.7386127875258306,2.7386127875258306,0,1,1,-2.7386127875258306,0A2.7386127875258306,2.7386127875258306,0,1,1,2.7386127875258306,0" style="fill: none; stroke: #4c78a8; stroke-width: 2; opacity: 0.7;"></path><path transform="translate(156.38630375984675,130.30860815093746)" d="M2.7386127875258306,0A2.7386127875258306,2.7386127875258306,0,1,1,-2.7386127875258306,0A2.7386127875258306,2.7386127875258306,0,1,1,2.7386127875258306,0" style="fill: none; stroke: #4c78a8; stroke-width: 2; opacity: 0.7;"></path><path transform="translate(167.72896839835,126.911288307521)" d="M2.7386127875258306,0A2.7386127875258306,2.7386127875258306,0,1,1,-2.7386127875258306,0A2.7386127875258306,2.7386127875258306,0,1,1,2.7386127875258306,0" style="fill: none; stroke: #4c78a8; stroke-width: 2; opacity: 0.7;"></path><path transform="translate(180.49631555183436,123.31341700238029)" d="M2.7386127875258306,0A2.7386127875258306,2.7386127875258306,0,1,1,-2.7386127875258306,0A2.7386127875258306,2.7386127875258306,0,1,1,2.7386127875258306,0" style="fill: none; stroke: #4c78a8; stroke-width: 2; opacity: 0.7;"></path><path transform="translate(197.75689217564366,119.37143007439035)" d="M2.7386127875258306,0A2.7386127875258306,2.7386127875258306,0,1,1,-2.7386127875258306,0A2.7386127875258306,2.7386127875258306,0,1,1,2.7386127875258306,0" style="fill: none; stroke: #4c78a8; stroke-width: 2; opacity: 0.7;"></path><path transform="translate(204.82550926920365,117.9593505201187)" d="M2.7386127875258306,0A2.7386127875258306,2.7386127875258306,0,1,1,-2.7386127875258306,0A2.7386127875258306,2.7386127875258306,0,1,1,2.7386127875258306,0" style="fill: none; stroke: #4c78a8; stroke-width: 2; opacity: 0.7;"></path><path transform="translate(207.45569237378413,117.69633220966065)" d="M2.7386127875258306,0A2.7386127875258306,2.7386127875258306,0,1,1,-2.7386127875258306,0A2.7386127875258306,2.7386127875258306,0,1,1,2.7386127875258306,0" style="fill: none; stroke: #4c78a8; stroke-width: 2; opacity: 0.7;"></path><path transform="translate(229.92183972540892,113.37461259594687)" d="M2.7386127875258306,0A2.7386127875258306,2.7386127875258306,0,1,1,-2.7386127875258306,0A2.7386127875258306,2.7386127875258306,0,1,1,2.7386127875258306,0" style="fill: none; stroke: #4c78a8; stroke-width: 2; opacity: 0.7;"></path><path transform="translate(248.22353049478127,108.93234292327318)" d="M2.7386127875258306,0A2.7386127875258306,2.7386127875258306,0,1,1,-2.7386127875258306,0A2.7386127875258306,2.7386127875258306,0,1,1,2.7386127875258306,0" style="fill: none; stroke: #4c78a8; stroke-width: 2; opacity: 0.7;"></path><path transform="translate(269.75815466353384,104.71035108560807)" d="M2.7386127875258306,0A2.7386127875258306,2.7386127875258306,0,1,1,-2.7386127875258306,0A2.7386127875258306,2.7386127875258306,0,1,1,2.7386127875258306,0" style="fill: none; stroke: #4c78a8; stroke-width: 2; opacity: 0.7;"></path><path transform="translate(286.0872081044709,101.82043739945028)" d="M2.7386127875258306,0A2.7386127875258306,2.7386127875258306,0,1,1,-2.7386127875258306,0A2.7386127875258306,2.7386127875258306,0,1,1,2.7386127875258306,0" style="fill: none; stroke: #4c78a8; stroke-width: 2; opacity: 0.7;"></path><path transform="translate(298.9093507393007,99.29874934793374)" d="M2.7386127875258306,0A2.7386127875258306,2.7386127875258306,0,1,1,-2.7386127875258306,0A2.7386127875258306,2.7386127875258306,0,1,1,2.7386127875258306,0" style="fill: none; stroke: #4c78a8; stroke-width: 2; opacity: 0.7;"></path><path transform="translate(303.67655761635274,98.70038269164172)" d="M2.7386127875258306,0A2.7386127875258306,2.7386127875258306,0,1,1,-2.7386127875258306,0A2.7386127875258306,2.7386127875258306,0,1,1,2.7386127875258306,0" style="fill: none; stroke: #4c78a8; stroke-width: 2; opacity: 0.7;"></path><path transform="translate(307.2382639038055,98.3803770805844)" d="M2.7386127875258306,0A2.7386127875258306,2.7386127875258306,0,1,1,-2.7386127875258306,0A2.7386127875258306,2.7386127875258306,0,1,1,2.7386127875258306,0" style="fill: none; stroke: #4c78a8; stroke-width: 2; opacity: 0.7;"></path><path transform="translate(322.8001806059065,96.32445062050401)" d="M2.7386127875258306,0A2.7386127875258306,2.7386127875258306,0,1,1,-2.7386127875258306,0A2.7386127875258306,2.7386127875258306,0,1,1,2.7386127875258306,0" style="fill: none; stroke: #4c78a8; stroke-width: 2; opacity: 0.7;"></path><path transform="translate(336.77302834899024,94.50852836871658)" d="M2.7386127875258306,0A2.7386127875258306,2.7386127875258306,0,1,1,-2.7386127875258306,0A2.7386127875258306,2.7386127875258306,0,1,1,2.7386127875258306,0" style="fill: none; stroke: #4c78a8; stroke-width: 2; opacity: 0.7;"></path><path transform="translate(351.01985349880107,92.75671683010331)" d="M2.7386127875258306,0A2.7386127875258306,2.7386127875258306,0,1,1,-2.7386127875258306,0A2.7386127875258306,2.7386127875258306,0,1,1,2.7386127875258306,0" style="fill: none; stroke: #4c78a8; stroke-width: 2; opacity: 0.7;"></path><path transform="translate(363.84199613363086,91.11778398306161)" d="M2.7386127875258306,0A2.7386127875258306,2.7386127875258306,0,1,1,-2.7386127875258306,0A2.7386127875258306,2.7386127875258306,0,1,1,2.7386127875258306,0" style="fill: none; stroke: #4c78a8; stroke-width: 2; opacity: 0.7;"></path><path transform="translate(376.8833206938423,89.51392024408099)" d="M2.7386127875258306,0A2.7386127875258306,2.7386127875258306,0,1,1,-2.7386127875258306,0A2.7386127875258306,2.7386127875258306,0,1,1,2.7386127875258306,0" style="fill: none; stroke: #4c78a8; stroke-width: 2; opacity: 0.7;"></path><path transform="translate(379.67789024245906,89.19720236190442)" d="M2.7386127875258306,0A2.7386127875258306,2.7386127875258306,0,1,1,-2.7386127875258306,0A2.7386127875258306,2.7386127875258306,0,1,1,2.7386127875258306,0" style="fill: none; stroke: #4c78a8; stroke-width: 2; opacity: 0.7;"></path><path transform="translate(381.32175468282185,89.02295273122594)" d="M2.7386127875258306,0A2.7386127875258306,2.7386127875258306,0,1,1,-2.7386127875258306,0A2.7386127875258306,2.7386127875258306,0,1,1,2.7386127875258306,0" style="fill: none; stroke: #4c78a8; stroke-width: 2; opacity: 0.7;"></path><path transform="translate(388.664349183109,87.79662985871532)" d="M2.7386127875258306,0A2.7386127875258306,2.7386127875258306,0,1,1,-2.7386127875258306,0A2.7386127875258306,2.7386127875258306,0,1,1,2.7386127875258306,0" style="fill: none; stroke: #4c78a8; stroke-width: 2; opacity: 0.7;"></path><path transform="translate(396.5548984968504,86.49907286045563)" d="M2.7386127875258306,0A2.7386127875258306,2.7386127875258306,0,1,1,-2.7386127875258306,0A2.7386127875258306,2.7386127875258306,0,1,1,2.7386127875258306,0" style="fill: none; stroke: #4c78a8; stroke-width: 2; opacity: 0.7;"></path><path transform="translate(402.58240144484733,85.45795871489253)" d="M2.7386127875258306,0A2.7386127875258306,2.7386127875258306,0,1,1,-2.7386127875258306,0A2.7386127875258306,2.7386127875258306,0,1,1,2.7386127875258306,0" style="fill: none; stroke: #4c78a8; stroke-width: 2; opacity: 0.7;"></path><path transform="translate(403.29474270233777,85.09028103506472)" d="M2.7386127875258306,0A2.7386127875258306,2.7386127875258306,0,1,1,-2.7386127875258306,0A2.7386127875258306,2.7386127875258306,0,1,1,2.7386127875258306,0" style="fill: none; stroke: #4c78a8; stroke-width: 2; opacity: 0.7;"></path><path transform="translate(406.19890321364545,84.0108100525598)" d="M2.7386127875258306,0A2.7386127875258306,2.7386127875258306,0,1,1,-2.7386127875258306,0A2.7386127875258306,2.7386127875258306,0,1,1,2.7386127875258306,0" style="fill: none; stroke: #4c78a8; stroke-width: 2; opacity: 0.7;"></path><path transform="translate(406.19890321364545,83.83491655744098)" d="M2.7386127875258306,0A2.7386127875258306,2.7386127875258306,0,1,1,-2.7386127875258306,0A2.7386127875258306,2.7386127875258306,0,1,1,2.7386127875258306,0" style="fill: none; stroke: #4c78a8; stroke-width: 2; opacity: 0.7;"></path><path transform="translate(406.19890321364545,83.72477763993668)" d="M2.7386127875258306,0A2.7386127875258306,2.7386127875258306,0,1,1,-2.7386127875258306,0A2.7386127875258306,2.7386127875258306,0,1,1,2.7386127875258306,0" style="fill: none; stroke: #4c78a8; stroke-width: 2; opacity: 0.7;"></path><path transform="translate(406.19890321364545,83.46395114873246)" d="M2.7386127875258306,0A2.7386127875258306,2.7386127875258306,0,1,1,-2.7386127875258306,0A2.7386127875258306,2.7386127875258306,0,1,1,2.7386127875258306,0" style="fill: none; stroke: #4c78a8; stroke-width: 2; opacity: 0.7;"></path></g></g><path class="foreground" d="" style="display: none; fill: none;"></path></g></g></g></svg>