<svg class="marks" width="655" height="439" viewBox="0 0 655 439" version="1.1" xmlns="http://www.w3.org/2000/svg" xmlns:xlink="http://www.w3.org/1999/xlink"><rect width="655" height="439" style="fill: white;"></rect><g transform="translate(74,32)"><g class="mark-group role-frame root"><g transform="translate(0,0)"><path class="background" d="M0,0h0v0h0Z" style="fill: none;"></path><g><g class="mark-group role-scope concat_0_group"><g transform="translate(0,0)"><path class="background" d="M0.5,0.5h575v275h-575Z" style="fill: none; stroke: #ddd;"></path><g><g class="mark-group role-axis"><g transform="translate(0.5,275.5)"><path class="background" d="M0,0h0v0h0Z" style="pointer-events: none; fill: none;"></path><g><g class="mark-rule role-axis-grid" style="pointer-events: none;"><line transform="translate(5,-275)" x2="0" y2="275" style="fill: none; stroke: #ddd; stroke-width: 1; opacity: 1;"></line><line transform="translate(42,-275)" x2="0" y2="275" style="fill: none; stroke: #ddd; stroke-width: 1; opacity: 1;"></line><line transform="translate(79,-275)" x2="0" y2="275" style="fill: none; stroke: #ddd; stroke-width: 1; opacity: 1;"></line><line transform="translate(116,-275)" x2="0" y2="275" style="fill: none; stroke: #ddd; stroke-width: 1; opacity: 1;"></line><line transform="translate(153,-275)" x2="0" y2="275" style="fill: none; stroke: #ddd; stroke-width: 1; opacity: 1;"></line><line transform="translate(190,-275)" x2="0" y2="275" style="fill: none; stroke: #ddd; stroke-width: 1; opacity: 1;"></line><line transform="translate(227,-275)" x2="0" y2="275" style="fill: none; stroke: #ddd; stroke-width: 1; opacity: 1;"></line><line transform="translate(264,-275)" x2="0" y2="275" style="fill: none; stroke: #ddd; stroke-width: 1; opacity: 1;"></line><line transform="translate(301,-275)" x2="0" y2="275" style="fill: none; stroke: #ddd; stroke-width: 1; opacity: 1;"></line><line transform="translate(338,-275)" x2="0" y2="275" style="fill: none; stroke: #ddd; stroke-width: 1; opacity: 1;"></line><line transform="translate(375,-275)" x2="0" y2="275" style="fill: none; stroke: #ddd; stroke-width: 1; opacity: 1;"></line><line transform="translate(411,-275)" x2="0" y2="275" style="fill: none; stroke: #ddd; stroke-width: 1; opacity: 1;"></line><line transform="translate(448,-275)" x2="0" y2="275" style="fill: none; stroke: #ddd; stroke-width: 1; opacity: 1;"></line><line transform="translate(485,-275)" x2="0" y2="275" style="fill: none; stroke: #ddd; stroke-width: 1; opacity: 1;"></line><line transform="translate(522,-275)" x2="0" y2="275" style="fill: none; stroke: #ddd; stroke-width: 1; opacity: 1;"></line><line transform="translate(559,-275)" x2="0" y2="275" style="fill: none; stroke: #ddd; stroke-width: 1; opacity: 1;"></line></g></g><path class="foreground" d="" style="pointer-events: none; display: none; fill: none;"></path></g></g><g class="mark-group role-axis"><g transform="translate(0.5,0.5)"><path class="background" d="M0,0h0v0h0Z" style="pointer-events: none; fill: none;"></path><g><g class="mark-rule role-axis-grid" style="pointer-events: none;"><line transform="translate(0,275)" x2="575" y2="0" style="fill: none; stroke: #ddd; stroke-width: 1; opacity: 1;"></line><line transform="translate(0,229)" x2="575" y2="0" style="fill: none; stroke: #ddd; stroke-width: 1; opacity: 1;"></line><line transform="translate(0,183)" x2="575" y2="0" style="fill: none; stroke: #ddd; stroke-width: 1; opacity: 1;"></line><line transform="translate(0,138)" x2="575" y2="0" style="fill: none; stroke: #ddd; stroke-width: 1; opacity: 1;"></line><line transform="translate(0,92)" x2="575" y2="0" style="fill: none; stroke: #ddd; stroke-width: 1; opacity: 1;"></line><line transform="translate(0,46)" x2="575" y2="0" style="fill: none; stroke: #ddd; stroke-width: 1; opacity: 1;"></line><line transform="translate(0,0)" x2="575" y2="0" style="fill: none; stroke: #ddd; stroke-width: 1; opacity: 1;"></line></g></g><path class="foreground" d="" style="pointer-events: none; display: none; fill: none;"></path></g></g><g class="mark-group role-axis"><g transform="translate(0.5,275.5)"><path class="background" d="M0,0h0v0h0Z" style="pointer-events: none; fill: none;"></path><g><g class="mark-rule role-axis-domain" style="pointer-events: none;"><line transform="translate(0,0)" x2="575" y2="0" style="fill: none; stroke: #888; stroke-width: 1; opacity: 1;"></line></g></g><path class="foreground" d="" style="pointer-events: none; display: none; fill: none;"></path></g></g><g class="mark-group role-axis"><g transform="translate(0.5,0.5)"><path class="background" d="M0,0h0v0h0Z" style="pointer-events: none; fill: none;"></path><g><g class="mark-rule role-axis-tick" style="pointer-events: none;"><line transform="translate(0,275)" x2="-5" y2="0" style="fill: none; stroke: #888; stroke-width: 1; opacity: 1;"></line><line transform="translate(0,229)" x2="-5" y2="0" style="fill: none; stroke: #888; stroke-width: 1; opacity: 1;"></line><line transform="translate(0,183)" x2="-5" y2="0" style="fill: none; stroke: #888; stroke-width: 1; opacity: 1;"></line><line transform="translate(0,138)" x2="-5" y2="0" style="fill: none; stroke: #888; stroke-width: 1; opacity: 1;"></line><line transform="translate(0,92)" x2="-5" y2="0" style="fill: none; stroke: #888; stroke-width: 1; opacity: 1;"></line><line transform="translate(0,46)" x2="-5" y2="0" style="fill: none; stroke: #888; stroke-width: 1; opacity: 1;"></line><line transform="translate(0,0)" x2="-5" y2="0" style="fill: none; stroke: #888; stroke-width: 1; opacity: 1;"></line></g><g class="mark-text role-axis-label" style="pointer-events: none;"><text text-anchor="end" transform="translate(-7,279)" style="font-family: sans-serif; font-size: 14px; fill: #000; opacity: 1;"></text><text text-anchor="end" transform="translate(-7,233.16666666666669)" style="font-family: sans-serif; font-size: 14px; fill: #000; opacity: 1;">2,000</text><text text-anchor="end" transform="translate(-7,187.33333333333334)" style="font-family: sans-serif; font-size: 14px; fill: #000; opacity: 1;">4,000</text><text text-anchor="end" transform="translate(-7,141.5)" style="font-family: sans-serif; font-size: 14px; fill: #000; opacity: 1;">6,000</text><text text-anchor="end" transform="translate(-7,95.66666666666667)" style="font-family: sans-serif; font-size: 14px; fill: #000; opacity: 1;">8,000</text><text text-anchor="end" transform="translate(-7,49.83333333333332)" style="font-family: sans-serif; font-size: 14px; fill: #000; opacity: 1;">10,000</text><text text-anchor="end" transform="translate(-7,4)" style="font-family: sans-serif; font-size: 14px; fill: #000; opacity: 1;">12,000</text></g><g class="mark-rule role-axis-domain" style="pointer-events: none;"><line transform="translate(0,275)" x2="0" y2="-275" style="fill: none; stroke: #888; stroke-width: 1; opacity: 1;"></line></g><g class="mark-text role-axis-title" style="pointer-events: none;"><text text-anchor="middle" transform="translate(-53.8203125,137.5) rotate(-90) translate(0,-3)" style="font-family: sans-serif; font-size: 14px; font-weight: bold; fill: #000; opacity: 1;">Resultados moleculares (promedio 7 días)</text></g></g><path class="foreground" d="" style="pointer-events: none; display: none; fill: none;"></path></g></g><g class="mark-group role-scope concat_0_pathgroup"><g transform="translate(0,0)"><path class="background" d="M0,0h575v275h-575Z" style="fill: none;"></path><g><g class="mark-area role-mark concat_0_marks"><path d="M0,260.90625L5.275229357798166,261.75416666666666L10.550458715596331,259.63055555555553L15.825688073394497,260.0239583333333L21.100917431192663,259.05L26.376146788990827,258.01493055555557L31.651376146788994,257.59970238095235L36.92660550458716,256.72232142857143L42.201834862385326,258.2348214285714L47.477064220183486,259.63928571428573L52.75229357798165,261.18125L58.02752293577982,260.74583333333334L63.30275229357799,259.66875L68.57798165137615,259.6818452380952L73.85321100917432,261.6723214285714L79.12844036697248,259.10565476190476L84.40366972477065,256.6372023809524L89.67889908256882,254.45357142857142L94.95412844036697,251.64464285714286L100.22935779816514,246.23958333333331L105.5045871559633,240.5857142857143L110.77981651376147,232.48958333333334L116.05504587155964,231.46160714285713L121.33027522935781,228.8392857142857L126.60550458715598,228.56755952380954L131.88073394495413,226.9830357142857L137.1559633027523,228.40386904761905L142.43119266055047,233.19017857142856L147.70642201834863,226.3610119047619L152.9816513761468,226.66547619047617L158.25688073394497,231.18660714285713L163.53211009174314,229.6184523809524L168.8073394495413,230.95416666666665L174.08256880733947,229.1372023809524L179.35779816513764,227.74255952380952L184.63302752293578,242.7857142857143L189.90825688073394,244.14434523809527L195.1834862385321,242.45833333333334L200.45871559633028,242.87083333333334L205.73394495412845,244.5077380952381L211.0091743119266,249.92916666666667L216.28440366972478,249.57232142857146L221.55963302752295,247.68988095238097L226.83486238532112,248.39375L232.11009174311928,246.06279761904764L237.38532110091745,247.18244047619046L242.66055045871562,243.55505952380952L247.9357798165138,242.75952380952384L253.21100917431195,233.9169642857143L258.4862385321101,233.37023809523808L263.76146788990826,230.63005952380954L269.03669724770646,232.6107142857143L274.3119266055046,234.13958333333335L279.5871559633028,239.03392857142856L284.86238532110093,239.68214285714288L290.13761467889907,247.10059523809522L295.41284403669727,246.99255952380955L300.6880733944954,249.61815476190478L305.9633027522936,250.4235119047619L311.23853211009174,247.68660714285716L316.51376146788994,246.78630952380954L321.7889908256881,245.68958333333333L327.06422018348627,246.56041666666664L332.3394495412844,247.14642857142857L337.6146788990826,247.40833333333333L342.88990825688074,246.6389880952381L348.16513761467894,247.38214285714287L353.4403669724771,246.93035714285713L358.7155963302753,245.42113095238093L363.99082568807336,246.2330357142857L369.26605504587155,237.03363095238095L374.5412844036697,236.18898809523807L379.8165137614679,234.3360119047619L385.091743119266,231.62857142857143L390.3669724770642,228.3907738095238L395.64220183486236,224.5375L400.91743119266056,218.84107142857144L406.1926605504587,227.6574404761905L411.4678899082569,227.8440476190476L416.74311926605503,228.10922619047616L422.0183486238532,226.35773809523806L427.29357798165137,229.20267857142855L432.56880733944956,234.42767857142857L437.8440366972477,238.7327380952381L443.1192660550459,238.81458333333333L448.39449541284404,227.88660714285712L453.66972477064223,231.19970238095237L458.9449541284404,236.37559523809523L464.22018348623857,235.4425595238095L469.4954128440367,234.93511904761903L474.7706422018349,232.63035714285712L480.04587155963304,232.5125L485.32110091743124,243.56488095238095L490.5963302752294,242.61220238095237L495.8715596330276,236.99761904761905L501.1467889908257,229.20267857142855L506.4220183486239,220.67440476190475L511.697247706422,220.4485119047619L516.9724770642202,220.64166666666665L522.2477064220184,211.39970238095236L527.5229357798165,210.3848214285714L532.7981651376147,209.9002976190476L538.0733944954129,218.5333333333333L543.348623853211,212.47351190476186L548.6238532110092,202.86488095238093L553.8990825688073,202.35416666666663L559.1743119266056,211.1410714285714L564.4495412844037,209.81845238095235L569.7247706422019,211.7565476190476L575,202.33452380952377L575,275L569.7247706422019,275L564.4495412844037,275L559.1743119266056,275L553.8990825688073,275L548.6238532110092,275L543.348623853211,275L538.0733944954129,275L532.7981651376147,275L527.5229357798165,275L522.2477064220184,275L516.9724770642202,275L511.697247706422,275L506.4220183486239,275L501.1467889908257,275L495.8715596330276,275L490.5963302752294,275L485.32110091743124,275L480.04587155963304,275L474.7706422018349,275L469.4954128440367,275L464.22018348623857,275L458.9449541284404,275L453.66972477064223,275L448.39449541284404,275L443.1192660550459,275L437.8440366972477,275L432.56880733944956,275L427.29357798165137,275L422.0183486238532,275L416.74311926605503,275L411.4678899082569,275L406.1926605504587,275L400.91743119266056,275L395.64220183486236,275L390.3669724770642,275L385.091743119266,275L379.8165137614679,275L374.5412844036697,275L369.26605504587155,275L363.99082568807336,275L358.7155963302753,275L353.4403669724771,275L348.16513761467894,275L342.88990825688074,275L337.6146788990826,275L332.3394495412844,275L327.06422018348627,275L321.7889908256881,275L316.51376146788994,275L311.23853211009174,275L305.9633027522936,275L300.6880733944954,275L295.41284403669727,275L290.13761467889907,275L284.86238532110093,275L279.5871559633028,275L274.3119266055046,275L269.03669724770646,275L263.76146788990826,275L258.4862385321101,275L253.21100917431195,275L247.9357798165138,275L242.66055045871562,275L237.38532110091745,275L232.11009174311928,275L226.83486238532112,275L221.55963302752295,275L216.28440366972478,275L211.0091743119266,275L205.73394495412845,275L200.45871559633028,275L195.1834862385321,275L189.90825688073394,275L184.63302752293578,275L179.35779816513764,275L174.08256880733947,275L168.8073394495413,275L163.53211009174314,275L158.25688073394497,275L152.9816513761468,275L147.70642201834863,275L142.43119266055047,275L137.1559633027523,275L131.88073394495413,275L126.60550458715598,275L121.33027522935781,275L116.05504587155964,275L110.77981651376147,275L105.5045871559633,275L100.22935779816514,275L94.95412844036697,275L89.67889908256882,275L84.40366972477065,275L79.12844036697248,275L73.85321100917432,275L68.57798165137615,275L63.30275229357799,275L58.02752293577982,275L52.75229357798165,275L47.477064220183486,275L42.201834862385326,275L36.92660550458716,275L31.651376146788994,275L26.376146788990827,275L21.100917431192663,275L15.825688073394497,275L10.550458715596331,275L5.275229357798166,275L0,275Z" style="fill: rgb(100, 188, 97); opacity: 0.85;"></path></g></g><path class="foreground" d="" style="display: none; fill: none;"></path></g><g transform="translate(0,0)"><path class="background" d="M0,0h575v275h-575Z" style="fill: none;"></path><g><g class="mark-area role-mark concat_0_marks"><path d="M0,257.1020833333333L5.275229357798166,259.26770833333336L10.550458715596331,237.6916666666667L15.825688073394497,230.7078125L21.100917431192663,230.44541666666666L26.376146788990827,230.63715277777777L31.651376146788994,232.29642857142858L36.92660550458716,229.23541666666668L42.201834862385326,229.41875L47.477064220183486,234.3327380952381L52.75229357798165,239.94732142857143L58.02752293577982,238.7654761904762L63.30275229357799,237.0860119047619L68.57798165137615,236.0809523809524L73.85321100917432,238.975L79.12844036697248,234.38839285714286L84.40366972477065,234.1297619047619L89.67889908256882,233.66488095238097L94.95412844036697,233.24255952380952L100.22935779816514,230.6955357142857L105.5045871559633,226.6065476190476L110.77981651376147,218.49077380952383L116.05504587155964,216.51339285714286L121.33027522935781,213.52113095238096L126.60550458715598,210.82351190476192L131.88073394495413,209.57291666666666L137.1559633027523,208.6889880952381L142.43119266055047,213.83214285714286L147.70642201834863,198.90357142857144L152.9816513761468,202.92708333333334L158.25688073394497,209.21279761904762L163.53211009174314,201.2214285714286L168.8073394495413,197.77410714285713L174.08256880733947,197.39761904761906L179.35779816513764,196.16011904761905L184.63302752293578,221.12619047619052L189.90825688073394,223.17232142857145L195.1834862385321,208.87232142857144L200.45871559633028,212.82380952380956L205.73394495412845,214.98125000000002L211.0091743119266,220.98541666666668L216.28440366972478,220.25863095238097L221.55963302752295,218.2452380952381L226.83486238532112,212.97440476190476L232.11009174311928,209.41904761904763L237.38532110091745,215.18422619047624L242.66055045871562,214.58511904761906L247.9357798165138,213.53422619047623L253.21100917431195,199.0901785714286L258.4862385321101,198.38958333333338L263.76146788990826,198.53363095238095L269.03669724770646,206.96041666666667L274.3119266055046,208.98690476190478L279.5871559633028,214.13333333333335L284.86238532110093,215.33482142857144L290.13761467889907,227.54940476190478L295.41284403669727,224.6619047619048L300.6880733944954,230.36160714285717L305.9633027522936,221.04761904761907L311.23853211009174,210.08690476190478L316.51376146788994,205.70982142857144L321.7889908256881,204.36755952380958L327.06422018348627,206.1747023809524L332.3394495412844,209.6842261904762L337.6146788990826,209.89702380952383L342.88990825688074,205.1369047619048L348.16513761467894,208.63660714285717L353.4403669724771,212.3L358.7155963302753,195.2139880952381L363.99082568807336,193.65565476190477L369.26605504587155,169.57023809523812L374.5412844036697,166.62380952380954L379.8165137614679,181.29375000000005L385.091743119266,175.21428571428575L390.3669724770642,168.60119047619048L395.64220183486236,177.83333333333334L400.91743119266056,170.93214285714288L406.1926605504587,194.41845238095237L411.4678899082569,196.70357142857142L416.74311926605503,193.9077380952381L422.0183486238532,196.19285714285715L427.29357798165137,203.14315476190475L432.56880733944956,211.38660714285712L437.8440366972477,219.42380952380952L443.1192660550459,219.41398809523807L448.39449541284404,190.2967261904762L453.66972477064223,201.42113095238093L458.9449541284404,209.54017857142856L464.22018348623857,206.61011904761904L469.4954128440367,201.32291666666666L474.7706422018349,194.26458333333335L480.04587155963304,194.31369047619046L485.32110091743124,218.68065476190475L490.5963302752294,215.23988095238096L495.8715596330276,181.3657738095238L501.1467889908257,171.5672619047619L506.4220183486239,162.92440476190475L511.697247706422,165.2815476190476L516.9724770642202,165.43869047619046L522.2477064220184,148.0220238095238L527.5229357798165,148.15297619047615L532.7981651376147,166.9773809523809L538.0733944954129,178.5863095238095L543.348623853211,169.39345238095234L548.6238532110092,153.46964285714282L553.8990825688073,152.76904761904763L559.1743119266056,174.04880952380947L564.4495412844037,171.99613095238092L569.7247706422019,167.32767857142855L575,151.84910714285715L575,202.33452380952377L569.7247706422019,211.7565476190476L564.4495412844037,209.81845238095235L559.1743119266056,211.1410714285714L553.8990825688073,202.35416666666663L548.6238532110092,202.86488095238093L543.348623853211,212.47351190476186L538.0733944954129,218.5333333333333L532.7981651376147,209.9002976190476L527.5229357798165,210.3848214285714L522.2477064220184,211.39970238095236L516.9724770642202,220.64166666666665L511.697247706422,220.4485119047619L506.4220183486239,220.67440476190475L501.1467889908257,229.20267857142855L495.8715596330276,236.99761904761905L490.5963302752294,242.61220238095237L485.32110091743124,243.56488095238095L480.04587155963304,232.5125L474.7706422018349,232.63035714285712L469.4954128440367,234.93511904761903L464.22018348623857,235.4425595238095L458.9449541284404,236.37559523809523L453.66972477064223,231.19970238095237L448.39449541284404,227.88660714285712L443.1192660550459,238.81458333333333L437.8440366972477,238.7327380952381L432.56880733944956,234.42767857142857L427.29357798165137,229.20267857142855L422.0183486238532,226.35773809523806L416.74311926605503,228.10922619047616L411.4678899082569,227.8440476190476L406.1926605504587,227.6574404761905L400.91743119266056,218.84107142857144L395.64220183486236,224.5375L390.3669724770642,228.3907738095238L385.091743119266,231.62857142857143L379.8165137614679,234.3360119047619L374.5412844036697,236.18898809523807L369.26605504587155,237.03363095238095L363.99082568807336,246.2330357142857L358.7155963302753,245.42113095238093L353.4403669724771,246.93035714285713L348.16513761467894,247.38214285714287L342.88990825688074,246.6389880952381L337.6146788990826,247.40833333333333L332.3394495412844,247.14642857142857L327.06422018348627,246.56041666666664L321.7889908256881,245.68958333333333L316.51376146788994,246.78630952380954L311.23853211009174,247.68660714285716L305.9633027522936,250.4235119047619L300.6880733944954,249.61815476190478L295.41284403669727,246.99255952380955L290.13761467889907,247.10059523809522L284.86238532110093,239.68214285714288L279.5871559633028,239.03392857142856L274.3119266055046,234.13958333333335L269.03669724770646,232.6107142857143L263.76146788990826,230.63005952380954L258.4862385321101,233.37023809523808L253.21100917431195,233.9169642857143L247.9357798165138,242.75952380952384L242.66055045871562,243.55505952380952L237.38532110091745,247.18244047619046L232.11009174311928,246.06279761904764L226.83486238532112,248.39375L221.55963302752295,247.68988095238097L216.28440366972478,249.57232142857146L211.0091743119266,249.92916666666667L205.73394495412845,244.5077380952381L200.45871559633028,242.87083333333334L195.1834862385321,242.45833333333334L189.90825688073394,244.14434523809527L184.63302752293578,242.7857142857143L179.35779816513764,227.74255952380952L174.08256880733947,229.1372023809524L168.8073394495413,230.95416666666665L163.53211009174314,229.6184523809524L158.25688073394497,231.18660714285713L152.9816513761468,226.66547619047617L147.70642201834863,226.3610119047619L142.43119266055047,233.19017857142856L137.1559633027523,228.40386904761905L131.88073394495413,226.9830357142857L126.60550458715598,228.56755952380954L121.33027522935781,228.8392857142857L116.05504587155964,231.46160714285713L110.77981651376147,232.48958333333334L105.5045871559633,240.5857142857143L100.22935779816514,246.23958333333331L94.95412844036697,251.64464285714286L89.67889908256882,254.45357142857142L84.40366972477065,256.6372023809524L79.12844036697248,259.10565476190476L73.85321100917432,261.6723214285714L68.57798165137615,259.6818452380952L63.30275229357799,259.66875L58.02752293577982,260.74583333333334L52.75229357798165,261.18125L47.477064220183486,259.63928571428573L42.201834862385326,258.2348214285714L36.92660550458716,256.72232142857143L31.651376146788994,257.59970238095235L26.376146788990827,258.01493055555557L21.100917431192663,259.05L15.825688073394497,260.0239583333333L10.550458715596331,259.63055555555553L5.275229357798166,261.75416666666666L0,260.90625Z" style="fill: rgb(215, 238, 142); opacity: 0.85;"></path></g></g><path class="foreground" d="" style="display: none; fill: none;"></path></g><g transform="translate(0,0)"><path class="background" d="M0,0h575v275h-575Z" style="fill: none;"></path><g><g class="mark-area role-mark concat_0_marks"><path d="M0,256.1166666666667L5.275229357798166,257.89270833333336L10.550458715596331,230.25902777777776L15.825688073394497,215.64583333333334L21.100917431192663,212.19916666666668L26.376146788990827,211.52465277777776L31.651376146788994,212.04136904761904L36.92660550458716,202.39017857142855L42.201834862385326,202.76339285714286L47.477064220183486,204.18422619047618L52.75229357798165,213.90416666666667L58.02752293577982,205.62470238095239L63.30275229357799,200.6190476190476L68.57798165137615,202.20357142857145L73.85321100917432,211.10505952380953L79.12844036697248,205.91279761904764L84.40366972477065,210.99375L89.67889908256882,211.21636904761905L94.95412844036697,221.69910714285714L100.22935779816514,224.91726190476192L105.5045871559633,221.28005952380954L110.77981651376147,213.61607142857144L116.05504587155964,207.73303571428573L121.33027522935781,205.1827380952381L126.60550458715598,202.74374999999998L131.88073394495413,201.81726190476192L137.1559633027523,200.9202380952381L142.43119266055047,206.24345238095242L147.70642201834863,191.25595238095238L152.9816513761468,199.67291666666668L158.25688073394497,205.95208333333335L163.53211009174314,197.06369047619046L168.8073394495413,193.20714285714288L174.08256880733947,193.6261904761905L179.35779816513764,192.9059523809524L184.63302752293578,218.18303571428575L189.90825688073394,220.38958333333338L195.1834862385321,206.33511904761906L200.45871559633028,211.3702380952381L205.73394495412845,213.81250000000003L211.0091743119266,219.67916666666667L216.28440366972478,218.36964285714288L221.55963302752295,216.35625000000002L226.83486238532112,204.81607142857146L232.11009174311928,198.9919642857143L237.38532110091745,204.6949404761905L242.66055045871562,204.23660714285717L247.9357798165138,202.95654761904765L253.21100917431195,188.75476190476192L258.4862385321101,187.93303571428575L263.76146788990826,194.1401785714286L269.03669724770646,204.78005952380954L274.3119266055046,206.74761904761908L279.5871559633028,211.30476190476193L284.86238532110093,212.69613095238097L290.13761467889907,225.01875000000004L295.41284403669727,221.92172619047622L300.6880733944954,227.72291666666672L305.9633027522936,218.06845238095238L311.23853211009174,207.13065476190476L316.51376146788994,203.1791666666667L321.7889908256881,201.9416666666667L327.06422018348627,202.3410714285714L332.3394495412844,205.88333333333338L337.6146788990826,206.22053571428572L342.88990825688074,194.50029761904764L348.16513761467894,192.76190476190476L353.4403669724771,196.33035714285717L358.7155963302753,171.583630952381L363.99082568807336,171.35446428571433L369.26605504587155,143.97886904761907L374.5412844036697,140.94732142857143L379.8165137614679,162.78035714285716L385.091743119266,161.6541666666667L390.3669724770642,155.0901785714286L395.64220183486236,171.72767857142856L400.91743119266056,165.08839285714288L406.1926605504587,192.08095238095237L411.4678899082569,194.3627976190476L416.74311926605503,191.65535714285713L422.0183486238532,194.2252976190476L427.29357798165137,197.2404761904762L432.56880733944956,205.67708333333331L437.8440366972477,213.73392857142855L443.1192660550459,213.66845238095237L448.39449541284404,183.7752976190476L453.66972477064223,194.98482142857142L458.9449541284404,202.76011904761904L464.22018348623857,202.95654761904763L469.4954128440367,193.9470238095238L474.7706422018349,181.79791666666668L480.04587155963304,174.94910714285714L485.32110091743124,191.95982142857142L490.5963302752294,188.1982142857143L495.8715596330276,148.57529761904763L501.1467889908257,139.84404761904764L506.4220183486239,129.85565476190473L511.697247706422,135.2017857142857L516.9724770642202,142.3190476190476L522.2477064220184,125.76666666666668L527.5229357798165,126.39196428571427L532.7981651376147,151.11249999999995L538.0733944954129,162.2991071428571L543.348623853211,154.18333333333334L548.6238532110092,140.17142857142852L553.8990825688073,139.5297619047619L559.1743119266056,168.0773809523809L564.4495412844037,165.9592261904762L569.7247706422019,158.26904761904763L575,142.59404761904761L575,151.84910714285715L569.7247706422019,167.32767857142855L564.4495412844037,171.99613095238092L559.1743119266056,174.04880952380947L553.8990825688073,152.76904761904763L548.6238532110092,153.46964285714282L543.348623853211,169.39345238095234L538.0733944954129,178.5863095238095L532.7981651376147,166.9773809523809L527.5229357798165,148.15297619047615L522.2477064220184,148.0220238095238L516.9724770642202,165.43869047619046L511.697247706422,165.2815476190476L506.4220183486239,162.92440476190475L501.1467889908257,171.5672619047619L495.8715596330276,181.3657738095238L490.5963302752294,215.23988095238096L485.32110091743124,218.68065476190475L480.04587155963304,194.31369047619046L474.7706422018349,194.26458333333335L469.4954128440367,201.32291666666666L464.22018348623857,206.61011904761904L458.9449541284404,209.54017857142856L453.66972477064223,201.42113095238093L448.39449541284404,190.2967261904762L443.1192660550459,219.41398809523807L437.8440366972477,219.42380952380952L432.56880733944956,211.38660714285712L427.29357798165137,203.14315476190475L422.0183486238532,196.19285714285715L416.74311926605503,193.9077380952381L411.4678899082569,196.70357142857142L406.1926605504587,194.41845238095237L400.91743119266056,170.93214285714288L395.64220183486236,177.83333333333334L390.3669724770642,168.60119047619048L385.091743119266,175.21428571428575L379.8165137614679,181.29375000000005L374.5412844036697,166.62380952380954L369.26605504587155,169.57023809523812L363.99082568807336,193.65565476190477L358.7155963302753,195.2139880952381L353.4403669724771,212.3L348.16513761467894,208.63660714285717L342.88990825688074,205.1369047619048L337.6146788990826,209.89702380952383L332.3394495412844,209.6842261904762L327.06422018348627,206.1747023809524L321.7889908256881,204.36755952380958L316.51376146788994,205.70982142857144L311.23853211009174,210.08690476190478L305.9633027522936,221.04761904761907L300.6880733944954,230.36160714285717L295.41284403669727,224.6619047619048L290.13761467889907,227.54940476190478L284.86238532110093,215.33482142857144L279.5871559633028,214.13333333333335L274.3119266055046,208.98690476190478L269.03669724770646,206.96041666666667L263.76146788990826,198.53363095238095L258.4862385321101,198.38958333333338L253.21100917431195,199.0901785714286L247.9357798165138,213.53422619047623L242.66055045871562,214.58511904761906L237.38532110091745,215.18422619047624L232.11009174311928,209.41904761904763L226.83486238532112,212.97440476190476L221.55963302752295,218.2452380952381L216.28440366972478,220.25863095238097L211.0091743119266,220.98541666666668L205.73394495412845,214.98125000000002L200.45871559633028,212.82380952380956L195.1834862385321,208.87232142857144L189.90825688073394,223.17232142857145L184.63302752293578,221.12619047619052L179.35779816513764,196.16011904761905L174.08256880733947,197.39761904761906L168.8073394495413,197.77410714285713L163.53211009174314,201.2214285714286L158.25688073394497,209.21279761904762L152.9816513761468,202.92708333333334L147.70642201834863,198.90357142857144L142.43119266055047,213.83214285714286L137.1559633027523,208.6889880952381L131.88073394495413,209.57291666666666L126.60550458715598,210.82351190476192L121.33027522935781,213.52113095238096L116.05504587155964,216.51339285714286L110.77981651376147,218.49077380952383L105.5045871559633,226.6065476190476L100.22935779816514,230.6955357142857L94.95412844036697,233.24255952380952L89.67889908256882,233.66488095238097L84.40366972477065,234.1297619047619L79.12844036697248,234.38839285714286L73.85321100917432,238.975L68.57798165137615,236.0809523809524L63.30275229357799,237.0860119047619L58.02752293577982,238.7654761904762L52.75229357798165,239.94732142857143L47.477064220183486,234.3327380952381L42.201834862385326,229.41875L36.92660550458716,229.23541666666668L31.651376146788994,232.29642857142858L26.376146788990827,230.63715277777777L21.100917431192663,230.44541666666666L15.825688073394497,230.7078125L10.550458715596331,237.6916666666667L5.275229357798166,259.26770833333336L0,257.1020833333333Z" style="fill: rgb(254, 221, 141); opacity: 0.85;"></path></g></g><path class="foreground" d="" style="display: none; fill: none;"></path></g><g transform="translate(0,0)"><path class="background" d="M0,0h575v275h-575Z" style="fill: none;"></path><g><g class="mark-area role-mark concat_0_marks"><path d="M0,255.95624999999998L5.275229357798166,257.7552083333333L10.550458715596331,228.49444444444444L15.825688073394497,209.69322916666667L21.100917431192663,205.56708333333333L26.376146788990827,204.83680555555554L31.651376146788994,205.26130952380953L36.92660550458716,195.1190476190476L42.201834862385326,195.43988095238095L47.477064220183486,194.12380952380954L52.75229357798165,205.40208333333334L58.02752293577982,189.80238095238096L63.30275229357799,170.5654761904762L68.57798165137615,170.60803571428573L73.85321100917432,179.47678571428574L79.12844036697248,173.08303571428573L84.40366972477065,180.71101190476188L89.67889908256882,181.44434523809522L94.95412844036697,198.81845238095238L100.22935779816514,214.66369047619048L105.5045871559633,206.72797619047617L110.77981651376147,198.52708333333334L116.05504587155964,184.2172619047619L121.33027522935781,174.64791666666667L126.60550458715598,167.48809523809524L131.88073394495413,164.15208333333334L137.1559633027523,153.9410714285714L142.43119266055047,165.04910714285714L147.70642201834863,144.48630952380952L152.9816513761468,162.49226190476188L158.25688073394497,175.90178571428572L163.53211009174314,167.44226190476192L168.8073394495413,157.52589285714285L174.08256880733947,167.6419642857143L179.35779816513764,167.3735119047619L184.63302752293578,199.23095238095237L189.90825688073394,201.4669642857143L195.1834862385321,181.2610119047619L200.45871559633028,190.62083333333334L205.73394495412845,202.7339285714286L211.0091743119266,209.93958333333336L216.28440366972478,208.5514880952381L221.55963302752295,206.60357142857146L226.83486238532112,194.94226190476192L232.11009174311928,194.35625L237.38532110091745,200.13452380952384L242.66055045871562,197.7184523809524L247.9357798165138,196.12083333333334L253.21100917431195,178.76309523809522L258.4862385321101,177.53869047619048L263.76146788990826,183.68690476190477L269.03669724770646,194.96517857142857L274.3119266055046,196.81488095238095L279.5871559633028,203.14642857142857L284.86238532110093,205.13035714285715L290.13761467889907,220.22916666666669L295.41284403669727,217.13214285714287L300.6880733944954,223.0151785714286L305.9633027522936,212.99404761904765L311.23853211009174,201.9842261904762L316.51376146788994,195.35803571428568L321.7889908256881,184.58065476190475L327.06422018348627,184.89166666666668L332.3394495412844,188.79404761904763L337.6146788990826,189.2720238095238L342.88990825688074,176.10148809523815L348.16513761467894,172.41517857142856L353.4403669724771,178.68779761904761L358.7155963302753,132.13095238095238L363.99082568807336,52.69523809523812L369.26605504587155,24.763095238095296L374.5412844036697,21.512202380952388L379.8165137614679,45.194940476190524L385.091743119266,46.127976190476254L390.3669724770642,39.59672619047624L395.64220183486236,87.7315476190476L400.91743119266056,161.12380952380954L406.1926605504587,188.49613095238095L411.4678899082569,190.9907738095238L416.74311926605503,188.40119047619046L422.0183486238532,190.7779761904762L427.29357798165137,159.54583333333335L432.56880733944956,92.77976190476193L437.8440366972477,95.52321428571427L443.1192660550459,95.68363095238095L448.39449541284404,65.82648809523813L453.66972477064223,77.4714285714286L458.9449541284404,85.45952380952384L464.22018348623857,119.89672619047619L469.4954128440367,163.92619047619044L474.7706422018349,155.11309523809527L480.04587155963304,140.67886904761906L485.32110091743124,154.22589285714287L490.5963302752294,149.7669642857143L495.8715596330276,109.36488095238097L501.1467889908257,98.43035714285719L506.4220183486239,107.9767857142857L511.697247706422,101.89732142857143L516.9724770642202,61.76041666666667L522.2477064220184,8.35476190476191L527.5229357798165,9.418750000000001L532.7981651376147,34.928273809523795L538.0733944954129,48.50148809523809L543.348623853211,43.10624999999998L548.6238532110092,30.511904761904752L553.8990825688073,84.46428571428572L559.1743119266056,153.15863095238095L564.4495412844037,151.72470238095238L569.7247706422019,144.46339285714285L575,128.79494047619048L575,142.59404761904761L569.7247706422019,158.26904761904763L564.4495412844037,165.9592261904762L559.1743119266056,168.0773809523809L553.8990825688073,139.5297619047619L548.6238532110092,140.17142857142852L543.348623853211,154.18333333333334L538.0733944954129,162.2991071428571L532.7981651376147,151.11249999999995L527.5229357798165,126.39196428571427L522.2477064220184,125.76666666666668L516.9724770642202,142.3190476190476L511.697247706422,135.2017857142857L506.4220183486239,129.85565476190473L501.1467889908257,139.84404761904764L495.8715596330276,148.57529761904763L490.5963302752294,188.1982142857143L485.32110091743124,191.95982142857142L480.04587155963304,174.94910714285714L474.7706422018349,181.79791666666668L469.4954128440367,193.9470238095238L464.22018348623857,202.95654761904763L458.9449541284404,202.76011904761904L453.66972477064223,194.98482142857142L448.39449541284404,183.7752976190476L443.1192660550459,213.66845238095237L437.8440366972477,213.73392857142855L432.56880733944956,205.67708333333331L427.29357798165137,197.2404761904762L422.0183486238532,194.2252976190476L416.74311926605503,191.65535714285713L411.4678899082569,194.3627976190476L406.1926605504587,192.08095238095237L400.91743119266056,165.08839285714288L395.64220183486236,171.72767857142856L390.3669724770642,155.0901785714286L385.091743119266,161.6541666666667L379.8165137614679,162.78035714285716L374.5412844036697,140.94732142857143L369.26605504587155,143.97886904761907L363.99082568807336,171.35446428571433L358.7155963302753,171.583630952381L353.4403669724771,196.33035714285717L348.16513761467894,192.76190476190476L342.88990825688074,194.50029761904764L337.6146788990826,206.22053571428572L332.3394495412844,205.88333333333338L327.06422018348627,202.3410714285714L321.7889908256881,201.9416666666667L316.51376146788994,203.1791666666667L311.23853211009174,207.13065476190476L305.9633027522936,218.06845238095238L300.6880733944954,227.72291666666672L295.41284403669727,221.92172619047622L290.13761467889907,225.01875000000004L284.86238532110093,212.69613095238097L279.5871559633028,211.30476190476193L274.3119266055046,206.74761904761908L269.03669724770646,204.78005952380954L263.76146788990826,194.1401785714286L258.4862385321101,187.93303571428575L253.21100917431195,188.75476190476192L247.9357798165138,202.95654761904765L242.66055045871562,204.23660714285717L237.38532110091745,204.6949404761905L232.11009174311928,198.9919642857143L226.83486238532112,204.81607142857146L221.55963302752295,216.35625000000002L216.28440366972478,218.36964285714288L211.0091743119266,219.67916666666667L205.73394495412845,213.81250000000003L200.45871559633028,211.3702380952381L195.1834862385321,206.33511904761906L189.90825688073394,220.38958333333338L184.63302752293578,218.18303571428575L179.35779816513764,192.9059523809524L174.08256880733947,193.6261904761905L168.8073394495413,193.20714285714288L163.53211009174314,197.06369047619046L158.25688073394497,205.95208333333335L152.9816513761468,199.67291666666668L147.70642201834863,191.25595238095238L142.43119266055047,206.24345238095242L137.1559633027523,200.9202380952381L131.88073394495413,201.81726190476192L126.60550458715598,202.74374999999998L121.33027522935781,205.1827380952381L116.05504587155964,207.73303571428573L110.77981651376147,213.61607142857144L105.5045871559633,221.28005952380954L100.22935779816514,224.91726190476192L94.95412844036697,221.69910714285714L89.67889908256882,211.21636904761905L84.40366972477065,210.99375L79.12844036697248,205.91279761904764L73.85321100917432,211.10505952380953L68.57798165137615,202.20357142857145L63.30275229357799,200.6190476190476L58.02752293577982,205.62470238095239L52.75229357798165,213.90416666666667L47.477064220183486,204.18422619047618L42.201834862385326,202.76339285714286L36.92660550458716,202.39017857142855L31.651376146788994,212.04136904761904L26.376146788990827,211.52465277777776L21.100917431192663,212.19916666666668L15.825688073394497,215.64583333333334L10.550458715596331,230.25902777777776L5.275229357798166,257.89270833333336L0,256.1166666666667Z" style="fill: rgb(241, 110, 67); opacity: 0.85;"></path></g></g><path class="foreground" d="" style="display: none; fill: none;"></path></g></g></g><path class="foreground" d="" style="display: none; fill: none;"></path></g></g><g class="mark-group role-scope concat_1_group"><g transform="translate(0,287)"><path class="background" d="M0.5,0.5h575v75h-575Z" style="fill: none; stroke: #ddd;"></path><g><g class="mark-group role-axis"><g transform="translate(0.5,75.5)"><path class="background" d="M0,0h0v0h0Z" style="pointer-events: none; fill: none;"></path><g><g class="mark-rule role-axis-grid" style="pointer-events: none;"><line transform="translate(5,-75)" x2="0" y2="75" style="fill: none; stroke: #ddd; stroke-width: 1; opacity: 1;"></line><line transform="translate(42,-75)" x2="0" y2="75" style="fill: none; stroke: #ddd; stroke-width: 1; opacity: 1;"></line><line transform="translate(79,-75)" x2="0" y2="75" style="fill: none; stroke: #ddd; stroke-width: 1; opacity: 1;"></line><line transform="translate(116,-75)" x2="0" y2="75" style="fill: none; stroke: #ddd; stroke-width: 1; opacity: 1;"></line><line transform="translate(153,-75)" x2="0" y2="75" style="fill: none; stroke: #ddd; stroke-width: 1; opacity: 1;"></line><line transform="translate(190,-75)" x2="0" y2="75" style="fill: none; stroke: #ddd; stroke-width: 1; opacity: 1;"></line><line transform="translate(227,-75)" x2="0" y2="75" style="fill: none; stroke: #ddd; stroke-width: 1; opacity: 1;"></line><line transform="translate(264,-75)" x2="0" y2="75" style="fill: none; stroke: #ddd; stroke-width: 1; opacity: 1;"></line><line transform="translate(301,-75)" x2="0" y2="75" style="fill: none; stroke: #ddd; stroke-width: 1; opacity: 1;"></line><line transform="translate(338,-75)" x2="0" y2="75" style="fill: none; stroke: #ddd; stroke-width: 1; opacity: 1;"></line><line transform="translate(375,-75)" x2="0" y2="75" style="fill: none; stroke: #ddd; stroke-width: 1; opacity: 1;"></line><line transform="translate(411,-75)" x2="0" y2="75" style="fill: none; stroke: #ddd; stroke-width: 1; opacity: 1;"></line><line transform="translate(448,-75)" x2="0" y2="75" style="fill: none; stroke: #ddd; stroke-width: 1; opacity: 1;"></line><line transform="translate(485,-75)" x2="0" y2="75" style="fill: none; stroke: #ddd; stroke-width: 1; opacity: 1;"></line><line transform="translate(522,-75)" x2="0" y2="75" style="fill: none; stroke: #ddd; stroke-width: 1; opacity: 1;"></line><line transform="translate(559,-75)" x2="0" y2="75" style="fill: none; stroke: #ddd; stroke-width: 1; opacity: 1;"></line></g></g><path class="foreground" d="" style="pointer-events: none; display: none; fill: none;"></path></g></g><g class="mark-group role-axis"><g transform="translate(0.5,0.5)"><path class="background" d="M0,0h0v0h0Z" style="pointer-events: none; fill: none;"></path><g><g class="mark-rule role-axis-grid" style="pointer-events: none;"><line transform="translate(0,75)" x2="575" y2="0" style="fill: none; stroke: #ddd; stroke-width: 1; opacity: 1;"></line><line transform="translate(0,38)" x2="575" y2="0" style="fill: none; stroke: #ddd; stroke-width: 1; opacity: 1;"></line><line transform="translate(0,0)" x2="575" y2="0" style="fill: none; stroke: #ddd; stroke-width: 1; opacity: 1;"></line></g></g><path class="foreground" d="" style="pointer-events: none; display: none; fill: none;"></path></g></g><g class="mark-group role-axis"><g transform="translate(0.5,75.5)"><path class="background" d="M0,0h0v0h0Z" style="pointer-events: none; fill: none;"></path><g><g class="mark-rule role-axis-tick" style="pointer-events: none;"><line transform="translate(5,0)" x2="0" y2="5" style="fill: none; stroke: #888; stroke-width: 1; opacity: 1;"></line><line transform="translate(42,0)" x2="0" y2="5" style="fill: none; stroke: #888; stroke-width: 1; opacity: 1;"></line><line transform="translate(79,0)" x2="0" y2="5" style="fill: none; stroke: #888; stroke-width: 1; opacity: 1;"></line><line transform="translate(116,0)" x2="0" y2="5" style="fill: none; stroke: #888; stroke-width: 1; opacity: 1;"></line><line transform="translate(153,0)" x2="0" y2="5" style="fill: none; stroke: #888; stroke-width: 1; opacity: 1;"></line><line transform="translate(190,0)" x2="0" y2="5" style="fill: none; stroke: #888; stroke-width: 1; opacity: 1;"></line><line transform="translate(227,0)" x2="0" y2="5" style="fill: none; stroke: #888; stroke-width: 1; opacity: 1;"></line><line transform="translate(264,0)" x2="0" y2="5" style="fill: none; stroke: #888; stroke-width: 1; opacity: 1;"></line><line transform="translate(301,0)" x2="0" y2="5" style="fill: none; stroke: #888; stroke-width: 1; opacity: 1;"></line><line transform="translate(338,0)" x2="0" y2="5" style="fill: none; stroke: #888; stroke-width: 1; opacity: 1;"></line><line transform="translate(375,0)" x2="0" y2="5" style="fill: none; stroke: #888; stroke-width: 1; opacity: 1;"></line><line transform="translate(411,0)" x2="0" y2="5" style="fill: none; stroke: #888; stroke-width: 1; opacity: 1;"></line><line transform="translate(448,0)" x2="0" y2="5" style="fill: none; stroke: #888; stroke-width: 1; opacity: 1;"></line><line transform="translate(485,0)" x2="0" y2="5" style="fill: none; stroke: #888; stroke-width: 1; opacity: 1;"></line><line transform="translate(522,0)" x2="0" y2="5" style="fill: none; stroke: #888; stroke-width: 1; opacity: 1;"></line><line transform="translate(559,0)" x2="0" y2="5" style="fill: none; stroke: #888; stroke-width: 1; opacity: 1;"></line></g><g class="mark-text role-axis-label" style="pointer-events: none;"><text text-anchor="middle" transform="translate(5.275229357798166,18)" style="font-family: sans-serif; font-size: 14px; fill: #000; opacity: 1;">jul 19</text><text text-anchor="middle" transform="translate(42.201834862385326,18)" style="font-family: sans-serif; font-size: 14px; fill: #000; opacity: 0;">jul 26</text><text text-anchor="middle" transform="translate(79.12844036697248,18)" style="font-family: sans-serif; font-size: 14px; fill: #000; opacity: 1;">ago 02</text><text text-anchor="middle" transform="translate(116.05504587155964,18)" style="font-family: sans-serif; font-size: 14px; fill: #000; opacity: 0;">ago 09</text><text text-anchor="middle" transform="translate(152.9816513761468,18)" style="font-family: sans-serif; font-size: 14px; fill: #000; opacity: 1;">ago 16</text><text text-anchor="middle" transform="translate(189.90825688073394,18)" style="font-family: sans-serif; font-size: 14px; fill: #000; opacity: 0;">ago 23</text><text text-anchor="middle" transform="translate(226.83486238532112,18)" style="font-family: sans-serif; font-size: 14px; fill: #000; opacity: 1;">ago 30</text><text text-anchor="middle" transform="translate(263.76146788990826,18)" style="font-family: sans-serif; font-size: 14px; fill: #000; opacity: 0;">sep 06</text><text text-anchor="middle" transform="translate(300.6880733944954,18)" style="font-family: sans-serif; font-size: 14px; fill: #000; opacity: 1;">sep 13</text><text text-anchor="middle" transform="translate(337.6146788990826,18)" style="font-family: sans-serif; font-size: 14px; fill: #000; opacity: 0;">sep 20</text><text text-anchor="middle" transform="translate(374.5412844036697,18)" style="font-family: sans-serif; font-size: 14px; fill: #000; opacity: 1;">sep 27</text><text text-anchor="middle" transform="translate(411.4678899082569,18)" style="font-family: sans-serif; font-size: 14px; fill: #000; opacity: 0;">oct 04</text><text text-anchor="middle" transform="translate(448.39449541284404,18)" style="font-family: sans-serif; font-size: 14px; fill: #000; opacity: 1;">oct 11</text><text text-anchor="middle" transform="translate(485.32110091743124,18)" style="font-family: sans-serif; font-size: 14px; fill: #000; opacity: 0;">oct 18</text><text text-anchor="middle" transform="translate(522.2477064220184,18)" style="font-family: sans-serif; font-size: 14px; fill: #000; opacity: 1;">oct 25</text><text text-anchor="middle" transform="translate(559.1743119266056,18)" style="font-family: sans-serif; font-size: 14px; fill: #000; opacity: 0;">noviembre</text></g><g class="mark-rule role-axis-domain" style="pointer-events: none;"><line transform="translate(0,0)" x2="575" y2="0" style="fill: none; stroke: #888; stroke-width: 1; opacity: 1;"></line></g><g class="mark-text role-axis-title" style="pointer-events: none;"><text text-anchor="middle" transform="translate(287.5,36)" style="font-family: sans-serif; font-size: 14px; font-weight: bold; fill: #000; opacity: 1;">Fecha de boletín</text></g></g><path class="foreground" d="" style="pointer-events: none; display: none; fill: none;"></path></g></g><g class="mark-group role-axis"><g transform="translate(0.5,0.5)"><path class="background" d="M0,0h0v0h0Z" style="pointer-events: none; fill: none;"></path><g><g class="mark-rule role-axis-tick" style="pointer-events: none;"><line transform="translate(0,75)" x2="-5" y2="0" style="fill: none; stroke: #888; stroke-width: 1; opacity: 1;"></line><line transform="translate(0,38)" x2="-5" y2="0" style="fill: none; stroke: #888; stroke-width: 1; opacity: 1;"></line><line transform="translate(0,0)" x2="-5" y2="0" style="fill: none; stroke: #888; stroke-width: 1; opacity: 1;"></line></g><g class="mark-text role-axis-label" style="pointer-events: none;"><text text-anchor="end" transform="translate(-7,79)" style="font-family: sans-serif; font-size: 14px; fill: #000; opacity: 1;">0%</text><text text-anchor="end" transform="translate(-7,41.5)" style="font-family: sans-serif; font-size: 14px; fill: #000; opacity: 1;">50%</text><text text-anchor="end" transform="translate(-7,4)" style="font-family: sans-serif; font-size: 14px; fill: #000; opacity: 1;"></text></g><g class="mark-rule role-axis-domain" style="pointer-events: none;"><line transform="translate(0,75)" x2="0" y2="-75" style="fill: none; stroke: #888; stroke-width: 1; opacity: 1;"></line></g><g class="mark-text role-axis-title" style="pointer-events: none;"><text text-anchor="middle" transform="translate(-39.0205078125,37.5) rotate(-90) translate(0,-3)" style="font-family: sans-serif; font-size: 14px; font-weight: bold; fill: #000; opacity: 1;">% renglón</text></g></g><path class="foreground" d="" style="pointer-events: none; display: none; fill: none;"></path></g></g><g class="mark-group role-scope concat_1_pathgroup"><g transform="translate(0,0)"><path class="background" d="M0,0h575v75h-575Z" style="fill: none;"></path><g><g class="mark-area role-mark concat_1_marks"><path d="M0,19.49458483754512L5.275229357798166,17.39202657807309L10.550458715596331,50.213534822601844L15.825688073394497,57.801122905518035L21.100917431192663,57.77114000924154L26.376146788990827,56.844039194338606L31.651376146788994,56.28696835977843L36.92660550458716,57.8391393442623L42.201834862385326,59.19574520615587L47.477064220183486,60.7553432642487L52.75229357798165,60.10865986170563L58.02752293577982,62.451967414694124L63.30275229357799,63.98981191222571L68.57798165137615,63.99473139523944L73.85321100917432,64.53578038247994L79.12844036697248,63.30345957405801L84.40366972477065,60.3937363285997L89.67889908256882,58.528711901179264L94.95412844036697,52.00687580575849L100.22935779816514,39.24986435160065L105.5045871559633,37.19430325117483L110.77981651376147,33.308360803116564L116.05504587155964,39.03083303281644L121.33027522935781,40.50092976217662L126.60550458715598,42.608861144945195L131.88073394495413,42.51159219114564L137.1559633027523,46.13215966250203L142.43119266055047,46.4805716837874L147.70642201834863,47.049490794160434L152.9816513761468,42.779200372461155L158.25688073394497,41.84093161546085L163.53211009174314,43.355451391002624L168.8073394495413,46.879441518267704L174.08256880733947,42.96038788765896L179.35779816513764,42.0684410646388L184.63302752293578,43.11268579329416L189.90825688073394,43.528783224255385L195.1834862385321,48.96360842384663L200.45871559633028,46.44215100488866L205.73394495412845,43.354172329437354L211.0091743119266,46.098978513561114L216.28440366972478,46.29994580479875L221.55963302752295,45.053130384836315L226.83486238532112,50.07462991739594L232.11009174311928,48.08793082450372L237.38532110091745,47.1324558334791L242.66055045871562,44.48339405235958L247.9357798165138,44.34506516145098L253.21100917431195,42.98288882841204L258.4862385321101,42.96439368491771L263.76146788990826,38.55675462498208L269.03669724770646,35.2773346422874L274.3119266055046,35.80416213047484L279.5871559633028,37.45899398578459L284.86238532110093,37.08883890919314L290.13761467889907,36.79617453676031L295.41284403669727,38.70078071961982L300.6880733944954,38.380880408086156L305.9633027522936,45.27323125659979L311.23853211009174,46.94435726135498L316.51376146788994,48.43075595017881L321.7889908256881,50.6879322205728L327.06422018348627,51.32884028484232L332.3394495412844,50.76712744949111L337.6146788990826,50.86114717788131L342.88990825688074,53.492336720844776L348.16513761467894,54.80852082336046L353.4403669724771,53.14167714742173L358.7155963302753,59.4723877176902L363.99082568807336,65.29475435909518L369.26605504587155,63.62087236380763L374.5412844036697,63.51689935295561L379.8165137614679,61.728755609373884L385.091743119266,60.78744099556573L390.3669724770642,60.150198178151726L395.64220183486236,54.790042306213074L400.91743119266056,38.01316697332106L406.1926605504587,33.95337395450932L411.4678899082569,32.90109504695841L416.74311926605503,34.389649175865706L422.0183486238532,31.68389955686852L427.29357798165137,45.24967390687914L432.56880733944956,58.30084441250448L437.8440366972477,59.84458793914851L443.1192660550459,59.86526208168257L448.39449541284404,58.10730439954298L453.66972477064223,58.369381463802696L458.9449541284404,59.716560729584074L464.22018348623857,55.8720476180425L469.4954128440367,47.947123319971695L474.7706422018349,48.49399235390496L480.04587155963304,51.276536108606095L485.32110091743124,55.47897861266975L490.5963302752294,55.603482079836866L495.8715596330276,57.792425979365134L501.1467889908257,55.54705751474023L506.4220183486239,50.605668587557325L511.697247706422,51.36453900709219L516.9724770642202,55.88124664159053L522.2477064220184,57.110978784009426L527.5229357798165,56.75270884952479L532.7981651376147,54.66242107703426L538.0733944954129,56.30230541302305L543.348623853211,54.77743424674939L548.6238532110092,52.871585431172996L553.8990825688073,46.404639175257714L559.1743119266056,35.69135072681838L564.4495412844037,35.343911831098104L569.7247706422019,38.663381235422456L575,37.72419892966702L575,75L569.7247706422019,75L564.4495412844037,75L559.1743119266056,75L553.8990825688073,75L548.6238532110092,75L543.348623853211,75L538.0733944954129,75L532.7981651376147,75L527.5229357798165,75L522.2477064220184,75L516.9724770642202,75L511.697247706422,75L506.4220183486239,75L501.1467889908257,75L495.8715596330276,75L490.5963302752294,75L485.32110091743124,75L480.04587155963304,75L474.7706422018349,75L469.4954128440367,75L464.22018348623857,75L458.9449541284404,75L453.66972477064223,75L448.39449541284404,75L443.1192660550459,75L437.8440366972477,75L432.56880733944956,75L427.29357798165137,75L422.0183486238532,75L416.74311926605503,75L411.4678899082569,75L406.1926605504587,75L400.91743119266056,75L395.64220183486236,75L390.3669724770642,75L385.091743119266,75L379.8165137614679,75L374.5412844036697,75L369.26605504587155,75L363.99082568807336,75L358.7155963302753,75L353.4403669724771,75L348.16513761467894,75L342.88990825688074,75L337.6146788990826,75L332.3394495412844,75L327.06422018348627,75L321.7889908256881,75L316.51376146788994,75L311.23853211009174,75L305.9633027522936,75L300.6880733944954,75L295.41284403669727,75L290.13761467889907,75L284.86238532110093,75L279.5871559633028,75L274.3119266055046,75L269.03669724770646,75L263.76146788990826,75L258.4862385321101,75L253.21100917431195,75L247.9357798165138,75L242.66055045871562,75L237.38532110091745,75L232.11009174311928,75L226.83486238532112,75L221.55963302752295,75L216.28440366972478,75L211.0091743119266,75L205.73394495412845,75L200.45871559633028,75L195.1834862385321,75L189.90825688073394,75L184.63302752293578,75L179.35779816513764,75L174.08256880733947,75L168.8073394495413,75L163.53211009174314,75L158.25688073394497,75L152.9816513761468,75L147.70642201834863,75L142.43119266055047,75L137.1559633027523,75L131.88073394495413,75L126.60550458715598,75L121.33027522935781,75L116.05504587155964,75L110.77981651376147,75L105.5045871559633,75L100.22935779816514,75L94.95412844036697,75L89.67889908256882,75L84.40366972477065,75L79.12844036697248,75L73.85321100917432,75L68.57798165137615,75L63.30275229357799,75L58.02752293577982,75L52.75229357798165,75L47.477064220183486,75L42.201834862385326,75L36.92660550458716,75L31.651376146788994,75L26.376146788990827,75L21.100917431192663,75L15.825688073394497,75L10.550458715596331,75L5.275229357798166,75L0,75Z" style="fill: rgb(100, 188, 97); opacity: 0.85;"></path></g></g><path class="foreground" d="" style="display: none; fill: none;"></path></g><g transform="translate(0,0)"><path class="background" d="M0,0h575v75h-575Z" style="fill: none;"></path><g><g class="mark-area role-mark concat_1_marks"><path d="M0,4.512635379061372L5.275229357798166,6.578073089700995L10.550458715596331,14.832457293035475L15.825688073394497,24.133695938240194L21.100917431192663,26.87306092811407L26.376146788990827,27.5789330430049L31.651376146788994,29.07473476668857L36.92660550458716,32.03176229508197L42.201834862385326,32.03131429511973L47.477064220183486,37.28748380829015L52.75229357798165,37.226586386942L58.02752293577982,43.10252075007685L63.30275229357799,47.771943573667706L68.57798165137615,47.03876187788127L73.85321100917432,46.714990746452806L79.12844036697248,45.11419485400405L84.40366972477065,42.490712128051115L89.67889908256882,41.86321167372362L94.95412844036697,33.890201976794174L100.22935779816514,19.928106348345096L105.5045871559633,21.837537163134172L110.77981651376147,19.579177190804398L116.05504587155964,26.681391994230083L121.33027522935781,29.052621276873392L126.60550458715598,30.230663824604147L131.88073394495413,30.731858590035156L137.1559633027523,33.918140515982486L142.43119266055047,33.276016078606524L147.70642201834863,31.271007876385895L152.9816513761468,26.954693592504228L158.25688073394497,25.21060455896929L163.53211009174314,23.55420953308578L168.8073394495413,25.69601203912717L174.08256880733947,20.78721068520721L179.35779816513764,20.060076045627394L184.63302752293578,21.673003802281386L189.90825688073394,22.138373180179L195.1834862385321,22.09164251039013L200.45871559633028,19.73500426786686L205.73394495412845,12.710655069312335L211.0091743119266,12.733356815780223L216.28440366972478,13.213775434793341L221.55963302752295,12.765651924181531L226.83486238532112,16.892941850004107L232.11009174311928,14.008646937035692L237.38532110091745,15.076744796221808L242.66055045871562,16.368719816995693L247.9357798165138,16.557026645637926L253.21100917431195,15.841441012382656L258.4862385321101,16.045515619751434L263.76146788990826,12.194356804818598L269.03669724770646,11.240643023683894L274.3119266055046,11.676157775730692L279.5871559633028,11.468015308911985L284.86238532110093,10.953753162777641L290.13761467889907,10.023909145248066L295.41284403669727,9.758995247793631L300.6880733944954,10.59890421311167L305.9633027522936,9.741288278775093L311.23853211009174,8.322871362596981L316.51376146788994,9.748427672955994L321.7889908256881,16.412614504507776L327.06422018348627,17.714540037785216L332.3394495412844,18.174654412881676L337.6146788990826,18.04399297334454L342.88990825688074,22.01910026813202L348.16513761467894,26.481570129248457L353.4403669724771,26.17441109487067L358.7155963302753,33.11583409715858L363.99082568807336,47.55647679076343L369.26605504587155,43.401015228426395L374.5412844036697,42.9344948275194L379.8165137614679,44.417693567917944L385.091743119266,42.30081533400085L390.3669724770642,41.101105625478056L395.64220183486236,36.08527673857558L400.91743119266056,6.45986660533579L406.1926605504587,5.134731105476279L411.4678899082569,5.100151981606313L416.74311926605503,4.769015575381818L422.0183486238532,4.821969991448322L427.29357798165137,28.32118754607837L432.56880733944956,48.81737333812431L437.8440366972477,51.775746962898104L443.1192660550459,51.750862651306285L448.39449541284404,44.62930211447262L453.66972477064223,47.062698886237065L458.9449541284404,49.09795149924002L464.22018348623857,41.930155982860875L469.4954128440367,25.25126738976656L474.7706422018349,24.4927635172037L480.04587155963304,29.947719905432738L485.32110091743124,40.026022607139936L490.5963302752294,39.21065014508665L495.8715596330276,32.60218602996403L501.1467889908257,31.065747024140606L506.4220183486239,24.673644596024932L511.697247706422,27.46241134751772L516.9724770642202,36.4654179780456L522.2477064220184,39.28457420685591L527.5229357798165,39.17846973114899L532.7981651376147,41.25301714145449L538.0733944954129,43.07472718074726L543.348623853211,40.84430985557578L548.6238532110092,37.71893411890733L553.8990825688073,26.886597938144323L559.1743119266056,12.85904291049789L564.4495412844037,12.333023502854848L569.7247706422019,13.136709051237675L575,11.826283615844496L575,37.72419892966702L569.7247706422019,38.663381235422456L564.4495412844037,35.343911831098104L559.1743119266056,35.69135072681838L553.8990825688073,46.404639175257714L548.6238532110092,52.871585431172996L543.348623853211,54.77743424674939L538.0733944954129,56.30230541302305L532.7981651376147,54.66242107703426L527.5229357798165,56.75270884952479L522.2477064220184,57.110978784009426L516.9724770642202,55.88124664159053L511.697247706422,51.36453900709219L506.4220183486239,50.605668587557325L501.1467889908257,55.54705751474023L495.8715596330276,57.792425979365134L490.5963302752294,55.603482079836866L485.32110091743124,55.47897861266975L480.04587155963304,51.276536108606095L474.7706422018349,48.49399235390496L469.4954128440367,47.947123319971695L464.22018348623857,55.8720476180425L458.9449541284404,59.716560729584074L453.66972477064223,58.369381463802696L448.39449541284404,58.10730439954298L443.1192660550459,59.86526208168257L437.8440366972477,59.84458793914851L432.56880733944956,58.30084441250448L427.29357798165137,45.24967390687914L422.0183486238532,31.683899556868518L416.74311926605503,34.389649175865706L411.4678899082569,32.90109504695841L406.1926605504587,33.95337395450932L400.91743119266056,38.01316697332106L395.64220183486236,54.790042306213074L390.3669724770642,60.150198178151726L385.091743119266,60.78744099556573L379.8165137614679,61.728755609373884L374.5412844036697,63.51689935295561L369.26605504587155,63.62087236380763L363.99082568807336,65.29475435909518L358.7155963302753,59.4723877176902L353.4403669724771,53.14167714742173L348.16513761467894,54.80852082336046L342.88990825688074,53.492336720844776L337.6146788990826,50.86114717788131L332.3394495412844,50.76712744949111L327.06422018348627,51.328840284842315L321.7889908256881,50.68793222057279L316.51376146788994,48.43075595017882L311.23853211009174,46.94435726135498L305.9633027522936,45.27323125659979L300.6880733944954,38.380880408086156L295.41284403669727,38.70078071961982L290.13761467889907,36.79617453676031L284.86238532110093,37.08883890919314L279.5871559633028,37.45899398578459L274.3119266055046,35.80416213047484L269.03669724770646,35.2773346422874L263.76146788990826,38.55675462498208L258.4862385321101,42.96439368491771L253.21100917431195,42.98288882841204L247.9357798165138,44.34506516145098L242.66055045871562,44.48339405235958L237.38532110091745,47.1324558334791L232.11009174311928,48.08793082450372L226.83486238532112,50.07462991739594L221.55963302752295,45.053130384836315L216.28440366972478,46.29994580479875L211.0091743119266,46.09897851356112L205.73394495412845,43.354172329437354L200.45871559633028,46.44215100488866L195.1834862385321,48.96360842384663L189.90825688073394,43.528783224255385L184.63302752293578,43.11268579329416L179.35779816513764,42.0684410646388L174.08256880733947,42.96038788765896L168.8073394495413,46.879441518267704L163.53211009174314,43.355451391002624L158.25688073394497,41.84093161546085L152.9816513761468,42.779200372461155L147.70642201834863,47.049490794160434L142.43119266055047,46.4805716837874L137.1559633027523,46.13215966250203L131.88073394495413,42.51159219114564L126.60550458715598,42.608861144945195L121.33027522935781,40.50092976217662L116.05504587155964,39.03083303281644L110.77981651376147,33.308360803116564L105.5045871559633,37.19430325117483L100.22935779816514,39.24986435160065L94.95412844036697,52.00687580575849L89.67889908256882,58.528711901179264L84.40366972477065,60.3937363285997L79.12844036697248,63.30345957405801L73.85321100917432,64.53578038247994L68.57798165137615,63.99473139523944L63.30275229357799,63.98981191222571L58.02752293577982,62.451967414694124L52.75229357798165,60.10865986170563L47.477064220183486,60.7553432642487L42.201834862385326,59.19574520615587L36.92660550458716,57.8391393442623L31.651376146788994,56.28696835977843L26.376146788990827,56.844039194338606L21.100917431192663,57.77114000924154L15.825688073394497,57.801122905518035L10.550458715596331,50.213534822601844L5.275229357798166,17.39202657807309L0,19.49458483754512Z" style="fill: rgb(215, 238, 142); opacity: 0.85;"></path></g></g><path class="foreground" d="" style="display: none; fill: none;"></path></g><g transform="translate(0,0)"><path class="background" d="M0,0h575v75h-575Z" style="fill: none;"></path><g><g class="mark-area role-mark concat_1_marks"><path d="M0,0.6317689530685899L5.275229357798166,0.5980066445182647L10.550458715596331,2.8457621550591257L15.825688073394497,6.836125975962798L21.100917431192663,7.16383919730676L26.376146788990827,7.148884050081655L31.651376146788994,7.291568866773074L36.92660550458716,6.8268442622950785L42.201834862385326,6.903752777549163L47.477064220183486,9.329460816062173L52.75229357798165,9.162001975633851L58.02752293577982,13.928489086996612L63.30275229357799,21.58307210031347L68.57798165137615,22.699689528648037L73.85321100917432,24.83292206456919L79.12844036697248,24.159198226847842L84.40366972477065,24.087705288010834L89.67889908256882,23.86709591629633L94.95412844036697,22.525784271594343L100.22935779816514,12.745523602821496L105.5045871559633,15.986141747386606L110.77981651376147,14.798364656021235L116.05504587155964,19.427515326361355L121.33027522935781,22.820767950934663L126.60550458715598,24.59424482338612L131.88073394495413,25.48436161729526L137.1559633027523,29.10514359889665L142.43119266055047,28.09959803483699L147.70642201834863,26.876285556614665L152.9816513761468,24.785398358843054L158.25688073394497,22.742814667988124L163.53211009174314,20.655019175747256L168.8073394495413,22.780285929270132L174.08256880733947,18.152502058366117L179.35779816513764,17.79239543726237L184.63302752293578,18.759721742136207L189.90825688073394,19.30012020836117L195.1834862385321,20.061642161142757L200.45871559633028,18.443004578257177L205.73394495412845,11.497689589562398L211.0091743119266,11.227544910179654L216.28440366972478,11.081686948810187L221.55963302752295,10.694284893739257L226.83486238532112,9.250020446552732L232.11009174311928,4.311289733284621L237.38532110091745,4.568611159699149L242.66055045871562,6.325722273998147L247.9357798165138,6.499543454802029L253.21100917431195,7.786773710708958L258.4862385321101,7.99882431978502L263.76146788990826,8.585795210096093L269.03669724770646,9.197447539575423L274.3119266055046,9.528096474332152L279.5871559633028,8.515582285401873L284.86238532110093,8.121310092774836L290.13761467889907,6.558577405857758L295.41284403669727,6.207569585879175L300.6880733944954,6.791989419988689L305.9633027522936,6.1378035902851265L311.23853211009174,5.286284356364629L316.51376146788994,7.365273153286486L321.7889908256881,14.400412759332351L327.06422018348627,14.523688417381212L332.3394495412844,14.867841409691646L337.6146788990826,14.827579622699158L342.88990825688074,13.952795524512574L348.16513761467894,14.875538535184308L353.4403669724771,13.738570311703334L358.7155963302753,20.710930339138418L363.99082568807336,40.03261958058435L369.26605504587155,35.73087288712125L374.5412844036697,35.337535032093925L379.8165137614679,38.375596552461L385.091743119266,37.857245029323416L390.3669724770642,36.79646756136568L395.64220183486236,33.63999510506626L400.91743119266056,2.6111143054277837L406.1926605504587,3.108087650910191L411.4678899082569,3.0104048945871016L416.74311926605503,2.8183124149402605L422.0183486238532,3.069851512088928L427.29357798165137,24.486757783701005L432.56880733944956,46.467391304347814L437.8440366972477,49.39805187698369L443.1192660550459,49.347762583754765L448.39449541284404,42.29101779537663L453.66972477064223,44.61888424821002L458.9449541284404,46.41512367002902L464.22018348623857,40.16347594824492L469.4954128440367,20.27086771987739L474.7706422018349,16.69374658656471L480.04587155963304,19.13524580174997L485.32110091743124,23.432544523054393L490.5963302752294,23.015841894753343L495.8715596330276,17.7545756413804L501.1467889908257,17.590944487707187L506.4220183486239,9.824473715159352L511.697247706422,14.429787234042541L516.9724770642202,28.333845090964914L522.2477064220184,33.024751988999114L527.5229357798165,33.03317185015346L532.7981651376147,36.296723077552464L538.0733944954129,37.68157837681578L543.348623853211,35.92499258820041L548.6238532110092,33.63952865559721L553.8990825688073,21.675257731958762L559.1743119266056,9.183303329123785L564.4495412844037,8.660204488115777L569.7247706422019,7.932059288240165L575,7.0786403636445L575,11.826283615844496L569.7247706422019,13.136709051237675L564.4495412844037,12.333023502854848L559.1743119266056,12.85904291049789L553.8990825688073,26.886597938144323L548.6238532110092,37.71893411890733L543.348623853211,40.84430985557578L538.0733944954129,43.07472718074726L532.7981651376147,41.25301714145449L527.5229357798165,39.17846973114899L522.2477064220184,39.28457420685591L516.9724770642202,36.4654179780456L511.697247706422,27.46241134751772L506.4220183486239,24.673644596024932L501.1467889908257,31.065747024140606L495.8715596330276,32.60218602996403L490.5963302752294,39.21065014508665L485.32110091743124,40.026022607139936L480.04587155963304,29.947719905432738L474.7706422018349,24.4927635172037L469.4954128440367,25.25126738976656L464.22018348623857,41.930155982860875L458.9449541284404,49.09795149924002L453.66972477064223,47.062698886237065L448.39449541284404,44.62930211447262L443.1192660550459,51.750862651306285L437.8440366972477,51.775746962898104L432.56880733944956,48.81737333812431L427.29357798165137,28.32118754607837L422.0183486238532,4.821969991448322L416.74311926605503,4.769015575381818L411.4678899082569,5.100151981606313L406.1926605504587,5.134731105476279L400.91743119266056,6.45986660533579L395.64220183486236,36.08527673857558L390.3669724770642,41.101105625478056L385.091743119266,42.30081533400085L379.8165137614679,44.417693567917944L374.5412844036697,42.9344948275194L369.26605504587155,43.401015228426395L363.99082568807336,47.55647679076343L358.7155963302753,33.11583409715858L353.4403669724771,26.17441109487067L348.16513761467894,26.481570129248457L342.88990825688074,22.01910026813202L337.6146788990826,18.04399297334454L332.3394495412844,18.174654412881676L327.06422018348627,17.714540037785216L321.7889908256881,16.412614504507776L316.51376146788994,9.748427672955994L311.23853211009174,8.322871362596981L305.9633027522936,9.741288278775093L300.6880733944954,10.59890421311167L295.41284403669727,9.758995247793631L290.13761467889907,10.023909145248066L284.86238532110093,10.953753162777641L279.5871559633028,11.468015308911985L274.3119266055046,11.676157775730692L269.03669724770646,11.240643023683894L263.76146788990826,12.194356804818598L258.4862385321101,16.045515619751434L253.21100917431195,15.841441012382656L247.9357798165138,16.557026645637926L242.66055045871562,16.368719816995693L237.38532110091745,15.076744796221808L232.11009174311928,14.008646937035692L226.83486238532112,16.892941850004107L221.55963302752295,12.765651924181531L216.28440366972478,13.213775434793341L211.0091743119266,12.733356815780223L205.73394495412845,12.710655069312335L200.45871559633028,19.73500426786686L195.1834862385321,22.09164251039013L189.90825688073394,22.138373180179L184.63302752293578,21.673003802281386L179.35779816513764,20.060076045627394L174.08256880733947,20.78721068520721L168.8073394495413,25.69601203912717L163.53211009174314,23.55420953308578L158.25688073394497,25.21060455896929L152.9816513761468,26.954693592504228L147.70642201834863,31.271007876385895L142.43119266055047,33.276016078606524L137.1559633027523,33.918140515982486L131.88073394495413,30.731858590035156L126.60550458715598,30.230663824604147L121.33027522935781,29.052621276873392L116.05504587155964,26.681391994230083L110.77981651376147,19.579177190804398L105.5045871559633,21.837537163134172L100.22935779816514,19.928106348345096L94.95412844036697,33.890201976794174L89.67889908256882,41.86321167372362L84.40366972477065,42.490712128051115L79.12844036697248,45.11419485400405L73.85321100917432,46.714990746452806L68.57798165137615,47.03876187788127L63.30275229357799,47.771943573667706L58.02752293577982,43.10252075007685L52.75229357798165,37.226586386942L47.477064220183486,37.28748380829015L42.201834862385326,32.03131429511973L36.92660550458716,32.03176229508197L31.651376146788994,29.07473476668857L26.376146788990827,27.5789330430049L21.100917431192663,26.87306092811407L15.825688073394497,24.133695938240194L10.550458715596331,14.832457293035475L5.275229357798166,6.578073089700995L0,4.512635379061372Z" style="fill: rgb(254, 221, 141); opacity: 0.85;"></path></g></g><path class="foreground" d="" style="display: none; fill: none;"></path></g><g transform="translate(0,0)"><path class="background" d="M0,0h575v75h-575Z" style="fill: none;"></path><g><g class="mark-area role-mark concat_1_marks"><path d="M0,0L5.275229357798166,0L10.550458715596331,0L15.825688073394497,0L21.100917431192663,0L26.376146788990827,0L31.651376146788994,0L36.92660550458716,0L42.201834862385326,0L47.477064220183486,0L52.75229357798165,8.326672684688674e-15L58.02752293577982,0L63.30275229357799,0L68.57798165137615,8.326672684688674e-15L73.85321100917432,0L79.12844036697248,0L84.40366972477065,0L89.67889908256882,0L94.95412844036697,0L100.22935779816514,0L105.5045871559633,0L110.77981651376147,0L116.05504587155964,0L121.33027522935781,0L126.60550458715598,0L131.88073394495413,0L137.1559633027523,0L142.43119266055047,0L147.70642201834863,0L152.9816513761468,0L158.25688073394497,8.326672684688674e-15L163.53211009174314,0L168.8073394495413,0L174.08256880733947,0L179.35779816513764,0L184.63302752293578,0L189.90825688073394,0L195.1834862385321,8.326672684688674e-15L200.45871559633028,8.326672684688674e-15L205.73394495412845,0L211.0091743119266,0L216.28440366972478,0L221.55963302752295,0L226.83486238532112,0L232.11009174311928,0L237.38532110091745,0L242.66055045871562,0L247.9357798165138,0L253.21100917431195,0L258.4862385321101,0L263.76146788990826,0L269.03669724770646,0L274.3119266055046,0L279.5871559633028,8.326672684688674e-15L284.86238532110093,8.326672684688674e-15L290.13761467889907,0L295.41284403669727,0L300.6880733944954,0L305.9633027522936,0L311.23853211009174,0L316.51376146788994,0L321.7889908256881,0L327.06422018348627,0L332.3394495412844,0L337.6146788990826,0L342.88990825688074,0L348.16513761467894,0L353.4403669724771,0L358.7155963302753,0L363.99082568807336,0L369.26605504587155,0L374.5412844036697,0L379.8165137614679,0L385.091743119266,0L390.3669724770642,0L395.64220183486236,0L400.91743119266056,0L406.1926605504587,8.326672684688674e-15L411.4678899082569,0L416.74311926605503,0L422.0183486238532,0L427.29357798165137,0L432.56880733944956,0L437.8440366972477,8.326672684688674e-15L443.1192660550459,0L448.39449541284404,0L453.66972477064223,0L458.9449541284404,0L464.22018348623857,0L469.4954128440367,0L474.7706422018349,0L480.04587155963304,0L485.32110091743124,0L490.5963302752294,0L495.8715596330276,8.326672684688674e-15L501.1467889908257,0L506.4220183486239,0L511.697247706422,0L516.9724770642202,0L522.2477064220184,0L527.5229357798165,0L532.7981651376147,0L538.0733944954129,0L543.348623853211,0L548.6238532110092,0L553.8990825688073,0L559.1743119266056,0L564.4495412844037,0L569.7247706422019,0L575,0L575,7.0786403636445L569.7247706422019,7.932059288240165L564.4495412844037,8.660204488115777L559.1743119266056,9.183303329123785L553.8990825688073,21.675257731958762L548.6238532110092,33.63952865559721L543.348623853211,35.92499258820041L538.0733944954129,37.68157837681578L532.7981651376147,36.296723077552464L527.5229357798165,33.03317185015346L522.2477064220184,33.024751988999114L516.9724770642202,28.333845090964914L511.697247706422,14.429787234042541L506.4220183486239,9.824473715159352L501.1467889908257,17.590944487707187L495.8715596330276,17.7545756413804L490.5963302752294,23.015841894753343L485.32110091743124,23.432544523054393L480.04587155963304,19.13524580174997L474.7706422018349,16.69374658656471L469.4954128440367,20.27086771987739L464.22018348623857,40.16347594824492L458.9449541284404,46.41512367002902L453.66972477064223,44.61888424821002L448.39449541284404,42.29101779537663L443.1192660550459,49.347762583754765L437.8440366972477,49.39805187698369L432.56880733944956,46.467391304347814L427.29357798165137,24.486757783701005L422.0183486238532,3.069851512088928L416.74311926605503,2.8183124149402605L411.4678899082569,3.0104048945871016L406.1926605504587,3.108087650910191L400.91743119266056,2.6111143054277837L395.64220183486236,33.63999510506626L390.3669724770642,36.79646756136568L385.091743119266,37.857245029323416L379.8165137614679,38.375596552461L374.5412844036697,35.337535032093925L369.26605504587155,35.73087288712125L363.99082568807336,40.03261958058435L358.7155963302753,20.710930339138418L353.4403669724771,13.738570311703334L348.16513761467894,14.875538535184308L342.88990825688074,13.952795524512574L337.6146788990826,14.827579622699158L332.3394495412844,14.867841409691646L327.06422018348627,14.523688417381212L321.7889908256881,14.400412759332351L316.51376146788994,7.365273153286486L311.23853211009174,5.286284356364629L305.9633027522936,6.1378035902851265L300.6880733944954,6.791989419988689L295.41284403669727,6.207569585879175L290.13761467889907,6.558577405857758L284.86238532110093,8.121310092774836L279.5871559633028,8.515582285401873L274.3119266055046,9.528096474332152L269.03669724770646,9.197447539575423L263.76146788990826,8.585795210096093L258.4862385321101,7.99882431978502L253.21100917431195,7.786773710708958L247.9357798165138,6.499543454802029L242.66055045871562,6.325722273998147L237.38532110091745,4.568611159699149L232.11009174311928,4.311289733284621L226.83486238532112,9.250020446552732L221.55963302752295,10.694284893739257L216.28440366972478,11.081686948810187L211.0091743119266,11.227544910179654L205.73394495412845,11.497689589562398L200.45871559633028,18.443004578257177L195.1834862385321,20.061642161142757L189.90825688073394,19.30012020836117L184.63302752293578,18.759721742136207L179.35779816513764,17.79239543726237L174.08256880733947,18.152502058366117L168.8073394495413,22.780285929270132L163.53211009174314,20.655019175747256L158.25688073394497,22.742814667988124L152.9816513761468,24.785398358843054L147.70642201834863,26.876285556614665L142.43119266055047,28.09959803483699L137.1559633027523,29.10514359889665L131.88073394495413,25.48436161729526L126.60550458715598,24.59424482338612L121.33027522935781,22.820767950934663L116.05504587155964,19.427515326361355L110.77981651376147,14.798364656021235L105.5045871559633,15.986141747386606L100.22935779816514,12.745523602821496L94.95412844036697,22.525784271594343L89.67889908256882,23.86709591629633L84.40366972477065,24.087705288010834L79.12844036697248,24.159198226847842L73.85321100917432,24.83292206456919L68.57798165137615,22.699689528648037L63.30275229357799,21.58307210031347L58.02752293577982,13.928489086996612L52.75229357798165,9.162001975633851L47.477064220183486,9.329460816062173L42.201834862385326,6.903752777549163L36.92660550458716,6.8268442622950785L31.651376146788994,7.291568866773074L26.376146788990827,7.148884050081655L21.100917431192663,7.16383919730676L15.825688073394497,6.836125975962798L10.550458715596331,2.8457621550591257L5.275229357798166,0.5980066445182647L0,0.6317689530685899Z" style="fill: rgb(241, 110, 67); opacity: 0.85;"></path></g></g><path class="foreground" d="" style="display: none; fill: none;"></path></g></g></g><path class="foreground" d="" style="display: none; fill: none;"></path></g></g><g class="mark-group role-legend"><g transform="translate(0,-27)"><path class="background" d="M0,0h304v14h-304Z" style="pointer-events: none; fill: none;"></path><g><g class="mark-group role-legend-entry"><g transform="translate(103,0)"><path class="background" d="M0,0h0v0h0Z" style="pointer-events: none; fill: none;"></path><g><g class="mark-group role-scope"><g transform="translate(0,0)"><path class="background" d="M0,0h38.234375v14h-38.234375Z" style="pointer-events: none; fill: none; opacity: 1;"></path><g><g class="mark-symbol role-legend-symbol" style="pointer-events: none;"><path transform="translate(7,7)" d="M5,0A5,5,0,1,1,-5,0A5,5,0,1,1,5,0" style="fill: rgb(100, 188, 97); stroke-width: 1.5; opacity: 0.85;"></path></g><g class="mark-text role-legend-label" style="pointer-events: none;"><text text-anchor="start" transform="translate(18,11)" style="font-family: sans-serif; font-size: 14px; fill: #000; opacity: 1;">0-3</text></g></g><path class="foreground" d="" style="pointer-events: none; display: none; fill: none;"></path></g><g transform="translate(49,0)"><path class="background" d="M0,0h38.234375v14h-38.234375Z" style="pointer-events: none; fill: none; opacity: 1;"></path><g><g class="mark-symbol role-legend-symbol" style="pointer-events: none;"><path transform="translate(7,7)" d="M5,0A5,5,0,1,1,-5,0A5,5,0,1,1,5,0" style="fill: rgb(215, 238, 142); stroke-width: 1.5; opacity: 0.85;"></path></g><g class="mark-text role-legend-label" style="pointer-events: none;"><text text-anchor="start" transform="translate(18,11)" style="font-family: sans-serif; font-size: 14px; fill: #000; opacity: 1;">4-7</text></g></g><path class="foreground" d="" style="pointer-events: none; display: none; fill: none;"></path></g><g transform="translate(98,0)"><path class="background" d="M0,0h46.0205078125v14h-46.0205078125Z" style="pointer-events: none; fill: none; opacity: 1;"></path><g><g class="mark-symbol role-legend-symbol" style="pointer-events: none;"><path transform="translate(7,7)" d="M5,0A5,5,0,1,1,-5,0A5,5,0,1,1,5,0" style="fill: rgb(254, 221, 141); stroke-width: 1.5; opacity: 0.85;"></path></g><g class="mark-text role-legend-label" style="pointer-events: none;"><text text-anchor="start" transform="translate(18,11)" style="font-family: sans-serif; font-size: 14px; fill: #000; opacity: 1;">8-14</text></g></g><path class="foreground" d="" style="pointer-events: none; display: none; fill: none;"></path></g><g transform="translate(155,0)"><path class="background" d="M0,0h45.6376953125v14h-45.6376953125Z" style="pointer-events: none; fill: none; opacity: 1;"></path><g><g class="mark-symbol role-legend-symbol" style="pointer-events: none;"><path transform="translate(7,7)" d="M5,0A5,5,0,1,1,-5,0A5,5,0,1,1,5,0" style="fill: rgb(241, 110, 67); stroke-width: 1.5; opacity: 0.85;"></path></g><g class="mark-text role-legend-label" style="pointer-events: none;"><text text-anchor="start" transform="translate(18,11)" style="font-family: sans-serif; font-size: 14px; fill: #000; opacity: 1;">&gt; 14</text></g></g><path class="foreground" d="" style="pointer-events: none; display: none; fill: none;"></path></g></g></g><path class="foreground" d="" style="pointer-events: none; display: none; fill: none;"></path></g></g><g class="mark-text role-legend-title" style="pointer-events: none;"><text text-anchor="start" transform="translate(0,11)" style="font-family: sans-serif; font-size: 14px; font-weight: bold; fill: #000; opacity: 1;">Renglón (días)</text></g></g><path class="foreground" d="" style="pointer-events: none; display: none; fill: none;"></path></g></g></g><path class="foreground" d="" style="display: none; fill: none;"></path></g></g></g></svg>