<svg class="marks" width="653" height="456" viewBox="0 0 653 456" version="1.1" xmlns="http://www.w3.org/2000/svg" xmlns:xlink="http://www.w3.org/1999/xlink"><rect width="653" height="456" style="fill: white;"></rect><g transform="translate(66,12)"><g class="mark-group role-frame root"><g transform="translate(0,0)"><path class="background" d="M0.5,0.5h580v400h-580Z" style="fill: none; stroke: #ddd;"></path><g><g class="mark-group role-axis"><g transform="translate(0.5,400.5)"><path class="background" d="M0,0h0v0h0Z" style="pointer-events: none; fill: none;"></path><g><g class="mark-rule role-axis-grid" style="pointer-events: none;"><line transform="translate(6,-400)" x2="0" y2="400" style="fill: none; stroke: #ddd; stroke-width: 1; opacity: 1;"></line><line transform="translate(25,-400)" x2="0" y2="400" style="fill: none; stroke: #ddd; stroke-width: 1; opacity: 1;"></line><line transform="translate(44,-400)" x2="0" y2="400" style="fill: none; stroke: #ddd; stroke-width: 1; opacity: 1;"></line><line transform="translate(64,-400)" x2="0" y2="400" style="fill: none; stroke: #ddd; stroke-width: 1; opacity: 1;"></line><line transform="translate(83,-400)" x2="0" y2="400" style="fill: none; stroke: #ddd; stroke-width: 1; opacity: 1;"></line><line transform="translate(103,-400)" x2="0" y2="400" style="fill: none; stroke: #ddd; stroke-width: 1; opacity: 1;"></line><line transform="translate(122,-400)" x2="0" y2="400" style="fill: none; stroke: #ddd; stroke-width: 1; opacity: 1;"></line><line transform="translate(142,-400)" x2="0" y2="400" style="fill: none; stroke: #ddd; stroke-width: 1; opacity: 1;"></line><line transform="translate(161,-400)" x2="0" y2="400" style="fill: none; stroke: #ddd; stroke-width: 1; opacity: 1;"></line><line transform="translate(180,-400)" x2="0" y2="400" style="fill: none; stroke: #ddd; stroke-width: 1; opacity: 1;"></line><line transform="translate(200,-400)" x2="0" y2="400" style="fill: none; stroke: #ddd; stroke-width: 1; opacity: 1;"></line><line transform="translate(219,-400)" x2="0" y2="400" style="fill: none; stroke: #ddd; stroke-width: 1; opacity: 1;"></line><line transform="translate(239,-400)" x2="0" y2="400" style="fill: none; stroke: #ddd; stroke-width: 1; opacity: 1;"></line><line transform="translate(258,-400)" x2="0" y2="400" style="fill: none; stroke: #ddd; stroke-width: 1; opacity: 1;"></line><line transform="translate(278,-400)" x2="0" y2="400" style="fill: none; stroke: #ddd; stroke-width: 1; opacity: 1;"></line><line transform="translate(297,-400)" x2="0" y2="400" style="fill: none; stroke: #ddd; stroke-width: 1; opacity: 1;"></line><line transform="translate(316,-400)" x2="0" y2="400" style="fill: none; stroke: #ddd; stroke-width: 1; opacity: 1;"></line><line transform="translate(336,-400)" x2="0" y2="400" style="fill: none; stroke: #ddd; stroke-width: 1; opacity: 1;"></line><line transform="translate(355,-400)" x2="0" y2="400" style="fill: none; stroke: #ddd; stroke-width: 1; opacity: 1;"></line><line transform="translate(375,-400)" x2="0" y2="400" style="fill: none; stroke: #ddd; stroke-width: 1; opacity: 1;"></line><line transform="translate(394,-400)" x2="0" y2="400" style="fill: none; stroke: #ddd; stroke-width: 1; opacity: 1;"></line><line transform="translate(413,-400)" x2="0" y2="400" style="fill: none; stroke: #ddd; stroke-width: 1; opacity: 1;"></line><line transform="translate(433,-400)" x2="0" y2="400" style="fill: none; stroke: #ddd; stroke-width: 1; opacity: 1;"></line><line transform="translate(452,-400)" x2="0" y2="400" style="fill: none; stroke: #ddd; stroke-width: 1; opacity: 1;"></line><line transform="translate(472,-400)" x2="0" y2="400" style="fill: none; stroke: #ddd; stroke-width: 1; opacity: 1;"></line><line transform="translate(491,-400)" x2="0" y2="400" style="fill: none; stroke: #ddd; stroke-width: 1; opacity: 1;"></line><line transform="translate(511,-400)" x2="0" y2="400" style="fill: none; stroke: #ddd; stroke-width: 1; opacity: 1;"></line><line transform="translate(530,-400)" x2="0" y2="400" style="fill: none; stroke: #ddd; stroke-width: 1; opacity: 1;"></line><line transform="translate(549,-400)" x2="0" y2="400" style="fill: none; stroke: #ddd; stroke-width: 1; opacity: 1;"></line><line transform="translate(569,-400)" x2="0" y2="400" style="fill: none; stroke: #ddd; stroke-width: 1; opacity: 1;"></line></g></g><path class="foreground" d="" style="pointer-events: none; display: none; fill: none;"></path></g></g><g class="mark-group role-axis"><g transform="translate(0.5,0.5)"><path class="background" d="M0,0h0v0h0Z" style="pointer-events: none; fill: none;"></path><g><g class="mark-rule role-axis-grid" style="pointer-events: none;"><line transform="translate(0,400)" x2="580" y2="0" style="fill: none; stroke: #ddd; stroke-width: 1; opacity: 1;"></line><line transform="translate(0,360)" x2="580" y2="0" style="fill: none; stroke: #ddd; stroke-width: 1; opacity: 1;"></line><line transform="translate(0,336)" x2="580" y2="0" style="fill: none; stroke: #ddd; stroke-width: 1; opacity: 1;"></line><line transform="translate(0,320)" x2="580" y2="0" style="fill: none; stroke: #ddd; stroke-width: 1; opacity: 1;"></line><line transform="translate(0,307)" x2="580" y2="0" style="fill: none; stroke: #ddd; stroke-width: 1; opacity: 1;"></line><line transform="translate(0,296)" x2="580" y2="0" style="fill: none; stroke: #ddd; stroke-width: 1; opacity: 1;"></line><line transform="translate(0,287)" x2="580" y2="0" style="fill: none; stroke: #ddd; stroke-width: 1; opacity: 1;"></line><line transform="translate(0,280)" x2="580" y2="0" style="fill: none; stroke: #ddd; stroke-width: 1; opacity: 1;"></line><line transform="translate(0,273)" x2="580" y2="0" style="fill: none; stroke: #ddd; stroke-width: 1; opacity: 1;"></line><line transform="translate(0,267)" x2="580" y2="0" style="fill: none; stroke: #ddd; stroke-width: 1; opacity: 1;"></line><line transform="translate(0,227)" x2="580" y2="0" style="fill: none; stroke: #ddd; stroke-width: 1; opacity: 1;"></line><line transform="translate(0,203)" x2="580" y2="0" style="fill: none; stroke: #ddd; stroke-width: 1; opacity: 1;"></line><line transform="translate(0,186)" x2="580" y2="0" style="fill: none; stroke: #ddd; stroke-width: 1; opacity: 1;"></line><line transform="translate(0,173)" x2="580" y2="0" style="fill: none; stroke: #ddd; stroke-width: 1; opacity: 1;"></line><line transform="translate(0,163)" x2="580" y2="0" style="fill: none; stroke: #ddd; stroke-width: 1; opacity: 1;"></line><line transform="translate(0,154)" x2="580" y2="0" style="fill: none; stroke: #ddd; stroke-width: 1; opacity: 1;"></line><line transform="translate(0,146)" x2="580" y2="0" style="fill: none; stroke: #ddd; stroke-width: 1; opacity: 1;"></line><line transform="translate(0,139)" x2="580" y2="0" style="fill: none; stroke: #ddd; stroke-width: 1; opacity: 1;"></line><line transform="translate(0,133)" x2="580" y2="0" style="fill: none; stroke: #ddd; stroke-width: 1; opacity: 1;"></line><line transform="translate(0,93)" x2="580" y2="0" style="fill: none; stroke: #ddd; stroke-width: 1; opacity: 1;"></line><line transform="translate(0,70)" x2="580" y2="0" style="fill: none; stroke: #ddd; stroke-width: 1; opacity: 1;"></line><line transform="translate(0,53)" x2="580" y2="0" style="fill: none; stroke: #ddd; stroke-width: 1; opacity: 1;"></line><line transform="translate(0,40)" x2="580" y2="0" style="fill: none; stroke: #ddd; stroke-width: 1; opacity: 1;"></line><line transform="translate(0,30)" x2="580" y2="0" style="fill: none; stroke: #ddd; stroke-width: 1; opacity: 1;"></line><line transform="translate(0,21)" x2="580" y2="0" style="fill: none; stroke: #ddd; stroke-width: 1; opacity: 1;"></line><line transform="translate(0,13)" x2="580" y2="0" style="fill: none; stroke: #ddd; stroke-width: 1; opacity: 1;"></line><line transform="translate(0,6)" x2="580" y2="0" style="fill: none; stroke: #ddd; stroke-width: 1; opacity: 1;"></line><line transform="translate(0,0)" x2="580" y2="0" style="fill: none; stroke: #ddd; stroke-width: 1; opacity: 1;"></line></g></g><path class="foreground" d="" style="pointer-events: none; display: none; fill: none;"></path></g></g><g class="mark-group role-axis"><g transform="translate(0.5,400.5)"><path class="background" d="M0,0h0v0h0Z" style="pointer-events: none; fill: none;"></path><g><g class="mark-rule role-axis-tick" style="pointer-events: none;"><line transform="translate(6,0)" x2="0" y2="5" style="fill: none; stroke: #888; stroke-width: 1; opacity: 1;"></line><line transform="translate(25,0)" x2="0" y2="5" style="fill: none; stroke: #888; stroke-width: 1; opacity: 1;"></line><line transform="translate(44,0)" x2="0" y2="5" style="fill: none; stroke: #888; stroke-width: 1; opacity: 1;"></line><line transform="translate(64,0)" x2="0" y2="5" style="fill: none; stroke: #888; stroke-width: 1; opacity: 1;"></line><line transform="translate(83,0)" x2="0" y2="5" style="fill: none; stroke: #888; stroke-width: 1; opacity: 1;"></line><line transform="translate(103,0)" x2="0" y2="5" style="fill: none; stroke: #888; stroke-width: 1; opacity: 1;"></line><line transform="translate(122,0)" x2="0" y2="5" style="fill: none; stroke: #888; stroke-width: 1; opacity: 1;"></line><line transform="translate(142,0)" x2="0" y2="5" style="fill: none; stroke: #888; stroke-width: 1; opacity: 1;"></line><line transform="translate(161,0)" x2="0" y2="5" style="fill: none; stroke: #888; stroke-width: 1; opacity: 1;"></line><line transform="translate(180,0)" x2="0" y2="5" style="fill: none; stroke: #888; stroke-width: 1; opacity: 1;"></line><line transform="translate(200,0)" x2="0" y2="5" style="fill: none; stroke: #888; stroke-width: 1; opacity: 1;"></line><line transform="translate(219,0)" x2="0" y2="5" style="fill: none; stroke: #888; stroke-width: 1; opacity: 1;"></line><line transform="translate(239,0)" x2="0" y2="5" style="fill: none; stroke: #888; stroke-width: 1; opacity: 1;"></line><line transform="translate(258,0)" x2="0" y2="5" style="fill: none; stroke: #888; stroke-width: 1; opacity: 1;"></line><line transform="translate(278,0)" x2="0" y2="5" style="fill: none; stroke: #888; stroke-width: 1; opacity: 1;"></line><line transform="translate(297,0)" x2="0" y2="5" style="fill: none; stroke: #888; stroke-width: 1; opacity: 1;"></line><line transform="translate(316,0)" x2="0" y2="5" style="fill: none; stroke: #888; stroke-width: 1; opacity: 1;"></line><line transform="translate(336,0)" x2="0" y2="5" style="fill: none; stroke: #888; stroke-width: 1; opacity: 1;"></line><line transform="translate(355,0)" x2="0" y2="5" style="fill: none; stroke: #888; stroke-width: 1; opacity: 1;"></line><line transform="translate(375,0)" x2="0" y2="5" style="fill: none; stroke: #888; stroke-width: 1; opacity: 1;"></line><line transform="translate(394,0)" x2="0" y2="5" style="fill: none; stroke: #888; stroke-width: 1; opacity: 1;"></line><line transform="translate(413,0)" x2="0" y2="5" style="fill: none; stroke: #888; stroke-width: 1; opacity: 1;"></line><line transform="translate(433,0)" x2="0" y2="5" style="fill: none; stroke: #888; stroke-width: 1; opacity: 1;"></line><line transform="translate(452,0)" x2="0" y2="5" style="fill: none; stroke: #888; stroke-width: 1; opacity: 1;"></line><line transform="translate(472,0)" x2="0" y2="5" style="fill: none; stroke: #888; stroke-width: 1; opacity: 1;"></line><line transform="translate(491,0)" x2="0" y2="5" style="fill: none; stroke: #888; stroke-width: 1; opacity: 1;"></line><line transform="translate(511,0)" x2="0" y2="5" style="fill: none; stroke: #888; stroke-width: 1; opacity: 1;"></line><line transform="translate(530,0)" x2="0" y2="5" style="fill: none; stroke: #888; stroke-width: 1; opacity: 1;"></line><line transform="translate(549,0)" x2="0" y2="5" style="fill: none; stroke: #888; stroke-width: 1; opacity: 1;"></line><line transform="translate(569,0)" x2="0" y2="5" style="fill: none; stroke: #888; stroke-width: 1; opacity: 1;"></line></g><g class="mark-text role-axis-label" style="pointer-events: none;"><text text-anchor="middle" transform="translate(5.55023923444976,18)" style="font-family: sans-serif; font-size: 14px; fill: #000; opacity: 1;">15/03</text><text text-anchor="middle" transform="translate(24.976076555023926,18)" style="font-family: sans-serif; font-size: 14px; fill: #000; opacity: 0;">22/03</text><text text-anchor="middle" transform="translate(44.40191387559808,18)" style="font-family: sans-serif; font-size: 14px; fill: #000; opacity: 1;">29/03</text><text text-anchor="middle" transform="translate(63.82775119617225,18)" style="font-family: sans-serif; font-size: 14px; fill: #000; opacity: 0;">05/04</text><text text-anchor="middle" transform="translate(83.2535885167464,18)" style="font-family: sans-serif; font-size: 14px; fill: #000; opacity: 1;">12/04</text><text text-anchor="middle" transform="translate(102.67942583732058,18)" style="font-family: sans-serif; font-size: 14px; fill: #000; opacity: 0;">19/04</text><text text-anchor="middle" transform="translate(122.10526315789473,18)" style="font-family: sans-serif; font-size: 14px; fill: #000; opacity: 1;">26/04</text><text text-anchor="middle" transform="translate(141.5311004784689,18)" style="font-family: sans-serif; font-size: 14px; fill: #000; opacity: 0;">03/05</text><text text-anchor="middle" transform="translate(160.95693779904306,18)" style="font-family: sans-serif; font-size: 14px; fill: #000; opacity: 1;">10/05</text><text text-anchor="middle" transform="translate(180.38277511961724,18)" style="font-family: sans-serif; font-size: 14px; fill: #000; opacity: 0;">17/05</text><text text-anchor="middle" transform="translate(199.8086124401914,18)" style="font-family: sans-serif; font-size: 14px; fill: #000; opacity: 1;">24/05</text><text text-anchor="middle" transform="translate(219.23444976076553,18)" style="font-family: sans-serif; font-size: 14px; fill: #000; opacity: 0;">31/05</text><text text-anchor="middle" transform="translate(238.6602870813397,18)" style="font-family: sans-serif; font-size: 14px; fill: #000; opacity: 1;">07/06</text><text text-anchor="middle" transform="translate(258.0861244019139,18)" style="font-family: sans-serif; font-size: 14px; fill: #000; opacity: 0;">14/06</text><text text-anchor="middle" transform="translate(277.511961722488,18)" style="font-family: sans-serif; font-size: 14px; fill: #000; opacity: 1;">21/06</text><text text-anchor="middle" transform="translate(296.9377990430622,18)" style="font-family: sans-serif; font-size: 14px; fill: #000; opacity: 0;">28/06</text><text text-anchor="middle" transform="translate(316.3636363636363,18)" style="font-family: sans-serif; font-size: 14px; fill: #000; opacity: 1;">05/07</text><text text-anchor="middle" transform="translate(335.7894736842105,18)" style="font-family: sans-serif; font-size: 14px; fill: #000; opacity: 0;">12/07</text><text text-anchor="middle" transform="translate(355.21531100478467,18)" style="font-family: sans-serif; font-size: 14px; fill: #000; opacity: 1;">19/07</text><text text-anchor="middle" transform="translate(374.64114832535887,18)" style="font-family: sans-serif; font-size: 14px; fill: #000; opacity: 0;">26/07</text><text text-anchor="middle" transform="translate(394.066985645933,18)" style="font-family: sans-serif; font-size: 14px; fill: #000; opacity: 1;">02/08</text><text text-anchor="middle" transform="translate(413.49282296650716,18)" style="font-family: sans-serif; font-size: 14px; fill: #000; opacity: 0;">09/08</text><text text-anchor="middle" transform="translate(432.91866028708137,18)" style="font-family: sans-serif; font-size: 14px; fill: #000; opacity: 1;">16/08</text><text text-anchor="middle" transform="translate(452.34449760765546,18)" style="font-family: sans-serif; font-size: 14px; fill: #000; opacity: 0;">23/08</text><text text-anchor="middle" transform="translate(471.77033492822966,18)" style="font-family: sans-serif; font-size: 14px; fill: #000; opacity: 1;">30/08</text><text text-anchor="middle" transform="translate(491.1961722488038,18)" style="font-family: sans-serif; font-size: 14px; fill: #000; opacity: 0;">06/09</text><text text-anchor="middle" transform="translate(510.622009569378,18)" style="font-family: sans-serif; font-size: 14px; fill: #000; opacity: 1;">13/09</text><text text-anchor="middle" transform="translate(530.0478468899521,18)" style="font-family: sans-serif; font-size: 14px; fill: #000; opacity: 0;">20/09</text><text text-anchor="middle" transform="translate(549.4736842105262,18)" style="font-family: sans-serif; font-size: 14px; fill: #000; opacity: 1;">27/09</text><text text-anchor="middle" transform="translate(568.8995215311005,18)" style="font-family: sans-serif; font-size: 14px; fill: #000; opacity: 0;">04/10</text></g><g class="mark-rule role-axis-domain" style="pointer-events: none;"><line transform="translate(0,0)" x2="580" y2="0" style="fill: none; stroke: #888; stroke-width: 1; opacity: 1;"></line></g><g class="mark-text role-axis-title" style="pointer-events: none;"><text text-anchor="middle" transform="translate(290,36)" style="font-family: sans-serif; font-size: 14px; font-weight: bold; fill: #000; opacity: 1;">Fecha de muestra</text></g></g><path class="foreground" d="" style="pointer-events: none; display: none; fill: none;"></path></g></g><g class="mark-group role-axis"><g transform="translate(0.5,0.5)"><path class="background" d="M0,0h0v0h0Z" style="pointer-events: none; fill: none;"></path><g><g class="mark-rule role-axis-tick" style="pointer-events: none;"><line transform="translate(0,400)" x2="-5" y2="0" style="fill: none; stroke: #888; stroke-width: 1; opacity: 1;"></line><line transform="translate(0,360)" x2="-5" y2="0" style="fill: none; stroke: #888; stroke-width: 1; opacity: 1;"></line><line transform="translate(0,336)" x2="-5" y2="0" style="fill: none; stroke: #888; stroke-width: 1; opacity: 1;"></line><line transform="translate(0,320)" x2="-5" y2="0" style="fill: none; stroke: #888; stroke-width: 1; opacity: 1;"></line><line transform="translate(0,307)" x2="-5" y2="0" style="fill: none; stroke: #888; stroke-width: 1; opacity: 1;"></line><line transform="translate(0,296)" x2="-5" y2="0" style="fill: none; stroke: #888; stroke-width: 1; opacity: 1;"></line><line transform="translate(0,287)" x2="-5" y2="0" style="fill: none; stroke: #888; stroke-width: 1; opacity: 1;"></line><line transform="translate(0,280)" x2="-5" y2="0" style="fill: none; stroke: #888; stroke-width: 1; opacity: 1;"></line><line transform="translate(0,273)" x2="-5" y2="0" style="fill: none; stroke: #888; stroke-width: 1; opacity: 1;"></line><line transform="translate(0,267)" x2="-5" y2="0" style="fill: none; stroke: #888; stroke-width: 1; opacity: 1;"></line><line transform="translate(0,227)" x2="-5" y2="0" style="fill: none; stroke: #888; stroke-width: 1; opacity: 1;"></line><line transform="translate(0,203)" x2="-5" y2="0" style="fill: none; stroke: #888; stroke-width: 1; opacity: 1;"></line><line transform="translate(0,186)" x2="-5" y2="0" style="fill: none; stroke: #888; stroke-width: 1; opacity: 1;"></line><line transform="translate(0,173)" x2="-5" y2="0" style="fill: none; stroke: #888; stroke-width: 1; opacity: 1;"></line><line transform="translate(0,163)" x2="-5" y2="0" style="fill: none; stroke: #888; stroke-width: 1; opacity: 1;"></line><line transform="translate(0,154)" x2="-5" y2="0" style="fill: none; stroke: #888; stroke-width: 1; opacity: 1;"></line><line transform="translate(0,146)" x2="-5" y2="0" style="fill: none; stroke: #888; stroke-width: 1; opacity: 1;"></line><line transform="translate(0,139)" x2="-5" y2="0" style="fill: none; stroke: #888; stroke-width: 1; opacity: 1;"></line><line transform="translate(0,133)" x2="-5" y2="0" style="fill: none; stroke: #888; stroke-width: 1; opacity: 1;"></line><line transform="translate(0,93)" x2="-5" y2="0" style="fill: none; stroke: #888; stroke-width: 1; opacity: 1;"></line><line transform="translate(0,70)" x2="-5" y2="0" style="fill: none; stroke: #888; stroke-width: 1; opacity: 1;"></line><line transform="translate(0,53)" x2="-5" y2="0" style="fill: none; stroke: #888; stroke-width: 1; opacity: 1;"></line><line transform="translate(0,40)" x2="-5" y2="0" style="fill: none; stroke: #888; stroke-width: 1; opacity: 1;"></line><line transform="translate(0,30)" x2="-5" y2="0" style="fill: none; stroke: #888; stroke-width: 1; opacity: 1;"></line><line transform="translate(0,21)" x2="-5" y2="0" style="fill: none; stroke: #888; stroke-width: 1; opacity: 1;"></line><line transform="translate(0,13)" x2="-5" y2="0" style="fill: none; stroke: #888; stroke-width: 1; opacity: 1;"></line><line transform="translate(0,6)" x2="-5" y2="0" style="fill: none; stroke: #888; stroke-width: 1; opacity: 1;"></line><line transform="translate(0,0)" x2="-5" y2="0" style="fill: none; stroke: #888; stroke-width: 1; opacity: 1;"></line></g><g class="mark-text role-axis-label" style="pointer-events: none;"><text text-anchor="end" transform="translate(-7,404)" style="font-family: sans-serif; font-size: 14px; fill: #000; opacity: 1;">0.1%</text><text text-anchor="end" transform="translate(-7,363.86266724480254)" style="font-family: sans-serif; font-size: 14px; fill: #000; opacity: 1;">0.2%</text><text text-anchor="end" transform="translate(-7,340.383832704045)" style="font-family: sans-serif; font-size: 14px; fill: #000; opacity: 1;">0.3%</text><text text-anchor="end" transform="translate(-7,323.725334489605)" style="font-family: sans-serif; font-size: 14px; fill: #000; opacity: 1;"></text><text text-anchor="end" transform="translate(-7,310.80399942186415)" style="font-family: sans-serif; font-size: 14px; fill: #000; opacity: 1;"></text><text text-anchor="end" transform="translate(-7,300.24649994884754)" style="font-family: sans-serif; font-size: 14px; fill: #000; opacity: 1;"></text><text text-anchor="end" transform="translate(-7,291.3202613314324)" style="font-family: sans-serif; font-size: 14px; fill: #000; opacity: 1;"></text><text text-anchor="end" transform="translate(-7,283.58800173440756)" style="font-family: sans-serif; font-size: 14px; fill: #000; opacity: 1;"></text><text text-anchor="end" transform="translate(-7,276.76766540809)" style="font-family: sans-serif; font-size: 14px; fill: #000; opacity: 1;"></text><text text-anchor="end" transform="translate(-7,270.66666666666663)" style="font-family: sans-serif; font-size: 14px; fill: #000; opacity: 1;">1%</text><text text-anchor="end" transform="translate(-7,230.52933391146917)" style="font-family: sans-serif; font-size: 14px; fill: #000; opacity: 1;">2%</text><text text-anchor="end" transform="translate(-7,207.05049937071172)" style="font-family: sans-serif; font-size: 14px; fill: #000; opacity: 1;">3%</text><text text-anchor="end" transform="translate(-7,190.39200115627168)" style="font-family: sans-serif; font-size: 14px; fill: #000; opacity: 1;"></text><text text-anchor="end" transform="translate(-7,177.47066608853083)" style="font-family: sans-serif; font-size: 14px; fill: #000; opacity: 1;"></text><text text-anchor="end" transform="translate(-7,166.91316661551417)" style="font-family: sans-serif; font-size: 14px; fill: #000; opacity: 1;"></text><text text-anchor="end" transform="translate(-7,157.98692799809913)" style="font-family: sans-serif; font-size: 14px; fill: #000; opacity: 1;"></text><text text-anchor="end" transform="translate(-7,150.25466840107418)" style="font-family: sans-serif; font-size: 14px; fill: #000; opacity: 1;"></text><text text-anchor="end" transform="translate(-7,143.4343320747567)" style="font-family: sans-serif; font-size: 14px; fill: #000; opacity: 1;"></text><text text-anchor="end" transform="translate(-7,137.33333333333331)" style="font-family: sans-serif; font-size: 14px; fill: #000; opacity: 1;">10%</text><text text-anchor="end" transform="translate(-7,97.19600057813587)" style="font-family: sans-serif; font-size: 14px; fill: #000; opacity: 1;">20%</text><text text-anchor="end" transform="translate(-7,73.71716603737832)" style="font-family: sans-serif; font-size: 14px; fill: #000; opacity: 1;">30%</text><text text-anchor="end" transform="translate(-7,57.05866782293833)" style="font-family: sans-serif; font-size: 14px; fill: #000; opacity: 1;"></text><text text-anchor="end" transform="translate(-7,44.137332755197484)" style="font-family: sans-serif; font-size: 14px; fill: #000; opacity: 1;"></text><text text-anchor="end" transform="translate(-7,33.579833282180836)" style="font-family: sans-serif; font-size: 14px; fill: #000; opacity: 1;"></text><text text-anchor="end" transform="translate(-7,24.653594664765773)" style="font-family: sans-serif; font-size: 14px; fill: #000; opacity: 1;"></text><text text-anchor="end" transform="translate(-7,16.92133506774085)" style="font-family: sans-serif; font-size: 14px; fill: #000; opacity: 1;"></text><text text-anchor="end" transform="translate(-7,10.100998741423336)" style="font-family: sans-serif; font-size: 14px; fill: #000; opacity: 1;"></text><text text-anchor="end" transform="translate(-7,4)" style="font-family: sans-serif; font-size: 14px; fill: #000; opacity: 1;">100%</text></g><g class="mark-rule role-axis-domain" style="pointer-events: none;"><line transform="translate(0,400)" x2="0" y2="-400" style="fill: none; stroke: #888; stroke-width: 1; opacity: 1;"></line></g><g class="mark-text role-axis-title" style="pointer-events: none;"><text text-anchor="middle" transform="translate(-46.806640625,200) rotate(-90) translate(0,-3)" style="font-family: sans-serif; font-size: 14px; font-weight: bold; fill: #000; opacity: 1;">Positividad</text></g></g><path class="foreground" d="" style="pointer-events: none; display: none; fill: none;"></path></g></g><g class="mark-group role-scope pathgroup"><g transform="translate(0,0)"><path class="background" d="M0,0h580v400h-580Z" style="fill: none;"></path><g><g class="mark-line role-mark marks"><path d="M0,138.8523580210967L2.77511961722488,120.4119982655925L5.55023923444976,133.33333333333331L8.325358851674642,140.92064684486303L11.10047846889952,149.99183154777333L13.875598086124402,149.88036677626116L16.650717703349283,156.35621330633919L19.425837320574164,138.8523580210967L22.20095693779904,136.70744870196935L24.976076555023926,128.91463637714534L27.751196172248804,111.71729106787672L30.52631578947368,101.45664645455103L33.301435406698566,100.61922803223422L36.07655502392345,98.6174583836417L38.85167464114833,106.39911688766324L41.6267942583732,108.27066703336597L44.40191387559808,109.0961315145865L47.177033492822964,114.83639718747555L49.95215311004785,122.96333299096065L52.72727272727273,131.5236257080968L55.50239234449761,141.21799330598654L58.27751196172249,146.79560852233595L61.05263157894736,149.01152827187752L63.82775119617225,150.1566793766062L66.60287081339713,156.75066395867478L69.377990430622,162.82789111444433L72.1531100478469,166.6133342316853L74.92822966507177,168.39289307922397L77.70334928229666,169.16733506567408L80.47846889952153,169.0273243005052L83.2535885167464,169.70176496848555L86.02870813397129,170.01579295378505L88.80382775119617,168.42765304308318L91.57894736842104,169.4842219999575L94.35406698564593,168.23471052171755L97.12918660287082,171.7173695061584L99.9043062200957,173.22139350849432L102.67942583732058,173.66863527595635L105.45454545454545,181.50710742645973L108.22966507177034,184.63520047476055L111.00478468899522,184.5032563313048L113.77990430622009,192.18334177515754L116.55502392344498,196.5452691034507L119.33014354066985,201.3115989471216L122.10526315789473,202.226850936358L124.88038277511963,204.52588952406634L127.6555023923445,212.16931012308336L130.4306220095694,226.4046709334594L133.20574162679426,231.7139973336539L135.98086124401914,237.99727339001504L138.755980861244,237.96898649828825L141.5311004784689,237.54743979414482L144.3062200956938,243.4447901635391L147.08133971291866,250.84627030413512L149.85645933014354,255.36268754378008L152.6315789473684,265.6565506927256L155.4066985645933,271.4569526929797L158.18181818181816,275.6376770890894L160.95693779904306,277.3739170730614L163.73205741626793,282.6972641118174L166.5071770334928,287.7938499222495L169.2822966507177,295.9200562820457L172.05741626794259,297.5011485652085L174.8325358851675,301.2973818185865L177.60765550239233,302.97649197309033L180.38277511961724,301.70567353989196L183.15789473684208,304.7653621404077L185.93301435406698,309.8946120203045L188.70813397129186,310.9140978938116L191.48325358851676,314.3082720169885L194.25837320574163,322.79322004536687L197.0334928229665,321.8291686748105L199.8086124401914,320.5456215380476L202.58373205741626,322.08824358202247L205.35885167464116,330.034912451262L208.13397129186603,325.81118662214476L210.9090909090909,316.42080621942836L213.68421052631578,308.093672756983L216.45933014354068,307.7715133693461L219.23444976076553,309.9663404856306L222.00956937799043,307.21765285340143L224.78468899521533,303.60738686668145L227.55980861244018,306.6993525452614L230.33492822966508,316.5671452401402L233.11004784688996,326.46581065641067L235.88516746411483,322.7612762201459L238.6602870813397,320.8076483637146L241.4354066985646,327.2302196157989L244.21052631578945,330.25396399771085L246.98564593301435,330.3588783408008L249.76076555023926,327.41227032420824L252.5358851674641,319.3807359765948L255.311004784689,318.66086080596733L258.0861244019139,316.9041710476613L260.8612440191388,314.34493414481L263.6363636363636,309.04370500489637L266.41148325358853,306.95596142139124L269.1866028708134,299.2295934371427L271.9617224880383,302.8568185149596L274.7368421052631,306.311941428073L277.511961722488,308.20313695950085L280.2870813397129,302.61800189355836L283.0622009569378,293.50733926637355L285.8373205741627,288.67483392586024L288.6124401913876,279.0714575121275L291.3875598086124,266.7139634760221L294.1626794258373,262.73716181034564L296.9377990430622,262.0813617260182L299.7129186602871,254.35026379758492L302.4880382775119,246.38202824697802L305.2631578947368,239.29457931977103L308.0382775119617,233.77559700225743L310.8133971291866,226.82912091133306L313.5885167464115,224.57575802818522L316.3636363636363,223.43535759108048L319.1387559808612,214.40804157188919L321.9138755980861,205.90751102362805L324.688995215311,201.60800184378834L327.46411483253587,196.1471717705965L330.2392344497608,190.43616478706085L333.0143540669856,188.8744979999596L335.7894736842105,186.5380758163079L338.5645933014354,180.53896523158275L341.33971291866027,181.20821397892038L344.11483253588517,177.48643953636977L346.8899521531101,176.3599183455861L349.665071770335,176.3084487243287L352.44019138755976,175.79333563100153L355.21531100478467,176.4452405697711L357.99043062200957,174.624678792879L360.76555023923447,170.47707405585442L363.5406698564594,167.7700184084171L366.31578947368416,163.48553475369428L369.09090909090907,157.36409088691482L371.86602870813397,156.10731169736488L374.64114832535887,155.71245379867494L377.4162679425837,151.30485655339322L380.1913875598086,145.36119236327042L382.9665071770335,138.73601287169407L385.74162679425837,132.40765520149478L388.51674641148327,125.24357796909769L391.2918660287081,125.09179187366408L394.066985645933,125.04054555339393L396.8421052631579,119.16612553114891L399.6172248803828,113.20724722196185L402.3923444976076,112.99174924516157L405.1674641148325,114.98722497684004L407.9425837320574,115.95126115449013L410.7177033492823,116.24166855311783L413.49282296650716,116.02819721226663L416.26794258373207,117.05577556310449L419.0430622009569,119.85008533690814L421.8181818181818,120.14555141853225L424.5933014354067,121.26953622854532L427.36842105263156,122.35840570119048L430.14354066985646,122.03067307053361L432.91866028708137,122.25493741594215L435.6937799043062,121.09140029822751L438.46889952153106,120.27725491003997L441.24401913875596,120.20044464825435L444.01913875598086,120.60281256087619L446.79425837320576,121.91710638394295L449.56937799043067,122.30781837961051L452.34449760765546,122.08391608829317L455.11961722488036,124.80421419077801L457.89473684210526,125.83926402548653L460.66985645933016,126.34247900882221L463.444976076555,124.74326481675608L466.2200956937799,122.72078396598158L468.9952153110048,122.08132388500145L471.77033492822966,122.47039235604578L474.54545454545456,121.61055593222846L477.3205741626794,122.2056103867696L480.0956937799043,122.69952888347646L482.8708133971292,123.64667409435226L485.6459330143541,124.38753083700362L488.4210526315789,124.83811709074426L491.1961722488038,124.6201149350135L493.9712918660287,125.10491060232876L496.7464114832536,123.93783343695688L499.5215311004785,121.97829474324915L502.29665071770336,115.36214319983893L505.0717703349282,111.8160740572618L507.8468899521531,112.5060005157025L510.622009569378,112.7010794840375L513.3971291866028,114.12086495647257L516.1722488038278,114.40655680740441L518.9473684210526,111.34410343206311L521.7224880382776,113.53101374717522L524.4976076555024,117.57644253222321L527.2727272727273,117.50209023291305L530.0478468899521,117.51714892616482L532.8229665071771,120.48674454022881L535.5980861244019,122.75326871191639L538.3732057416267,130.0883765642412L541.1483253588517,133.8227630760074L543.9234449760766,136.00347705493232L546.6985645933014,136.36193591718683L549.4736842105262,136.2306044798653L552.2488038277512,135.34833271005894L555.023923444976,133.12654978697154L557.799043062201,131.64305418631912L560.5741626794259,130.2684661709503L563.3492822966507,127.63792736109897L566.1244019138755,126.99028928352743L568.8995215311005,127.07033013894926L571.6746411483253,124.34820711110576L574.4497607655502,123.61420889953827L577.2248803827752,121.03199558263L580,120.89591032866092" style="fill: none; stroke: #4c78a8; stroke-width: 2; stroke-dasharray: 1,0;"></path></g></g><path class="foreground" d="" style="display: none; fill: none;"></path></g><g transform="translate(0,0)"><path class="background" d="M0,0h580v400h-580Z" style="fill: none;"></path><g><g class="mark-line role-mark marks"><path d="M0,138.8523580210967L2.77511961722488,120.4119982655925L5.55023923444976,133.33333333333331L8.325358851674642,140.92064684486303L11.10047846889952,149.99183154777333L13.875598086124402,149.88036677626116L16.650717703349283,156.35621330633919L19.425837320574164,138.8523580210967L22.20095693779904,136.70744870196935L24.976076555023926,128.91463637714534L27.751196172248804,111.71729106787672L30.52631578947368,101.45664645455103L33.301435406698566,100.61922803223422L36.07655502392345,98.6174583836417L38.85167464114833,106.39911688766324L41.6267942583732,108.27066703336597L44.40191387559808,109.0961315145865L47.177033492822964,114.83639718747555L49.95215311004785,122.96333299096065L52.72727272727273,131.5236257080968L55.50239234449761,141.21799330598654L58.27751196172249,146.79560852233595L61.05263157894736,149.01152827187752L63.82775119617225,150.1566793766062L66.60287081339713,156.75066395867478L69.377990430622,162.82789111444433L72.1531100478469,166.6133342316853L74.92822966507177,168.39289307922397L77.70334928229666,169.16733506567408L80.47846889952153,169.0273243005052L83.2535885167464,169.70176496848555L86.02870813397129,170.01579295378505L88.80382775119617,168.42765304308318L91.57894736842104,168.93658245346055L94.35406698564593,167.36966734710754L97.12918660287082,171.21755746760093L99.9043062200957,172.30694285904912L102.67942583732058,172.7675498757912L105.45454545454545,180.37349296599626L108.22966507177034,183.33055287341898L111.00478468899522,183.1832242889629L113.77990430622009,190.55572360741567L116.55502392344498,194.08399824209081L119.33014354066985,198.7408766448084L122.10526315789473,199.66650508886968L124.88038277511963,203.09545739387102L127.6555023923445,211.8339366064567L130.4306220095694,226.54256804040816L133.20574162679426,231.94297926001224L135.98086124401914,238.6642967926709L138.755980861244,239.31703682519773L141.5311004784689,238.86019842613618L144.3062200956938,243.94052154588363L147.08133971291866,250.43454721848684L149.85645933014354,254.29158067447383L152.6315789473684,264.4130231716468L155.4066985645933,270.0288402058274L158.18181818181816,273.3632800997345L160.95693779904306,275.15709445353866L163.73205741626793,280.2296708393728L166.5071770334928,286.71928395094824L169.2822966507177,295.1837462067814L172.05741626794259,297.3205110545233L174.8325358851675,301.8931049689268L177.60765550239233,303.7723149882682L180.38277511961724,302.3903619247706L183.15789473684208,306.20860848385104L185.93301435406698,308.1958111181972L188.70813397129186,308.3970063911841L191.48325358851676,310.53240596937025L194.25837320574163,317.23497878493436L197.0334928229665,316.2449608143777L199.8086124401914,314.90289950443054L202.58373205741626,314.6542126146067L205.35885167464116,323.7239106284096L208.13397129186603,319.9744701027129L210.9090909090909,311.8109729409345L213.68421052631578,303.63303272594914L216.45933014354068,303.73481293056466L219.23444976076553,306.0436196274823L222.00956937799043,303.9930115594616L224.78468899521533,300.5211850447833L227.55980861244018,304.0850326436507L230.33492822966508,314.1409626475427L233.11004784688996,324.0805833490631L235.88516746411483,319.75377252409413L238.6602870813397,317.7669714519966L241.4354066985646,323.7532700817948L244.21052631578945,326.3051298726624L246.98564593301435,327.594816027666L249.76076555023926,324.61521206428614L252.5358851674641,316.93512452793146L255.311004784689,316.3466649839316L258.0861244019139,314.5513861538881L260.8612440191388,313.71077865420756L263.6363636363636,308.1396155228674L266.41148325358853,304.94518045043293L269.1866028708134,296.9409992545827L271.9617224880383,300.61479665589144L274.7368421052631,304.0190279278293L277.511961722488,305.9730146070022L280.2870813397129,299.0498223639719L283.0622009569378,290.03509901779347L285.8373205741627,284.9938746983202L288.6124401913876,275.6856988964027L291.3875598086124,263.6643909670792L294.1626794258373,259.74574282898135L296.9377990430622,259.0613400679782L299.7129186602871,251.0915382428001L302.4880382775119,243.194393332751L305.2631578947368,236.8114609206967L308.0382775119617,231.57802158515545L310.8133971291866,224.7909390180542L313.5885167464115,222.74605813567945L316.3636363636363,221.59067710518167L319.1387559808612,213.69125684645476L321.9138755980861,205.6122834662312L324.688995215311,200.84436734275207L327.46411483253587,194.91193858968566L330.2392344497608,188.7907596320033L333.0143540669856,187.01830436630775L335.7894736842105,184.5594730400646L338.5645933014354,177.8906317255203L341.33971291866027,178.71302167444006L344.11483253588517,175.46406410697327L346.8899521531101,174.93146845039084L349.665071770335,175.2331856941025L352.44019138755976,174.80982228328475L355.21531100478467,175.50882412939984L357.99043062200957,174.61947688913392L360.76555023923447,170.6472227887307L363.5406698564594,168.11131936432767L366.31578947368416,163.71649675776047L369.09090909090907,157.46772086578096L371.86602870813397,156.3441421319669L374.64114832535887,155.9014247239889L377.4162679425837,151.11809346406102L380.1913875598086,145.13381949033558L382.9665071770335,138.56979637317383L385.74162679425837,131.8444350102139L388.51674641148327,124.3906926702016L391.2918660287081,123.9669206530035L394.066985645933,123.91399442985009L396.8421052631579,118.03032447631594L399.6172248803828,111.84036722084323L402.3923444976076,111.50099604634987L405.1674641148325,113.34513013729924L407.9425837320574,114.36715827277592L410.7177033492823,114.5572334781408L413.49282296650716,114.32476534639503L416.26794258373207,115.17708895062965L419.0430622009569,117.94605530165741L421.8181818181818,118.10259020407155L424.5933014354067,119.3828542326358L427.36842105263156,120.51198976242875L430.14354066985646,120.28721486254335L432.91866028708137,120.51346076860567L435.6937799043062,119.38584166570259L438.46889952153106,118.56695948709768L441.24401913875596,118.6545277696236L444.01913875598086,118.96261300073778L446.79425837320576,120.42058901272203L449.56937799043067,120.97381923782255L452.34449760765546,120.75220877921228L455.11961722488036,123.136714918971L457.89473684210526,123.830389867496L460.66985645933016,124.09066620919612L463.444976076555,122.1794642985849L466.2200956937799,119.66567700418294L468.9952153110048,119.06843731398315L471.77033492822966,119.45406630739095L474.54545454545456,118.95762439064721L477.3205741626794,120.2669484433021L480.0956937799043,121.14991747979617L482.8708133971292,122.54516076838567L485.6459330143541,123.65481939243197L488.4210526315789,124.17473258997384L491.1961722488038,123.95013169209363L493.9712918660287,124.66275045534778L496.7464114832536,123.44753170026719L499.5215311004785,121.40242859998737L502.29665071770336,114.96709634725022L505.0717703349282,111.4125999026018L507.8468899521531,112.09409796649999L510.622009569378,112.31144298347448L513.3971291866028,113.57354085293699L516.1722488038278,113.56682214173736L518.9473684210526,110.46806657105054L521.7224880382776,112.40082593025384L524.4976076555024,116.41547928912854L527.2727272727273,116.34527252002394L530.0478468899521,116.3369864597402L532.8229665071771,119.30583782456617L535.5980861244019,121.53919522738512L538.3732057416267,128.7216904711186L541.1483253588517,132.6921109001546L543.9234449760766,134.99700445830896L546.6985645933014,135.7516104450159L549.4736842105262,135.71031840204935L552.2488038277512,135.56089992796706L555.023923444976,134.898927212282L557.799043062201,133.7316423114322L560.5741626794259,135.5734810669728" style="fill: none; stroke: #4c78a8; stroke-width: 2; stroke-dasharray: 4,2;"></path></g></g><path class="foreground" d="" style="display: none; fill: none;"></path></g><g transform="translate(0,0)"><path class="background" d="M0,0h580v400h-580Z" style="fill: none;"></path><g><g class="mark-line role-mark marks"><path d="M0,16.658498214439987L2.77511961722488,23.478834540757497L8.325358851674642,64.88887635011902L11.10047846889952,92.66717561578895L13.875598086124402,103.75350005115247L16.650717703349283,118.80658250344408L19.425837320574164,117.83797757287431L22.20095693779904,118.40349874080904L24.976076555023926,115.28855511451334L27.751196172248804,105.39400441079164L30.52631578947368,97.71948330785195L33.301435406698566,96.9989285597522L36.07655502392345,97.81874322508335L38.85167464114833,104.54596895212207L41.6267942583732,108.05256534079808L44.40191387559808,109.31179631106906L47.177033492822964,115.01763655583889L49.95215311004785,124.01619710376508L52.72727272727273,132.32455038419508L55.50239234449761,141.05325370434568L58.27751196172249,147.6100513564762L61.05263157894736,149.51433256778998L63.82775119617225,151.35418591251158L66.60287081339713,159.39178307248176L69.377990430622,167.04474343529142L72.1531100478469,176.49847862211777L74.92822966507177,181.42236250317035L77.70334928229666,185.6522021727481L80.47846889952153,186.03783533710634L83.2535885167464,186.09645438531382L86.02870813397129,195.22329111645826L88.80382775119617,200.645832232925L91.57894736842104,201.286730606211L94.35406698564593,206.77924534595613L97.12918660287082,209.66178878796543L99.9043062200957,213.55805840861865L102.67942583732058,215.0082104737372L105.45454545454545,220.9974398090689L108.22966507177034,223.6567774981646L111.00478468899522,226.6568600024783L113.77990430622009,234.0132439474491L116.55502392344498,237.69852144134046L119.33014354066985,243.08019255792067L122.10526315789473,242.09039627408106L124.88038277511963,248.24049780228128L127.6555023923445,258.20046454388796L130.4306220095694,269.0877292765266L133.20574162679426,269.33328420080153L135.98086124401914,281.05485167158986L138.755980861244,279.9644229792581L141.5311004784689,280.1492266418775L144.3062200956938,290.7080321489987L147.08133971291866,290.98360305933255L149.85645933014354,297.3782151361249L152.6315789473684,308.7472338428079L155.4066985645933,307.7423434117266L158.18181818181816,310.5767944586406L163.73205741626793,313.33869846623196L166.5071770334928,314.00259410340504L169.2822966507177,323.10361186003405L172.05741626794259,330.5524330638151L174.8325358851675,335.3525666208041L177.60765550239233,345.26794259576013L180.38277511961724,343.62486783615356L183.15789473684208,351.37101839976157L185.93301435406698,358.2789271476253L188.70813397129186,353.720379118594L191.48325358851676,355.0217879432051L194.25837320574163,357.89207801531103L197.0334928229665,355.7340476243645L199.8086124401914,355.7518121261557L202.58373205741626,352.88719412285263L205.35885167464116,356.4410237770928L208.13397129186603,365.9485193773422L210.9090909090909,353.11717049378774L213.68421052631578,335.2090519466288L216.45933014354068,337.67666172580687L219.23444976076553,338.712980530878L222.00956937799043,330.483988326618L224.78468899521533,324.7696752648493L227.55980861244018,326.1027215306051L230.33492822966508,332.9200705506355L233.11004784688996,347.34753141105494L235.88516746411483,345.00539594500947L238.6602870813397,344.28648290447205L241.4354066985646,357.3340920484374L244.21052631578945,362.7944896876365L246.98564593301435,356.69079884172237L249.76076555023926,355.058797362358L252.5358851674641,347.37400615214796L255.311004784689,341.9009076643407L258.0861244019139,338.5590459495931L260.8612440191388,333.1888211843393L263.6363636363636,325.5572571338411L266.41148325358853,325.1853703755788L269.1866028708134,320.3593473662907L271.9617224880383,322.8025744626876L274.7368421052631,327.60538714374127L280.2870813397129,325.69382532212927L283.0622009569378,313.43364645098035L285.8373205741627,309.553183419073L288.6124401913876,297.59436015566496L291.3875598086124,288.61002671119695L294.1626794258373,280.9549271859959L296.9377990430622,277.21044272904425L299.7129186602871,264.2220508715547L302.4880382775119,256.04126311922215L305.2631578947368,248.0153561098458L308.0382775119617,239.50093037009123L310.8133971291866,228.86111645223136L313.5885167464115,225.86499712819457L316.3636363636363,224.69651664402534L319.1387559808612,219.55675041084115L321.9138755980861,211.03527793285144L324.688995215311,206.20987509039927L327.46411483253587,202.48171723667144L330.2392344497608,198.25556650876405L333.0143540669856,197.0785097464093L335.7894736842105,196.2370735157467L338.5645933014354,189.12369346600437L341.33971291866027,189.66625849557164L344.11483253588517,187.3683866295429L346.8899521531101,185.93474813601597L349.665071770335,186.3794611127116L352.44019138755976,185.50462604314828L355.21531100478467,185.15348593766655L357.99043062200957,184.94568030576494L360.76555023923447,182.20763277630235L363.5406698564594,179.8834951555516L366.31578947368416,177.3502551580729L369.09090909090907,172.5430791903448L371.86602870813397,172.042813173845L374.64114832535887,171.7976212807517L377.4162679425837,167.98137996048322L380.1913875598086,163.05407102109308L382.9665071770335,157.87981423289335L385.74162679425837,152.22183065375776L388.51674641148327,144.95664677876596L391.2918660287081,144.9377043956399L394.066985645933,145.401705358723L396.8421052631579,142.1295828409067L399.6172248803828,137.8955637475325L402.3923444976076,138.7851167544887L405.1674641148325,140.957303308006L407.9425837320574,142.73223999141695L410.7177033492823,142.46708932113057L413.49282296650716,142.1386350751427L416.26794258373207,143.83782772152887L419.0430622009569,146.03701422762873L421.8181818181818,145.16003723167384L424.5933014354067,145.5520389930178L427.36842105263156,146.93860466988102L430.14354066985646,146.63293833321762L432.91866028708137,146.88910484625214L435.6937799043062,146.6835457701798L438.46889952153106,147.25820355545474L441.24401913875596,147.40975226223344L444.01913875598086,150.24296167068977L446.79425837320576,154.59276849674225L449.56937799043067,156.1858705677717L452.34449760765546,156.0453048172332L455.11961722488036,158.9802489500446L457.89473684210526,161.14145697770513L460.66985645933016,167.12726427766253L463.444976076555,167.66339997377005L466.2200956937799,167.44577477027286L468.9952153110048,167.96771157524185L471.77033492822966,168.39225961930882L474.54545454545456,171.47510879599284L477.3205741626794,173.05168114687137L480.0956937799043,171.56485997030845L482.8708133971292,168.57770291105996L485.6459330143541,165.30589957467416L488.4210526315789,163.72577805439442L491.1961722488038,163.37173591448345L493.9712918660287,158.65205271224195L496.7464114832536,154.35989186799048L499.5215311004785,149.8774776603589L502.29665071770336,141.00896377598863L505.0717703349282,136.58909338831901L507.8468899521531,137.1611422400455L510.622009569378,137.4470895196906L513.3971291866028,138.43289273416363L516.1722488038278,138.69148631119447L518.9473684210526,133.80719310580966L521.7224880382776,137.07113522001163L524.4976076555024,141.06239126070633L527.2727272727273,141.10917716479338L530.0478468899521,141.16011401135958L532.8229665071771,144.3859506616005L535.5980861244019,145.90402344631968L538.3732057416267,154.6257164671201L541.1483253588517,157.9318316427322L543.9234449760766,159.7396717123081L546.6985645933014,160.44894036408473L549.4736842105262,160.53699179477735L552.2488038277512,160.28644943016798L555.023923444976,160.24162399105694L557.799043062201,159.88712705347044L560.5741626794259,159.96217546017647L563.3492822966507,159.55779327206474L566.1244019138755,159.151020683821L568.8995215311005,159.154066508091L571.6746411483253,159.773579544945L574.4497607655502,163.4347215457642" style="fill: none; stroke: #f58518; stroke-width: 2; stroke-dasharray: 1,0;"></path></g></g><path class="foreground" d="" style="display: none; fill: none;"></path></g><g transform="translate(0,0)"><path class="background" d="M0,0h580v400h-580Z" style="fill: none;"></path><g><g class="mark-line role-mark marks"><path d="M0,16.658498214439987L2.77511961722488,23.478834540757497L8.325358851674642,64.88887635011902L11.10047846889952,92.66717561578895L13.875598086124402,103.75350005115247L16.650717703349283,118.80658250344408L19.425837320574164,117.83797757287431L22.20095693779904,118.40349874080904L24.976076555023926,115.28855511451334L27.751196172248804,105.39400441079164L30.52631578947368,97.71948330785195L33.301435406698566,96.9989285597522L36.07655502392345,97.81874322508335L38.85167464114833,104.54596895212207L41.6267942583732,108.05256534079808L44.40191387559808,109.31179631106906L47.177033492822964,115.01763655583889L49.95215311004785,124.01619710376508L52.72727272727273,132.32455038419508L55.50239234449761,141.05325370434568L58.27751196172249,147.6100513564762L61.05263157894736,149.51433256778998L63.82775119617225,151.35418591251158L66.60287081339713,159.39178307248176L69.377990430622,167.04474343529142L72.1531100478469,176.49847862211777L74.92822966507177,181.42236250317035L77.70334928229666,185.6522021727481L80.47846889952153,186.03783533710634L83.2535885167464,186.09645438531382L86.02870813397129,195.22329111645826L88.80382775119617,200.645832232925L91.57894736842104,200.73909105971407L94.35406698564593,205.91420217134603L97.12918660287082,208.75418681817862L99.9043062200957,212.24425492859217L102.67942583732058,213.70914460031045L105.45454545454545,219.42844035823654L108.22966507177034,221.67220900197552L111.00478468899522,223.77472353641528L113.77990430622009,230.44717093616381L116.55502392344498,233.44752085072295L119.33014354066985,238.6018082502905L122.10526315789473,237.57641204368687L124.88038277511963,243.7977305415025L127.6555023923445,254.00326490255242L130.4306220095694,265.6956403125924L133.20574162679426,266.25245496382234L135.98086124401914,278.1321893645283L138.755980861244,277.20842869403117L141.5311004784689,277.4022255773813L144.3062200956938,288.0729507514069L147.08133971291866,288.30076806718023L149.85645933014354,294.4289134296713L152.6315789473684,305.55163616401035L155.4066985645933,304.4461356655324L158.18181818181816,307.00835633496865L163.73205741626793,309.6636968596703L166.5071770334928,310.15264687700824L169.2822966507177,319.14893072414327L172.05741626794259,326.5938718283618L174.8325358851675,331.0369683730234L177.60765550239233,340.6988077660406L180.38277511961724,339.271081435779L183.15789473684208,345.8171162767017L185.93301435406698,351.7741123542327L188.70813397129186,346.3069133460013L191.48325358851676,346.4674651984257L194.25837320574163,349.640051943107L197.0334928229665,347.4560549521601L199.8086124401914,347.47654899977107L202.58373205741626,345.45316315543687L205.35885167464116,350.13002195424053L208.13397129186603,359.364619188844L210.9090909090909,346.707007828141L213.68421052631578,328.6984303733343L216.45933014354068,331.15434661288435L219.23444976076553,332.21623898001144L222.00956937799043,324.64660622422736L224.78468899521533,318.85823356695937L227.55980861244018,321.02394753645933L230.33492822966508,328.6257926989961L233.11004784688996,343.3462197469269L235.88516746411483,340.99080719689823L238.6602870813397,340.27257416055414L241.4354066985646,353.33310336397574L244.21052631578945,358.8456555625881L246.98564593301435,352.8023141903392L249.76076555023926,351.17935373947864L252.5358851674641,343.4623434632895L255.311004784689,338.132930107595L258.0861244019139,334.7995700780454L260.8612440191388,329.2448545303991L263.6363636363636,321.52235487187573L266.41148325358853,321.02170461121295L269.1866028708134,316.19661125513596L271.9617224880383,318.61067373578845L274.7368421052631,323.25154683498755L280.2870813397129,321.40955693724936L283.0622009569378,308.9223654447046L285.8373205741627,304.83321817143195L288.6124401913876,292.79627468876896L291.3875598086124,283.4258714610323L294.1626794258373,275.42565766512377L296.9377990430622,271.81777916025356L299.7129186602871,258.36454615538383L302.4880382775119,249.97373430803202L305.2631578947368,243.008092930629L308.0382775119617,235.4571008737672L310.8133971291866,225.762356726257L313.5885167464115,223.07106889117244L316.3636363636363,221.90855126621187L319.1387559808612,217.03538554171527L321.9138755980861,208.81078290603173L324.688995215311,202.71733589492365L327.46411483253587,198.24291033462927L330.2392344497608,193.1351815521657L333.0143540669856,191.71871929216965L335.7894736842105,190.93004329858366L338.5645933014354,183.9741018060196L341.33971291866027,184.8988260528281L344.11483253588517,183.46943962828527L346.8899521531101,182.53831508098597L349.665071770335,183.43021370540148L352.44019138755976,182.70479495945548L355.21531100478467,182.3578907618986L357.99043062200957,182.11652645500845L360.76555023923447,179.17863627712666L363.5406698564594,176.75771191056438L366.31578947368416,174.06381113278306L369.09090909090907,169.17991325411745L371.86602870813397,168.95239448070072L374.64114832535887,168.6799584100597L377.4162679425837,165.05447022269908L380.1913875598086,160.47280433917743L382.9665071770335,154.95889938018445L385.74162679425837,149.22863444831708L388.51674641148327,141.70892380043307L391.2918660287081,141.2287124637608L394.066985645933,141.6948303072429L396.8421052631579,138.47464027381054L399.6172248803828,134.24117901418637L402.3923444976076,135.56180464076738L405.1674641148325,137.62194603739547L407.9425837320574,139.6369969082798L410.7177033492823,139.37571464456636L413.49282296650716,139.0223656372871L416.26794258373207,140.53988703659508L419.0430622009569,142.63599319559899L421.8181818181818,141.6759229840528L424.5933014354067,142.25588214726673L427.36842105263156,143.8864892642919L430.14354066985646,143.74885898283304L432.91866028708137,144.00093863065996L435.6937799043062,144.12159847456115L438.46889952153106,144.82245831710077L441.24401913875596,145.0749721533828L444.01913875598086,147.86304425028356L446.79425837320576,152.12966391321766L449.56937799043067,153.8397091755539L452.34449760765546,153.71040377801623L455.11961722488036,156.4451901307184L457.89473684210526,158.32061652900015L460.66985645933016,164.0646534938195L463.444976076555,164.29330056271897L466.2200956937799,163.7886204318292L468.9952153110048,164.31043927928633L471.77033492822966,164.72538723161972L474.54545454545456,168.15246261986525L477.3205741626794,170.50826091637595L480.0956937799043,169.5350518529069L482.8708133971292,167.0732560845672L485.6459330143541,164.29437499155785L488.4210526315789,162.85726900151442L491.1961722488038,162.49703993394652L493.9712918660287,158.0584289624785L496.7464114832536,153.72743147335405L499.5215311004785,149.23542069534955L502.29665071770336,140.4017010469881L505.0717703349282,135.9747841256738L507.8468899521531,136.54219784990983L510.622009569378,136.83426268372676L513.3971291866028,137.58385997693173L516.1722488038278,137.54178056339418L518.9473684210526,132.44485666868337L521.7224880382776,135.5010315049831L524.4976076555024,139.38241096363475L527.2727272727273,139.44837472081L530.0478468899521,139.46116823072296L532.8229665071771,142.62455315745598L535.5980861244019,144.04038942961898L538.3732057416267,153.3227681005177L541.1483253588517,159.363502599459L543.9234449760766,165.59573671300654L546.6985645933014,167.90336634093072L549.4736842105262,168.2428738973368L552.2488038277512,174.41903520600977L555.023923444976,185.28864656563536" style="fill: none; stroke: #f58518; stroke-width: 2; stroke-dasharray: 4,2;"></path></g></g><path class="foreground" d="" style="display: none; fill: none;"></path></g></g><g class="mark-group role-legend"><g transform="translate(50,4)"><path class="background" d="M0,0h234v70h-234Z" style="pointer-events: none; fill: white;"></path><g><g class="mark-group role-legend-entry"><g transform="translate(7.5,26.5)"><path class="background" d="M0,0h0v0h0Z" style="pointer-events: none; fill: none;"></path><g><g class="mark-group role-scope"><g transform="translate(0,0)"><path class="background" d="M0,0h218.9794921875v16.5h-218.9794921875Z" style="pointer-events: none; fill: none; opacity: 1;"></path><g><g class="mark-symbol role-legend-symbol" style="pointer-events: none;"><path transform="translate(9.5,9.5)" d="M-7.905694150420948,0L7.905694150420948,0" style="fill: none; stroke: #4c78a8; stroke-width: 3; opacity: 1;"></path></g><g class="mark-text role-legend-label" style="pointer-events: none;"><text text-anchor="start" transform="translate(23,13.5)" style="font-family: sans-serif; font-size: 14px; fill: #000; opacity: 1;">Positivas  pruebas (Molecular)</text></g></g><path class="foreground" d="" style="pointer-events: none; display: none; fill: none;"></path></g><g transform="translate(0,19)"><path class="background" d="M0,0h218.9794921875v16.5h-218.9794921875Z" style="pointer-events: none; fill: none; opacity: 1;"></path><g><g class="mark-symbol role-legend-symbol" style="pointer-events: none;"><path transform="translate(9.5,9.5)" d="M-7.905694150420948,0L7.905694150420948,0" style="fill: none; stroke: #f58518; stroke-width: 3; opacity: 1;"></path></g><g class="mark-text role-legend-label" style="pointer-events: none;"><text text-anchor="start" transform="translate(23,13.5)" style="font-family: sans-serif; font-size: 14px; fill: #000; opacity: 1;">Casos  pruebas (Molecular)</text></g></g><path class="foreground" d="" style="pointer-events: none; display: none; fill: none;"></path></g></g></g><path class="foreground" d="" style="pointer-events: none; display: none; fill: none;"></path></g></g><g class="mark-text role-legend-title" style="pointer-events: none;"><text text-anchor="start" transform="translate(7.5,18.5)" style="font-family: sans-serif; font-size: 14px; font-weight: bold; fill: #000; opacity: 1;">Mtodo de clculo</text></g></g><path class="foreground" d="" style="pointer-events: none; display: none; fill: none;"></path></g></g><g class="mark-group role-legend"><g transform="translate(447,314)"><path class="background" d="M0,0h115v68h-115Z" style="pointer-events: none; fill: white;"></path><g><g class="mark-group role-legend-entry"><g transform="translate(7.5,26.5)"><path class="background" d="M0,0h0v0h0Z" style="pointer-events: none; fill: none;"></path><g><g class="mark-group role-scope"><g transform="translate(0,0)"><path class="background" d="M0,0h99.0615234375v16h-99.0615234375Z" style="pointer-events: none; fill: none; opacity: 1;"></path><g><g class="mark-symbol role-legend-symbol" style="pointer-events: none;"><path transform="translate(9,9)" d="M-7.905694150420948,0L7.905694150420948,0" style="fill: none; stroke: #888; stroke-width: 2; stroke-dasharray: 1,0; opacity: 1;"></path></g><g class="mark-text role-legend-label" style="pointer-events: none;"><text text-anchor="start" transform="translate(22,13)" style="font-family: sans-serif; font-size: 14px; fill: #000; opacity: 1;">oct 08, 2020</text></g></g><path class="foreground" d="" style="pointer-events: none; display: none; fill: none;"></path></g><g transform="translate(0,18)"><path class="background" d="M0,0h99.0615234375v16h-99.0615234375Z" style="pointer-events: none; fill: none; opacity: 1;"></path><g><g class="mark-symbol role-legend-symbol" style="pointer-events: none;"><path transform="translate(9,9)" d="M-7.905694150420948,0L7.905694150420948,0" style="fill: none; stroke: #888; stroke-width: 2; stroke-dasharray: 4,2; opacity: 1;"></path></g><g class="mark-text role-legend-label" style="pointer-events: none;"><text text-anchor="start" transform="translate(22,13)" style="font-family: sans-serif; font-size: 14px; fill: #000; opacity: 1;">oct 01, 2020</text></g></g><path class="foreground" d="" style="pointer-events: none; display: none; fill: none;"></path></g></g></g><path class="foreground" d="" style="pointer-events: none; display: none; fill: none;"></path></g></g><g class="mark-text role-legend-title" style="pointer-events: none;"><text text-anchor="start" transform="translate(7.5,18.5)" style="font-family: sans-serif; font-size: 14px; font-weight: bold; fill: #000; opacity: 1;">Datos hasta</text></g></g><path class="foreground" d="" style="pointer-events: none; display: none; fill: none;"></path></g></g></g><path class="foreground" d="" style="display: none; fill: none;"></path></g></g></g></svg>