<svg class="marks" width="657" height="658" viewBox="0 0 657 658" version="1.1" xmlns="http://www.w3.org/2000/svg" xmlns:xlink="http://www.w3.org/1999/xlink"><rect width="657" height="658" style="fill: white;"></rect><g transform="translate(29,54)"><g class="mark-group role-frame root"><g transform="translate(0,0)"><path class="background" d="M0,0h0v0h0Z" style="fill: none;"></path><g><g class="mark-group role-column-title facet-title"><g transform="translate(311,-25)"><path class="background" d="M0,0h0v0h0Z" style="fill: none;"></path><g><g class="mark-group role-title"><g transform="translate(0,-24)"><path class="background" d="M0,0h0v0h0Z" style="pointer-events: none; fill: none;"></path><g><g class="mark-text role-title-text" style="pointer-events: none;"><text text-anchor="middle" transform="translate(0,11)" style="font-family: sans-serif; font-size: 14px; font-weight: bold; fill: #000; opacity: 1;">Casos nuevos por edad (por millón de habitantes, promedio 7 días)</text></g></g><path class="foreground" d="" style="pointer-events: none; display: none; fill: none;"></path></g></g></g><path class="foreground" d="" style="display: none; fill: none;"></path></g></g><g class="mark-group role-row-header row_header"><g transform="translate(-1,0)"><path class="background" d="M0,0h0v75h0Z" style="fill: none;"></path><g><g class="mark-group role-axis"><g transform="translate(0.5,0.5)"><path class="background" d="M0,0h0v0h0Z" style="pointer-events: none; fill: none;"></path><g><g class="mark-rule role-axis-tick" style="pointer-events: none;"><line transform="translate(0,69)" x2="-5" y2="0" style="fill: none; stroke: #888; stroke-width: 1; opacity: 1;"></line><line transform="translate(0,40)" x2="-5" y2="0" style="fill: none; stroke: #888; stroke-width: 1; opacity: 1;"></line><line transform="translate(0,12)" x2="-5" y2="0" style="fill: none; stroke: #888; stroke-width: 1; opacity: 1;"></line></g><g class="mark-text role-axis-label" style="pointer-events: none;"><text text-anchor="end" transform="translate(-7,73.23076923076924)" style="font-family: sans-serif; font-size: 14px; fill: #000; opacity: 1;">0</text><text text-anchor="end" transform="translate(-7,44.38461538461538)" style="font-family: sans-serif; font-size: 14px; fill: #000; opacity: 1;">5</text><text text-anchor="end" transform="translate(-7,15.538461538461538)" style="font-family: sans-serif; font-size: 14px; fill: #000; opacity: 1;">10</text></g><g class="mark-rule role-axis-domain" style="pointer-events: none;"><line transform="translate(0,75)" x2="0" y2="-75" style="fill: none; stroke: #888; stroke-width: 1; opacity: 1;"></line></g></g><path class="foreground" d="" style="pointer-events: none; display: none; fill: none;"></path></g></g></g><path class="foreground" d="" style="display: none; fill: none;"></path></g><g transform="translate(-1,121)"><path class="background" d="M0,0h0v75h0Z" style="fill: none;"></path><g><g class="mark-group role-axis"><g transform="translate(0.5,0.5)"><path class="background" d="M0,0h0v0h0Z" style="pointer-events: none; fill: none;"></path><g><g class="mark-rule role-axis-tick" style="pointer-events: none;"><line transform="translate(0,69)" x2="-5" y2="0" style="fill: none; stroke: #888; stroke-width: 1; opacity: 1;"></line><line transform="translate(0,40)" x2="-5" y2="0" style="fill: none; stroke: #888; stroke-width: 1; opacity: 1;"></line><line transform="translate(0,12)" x2="-5" y2="0" style="fill: none; stroke: #888; stroke-width: 1; opacity: 1;"></line></g><g class="mark-text role-axis-label" style="pointer-events: none;"><text text-anchor="end" transform="translate(-7,73.23076923076924)" style="font-family: sans-serif; font-size: 14px; fill: #000; opacity: 1;">0</text><text text-anchor="end" transform="translate(-7,44.38461538461538)" style="font-family: sans-serif; font-size: 14px; fill: #000; opacity: 1;">5</text><text text-anchor="end" transform="translate(-7,15.538461538461538)" style="font-family: sans-serif; font-size: 14px; fill: #000; opacity: 1;">10</text></g><g class="mark-rule role-axis-domain" style="pointer-events: none;"><line transform="translate(0,75)" x2="0" y2="-75" style="fill: none; stroke: #888; stroke-width: 1; opacity: 1;"></line></g></g><path class="foreground" d="" style="pointer-events: none; display: none; fill: none;"></path></g></g></g><path class="foreground" d="" style="display: none; fill: none;"></path></g><g transform="translate(-1,242)"><path class="background" d="M0,0h0v75h0Z" style="fill: none;"></path><g><g class="mark-group role-axis"><g transform="translate(0.5,0.5)"><path class="background" d="M0,0h0v0h0Z" style="pointer-events: none; fill: none;"></path><g><g class="mark-rule role-axis-tick" style="pointer-events: none;"><line transform="translate(0,69)" x2="-5" y2="0" style="fill: none; stroke: #888; stroke-width: 1; opacity: 1;"></line><line transform="translate(0,40)" x2="-5" y2="0" style="fill: none; stroke: #888; stroke-width: 1; opacity: 1;"></line><line transform="translate(0,12)" x2="-5" y2="0" style="fill: none; stroke: #888; stroke-width: 1; opacity: 1;"></line></g><g class="mark-text role-axis-label" style="pointer-events: none;"><text text-anchor="end" transform="translate(-7,73.23076923076924)" style="font-family: sans-serif; font-size: 14px; fill: #000; opacity: 1;">0</text><text text-anchor="end" transform="translate(-7,44.38461538461538)" style="font-family: sans-serif; font-size: 14px; fill: #000; opacity: 1;">5</text><text text-anchor="end" transform="translate(-7,15.538461538461538)" style="font-family: sans-serif; font-size: 14px; fill: #000; opacity: 1;">10</text></g><g class="mark-rule role-axis-domain" style="pointer-events: none;"><line transform="translate(0,75)" x2="0" y2="-75" style="fill: none; stroke: #888; stroke-width: 1; opacity: 1;"></line></g></g><path class="foreground" d="" style="pointer-events: none; display: none; fill: none;"></path></g></g></g><path class="foreground" d="" style="display: none; fill: none;"></path></g><g transform="translate(-1,363)"><path class="background" d="M0,0h0v75h0Z" style="fill: none;"></path><g><g class="mark-group role-axis"><g transform="translate(0.5,0.5)"><path class="background" d="M0,0h0v0h0Z" style="pointer-events: none; fill: none;"></path><g><g class="mark-rule role-axis-tick" style="pointer-events: none;"><line transform="translate(0,69)" x2="-5" y2="0" style="fill: none; stroke: #888; stroke-width: 1; opacity: 1;"></line><line transform="translate(0,40)" x2="-5" y2="0" style="fill: none; stroke: #888; stroke-width: 1; opacity: 1;"></line><line transform="translate(0,12)" x2="-5" y2="0" style="fill: none; stroke: #888; stroke-width: 1; opacity: 1;"></line></g><g class="mark-text role-axis-label" style="pointer-events: none;"><text text-anchor="end" transform="translate(-7,73.23076923076924)" style="font-family: sans-serif; font-size: 14px; fill: #000; opacity: 1;">0</text><text text-anchor="end" transform="translate(-7,44.38461538461538)" style="font-family: sans-serif; font-size: 14px; fill: #000; opacity: 1;">5</text><text text-anchor="end" transform="translate(-7,15.538461538461538)" style="font-family: sans-serif; font-size: 14px; fill: #000; opacity: 1;">10</text></g><g class="mark-rule role-axis-domain" style="pointer-events: none;"><line transform="translate(0,75)" x2="0" y2="-75" style="fill: none; stroke: #888; stroke-width: 1; opacity: 1;"></line></g></g><path class="foreground" d="" style="pointer-events: none; display: none; fill: none;"></path></g></g></g><path class="foreground" d="" style="display: none; fill: none;"></path></g><g transform="translate(-1,484)"><path class="background" d="M0,0h0v75h0Z" style="fill: none;"></path><g><g class="mark-group role-axis"><g transform="translate(0.5,0.5)"><path class="background" d="M0,0h0v0h0Z" style="pointer-events: none; fill: none;"></path><g><g class="mark-rule role-axis-tick" style="pointer-events: none;"><line transform="translate(0,69)" x2="-5" y2="0" style="fill: none; stroke: #888; stroke-width: 1; opacity: 1;"></line><line transform="translate(0,40)" x2="-5" y2="0" style="fill: none; stroke: #888; stroke-width: 1; opacity: 1;"></line><line transform="translate(0,12)" x2="-5" y2="0" style="fill: none; stroke: #888; stroke-width: 1; opacity: 1;"></line></g><g class="mark-text role-axis-label" style="pointer-events: none;"><text text-anchor="end" transform="translate(-7,73.23076923076924)" style="font-family: sans-serif; font-size: 14px; fill: #000; opacity: 1;">0</text><text text-anchor="end" transform="translate(-7,44.38461538461538)" style="font-family: sans-serif; font-size: 14px; fill: #000; opacity: 1;">5</text><text text-anchor="end" transform="translate(-7,15.538461538461538)" style="font-family: sans-serif; font-size: 14px; fill: #000; opacity: 1;">10</text></g><g class="mark-rule role-axis-domain" style="pointer-events: none;"><line transform="translate(0,75)" x2="0" y2="-75" style="fill: none; stroke: #888; stroke-width: 1; opacity: 1;"></line></g></g><path class="foreground" d="" style="pointer-events: none; display: none; fill: none;"></path></g></g></g><path class="foreground" d="" style="display: none; fill: none;"></path></g></g><g class="mark-group role-column-footer column_footer"><g transform="translate(0,560)"><path class="background" d="M0,0h300v0h-300Z" style="fill: none;"></path><g><g class="mark-group role-axis"><g transform="translate(0.5,0.5)"><path class="background" d="M0,0h0v0h0Z" style="pointer-events: none; fill: none;"></path><g><g class="mark-rule role-axis-tick" style="pointer-events: none;"><line transform="translate(11,0)" x2="0" y2="5" style="fill: none; stroke: #888; stroke-width: 1; opacity: 1;"></line><line transform="translate(47,0)" x2="0" y2="5" style="fill: none; stroke: #888; stroke-width: 1; opacity: 1;"></line><line transform="translate(84,0)" x2="0" y2="5" style="fill: none; stroke: #888; stroke-width: 1; opacity: 1;"></line><line transform="translate(121,0)" x2="0" y2="5" style="fill: none; stroke: #888; stroke-width: 1; opacity: 1;"></line><line transform="translate(158,0)" x2="0" y2="5" style="fill: none; stroke: #888; stroke-width: 1; opacity: 1;"></line><line transform="translate(195,0)" x2="0" y2="5" style="fill: none; stroke: #888; stroke-width: 1; opacity: 1;"></line><line transform="translate(232,0)" x2="0" y2="5" style="fill: none; stroke: #888; stroke-width: 1; opacity: 1;"></line><line transform="translate(268,0)" x2="0" y2="5" style="fill: none; stroke: #888; stroke-width: 1; opacity: 1;"></line></g><g class="mark-text role-axis-label" style="pointer-events: none;"><text text-anchor="middle" transform="translate(10.526315789473683,18)" style="font-family: sans-serif; font-size: 14px; fill: #000; opacity: 1;">may 03</text><text text-anchor="middle" transform="translate(47.368421052631575,18)" style="font-family: sans-serif; font-size: 14px; fill: #000; opacity: 0;">may 10</text><text text-anchor="middle" transform="translate(84.21052631578947,18)" style="font-family: sans-serif; font-size: 14px; fill: #000; opacity: 1;">may 17</text><text text-anchor="middle" transform="translate(121.05263157894736,18)" style="font-family: sans-serif; font-size: 14px; fill: #000; opacity: 0;">may 24</text><text text-anchor="middle" transform="translate(157.89473684210526,18)" style="font-family: sans-serif; font-size: 14px; fill: #000; opacity: 1;">may 31</text><text text-anchor="middle" transform="translate(194.73684210526315,18)" style="font-family: sans-serif; font-size: 14px; fill: #000; opacity: 0;">jun 07</text><text text-anchor="middle" transform="translate(231.57894736842104,18)" style="font-family: sans-serif; font-size: 14px; fill: #000; opacity: 1;">jun 14</text><text text-anchor="middle" transform="translate(268.42105263157896,18)" style="font-family: sans-serif; font-size: 14px; fill: #000; opacity: 0;">jun 21</text></g><g class="mark-rule role-axis-domain" style="pointer-events: none;"><line transform="translate(0,0)" x2="300" y2="0" style="fill: none; stroke: #888; stroke-width: 1; opacity: 1;"></line></g><g class="mark-text role-axis-title" style="pointer-events: none;"><text text-anchor="middle" transform="translate(150,36)" style="font-family: sans-serif; font-size: 14px; font-weight: bold; fill: #000; opacity: 1;">Fecha de boletín</text></g></g><path class="foreground" d="" style="pointer-events: none; display: none; fill: none;"></path></g></g></g><path class="foreground" d="" style="display: none; fill: none;"></path></g><g transform="translate(322,560)"><path class="background" d="M0,0h300v0h-300Z" style="fill: none;"></path><g><g class="mark-group role-axis"><g transform="translate(0.5,0.5)"><path class="background" d="M0,0h0v0h0Z" style="pointer-events: none; fill: none;"></path><g><g class="mark-rule role-axis-tick" style="pointer-events: none;"><line transform="translate(11,0)" x2="0" y2="5" style="fill: none; stroke: #888; stroke-width: 1; opacity: 1;"></line><line transform="translate(47,0)" x2="0" y2="5" style="fill: none; stroke: #888; stroke-width: 1; opacity: 1;"></line><line transform="translate(84,0)" x2="0" y2="5" style="fill: none; stroke: #888; stroke-width: 1; opacity: 1;"></line><line transform="translate(121,0)" x2="0" y2="5" style="fill: none; stroke: #888; stroke-width: 1; opacity: 1;"></line><line transform="translate(158,0)" x2="0" y2="5" style="fill: none; stroke: #888; stroke-width: 1; opacity: 1;"></line><line transform="translate(195,0)" x2="0" y2="5" style="fill: none; stroke: #888; stroke-width: 1; opacity: 1;"></line><line transform="translate(232,0)" x2="0" y2="5" style="fill: none; stroke: #888; stroke-width: 1; opacity: 1;"></line><line transform="translate(268,0)" x2="0" y2="5" style="fill: none; stroke: #888; stroke-width: 1; opacity: 1;"></line></g><g class="mark-text role-axis-label" style="pointer-events: none;"><text text-anchor="middle" transform="translate(10.526315789473683,18)" style="font-family: sans-serif; font-size: 14px; fill: #000; opacity: 1;">may 03</text><text text-anchor="middle" transform="translate(47.368421052631575,18)" style="font-family: sans-serif; font-size: 14px; fill: #000; opacity: 0;">may 10</text><text text-anchor="middle" transform="translate(84.21052631578947,18)" style="font-family: sans-serif; font-size: 14px; fill: #000; opacity: 1;">may 17</text><text text-anchor="middle" transform="translate(121.05263157894736,18)" style="font-family: sans-serif; font-size: 14px; fill: #000; opacity: 0;">may 24</text><text text-anchor="middle" transform="translate(157.89473684210526,18)" style="font-family: sans-serif; font-size: 14px; fill: #000; opacity: 1;">may 31</text><text text-anchor="middle" transform="translate(194.73684210526315,18)" style="font-family: sans-serif; font-size: 14px; fill: #000; opacity: 0;">jun 07</text><text text-anchor="middle" transform="translate(231.57894736842104,18)" style="font-family: sans-serif; font-size: 14px; fill: #000; opacity: 1;">jun 14</text><text text-anchor="middle" transform="translate(268.42105263157896,18)" style="font-family: sans-serif; font-size: 14px; fill: #000; opacity: 0;">jun 21</text></g><g class="mark-rule role-axis-domain" style="pointer-events: none;"><line transform="translate(0,0)" x2="300" y2="0" style="fill: none; stroke: #888; stroke-width: 1; opacity: 1;"></line></g><g class="mark-text role-axis-title" style="pointer-events: none;"><text text-anchor="middle" transform="translate(150,36)" style="font-family: sans-serif; font-size: 14px; font-weight: bold; fill: #000; opacity: 1;">Fecha de boletín</text></g></g><path class="foreground" d="" style="pointer-events: none; display: none; fill: none;"></path></g></g></g><path class="foreground" d="" style="display: none; fill: none;"></path></g></g><g class="mark-group role-scope cell"><g transform="translate(0,0)"><path class="background" d="M0.5,0.5h300v75h-300Z" style="fill: none; stroke: #ddd;"></path><g><g class="mark-group role-axis"><g transform="translate(0.5,75.5)"><path class="background" d="M0,0h0v0h0Z" style="pointer-events: none; fill: none;"></path><g><g class="mark-rule role-axis-grid" style="pointer-events: none;"><line transform="translate(11,-75)" x2="0" y2="75" style="fill: none; stroke: #ddd; stroke-width: 1; opacity: 1;"></line><line transform="translate(47,-75)" x2="0" y2="75" style="fill: none; stroke: #ddd; stroke-width: 1; opacity: 1;"></line><line transform="translate(84,-75)" x2="0" y2="75" style="fill: none; stroke: #ddd; stroke-width: 1; opacity: 1;"></line><line transform="translate(121,-75)" x2="0" y2="75" style="fill: none; stroke: #ddd; stroke-width: 1; opacity: 1;"></line><line transform="translate(158,-75)" x2="0" y2="75" style="fill: none; stroke: #ddd; stroke-width: 1; opacity: 1;"></line><line transform="translate(195,-75)" x2="0" y2="75" style="fill: none; stroke: #ddd; stroke-width: 1; opacity: 1;"></line><line transform="translate(232,-75)" x2="0" y2="75" style="fill: none; stroke: #ddd; stroke-width: 1; opacity: 1;"></line><line transform="translate(268,-75)" x2="0" y2="75" style="fill: none; stroke: #ddd; stroke-width: 1; opacity: 1;"></line></g></g><path class="foreground" d="" style="pointer-events: none; display: none; fill: none;"></path></g></g><g class="mark-group role-axis"><g transform="translate(0.5,0.5)"><path class="background" d="M0,0h0v0h0Z" style="pointer-events: none; fill: none;"></path><g><g class="mark-rule role-axis-grid" style="pointer-events: none;"><line transform="translate(0,69)" x2="300" y2="0" style="fill: none; stroke: #ddd; stroke-width: 1; opacity: 1;"></line><line transform="translate(0,40)" x2="300" y2="0" style="fill: none; stroke: #ddd; stroke-width: 1; opacity: 1;"></line><line transform="translate(0,12)" x2="300" y2="0" style="fill: none; stroke: #ddd; stroke-width: 1; opacity: 1;"></line></g></g><path class="foreground" d="" style="pointer-events: none; display: none; fill: none;"></path></g></g><g class="mark-group role-scope child_pathgroup"><g transform="translate(0,0)"><path class="background" d="M0,0h300v75h-300Z" style="fill: none;"></path><g><g class="mark-area role-mark child_marks"><path d="M0,57.2489877691173L5.263157894736842,60.24443313453029L10.526315789473683,57.2489877691173L15.789473684210526,51.25809703829134L21.052631578947366,51.25809703829134L26.31578947368421,57.2489877691173L31.57894736842105,57.2489877691173L36.84210526315789,60.24443313453029L42.10526315789473,57.2489877691173L47.368421052631575,60.24443313453029L52.63157894736842,66.23532386535625L57.89473684210526,66.23532386535625L63.1578947368421,66.23532386535625L68.42105263157895,66.23532386535625L73.68421052631578,69.23076923076924L78.94736842105263,72.22621459618222L84.21052631578947,69.23076923076924L89.47368421052632,69.23076923076924L94.73684210526315,66.23532386535625L100,69.23076923076924L105.26315789473684,69.23076923076924L110.52631578947368,66.23532386535625L115.78947368421052,66.23532386535625L121.05263157894736,69.23076923076924L126.3157894736842,69.23076923076924L131.57894736842104,66.23532386535625L136.8421052631579,63.239878499943266L142.10526315789474,63.239878499943266L147.36842105263156,60.24443313453029L152.63157894736844,57.2489877691173L157.89473684210526,57.2489877691173L163.1578947368421,57.2489877691173L168.42105263157893,63.239878499943266L173.6842105263158,60.24443313453029L178.94736842105263,60.24443313453029L184.21052631578948,63.239878499943266L189.4736842105263,66.23532386535625L194.73684210526315,66.23532386535625L200,66.23532386535625L205.26315789473685,66.23532386535625L210.52631578947367,69.23076923076924L215.78947368421052,66.23532386535625L221.05263157894737,66.23532386535625L226.31578947368422,66.23532386535625L231.57894736842104,66.23532386535625L236.8421052631579,66.23532386535625L242.1052631578947,66.23532386535625L247.3684210526316,66.23532386535625L252.6315789473684,69.23076923076924L257.89473684210526,60.24443313453029L263.1578947368421,60.24443313453029L268.42105263157896,48.262651672878356L273.6842105263158,48.262651672878356L278.94736842105266,45.26720630746537L284.2105263157895,45.26720630746537L289.4736842105263,45.26720630746537L294.7368421052631,54.25354240370432L300,51.25809703829134L300,69.23076923076924L294.7368421052631,69.23076923076924L289.4736842105263,69.23076923076924L284.2105263157895,69.23076923076924L278.94736842105266,69.23076923076924L273.6842105263158,69.23076923076924L268.42105263157896,69.23076923076924L263.1578947368421,69.23076923076924L257.89473684210526,69.23076923076924L252.6315789473684,69.23076923076924L247.3684210526316,69.23076923076924L242.1052631578947,69.23076923076924L236.8421052631579,69.23076923076924L231.57894736842104,69.23076923076924L226.31578947368422,69.23076923076924L221.05263157894737,69.23076923076924L215.78947368421052,69.23076923076924L210.52631578947367,69.23076923076924L205.26315789473685,69.23076923076924L200,69.23076923076924L194.73684210526315,69.23076923076924L189.4736842105263,69.23076923076924L184.21052631578948,69.23076923076924L178.94736842105263,69.23076923076924L173.6842105263158,69.23076923076924L168.42105263157893,69.23076923076924L163.1578947368421,69.23076923076924L157.89473684210526,69.23076923076924L152.63157894736844,69.23076923076924L147.36842105263156,69.23076923076924L142.10526315789474,69.23076923076924L136.8421052631579,69.23076923076924L131.57894736842104,69.23076923076924L126.3157894736842,69.23076923076924L121.05263157894736,69.23076923076924L115.78947368421052,69.23076923076924L110.52631578947368,69.23076923076924L105.26315789473684,69.23076923076924L100,69.23076923076924L94.73684210526315,69.23076923076924L89.47368421052632,69.23076923076924L84.21052631578947,69.23076923076924L78.94736842105263,69.23076923076924L73.68421052631578,69.23076923076924L68.42105263157895,69.23076923076924L63.1578947368421,69.23076923076924L57.89473684210526,69.23076923076924L52.63157894736842,69.23076923076924L47.368421052631575,69.23076923076924L42.10526315789473,69.23076923076924L36.84210526315789,69.23076923076924L31.57894736842105,69.23076923076924L26.31578947368421,69.23076923076924L21.052631578947366,69.23076923076924L15.789473684210526,69.23076923076924L10.526315789473683,69.23076923076924L5.263157894736842,69.23076923076924L0,69.23076923076924Z" style="fill: #4c78a8;"></path></g></g><path class="foreground" d="" style="display: none; fill: none;"></path></g></g><g class="mark-group role-title"><g transform="translate(150,-24)"><path class="background" d="M0,0h0v0h0Z" style="pointer-events: none; fill: none;"></path><g><g class="mark-text role-title-text" style="pointer-events: none;"><text text-anchor="middle" transform="translate(0,11)" style="font-family: sans-serif; font-size: 14px; fill: #000; opacity: 1;">&lt; 10</text></g></g><path class="foreground" d="" style="pointer-events: none; display: none; fill: none;"></path></g></g></g><path class="foreground" d="" style="display: none; fill: none;"></path></g><g transform="translate(322,0)"><path class="background" d="M0.5,0.5h300v75h-300Z" style="fill: none; stroke: #ddd;"></path><g><g class="mark-group role-axis"><g transform="translate(0.5,75.5)"><path class="background" d="M0,0h0v0h0Z" style="pointer-events: none; fill: none;"></path><g><g class="mark-rule role-axis-grid" style="pointer-events: none;"><line transform="translate(11,-75)" x2="0" y2="75" style="fill: none; stroke: #ddd; stroke-width: 1; opacity: 1;"></line><line transform="translate(47,-75)" x2="0" y2="75" style="fill: none; stroke: #ddd; stroke-width: 1; opacity: 1;"></line><line transform="translate(84,-75)" x2="0" y2="75" style="fill: none; stroke: #ddd; stroke-width: 1; opacity: 1;"></line><line transform="translate(121,-75)" x2="0" y2="75" style="fill: none; stroke: #ddd; stroke-width: 1; opacity: 1;"></line><line transform="translate(158,-75)" x2="0" y2="75" style="fill: none; stroke: #ddd; stroke-width: 1; opacity: 1;"></line><line transform="translate(195,-75)" x2="0" y2="75" style="fill: none; stroke: #ddd; stroke-width: 1; opacity: 1;"></line><line transform="translate(232,-75)" x2="0" y2="75" style="fill: none; stroke: #ddd; stroke-width: 1; opacity: 1;"></line><line transform="translate(268,-75)" x2="0" y2="75" style="fill: none; stroke: #ddd; stroke-width: 1; opacity: 1;"></line></g></g><path class="foreground" d="" style="pointer-events: none; display: none; fill: none;"></path></g></g><g class="mark-group role-axis"><g transform="translate(0.5,0.5)"><path class="background" d="M0,0h0v0h0Z" style="pointer-events: none; fill: none;"></path><g><g class="mark-rule role-axis-grid" style="pointer-events: none;"><line transform="translate(0,69)" x2="300" y2="0" style="fill: none; stroke: #ddd; stroke-width: 1; opacity: 1;"></line><line transform="translate(0,40)" x2="300" y2="0" style="fill: none; stroke: #ddd; stroke-width: 1; opacity: 1;"></line><line transform="translate(0,12)" x2="300" y2="0" style="fill: none; stroke: #ddd; stroke-width: 1; opacity: 1;"></line></g></g><path class="foreground" d="" style="pointer-events: none; display: none; fill: none;"></path></g></g><g class="mark-group role-scope child_pathgroup"><g transform="translate(0,0)"><path class="background" d="M0,0h300v75h-300Z" style="fill: none;"></path><g><g class="mark-area role-mark child_marks"><path d="M0,52.07741423465447L5.263157894736842,49.933244860140114L10.526315789473683,43.500736736597084L15.789473684210526,41.35656736208273L21.052631578947366,43.500736736597084L26.31578947368421,56.36575298368316L31.57894736842105,52.07741423465447L36.84210526315789,54.22158360916881L42.10526315789473,58.5099223581975L47.368421052631575,62.798261107226196L52.63157894736842,62.798261107226196L57.89473684210526,62.798261107226196L63.1578947368421,64.94243048174054L68.42105263157895,67.08659985625489L73.68421052631578,62.798261107226196L78.94736842105263,54.22158360916881L84.21052631578947,45.64490611111143L89.47368421052632,45.64490611111143L94.73684210526315,45.64490611111143L100,45.64490611111143L105.26315789473684,47.78907548562577L110.52631578947368,49.933244860140114L115.78947368421052,58.5099223581975L121.05263157894736,71.37493860528357L126.3157894736842,71.37493860528357L131.57894736842104,71.37493860528357L136.8421052631579,69.23076923076924L142.10526315789474,67.08659985625489L147.36842105263156,67.08659985625489L152.63157894736844,67.08659985625489L157.89473684210526,62.798261107226196L163.1578947368421,62.798261107226196L168.42105263157893,62.798261107226196L173.6842105263158,62.798261107226196L178.94736842105263,64.94243048174054L184.21052631578948,52.07741423465447L189.4736842105263,52.07741423465447L194.73684210526315,52.07741423465447L200,49.933244860140114L205.26315789473685,49.933244860140114L210.52631578947367,52.07741423465447L215.78947368421052,45.64490611111143L221.05263157894737,58.5099223581975L226.31578947368422,56.36575298368316L231.57894736842104,56.36575298368316L236.8421052631579,58.5099223581975L242.1052631578947,52.07741423465447L247.3684210526316,52.07741423465447L252.6315789473684,58.5099223581975L257.89473684210526,54.22158360916881L263.1578947368421,56.36575298368316L268.42105263157896,56.36575298368316L273.6842105263158,54.22158360916881L278.94736842105266,56.36575298368316L284.2105263157895,56.36575298368316L289.4736842105263,56.36575298368316L294.7368421052631,60.65409173271185L300,58.5099223581975L300,69.23076923076924L294.7368421052631,69.23076923076924L289.4736842105263,69.23076923076924L284.2105263157895,69.23076923076924L278.94736842105266,69.23076923076924L273.6842105263158,69.23076923076924L268.42105263157896,69.23076923076924L263.1578947368421,69.23076923076924L257.89473684210526,69.23076923076924L252.6315789473684,69.23076923076924L247.3684210526316,69.23076923076924L242.1052631578947,69.23076923076924L236.8421052631579,69.23076923076924L231.57894736842104,69.23076923076924L226.31578947368422,69.23076923076924L221.05263157894737,69.23076923076924L215.78947368421052,69.23076923076924L210.52631578947367,69.23076923076924L205.26315789473685,69.23076923076924L200,69.23076923076924L194.73684210526315,69.23076923076924L189.4736842105263,69.23076923076924L184.21052631578948,69.23076923076924L178.94736842105263,69.23076923076924L173.6842105263158,69.23076923076924L168.42105263157893,69.23076923076924L163.1578947368421,69.23076923076924L157.89473684210526,69.23076923076924L152.63157894736844,69.23076923076924L147.36842105263156,69.23076923076924L142.10526315789474,69.23076923076924L136.8421052631579,69.23076923076924L131.57894736842104,69.23076923076924L126.3157894736842,69.23076923076924L121.05263157894736,69.23076923076924L115.78947368421052,69.23076923076924L110.52631578947368,69.23076923076924L105.26315789473684,69.23076923076924L100,69.23076923076924L94.73684210526315,69.23076923076924L89.47368421052632,69.23076923076924L84.21052631578947,69.23076923076924L78.94736842105263,69.23076923076924L73.68421052631578,69.23076923076924L68.42105263157895,69.23076923076924L63.1578947368421,69.23076923076924L57.89473684210526,69.23076923076924L52.63157894736842,69.23076923076924L47.368421052631575,69.23076923076924L42.10526315789473,69.23076923076924L36.84210526315789,69.23076923076924L31.57894736842105,69.23076923076924L26.31578947368421,69.23076923076924L21.052631578947366,69.23076923076924L15.789473684210526,69.23076923076924L10.526315789473683,69.23076923076924L5.263157894736842,69.23076923076924L0,69.23076923076924Z" style="fill: #f58518;"></path></g></g><path class="foreground" d="" style="display: none; fill: none;"></path></g></g><g class="mark-group role-title"><g transform="translate(150,-24)"><path class="background" d="M0,0h0v0h0Z" style="pointer-events: none; fill: none;"></path><g><g class="mark-text role-title-text" style="pointer-events: none;"><text text-anchor="middle" transform="translate(0,11)" style="font-family: sans-serif; font-size: 14px; fill: #000; opacity: 1;">10-19</text></g></g><path class="foreground" d="" style="pointer-events: none; display: none; fill: none;"></path></g></g></g><path class="foreground" d="" style="display: none; fill: none;"></path></g><g transform="translate(0,121)"><path class="background" d="M0.5,0.5h300v75h-300Z" style="fill: none; stroke: #ddd;"></path><g><g class="mark-group role-axis"><g transform="translate(0.5,75.5)"><path class="background" d="M0,0h0v0h0Z" style="pointer-events: none; fill: none;"></path><g><g class="mark-rule role-axis-grid" style="pointer-events: none;"><line transform="translate(11,-75)" x2="0" y2="75" style="fill: none; stroke: #ddd; stroke-width: 1; opacity: 1;"></line><line transform="translate(47,-75)" x2="0" y2="75" style="fill: none; stroke: #ddd; stroke-width: 1; opacity: 1;"></line><line transform="translate(84,-75)" x2="0" y2="75" style="fill: none; stroke: #ddd; stroke-width: 1; opacity: 1;"></line><line transform="translate(121,-75)" x2="0" y2="75" style="fill: none; stroke: #ddd; stroke-width: 1; opacity: 1;"></line><line transform="translate(158,-75)" x2="0" y2="75" style="fill: none; stroke: #ddd; stroke-width: 1; opacity: 1;"></line><line transform="translate(195,-75)" x2="0" y2="75" style="fill: none; stroke: #ddd; stroke-width: 1; opacity: 1;"></line><line transform="translate(232,-75)" x2="0" y2="75" style="fill: none; stroke: #ddd; stroke-width: 1; opacity: 1;"></line><line transform="translate(268,-75)" x2="0" y2="75" style="fill: none; stroke: #ddd; stroke-width: 1; opacity: 1;"></line></g></g><path class="foreground" d="" style="pointer-events: none; display: none; fill: none;"></path></g></g><g class="mark-group role-axis"><g transform="translate(0.5,0.5)"><path class="background" d="M0,0h0v0h0Z" style="pointer-events: none; fill: none;"></path><g><g class="mark-rule role-axis-grid" style="pointer-events: none;"><line transform="translate(0,69)" x2="300" y2="0" style="fill: none; stroke: #ddd; stroke-width: 1; opacity: 1;"></line><line transform="translate(0,40)" x2="300" y2="0" style="fill: none; stroke: #ddd; stroke-width: 1; opacity: 1;"></line><line transform="translate(0,12)" x2="300" y2="0" style="fill: none; stroke: #ddd; stroke-width: 1; opacity: 1;"></line></g></g><path class="foreground" d="" style="pointer-events: none; display: none; fill: none;"></path></g></g><g class="mark-group role-scope child_pathgroup"><g transform="translate(0,0)"><path class="background" d="M0,0h300v75h-300Z" style="fill: none;"></path><g><g class="mark-area role-mark child_marks"><path d="M0,40.90273512834866L5.263157894736842,40.90273512834866L10.526315789473683,40.90273512834866L15.789473684210526,40.90273512834866L21.052631578947366,42.7912707351767L26.31578947368421,54.122484376144925L31.57894736842105,46.56834194883277L36.84210526315789,46.56834194883277L42.10526315789473,52.23394876931688L47.368421052631575,54.122484376144925L52.63157894736842,54.122484376144925L57.89473684210526,52.23394876931688L63.1578947368421,52.23394876931688L68.42105263157895,59.78809119662905L73.68421052631578,50.345413162488846L78.94736842105263,42.7912707351767L84.21052631578947,39.014199521520624L89.47368421052632,39.014199521520624L94.73684210526315,40.90273512834866L100,40.90273512834866L105.26315789473684,37.12566391469258L110.52631578947368,48.45687755566081L115.78947368421052,56.01101998297296L121.05263157894736,48.45687755566081L126.3157894736842,46.56834194883277L131.57894736842104,40.90273512834866L136.8421052631579,44.67980634200474L142.10526315789474,48.45687755566081L147.36842105263156,42.7912707351767L152.63157894736844,40.90273512834866L157.89473684210526,54.122484376144925L163.1578947368421,56.01101998297296L168.42105263157893,59.78809119662905L173.6842105263158,57.899555589801004L178.94736842105263,54.122484376144925L184.21052631578948,52.23394876931688L189.4736842105263,52.23394876931688L194.73684210526315,44.67980634200474L200,42.7912707351767L205.26315789473685,35.23712830786454L210.52631578947367,35.23712830786454L215.78947368421052,33.3485927010365L221.05263157894737,35.23712830786454L226.31578947368422,31.46005709420846L231.57894736842104,33.3485927010365L236.8421052631579,33.3485927010365L242.1052631578947,42.7912707351767L247.3684210526316,40.90273512834866L252.6315789473684,48.45687755566081L257.89473684210526,37.12566391469258L263.1578947368421,42.7912707351767L268.42105263157896,44.67980634200474L273.6842105263158,42.7912707351767L278.94736842105266,35.23712830786454L284.2105263157895,39.014199521520624L289.4736842105263,31.46005709420846L294.7368421052631,48.45687755566081L300,37.12566391469258L300,69.23076923076924L294.7368421052631,69.23076923076924L289.4736842105263,69.23076923076924L284.2105263157895,69.23076923076924L278.94736842105266,69.23076923076924L273.6842105263158,69.23076923076924L268.42105263157896,69.23076923076924L263.1578947368421,69.23076923076924L257.89473684210526,69.23076923076924L252.6315789473684,69.23076923076924L247.3684210526316,69.23076923076924L242.1052631578947,69.23076923076924L236.8421052631579,69.23076923076924L231.57894736842104,69.23076923076924L226.31578947368422,69.23076923076924L221.05263157894737,69.23076923076924L215.78947368421052,69.23076923076924L210.52631578947367,69.23076923076924L205.26315789473685,69.23076923076924L200,69.23076923076924L194.73684210526315,69.23076923076924L189.4736842105263,69.23076923076924L184.21052631578948,69.23076923076924L178.94736842105263,69.23076923076924L173.6842105263158,69.23076923076924L168.42105263157893,69.23076923076924L163.1578947368421,69.23076923076924L157.89473684210526,69.23076923076924L152.63157894736844,69.23076923076924L147.36842105263156,69.23076923076924L142.10526315789474,69.23076923076924L136.8421052631579,69.23076923076924L131.57894736842104,69.23076923076924L126.3157894736842,69.23076923076924L121.05263157894736,69.23076923076924L115.78947368421052,69.23076923076924L110.52631578947368,69.23076923076924L105.26315789473684,69.23076923076924L100,69.23076923076924L94.73684210526315,69.23076923076924L89.47368421052632,69.23076923076924L84.21052631578947,69.23076923076924L78.94736842105263,69.23076923076924L73.68421052631578,69.23076923076924L68.42105263157895,69.23076923076924L63.1578947368421,69.23076923076924L57.89473684210526,69.23076923076924L52.63157894736842,69.23076923076924L47.368421052631575,69.23076923076924L42.10526315789473,69.23076923076924L36.84210526315789,69.23076923076924L31.57894736842105,69.23076923076924L26.31578947368421,69.23076923076924L21.052631578947366,69.23076923076924L15.789473684210526,69.23076923076924L10.526315789473683,69.23076923076924L5.263157894736842,69.23076923076924L0,69.23076923076924Z" style="fill: #e45756;"></path></g></g><path class="foreground" d="" style="display: none; fill: none;"></path></g></g><g class="mark-group role-title"><g transform="translate(150,-24)"><path class="background" d="M0,0h0v0h0Z" style="pointer-events: none; fill: none;"></path><g><g class="mark-text role-title-text" style="pointer-events: none;"><text text-anchor="middle" transform="translate(0,11)" style="font-family: sans-serif; font-size: 14px; fill: #000; opacity: 1;">20-29</text></g></g><path class="foreground" d="" style="pointer-events: none; display: none; fill: none;"></path></g></g></g><path class="foreground" d="" style="display: none; fill: none;"></path></g><g transform="translate(322,121)"><path class="background" d="M0.5,0.5h300v75h-300Z" style="fill: none; stroke: #ddd;"></path><g><g class="mark-group role-axis"><g transform="translate(0.5,75.5)"><path class="background" d="M0,0h0v0h0Z" style="pointer-events: none; fill: none;"></path><g><g class="mark-rule role-axis-grid" style="pointer-events: none;"><line transform="translate(11,-75)" x2="0" y2="75" style="fill: none; stroke: #ddd; stroke-width: 1; opacity: 1;"></line><line transform="translate(47,-75)" x2="0" y2="75" style="fill: none; stroke: #ddd; stroke-width: 1; opacity: 1;"></line><line transform="translate(84,-75)" x2="0" y2="75" style="fill: none; stroke: #ddd; stroke-width: 1; opacity: 1;"></line><line transform="translate(121,-75)" x2="0" y2="75" style="fill: none; stroke: #ddd; stroke-width: 1; opacity: 1;"></line><line transform="translate(158,-75)" x2="0" y2="75" style="fill: none; stroke: #ddd; stroke-width: 1; opacity: 1;"></line><line transform="translate(195,-75)" x2="0" y2="75" style="fill: none; stroke: #ddd; stroke-width: 1; opacity: 1;"></line><line transform="translate(232,-75)" x2="0" y2="75" style="fill: none; stroke: #ddd; stroke-width: 1; opacity: 1;"></line><line transform="translate(268,-75)" x2="0" y2="75" style="fill: none; stroke: #ddd; stroke-width: 1; opacity: 1;"></line></g></g><path class="foreground" d="" style="pointer-events: none; display: none; fill: none;"></path></g></g><g class="mark-group role-axis"><g transform="translate(0.5,0.5)"><path class="background" d="M0,0h0v0h0Z" style="pointer-events: none; fill: none;"></path><g><g class="mark-rule role-axis-grid" style="pointer-events: none;"><line transform="translate(0,69)" x2="300" y2="0" style="fill: none; stroke: #ddd; stroke-width: 1; opacity: 1;"></line><line transform="translate(0,40)" x2="300" y2="0" style="fill: none; stroke: #ddd; stroke-width: 1; opacity: 1;"></line><line transform="translate(0,12)" x2="300" y2="0" style="fill: none; stroke: #ddd; stroke-width: 1; opacity: 1;"></line></g></g><path class="foreground" d="" style="pointer-events: none; display: none; fill: none;"></path></g></g><g class="mark-group role-scope child_pathgroup"><g transform="translate(0,0)"><path class="background" d="M0,0h300v75h-300Z" style="fill: none;"></path><g><g class="mark-area role-mark child_marks"><path d="M0,34.041817904625226L5.263157894736842,27.44388953097321L10.526315789473683,23.04527061520521L15.789473684210526,25.244580073089207L21.052631578947366,23.04527061520521L26.31578947368421,45.03836519404523L31.57894736842105,47.23767465192922L36.84210526315789,40.63974627827722L42.10526315789473,45.03836519404523L47.368421052631575,49.436984109813224L52.63157894736842,42.83905573616123L57.89473684210526,45.03836519404523L63.1578947368421,42.83905573616123L68.42105263157895,40.63974627827722L73.68421052631578,42.83905573616123L78.94736842105263,27.44388953097321L84.21052631578947,5.450794952133195L89.47368421052632,5.450794952133195L94.73684210526315,7.650104410017197L100,9.8494138679012L105.26315789473684,12.048723325785202L110.52631578947368,12.048723325785202L115.78947368421052,29.643198988857204L121.05263157894736,51.63629356769722L126.3157894736842,58.234221941349226L131.57894736842104,51.63629356769722L136.8421052631579,51.63629356769722L142.10526315789474,53.83560302558122L147.36842105263156,53.83560302558122L152.63157894736844,53.83560302558122L157.89473684210526,53.83560302558122L163.1578947368421,53.83560302558122L168.42105263157893,53.83560302558122L173.6842105263158,56.03491248346523L178.94736842105263,51.63629356769722L184.21052631578948,47.23767465192922L189.4736842105263,47.23767465192922L194.73684210526315,49.436984109813224L200,38.44043682039322L205.26315789473685,40.63974627827722L210.52631578947367,38.44043682039322L215.78947368421052,29.643198988857204L221.05263157894737,20.84596115732121L226.31578947368422,20.84596115732121L231.57894736842104,20.84596115732121L236.8421052631579,31.84250844674122L242.1052631578947,31.84250844674122L247.3684210526316,23.04527061520521L252.6315789473684,42.83905573616123L257.89473684210526,49.436984109813224L263.1578947368421,49.436984109813224L268.42105263157896,47.23767465192922L273.6842105263158,45.03836519404523L278.94736842105266,29.643198988857204L284.2105263157895,40.63974627827722L289.4736842105263,38.44043682039322L294.7368421052631,45.03836519404523L300,27.44388953097321L300,69.23076923076924L294.7368421052631,69.23076923076924L289.4736842105263,69.23076923076924L284.2105263157895,69.23076923076924L278.94736842105266,69.23076923076924L273.6842105263158,69.23076923076924L268.42105263157896,69.23076923076924L263.1578947368421,69.23076923076924L257.89473684210526,69.23076923076924L252.6315789473684,69.23076923076924L247.3684210526316,69.23076923076924L242.1052631578947,69.23076923076924L236.8421052631579,69.23076923076924L231.57894736842104,69.23076923076924L226.31578947368422,69.23076923076924L221.05263157894737,69.23076923076924L215.78947368421052,69.23076923076924L210.52631578947367,69.23076923076924L205.26315789473685,69.23076923076924L200,69.23076923076924L194.73684210526315,69.23076923076924L189.4736842105263,69.23076923076924L184.21052631578948,69.23076923076924L178.94736842105263,69.23076923076924L173.6842105263158,69.23076923076924L168.42105263157893,69.23076923076924L163.1578947368421,69.23076923076924L157.89473684210526,69.23076923076924L152.63157894736844,69.23076923076924L147.36842105263156,69.23076923076924L142.10526315789474,69.23076923076924L136.8421052631579,69.23076923076924L131.57894736842104,69.23076923076924L126.3157894736842,69.23076923076924L121.05263157894736,69.23076923076924L115.78947368421052,69.23076923076924L110.52631578947368,69.23076923076924L105.26315789473684,69.23076923076924L100,69.23076923076924L94.73684210526315,69.23076923076924L89.47368421052632,69.23076923076924L84.21052631578947,69.23076923076924L78.94736842105263,69.23076923076924L73.68421052631578,69.23076923076924L68.42105263157895,69.23076923076924L63.1578947368421,69.23076923076924L57.89473684210526,69.23076923076924L52.63157894736842,69.23076923076924L47.368421052631575,69.23076923076924L42.10526315789473,69.23076923076924L36.84210526315789,69.23076923076924L31.57894736842105,69.23076923076924L26.31578947368421,69.23076923076924L21.052631578947366,69.23076923076924L15.789473684210526,69.23076923076924L10.526315789473683,69.23076923076924L5.263157894736842,69.23076923076924L0,69.23076923076924Z" style="fill: #72b7b2;"></path></g></g><path class="foreground" d="" style="display: none; fill: none;"></path></g></g><g class="mark-group role-title"><g transform="translate(150,-24)"><path class="background" d="M0,0h0v0h0Z" style="pointer-events: none; fill: none;"></path><g><g class="mark-text role-title-text" style="pointer-events: none;"><text text-anchor="middle" transform="translate(0,11)" style="font-family: sans-serif; font-size: 14px; fill: #000; opacity: 1;">30-39</text></g></g><path class="foreground" d="" style="pointer-events: none; display: none; fill: none;"></path></g></g></g><path class="foreground" d="" style="display: none; fill: none;"></path></g><g transform="translate(0,242)"><path class="background" d="M0.5,0.5h300v75h-300Z" style="fill: none; stroke: #ddd;"></path><g><g class="mark-group role-axis"><g transform="translate(0.5,75.5)"><path class="background" d="M0,0h0v0h0Z" style="pointer-events: none; fill: none;"></path><g><g class="mark-rule role-axis-grid" style="pointer-events: none;"><line transform="translate(11,-75)" x2="0" y2="75" style="fill: none; stroke: #ddd; stroke-width: 1; opacity: 1;"></line><line transform="translate(47,-75)" x2="0" y2="75" style="fill: none; stroke: #ddd; stroke-width: 1; opacity: 1;"></line><line transform="translate(84,-75)" x2="0" y2="75" style="fill: none; stroke: #ddd; stroke-width: 1; opacity: 1;"></line><line transform="translate(121,-75)" x2="0" y2="75" style="fill: none; stroke: #ddd; stroke-width: 1; opacity: 1;"></line><line transform="translate(158,-75)" x2="0" y2="75" style="fill: none; stroke: #ddd; stroke-width: 1; opacity: 1;"></line><line transform="translate(195,-75)" x2="0" y2="75" style="fill: none; stroke: #ddd; stroke-width: 1; opacity: 1;"></line><line transform="translate(232,-75)" x2="0" y2="75" style="fill: none; stroke: #ddd; stroke-width: 1; opacity: 1;"></line><line transform="translate(268,-75)" x2="0" y2="75" style="fill: none; stroke: #ddd; stroke-width: 1; opacity: 1;"></line></g></g><path class="foreground" d="" style="pointer-events: none; display: none; fill: none;"></path></g></g><g class="mark-group role-axis"><g transform="translate(0.5,0.5)"><path class="background" d="M0,0h0v0h0Z" style="pointer-events: none; fill: none;"></path><g><g class="mark-rule role-axis-grid" style="pointer-events: none;"><line transform="translate(0,69)" x2="300" y2="0" style="fill: none; stroke: #ddd; stroke-width: 1; opacity: 1;"></line><line transform="translate(0,40)" x2="300" y2="0" style="fill: none; stroke: #ddd; stroke-width: 1; opacity: 1;"></line><line transform="translate(0,12)" x2="300" y2="0" style="fill: none; stroke: #ddd; stroke-width: 1; opacity: 1;"></line></g></g><path class="foreground" d="" style="pointer-events: none; display: none; fill: none;"></path></g></g><g class="mark-group role-scope child_pathgroup"><g transform="translate(0,0)"><path class="background" d="M0,0h300v75h-300Z" style="fill: none;"></path><g><g class="mark-area role-mark child_marks"><path d="M0,30.3770260897841L5.263157894736842,26.28715839073303L10.526315789473683,28.332092240258564L15.789473684210526,30.3770260897841L21.052631578947366,32.42195993930962L26.31578947368421,44.69156303646283L31.57894736842105,42.6466291869373L36.84210526315789,42.6466291869373L42.10526315789473,54.9162322840905L47.368421052631575,54.9162322840905L52.63157894736842,50.82636458503943L57.89473684210526,48.781430735513894L63.1578947368421,46.736496885988366L68.42105263157895,46.736496885988366L73.68421052631578,40.60169533741176L78.94736842105263,30.3770260897841L84.21052631578947,9.927687594528766L89.47368421052632,14.017555293579836L94.73684210526315,16.06248914310537L100,20.15235684215644L105.26315789473684,24.242224541207502L110.52631578947368,30.3770260897841L115.78947368421052,40.60169533741176L121.05263157894736,61.051033832667095L126.3157894736842,63.09596768219263L131.57894736842104,52.87129843456497L136.8421052631579,48.781430735513894L142.10526315789474,44.69156303646283L147.36842105263156,44.69156303646283L152.63157894736844,42.6466291869373L157.89473684210526,46.736496885988366L163.1578947368421,46.736496885988366L168.42105263157893,50.82636458503943L173.6842105263158,54.9162322840905L178.94736842105263,61.051033832667095L184.21052631578948,52.87129843456497L189.4736842105263,50.82636458503943L194.73684210526315,46.736496885988366L200,36.5118276383607L205.26315789473685,36.5118276383607L210.52631578947367,38.556761487886234L215.78947368421052,20.15235684215644L221.05263157894737,22.197290691681975L226.31578947368422,34.46689378883518L231.57894736842104,34.46689378883518L236.8421052631579,44.69156303646283L242.1052631578947,48.781430735513894L247.3684210526316,46.736496885988366L252.6315789473684,56.96116613361603L257.89473684210526,52.87129843456497L263.1578947368421,44.69156303646283L268.42105263157896,46.736496885988366L273.6842105263158,42.6466291869373L278.94736842105266,36.5118276383607L284.2105263157895,38.556761487886234L289.4736842105263,44.69156303646283L294.7368421052631,44.69156303646283L300,34.46689378883518L300,69.23076923076924L294.7368421052631,69.23076923076924L289.4736842105263,69.23076923076924L284.2105263157895,69.23076923076924L278.94736842105266,69.23076923076924L273.6842105263158,69.23076923076924L268.42105263157896,69.23076923076924L263.1578947368421,69.23076923076924L257.89473684210526,69.23076923076924L252.6315789473684,69.23076923076924L247.3684210526316,69.23076923076924L242.1052631578947,69.23076923076924L236.8421052631579,69.23076923076924L231.57894736842104,69.23076923076924L226.31578947368422,69.23076923076924L221.05263157894737,69.23076923076924L215.78947368421052,69.23076923076924L210.52631578947367,69.23076923076924L205.26315789473685,69.23076923076924L200,69.23076923076924L194.73684210526315,69.23076923076924L189.4736842105263,69.23076923076924L184.21052631578948,69.23076923076924L178.94736842105263,69.23076923076924L173.6842105263158,69.23076923076924L168.42105263157893,69.23076923076924L163.1578947368421,69.23076923076924L157.89473684210526,69.23076923076924L152.63157894736844,69.23076923076924L147.36842105263156,69.23076923076924L142.10526315789474,69.23076923076924L136.8421052631579,69.23076923076924L131.57894736842104,69.23076923076924L126.3157894736842,69.23076923076924L121.05263157894736,69.23076923076924L115.78947368421052,69.23076923076924L110.52631578947368,69.23076923076924L105.26315789473684,69.23076923076924L100,69.23076923076924L94.73684210526315,69.23076923076924L89.47368421052632,69.23076923076924L84.21052631578947,69.23076923076924L78.94736842105263,69.23076923076924L73.68421052631578,69.23076923076924L68.42105263157895,69.23076923076924L63.1578947368421,69.23076923076924L57.89473684210526,69.23076923076924L52.63157894736842,69.23076923076924L47.368421052631575,69.23076923076924L42.10526315789473,69.23076923076924L36.84210526315789,69.23076923076924L31.57894736842105,69.23076923076924L26.31578947368421,69.23076923076924L21.052631578947366,69.23076923076924L15.789473684210526,69.23076923076924L10.526315789473683,69.23076923076924L5.263157894736842,69.23076923076924L0,69.23076923076924Z" style="fill: #54a24b;"></path></g></g><path class="foreground" d="" style="display: none; fill: none;"></path></g></g><g class="mark-group role-title"><g transform="translate(150,-24)"><path class="background" d="M0,0h0v0h0Z" style="pointer-events: none; fill: none;"></path><g><g class="mark-text role-title-text" style="pointer-events: none;"><text text-anchor="middle" transform="translate(0,11)" style="font-family: sans-serif; font-size: 14px; fill: #000; opacity: 1;">40-49</text></g></g><path class="foreground" d="" style="pointer-events: none; display: none; fill: none;"></path></g></g></g><path class="foreground" d="" style="display: none; fill: none;"></path></g><g transform="translate(322,242)"><path class="background" d="M0.5,0.5h300v75h-300Z" style="fill: none; stroke: #ddd;"></path><g><g class="mark-group role-axis"><g transform="translate(0.5,75.5)"><path class="background" d="M0,0h0v0h0Z" style="pointer-events: none; fill: none;"></path><g><g class="mark-rule role-axis-grid" style="pointer-events: none;"><line transform="translate(11,-75)" x2="0" y2="75" style="fill: none; stroke: #ddd; stroke-width: 1; opacity: 1;"></line><line transform="translate(47,-75)" x2="0" y2="75" style="fill: none; stroke: #ddd; stroke-width: 1; opacity: 1;"></line><line transform="translate(84,-75)" x2="0" y2="75" style="fill: none; stroke: #ddd; stroke-width: 1; opacity: 1;"></line><line transform="translate(121,-75)" x2="0" y2="75" style="fill: none; stroke: #ddd; stroke-width: 1; opacity: 1;"></line><line transform="translate(158,-75)" x2="0" y2="75" style="fill: none; stroke: #ddd; stroke-width: 1; opacity: 1;"></line><line transform="translate(195,-75)" x2="0" y2="75" style="fill: none; stroke: #ddd; stroke-width: 1; opacity: 1;"></line><line transform="translate(232,-75)" x2="0" y2="75" style="fill: none; stroke: #ddd; stroke-width: 1; opacity: 1;"></line><line transform="translate(268,-75)" x2="0" y2="75" style="fill: none; stroke: #ddd; stroke-width: 1; opacity: 1;"></line></g></g><path class="foreground" d="" style="pointer-events: none; display: none; fill: none;"></path></g></g><g class="mark-group role-axis"><g transform="translate(0.5,0.5)"><path class="background" d="M0,0h0v0h0Z" style="pointer-events: none; fill: none;"></path><g><g class="mark-rule role-axis-grid" style="pointer-events: none;"><line transform="translate(0,69)" x2="300" y2="0" style="fill: none; stroke: #ddd; stroke-width: 1; opacity: 1;"></line><line transform="translate(0,40)" x2="300" y2="0" style="fill: none; stroke: #ddd; stroke-width: 1; opacity: 1;"></line><line transform="translate(0,12)" x2="300" y2="0" style="fill: none; stroke: #ddd; stroke-width: 1; opacity: 1;"></line></g></g><path class="foreground" d="" style="pointer-events: none; display: none; fill: none;"></path></g></g><g class="mark-group role-scope child_pathgroup"><g transform="translate(0,0)"><path class="background" d="M0,0h300v75h-300Z" style="fill: none;"></path><g><g class="mark-area role-mark child_marks"><path d="M0,25.26952637991857L5.263157894736842,31.003601534377346L10.526315789473683,27.18088476473816L15.789473684210526,27.18088476473816L21.052631578947366,31.003601534377346L26.31578947368421,50.11718538257328L31.57894736842105,52.02854376739288L36.84210526315789,59.67397730667126L42.10526315789473,52.02854376739288L47.368421052631575,48.2058269977537L52.63157894736842,48.2058269977537L57.89473684210526,48.2058269977537L63.1578947368421,48.2058269977537L68.42105263157895,40.560393458475325L73.68421052631578,27.18088476473816L78.94736842105263,25.26952637991857L84.21052631578947,19.535451225459784L89.47368421052632,13.801376071001L94.73684210526315,13.801376071001L100,17.624092840640184L105.26315789473684,23.358167995098977L110.52631578947368,32.91495991919694L115.78947368421052,42.47175184329491L121.05263157894736,50.11718538257328L126.3157894736842,57.76261892185167L131.57894736842104,57.76261892185167L136.8421052631579,40.560393458475325L142.10526315789474,42.47175184329491L147.36842105263156,42.47175184329491L152.63157894736844,42.47175184329491L157.89473684210526,48.2058269977537L163.1578947368421,48.2058269977537L168.42105263157893,46.294468612934104L173.6842105263158,57.76261892185167L178.94736842105263,57.76261892185167L184.21052631578948,55.85126053703207L189.4736842105263,55.85126053703207L194.73684210526315,52.02854376739288L200,50.11718538257328L205.26315789473685,50.11718538257328L210.52631578947367,57.76261892185167L215.78947368421052,46.294468612934104L221.05263157894737,50.11718538257328L226.31578947368422,38.64903507365573L231.57894736842104,40.560393458475325L236.8421052631579,40.560393458475325L242.1052631578947,40.560393458475325L247.3684210526316,32.91495991919694L252.6315789473684,42.47175184329491L257.89473684210526,38.64903507365573L263.1578947368421,48.2058269977537L268.42105263157896,50.11718538257328L273.6842105263158,48.2058269977537L278.94736842105266,46.294468612934104L284.2105263157895,46.294468612934104L289.4736842105263,50.11718538257328L294.7368421052631,44.383110228114504L300,46.294468612934104L300,69.23076923076924L294.7368421052631,69.23076923076924L289.4736842105263,69.23076923076924L284.2105263157895,69.23076923076924L278.94736842105266,69.23076923076924L273.6842105263158,69.23076923076924L268.42105263157896,69.23076923076924L263.1578947368421,69.23076923076924L257.89473684210526,69.23076923076924L252.6315789473684,69.23076923076924L247.3684210526316,69.23076923076924L242.1052631578947,69.23076923076924L236.8421052631579,69.23076923076924L231.57894736842104,69.23076923076924L226.31578947368422,69.23076923076924L221.05263157894737,69.23076923076924L215.78947368421052,69.23076923076924L210.52631578947367,69.23076923076924L205.26315789473685,69.23076923076924L200,69.23076923076924L194.73684210526315,69.23076923076924L189.4736842105263,69.23076923076924L184.21052631578948,69.23076923076924L178.94736842105263,69.23076923076924L173.6842105263158,69.23076923076924L168.42105263157893,69.23076923076924L163.1578947368421,69.23076923076924L157.89473684210526,69.23076923076924L152.63157894736844,69.23076923076924L147.36842105263156,69.23076923076924L142.10526315789474,69.23076923076924L136.8421052631579,69.23076923076924L131.57894736842104,69.23076923076924L126.3157894736842,69.23076923076924L121.05263157894736,69.23076923076924L115.78947368421052,69.23076923076924L110.52631578947368,69.23076923076924L105.26315789473684,69.23076923076924L100,69.23076923076924L94.73684210526315,69.23076923076924L89.47368421052632,69.23076923076924L84.21052631578947,69.23076923076924L78.94736842105263,69.23076923076924L73.68421052631578,69.23076923076924L68.42105263157895,69.23076923076924L63.1578947368421,69.23076923076924L57.89473684210526,69.23076923076924L52.63157894736842,69.23076923076924L47.368421052631575,69.23076923076924L42.10526315789473,69.23076923076924L36.84210526315789,69.23076923076924L31.57894736842105,69.23076923076924L26.31578947368421,69.23076923076924L21.052631578947366,69.23076923076924L15.789473684210526,69.23076923076924L10.526315789473683,69.23076923076924L5.263157894736842,69.23076923076924L0,69.23076923076924Z" style="fill: #eeca3b;"></path></g></g><path class="foreground" d="" style="display: none; fill: none;"></path></g></g><g class="mark-group role-title"><g transform="translate(150,-24)"><path class="background" d="M0,0h0v0h0Z" style="pointer-events: none; fill: none;"></path><g><g class="mark-text role-title-text" style="pointer-events: none;"><text text-anchor="middle" transform="translate(0,11)" style="font-family: sans-serif; font-size: 14px; fill: #000; opacity: 1;">50-59</text></g></g><path class="foreground" d="" style="pointer-events: none; display: none; fill: none;"></path></g></g></g><path class="foreground" d="" style="display: none; fill: none;"></path></g><g transform="translate(0,363)"><path class="background" d="M0.5,0.5h300v75h-300Z" style="fill: none; stroke: #ddd;"></path><g><g class="mark-group role-axis"><g transform="translate(0.5,75.5)"><path class="background" d="M0,0h0v0h0Z" style="pointer-events: none; fill: none;"></path><g><g class="mark-rule role-axis-grid" style="pointer-events: none;"><line transform="translate(11,-75)" x2="0" y2="75" style="fill: none; stroke: #ddd; stroke-width: 1; opacity: 1;"></line><line transform="translate(47,-75)" x2="0" y2="75" style="fill: none; stroke: #ddd; stroke-width: 1; opacity: 1;"></line><line transform="translate(84,-75)" x2="0" y2="75" style="fill: none; stroke: #ddd; stroke-width: 1; opacity: 1;"></line><line transform="translate(121,-75)" x2="0" y2="75" style="fill: none; stroke: #ddd; stroke-width: 1; opacity: 1;"></line><line transform="translate(158,-75)" x2="0" y2="75" style="fill: none; stroke: #ddd; stroke-width: 1; opacity: 1;"></line><line transform="translate(195,-75)" x2="0" y2="75" style="fill: none; stroke: #ddd; stroke-width: 1; opacity: 1;"></line><line transform="translate(232,-75)" x2="0" y2="75" style="fill: none; stroke: #ddd; stroke-width: 1; opacity: 1;"></line><line transform="translate(268,-75)" x2="0" y2="75" style="fill: none; stroke: #ddd; stroke-width: 1; opacity: 1;"></line></g></g><path class="foreground" d="" style="pointer-events: none; display: none; fill: none;"></path></g></g><g class="mark-group role-axis"><g transform="translate(0.5,0.5)"><path class="background" d="M0,0h0v0h0Z" style="pointer-events: none; fill: none;"></path><g><g class="mark-rule role-axis-grid" style="pointer-events: none;"><line transform="translate(0,69)" x2="300" y2="0" style="fill: none; stroke: #ddd; stroke-width: 1; opacity: 1;"></line><line transform="translate(0,40)" x2="300" y2="0" style="fill: none; stroke: #ddd; stroke-width: 1; opacity: 1;"></line><line transform="translate(0,12)" x2="300" y2="0" style="fill: none; stroke: #ddd; stroke-width: 1; opacity: 1;"></line></g></g><path class="foreground" d="" style="pointer-events: none; display: none; fill: none;"></path></g></g><g class="mark-group role-scope child_pathgroup"><g transform="translate(0,0)"><path class="background" d="M0,0h300v75h-300Z" style="fill: none;"></path><g><g class="mark-area role-mark child_marks"><path d="M0,63.034936812009605L5.263157894736842,60.96965933908973L10.526315789473683,54.7738269203301L15.789473684210526,54.7738269203301L21.052631578947366,54.7738269203301L26.31578947368421,58.90438186616985L31.57894736842105,56.83910439324998L36.84210526315789,56.83910439324998L42.10526315789473,58.90438186616985L47.368421052631575,54.7738269203301L52.63157894736842,54.7738269203301L57.89473684210526,54.7738269203301L63.1578947368421,52.70854944741023L68.42105263157895,50.643271974490354L73.68421052631578,44.447439555730725L78.94736842105263,38.2516071369711L84.21052631578947,42.38216208281085L89.47368421052632,36.186329664051236L94.73684210526315,36.186329664051236L100,29.990497245291596L105.26315789473684,34.12105219113136L110.52631578947368,36.186329664051236L115.78947368421052,42.38216208281085L121.05263157894736,46.512717028650606L126.3157894736842,52.70854944741023L131.57894736842104,46.512717028650606L136.8421052631579,48.57799450157048L142.10526315789474,38.2516071369711L147.36842105263156,46.512717028650606L152.63157894736844,44.447439555730725L157.89473684210526,44.447439555730725L163.1578947368421,42.38216208281085L168.42105263157893,48.57799450157048L173.6842105263158,50.643271974490354L178.94736842105263,60.96965933908973L184.21052631578948,48.57799450157048L189.4736842105263,50.643271974490354L194.73684210526315,46.512717028650606L200,48.57799450157048L205.26315789473685,44.447439555730725L210.52631578947367,46.512717028650606L215.78947368421052,40.31688460989098L221.05263157894737,48.57799450157048L226.31578947368422,44.447439555730725L231.57894736842104,48.57799450157048L236.8421052631579,48.57799450157048L242.1052631578947,52.70854944741023L247.3684210526316,54.7738269203301L252.6315789473684,60.96965933908973L257.89473684210526,63.034936812009605L263.1578947368421,67.16549175784935L268.42105263157896,67.16549175784935L273.6842105263158,63.034936812009605L278.94736842105266,58.90438186616985L284.2105263157895,60.96965933908973L289.4736842105263,60.96965933908973L294.7368421052631,50.643271974490354L300,48.57799450157048L300,69.23076923076924L294.7368421052631,69.23076923076924L289.4736842105263,69.23076923076924L284.2105263157895,69.23076923076924L278.94736842105266,69.23076923076924L273.6842105263158,69.23076923076924L268.42105263157896,69.23076923076924L263.1578947368421,69.23076923076924L257.89473684210526,69.23076923076924L252.6315789473684,69.23076923076924L247.3684210526316,69.23076923076924L242.1052631578947,69.23076923076924L236.8421052631579,69.23076923076924L231.57894736842104,69.23076923076924L226.31578947368422,69.23076923076924L221.05263157894737,69.23076923076924L215.78947368421052,69.23076923076924L210.52631578947367,69.23076923076924L205.26315789473685,69.23076923076924L200,69.23076923076924L194.73684210526315,69.23076923076924L189.4736842105263,69.23076923076924L184.21052631578948,69.23076923076924L178.94736842105263,69.23076923076924L173.6842105263158,69.23076923076924L168.42105263157893,69.23076923076924L163.1578947368421,69.23076923076924L157.89473684210526,69.23076923076924L152.63157894736844,69.23076923076924L147.36842105263156,69.23076923076924L142.10526315789474,69.23076923076924L136.8421052631579,69.23076923076924L131.57894736842104,69.23076923076924L126.3157894736842,69.23076923076924L121.05263157894736,69.23076923076924L115.78947368421052,69.23076923076924L110.52631578947368,69.23076923076924L105.26315789473684,69.23076923076924L100,69.23076923076924L94.73684210526315,69.23076923076924L89.47368421052632,69.23076923076924L84.21052631578947,69.23076923076924L78.94736842105263,69.23076923076924L73.68421052631578,69.23076923076924L68.42105263157895,69.23076923076924L63.1578947368421,69.23076923076924L57.89473684210526,69.23076923076924L52.63157894736842,69.23076923076924L47.368421052631575,69.23076923076924L42.10526315789473,69.23076923076924L36.84210526315789,69.23076923076924L31.57894736842105,69.23076923076924L26.31578947368421,69.23076923076924L21.052631578947366,69.23076923076924L15.789473684210526,69.23076923076924L10.526315789473683,69.23076923076924L5.263157894736842,69.23076923076924L0,69.23076923076924Z" style="fill: #b279a2;"></path></g></g><path class="foreground" d="" style="display: none; fill: none;"></path></g></g><g class="mark-group role-title"><g transform="translate(150,-24)"><path class="background" d="M0,0h0v0h0Z" style="pointer-events: none; fill: none;"></path><g><g class="mark-text role-title-text" style="pointer-events: none;"><text text-anchor="middle" transform="translate(0,11)" style="font-family: sans-serif; font-size: 14px; fill: #000; opacity: 1;">60-69</text></g></g><path class="foreground" d="" style="pointer-events: none; display: none; fill: none;"></path></g></g></g><path class="foreground" d="" style="display: none; fill: none;"></path></g><g transform="translate(322,363)"><path class="background" d="M0.5,0.5h300v75h-300Z" style="fill: none; stroke: #ddd;"></path><g><g class="mark-group role-axis"><g transform="translate(0.5,75.5)"><path class="background" d="M0,0h0v0h0Z" style="pointer-events: none; fill: none;"></path><g><g class="mark-rule role-axis-grid" style="pointer-events: none;"><line transform="translate(11,-75)" x2="0" y2="75" style="fill: none; stroke: #ddd; stroke-width: 1; opacity: 1;"></line><line transform="translate(47,-75)" x2="0" y2="75" style="fill: none; stroke: #ddd; stroke-width: 1; opacity: 1;"></line><line transform="translate(84,-75)" x2="0" y2="75" style="fill: none; stroke: #ddd; stroke-width: 1; opacity: 1;"></line><line transform="translate(121,-75)" x2="0" y2="75" style="fill: none; stroke: #ddd; stroke-width: 1; opacity: 1;"></line><line transform="translate(158,-75)" x2="0" y2="75" style="fill: none; stroke: #ddd; stroke-width: 1; opacity: 1;"></line><line transform="translate(195,-75)" x2="0" y2="75" style="fill: none; stroke: #ddd; stroke-width: 1; opacity: 1;"></line><line transform="translate(232,-75)" x2="0" y2="75" style="fill: none; stroke: #ddd; stroke-width: 1; opacity: 1;"></line><line transform="translate(268,-75)" x2="0" y2="75" style="fill: none; stroke: #ddd; stroke-width: 1; opacity: 1;"></line></g></g><path class="foreground" d="" style="pointer-events: none; display: none; fill: none;"></path></g></g><g class="mark-group role-axis"><g transform="translate(0.5,0.5)"><path class="background" d="M0,0h0v0h0Z" style="pointer-events: none; fill: none;"></path><g><g class="mark-rule role-axis-grid" style="pointer-events: none;"><line transform="translate(0,69)" x2="300" y2="0" style="fill: none; stroke: #ddd; stroke-width: 1; opacity: 1;"></line><line transform="translate(0,40)" x2="300" y2="0" style="fill: none; stroke: #ddd; stroke-width: 1; opacity: 1;"></line><line transform="translate(0,12)" x2="300" y2="0" style="fill: none; stroke: #ddd; stroke-width: 1; opacity: 1;"></line></g></g><path class="foreground" d="" style="pointer-events: none; display: none; fill: none;"></path></g></g><g class="mark-group role-scope child_pathgroup"><g transform="translate(0,0)"><path class="background" d="M0,0h300v75h-300Z" style="fill: none;"></path><g><g class="mark-area role-mark child_marks"><path d="M0,55.84620717024909L5.263157894736842,55.84620717024909L10.526315789473683,58.523119582353125L15.789473684210526,58.523119582353125L21.052631578947366,61.200031994457156L26.31578947368421,63.87694440656118L31.57894736842105,63.87694440656118L36.84210526315789,63.87694440656118L42.10526315789473,63.87694440656118L47.368421052631575,55.84620717024909L52.63157894736842,55.84620717024909L57.89473684210526,55.84620717024909L63.1578947368421,55.84620717024909L68.42105263157895,61.200031994457156L73.68421052631578,61.200031994457156L78.94736842105263,50.49238234604104L84.21052631578947,50.49238234604104L89.47368421052632,47.81546993393701L94.73684210526315,47.81546993393701L100,45.13855752183298L105.26315789473684,45.13855752183298L110.52631578947368,39.78473269762493L115.78947368421052,50.49238234604104L121.05263157894736,55.84620717024909L126.3157894736842,58.523119582353125L131.57894736842104,53.16929475814508L136.8421052631579,47.81546993393701L142.10526315789474,45.13855752183298L147.36842105263156,47.81546993393701L152.63157894736844,47.81546993393701L157.89473684210526,53.16929475814508L163.1578947368421,53.16929475814508L168.42105263157893,58.523119582353125L173.6842105263158,61.200031994457156L178.94736842105263,61.200031994457156L184.21052631578948,58.523119582353125L189.4736842105263,55.84620717024909L194.73684210526315,53.16929475814508L200,53.16929475814508L205.26315789473685,45.13855752183298L210.52631578947367,50.49238234604104L215.78947368421052,42.46164510972896L221.05263157894737,47.81546993393701L226.31578947368422,42.46164510972896L231.57894736842104,42.46164510972896L236.8421052631579,42.46164510972896L242.1052631578947,47.81546993393701L247.3684210526316,47.81546993393701L252.6315789473684,61.200031994457156L257.89473684210526,55.84620717024909L263.1578947368421,61.200031994457156L268.42105263157896,61.200031994457156L273.6842105263158,61.200031994457156L278.94736842105266,55.84620717024909L284.2105263157895,53.16929475814508L289.4736842105263,50.49238234604104L294.7368421052631,55.84620717024909L300,58.523119582353125L300,69.23076923076924L294.7368421052631,69.23076923076924L289.4736842105263,69.23076923076924L284.2105263157895,69.23076923076924L278.94736842105266,69.23076923076924L273.6842105263158,69.23076923076924L268.42105263157896,69.23076923076924L263.1578947368421,69.23076923076924L257.89473684210526,69.23076923076924L252.6315789473684,69.23076923076924L247.3684210526316,69.23076923076924L242.1052631578947,69.23076923076924L236.8421052631579,69.23076923076924L231.57894736842104,69.23076923076924L226.31578947368422,69.23076923076924L221.05263157894737,69.23076923076924L215.78947368421052,69.23076923076924L210.52631578947367,69.23076923076924L205.26315789473685,69.23076923076924L200,69.23076923076924L194.73684210526315,69.23076923076924L189.4736842105263,69.23076923076924L184.21052631578948,69.23076923076924L178.94736842105263,69.23076923076924L173.6842105263158,69.23076923076924L168.42105263157893,69.23076923076924L163.1578947368421,69.23076923076924L157.89473684210526,69.23076923076924L152.63157894736844,69.23076923076924L147.36842105263156,69.23076923076924L142.10526315789474,69.23076923076924L136.8421052631579,69.23076923076924L131.57894736842104,69.23076923076924L126.3157894736842,69.23076923076924L121.05263157894736,69.23076923076924L115.78947368421052,69.23076923076924L110.52631578947368,69.23076923076924L105.26315789473684,69.23076923076924L100,69.23076923076924L94.73684210526315,69.23076923076924L89.47368421052632,69.23076923076924L84.21052631578947,69.23076923076924L78.94736842105263,69.23076923076924L73.68421052631578,69.23076923076924L68.42105263157895,69.23076923076924L63.1578947368421,69.23076923076924L57.89473684210526,69.23076923076924L52.63157894736842,69.23076923076924L47.368421052631575,69.23076923076924L42.10526315789473,69.23076923076924L36.84210526315789,69.23076923076924L31.57894736842105,69.23076923076924L26.31578947368421,69.23076923076924L21.052631578947366,69.23076923076924L15.789473684210526,69.23076923076924L10.526315789473683,69.23076923076924L5.263157894736842,69.23076923076924L0,69.23076923076924Z" style="fill: #ff9da6;"></path></g></g><path class="foreground" d="" style="display: none; fill: none;"></path></g></g><g class="mark-group role-title"><g transform="translate(150,-24)"><path class="background" d="M0,0h0v0h0Z" style="pointer-events: none; fill: none;"></path><g><g class="mark-text role-title-text" style="pointer-events: none;"><text text-anchor="middle" transform="translate(0,11)" style="font-family: sans-serif; font-size: 14px; fill: #000; opacity: 1;">70-79</text></g></g><path class="foreground" d="" style="pointer-events: none; display: none; fill: none;"></path></g></g></g><path class="foreground" d="" style="display: none; fill: none;"></path></g><g transform="translate(0,484)"><path class="background" d="M0.5,0.5h300v75h-300Z" style="fill: none; stroke: #ddd;"></path><g><g class="mark-group role-axis"><g transform="translate(0.5,75.5)"><path class="background" d="M0,0h0v0h0Z" style="pointer-events: none; fill: none;"></path><g><g class="mark-rule role-axis-grid" style="pointer-events: none;"><line transform="translate(11,-75)" x2="0" y2="75" style="fill: none; stroke: #ddd; stroke-width: 1; opacity: 1;"></line><line transform="translate(47,-75)" x2="0" y2="75" style="fill: none; stroke: #ddd; stroke-width: 1; opacity: 1;"></line><line transform="translate(84,-75)" x2="0" y2="75" style="fill: none; stroke: #ddd; stroke-width: 1; opacity: 1;"></line><line transform="translate(121,-75)" x2="0" y2="75" style="fill: none; stroke: #ddd; stroke-width: 1; opacity: 1;"></line><line transform="translate(158,-75)" x2="0" y2="75" style="fill: none; stroke: #ddd; stroke-width: 1; opacity: 1;"></line><line transform="translate(195,-75)" x2="0" y2="75" style="fill: none; stroke: #ddd; stroke-width: 1; opacity: 1;"></line><line transform="translate(232,-75)" x2="0" y2="75" style="fill: none; stroke: #ddd; stroke-width: 1; opacity: 1;"></line><line transform="translate(268,-75)" x2="0" y2="75" style="fill: none; stroke: #ddd; stroke-width: 1; opacity: 1;"></line></g></g><path class="foreground" d="" style="pointer-events: none; display: none; fill: none;"></path></g></g><g class="mark-group role-axis"><g transform="translate(0.5,0.5)"><path class="background" d="M0,0h0v0h0Z" style="pointer-events: none; fill: none;"></path><g><g class="mark-rule role-axis-grid" style="pointer-events: none;"><line transform="translate(0,69)" x2="300" y2="0" style="fill: none; stroke: #ddd; stroke-width: 1; opacity: 1;"></line><line transform="translate(0,40)" x2="300" y2="0" style="fill: none; stroke: #ddd; stroke-width: 1; opacity: 1;"></line><line transform="translate(0,12)" x2="300" y2="0" style="fill: none; stroke: #ddd; stroke-width: 1; opacity: 1;"></line></g></g><path class="foreground" d="" style="pointer-events: none; display: none; fill: none;"></path></g></g><g class="mark-group role-scope child_pathgroup"><g transform="translate(0,0)"><path class="background" d="M0,0h300v75h-300Z" style="fill: none;"></path><g><g class="mark-area role-mark child_marks"><path d="M0,64.69834608857926L5.263157894736842,69.23076923076924L10.526315789473683,69.23076923076924L15.789473684210526,64.69834608857926L21.052631578947366,64.69834608857926L26.31578947368421,64.69834608857926L31.57894736842105,64.69834608857926L36.84210526315789,69.23076923076924L42.10526315789473,69.23076923076924L47.368421052631575,64.69834608857926L52.63157894736842,60.165922946389294L57.89473684210526,60.165922946389294L63.1578947368421,60.165922946389294L68.42105263157895,60.165922946389294L73.68421052631578,51.10107666200935L78.94736842105263,46.56865351981938L84.21052631578947,46.56865351981938L89.47368421052632,51.10107666200935L94.73684210526315,51.10107666200935L100,51.10107666200935L105.26315789473684,51.10107666200935L110.52631578947368,60.165922946389294L115.78947368421052,64.69834608857926L121.05263157894736,64.69834608857926L126.3157894736842,64.69834608857926L131.57894736842104,64.69834608857926L136.8421052631579,60.165922946389294L142.10526315789474,60.165922946389294L147.36842105263156,64.69834608857926L152.63157894736844,64.69834608857926L157.89473684210526,64.69834608857926L163.1578947368421,64.69834608857926L168.42105263157893,64.69834608857926L173.6842105263158,69.23076923076924L178.94736842105263,69.23076923076924L184.21052631578948,60.165922946389294L189.4736842105263,60.165922946389294L194.73684210526315,64.69834608857926L200,64.69834608857926L205.26315789473685,60.165922946389294L210.52631578947367,60.165922946389294L215.78947368421052,51.10107666200935L221.05263157894737,55.63349980419932L226.31578947368422,60.165922946389294L231.57894736842104,60.165922946389294L236.8421052631579,60.165922946389294L242.1052631578947,64.69834608857926L247.3684210526316,60.165922946389294L252.6315789473684,69.23076923076924L257.89473684210526,64.69834608857926L263.1578947368421,60.165922946389294L268.42105263157896,60.165922946389294L273.6842105263158,60.165922946389294L278.94736842105266,60.165922946389294L284.2105263157895,64.69834608857926L289.4736842105263,64.69834608857926L294.7368421052631,64.69834608857926L300,64.69834608857926L300,69.23076923076924L294.7368421052631,69.23076923076924L289.4736842105263,69.23076923076924L284.2105263157895,69.23076923076924L278.94736842105266,69.23076923076924L273.6842105263158,69.23076923076924L268.42105263157896,69.23076923076924L263.1578947368421,69.23076923076924L257.89473684210526,69.23076923076924L252.6315789473684,69.23076923076924L247.3684210526316,69.23076923076924L242.1052631578947,69.23076923076924L236.8421052631579,69.23076923076924L231.57894736842104,69.23076923076924L226.31578947368422,69.23076923076924L221.05263157894737,69.23076923076924L215.78947368421052,69.23076923076924L210.52631578947367,69.23076923076924L205.26315789473685,69.23076923076924L200,69.23076923076924L194.73684210526315,69.23076923076924L189.4736842105263,69.23076923076924L184.21052631578948,69.23076923076924L178.94736842105263,69.23076923076924L173.6842105263158,69.23076923076924L168.42105263157893,69.23076923076924L163.1578947368421,69.23076923076924L157.89473684210526,69.23076923076924L152.63157894736844,69.23076923076924L147.36842105263156,69.23076923076924L142.10526315789474,69.23076923076924L136.8421052631579,69.23076923076924L131.57894736842104,69.23076923076924L126.3157894736842,69.23076923076924L121.05263157894736,69.23076923076924L115.78947368421052,69.23076923076924L110.52631578947368,69.23076923076924L105.26315789473684,69.23076923076924L100,69.23076923076924L94.73684210526315,69.23076923076924L89.47368421052632,69.23076923076924L84.21052631578947,69.23076923076924L78.94736842105263,69.23076923076924L73.68421052631578,69.23076923076924L68.42105263157895,69.23076923076924L63.1578947368421,69.23076923076924L57.89473684210526,69.23076923076924L52.63157894736842,69.23076923076924L47.368421052631575,69.23076923076924L42.10526315789473,69.23076923076924L36.84210526315789,69.23076923076924L31.57894736842105,69.23076923076924L26.31578947368421,69.23076923076924L21.052631578947366,69.23076923076924L15.789473684210526,69.23076923076924L10.526315789473683,69.23076923076924L5.263157894736842,69.23076923076924L0,69.23076923076924Z" style="fill: #9d755d;"></path></g></g><path class="foreground" d="" style="display: none; fill: none;"></path></g></g><g class="mark-group role-title"><g transform="translate(150,-24)"><path class="background" d="M0,0h0v0h0Z" style="pointer-events: none; fill: none;"></path><g><g class="mark-text role-title-text" style="pointer-events: none;"><text text-anchor="middle" transform="translate(0,11)" style="font-family: sans-serif; font-size: 14px; fill: #000; opacity: 1;">≥ 80</text></g></g><path class="foreground" d="" style="pointer-events: none; display: none; fill: none;"></path></g></g></g><path class="foreground" d="" style="display: none; fill: none;"></path></g></g></g><path class="foreground" d="" style="display: none; fill: none;"></path></g></g></g></svg>