<svg class="marks" width="626" height="210" viewBox="0 0 626 210" version="1.1" xmlns="http://www.w3.org/2000/svg" xmlns:xlink="http://www.w3.org/1999/xlink"><rect width="626" height="210" style="fill: white;"></rect><g transform="translate(45,13)"><g class="mark-group role-frame root"><g transform="translate(0,0)"><path class="background" d="M0,0h0v0h0Z" style="fill: none;"></path><g><g class="mark-group role-row-header row_header"><g transform="translate(-1,0)"><path class="background" d="M0,0h0v37h0Z" style="fill: none;"></path><g><g class="mark-group role-axis"><g transform="translate(0.5,0.5)"><path class="background" d="M0,0h0v0h0Z" style="pointer-events: none; fill: none;"></path><g><g class="mark-rule role-axis-tick" style="pointer-events: none;"><line transform="translate(0,37)" x2="-5" y2="0" style="fill: none; stroke: #888; stroke-width: 1; opacity: 1;"></line><line transform="translate(0,9)" x2="-5" y2="0" style="fill: none; stroke: #888; stroke-width: 1; opacity: 1;"></line></g><g class="mark-text role-axis-label" style="pointer-events: none;"><text text-anchor="end" transform="translate(-7,41)" style="font-family: sans-serif; font-size: 14px; fill: #000; opacity: 1;">0</text><text text-anchor="end" transform="translate(-7,12.538461538461537)" style="font-family: sans-serif; font-size: 14px; fill: #000; opacity: 1;">5</text></g><g class="mark-rule role-axis-domain" style="pointer-events: none;"><line transform="translate(0,37)" x2="0" y2="-37" style="fill: none; stroke: #888; stroke-width: 1; opacity: 1;"></line></g></g><path class="foreground" d="" style="pointer-events: none; display: none; fill: none;"></path></g></g><g class="mark-group role-title"><g transform="translate(-38.7861328125,18.5)"><path class="background" d="M0,0h0v0h0Z" style="pointer-events: none; fill: none;"></path><g><g class="mark-text role-title-text" style="pointer-events: none;"><text text-anchor="middle" transform="translate(0,0) rotate(-90) translate(0,11)" style="font-family: sans-serif; font-size: 14px; fill: #000; opacity: 1;">Pruebas</text></g></g><path class="foreground" d="" style="pointer-events: none; display: none; fill: none;"></path></g></g></g><path class="foreground" d="" style="display: none; fill: none;"></path></g><g transform="translate(-1,73)"><path class="background" d="M0,0h0v37h0Z" style="fill: none;"></path><g><g class="mark-group role-axis"><g transform="translate(0.5,0.5)"><path class="background" d="M0,0h0v0h0Z" style="pointer-events: none; fill: none;"></path><g><g class="mark-rule role-axis-tick" style="pointer-events: none;"><line transform="translate(0,37)" x2="-5" y2="0" style="fill: none; stroke: #888; stroke-width: 1; opacity: 1;"></line><line transform="translate(0,9)" x2="-5" y2="0" style="fill: none; stroke: #888; stroke-width: 1; opacity: 1;"></line></g><g class="mark-text role-axis-label" style="pointer-events: none;"><text text-anchor="end" transform="translate(-7,41)" style="font-family: sans-serif; font-size: 14px; fill: #000; opacity: 1;">0</text><text text-anchor="end" transform="translate(-7,12.538461538461537)" style="font-family: sans-serif; font-size: 14px; fill: #000; opacity: 1;">5</text></g><g class="mark-rule role-axis-domain" style="pointer-events: none;"><line transform="translate(0,37)" x2="0" y2="-37" style="fill: none; stroke: #888; stroke-width: 1; opacity: 1;"></line></g></g><path class="foreground" d="" style="pointer-events: none; display: none; fill: none;"></path></g></g><g class="mark-group role-title"><g transform="translate(-38.7861328125,18.5)"><path class="background" d="M0,0h0v0h0Z" style="pointer-events: none; fill: none;"></path><g><g class="mark-text role-title-text" style="pointer-events: none;"><text text-anchor="middle" transform="translate(0,0) rotate(-90) translate(0,11)" style="font-family: sans-serif; font-size: 14px; fill: #000; opacity: 1;">Positivas</text></g></g><path class="foreground" d="" style="pointer-events: none; display: none; fill: none;"></path></g></g></g><path class="foreground" d="" style="display: none; fill: none;"></path></g></g><g class="mark-group role-column-footer column_footer"><g transform="translate(0,125)"><path class="background" d="M0,0h575v0h-575Z" style="fill: none;"></path><g><g class="mark-group role-axis"><g transform="translate(0.5,0.5)"><path class="background" d="M0,0h0v0h0Z" style="pointer-events: none; fill: none;"></path><g><g class="mark-rule role-axis-tick" style="pointer-events: none;"><line transform="translate(19,0)" x2="0" y2="5" style="fill: none; stroke: #888; stroke-width: 1; opacity: 1;"></line><line transform="translate(57,0)" x2="0" y2="5" style="fill: none; stroke: #888; stroke-width: 1; opacity: 1;"></line><line transform="translate(96,0)" x2="0" y2="5" style="fill: none; stroke: #888; stroke-width: 1; opacity: 1;"></line><line transform="translate(134,0)" x2="0" y2="5" style="fill: none; stroke: #888; stroke-width: 1; opacity: 1;"></line><line transform="translate(172,0)" x2="0" y2="5" style="fill: none; stroke: #888; stroke-width: 1; opacity: 1;"></line><line transform="translate(211,0)" x2="0" y2="5" style="fill: none; stroke: #888; stroke-width: 1; opacity: 1;"></line><line transform="translate(249,0)" x2="0" y2="5" style="fill: none; stroke: #888; stroke-width: 1; opacity: 1;"></line><line transform="translate(288,0)" x2="0" y2="5" style="fill: none; stroke: #888; stroke-width: 1; opacity: 1;"></line><line transform="translate(326,0)" x2="0" y2="5" style="fill: none; stroke: #888; stroke-width: 1; opacity: 1;"></line><line transform="translate(364,0)" x2="0" y2="5" style="fill: none; stroke: #888; stroke-width: 1; opacity: 1;"></line><line transform="translate(403,0)" x2="0" y2="5" style="fill: none; stroke: #888; stroke-width: 1; opacity: 1;"></line><line transform="translate(441,0)" x2="0" y2="5" style="fill: none; stroke: #888; stroke-width: 1; opacity: 1;"></line><line transform="translate(479,0)" x2="0" y2="5" style="fill: none; stroke: #888; stroke-width: 1; opacity: 1;"></line><line transform="translate(518,0)" x2="0" y2="5" style="fill: none; stroke: #888; stroke-width: 1; opacity: 1;"></line><line transform="translate(556,0)" x2="0" y2="5" style="fill: none; stroke: #888; stroke-width: 1; opacity: 1;"></line></g><g class="mark-text role-axis-label" style="pointer-events: none;"><text text-anchor="end" transform="translate(19.16666666666663,7) rotate(270) translate(0,4)" style="font-family: sans-serif; font-size: 14px; fill: #000; opacity: 1;">15/07</text><text text-anchor="end" transform="translate(57.499999999999964,7) rotate(270) translate(0,4)" style="font-family: sans-serif; font-size: 14px; fill: #000; opacity: 1;">16/07</text><text text-anchor="end" transform="translate(95.8333333333333,7) rotate(270) translate(0,4)" style="font-family: sans-serif; font-size: 14px; fill: #000; opacity: 1;">17/07</text><text text-anchor="end" transform="translate(134.16666666666663,7) rotate(270) translate(0,4)" style="font-family: sans-serif; font-size: 14px; fill: #000; opacity: 1;">18/07</text><text text-anchor="end" transform="translate(172.49999999999997,7) rotate(270) translate(0,4)" style="font-family: sans-serif; font-size: 14px; fill: #000; opacity: 1;">19/07</text><text text-anchor="end" transform="translate(210.83333333333331,7) rotate(270) translate(0,4)" style="font-family: sans-serif; font-size: 14px; fill: #000; opacity: 1;">20/07</text><text text-anchor="end" transform="translate(249.16666666666663,7) rotate(270) translate(0,4)" style="font-family: sans-serif; font-size: 14px; fill: #000; opacity: 1;">21/07</text><text text-anchor="end" transform="translate(287.5,7) rotate(270) translate(0,4)" style="font-family: sans-serif; font-size: 14px; fill: #000; opacity: 1;">22/07</text><text text-anchor="end" transform="translate(325.8333333333333,7) rotate(270) translate(0,4)" style="font-family: sans-serif; font-size: 14px; fill: #000; opacity: 1;">23/07</text><text text-anchor="end" transform="translate(364.16666666666663,7) rotate(270) translate(0,4)" style="font-family: sans-serif; font-size: 14px; fill: #000; opacity: 1;">24/07</text><text text-anchor="end" transform="translate(402.5,7) rotate(270) translate(0,4)" style="font-family: sans-serif; font-size: 14px; fill: #000; opacity: 1;">25/07</text><text text-anchor="end" transform="translate(440.8333333333333,7) rotate(270) translate(0,4)" style="font-family: sans-serif; font-size: 14px; fill: #000; opacity: 1;">26/07</text><text text-anchor="end" transform="translate(479.16666666666663,7) rotate(270) translate(0,4)" style="font-family: sans-serif; font-size: 14px; fill: #000; opacity: 1;">27/07</text><text text-anchor="end" transform="translate(517.5,7) rotate(270) translate(0,4)" style="font-family: sans-serif; font-size: 14px; fill: #000; opacity: 1;">28/07</text><text text-anchor="end" transform="translate(555.8333333333334,7) rotate(270) translate(0,4)" style="font-family: sans-serif; font-size: 14px; fill: #000; opacity: 1;">29/07</text></g><g class="mark-rule role-axis-domain" style="pointer-events: none;"><line transform="translate(0,0)" x2="575" y2="0" style="fill: none; stroke: #888; stroke-width: 1; opacity: 1;"></line></g><g class="mark-text role-axis-title" style="pointer-events: none;"><text text-anchor="middle" transform="translate(287.5,63.03417968750001)" style="font-family: sans-serif; font-size: 14px; font-weight: bold; fill: #000; opacity: 1;">Fecha de récord</text></g></g><path class="foreground" d="" style="pointer-events: none; display: none; fill: none;"></path></g></g></g><path class="foreground" d="" style="display: none; fill: none;"></path></g></g><g class="mark-group role-scope cell"><g transform="translate(0,0)"><path class="background" d="M0.5,0.5h575v37h-575Z" style="fill: none; stroke: #ddd;"></path><g><g class="mark-group role-axis"><g transform="translate(0.5,0.5)"><path class="background" d="M0,0h0v0h0Z" style="pointer-events: none; fill: none;"></path><g><g class="mark-rule role-axis-grid" style="pointer-events: none;"><line transform="translate(0,37)" x2="575" y2="0" style="fill: none; stroke: #ddd; stroke-width: 1; opacity: 1;"></line><line transform="translate(0,9)" x2="575" y2="0" style="fill: none; stroke: #ddd; stroke-width: 1; opacity: 1;"></line></g></g><path class="foreground" d="" style="pointer-events: none; display: none; fill: none;"></path></g></g><g class="mark-group role-scope child_layer_0_layer_0_pathgroup"><g transform="translate(0,0)"><path class="background" d="M0,0h575v37h-575Z" style="fill: none;"></path><g><g class="mark-line role-mark child_layer_0_layer_0_marks"><path d="M19.16666666666663,22.282955775740383L57.499999999999964,21.008437805388805L95.8333333333333,20.079030558482614L134.16666666666663,18.34435489801421L172.49999999999997,16.944325336055808L210.83333333333331,15.859547640712336L249.16666666666663,14.481756207099993L287.5,12.686611932974204L325.8333333333333,11.26131180467115L364.16666666666663,9.196262141677726L402.5,8.56994115792167L440.8333333333333,8.119504076709317L479.16666666666663,6.382051078049169L517.5,0.6699508254302763L555.8333333333334,0.3879247228063206" style="fill: none; stroke: #4c78a8; stroke-width: 3;"></path></g></g><path class="foreground" d="" style="display: none; fill: none;"></path></g></g><g class="mark-symbol role-mark child_layer_0_layer_1_marks"><path transform="translate(555.8333333333334,0.3879247228063206)" d="M3.5355339059327378,0A3.5355339059327378,3.5355339059327378,0,1,1,-3.5355339059327378,0A3.5355339059327378,3.5355339059327378,0,1,1,3.5355339059327378,0" style="fill: #4c78a8; stroke-width: 2; opacity: 1;"></path><path transform="translate(517.5,0.6699508254302763)" d="M3.5355339059327378,0A3.5355339059327378,3.5355339059327378,0,1,1,-3.5355339059327378,0A3.5355339059327378,3.5355339059327378,0,1,1,3.5355339059327378,0" style="fill: #4c78a8; stroke-width: 2; opacity: 1;"></path><path transform="translate(479.16666666666663,6.382051078049169)" d="M3.5355339059327378,0A3.5355339059327378,3.5355339059327378,0,1,1,-3.5355339059327378,0A3.5355339059327378,3.5355339059327378,0,1,1,3.5355339059327378,0" style="fill: #4c78a8; stroke-width: 2; opacity: 1;"></path><path transform="translate(440.8333333333333,8.119504076709317)" d="M3.5355339059327378,0A3.5355339059327378,3.5355339059327378,0,1,1,-3.5355339059327378,0A3.5355339059327378,3.5355339059327378,0,1,1,3.5355339059327378,0" style="fill: #4c78a8; stroke-width: 2; opacity: 1;"></path><path transform="translate(402.5,8.56994115792167)" d="M3.5355339059327378,0A3.5355339059327378,3.5355339059327378,0,1,1,-3.5355339059327378,0A3.5355339059327378,3.5355339059327378,0,1,1,3.5355339059327378,0" style="fill: #4c78a8; stroke-width: 2; opacity: 1;"></path><path transform="translate(364.16666666666663,9.196262141677726)" d="M3.5355339059327378,0A3.5355339059327378,3.5355339059327378,0,1,1,-3.5355339059327378,0A3.5355339059327378,3.5355339059327378,0,1,1,3.5355339059327378,0" style="fill: #4c78a8; stroke-width: 2; opacity: 1;"></path><path transform="translate(325.8333333333333,11.26131180467115)" d="M3.5355339059327378,0A3.5355339059327378,3.5355339059327378,0,1,1,-3.5355339059327378,0A3.5355339059327378,3.5355339059327378,0,1,1,3.5355339059327378,0" style="fill: #4c78a8; stroke-width: 2; opacity: 1;"></path><path transform="translate(287.5,12.686611932974204)" d="M3.5355339059327378,0A3.5355339059327378,3.5355339059327378,0,1,1,-3.5355339059327378,0A3.5355339059327378,3.5355339059327378,0,1,1,3.5355339059327378,0" style="fill: #4c78a8; stroke-width: 2; opacity: 1;"></path><path transform="translate(249.16666666666663,14.481756207099993)" d="M3.5355339059327378,0A3.5355339059327378,3.5355339059327378,0,1,1,-3.5355339059327378,0A3.5355339059327378,3.5355339059327378,0,1,1,3.5355339059327378,0" style="fill: #4c78a8; stroke-width: 2; opacity: 1;"></path><path transform="translate(210.83333333333331,15.859547640712336)" d="M3.5355339059327378,0A3.5355339059327378,3.5355339059327378,0,1,1,-3.5355339059327378,0A3.5355339059327378,3.5355339059327378,0,1,1,3.5355339059327378,0" style="fill: #4c78a8; stroke-width: 2; opacity: 1;"></path><path transform="translate(172.49999999999997,16.944325336055808)" d="M3.5355339059327378,0A3.5355339059327378,3.5355339059327378,0,1,1,-3.5355339059327378,0A3.5355339059327378,3.5355339059327378,0,1,1,3.5355339059327378,0" style="fill: #4c78a8; stroke-width: 2; opacity: 1;"></path><path transform="translate(134.16666666666663,18.34435489801421)" d="M3.5355339059327378,0A3.5355339059327378,3.5355339059327378,0,1,1,-3.5355339059327378,0A3.5355339059327378,3.5355339059327378,0,1,1,3.5355339059327378,0" style="fill: #4c78a8; stroke-width: 2; opacity: 1;"></path><path transform="translate(95.8333333333333,20.079030558482614)" d="M3.5355339059327378,0A3.5355339059327378,3.5355339059327378,0,1,1,-3.5355339059327378,0A3.5355339059327378,3.5355339059327378,0,1,1,3.5355339059327378,0" style="fill: #4c78a8; stroke-width: 2; opacity: 1;"></path><path transform="translate(57.499999999999964,21.008437805388805)" d="M3.5355339059327378,0A3.5355339059327378,3.5355339059327378,0,1,1,-3.5355339059327378,0A3.5355339059327378,3.5355339059327378,0,1,1,3.5355339059327378,0" style="fill: #4c78a8; stroke-width: 2; opacity: 1;"></path><path transform="translate(19.16666666666663,22.282955775740383)" d="M3.5355339059327378,0A3.5355339059327378,3.5355339059327378,0,1,1,-3.5355339059327378,0A3.5355339059327378,3.5355339059327378,0,1,1,3.5355339059327378,0" style="fill: #4c78a8; stroke-width: 2; opacity: 1;"></path></g><g class="mark-text role-mark child_layer_1_marks"><text text-anchor="middle" transform="translate(555.8333333333334,23.38792472280632)" style="font-family: sans-serif; font-size: 15px; fill: #4c78a8;">6.4</text><text text-anchor="middle" transform="translate(517.5,23.669950825430277)" style="font-family: sans-serif; font-size: 15px; fill: #4c78a8;">6.4</text><text text-anchor="middle" transform="translate(479.16666666666663,29.38205107804917)" style="font-family: sans-serif; font-size: 15px; fill: #4c78a8;">5.4</text><text text-anchor="middle" transform="translate(440.8333333333333,31.11950407670932)" style="font-family: sans-serif; font-size: 15px; fill: #4c78a8;">5.1</text><text text-anchor="middle" transform="translate(402.5,31.56994115792167)" style="font-family: sans-serif; font-size: 15px; fill: #4c78a8;">5.0</text><text text-anchor="middle" transform="translate(364.16666666666663,32.19626214167773)" style="font-family: sans-serif; font-size: 15px; fill: #4c78a8;">4.9</text><text text-anchor="middle" transform="translate(325.8333333333333,34.26131180467115)" style="font-family: sans-serif; font-size: 15px; fill: #4c78a8;">4.5</text><text text-anchor="middle" transform="translate(287.5,35.6866119329742)" style="font-family: sans-serif; font-size: 15px; fill: #4c78a8;">4.3</text><text text-anchor="middle" transform="translate(249.16666666666663,37.48175620709999)" style="font-family: sans-serif; font-size: 15px; fill: #4c78a8;">4.0</text><text text-anchor="middle" transform="translate(210.83333333333331,38.859547640712336)" style="font-family: sans-serif; font-size: 15px; fill: #4c78a8;">3.7</text><text text-anchor="middle" transform="translate(172.49999999999997,39.94432533605581)" style="font-family: sans-serif; font-size: 15px; fill: #4c78a8;">3.5</text><text text-anchor="middle" transform="translate(134.16666666666663,41.34435489801421)" style="font-family: sans-serif; font-size: 15px; fill: #4c78a8;">3.3</text><text text-anchor="middle" transform="translate(95.8333333333333,43.079030558482614)" style="font-family: sans-serif; font-size: 15px; fill: #4c78a8;">3.0</text><text text-anchor="middle" transform="translate(57.499999999999964,44.00843780538881)" style="font-family: sans-serif; font-size: 15px; fill: #4c78a8;">2.8</text><text text-anchor="middle" transform="translate(19.16666666666663,45.28295577574038)" style="font-family: sans-serif; font-size: 15px; fill: #4c78a8;">2.6</text></g></g><path class="foreground" d="" style="display: none; fill: none;"></path></g><g transform="translate(0,73)"><path class="background" d="M0.5,0.5h575v37h-575Z" style="fill: none; stroke: #ddd;"></path><g><g class="mark-group role-axis"><g transform="translate(0.5,0.5)"><path class="background" d="M0,0h0v0h0Z" style="pointer-events: none; fill: none;"></path><g><g class="mark-rule role-axis-grid" style="pointer-events: none;"><line transform="translate(0,37)" x2="575" y2="0" style="fill: none; stroke: #ddd; stroke-width: 1; opacity: 1;"></line><line transform="translate(0,9)" x2="575" y2="0" style="fill: none; stroke: #ddd; stroke-width: 1; opacity: 1;"></line></g></g><path class="foreground" d="" style="pointer-events: none; display: none; fill: none;"></path></g></g><g class="mark-group role-scope child_layer_0_layer_0_pathgroup"><g transform="translate(0,0)"><path class="background" d="M0,0h575v37h-575Z" style="fill: none;"></path><g><g class="mark-line role-mark child_layer_0_layer_0_marks"><path d="M19.16666666666663,24.346859064771614L57.499999999999964,23.172547398873796L95.8333333333333,21.96110738576492L134.16666666666663,20.947758845479477L172.49999999999997,20.28817195074864L210.83333333333331,19.202687523401423L249.16666666666663,17.556138969108254L287.5,16.272971641055506L325.8333333333333,15.615027456582885L364.16666666666663,15.315969410706254L402.5,15.36370425690814L440.8333333333333,15.242501655785787L479.16666666666663,13.462785622021288L517.5,10.145281273875105L555.8333333333334,10.528088173601313" style="fill: none; stroke: #f58518; stroke-width: 3;"></path></g></g><path class="foreground" d="" style="display: none; fill: none;"></path></g></g><g class="mark-symbol role-mark child_layer_0_layer_1_marks"><path transform="translate(555.8333333333334,10.528088173601313)" d="M3.5355339059327378,0A3.5355339059327378,3.5355339059327378,0,1,1,-3.5355339059327378,0A3.5355339059327378,3.5355339059327378,0,1,1,3.5355339059327378,0" style="fill: #f58518; stroke-width: 2; opacity: 1;"></path><path transform="translate(517.5,10.145281273875105)" d="M3.5355339059327378,0A3.5355339059327378,3.5355339059327378,0,1,1,-3.5355339059327378,0A3.5355339059327378,3.5355339059327378,0,1,1,3.5355339059327378,0" style="fill: #f58518; stroke-width: 2; opacity: 1;"></path><path transform="translate(479.16666666666663,13.462785622021288)" d="M3.5355339059327378,0A3.5355339059327378,3.5355339059327378,0,1,1,-3.5355339059327378,0A3.5355339059327378,3.5355339059327378,0,1,1,3.5355339059327378,0" style="fill: #f58518; stroke-width: 2; opacity: 1;"></path><path transform="translate(440.8333333333333,15.242501655785787)" d="M3.5355339059327378,0A3.5355339059327378,3.5355339059327378,0,1,1,-3.5355339059327378,0A3.5355339059327378,3.5355339059327378,0,1,1,3.5355339059327378,0" style="fill: #f58518; stroke-width: 2; opacity: 1;"></path><path transform="translate(402.5,15.36370425690814)" d="M3.5355339059327378,0A3.5355339059327378,3.5355339059327378,0,1,1,-3.5355339059327378,0A3.5355339059327378,3.5355339059327378,0,1,1,3.5355339059327378,0" style="fill: #f58518; stroke-width: 2; opacity: 1;"></path><path transform="translate(364.16666666666663,15.315969410706254)" d="M3.5355339059327378,0A3.5355339059327378,3.5355339059327378,0,1,1,-3.5355339059327378,0A3.5355339059327378,3.5355339059327378,0,1,1,3.5355339059327378,0" style="fill: #f58518; stroke-width: 2; opacity: 1;"></path><path transform="translate(325.8333333333333,15.615027456582885)" d="M3.5355339059327378,0A3.5355339059327378,3.5355339059327378,0,1,1,-3.5355339059327378,0A3.5355339059327378,3.5355339059327378,0,1,1,3.5355339059327378,0" style="fill: #f58518; stroke-width: 2; opacity: 1;"></path><path transform="translate(287.5,16.272971641055506)" d="M3.5355339059327378,0A3.5355339059327378,3.5355339059327378,0,1,1,-3.5355339059327378,0A3.5355339059327378,3.5355339059327378,0,1,1,3.5355339059327378,0" style="fill: #f58518; stroke-width: 2; opacity: 1;"></path><path transform="translate(249.16666666666663,17.556138969108254)" d="M3.5355339059327378,0A3.5355339059327378,3.5355339059327378,0,1,1,-3.5355339059327378,0A3.5355339059327378,3.5355339059327378,0,1,1,3.5355339059327378,0" style="fill: #f58518; stroke-width: 2; opacity: 1;"></path><path transform="translate(210.83333333333331,19.202687523401423)" d="M3.5355339059327378,0A3.5355339059327378,3.5355339059327378,0,1,1,-3.5355339059327378,0A3.5355339059327378,3.5355339059327378,0,1,1,3.5355339059327378,0" style="fill: #f58518; stroke-width: 2; opacity: 1;"></path><path transform="translate(172.49999999999997,20.28817195074864)" d="M3.5355339059327378,0A3.5355339059327378,3.5355339059327378,0,1,1,-3.5355339059327378,0A3.5355339059327378,3.5355339059327378,0,1,1,3.5355339059327378,0" style="fill: #f58518; stroke-width: 2; opacity: 1;"></path><path transform="translate(134.16666666666663,20.947758845479477)" d="M3.5355339059327378,0A3.5355339059327378,3.5355339059327378,0,1,1,-3.5355339059327378,0A3.5355339059327378,3.5355339059327378,0,1,1,3.5355339059327378,0" style="fill: #f58518; stroke-width: 2; opacity: 1;"></path><path transform="translate(95.8333333333333,21.96110738576492)" d="M3.5355339059327378,0A3.5355339059327378,3.5355339059327378,0,1,1,-3.5355339059327378,0A3.5355339059327378,3.5355339059327378,0,1,1,3.5355339059327378,0" style="fill: #f58518; stroke-width: 2; opacity: 1;"></path><path transform="translate(57.499999999999964,23.172547398873796)" d="M3.5355339059327378,0A3.5355339059327378,3.5355339059327378,0,1,1,-3.5355339059327378,0A3.5355339059327378,3.5355339059327378,0,1,1,3.5355339059327378,0" style="fill: #f58518; stroke-width: 2; opacity: 1;"></path><path transform="translate(19.16666666666663,24.346859064771614)" d="M3.5355339059327378,0A3.5355339059327378,3.5355339059327378,0,1,1,-3.5355339059327378,0A3.5355339059327378,3.5355339059327378,0,1,1,3.5355339059327378,0" style="fill: #f58518; stroke-width: 2; opacity: 1;"></path></g><g class="mark-text role-mark child_layer_1_marks"><text text-anchor="middle" transform="translate(555.8333333333334,33.52808817360131)" style="font-family: sans-serif; font-size: 15px; fill: #f58518;">4.7</text><text text-anchor="middle" transform="translate(517.5,33.145281273875106)" style="font-family: sans-serif; font-size: 15px; fill: #f58518;">4.7</text><text text-anchor="middle" transform="translate(479.16666666666663,36.462785622021286)" style="font-family: sans-serif; font-size: 15px; fill: #f58518;">4.1</text><text text-anchor="middle" transform="translate(440.8333333333333,38.24250165578579)" style="font-family: sans-serif; font-size: 15px; fill: #f58518;">3.8</text><text text-anchor="middle" transform="translate(402.5,38.363704256908136)" style="font-family: sans-serif; font-size: 15px; fill: #f58518;">3.8</text><text text-anchor="middle" transform="translate(364.16666666666663,38.31596941070625)" style="font-family: sans-serif; font-size: 15px; fill: #f58518;">3.8</text><text text-anchor="middle" transform="translate(325.8333333333333,38.61502745658289)" style="font-family: sans-serif; font-size: 15px; fill: #f58518;">3.8</text><text text-anchor="middle" transform="translate(287.5,39.272971641055506)" style="font-family: sans-serif; font-size: 15px; fill: #f58518;">3.6</text><text text-anchor="middle" transform="translate(249.16666666666663,40.556138969108254)" style="font-family: sans-serif; font-size: 15px; fill: #f58518;">3.4</text><text text-anchor="middle" transform="translate(210.83333333333331,42.20268752340142)" style="font-family: sans-serif; font-size: 15px; fill: #f58518;">3.1</text><text text-anchor="middle" transform="translate(172.49999999999997,43.28817195074864)" style="font-family: sans-serif; font-size: 15px; fill: #f58518;">2.9</text><text text-anchor="middle" transform="translate(134.16666666666663,43.94775884547948)" style="font-family: sans-serif; font-size: 15px; fill: #f58518;">2.8</text><text text-anchor="middle" transform="translate(95.8333333333333,44.96110738576492)" style="font-family: sans-serif; font-size: 15px; fill: #f58518;">2.6</text><text text-anchor="middle" transform="translate(57.499999999999964,46.172547398873796)" style="font-family: sans-serif; font-size: 15px; fill: #f58518;">2.4</text><text text-anchor="middle" transform="translate(19.16666666666663,47.346859064771614)" style="font-family: sans-serif; font-size: 15px; fill: #f58518;">2.2</text></g></g><path class="foreground" d="" style="display: none; fill: none;"></path></g></g></g><path class="foreground" d="" style="display: none; fill: none;"></path></g></g></g></svg>