<svg class="marks" width="634" height="220" viewBox="0 0 634 220" version="1.1" xmlns="http://www.w3.org/2000/svg" xmlns:xlink="http://www.w3.org/1999/xlink"><rect width="634" height="220" style="fill: white;"></rect><g transform="translate(53,13)"><g class="mark-group role-frame root"><g transform="translate(0,0)"><path class="background" d="M0,0h0v0h0Z" style="fill: none;"></path><g><g class="mark-group role-row-header row_header"><g transform="translate(-1,0)"><path class="background" d="M0,0h0v37h0Z" style="fill: none;"></path><g><g class="mark-group role-axis"><g transform="translate(0.5,0.5)"><path class="background" d="M0,0h0v0h0Z" style="pointer-events: none; fill: none;"></path><g><g class="mark-rule role-axis-tick" style="pointer-events: none;"><line transform="translate(0,37)" x2="-5" y2="0" style="fill: none; stroke: #888; stroke-width: 1; opacity: 1;"></line><line transform="translate(0,3)" x2="-5" y2="0" style="fill: none; stroke: #888; stroke-width: 1; opacity: 1;"></line></g><g class="mark-text role-axis-label" style="pointer-events: none;"><text text-anchor="end" transform="translate(-7,41)" style="font-family: sans-serif; font-size: 14px; fill: #000; opacity: 1;">0</text><text text-anchor="end" transform="translate(-7,7.363636363636365)" style="font-family: sans-serif; font-size: 14px; fill: #000; opacity: 1;">10</text></g><g class="mark-rule role-axis-domain" style="pointer-events: none;"><line transform="translate(0,37)" x2="0" y2="-37" style="fill: none; stroke: #888; stroke-width: 1; opacity: 1;"></line></g></g><path class="foreground" d="" style="pointer-events: none; display: none; fill: none;"></path></g></g><g class="mark-group role-title"><g transform="translate(-46.572265625,18.5)"><path class="background" d="M0,0h0v0h0Z" style="pointer-events: none; fill: none;"></path><g><g class="mark-text role-title-text" style="pointer-events: none;"><text text-anchor="middle" transform="translate(0,0) rotate(-90) translate(0,11)" style="font-family: sans-serif; font-size: 14px; fill: #000; opacity: 1;">Pruebas</text></g></g><path class="foreground" d="" style="pointer-events: none; display: none; fill: none;"></path></g></g></g><path class="foreground" d="" style="display: none; fill: none;"></path></g><g transform="translate(-1,78)"><path class="background" d="M0,0h0v37h0Z" style="fill: none;"></path><g><g class="mark-group role-axis"><g transform="translate(0.5,0.5)"><path class="background" d="M0,0h0v0h0Z" style="pointer-events: none; fill: none;"></path><g><g class="mark-rule role-axis-tick" style="pointer-events: none;"><line transform="translate(0,37)" x2="-5" y2="0" style="fill: none; stroke: #888; stroke-width: 1; opacity: 1;"></line><line transform="translate(0,3)" x2="-5" y2="0" style="fill: none; stroke: #888; stroke-width: 1; opacity: 1;"></line></g><g class="mark-text role-axis-label" style="pointer-events: none;"><text text-anchor="end" transform="translate(-7,41)" style="font-family: sans-serif; font-size: 14px; fill: #000; opacity: 1;">0</text><text text-anchor="end" transform="translate(-7,7.363636363636365)" style="font-family: sans-serif; font-size: 14px; fill: #000; opacity: 1;">10</text></g><g class="mark-rule role-axis-domain" style="pointer-events: none;"><line transform="translate(0,37)" x2="0" y2="-37" style="fill: none; stroke: #888; stroke-width: 1; opacity: 1;"></line></g></g><path class="foreground" d="" style="pointer-events: none; display: none; fill: none;"></path></g></g><g class="mark-group role-title"><g transform="translate(-46.572265625,18.5)"><path class="background" d="M0,0h0v0h0Z" style="pointer-events: none; fill: none;"></path><g><g class="mark-text role-title-text" style="pointer-events: none;"><text text-anchor="middle" transform="translate(0,0) rotate(-90) translate(0,11)" style="font-family: sans-serif; font-size: 14px; fill: #000; opacity: 1;">Positivas</text></g></g><path class="foreground" d="" style="pointer-events: none; display: none; fill: none;"></path></g></g></g><path class="foreground" d="" style="display: none; fill: none;"></path></g></g><g class="mark-group role-column-footer column_footer"><g transform="translate(0,135)"><path class="background" d="M0,0h575v0h-575Z" style="fill: none;"></path><g><g class="mark-group role-axis"><g transform="translate(0.5,0.5)"><path class="background" d="M0,0h0v0h0Z" style="pointer-events: none; fill: none;"></path><g><g class="mark-rule role-axis-tick" style="pointer-events: none;"><line transform="translate(19,0)" x2="0" y2="5" style="fill: none; stroke: #888; stroke-width: 1; opacity: 1;"></line><line transform="translate(57,0)" x2="0" y2="5" style="fill: none; stroke: #888; stroke-width: 1; opacity: 1;"></line><line transform="translate(96,0)" x2="0" y2="5" style="fill: none; stroke: #888; stroke-width: 1; opacity: 1;"></line><line transform="translate(134,0)" x2="0" y2="5" style="fill: none; stroke: #888; stroke-width: 1; opacity: 1;"></line><line transform="translate(172,0)" x2="0" y2="5" style="fill: none; stroke: #888; stroke-width: 1; opacity: 1;"></line><line transform="translate(211,0)" x2="0" y2="5" style="fill: none; stroke: #888; stroke-width: 1; opacity: 1;"></line><line transform="translate(249,0)" x2="0" y2="5" style="fill: none; stroke: #888; stroke-width: 1; opacity: 1;"></line><line transform="translate(288,0)" x2="0" y2="5" style="fill: none; stroke: #888; stroke-width: 1; opacity: 1;"></line><line transform="translate(326,0)" x2="0" y2="5" style="fill: none; stroke: #888; stroke-width: 1; opacity: 1;"></line><line transform="translate(364,0)" x2="0" y2="5" style="fill: none; stroke: #888; stroke-width: 1; opacity: 1;"></line><line transform="translate(403,0)" x2="0" y2="5" style="fill: none; stroke: #888; stroke-width: 1; opacity: 1;"></line><line transform="translate(441,0)" x2="0" y2="5" style="fill: none; stroke: #888; stroke-width: 1; opacity: 1;"></line><line transform="translate(479,0)" x2="0" y2="5" style="fill: none; stroke: #888; stroke-width: 1; opacity: 1;"></line><line transform="translate(518,0)" x2="0" y2="5" style="fill: none; stroke: #888; stroke-width: 1; opacity: 1;"></line><line transform="translate(556,0)" x2="0" y2="5" style="fill: none; stroke: #888; stroke-width: 1; opacity: 1;"></line></g><g class="mark-text role-axis-label" style="pointer-events: none;"><text text-anchor="end" transform="translate(19.16666666666663,7) rotate(270) translate(0,4)" style="font-family: sans-serif; font-size: 14px; fill: #000; opacity: 1;">15/07</text><text text-anchor="end" transform="translate(57.499999999999964,7) rotate(270) translate(0,4)" style="font-family: sans-serif; font-size: 14px; fill: #000; opacity: 1;">16/07</text><text text-anchor="end" transform="translate(95.8333333333333,7) rotate(270) translate(0,4)" style="font-family: sans-serif; font-size: 14px; fill: #000; opacity: 1;">17/07</text><text text-anchor="end" transform="translate(134.16666666666663,7) rotate(270) translate(0,4)" style="font-family: sans-serif; font-size: 14px; fill: #000; opacity: 1;">18/07</text><text text-anchor="end" transform="translate(172.49999999999997,7) rotate(270) translate(0,4)" style="font-family: sans-serif; font-size: 14px; fill: #000; opacity: 1;">19/07</text><text text-anchor="end" transform="translate(210.83333333333331,7) rotate(270) translate(0,4)" style="font-family: sans-serif; font-size: 14px; fill: #000; opacity: 1;">20/07</text><text text-anchor="end" transform="translate(249.16666666666663,7) rotate(270) translate(0,4)" style="font-family: sans-serif; font-size: 14px; fill: #000; opacity: 1;">21/07</text><text text-anchor="end" transform="translate(287.5,7) rotate(270) translate(0,4)" style="font-family: sans-serif; font-size: 14px; fill: #000; opacity: 1;">22/07</text><text text-anchor="end" transform="translate(325.8333333333333,7) rotate(270) translate(0,4)" style="font-family: sans-serif; font-size: 14px; fill: #000; opacity: 1;">23/07</text><text text-anchor="end" transform="translate(364.16666666666663,7) rotate(270) translate(0,4)" style="font-family: sans-serif; font-size: 14px; fill: #000; opacity: 1;">24/07</text><text text-anchor="end" transform="translate(402.5,7) rotate(270) translate(0,4)" style="font-family: sans-serif; font-size: 14px; fill: #000; opacity: 1;">25/07</text><text text-anchor="end" transform="translate(440.8333333333333,7) rotate(270) translate(0,4)" style="font-family: sans-serif; font-size: 14px; fill: #000; opacity: 1;">26/07</text><text text-anchor="end" transform="translate(479.16666666666663,7) rotate(270) translate(0,4)" style="font-family: sans-serif; font-size: 14px; fill: #000; opacity: 1;">27/07</text><text text-anchor="end" transform="translate(517.5,7) rotate(270) translate(0,4)" style="font-family: sans-serif; font-size: 14px; fill: #000; opacity: 1;">28/07</text><text text-anchor="end" transform="translate(555.8333333333334,7) rotate(270) translate(0,4)" style="font-family: sans-serif; font-size: 14px; fill: #000; opacity: 1;">29/07</text></g><g class="mark-rule role-axis-domain" style="pointer-events: none;"><line transform="translate(0,0)" x2="575" y2="0" style="fill: none; stroke: #888; stroke-width: 1; opacity: 1;"></line></g><g class="mark-text role-axis-title" style="pointer-events: none;"><text text-anchor="middle" transform="translate(287.5,63.03417968750001)" style="font-family: sans-serif; font-size: 14px; font-weight: bold; fill: #000; opacity: 1;">Fecha de récord</text></g></g><path class="foreground" d="" style="pointer-events: none; display: none; fill: none;"></path></g></g></g><path class="foreground" d="" style="display: none; fill: none;"></path></g></g><g class="mark-group role-scope cell"><g transform="translate(0,0)"><path class="background" d="M0.5,0.5h575v37h-575Z" style="fill: none; stroke: #ddd;"></path><g><g class="mark-group role-axis"><g transform="translate(0.5,0.5)"><path class="background" d="M0,0h0v0h0Z" style="pointer-events: none; fill: none;"></path><g><g class="mark-rule role-axis-grid" style="pointer-events: none;"><line transform="translate(0,37)" x2="575" y2="0" style="fill: none; stroke: #ddd; stroke-width: 1; opacity: 1;"></line><line transform="translate(0,3)" x2="575" y2="0" style="fill: none; stroke: #ddd; stroke-width: 1; opacity: 1;"></line></g></g><path class="foreground" d="" style="pointer-events: none; display: none; fill: none;"></path></g></g><g class="mark-group role-scope child_layer_0_layer_0_pathgroup"><g transform="translate(0,0)"><path class="background" d="M0,0h575v37h-575Z" style="fill: none;"></path><g><g class="mark-line role-mark child_layer_0_layer_0_marks"><path d="M19.16666666666663,23.2227430759014L57.499999999999964,21.206410987430893L95.8333333333333,20.306339270841274L134.16666666666663,19.702602519395565L172.49999999999997,19.563420796618118L210.83333333333331,19.390686750594025L249.16666666666663,16.655153621608775L287.5,15.235018054438584L325.8333333333333,14.10315515532558L364.16666666666663,11.619062711753262L402.5,10.804809480840584L440.8333333333333,10.498730116736663L479.16666666666663,6.858896018791173L517.5,5.82864144674309L555.8333333333334,2.928786966595517" style="fill: none; stroke: #4c78a8; stroke-width: 3;"></path></g></g><path class="foreground" d="" style="display: none; fill: none;"></path></g></g><g class="mark-symbol role-mark child_layer_0_layer_1_marks"><path transform="translate(555.8333333333334,2.928786966595517)" d="M3.5355339059327378,0A3.5355339059327378,3.5355339059327378,0,1,1,-3.5355339059327378,0A3.5355339059327378,3.5355339059327378,0,1,1,3.5355339059327378,0" style="fill: #4c78a8; stroke-width: 2; opacity: 1;"></path><path transform="translate(517.5,5.82864144674309)" d="M3.5355339059327378,0A3.5355339059327378,3.5355339059327378,0,1,1,-3.5355339059327378,0A3.5355339059327378,3.5355339059327378,0,1,1,3.5355339059327378,0" style="fill: #4c78a8; stroke-width: 2; opacity: 1;"></path><path transform="translate(479.16666666666663,6.858896018791173)" d="M3.5355339059327378,0A3.5355339059327378,3.5355339059327378,0,1,1,-3.5355339059327378,0A3.5355339059327378,3.5355339059327378,0,1,1,3.5355339059327378,0" style="fill: #4c78a8; stroke-width: 2; opacity: 1;"></path><path transform="translate(440.8333333333333,10.498730116736663)" d="M3.5355339059327378,0A3.5355339059327378,3.5355339059327378,0,1,1,-3.5355339059327378,0A3.5355339059327378,3.5355339059327378,0,1,1,3.5355339059327378,0" style="fill: #4c78a8; stroke-width: 2; opacity: 1;"></path><path transform="translate(402.5,10.804809480840584)" d="M3.5355339059327378,0A3.5355339059327378,3.5355339059327378,0,1,1,-3.5355339059327378,0A3.5355339059327378,3.5355339059327378,0,1,1,3.5355339059327378,0" style="fill: #4c78a8; stroke-width: 2; opacity: 1;"></path><path transform="translate(364.16666666666663,11.619062711753262)" d="M3.5355339059327378,0A3.5355339059327378,3.5355339059327378,0,1,1,-3.5355339059327378,0A3.5355339059327378,3.5355339059327378,0,1,1,3.5355339059327378,0" style="fill: #4c78a8; stroke-width: 2; opacity: 1;"></path><path transform="translate(325.8333333333333,14.10315515532558)" d="M3.5355339059327378,0A3.5355339059327378,3.5355339059327378,0,1,1,-3.5355339059327378,0A3.5355339059327378,3.5355339059327378,0,1,1,3.5355339059327378,0" style="fill: #4c78a8; stroke-width: 2; opacity: 1;"></path><path transform="translate(287.5,15.235018054438584)" d="M3.5355339059327378,0A3.5355339059327378,3.5355339059327378,0,1,1,-3.5355339059327378,0A3.5355339059327378,3.5355339059327378,0,1,1,3.5355339059327378,0" style="fill: #4c78a8; stroke-width: 2; opacity: 1;"></path><path transform="translate(249.16666666666663,16.655153621608775)" d="M3.5355339059327378,0A3.5355339059327378,3.5355339059327378,0,1,1,-3.5355339059327378,0A3.5355339059327378,3.5355339059327378,0,1,1,3.5355339059327378,0" style="fill: #4c78a8; stroke-width: 2; opacity: 1;"></path><path transform="translate(210.83333333333331,19.390686750594025)" d="M3.5355339059327378,0A3.5355339059327378,3.5355339059327378,0,1,1,-3.5355339059327378,0A3.5355339059327378,3.5355339059327378,0,1,1,3.5355339059327378,0" style="fill: #4c78a8; stroke-width: 2; opacity: 1;"></path><path transform="translate(172.49999999999997,19.563420796618118)" d="M3.5355339059327378,0A3.5355339059327378,3.5355339059327378,0,1,1,-3.5355339059327378,0A3.5355339059327378,3.5355339059327378,0,1,1,3.5355339059327378,0" style="fill: #4c78a8; stroke-width: 2; opacity: 1;"></path><path transform="translate(134.16666666666663,19.702602519395565)" d="M3.5355339059327378,0A3.5355339059327378,3.5355339059327378,0,1,1,-3.5355339059327378,0A3.5355339059327378,3.5355339059327378,0,1,1,3.5355339059327378,0" style="fill: #4c78a8; stroke-width: 2; opacity: 1;"></path><path transform="translate(95.8333333333333,20.306339270841274)" d="M3.5355339059327378,0A3.5355339059327378,3.5355339059327378,0,1,1,-3.5355339059327378,0A3.5355339059327378,3.5355339059327378,0,1,1,3.5355339059327378,0" style="fill: #4c78a8; stroke-width: 2; opacity: 1;"></path><path transform="translate(57.499999999999964,21.206410987430893)" d="M3.5355339059327378,0A3.5355339059327378,3.5355339059327378,0,1,1,-3.5355339059327378,0A3.5355339059327378,3.5355339059327378,0,1,1,3.5355339059327378,0" style="fill: #4c78a8; stroke-width: 2; opacity: 1;"></path><path transform="translate(19.16666666666663,23.2227430759014)" d="M3.5355339059327378,0A3.5355339059327378,3.5355339059327378,0,1,1,-3.5355339059327378,0A3.5355339059327378,3.5355339059327378,0,1,1,3.5355339059327378,0" style="fill: #4c78a8; stroke-width: 2; opacity: 1;"></path></g><g class="mark-text role-mark child_layer_1_marks"><text text-anchor="middle" transform="translate(555.8333333333334,25.928786966595517)" style="font-family: sans-serif; font-size: 15px; fill: #4c78a8;">10.1</text><text text-anchor="middle" transform="translate(517.5,28.82864144674309)" style="font-family: sans-serif; font-size: 15px; fill: #4c78a8;">9.3</text><text text-anchor="middle" transform="translate(479.16666666666663,29.85889601879117)" style="font-family: sans-serif; font-size: 15px; fill: #4c78a8;">9.0</text><text text-anchor="middle" transform="translate(440.8333333333333,33.49873011673667)" style="font-family: sans-serif; font-size: 15px; fill: #4c78a8;">7.9</text><text text-anchor="middle" transform="translate(402.5,33.80480948084058)" style="font-family: sans-serif; font-size: 15px; fill: #4c78a8;">7.8</text><text text-anchor="middle" transform="translate(364.16666666666663,34.61906271175326)" style="font-family: sans-serif; font-size: 15px; fill: #4c78a8;">7.5</text><text text-anchor="middle" transform="translate(325.8333333333333,37.10315515532558)" style="font-family: sans-serif; font-size: 15px; fill: #4c78a8;">6.8</text><text text-anchor="middle" transform="translate(287.5,38.235018054438584)" style="font-family: sans-serif; font-size: 15px; fill: #4c78a8;">6.5</text><text text-anchor="middle" transform="translate(249.16666666666663,39.655153621608775)" style="font-family: sans-serif; font-size: 15px; fill: #4c78a8;">6.0</text><text text-anchor="middle" transform="translate(210.83333333333331,42.39068675059403)" style="font-family: sans-serif; font-size: 15px; fill: #4c78a8;">5.2</text><text text-anchor="middle" transform="translate(172.49999999999997,42.56342079661812)" style="font-family: sans-serif; font-size: 15px; fill: #4c78a8;">5.2</text><text text-anchor="middle" transform="translate(134.16666666666663,42.70260251939557)" style="font-family: sans-serif; font-size: 15px; fill: #4c78a8;">5.1</text><text text-anchor="middle" transform="translate(95.8333333333333,43.30633927084128)" style="font-family: sans-serif; font-size: 15px; fill: #4c78a8;">5.0</text><text text-anchor="middle" transform="translate(57.499999999999964,44.20641098743089)" style="font-family: sans-serif; font-size: 15px; fill: #4c78a8;">4.7</text><text text-anchor="middle" transform="translate(19.16666666666663,46.2227430759014)" style="font-family: sans-serif; font-size: 15px; fill: #4c78a8;">4.1</text></g></g><path class="foreground" d="" style="display: none; fill: none;"></path></g><g transform="translate(0,78)"><path class="background" d="M0.5,0.5h575v37h-575Z" style="fill: none; stroke: #ddd;"></path><g><g class="mark-group role-axis"><g transform="translate(0.5,0.5)"><path class="background" d="M0,0h0v0h0Z" style="pointer-events: none; fill: none;"></path><g><g class="mark-rule role-axis-grid" style="pointer-events: none;"><line transform="translate(0,37)" x2="575" y2="0" style="fill: none; stroke: #ddd; stroke-width: 1; opacity: 1;"></line><line transform="translate(0,3)" x2="575" y2="0" style="fill: none; stroke: #ddd; stroke-width: 1; opacity: 1;"></line></g></g><path class="foreground" d="" style="pointer-events: none; display: none; fill: none;"></path></g></g><g class="mark-group role-scope child_layer_0_layer_0_pathgroup"><g transform="translate(0,0)"><path class="background" d="M0,0h575v37h-575Z" style="fill: none;"></path><g><g class="mark-line role-mark child_layer_0_layer_0_marks"><path d="M19.16666666666663,29.6L57.499999999999964,27.84497871274731L95.8333333333333,26.16920804094339L134.16666666666663,26.13239669421488L172.49999999999997,26.116174148432215L210.83333333333331,24.592803030303028L249.16666666666663,23.388123167155424L287.5,22.270165820338832L325.8333333333333,22.338502673796793L364.16666666666663,23.008724381807856L402.5,21.85904374162157L440.8333333333333,21.63727373849732L479.16666666666663,20.927102206117446L517.5,21.194575179588803L555.8333333333334,18.17547320714476" style="fill: none; stroke: #f58518; stroke-width: 3;"></path></g></g><path class="foreground" d="" style="display: none; fill: none;"></path></g></g><g class="mark-symbol role-mark child_layer_0_layer_1_marks"><path transform="translate(555.8333333333334,18.17547320714476)" d="M3.5355339059327378,0A3.5355339059327378,3.5355339059327378,0,1,1,-3.5355339059327378,0A3.5355339059327378,3.5355339059327378,0,1,1,3.5355339059327378,0" style="fill: #f58518; stroke-width: 2; opacity: 1;"></path><path transform="translate(517.5,21.194575179588803)" d="M3.5355339059327378,0A3.5355339059327378,3.5355339059327378,0,1,1,-3.5355339059327378,0A3.5355339059327378,3.5355339059327378,0,1,1,3.5355339059327378,0" style="fill: #f58518; stroke-width: 2; opacity: 1;"></path><path transform="translate(479.16666666666663,20.927102206117446)" d="M3.5355339059327378,0A3.5355339059327378,3.5355339059327378,0,1,1,-3.5355339059327378,0A3.5355339059327378,3.5355339059327378,0,1,1,3.5355339059327378,0" style="fill: #f58518; stroke-width: 2; opacity: 1;"></path><path transform="translate(440.8333333333333,21.63727373849732)" d="M3.5355339059327378,0A3.5355339059327378,3.5355339059327378,0,1,1,-3.5355339059327378,0A3.5355339059327378,3.5355339059327378,0,1,1,3.5355339059327378,0" style="fill: #f58518; stroke-width: 2; opacity: 1;"></path><path transform="translate(402.5,21.85904374162157)" d="M3.5355339059327378,0A3.5355339059327378,3.5355339059327378,0,1,1,-3.5355339059327378,0A3.5355339059327378,3.5355339059327378,0,1,1,3.5355339059327378,0" style="fill: #f58518; stroke-width: 2; opacity: 1;"></path><path transform="translate(364.16666666666663,23.008724381807856)" d="M3.5355339059327378,0A3.5355339059327378,3.5355339059327378,0,1,1,-3.5355339059327378,0A3.5355339059327378,3.5355339059327378,0,1,1,3.5355339059327378,0" style="fill: #f58518; stroke-width: 2; opacity: 1;"></path><path transform="translate(325.8333333333333,22.338502673796793)" d="M3.5355339059327378,0A3.5355339059327378,3.5355339059327378,0,1,1,-3.5355339059327378,0A3.5355339059327378,3.5355339059327378,0,1,1,3.5355339059327378,0" style="fill: #f58518; stroke-width: 2; opacity: 1;"></path><path transform="translate(287.5,22.270165820338832)" d="M3.5355339059327378,0A3.5355339059327378,3.5355339059327378,0,1,1,-3.5355339059327378,0A3.5355339059327378,3.5355339059327378,0,1,1,3.5355339059327378,0" style="fill: #f58518; stroke-width: 2; opacity: 1;"></path><path transform="translate(249.16666666666663,23.388123167155424)" d="M3.5355339059327378,0A3.5355339059327378,3.5355339059327378,0,1,1,-3.5355339059327378,0A3.5355339059327378,3.5355339059327378,0,1,1,3.5355339059327378,0" style="fill: #f58518; stroke-width: 2; opacity: 1;"></path><path transform="translate(210.83333333333331,24.592803030303028)" d="M3.5355339059327378,0A3.5355339059327378,3.5355339059327378,0,1,1,-3.5355339059327378,0A3.5355339059327378,3.5355339059327378,0,1,1,3.5355339059327378,0" style="fill: #f58518; stroke-width: 2; opacity: 1;"></path><path transform="translate(172.49999999999997,26.116174148432215)" d="M3.5355339059327378,0A3.5355339059327378,3.5355339059327378,0,1,1,-3.5355339059327378,0A3.5355339059327378,3.5355339059327378,0,1,1,3.5355339059327378,0" style="fill: #f58518; stroke-width: 2; opacity: 1;"></path><path transform="translate(134.16666666666663,26.13239669421488)" d="M3.5355339059327378,0A3.5355339059327378,3.5355339059327378,0,1,1,-3.5355339059327378,0A3.5355339059327378,3.5355339059327378,0,1,1,3.5355339059327378,0" style="fill: #f58518; stroke-width: 2; opacity: 1;"></path><path transform="translate(95.8333333333333,26.16920804094339)" d="M3.5355339059327378,0A3.5355339059327378,3.5355339059327378,0,1,1,-3.5355339059327378,0A3.5355339059327378,3.5355339059327378,0,1,1,3.5355339059327378,0" style="fill: #f58518; stroke-width: 2; opacity: 1;"></path><path transform="translate(57.499999999999964,27.84497871274731)" d="M3.5355339059327378,0A3.5355339059327378,3.5355339059327378,0,1,1,-3.5355339059327378,0A3.5355339059327378,3.5355339059327378,0,1,1,3.5355339059327378,0" style="fill: #f58518; stroke-width: 2; opacity: 1;"></path><path transform="translate(19.16666666666663,29.6)" d="M3.5355339059327378,0A3.5355339059327378,3.5355339059327378,0,1,1,-3.5355339059327378,0A3.5355339059327378,3.5355339059327378,0,1,1,3.5355339059327378,0" style="fill: #f58518; stroke-width: 2; opacity: 1;"></path></g><g class="mark-text role-mark child_layer_1_marks"><text text-anchor="middle" transform="translate(555.8333333333334,41.17547320714476)" style="font-family: sans-serif; font-size: 15px; fill: #f58518;">5.6</text><text text-anchor="middle" transform="translate(517.5,44.1945751795888)" style="font-family: sans-serif; font-size: 15px; fill: #f58518;">4.7</text><text text-anchor="middle" transform="translate(479.16666666666663,43.927102206117446)" style="font-family: sans-serif; font-size: 15px; fill: #f58518;">4.8</text><text text-anchor="middle" transform="translate(440.8333333333333,44.63727373849732)" style="font-family: sans-serif; font-size: 15px; fill: #f58518;">4.6</text><text text-anchor="middle" transform="translate(402.5,44.85904374162157)" style="font-family: sans-serif; font-size: 15px; fill: #f58518;">4.5</text><text text-anchor="middle" transform="translate(364.16666666666663,46.00872438180785)" style="font-family: sans-serif; font-size: 15px; fill: #f58518;">4.2</text><text text-anchor="middle" transform="translate(325.8333333333333,45.338502673796796)" style="font-family: sans-serif; font-size: 15px; fill: #f58518;">4.4</text><text text-anchor="middle" transform="translate(287.5,45.27016582033883)" style="font-family: sans-serif; font-size: 15px; fill: #f58518;">4.4</text><text text-anchor="middle" transform="translate(249.16666666666663,46.38812316715543)" style="font-family: sans-serif; font-size: 15px; fill: #f58518;">4.0</text><text text-anchor="middle" transform="translate(210.83333333333331,47.59280303030303)" style="font-family: sans-serif; font-size: 15px; fill: #f58518;">3.7</text><text text-anchor="middle" transform="translate(172.49999999999997,49.116174148432215)" style="font-family: sans-serif; font-size: 15px; fill: #f58518;">3.2</text><text text-anchor="middle" transform="translate(134.16666666666663,49.132396694214876)" style="font-family: sans-serif; font-size: 15px; fill: #f58518;">3.2</text><text text-anchor="middle" transform="translate(95.8333333333333,49.16920804094339)" style="font-family: sans-serif; font-size: 15px; fill: #f58518;">3.2</text><text text-anchor="middle" transform="translate(57.499999999999964,50.844978712747306)" style="font-family: sans-serif; font-size: 15px; fill: #f58518;">2.7</text><text text-anchor="middle" transform="translate(19.16666666666663,52.6)" style="font-family: sans-serif; font-size: 15px; fill: #f58518;">2.2</text></g></g><path class="foreground" d="" style="display: none; fill: none;"></path></g></g></g><path class="foreground" d="" style="display: none; fill: none;"></path></g></g></g></svg>