<svg class="marks" width="643" height="306" viewBox="0 0 643 306" version="1.1" xmlns="http://www.w3.org/2000/svg" xmlns:xlink="http://www.w3.org/1999/xlink"><rect width="643" height="306" style="fill: white;"></rect><g transform="translate(50,12)"><g class="mark-group role-frame root"><g transform="translate(0,0)"><path class="background" d="M0.5,0.5h585v250h-585Z" style="fill: none; stroke: #ddd;"></path><g><g class="mark-group role-axis"><g transform="translate(0.5,250.5)"><path class="background" d="M0,0h0v0h0Z" style="pointer-events: none; fill: none;"></path><g><g class="mark-rule role-axis-grid" style="pointer-events: none;"><line transform="translate(16,-250)" x2="0" y2="250" style="fill: none; stroke: #ddd; stroke-width: 1; opacity: 1;"></line><line transform="translate(53,-250)" x2="0" y2="250" style="fill: none; stroke: #ddd; stroke-width: 1; opacity: 1;"></line><line transform="translate(90,-250)" x2="0" y2="250" style="fill: none; stroke: #ddd; stroke-width: 1; opacity: 1;"></line><line transform="translate(126,-250)" x2="0" y2="250" style="fill: none; stroke: #ddd; stroke-width: 1; opacity: 1;"></line><line transform="translate(163,-250)" x2="0" y2="250" style="fill: none; stroke: #ddd; stroke-width: 1; opacity: 1;"></line><line transform="translate(200,-250)" x2="0" y2="250" style="fill: none; stroke: #ddd; stroke-width: 1; opacity: 1;"></line><line transform="translate(237,-250)" x2="0" y2="250" style="fill: none; stroke: #ddd; stroke-width: 1; opacity: 1;"></line><line transform="translate(274,-250)" x2="0" y2="250" style="fill: none; stroke: #ddd; stroke-width: 1; opacity: 1;"></line><line transform="translate(311,-250)" x2="0" y2="250" style="fill: none; stroke: #ddd; stroke-width: 1; opacity: 1;"></line><line transform="translate(348,-250)" x2="0" y2="250" style="fill: none; stroke: #ddd; stroke-width: 1; opacity: 1;"></line><line transform="translate(385,-250)" x2="0" y2="250" style="fill: none; stroke: #ddd; stroke-width: 1; opacity: 1;"></line><line transform="translate(422,-250)" x2="0" y2="250" style="fill: none; stroke: #ddd; stroke-width: 1; opacity: 1;"></line><line transform="translate(459,-250)" x2="0" y2="250" style="fill: none; stroke: #ddd; stroke-width: 1; opacity: 1;"></line><line transform="translate(495,-250)" x2="0" y2="250" style="fill: none; stroke: #ddd; stroke-width: 1; opacity: 1;"></line><line transform="translate(532,-250)" x2="0" y2="250" style="fill: none; stroke: #ddd; stroke-width: 1; opacity: 1;"></line><line transform="translate(569,-250)" x2="0" y2="250" style="fill: none; stroke: #ddd; stroke-width: 1; opacity: 1;"></line></g></g><path class="foreground" d="" style="pointer-events: none; display: none; fill: none;"></path></g></g><g class="mark-group role-axis"><g transform="translate(0.5,0.5)"><path class="background" d="M0,0h0v0h0Z" style="pointer-events: none; fill: none;"></path><g><g class="mark-rule role-axis-grid" style="pointer-events: none;"><line transform="translate(0,250)" x2="585" y2="0" style="fill: none; stroke: #ddd; stroke-width: 1; opacity: 1;"></line><line transform="translate(0,214)" x2="585" y2="0" style="fill: none; stroke: #ddd; stroke-width: 1; opacity: 1;"></line><line transform="translate(0,179)" x2="585" y2="0" style="fill: none; stroke: #ddd; stroke-width: 1; opacity: 1;"></line><line transform="translate(0,143)" x2="585" y2="0" style="fill: none; stroke: #ddd; stroke-width: 1; opacity: 1;"></line><line transform="translate(0,107)" x2="585" y2="0" style="fill: none; stroke: #ddd; stroke-width: 1; opacity: 1;"></line><line transform="translate(0,71)" x2="585" y2="0" style="fill: none; stroke: #ddd; stroke-width: 1; opacity: 1;"></line><line transform="translate(0,36)" x2="585" y2="0" style="fill: none; stroke: #ddd; stroke-width: 1; opacity: 1;"></line><line transform="translate(0,0)" x2="585" y2="0" style="fill: none; stroke: #ddd; stroke-width: 1; opacity: 1;"></line></g></g><path class="foreground" d="" style="pointer-events: none; display: none; fill: none;"></path></g></g><g class="mark-group role-axis"><g transform="translate(0.5,250.5)"><path class="background" d="M0,0h0v0h0Z" style="pointer-events: none; fill: none;"></path><g><g class="mark-rule role-axis-tick" style="pointer-events: none;"><line transform="translate(16,0)" x2="0" y2="5" style="fill: none; stroke: #888; stroke-width: 1; opacity: 1;"></line><line transform="translate(53,0)" x2="0" y2="5" style="fill: none; stroke: #888; stroke-width: 1; opacity: 1;"></line><line transform="translate(90,0)" x2="0" y2="5" style="fill: none; stroke: #888; stroke-width: 1; opacity: 1;"></line><line transform="translate(126,0)" x2="0" y2="5" style="fill: none; stroke: #888; stroke-width: 1; opacity: 1;"></line><line transform="translate(163,0)" x2="0" y2="5" style="fill: none; stroke: #888; stroke-width: 1; opacity: 1;"></line><line transform="translate(200,0)" x2="0" y2="5" style="fill: none; stroke: #888; stroke-width: 1; opacity: 1;"></line><line transform="translate(237,0)" x2="0" y2="5" style="fill: none; stroke: #888; stroke-width: 1; opacity: 1;"></line><line transform="translate(274,0)" x2="0" y2="5" style="fill: none; stroke: #888; stroke-width: 1; opacity: 1;"></line><line transform="translate(311,0)" x2="0" y2="5" style="fill: none; stroke: #888; stroke-width: 1; opacity: 1;"></line><line transform="translate(348,0)" x2="0" y2="5" style="fill: none; stroke: #888; stroke-width: 1; opacity: 1;"></line><line transform="translate(385,0)" x2="0" y2="5" style="fill: none; stroke: #888; stroke-width: 1; opacity: 1;"></line><line transform="translate(422,0)" x2="0" y2="5" style="fill: none; stroke: #888; stroke-width: 1; opacity: 1;"></line><line transform="translate(459,0)" x2="0" y2="5" style="fill: none; stroke: #888; stroke-width: 1; opacity: 1;"></line><line transform="translate(495,0)" x2="0" y2="5" style="fill: none; stroke: #888; stroke-width: 1; opacity: 1;"></line><line transform="translate(532,0)" x2="0" y2="5" style="fill: none; stroke: #888; stroke-width: 1; opacity: 1;"></line><line transform="translate(569,0)" x2="0" y2="5" style="fill: none; stroke: #888; stroke-width: 1; opacity: 1;"></line></g><g class="mark-text role-axis-label" style="pointer-events: none;"><text text-anchor="middle" transform="translate(15.810810810810812,18)" style="font-family: sans-serif; font-size: 14px; fill: #000; opacity: 1;">15/03</text><text text-anchor="middle" transform="translate(52.7027027027027,18)" style="font-family: sans-serif; font-size: 14px; fill: #000; opacity: 1;">22/03</text><text text-anchor="middle" transform="translate(89.59459459459458,18)" style="font-family: sans-serif; font-size: 14px; fill: #000; opacity: 1;">29/03</text><text text-anchor="middle" transform="translate(126.4864864864865,18)" style="font-family: sans-serif; font-size: 14px; fill: #000; opacity: 1;">05/04</text><text text-anchor="middle" transform="translate(163.37837837837836,18)" style="font-family: sans-serif; font-size: 14px; fill: #000; opacity: 1;">12/04</text><text text-anchor="middle" transform="translate(200.27027027027026,18)" style="font-family: sans-serif; font-size: 14px; fill: #000; opacity: 1;">19/04</text><text text-anchor="middle" transform="translate(237.16216216216216,18)" style="font-family: sans-serif; font-size: 14px; fill: #000; opacity: 1;">26/04</text><text text-anchor="middle" transform="translate(274.05405405405406,18)" style="font-family: sans-serif; font-size: 14px; fill: #000; opacity: 1;">03/05</text><text text-anchor="middle" transform="translate(310.94594594594594,18)" style="font-family: sans-serif; font-size: 14px; fill: #000; opacity: 1;">10/05</text><text text-anchor="middle" transform="translate(347.83783783783787,18)" style="font-family: sans-serif; font-size: 14px; fill: #000; opacity: 1;">17/05</text><text text-anchor="middle" transform="translate(384.72972972972974,18)" style="font-family: sans-serif; font-size: 14px; fill: #000; opacity: 1;">24/05</text><text text-anchor="middle" transform="translate(421.6216216216216,18)" style="font-family: sans-serif; font-size: 14px; fill: #000; opacity: 1;">31/05</text><text text-anchor="middle" transform="translate(458.5135135135135,18)" style="font-family: sans-serif; font-size: 14px; fill: #000; opacity: 1;">07/06</text><text text-anchor="middle" transform="translate(495.4054054054054,18)" style="font-family: sans-serif; font-size: 14px; fill: #000; opacity: 1;">14/06</text><text text-anchor="middle" transform="translate(532.2972972972973,18)" style="font-family: sans-serif; font-size: 14px; fill: #000; opacity: 1;">21/06</text><text text-anchor="middle" transform="translate(569.1891891891892,18)" style="font-family: sans-serif; font-size: 14px; fill: #000; opacity: 1;">28/06</text></g><g class="mark-rule role-axis-domain" style="pointer-events: none;"><line transform="translate(0,0)" x2="585" y2="0" style="fill: none; stroke: #888; stroke-width: 1; opacity: 1;"></line></g><g class="mark-text role-axis-title" style="pointer-events: none;"><text text-anchor="middle" transform="translate(292.5,36)" style="font-family: sans-serif; font-size: 14px; font-weight: bold; fill: #000; opacity: 1;">Fecha de toma de muestra</text></g></g><path class="foreground" d="" style="pointer-events: none; display: none; fill: none;"></path></g></g><g class="mark-group role-axis"><g transform="translate(0.5,0.5)"><path class="background" d="M0,0h0v0h0Z" style="pointer-events: none; fill: none;"></path><g><g class="mark-rule role-axis-tick" style="pointer-events: none;"><line transform="translate(0,250)" x2="-5" y2="0" style="fill: none; stroke: #888; stroke-width: 1; opacity: 1;"></line><line transform="translate(0,214)" x2="-5" y2="0" style="fill: none; stroke: #888; stroke-width: 1; opacity: 1;"></line><line transform="translate(0,179)" x2="-5" y2="0" style="fill: none; stroke: #888; stroke-width: 1; opacity: 1;"></line><line transform="translate(0,143)" x2="-5" y2="0" style="fill: none; stroke: #888; stroke-width: 1; opacity: 1;"></line><line transform="translate(0,107)" x2="-5" y2="0" style="fill: none; stroke: #888; stroke-width: 1; opacity: 1;"></line><line transform="translate(0,71)" x2="-5" y2="0" style="fill: none; stroke: #888; stroke-width: 1; opacity: 1;"></line><line transform="translate(0,36)" x2="-5" y2="0" style="fill: none; stroke: #888; stroke-width: 1; opacity: 1;"></line><line transform="translate(0,0)" x2="-5" y2="0" style="fill: none; stroke: #888; stroke-width: 1; opacity: 1;"></line></g><g class="mark-text role-axis-label" style="pointer-events: none;"><text text-anchor="end" transform="translate(-7,254)" style="font-family: sans-serif; font-size: 14px; fill: #000; opacity: 1;">0.0</text><text text-anchor="end" transform="translate(-7,218.28571428571428)" style="font-family: sans-serif; font-size: 14px; fill: #000; opacity: 1;">0.2</text><text text-anchor="end" transform="translate(-7,182.57142857142856)" style="font-family: sans-serif; font-size: 14px; fill: #000; opacity: 1;">0.4</text><text text-anchor="end" transform="translate(-7,146.85714285714286)" style="font-family: sans-serif; font-size: 14px; fill: #000; opacity: 1;">0.6</text><text text-anchor="end" transform="translate(-7,111.14285714285712)" style="font-family: sans-serif; font-size: 14px; fill: #000; opacity: 1;">0.8</text><text text-anchor="end" transform="translate(-7,75.42857142857143)" style="font-family: sans-serif; font-size: 14px; fill: #000; opacity: 1;">1.0</text><text text-anchor="end" transform="translate(-7,39.7142857142857)" style="font-family: sans-serif; font-size: 14px; fill: #000; opacity: 1;">1.2</text><text text-anchor="end" transform="translate(-7,4)" style="font-family: sans-serif; font-size: 14px; fill: #000; opacity: 1;">1.4</text></g><g class="mark-rule role-axis-domain" style="pointer-events: none;"><line transform="translate(0,250)" x2="0" y2="-250" style="fill: none; stroke: #888; stroke-width: 1; opacity: 1;"></line></g><g class="mark-text role-axis-title" style="pointer-events: none;"><text text-anchor="middle" transform="translate(-30.4619140625,125) rotate(-90) translate(0,-3)" style="font-family: sans-serif; font-size: 14px; font-weight: bold; fill: #000; opacity: 1;">Pruebas (por 1K)</text></g></g><path class="foreground" d="" style="pointer-events: none; display: none; fill: none;"></path></g></g><g class="mark-group role-scope layer_0_pathgroup"><g transform="translate(0,0)"><path class="background" d="M0,0h585v250h-585Z" style="fill: none;"></path><g><g class="mark-line role-mark layer_0_marks"><path d="M0,249.9600616025179L5.27027027027027,249.92811088453223L10.54054054054054,249.88817248705016L15.810810810810812,249.85622176906446L21.08108108108108,249.5526899482006L26.35135135135135,249.02550310143704L31.621621621621625,248.62611912661615L36.89189189189189,248.0270431643848L42.16216216216216,247.18034913776452L47.432432432432435,246.58127317553317L52.7027027027027,246.3256674316478L57.972972972972975,245.63073931545946L63.24324324324325,244.32874755754332L68.51351351351352,242.68328558128127L73.78378378378378,240.06332670645622L79.05405405405406,236.8762425873855L84.32432432432432,235.28669436759836L89.59459459459458,234.9032857517703L94.86486486486487,230.022813579459L100.13513513513513,226.18872742117844L105.4054054054054,219.77462078555493L110.67567567567568,215.4772492164821L115.94594594594595,211.26774212186993L121.21621621621621,211.0281117369774L126.4864864864865,210.83640742906337L131.75675675675677,209.71014462006846L137.02702702702703,206.89848143732937L142.2972972972973,207.52152043804998L147.56756756756755,207.0422596682649L152.83783783783784,213.91965171468064L158.10810810810813,214.27110961252305L163.37837837837836,214.03946690712692L168.64864864864865,213.6720336502917L173.91891891891893,212.9531424956141L179.18918918918916,211.17188996791293L184.45945945945945,210.28525754381053L189.72972972972974,202.06593534199658L195,200.1568799423527L200.27027027027026,199.82938508299958L205.54054054054055,197.48100731105276L210.8108108108108,197.24137692616023L216.0810810810811,197.59283482400258L221.35135135135135,195.11665418011307L226.6216216216216,194.85306075673128L231.8918918918919,194.00636673011098L237.16216216216216,194.21404639701785L242.43243243243242,190.2521573667946L247.7027027027027,182.64788648620484L252.972972972973,174.8838620156867L258.2432432432432,168.73334880344498L263.51351351351354,157.0952997771642L268.7837837837838,153.56474543974753L274.05405405405406,153.26121361888363L279.3243243243243,142.9011933120297L284.5945945945946,132.125813671362L289.86486486486484,119.13784681018663L295.1351351351351,100.23100944216564L300.4054054054054,77.25844321046793L305.6756756756757,73.1208252313235L310.94594594594594,71.67505524247188L316.21621621621625,63.703351105046906L321.4864864864865,57.34515822589831L326.7567567567567,51.92951152732697L332.02702702702703,53.175589528768164L337.2972972972973,63.49567143814L342.56756756756755,64.44620529821374L347.83783783783787,66.19550710792923L353.1081081081081,73.24862810326619L358.37837837837833,79.6148086619112L363.64864864864865,83.18530139680996L368.9189189189189,93.40154347272836L374.1891891891892,89.06423350617348L379.4594594594595,89.743186263369L384.72972972972974,89.4716051604908L390,101.51702584108891L395.27027027027026,93.4095311522248L400.5405405405405,91.62029094502722L405.81081081081084,78.99975734068704L411.0810810810811,76.62741653025093L416.3513513513513,72.01852546081783L421.6216216216216,71.60316612700413L426.8918918918919,45.69113384062467L432.1621621621622,39.724337256800524L437.43243243243245,28.565549000304806L442.7027027027027,16.695857268627933L447.97297297297297,9.994194171133369L453.2432432432432,10.792962120775185L458.5135135135135,10.705097646314583L463.7837837837838,5.225549511771926L469.05405405405406,3.036925329753415L474.3243243243243,8.859943682642063L479.5945945945946,14.730888112509138L484.86486486486484,22.478937224034436L490.13513513513516,21.360662094535936L495.4054054054054,20.92133972223298L500.6756756756757,27.01593917799977L505.945945945946,35.26721209779937L511.2162162162162,37.42388556183221L516.4864864864865,35.666596072620294L521.7567567567568,43.84597987695213L527.0270270270271,49.15778674207002L532.2972972972973,49.93259165322253L537.5675675675676,63.687375746054045L542.8378378378378,84.75088657810787L548.1081081081081,116.76550599975056" style="fill: none; stroke: #4c78a8; stroke-width: 2; stroke-dasharray: 4,2;"></path></g></g><path class="foreground" d="" style="display: none; fill: none;"></path></g><g transform="translate(0,0)"><path class="background" d="M0,0h585v250h-585Z" style="fill: none;"></path><g><g class="mark-line role-mark layer_0_marks"><path d="M0,249.9600616025179L5.27027027027027,249.92811088453223L10.54054054054054,249.88817248705016L15.810810810810812,249.85622176906446L21.08108108108108,249.5526899482006L26.35135135135135,249.02550310143704L31.621621621621625,248.62611912661615L36.89189189189189,248.0270431643848L42.16216216216216,247.18034913776452L47.432432432432435,246.58127317553317L52.7027027027027,246.3256674316478L57.972972972972975,245.63073931545946L63.24324324324325,244.32874755754332L68.51351351351352,242.68328558128127L73.78378378378378,240.06332670645622L79.05405405405406,236.8762425873855L84.32432432432432,235.28669436759836L89.59459459459458,234.9032857517703L94.86486486486487,230.022813579459L100.13513513513513,226.18872742117844L105.4054054054054,219.77462078555493L110.67567567567568,215.4772492164821L115.94594594594595,211.26774212186993L121.21621621621621,211.0281117369774L126.4864864864865,210.83640742906337L131.75675675675677,209.71014462006846L137.02702702702703,206.89848143732937L142.2972972972973,207.52152043804998L147.56756756756755,207.0422596682649L152.83783783783784,213.91965171468064L158.10810810810813,214.27110961252305L163.37837837837836,214.03946690712692L168.64864864864865,213.6720336502917L173.91891891891893,212.9531424956141L179.18918918918916,211.17188996791293L184.45945945945945,210.28525754381053L189.72972972972974,202.06593534199658L195,200.1568799423527L200.27027027027026,199.82938508299958L205.54054054054055,197.48100731105276L210.8108108108108,197.24137692616023L216.0810810810811,197.59283482400258L221.35135135135135,195.11665418011307L226.6216216216216,194.85306075673128L231.8918918918919,194.00636673011098L237.16216216216216,194.21404639701785L242.43243243243242,190.2521573667946L247.7027027027027,182.64788648620484L252.972972972973,174.8838620156867L258.2432432432432,168.73334880344498L263.51351351351354,157.0952997771642L268.7837837837838,153.56474543974753L274.05405405405406,153.26121361888363L279.3243243243243,142.84527955555478L284.5945945945946,131.89417096596588L289.86486486486484,118.90620410479052L295.1351351351351,99.99936673676952L300.4054054054054,77.02680050507182L305.6756756756757,72.88918252592741L310.94594594594594,71.44341253707576L316.21621621621625,63.52762215612567L321.4864864864865,57.34515822589831L326.7567567567567,51.92951152732697L332.02702702702703,53.175589528768164L337.2972972972973,63.49567143814L342.56756756756755,64.44620529821374L347.83783783783787,66.19550710792923L353.1081081081081,73.24862810326619L358.37837837837833,79.59883330291837L363.64864864864865,83.16133835832073L368.9189189189189,93.3775804342391L374.1891891891892,89.04027046768422L379.4594594594595,89.71922322487977L384.72972972972974,89.44764212200154L390,101.48507512310323L395.27027027027026,93.36959275474271L400.5405405405405,91.58035254754512L405.81081081081084,78.9438435842121L411.0810810810811,76.55552741478317L416.3513513513513,71.93066098635725L421.6216216216216,71.51530165254353L426.8918918918919,45.56333096868201L432.1621621621622,39.58854670536144L437.43243243243245,28.429758448865723L442.7027027027027,16.536103678699565L447.97297297297297,9.850415940197866L453.2432432432432,10.625220851350397L458.5135135135135,10.537356376889823L463.7837837837838,5.0657959218435575L469.05405405405406,2.8851594193215204L474.3243243243243,8.700190092713694L479.5945945945946,14.579122202077189L484.86486486486484,22.28723291612045L490.13513513513516,21.144994748132667L495.4054054054054,20.705672375829682L500.6756756756757,26.82423487008573L505.945945945946,35.0914831488782L511.2162162162162,37.11236606147192L516.4864864864865,34.013146416861815L521.7567567567568,27.583064422245425L527.0270270270271,27.407335473324245L532.2972972972973,28.142201986994685L537.5675675675676,28.461709166851367L542.8378378378378,31.193495554626306L548.1081081081081,37.39992252334295L553.3783783783783,53.23150328524309L558.6486486486486,65.70027097915133L563.918918918919,71.3315850241259L569.1891891891892,71.10792999822618L574.4594594594595,72.98503467988444L579.7297297297297,84.63107138566161L585,112.15661493031745" style="fill: none; stroke: #4c78a8; stroke-width: 2; stroke-dasharray: 1,0;"></path></g></g><path class="foreground" d="" style="display: none; fill: none;"></path></g></g><g class="mark-symbol role-mark layer_1_marks"><path transform="translate(0,249.9600616025179)" d="M2.7386127875258306,0A2.7386127875258306,2.7386127875258306,0,1,1,-2.7386127875258306,0A2.7386127875258306,2.7386127875258306,0,1,1,2.7386127875258306,0" style="fill: #4c78a8; stroke-width: 2; stroke-dasharray: 4,2; opacity: 0;"></path><path transform="translate(5.27027027027027,249.92811088453223)" d="M2.7386127875258306,0A2.7386127875258306,2.7386127875258306,0,1,1,-2.7386127875258306,0A2.7386127875258306,2.7386127875258306,0,1,1,2.7386127875258306,0" style="fill: #4c78a8; stroke-width: 2; stroke-dasharray: 4,2; opacity: 0;"></path><path transform="translate(10.54054054054054,249.88817248705016)" d="M2.7386127875258306,0A2.7386127875258306,2.7386127875258306,0,1,1,-2.7386127875258306,0A2.7386127875258306,2.7386127875258306,0,1,1,2.7386127875258306,0" style="fill: #4c78a8; stroke-width: 2; stroke-dasharray: 4,2; opacity: 0;"></path><path transform="translate(15.810810810810812,249.85622176906446)" d="M2.7386127875258306,0A2.7386127875258306,2.7386127875258306,0,1,1,-2.7386127875258306,0A2.7386127875258306,2.7386127875258306,0,1,1,2.7386127875258306,0" style="fill: #4c78a8; stroke-width: 2; stroke-dasharray: 4,2; opacity: 0;"></path><path transform="translate(21.08108108108108,249.5526899482006)" d="M2.7386127875258306,0A2.7386127875258306,2.7386127875258306,0,1,1,-2.7386127875258306,0A2.7386127875258306,2.7386127875258306,0,1,1,2.7386127875258306,0" style="fill: #4c78a8; stroke-width: 2; stroke-dasharray: 4,2; opacity: 0;"></path><path transform="translate(26.35135135135135,249.02550310143704)" d="M2.7386127875258306,0A2.7386127875258306,2.7386127875258306,0,1,1,-2.7386127875258306,0A2.7386127875258306,2.7386127875258306,0,1,1,2.7386127875258306,0" style="fill: #4c78a8; stroke-width: 2; stroke-dasharray: 4,2; opacity: 0;"></path><path transform="translate(31.621621621621625,248.62611912661615)" d="M2.7386127875258306,0A2.7386127875258306,2.7386127875258306,0,1,1,-2.7386127875258306,0A2.7386127875258306,2.7386127875258306,0,1,1,2.7386127875258306,0" style="fill: #4c78a8; stroke-width: 2; stroke-dasharray: 4,2; opacity: 0;"></path><path transform="translate(36.89189189189189,248.0270431643848)" d="M2.7386127875258306,0A2.7386127875258306,2.7386127875258306,0,1,1,-2.7386127875258306,0A2.7386127875258306,2.7386127875258306,0,1,1,2.7386127875258306,0" style="fill: #4c78a8; stroke-width: 2; stroke-dasharray: 4,2; opacity: 0;"></path><path transform="translate(42.16216216216216,247.18034913776452)" d="M2.7386127875258306,0A2.7386127875258306,2.7386127875258306,0,1,1,-2.7386127875258306,0A2.7386127875258306,2.7386127875258306,0,1,1,2.7386127875258306,0" style="fill: #4c78a8; stroke-width: 2; stroke-dasharray: 4,2; opacity: 0;"></path><path transform="translate(47.432432432432435,246.58127317553317)" d="M2.7386127875258306,0A2.7386127875258306,2.7386127875258306,0,1,1,-2.7386127875258306,0A2.7386127875258306,2.7386127875258306,0,1,1,2.7386127875258306,0" style="fill: #4c78a8; stroke-width: 2; stroke-dasharray: 4,2; opacity: 0;"></path><path transform="translate(52.7027027027027,246.3256674316478)" d="M2.7386127875258306,0A2.7386127875258306,2.7386127875258306,0,1,1,-2.7386127875258306,0A2.7386127875258306,2.7386127875258306,0,1,1,2.7386127875258306,0" style="fill: #4c78a8; stroke-width: 2; stroke-dasharray: 4,2; opacity: 0;"></path><path transform="translate(57.972972972972975,245.63073931545946)" d="M2.7386127875258306,0A2.7386127875258306,2.7386127875258306,0,1,1,-2.7386127875258306,0A2.7386127875258306,2.7386127875258306,0,1,1,2.7386127875258306,0" style="fill: #4c78a8; stroke-width: 2; stroke-dasharray: 4,2; opacity: 0;"></path><path transform="translate(63.24324324324325,244.32874755754332)" d="M2.7386127875258306,0A2.7386127875258306,2.7386127875258306,0,1,1,-2.7386127875258306,0A2.7386127875258306,2.7386127875258306,0,1,1,2.7386127875258306,0" style="fill: #4c78a8; stroke-width: 2; stroke-dasharray: 4,2; opacity: 0;"></path><path transform="translate(68.51351351351352,242.68328558128127)" d="M2.7386127875258306,0A2.7386127875258306,2.7386127875258306,0,1,1,-2.7386127875258306,0A2.7386127875258306,2.7386127875258306,0,1,1,2.7386127875258306,0" style="fill: #4c78a8; stroke-width: 2; stroke-dasharray: 4,2; opacity: 0;"></path><path transform="translate(73.78378378378378,240.06332670645622)" d="M2.7386127875258306,0A2.7386127875258306,2.7386127875258306,0,1,1,-2.7386127875258306,0A2.7386127875258306,2.7386127875258306,0,1,1,2.7386127875258306,0" style="fill: #4c78a8; stroke-width: 2; stroke-dasharray: 4,2; opacity: 0;"></path><path transform="translate(79.05405405405406,236.8762425873855)" d="M2.7386127875258306,0A2.7386127875258306,2.7386127875258306,0,1,1,-2.7386127875258306,0A2.7386127875258306,2.7386127875258306,0,1,1,2.7386127875258306,0" style="fill: #4c78a8; stroke-width: 2; stroke-dasharray: 4,2; opacity: 0;"></path><path transform="translate(84.32432432432432,235.28669436759836)" d="M2.7386127875258306,0A2.7386127875258306,2.7386127875258306,0,1,1,-2.7386127875258306,0A2.7386127875258306,2.7386127875258306,0,1,1,2.7386127875258306,0" style="fill: #4c78a8; stroke-width: 2; stroke-dasharray: 4,2; opacity: 0;"></path><path transform="translate(89.59459459459458,234.9032857517703)" d="M2.7386127875258306,0A2.7386127875258306,2.7386127875258306,0,1,1,-2.7386127875258306,0A2.7386127875258306,2.7386127875258306,0,1,1,2.7386127875258306,0" style="fill: #4c78a8; stroke-width: 2; stroke-dasharray: 4,2; opacity: 0;"></path><path transform="translate(94.86486486486487,230.022813579459)" d="M2.7386127875258306,0A2.7386127875258306,2.7386127875258306,0,1,1,-2.7386127875258306,0A2.7386127875258306,2.7386127875258306,0,1,1,2.7386127875258306,0" style="fill: #4c78a8; stroke-width: 2; stroke-dasharray: 4,2; opacity: 0;"></path><path transform="translate(100.13513513513513,226.18872742117844)" d="M2.7386127875258306,0A2.7386127875258306,2.7386127875258306,0,1,1,-2.7386127875258306,0A2.7386127875258306,2.7386127875258306,0,1,1,2.7386127875258306,0" style="fill: #4c78a8; stroke-width: 2; stroke-dasharray: 4,2; opacity: 0;"></path><path transform="translate(105.4054054054054,219.77462078555493)" d="M2.7386127875258306,0A2.7386127875258306,2.7386127875258306,0,1,1,-2.7386127875258306,0A2.7386127875258306,2.7386127875258306,0,1,1,2.7386127875258306,0" style="fill: #4c78a8; stroke-width: 2; stroke-dasharray: 4,2; opacity: 0;"></path><path transform="translate(110.67567567567568,215.4772492164821)" d="M2.7386127875258306,0A2.7386127875258306,2.7386127875258306,0,1,1,-2.7386127875258306,0A2.7386127875258306,2.7386127875258306,0,1,1,2.7386127875258306,0" style="fill: #4c78a8; stroke-width: 2; stroke-dasharray: 4,2; opacity: 0;"></path><path transform="translate(115.94594594594595,211.26774212186993)" d="M2.7386127875258306,0A2.7386127875258306,2.7386127875258306,0,1,1,-2.7386127875258306,0A2.7386127875258306,2.7386127875258306,0,1,1,2.7386127875258306,0" style="fill: #4c78a8; stroke-width: 2; stroke-dasharray: 4,2; opacity: 0;"></path><path transform="translate(121.21621621621621,211.0281117369774)" d="M2.7386127875258306,0A2.7386127875258306,2.7386127875258306,0,1,1,-2.7386127875258306,0A2.7386127875258306,2.7386127875258306,0,1,1,2.7386127875258306,0" style="fill: #4c78a8; stroke-width: 2; stroke-dasharray: 4,2; opacity: 0;"></path><path transform="translate(126.4864864864865,210.83640742906337)" d="M2.7386127875258306,0A2.7386127875258306,2.7386127875258306,0,1,1,-2.7386127875258306,0A2.7386127875258306,2.7386127875258306,0,1,1,2.7386127875258306,0" style="fill: #4c78a8; stroke-width: 2; stroke-dasharray: 4,2; opacity: 0;"></path><path transform="translate(131.75675675675677,209.71014462006846)" d="M2.7386127875258306,0A2.7386127875258306,2.7386127875258306,0,1,1,-2.7386127875258306,0A2.7386127875258306,2.7386127875258306,0,1,1,2.7386127875258306,0" style="fill: #4c78a8; stroke-width: 2; stroke-dasharray: 4,2; opacity: 0;"></path><path transform="translate(137.02702702702703,206.89848143732937)" d="M2.7386127875258306,0A2.7386127875258306,2.7386127875258306,0,1,1,-2.7386127875258306,0A2.7386127875258306,2.7386127875258306,0,1,1,2.7386127875258306,0" style="fill: #4c78a8; stroke-width: 2; stroke-dasharray: 4,2; opacity: 0;"></path><path transform="translate(142.2972972972973,207.52152043804998)" d="M2.7386127875258306,0A2.7386127875258306,2.7386127875258306,0,1,1,-2.7386127875258306,0A2.7386127875258306,2.7386127875258306,0,1,1,2.7386127875258306,0" style="fill: #4c78a8; stroke-width: 2; stroke-dasharray: 4,2; opacity: 0;"></path><path transform="translate(147.56756756756755,207.0422596682649)" d="M2.7386127875258306,0A2.7386127875258306,2.7386127875258306,0,1,1,-2.7386127875258306,0A2.7386127875258306,2.7386127875258306,0,1,1,2.7386127875258306,0" style="fill: #4c78a8; stroke-width: 2; stroke-dasharray: 4,2; opacity: 0;"></path><path transform="translate(152.83783783783784,213.91965171468064)" d="M2.7386127875258306,0A2.7386127875258306,2.7386127875258306,0,1,1,-2.7386127875258306,0A2.7386127875258306,2.7386127875258306,0,1,1,2.7386127875258306,0" style="fill: #4c78a8; stroke-width: 2; stroke-dasharray: 4,2; opacity: 0;"></path><path transform="translate(158.10810810810813,214.27110961252305)" d="M2.7386127875258306,0A2.7386127875258306,2.7386127875258306,0,1,1,-2.7386127875258306,0A2.7386127875258306,2.7386127875258306,0,1,1,2.7386127875258306,0" style="fill: #4c78a8; stroke-width: 2; stroke-dasharray: 4,2; opacity: 0;"></path><path transform="translate(163.37837837837836,214.03946690712692)" d="M2.7386127875258306,0A2.7386127875258306,2.7386127875258306,0,1,1,-2.7386127875258306,0A2.7386127875258306,2.7386127875258306,0,1,1,2.7386127875258306,0" style="fill: #4c78a8; stroke-width: 2; stroke-dasharray: 4,2; opacity: 0;"></path><path transform="translate(168.64864864864865,213.6720336502917)" d="M2.7386127875258306,0A2.7386127875258306,2.7386127875258306,0,1,1,-2.7386127875258306,0A2.7386127875258306,2.7386127875258306,0,1,1,2.7386127875258306,0" style="fill: #4c78a8; stroke-width: 2; stroke-dasharray: 4,2; opacity: 0;"></path><path transform="translate(173.91891891891893,212.9531424956141)" d="M2.7386127875258306,0A2.7386127875258306,2.7386127875258306,0,1,1,-2.7386127875258306,0A2.7386127875258306,2.7386127875258306,0,1,1,2.7386127875258306,0" style="fill: #4c78a8; stroke-width: 2; stroke-dasharray: 4,2; opacity: 0;"></path><path transform="translate(179.18918918918916,211.17188996791293)" d="M2.7386127875258306,0A2.7386127875258306,2.7386127875258306,0,1,1,-2.7386127875258306,0A2.7386127875258306,2.7386127875258306,0,1,1,2.7386127875258306,0" style="fill: #4c78a8; stroke-width: 2; stroke-dasharray: 4,2; opacity: 0;"></path><path transform="translate(184.45945945945945,210.28525754381053)" d="M2.7386127875258306,0A2.7386127875258306,2.7386127875258306,0,1,1,-2.7386127875258306,0A2.7386127875258306,2.7386127875258306,0,1,1,2.7386127875258306,0" style="fill: #4c78a8; stroke-width: 2; stroke-dasharray: 4,2; opacity: 0;"></path><path transform="translate(189.72972972972974,202.06593534199658)" d="M2.7386127875258306,0A2.7386127875258306,2.7386127875258306,0,1,1,-2.7386127875258306,0A2.7386127875258306,2.7386127875258306,0,1,1,2.7386127875258306,0" style="fill: #4c78a8; stroke-width: 2; stroke-dasharray: 4,2; opacity: 0;"></path><path transform="translate(195,200.1568799423527)" d="M2.7386127875258306,0A2.7386127875258306,2.7386127875258306,0,1,1,-2.7386127875258306,0A2.7386127875258306,2.7386127875258306,0,1,1,2.7386127875258306,0" style="fill: #4c78a8; stroke-width: 2; stroke-dasharray: 4,2; opacity: 0;"></path><path transform="translate(200.27027027027026,199.82938508299958)" d="M2.7386127875258306,0A2.7386127875258306,2.7386127875258306,0,1,1,-2.7386127875258306,0A2.7386127875258306,2.7386127875258306,0,1,1,2.7386127875258306,0" style="fill: #4c78a8; stroke-width: 2; stroke-dasharray: 4,2; opacity: 0;"></path><path transform="translate(205.54054054054055,197.48100731105276)" d="M2.7386127875258306,0A2.7386127875258306,2.7386127875258306,0,1,1,-2.7386127875258306,0A2.7386127875258306,2.7386127875258306,0,1,1,2.7386127875258306,0" style="fill: #4c78a8; stroke-width: 2; stroke-dasharray: 4,2; opacity: 0;"></path><path transform="translate(210.8108108108108,197.24137692616023)" d="M2.7386127875258306,0A2.7386127875258306,2.7386127875258306,0,1,1,-2.7386127875258306,0A2.7386127875258306,2.7386127875258306,0,1,1,2.7386127875258306,0" style="fill: #4c78a8; stroke-width: 2; stroke-dasharray: 4,2; opacity: 0;"></path><path transform="translate(216.0810810810811,197.59283482400258)" d="M2.7386127875258306,0A2.7386127875258306,2.7386127875258306,0,1,1,-2.7386127875258306,0A2.7386127875258306,2.7386127875258306,0,1,1,2.7386127875258306,0" style="fill: #4c78a8; stroke-width: 2; stroke-dasharray: 4,2; opacity: 0;"></path><path transform="translate(221.35135135135135,195.11665418011307)" d="M2.7386127875258306,0A2.7386127875258306,2.7386127875258306,0,1,1,-2.7386127875258306,0A2.7386127875258306,2.7386127875258306,0,1,1,2.7386127875258306,0" style="fill: #4c78a8; stroke-width: 2; stroke-dasharray: 4,2; opacity: 0;"></path><path transform="translate(226.6216216216216,194.85306075673128)" d="M2.7386127875258306,0A2.7386127875258306,2.7386127875258306,0,1,1,-2.7386127875258306,0A2.7386127875258306,2.7386127875258306,0,1,1,2.7386127875258306,0" style="fill: #4c78a8; stroke-width: 2; stroke-dasharray: 4,2; opacity: 0;"></path><path transform="translate(231.8918918918919,194.00636673011098)" d="M2.7386127875258306,0A2.7386127875258306,2.7386127875258306,0,1,1,-2.7386127875258306,0A2.7386127875258306,2.7386127875258306,0,1,1,2.7386127875258306,0" style="fill: #4c78a8; stroke-width: 2; stroke-dasharray: 4,2; opacity: 0;"></path><path transform="translate(237.16216216216216,194.21404639701785)" d="M2.7386127875258306,0A2.7386127875258306,2.7386127875258306,0,1,1,-2.7386127875258306,0A2.7386127875258306,2.7386127875258306,0,1,1,2.7386127875258306,0" style="fill: #4c78a8; stroke-width: 2; stroke-dasharray: 4,2; opacity: 0;"></path><path transform="translate(242.43243243243242,190.2521573667946)" d="M2.7386127875258306,0A2.7386127875258306,2.7386127875258306,0,1,1,-2.7386127875258306,0A2.7386127875258306,2.7386127875258306,0,1,1,2.7386127875258306,0" style="fill: #4c78a8; stroke-width: 2; stroke-dasharray: 4,2; opacity: 0;"></path><path transform="translate(247.7027027027027,182.64788648620484)" d="M2.7386127875258306,0A2.7386127875258306,2.7386127875258306,0,1,1,-2.7386127875258306,0A2.7386127875258306,2.7386127875258306,0,1,1,2.7386127875258306,0" style="fill: #4c78a8; stroke-width: 2; stroke-dasharray: 4,2; opacity: 0;"></path><path transform="translate(252.972972972973,174.8838620156867)" d="M2.7386127875258306,0A2.7386127875258306,2.7386127875258306,0,1,1,-2.7386127875258306,0A2.7386127875258306,2.7386127875258306,0,1,1,2.7386127875258306,0" style="fill: #4c78a8; stroke-width: 2; stroke-dasharray: 4,2; opacity: 0;"></path><path transform="translate(258.2432432432432,168.73334880344498)" d="M2.7386127875258306,0A2.7386127875258306,2.7386127875258306,0,1,1,-2.7386127875258306,0A2.7386127875258306,2.7386127875258306,0,1,1,2.7386127875258306,0" style="fill: #4c78a8; stroke-width: 2; stroke-dasharray: 4,2; opacity: 0;"></path><path transform="translate(263.51351351351354,157.0952997771642)" d="M2.7386127875258306,0A2.7386127875258306,2.7386127875258306,0,1,1,-2.7386127875258306,0A2.7386127875258306,2.7386127875258306,0,1,1,2.7386127875258306,0" style="fill: #4c78a8; stroke-width: 2; stroke-dasharray: 4,2; opacity: 0;"></path><path transform="translate(268.7837837837838,153.56474543974753)" d="M2.7386127875258306,0A2.7386127875258306,2.7386127875258306,0,1,1,-2.7386127875258306,0A2.7386127875258306,2.7386127875258306,0,1,1,2.7386127875258306,0" style="fill: #4c78a8; stroke-width: 2; stroke-dasharray: 4,2; opacity: 0;"></path><path transform="translate(274.05405405405406,153.26121361888363)" d="M2.7386127875258306,0A2.7386127875258306,2.7386127875258306,0,1,1,-2.7386127875258306,0A2.7386127875258306,2.7386127875258306,0,1,1,2.7386127875258306,0" style="fill: #4c78a8; stroke-width: 2; stroke-dasharray: 4,2; opacity: 0;"></path><path transform="translate(279.3243243243243,142.9011933120297)" d="M2.7386127875258306,0A2.7386127875258306,2.7386127875258306,0,1,1,-2.7386127875258306,0A2.7386127875258306,2.7386127875258306,0,1,1,2.7386127875258306,0" style="fill: #4c78a8; stroke-width: 2; stroke-dasharray: 4,2; opacity: 0;"></path><path transform="translate(284.5945945945946,132.125813671362)" d="M2.7386127875258306,0A2.7386127875258306,2.7386127875258306,0,1,1,-2.7386127875258306,0A2.7386127875258306,2.7386127875258306,0,1,1,2.7386127875258306,0" style="fill: #4c78a8; stroke-width: 2; stroke-dasharray: 4,2; opacity: 0;"></path><path transform="translate(289.86486486486484,119.13784681018663)" d="M2.7386127875258306,0A2.7386127875258306,2.7386127875258306,0,1,1,-2.7386127875258306,0A2.7386127875258306,2.7386127875258306,0,1,1,2.7386127875258306,0" style="fill: #4c78a8; stroke-width: 2; stroke-dasharray: 4,2; opacity: 0;"></path><path transform="translate(295.1351351351351,100.23100944216564)" d="M2.7386127875258306,0A2.7386127875258306,2.7386127875258306,0,1,1,-2.7386127875258306,0A2.7386127875258306,2.7386127875258306,0,1,1,2.7386127875258306,0" style="fill: #4c78a8; stroke-width: 2; stroke-dasharray: 4,2; opacity: 0;"></path><path transform="translate(300.4054054054054,77.25844321046793)" d="M2.7386127875258306,0A2.7386127875258306,2.7386127875258306,0,1,1,-2.7386127875258306,0A2.7386127875258306,2.7386127875258306,0,1,1,2.7386127875258306,0" style="fill: #4c78a8; stroke-width: 2; stroke-dasharray: 4,2; opacity: 0;"></path><path transform="translate(305.6756756756757,73.1208252313235)" d="M2.7386127875258306,0A2.7386127875258306,2.7386127875258306,0,1,1,-2.7386127875258306,0A2.7386127875258306,2.7386127875258306,0,1,1,2.7386127875258306,0" style="fill: #4c78a8; stroke-width: 2; stroke-dasharray: 4,2; opacity: 0;"></path><path transform="translate(310.94594594594594,71.67505524247188)" d="M2.7386127875258306,0A2.7386127875258306,2.7386127875258306,0,1,1,-2.7386127875258306,0A2.7386127875258306,2.7386127875258306,0,1,1,2.7386127875258306,0" style="fill: #4c78a8; stroke-width: 2; stroke-dasharray: 4,2; opacity: 0;"></path><path transform="translate(316.21621621621625,63.703351105046906)" d="M2.7386127875258306,0A2.7386127875258306,2.7386127875258306,0,1,1,-2.7386127875258306,0A2.7386127875258306,2.7386127875258306,0,1,1,2.7386127875258306,0" style="fill: #4c78a8; stroke-width: 2; stroke-dasharray: 4,2; opacity: 0;"></path><path transform="translate(321.4864864864865,57.34515822589831)" d="M2.7386127875258306,0A2.7386127875258306,2.7386127875258306,0,1,1,-2.7386127875258306,0A2.7386127875258306,2.7386127875258306,0,1,1,2.7386127875258306,0" style="fill: #4c78a8; stroke-width: 2; stroke-dasharray: 4,2; opacity: 0;"></path><path transform="translate(326.7567567567567,51.92951152732697)" d="M2.7386127875258306,0A2.7386127875258306,2.7386127875258306,0,1,1,-2.7386127875258306,0A2.7386127875258306,2.7386127875258306,0,1,1,2.7386127875258306,0" style="fill: #4c78a8; stroke-width: 2; stroke-dasharray: 4,2; opacity: 0;"></path><path transform="translate(332.02702702702703,53.175589528768164)" d="M2.7386127875258306,0A2.7386127875258306,2.7386127875258306,0,1,1,-2.7386127875258306,0A2.7386127875258306,2.7386127875258306,0,1,1,2.7386127875258306,0" style="fill: #4c78a8; stroke-width: 2; stroke-dasharray: 4,2; opacity: 0;"></path><path transform="translate(337.2972972972973,63.49567143814)" d="M2.7386127875258306,0A2.7386127875258306,2.7386127875258306,0,1,1,-2.7386127875258306,0A2.7386127875258306,2.7386127875258306,0,1,1,2.7386127875258306,0" style="fill: #4c78a8; stroke-width: 2; stroke-dasharray: 4,2; opacity: 0;"></path><path transform="translate(342.56756756756755,64.44620529821374)" d="M2.7386127875258306,0A2.7386127875258306,2.7386127875258306,0,1,1,-2.7386127875258306,0A2.7386127875258306,2.7386127875258306,0,1,1,2.7386127875258306,0" style="fill: #4c78a8; stroke-width: 2; stroke-dasharray: 4,2; opacity: 0;"></path><path transform="translate(347.83783783783787,66.19550710792923)" d="M2.7386127875258306,0A2.7386127875258306,2.7386127875258306,0,1,1,-2.7386127875258306,0A2.7386127875258306,2.7386127875258306,0,1,1,2.7386127875258306,0" style="fill: #4c78a8; stroke-width: 2; stroke-dasharray: 4,2; opacity: 0;"></path><path transform="translate(353.1081081081081,73.24862810326619)" d="M2.7386127875258306,0A2.7386127875258306,2.7386127875258306,0,1,1,-2.7386127875258306,0A2.7386127875258306,2.7386127875258306,0,1,1,2.7386127875258306,0" style="fill: #4c78a8; stroke-width: 2; stroke-dasharray: 4,2; opacity: 0;"></path><path transform="translate(358.37837837837833,79.6148086619112)" d="M2.7386127875258306,0A2.7386127875258306,2.7386127875258306,0,1,1,-2.7386127875258306,0A2.7386127875258306,2.7386127875258306,0,1,1,2.7386127875258306,0" style="fill: #4c78a8; stroke-width: 2; stroke-dasharray: 4,2; opacity: 0;"></path><path transform="translate(363.64864864864865,83.18530139680996)" d="M2.7386127875258306,0A2.7386127875258306,2.7386127875258306,0,1,1,-2.7386127875258306,0A2.7386127875258306,2.7386127875258306,0,1,1,2.7386127875258306,0" style="fill: #4c78a8; stroke-width: 2; stroke-dasharray: 4,2; opacity: 0;"></path><path transform="translate(368.9189189189189,93.40154347272836)" d="M2.7386127875258306,0A2.7386127875258306,2.7386127875258306,0,1,1,-2.7386127875258306,0A2.7386127875258306,2.7386127875258306,0,1,1,2.7386127875258306,0" style="fill: #4c78a8; stroke-width: 2; stroke-dasharray: 4,2; opacity: 0;"></path><path transform="translate(374.1891891891892,89.06423350617348)" d="M2.7386127875258306,0A2.7386127875258306,2.7386127875258306,0,1,1,-2.7386127875258306,0A2.7386127875258306,2.7386127875258306,0,1,1,2.7386127875258306,0" style="fill: #4c78a8; stroke-width: 2; stroke-dasharray: 4,2; opacity: 0;"></path><path transform="translate(379.4594594594595,89.743186263369)" d="M2.7386127875258306,0A2.7386127875258306,2.7386127875258306,0,1,1,-2.7386127875258306,0A2.7386127875258306,2.7386127875258306,0,1,1,2.7386127875258306,0" style="fill: #4c78a8; stroke-width: 2; stroke-dasharray: 4,2; opacity: 0;"></path><path transform="translate(384.72972972972974,89.4716051604908)" d="M2.7386127875258306,0A2.7386127875258306,2.7386127875258306,0,1,1,-2.7386127875258306,0A2.7386127875258306,2.7386127875258306,0,1,1,2.7386127875258306,0" style="fill: #4c78a8; stroke-width: 2; stroke-dasharray: 4,2; opacity: 0;"></path><path transform="translate(390,101.51702584108891)" d="M2.7386127875258306,0A2.7386127875258306,2.7386127875258306,0,1,1,-2.7386127875258306,0A2.7386127875258306,2.7386127875258306,0,1,1,2.7386127875258306,0" style="fill: #4c78a8; stroke-width: 2; stroke-dasharray: 4,2; opacity: 0;"></path><path transform="translate(395.27027027027026,93.4095311522248)" d="M2.7386127875258306,0A2.7386127875258306,2.7386127875258306,0,1,1,-2.7386127875258306,0A2.7386127875258306,2.7386127875258306,0,1,1,2.7386127875258306,0" style="fill: #4c78a8; stroke-width: 2; stroke-dasharray: 4,2; opacity: 0;"></path><path transform="translate(400.5405405405405,91.62029094502722)" d="M2.7386127875258306,0A2.7386127875258306,2.7386127875258306,0,1,1,-2.7386127875258306,0A2.7386127875258306,2.7386127875258306,0,1,1,2.7386127875258306,0" style="fill: #4c78a8; stroke-width: 2; stroke-dasharray: 4,2; opacity: 0;"></path><path transform="translate(405.81081081081084,78.99975734068704)" d="M2.7386127875258306,0A2.7386127875258306,2.7386127875258306,0,1,1,-2.7386127875258306,0A2.7386127875258306,2.7386127875258306,0,1,1,2.7386127875258306,0" style="fill: #4c78a8; stroke-width: 2; stroke-dasharray: 4,2; opacity: 0;"></path><path transform="translate(411.0810810810811,76.62741653025093)" d="M2.7386127875258306,0A2.7386127875258306,2.7386127875258306,0,1,1,-2.7386127875258306,0A2.7386127875258306,2.7386127875258306,0,1,1,2.7386127875258306,0" style="fill: #4c78a8; stroke-width: 2; stroke-dasharray: 4,2; opacity: 0;"></path><path transform="translate(416.3513513513513,72.01852546081783)" d="M2.7386127875258306,0A2.7386127875258306,2.7386127875258306,0,1,1,-2.7386127875258306,0A2.7386127875258306,2.7386127875258306,0,1,1,2.7386127875258306,0" style="fill: #4c78a8; stroke-width: 2; stroke-dasharray: 4,2; opacity: 0;"></path><path transform="translate(421.6216216216216,71.60316612700413)" d="M2.7386127875258306,0A2.7386127875258306,2.7386127875258306,0,1,1,-2.7386127875258306,0A2.7386127875258306,2.7386127875258306,0,1,1,2.7386127875258306,0" style="fill: #4c78a8; stroke-width: 2; stroke-dasharray: 4,2; opacity: 0;"></path><path transform="translate(426.8918918918919,45.69113384062467)" d="M2.7386127875258306,0A2.7386127875258306,2.7386127875258306,0,1,1,-2.7386127875258306,0A2.7386127875258306,2.7386127875258306,0,1,1,2.7386127875258306,0" style="fill: #4c78a8; stroke-width: 2; stroke-dasharray: 4,2; opacity: 0;"></path><path transform="translate(432.1621621621622,39.724337256800524)" d="M2.7386127875258306,0A2.7386127875258306,2.7386127875258306,0,1,1,-2.7386127875258306,0A2.7386127875258306,2.7386127875258306,0,1,1,2.7386127875258306,0" style="fill: #4c78a8; stroke-width: 2; stroke-dasharray: 4,2; opacity: 0;"></path><path transform="translate(437.43243243243245,28.565549000304806)" d="M2.7386127875258306,0A2.7386127875258306,2.7386127875258306,0,1,1,-2.7386127875258306,0A2.7386127875258306,2.7386127875258306,0,1,1,2.7386127875258306,0" style="fill: #4c78a8; stroke-width: 2; stroke-dasharray: 4,2; opacity: 0;"></path><path transform="translate(442.7027027027027,16.695857268627933)" d="M2.7386127875258306,0A2.7386127875258306,2.7386127875258306,0,1,1,-2.7386127875258306,0A2.7386127875258306,2.7386127875258306,0,1,1,2.7386127875258306,0" style="fill: #4c78a8; stroke-width: 2; stroke-dasharray: 4,2; opacity: 0;"></path><path transform="translate(447.97297297297297,9.994194171133369)" d="M2.7386127875258306,0A2.7386127875258306,2.7386127875258306,0,1,1,-2.7386127875258306,0A2.7386127875258306,2.7386127875258306,0,1,1,2.7386127875258306,0" style="fill: #4c78a8; stroke-width: 2; stroke-dasharray: 4,2; opacity: 0;"></path><path transform="translate(453.2432432432432,10.792962120775185)" d="M2.7386127875258306,0A2.7386127875258306,2.7386127875258306,0,1,1,-2.7386127875258306,0A2.7386127875258306,2.7386127875258306,0,1,1,2.7386127875258306,0" style="fill: #4c78a8; stroke-width: 2; stroke-dasharray: 4,2; opacity: 0;"></path><path transform="translate(458.5135135135135,10.705097646314583)" d="M2.7386127875258306,0A2.7386127875258306,2.7386127875258306,0,1,1,-2.7386127875258306,0A2.7386127875258306,2.7386127875258306,0,1,1,2.7386127875258306,0" style="fill: #4c78a8; stroke-width: 2; stroke-dasharray: 4,2; opacity: 0;"></path><path transform="translate(463.7837837837838,5.225549511771926)" d="M2.7386127875258306,0A2.7386127875258306,2.7386127875258306,0,1,1,-2.7386127875258306,0A2.7386127875258306,2.7386127875258306,0,1,1,2.7386127875258306,0" style="fill: #4c78a8; stroke-width: 2; stroke-dasharray: 4,2; opacity: 0;"></path><path transform="translate(469.05405405405406,3.036925329753415)" d="M2.7386127875258306,0A2.7386127875258306,2.7386127875258306,0,1,1,-2.7386127875258306,0A2.7386127875258306,2.7386127875258306,0,1,1,2.7386127875258306,0" style="fill: #4c78a8; stroke-width: 2; stroke-dasharray: 4,2; opacity: 0;"></path><path transform="translate(474.3243243243243,8.859943682642063)" d="M2.7386127875258306,0A2.7386127875258306,2.7386127875258306,0,1,1,-2.7386127875258306,0A2.7386127875258306,2.7386127875258306,0,1,1,2.7386127875258306,0" style="fill: #4c78a8; stroke-width: 2; stroke-dasharray: 4,2; opacity: 0;"></path><path transform="translate(479.5945945945946,14.730888112509138)" d="M2.7386127875258306,0A2.7386127875258306,2.7386127875258306,0,1,1,-2.7386127875258306,0A2.7386127875258306,2.7386127875258306,0,1,1,2.7386127875258306,0" style="fill: #4c78a8; stroke-width: 2; stroke-dasharray: 4,2; opacity: 0;"></path><path transform="translate(484.86486486486484,22.478937224034436)" d="M2.7386127875258306,0A2.7386127875258306,2.7386127875258306,0,1,1,-2.7386127875258306,0A2.7386127875258306,2.7386127875258306,0,1,1,2.7386127875258306,0" style="fill: #4c78a8; stroke-width: 2; stroke-dasharray: 4,2; opacity: 0;"></path><path transform="translate(490.13513513513516,21.360662094535936)" d="M2.7386127875258306,0A2.7386127875258306,2.7386127875258306,0,1,1,-2.7386127875258306,0A2.7386127875258306,2.7386127875258306,0,1,1,2.7386127875258306,0" style="fill: #4c78a8; stroke-width: 2; stroke-dasharray: 4,2; opacity: 0;"></path><path transform="translate(495.4054054054054,20.92133972223298)" d="M2.7386127875258306,0A2.7386127875258306,2.7386127875258306,0,1,1,-2.7386127875258306,0A2.7386127875258306,2.7386127875258306,0,1,1,2.7386127875258306,0" style="fill: #4c78a8; stroke-width: 2; stroke-dasharray: 4,2; opacity: 0;"></path><path transform="translate(500.6756756756757,27.01593917799977)" d="M2.7386127875258306,0A2.7386127875258306,2.7386127875258306,0,1,1,-2.7386127875258306,0A2.7386127875258306,2.7386127875258306,0,1,1,2.7386127875258306,0" style="fill: #4c78a8; stroke-width: 2; stroke-dasharray: 4,2; opacity: 0;"></path><path transform="translate(505.945945945946,35.26721209779937)" d="M2.7386127875258306,0A2.7386127875258306,2.7386127875258306,0,1,1,-2.7386127875258306,0A2.7386127875258306,2.7386127875258306,0,1,1,2.7386127875258306,0" style="fill: #4c78a8; stroke-width: 2; stroke-dasharray: 4,2; opacity: 0;"></path><path transform="translate(511.2162162162162,37.42388556183221)" d="M2.7386127875258306,0A2.7386127875258306,2.7386127875258306,0,1,1,-2.7386127875258306,0A2.7386127875258306,2.7386127875258306,0,1,1,2.7386127875258306,0" style="fill: #4c78a8; stroke-width: 2; stroke-dasharray: 4,2; opacity: 0;"></path><path transform="translate(516.4864864864865,35.666596072620294)" d="M2.7386127875258306,0A2.7386127875258306,2.7386127875258306,0,1,1,-2.7386127875258306,0A2.7386127875258306,2.7386127875258306,0,1,1,2.7386127875258306,0" style="fill: #4c78a8; stroke-width: 2; stroke-dasharray: 4,2; opacity: 0;"></path><path transform="translate(521.7567567567568,43.84597987695213)" d="M2.7386127875258306,0A2.7386127875258306,2.7386127875258306,0,1,1,-2.7386127875258306,0A2.7386127875258306,2.7386127875258306,0,1,1,2.7386127875258306,0" style="fill: #4c78a8; stroke-width: 2; stroke-dasharray: 4,2; opacity: 0;"></path><path transform="translate(527.0270270270271,49.15778674207002)" d="M2.7386127875258306,0A2.7386127875258306,2.7386127875258306,0,1,1,-2.7386127875258306,0A2.7386127875258306,2.7386127875258306,0,1,1,2.7386127875258306,0" style="fill: #4c78a8; stroke-width: 2; stroke-dasharray: 4,2; opacity: 0;"></path><path transform="translate(532.2972972972973,49.93259165322253)" d="M2.7386127875258306,0A2.7386127875258306,2.7386127875258306,0,1,1,-2.7386127875258306,0A2.7386127875258306,2.7386127875258306,0,1,1,2.7386127875258306,0" style="fill: #4c78a8; stroke-width: 2; stroke-dasharray: 4,2; opacity: 0;"></path><path transform="translate(537.5675675675676,63.687375746054045)" d="M2.7386127875258306,0A2.7386127875258306,2.7386127875258306,0,1,1,-2.7386127875258306,0A2.7386127875258306,2.7386127875258306,0,1,1,2.7386127875258306,0" style="fill: #4c78a8; stroke-width: 2; stroke-dasharray: 4,2; opacity: 0;"></path><path transform="translate(542.8378378378378,84.75088657810787)" d="M2.7386127875258306,0A2.7386127875258306,2.7386127875258306,0,1,1,-2.7386127875258306,0A2.7386127875258306,2.7386127875258306,0,1,1,2.7386127875258306,0" style="fill: #4c78a8; stroke-width: 2; stroke-dasharray: 4,2; opacity: 0;"></path><path transform="translate(548.1081081081081,116.76550599975056)" d="M2.7386127875258306,0A2.7386127875258306,2.7386127875258306,0,1,1,-2.7386127875258306,0A2.7386127875258306,2.7386127875258306,0,1,1,2.7386127875258306,0" style="fill: #4c78a8; stroke-width: 2; stroke-dasharray: 4,2; opacity: 0;"></path><path transform="translate(0,249.9600616025179)" d="M2.7386127875258306,0A2.7386127875258306,2.7386127875258306,0,1,1,-2.7386127875258306,0A2.7386127875258306,2.7386127875258306,0,1,1,2.7386127875258306,0" style="fill: #4c78a8; stroke-width: 2; stroke-dasharray: 1,0; opacity: 0;"></path><path transform="translate(5.27027027027027,249.92811088453223)" d="M2.7386127875258306,0A2.7386127875258306,2.7386127875258306,0,1,1,-2.7386127875258306,0A2.7386127875258306,2.7386127875258306,0,1,1,2.7386127875258306,0" style="fill: #4c78a8; stroke-width: 2; stroke-dasharray: 1,0; opacity: 0;"></path><path transform="translate(10.54054054054054,249.88817248705016)" d="M2.7386127875258306,0A2.7386127875258306,2.7386127875258306,0,1,1,-2.7386127875258306,0A2.7386127875258306,2.7386127875258306,0,1,1,2.7386127875258306,0" style="fill: #4c78a8; stroke-width: 2; stroke-dasharray: 1,0; opacity: 0;"></path><path transform="translate(15.810810810810812,249.85622176906446)" d="M2.7386127875258306,0A2.7386127875258306,2.7386127875258306,0,1,1,-2.7386127875258306,0A2.7386127875258306,2.7386127875258306,0,1,1,2.7386127875258306,0" style="fill: #4c78a8; stroke-width: 2; stroke-dasharray: 1,0; opacity: 0;"></path><path transform="translate(21.08108108108108,249.5526899482006)" d="M2.7386127875258306,0A2.7386127875258306,2.7386127875258306,0,1,1,-2.7386127875258306,0A2.7386127875258306,2.7386127875258306,0,1,1,2.7386127875258306,0" style="fill: #4c78a8; stroke-width: 2; stroke-dasharray: 1,0; opacity: 0;"></path><path transform="translate(26.35135135135135,249.02550310143704)" d="M2.7386127875258306,0A2.7386127875258306,2.7386127875258306,0,1,1,-2.7386127875258306,0A2.7386127875258306,2.7386127875258306,0,1,1,2.7386127875258306,0" style="fill: #4c78a8; stroke-width: 2; stroke-dasharray: 1,0; opacity: 0;"></path><path transform="translate(31.621621621621625,248.62611912661615)" d="M2.7386127875258306,0A2.7386127875258306,2.7386127875258306,0,1,1,-2.7386127875258306,0A2.7386127875258306,2.7386127875258306,0,1,1,2.7386127875258306,0" style="fill: #4c78a8; stroke-width: 2; stroke-dasharray: 1,0; opacity: 0;"></path><path transform="translate(36.89189189189189,248.0270431643848)" d="M2.7386127875258306,0A2.7386127875258306,2.7386127875258306,0,1,1,-2.7386127875258306,0A2.7386127875258306,2.7386127875258306,0,1,1,2.7386127875258306,0" style="fill: #4c78a8; stroke-width: 2; stroke-dasharray: 1,0; opacity: 0;"></path><path transform="translate(42.16216216216216,247.18034913776452)" d="M2.7386127875258306,0A2.7386127875258306,2.7386127875258306,0,1,1,-2.7386127875258306,0A2.7386127875258306,2.7386127875258306,0,1,1,2.7386127875258306,0" style="fill: #4c78a8; stroke-width: 2; stroke-dasharray: 1,0; opacity: 0;"></path><path transform="translate(47.432432432432435,246.58127317553317)" d="M2.7386127875258306,0A2.7386127875258306,2.7386127875258306,0,1,1,-2.7386127875258306,0A2.7386127875258306,2.7386127875258306,0,1,1,2.7386127875258306,0" style="fill: #4c78a8; stroke-width: 2; stroke-dasharray: 1,0; opacity: 0;"></path><path transform="translate(52.7027027027027,246.3256674316478)" d="M2.7386127875258306,0A2.7386127875258306,2.7386127875258306,0,1,1,-2.7386127875258306,0A2.7386127875258306,2.7386127875258306,0,1,1,2.7386127875258306,0" style="fill: #4c78a8; stroke-width: 2; stroke-dasharray: 1,0; opacity: 0;"></path><path transform="translate(57.972972972972975,245.63073931545946)" d="M2.7386127875258306,0A2.7386127875258306,2.7386127875258306,0,1,1,-2.7386127875258306,0A2.7386127875258306,2.7386127875258306,0,1,1,2.7386127875258306,0" style="fill: #4c78a8; stroke-width: 2; stroke-dasharray: 1,0; opacity: 0;"></path><path transform="translate(63.24324324324325,244.32874755754332)" d="M2.7386127875258306,0A2.7386127875258306,2.7386127875258306,0,1,1,-2.7386127875258306,0A2.7386127875258306,2.7386127875258306,0,1,1,2.7386127875258306,0" style="fill: #4c78a8; stroke-width: 2; stroke-dasharray: 1,0; opacity: 0;"></path><path transform="translate(68.51351351351352,242.68328558128127)" d="M2.7386127875258306,0A2.7386127875258306,2.7386127875258306,0,1,1,-2.7386127875258306,0A2.7386127875258306,2.7386127875258306,0,1,1,2.7386127875258306,0" style="fill: #4c78a8; stroke-width: 2; stroke-dasharray: 1,0; opacity: 0;"></path><path transform="translate(73.78378378378378,240.06332670645622)" d="M2.7386127875258306,0A2.7386127875258306,2.7386127875258306,0,1,1,-2.7386127875258306,0A2.7386127875258306,2.7386127875258306,0,1,1,2.7386127875258306,0" style="fill: #4c78a8; stroke-width: 2; stroke-dasharray: 1,0; opacity: 0;"></path><path transform="translate(79.05405405405406,236.8762425873855)" d="M2.7386127875258306,0A2.7386127875258306,2.7386127875258306,0,1,1,-2.7386127875258306,0A2.7386127875258306,2.7386127875258306,0,1,1,2.7386127875258306,0" style="fill: #4c78a8; stroke-width: 2; stroke-dasharray: 1,0; opacity: 0;"></path><path transform="translate(84.32432432432432,235.28669436759836)" d="M2.7386127875258306,0A2.7386127875258306,2.7386127875258306,0,1,1,-2.7386127875258306,0A2.7386127875258306,2.7386127875258306,0,1,1,2.7386127875258306,0" style="fill: #4c78a8; stroke-width: 2; stroke-dasharray: 1,0; opacity: 0;"></path><path transform="translate(89.59459459459458,234.9032857517703)" d="M2.7386127875258306,0A2.7386127875258306,2.7386127875258306,0,1,1,-2.7386127875258306,0A2.7386127875258306,2.7386127875258306,0,1,1,2.7386127875258306,0" style="fill: #4c78a8; stroke-width: 2; stroke-dasharray: 1,0; opacity: 0;"></path><path transform="translate(94.86486486486487,230.022813579459)" d="M2.7386127875258306,0A2.7386127875258306,2.7386127875258306,0,1,1,-2.7386127875258306,0A2.7386127875258306,2.7386127875258306,0,1,1,2.7386127875258306,0" style="fill: #4c78a8; stroke-width: 2; stroke-dasharray: 1,0; opacity: 0;"></path><path transform="translate(100.13513513513513,226.18872742117844)" d="M2.7386127875258306,0A2.7386127875258306,2.7386127875258306,0,1,1,-2.7386127875258306,0A2.7386127875258306,2.7386127875258306,0,1,1,2.7386127875258306,0" style="fill: #4c78a8; stroke-width: 2; stroke-dasharray: 1,0; opacity: 0;"></path><path transform="translate(105.4054054054054,219.77462078555493)" d="M2.7386127875258306,0A2.7386127875258306,2.7386127875258306,0,1,1,-2.7386127875258306,0A2.7386127875258306,2.7386127875258306,0,1,1,2.7386127875258306,0" style="fill: #4c78a8; stroke-width: 2; stroke-dasharray: 1,0; opacity: 0;"></path><path transform="translate(110.67567567567568,215.4772492164821)" d="M2.7386127875258306,0A2.7386127875258306,2.7386127875258306,0,1,1,-2.7386127875258306,0A2.7386127875258306,2.7386127875258306,0,1,1,2.7386127875258306,0" style="fill: #4c78a8; stroke-width: 2; stroke-dasharray: 1,0; opacity: 0;"></path><path transform="translate(115.94594594594595,211.26774212186993)" d="M2.7386127875258306,0A2.7386127875258306,2.7386127875258306,0,1,1,-2.7386127875258306,0A2.7386127875258306,2.7386127875258306,0,1,1,2.7386127875258306,0" style="fill: #4c78a8; stroke-width: 2; stroke-dasharray: 1,0; opacity: 0;"></path><path transform="translate(121.21621621621621,211.0281117369774)" d="M2.7386127875258306,0A2.7386127875258306,2.7386127875258306,0,1,1,-2.7386127875258306,0A2.7386127875258306,2.7386127875258306,0,1,1,2.7386127875258306,0" style="fill: #4c78a8; stroke-width: 2; stroke-dasharray: 1,0; opacity: 0;"></path><path transform="translate(126.4864864864865,210.83640742906337)" d="M2.7386127875258306,0A2.7386127875258306,2.7386127875258306,0,1,1,-2.7386127875258306,0A2.7386127875258306,2.7386127875258306,0,1,1,2.7386127875258306,0" style="fill: #4c78a8; stroke-width: 2; stroke-dasharray: 1,0; opacity: 0;"></path><path transform="translate(131.75675675675677,209.71014462006846)" d="M2.7386127875258306,0A2.7386127875258306,2.7386127875258306,0,1,1,-2.7386127875258306,0A2.7386127875258306,2.7386127875258306,0,1,1,2.7386127875258306,0" style="fill: #4c78a8; stroke-width: 2; stroke-dasharray: 1,0; opacity: 0;"></path><path transform="translate(137.02702702702703,206.89848143732937)" d="M2.7386127875258306,0A2.7386127875258306,2.7386127875258306,0,1,1,-2.7386127875258306,0A2.7386127875258306,2.7386127875258306,0,1,1,2.7386127875258306,0" style="fill: #4c78a8; stroke-width: 2; stroke-dasharray: 1,0; opacity: 0;"></path><path transform="translate(142.2972972972973,207.52152043804998)" d="M2.7386127875258306,0A2.7386127875258306,2.7386127875258306,0,1,1,-2.7386127875258306,0A2.7386127875258306,2.7386127875258306,0,1,1,2.7386127875258306,0" style="fill: #4c78a8; stroke-width: 2; stroke-dasharray: 1,0; opacity: 0;"></path><path transform="translate(147.56756756756755,207.0422596682649)" d="M2.7386127875258306,0A2.7386127875258306,2.7386127875258306,0,1,1,-2.7386127875258306,0A2.7386127875258306,2.7386127875258306,0,1,1,2.7386127875258306,0" style="fill: #4c78a8; stroke-width: 2; stroke-dasharray: 1,0; opacity: 0;"></path><path transform="translate(152.83783783783784,213.91965171468064)" d="M2.7386127875258306,0A2.7386127875258306,2.7386127875258306,0,1,1,-2.7386127875258306,0A2.7386127875258306,2.7386127875258306,0,1,1,2.7386127875258306,0" style="fill: #4c78a8; stroke-width: 2; stroke-dasharray: 1,0; opacity: 0;"></path><path transform="translate(158.10810810810813,214.27110961252305)" d="M2.7386127875258306,0A2.7386127875258306,2.7386127875258306,0,1,1,-2.7386127875258306,0A2.7386127875258306,2.7386127875258306,0,1,1,2.7386127875258306,0" style="fill: #4c78a8; stroke-width: 2; stroke-dasharray: 1,0; opacity: 0;"></path><path transform="translate(163.37837837837836,214.03946690712692)" d="M2.7386127875258306,0A2.7386127875258306,2.7386127875258306,0,1,1,-2.7386127875258306,0A2.7386127875258306,2.7386127875258306,0,1,1,2.7386127875258306,0" style="fill: #4c78a8; stroke-width: 2; stroke-dasharray: 1,0; opacity: 0;"></path><path transform="translate(168.64864864864865,213.6720336502917)" d="M2.7386127875258306,0A2.7386127875258306,2.7386127875258306,0,1,1,-2.7386127875258306,0A2.7386127875258306,2.7386127875258306,0,1,1,2.7386127875258306,0" style="fill: #4c78a8; stroke-width: 2; stroke-dasharray: 1,0; opacity: 0;"></path><path transform="translate(173.91891891891893,212.9531424956141)" d="M2.7386127875258306,0A2.7386127875258306,2.7386127875258306,0,1,1,-2.7386127875258306,0A2.7386127875258306,2.7386127875258306,0,1,1,2.7386127875258306,0" style="fill: #4c78a8; stroke-width: 2; stroke-dasharray: 1,0; opacity: 0;"></path><path transform="translate(179.18918918918916,211.17188996791293)" d="M2.7386127875258306,0A2.7386127875258306,2.7386127875258306,0,1,1,-2.7386127875258306,0A2.7386127875258306,2.7386127875258306,0,1,1,2.7386127875258306,0" style="fill: #4c78a8; stroke-width: 2; stroke-dasharray: 1,0; opacity: 0;"></path><path transform="translate(184.45945945945945,210.28525754381053)" d="M2.7386127875258306,0A2.7386127875258306,2.7386127875258306,0,1,1,-2.7386127875258306,0A2.7386127875258306,2.7386127875258306,0,1,1,2.7386127875258306,0" style="fill: #4c78a8; stroke-width: 2; stroke-dasharray: 1,0; opacity: 0;"></path><path transform="translate(189.72972972972974,202.06593534199658)" d="M2.7386127875258306,0A2.7386127875258306,2.7386127875258306,0,1,1,-2.7386127875258306,0A2.7386127875258306,2.7386127875258306,0,1,1,2.7386127875258306,0" style="fill: #4c78a8; stroke-width: 2; stroke-dasharray: 1,0; opacity: 0;"></path><path transform="translate(195,200.1568799423527)" d="M2.7386127875258306,0A2.7386127875258306,2.7386127875258306,0,1,1,-2.7386127875258306,0A2.7386127875258306,2.7386127875258306,0,1,1,2.7386127875258306,0" style="fill: #4c78a8; stroke-width: 2; stroke-dasharray: 1,0; opacity: 0;"></path><path transform="translate(200.27027027027026,199.82938508299958)" d="M2.7386127875258306,0A2.7386127875258306,2.7386127875258306,0,1,1,-2.7386127875258306,0A2.7386127875258306,2.7386127875258306,0,1,1,2.7386127875258306,0" style="fill: #4c78a8; stroke-width: 2; stroke-dasharray: 1,0; opacity: 0;"></path><path transform="translate(205.54054054054055,197.48100731105276)" d="M2.7386127875258306,0A2.7386127875258306,2.7386127875258306,0,1,1,-2.7386127875258306,0A2.7386127875258306,2.7386127875258306,0,1,1,2.7386127875258306,0" style="fill: #4c78a8; stroke-width: 2; stroke-dasharray: 1,0; opacity: 0;"></path><path transform="translate(210.8108108108108,197.24137692616023)" d="M2.7386127875258306,0A2.7386127875258306,2.7386127875258306,0,1,1,-2.7386127875258306,0A2.7386127875258306,2.7386127875258306,0,1,1,2.7386127875258306,0" style="fill: #4c78a8; stroke-width: 2; stroke-dasharray: 1,0; opacity: 0;"></path><path transform="translate(216.0810810810811,197.59283482400258)" d="M2.7386127875258306,0A2.7386127875258306,2.7386127875258306,0,1,1,-2.7386127875258306,0A2.7386127875258306,2.7386127875258306,0,1,1,2.7386127875258306,0" style="fill: #4c78a8; stroke-width: 2; stroke-dasharray: 1,0; opacity: 0;"></path><path transform="translate(221.35135135135135,195.11665418011307)" d="M2.7386127875258306,0A2.7386127875258306,2.7386127875258306,0,1,1,-2.7386127875258306,0A2.7386127875258306,2.7386127875258306,0,1,1,2.7386127875258306,0" style="fill: #4c78a8; stroke-width: 2; stroke-dasharray: 1,0; opacity: 0;"></path><path transform="translate(226.6216216216216,194.85306075673128)" d="M2.7386127875258306,0A2.7386127875258306,2.7386127875258306,0,1,1,-2.7386127875258306,0A2.7386127875258306,2.7386127875258306,0,1,1,2.7386127875258306,0" style="fill: #4c78a8; stroke-width: 2; stroke-dasharray: 1,0; opacity: 0;"></path><path transform="translate(231.8918918918919,194.00636673011098)" d="M2.7386127875258306,0A2.7386127875258306,2.7386127875258306,0,1,1,-2.7386127875258306,0A2.7386127875258306,2.7386127875258306,0,1,1,2.7386127875258306,0" style="fill: #4c78a8; stroke-width: 2; stroke-dasharray: 1,0; opacity: 0;"></path><path transform="translate(237.16216216216216,194.21404639701785)" d="M2.7386127875258306,0A2.7386127875258306,2.7386127875258306,0,1,1,-2.7386127875258306,0A2.7386127875258306,2.7386127875258306,0,1,1,2.7386127875258306,0" style="fill: #4c78a8; stroke-width: 2; stroke-dasharray: 1,0; opacity: 0;"></path><path transform="translate(242.43243243243242,190.2521573667946)" d="M2.7386127875258306,0A2.7386127875258306,2.7386127875258306,0,1,1,-2.7386127875258306,0A2.7386127875258306,2.7386127875258306,0,1,1,2.7386127875258306,0" style="fill: #4c78a8; stroke-width: 2; stroke-dasharray: 1,0; opacity: 0;"></path><path transform="translate(247.7027027027027,182.64788648620484)" d="M2.7386127875258306,0A2.7386127875258306,2.7386127875258306,0,1,1,-2.7386127875258306,0A2.7386127875258306,2.7386127875258306,0,1,1,2.7386127875258306,0" style="fill: #4c78a8; stroke-width: 2; stroke-dasharray: 1,0; opacity: 0;"></path><path transform="translate(252.972972972973,174.8838620156867)" d="M2.7386127875258306,0A2.7386127875258306,2.7386127875258306,0,1,1,-2.7386127875258306,0A2.7386127875258306,2.7386127875258306,0,1,1,2.7386127875258306,0" style="fill: #4c78a8; stroke-width: 2; stroke-dasharray: 1,0; opacity: 0;"></path><path transform="translate(258.2432432432432,168.73334880344498)" d="M2.7386127875258306,0A2.7386127875258306,2.7386127875258306,0,1,1,-2.7386127875258306,0A2.7386127875258306,2.7386127875258306,0,1,1,2.7386127875258306,0" style="fill: #4c78a8; stroke-width: 2; stroke-dasharray: 1,0; opacity: 0;"></path><path transform="translate(263.51351351351354,157.0952997771642)" d="M2.7386127875258306,0A2.7386127875258306,2.7386127875258306,0,1,1,-2.7386127875258306,0A2.7386127875258306,2.7386127875258306,0,1,1,2.7386127875258306,0" style="fill: #4c78a8; stroke-width: 2; stroke-dasharray: 1,0; opacity: 0;"></path><path transform="translate(268.7837837837838,153.56474543974753)" d="M2.7386127875258306,0A2.7386127875258306,2.7386127875258306,0,1,1,-2.7386127875258306,0A2.7386127875258306,2.7386127875258306,0,1,1,2.7386127875258306,0" style="fill: #4c78a8; stroke-width: 2; stroke-dasharray: 1,0; opacity: 0;"></path><path transform="translate(274.05405405405406,153.26121361888363)" d="M2.7386127875258306,0A2.7386127875258306,2.7386127875258306,0,1,1,-2.7386127875258306,0A2.7386127875258306,2.7386127875258306,0,1,1,2.7386127875258306,0" style="fill: #4c78a8; stroke-width: 2; stroke-dasharray: 1,0; opacity: 0;"></path><path transform="translate(279.3243243243243,142.84527955555478)" d="M2.7386127875258306,0A2.7386127875258306,2.7386127875258306,0,1,1,-2.7386127875258306,0A2.7386127875258306,2.7386127875258306,0,1,1,2.7386127875258306,0" style="fill: #4c78a8; stroke-width: 2; stroke-dasharray: 1,0; opacity: 0;"></path><path transform="translate(284.5945945945946,131.89417096596588)" d="M2.7386127875258306,0A2.7386127875258306,2.7386127875258306,0,1,1,-2.7386127875258306,0A2.7386127875258306,2.7386127875258306,0,1,1,2.7386127875258306,0" style="fill: #4c78a8; stroke-width: 2; stroke-dasharray: 1,0; opacity: 0;"></path><path transform="translate(289.86486486486484,118.90620410479052)" d="M2.7386127875258306,0A2.7386127875258306,2.7386127875258306,0,1,1,-2.7386127875258306,0A2.7386127875258306,2.7386127875258306,0,1,1,2.7386127875258306,0" style="fill: #4c78a8; stroke-width: 2; stroke-dasharray: 1,0; opacity: 0;"></path><path transform="translate(295.1351351351351,99.99936673676952)" d="M2.7386127875258306,0A2.7386127875258306,2.7386127875258306,0,1,1,-2.7386127875258306,0A2.7386127875258306,2.7386127875258306,0,1,1,2.7386127875258306,0" style="fill: #4c78a8; stroke-width: 2; stroke-dasharray: 1,0; opacity: 0;"></path><path transform="translate(300.4054054054054,77.02680050507182)" d="M2.7386127875258306,0A2.7386127875258306,2.7386127875258306,0,1,1,-2.7386127875258306,0A2.7386127875258306,2.7386127875258306,0,1,1,2.7386127875258306,0" style="fill: #4c78a8; stroke-width: 2; stroke-dasharray: 1,0; opacity: 0;"></path><path transform="translate(305.6756756756757,72.88918252592741)" d="M2.7386127875258306,0A2.7386127875258306,2.7386127875258306,0,1,1,-2.7386127875258306,0A2.7386127875258306,2.7386127875258306,0,1,1,2.7386127875258306,0" style="fill: #4c78a8; stroke-width: 2; stroke-dasharray: 1,0; opacity: 0;"></path><path transform="translate(310.94594594594594,71.44341253707576)" d="M2.7386127875258306,0A2.7386127875258306,2.7386127875258306,0,1,1,-2.7386127875258306,0A2.7386127875258306,2.7386127875258306,0,1,1,2.7386127875258306,0" style="fill: #4c78a8; stroke-width: 2; stroke-dasharray: 1,0; opacity: 0;"></path><path transform="translate(316.21621621621625,63.52762215612567)" d="M2.7386127875258306,0A2.7386127875258306,2.7386127875258306,0,1,1,-2.7386127875258306,0A2.7386127875258306,2.7386127875258306,0,1,1,2.7386127875258306,0" style="fill: #4c78a8; stroke-width: 2; stroke-dasharray: 1,0; opacity: 0;"></path><path transform="translate(321.4864864864865,57.34515822589831)" d="M2.7386127875258306,0A2.7386127875258306,2.7386127875258306,0,1,1,-2.7386127875258306,0A2.7386127875258306,2.7386127875258306,0,1,1,2.7386127875258306,0" style="fill: #4c78a8; stroke-width: 2; stroke-dasharray: 1,0; opacity: 0;"></path><path transform="translate(326.7567567567567,51.92951152732697)" d="M2.7386127875258306,0A2.7386127875258306,2.7386127875258306,0,1,1,-2.7386127875258306,0A2.7386127875258306,2.7386127875258306,0,1,1,2.7386127875258306,0" style="fill: #4c78a8; stroke-width: 2; stroke-dasharray: 1,0; opacity: 0;"></path><path transform="translate(332.02702702702703,53.175589528768164)" d="M2.7386127875258306,0A2.7386127875258306,2.7386127875258306,0,1,1,-2.7386127875258306,0A2.7386127875258306,2.7386127875258306,0,1,1,2.7386127875258306,0" style="fill: #4c78a8; stroke-width: 2; stroke-dasharray: 1,0; opacity: 0;"></path><path transform="translate(337.2972972972973,63.49567143814)" d="M2.7386127875258306,0A2.7386127875258306,2.7386127875258306,0,1,1,-2.7386127875258306,0A2.7386127875258306,2.7386127875258306,0,1,1,2.7386127875258306,0" style="fill: #4c78a8; stroke-width: 2; stroke-dasharray: 1,0; opacity: 0;"></path><path transform="translate(342.56756756756755,64.44620529821374)" d="M2.7386127875258306,0A2.7386127875258306,2.7386127875258306,0,1,1,-2.7386127875258306,0A2.7386127875258306,2.7386127875258306,0,1,1,2.7386127875258306,0" style="fill: #4c78a8; stroke-width: 2; stroke-dasharray: 1,0; opacity: 0;"></path><path transform="translate(347.83783783783787,66.19550710792923)" d="M2.7386127875258306,0A2.7386127875258306,2.7386127875258306,0,1,1,-2.7386127875258306,0A2.7386127875258306,2.7386127875258306,0,1,1,2.7386127875258306,0" style="fill: #4c78a8; stroke-width: 2; stroke-dasharray: 1,0; opacity: 0;"></path><path transform="translate(353.1081081081081,73.24862810326619)" d="M2.7386127875258306,0A2.7386127875258306,2.7386127875258306,0,1,1,-2.7386127875258306,0A2.7386127875258306,2.7386127875258306,0,1,1,2.7386127875258306,0" style="fill: #4c78a8; stroke-width: 2; stroke-dasharray: 1,0; opacity: 0;"></path><path transform="translate(358.37837837837833,79.59883330291837)" d="M2.7386127875258306,0A2.7386127875258306,2.7386127875258306,0,1,1,-2.7386127875258306,0A2.7386127875258306,2.7386127875258306,0,1,1,2.7386127875258306,0" style="fill: #4c78a8; stroke-width: 2; stroke-dasharray: 1,0; opacity: 0;"></path><path transform="translate(363.64864864864865,83.16133835832073)" d="M2.7386127875258306,0A2.7386127875258306,2.7386127875258306,0,1,1,-2.7386127875258306,0A2.7386127875258306,2.7386127875258306,0,1,1,2.7386127875258306,0" style="fill: #4c78a8; stroke-width: 2; stroke-dasharray: 1,0; opacity: 0;"></path><path transform="translate(368.9189189189189,93.3775804342391)" d="M2.7386127875258306,0A2.7386127875258306,2.7386127875258306,0,1,1,-2.7386127875258306,0A2.7386127875258306,2.7386127875258306,0,1,1,2.7386127875258306,0" style="fill: #4c78a8; stroke-width: 2; stroke-dasharray: 1,0; opacity: 0;"></path><path transform="translate(374.1891891891892,89.04027046768422)" d="M2.7386127875258306,0A2.7386127875258306,2.7386127875258306,0,1,1,-2.7386127875258306,0A2.7386127875258306,2.7386127875258306,0,1,1,2.7386127875258306,0" style="fill: #4c78a8; stroke-width: 2; stroke-dasharray: 1,0; opacity: 0;"></path><path transform="translate(379.4594594594595,89.71922322487977)" d="M2.7386127875258306,0A2.7386127875258306,2.7386127875258306,0,1,1,-2.7386127875258306,0A2.7386127875258306,2.7386127875258306,0,1,1,2.7386127875258306,0" style="fill: #4c78a8; stroke-width: 2; stroke-dasharray: 1,0; opacity: 0;"></path><path transform="translate(384.72972972972974,89.44764212200154)" d="M2.7386127875258306,0A2.7386127875258306,2.7386127875258306,0,1,1,-2.7386127875258306,0A2.7386127875258306,2.7386127875258306,0,1,1,2.7386127875258306,0" style="fill: #4c78a8; stroke-width: 2; stroke-dasharray: 1,0; opacity: 0;"></path><path transform="translate(390,101.48507512310323)" d="M2.7386127875258306,0A2.7386127875258306,2.7386127875258306,0,1,1,-2.7386127875258306,0A2.7386127875258306,2.7386127875258306,0,1,1,2.7386127875258306,0" style="fill: #4c78a8; stroke-width: 2; stroke-dasharray: 1,0; opacity: 0;"></path><path transform="translate(395.27027027027026,93.36959275474271)" d="M2.7386127875258306,0A2.7386127875258306,2.7386127875258306,0,1,1,-2.7386127875258306,0A2.7386127875258306,2.7386127875258306,0,1,1,2.7386127875258306,0" style="fill: #4c78a8; stroke-width: 2; stroke-dasharray: 1,0; opacity: 0;"></path><path transform="translate(400.5405405405405,91.58035254754512)" d="M2.7386127875258306,0A2.7386127875258306,2.7386127875258306,0,1,1,-2.7386127875258306,0A2.7386127875258306,2.7386127875258306,0,1,1,2.7386127875258306,0" style="fill: #4c78a8; stroke-width: 2; stroke-dasharray: 1,0; opacity: 0;"></path><path transform="translate(405.81081081081084,78.9438435842121)" d="M2.7386127875258306,0A2.7386127875258306,2.7386127875258306,0,1,1,-2.7386127875258306,0A2.7386127875258306,2.7386127875258306,0,1,1,2.7386127875258306,0" style="fill: #4c78a8; stroke-width: 2; stroke-dasharray: 1,0; opacity: 0;"></path><path transform="translate(411.0810810810811,76.55552741478317)" d="M2.7386127875258306,0A2.7386127875258306,2.7386127875258306,0,1,1,-2.7386127875258306,0A2.7386127875258306,2.7386127875258306,0,1,1,2.7386127875258306,0" style="fill: #4c78a8; stroke-width: 2; stroke-dasharray: 1,0; opacity: 0;"></path><path transform="translate(416.3513513513513,71.93066098635725)" d="M2.7386127875258306,0A2.7386127875258306,2.7386127875258306,0,1,1,-2.7386127875258306,0A2.7386127875258306,2.7386127875258306,0,1,1,2.7386127875258306,0" style="fill: #4c78a8; stroke-width: 2; stroke-dasharray: 1,0; opacity: 0;"></path><path transform="translate(421.6216216216216,71.51530165254353)" d="M2.7386127875258306,0A2.7386127875258306,2.7386127875258306,0,1,1,-2.7386127875258306,0A2.7386127875258306,2.7386127875258306,0,1,1,2.7386127875258306,0" style="fill: #4c78a8; stroke-width: 2; stroke-dasharray: 1,0; opacity: 0;"></path><path transform="translate(426.8918918918919,45.56333096868201)" d="M2.7386127875258306,0A2.7386127875258306,2.7386127875258306,0,1,1,-2.7386127875258306,0A2.7386127875258306,2.7386127875258306,0,1,1,2.7386127875258306,0" style="fill: #4c78a8; stroke-width: 2; stroke-dasharray: 1,0; opacity: 0;"></path><path transform="translate(432.1621621621622,39.58854670536144)" d="M2.7386127875258306,0A2.7386127875258306,2.7386127875258306,0,1,1,-2.7386127875258306,0A2.7386127875258306,2.7386127875258306,0,1,1,2.7386127875258306,0" style="fill: #4c78a8; stroke-width: 2; stroke-dasharray: 1,0; opacity: 0;"></path><path transform="translate(437.43243243243245,28.429758448865723)" d="M2.7386127875258306,0A2.7386127875258306,2.7386127875258306,0,1,1,-2.7386127875258306,0A2.7386127875258306,2.7386127875258306,0,1,1,2.7386127875258306,0" style="fill: #4c78a8; stroke-width: 2; stroke-dasharray: 1,0; opacity: 0;"></path><path transform="translate(442.7027027027027,16.536103678699565)" d="M2.7386127875258306,0A2.7386127875258306,2.7386127875258306,0,1,1,-2.7386127875258306,0A2.7386127875258306,2.7386127875258306,0,1,1,2.7386127875258306,0" style="fill: #4c78a8; stroke-width: 2; stroke-dasharray: 1,0; opacity: 0;"></path><path transform="translate(447.97297297297297,9.850415940197866)" d="M2.7386127875258306,0A2.7386127875258306,2.7386127875258306,0,1,1,-2.7386127875258306,0A2.7386127875258306,2.7386127875258306,0,1,1,2.7386127875258306,0" style="fill: #4c78a8; stroke-width: 2; stroke-dasharray: 1,0; opacity: 0;"></path><path transform="translate(453.2432432432432,10.625220851350397)" d="M2.7386127875258306,0A2.7386127875258306,2.7386127875258306,0,1,1,-2.7386127875258306,0A2.7386127875258306,2.7386127875258306,0,1,1,2.7386127875258306,0" style="fill: #4c78a8; stroke-width: 2; stroke-dasharray: 1,0; opacity: 0;"></path><path transform="translate(458.5135135135135,10.537356376889823)" d="M2.7386127875258306,0A2.7386127875258306,2.7386127875258306,0,1,1,-2.7386127875258306,0A2.7386127875258306,2.7386127875258306,0,1,1,2.7386127875258306,0" style="fill: #4c78a8; stroke-width: 2; stroke-dasharray: 1,0; opacity: 0;"></path><path transform="translate(463.7837837837838,5.0657959218435575)" d="M2.7386127875258306,0A2.7386127875258306,2.7386127875258306,0,1,1,-2.7386127875258306,0A2.7386127875258306,2.7386127875258306,0,1,1,2.7386127875258306,0" style="fill: #4c78a8; stroke-width: 2; stroke-dasharray: 1,0; opacity: 0;"></path><path transform="translate(469.05405405405406,2.8851594193215204)" d="M2.7386127875258306,0A2.7386127875258306,2.7386127875258306,0,1,1,-2.7386127875258306,0A2.7386127875258306,2.7386127875258306,0,1,1,2.7386127875258306,0" style="fill: #4c78a8; stroke-width: 2; stroke-dasharray: 1,0; opacity: 0;"></path><path transform="translate(474.3243243243243,8.700190092713694)" d="M2.7386127875258306,0A2.7386127875258306,2.7386127875258306,0,1,1,-2.7386127875258306,0A2.7386127875258306,2.7386127875258306,0,1,1,2.7386127875258306,0" style="fill: #4c78a8; stroke-width: 2; stroke-dasharray: 1,0; opacity: 0;"></path><path transform="translate(479.5945945945946,14.579122202077189)" d="M2.7386127875258306,0A2.7386127875258306,2.7386127875258306,0,1,1,-2.7386127875258306,0A2.7386127875258306,2.7386127875258306,0,1,1,2.7386127875258306,0" style="fill: #4c78a8; stroke-width: 2; stroke-dasharray: 1,0; opacity: 0;"></path><path transform="translate(484.86486486486484,22.28723291612045)" d="M2.7386127875258306,0A2.7386127875258306,2.7386127875258306,0,1,1,-2.7386127875258306,0A2.7386127875258306,2.7386127875258306,0,1,1,2.7386127875258306,0" style="fill: #4c78a8; stroke-width: 2; stroke-dasharray: 1,0; opacity: 0;"></path><path transform="translate(490.13513513513516,21.144994748132667)" d="M2.7386127875258306,0A2.7386127875258306,2.7386127875258306,0,1,1,-2.7386127875258306,0A2.7386127875258306,2.7386127875258306,0,1,1,2.7386127875258306,0" style="fill: #4c78a8; stroke-width: 2; stroke-dasharray: 1,0; opacity: 0;"></path><path transform="translate(495.4054054054054,20.705672375829682)" d="M2.7386127875258306,0A2.7386127875258306,2.7386127875258306,0,1,1,-2.7386127875258306,0A2.7386127875258306,2.7386127875258306,0,1,1,2.7386127875258306,0" style="fill: #4c78a8; stroke-width: 2; stroke-dasharray: 1,0; opacity: 0;"></path><path transform="translate(500.6756756756757,26.82423487008573)" d="M2.7386127875258306,0A2.7386127875258306,2.7386127875258306,0,1,1,-2.7386127875258306,0A2.7386127875258306,2.7386127875258306,0,1,1,2.7386127875258306,0" style="fill: #4c78a8; stroke-width: 2; stroke-dasharray: 1,0; opacity: 0;"></path><path transform="translate(505.945945945946,35.0914831488782)" d="M2.7386127875258306,0A2.7386127875258306,2.7386127875258306,0,1,1,-2.7386127875258306,0A2.7386127875258306,2.7386127875258306,0,1,1,2.7386127875258306,0" style="fill: #4c78a8; stroke-width: 2; stroke-dasharray: 1,0; opacity: 0;"></path><path transform="translate(511.2162162162162,37.11236606147192)" d="M2.7386127875258306,0A2.7386127875258306,2.7386127875258306,0,1,1,-2.7386127875258306,0A2.7386127875258306,2.7386127875258306,0,1,1,2.7386127875258306,0" style="fill: #4c78a8; stroke-width: 2; stroke-dasharray: 1,0; opacity: 0;"></path><path transform="translate(516.4864864864865,34.013146416861815)" d="M2.7386127875258306,0A2.7386127875258306,2.7386127875258306,0,1,1,-2.7386127875258306,0A2.7386127875258306,2.7386127875258306,0,1,1,2.7386127875258306,0" style="fill: #4c78a8; stroke-width: 2; stroke-dasharray: 1,0; opacity: 0;"></path><path transform="translate(521.7567567567568,27.583064422245425)" d="M2.7386127875258306,0A2.7386127875258306,2.7386127875258306,0,1,1,-2.7386127875258306,0A2.7386127875258306,2.7386127875258306,0,1,1,2.7386127875258306,0" style="fill: #4c78a8; stroke-width: 2; stroke-dasharray: 1,0; opacity: 0;"></path><path transform="translate(527.0270270270271,27.407335473324245)" d="M2.7386127875258306,0A2.7386127875258306,2.7386127875258306,0,1,1,-2.7386127875258306,0A2.7386127875258306,2.7386127875258306,0,1,1,2.7386127875258306,0" style="fill: #4c78a8; stroke-width: 2; stroke-dasharray: 1,0; opacity: 0;"></path><path transform="translate(532.2972972972973,28.142201986994685)" d="M2.7386127875258306,0A2.7386127875258306,2.7386127875258306,0,1,1,-2.7386127875258306,0A2.7386127875258306,2.7386127875258306,0,1,1,2.7386127875258306,0" style="fill: #4c78a8; stroke-width: 2; stroke-dasharray: 1,0; opacity: 0;"></path><path transform="translate(537.5675675675676,28.461709166851367)" d="M2.7386127875258306,0A2.7386127875258306,2.7386127875258306,0,1,1,-2.7386127875258306,0A2.7386127875258306,2.7386127875258306,0,1,1,2.7386127875258306,0" style="fill: #4c78a8; stroke-width: 2; stroke-dasharray: 1,0; opacity: 0;"></path><path transform="translate(542.8378378378378,31.193495554626306)" d="M2.7386127875258306,0A2.7386127875258306,2.7386127875258306,0,1,1,-2.7386127875258306,0A2.7386127875258306,2.7386127875258306,0,1,1,2.7386127875258306,0" style="fill: #4c78a8; stroke-width: 2; stroke-dasharray: 1,0; opacity: 0;"></path><path transform="translate(548.1081081081081,37.39992252334295)" d="M2.7386127875258306,0A2.7386127875258306,2.7386127875258306,0,1,1,-2.7386127875258306,0A2.7386127875258306,2.7386127875258306,0,1,1,2.7386127875258306,0" style="fill: #4c78a8; stroke-width: 2; stroke-dasharray: 1,0; opacity: 0;"></path><path transform="translate(553.3783783783783,53.23150328524309)" d="M2.7386127875258306,0A2.7386127875258306,2.7386127875258306,0,1,1,-2.7386127875258306,0A2.7386127875258306,2.7386127875258306,0,1,1,2.7386127875258306,0" style="fill: #4c78a8; stroke-width: 2; stroke-dasharray: 1,0; opacity: 0;"></path><path transform="translate(558.6486486486486,65.70027097915133)" d="M2.7386127875258306,0A2.7386127875258306,2.7386127875258306,0,1,1,-2.7386127875258306,0A2.7386127875258306,2.7386127875258306,0,1,1,2.7386127875258306,0" style="fill: #4c78a8; stroke-width: 2; stroke-dasharray: 1,0; opacity: 0;"></path><path transform="translate(563.918918918919,71.3315850241259)" d="M2.7386127875258306,0A2.7386127875258306,2.7386127875258306,0,1,1,-2.7386127875258306,0A2.7386127875258306,2.7386127875258306,0,1,1,2.7386127875258306,0" style="fill: #4c78a8; stroke-width: 2; stroke-dasharray: 1,0; opacity: 0;"></path><path transform="translate(569.1891891891892,71.10792999822618)" d="M2.7386127875258306,0A2.7386127875258306,2.7386127875258306,0,1,1,-2.7386127875258306,0A2.7386127875258306,2.7386127875258306,0,1,1,2.7386127875258306,0" style="fill: #4c78a8; stroke-width: 2; stroke-dasharray: 1,0; opacity: 0;"></path><path transform="translate(574.4594594594595,72.98503467988444)" d="M2.7386127875258306,0A2.7386127875258306,2.7386127875258306,0,1,1,-2.7386127875258306,0A2.7386127875258306,2.7386127875258306,0,1,1,2.7386127875258306,0" style="fill: #4c78a8; stroke-width: 2; stroke-dasharray: 1,0; opacity: 0;"></path><path transform="translate(579.7297297297297,84.63107138566161)" d="M2.7386127875258306,0A2.7386127875258306,2.7386127875258306,0,1,1,-2.7386127875258306,0A2.7386127875258306,2.7386127875258306,0,1,1,2.7386127875258306,0" style="fill: #4c78a8; stroke-width: 2; stroke-dasharray: 1,0; opacity: 0;"></path><path transform="translate(585,112.15661493031745)" d="M2.7386127875258306,0A2.7386127875258306,2.7386127875258306,0,1,1,-2.7386127875258306,0A2.7386127875258306,2.7386127875258306,0,1,1,2.7386127875258306,0" style="fill: #4c78a8; stroke-width: 2; stroke-dasharray: 1,0; opacity: 0;"></path></g></g><path class="foreground" d="" style="display: none; fill: none;"></path></g></g></g></svg>