<svg class="marks" width="649" height="360" viewBox="0 0 649 360" version="1.1" xmlns="http://www.w3.org/2000/svg" xmlns:xlink="http://www.w3.org/1999/xlink"><rect width="649" height="360" style="fill: white;"></rect><defs><clipPath id="clip1"><rect x="0" y="0" width="585" height="275"></rect></clipPath><clipPath id="clip2"><rect x="0" y="0" width="585" height="275"></rect></clipPath></defs><g transform="translate(51,41)"><g class="mark-group role-frame root"><g transform="translate(0,0)"><path class="background" d="M0.5,0.5h585v275h-585Z" style="fill: none; stroke: #ddd;"></path><g><g class="mark-group role-axis"><g transform="translate(0.5,275.5)"><path class="background" d="M0,0h0v0h0Z" style="pointer-events: none; fill: none;"></path><g><g class="mark-rule role-axis-grid" style="pointer-events: none;"><line transform="translate(46,-275)" x2="0" y2="275" style="fill: none; stroke: #ddd; stroke-width: 1; opacity: 1;"></line><line transform="translate(110,-275)" x2="0" y2="275" style="fill: none; stroke: #ddd; stroke-width: 1; opacity: 1;"></line><line transform="translate(175,-275)" x2="0" y2="275" style="fill: none; stroke: #ddd; stroke-width: 1; opacity: 1;"></line><line transform="translate(239,-275)" x2="0" y2="275" style="fill: none; stroke: #ddd; stroke-width: 1; opacity: 1;"></line><line transform="translate(304,-275)" x2="0" y2="275" style="fill: none; stroke: #ddd; stroke-width: 1; opacity: 1;"></line><line transform="translate(370,-275)" x2="0" y2="275" style="fill: none; stroke: #ddd; stroke-width: 1; opacity: 1;"></line><line transform="translate(433,-275)" x2="0" y2="275" style="fill: none; stroke: #ddd; stroke-width: 1; opacity: 1;"></line><line transform="translate(498,-275)" x2="0" y2="275" style="fill: none; stroke: #ddd; stroke-width: 1; opacity: 1;"></line><line transform="translate(562,-275)" x2="0" y2="275" style="fill: none; stroke: #ddd; stroke-width: 1; opacity: 1;"></line></g></g><path class="foreground" d="" style="pointer-events: none; display: none; fill: none;"></path></g></g><g class="mark-group role-axis"><g transform="translate(0.5,0.5)"><path class="background" d="M0,0h0v0h0Z" style="pointer-events: none; fill: none;"></path><g><g class="mark-rule role-axis-grid" style="pointer-events: none;"><line transform="translate(0,275)" x2="585" y2="0" style="fill: none; stroke: #ddd; stroke-width: 1; opacity: 1;"></line><line transform="translate(0,192)" x2="585" y2="0" style="fill: none; stroke: #ddd; stroke-width: 1; opacity: 1;"></line><line transform="translate(0,144)" x2="585" y2="0" style="fill: none; stroke: #ddd; stroke-width: 1; opacity: 1;"></line><line transform="translate(0,109)" x2="585" y2="0" style="fill: none; stroke: #ddd; stroke-width: 1; opacity: 1;"></line><line transform="translate(0,83)" x2="585" y2="0" style="fill: none; stroke: #ddd; stroke-width: 1; opacity: 1;"></line><line transform="translate(0,61)" x2="585" y2="0" style="fill: none; stroke: #ddd; stroke-width: 1; opacity: 1;"></line><line transform="translate(0,43)" x2="585" y2="0" style="fill: none; stroke: #ddd; stroke-width: 1; opacity: 1;"></line><line transform="translate(0,27)" x2="585" y2="0" style="fill: none; stroke: #ddd; stroke-width: 1; opacity: 1;"></line><line transform="translate(0,13)" x2="585" y2="0" style="fill: none; stroke: #ddd; stroke-width: 1; opacity: 1;"></line><line transform="translate(0,0)" x2="585" y2="0" style="fill: none; stroke: #ddd; stroke-width: 1; opacity: 1;"></line></g></g><path class="foreground" d="" style="pointer-events: none; display: none; fill: none;"></path></g></g><g class="mark-group role-axis"><g transform="translate(0.5,275.5)"><path class="background" d="M0,0h0v0h0Z" style="pointer-events: none; fill: none;"></path><g><g class="mark-rule role-axis-tick" style="pointer-events: none;"><line transform="translate(46,0)" x2="0" y2="5" style="fill: none; stroke: #888; stroke-width: 1; opacity: 1;"></line><line transform="translate(110,0)" x2="0" y2="5" style="fill: none; stroke: #888; stroke-width: 1; opacity: 1;"></line><line transform="translate(175,0)" x2="0" y2="5" style="fill: none; stroke: #888; stroke-width: 1; opacity: 1;"></line><line transform="translate(239,0)" x2="0" y2="5" style="fill: none; stroke: #888; stroke-width: 1; opacity: 1;"></line><line transform="translate(304,0)" x2="0" y2="5" style="fill: none; stroke: #888; stroke-width: 1; opacity: 1;"></line><line transform="translate(370,0)" x2="0" y2="5" style="fill: none; stroke: #888; stroke-width: 1; opacity: 1;"></line><line transform="translate(433,0)" x2="0" y2="5" style="fill: none; stroke: #888; stroke-width: 1; opacity: 1;"></line><line transform="translate(498,0)" x2="0" y2="5" style="fill: none; stroke: #888; stroke-width: 1; opacity: 1;"></line><line transform="translate(562,0)" x2="0" y2="5" style="fill: none; stroke: #888; stroke-width: 1; opacity: 1;"></line></g><g class="mark-text role-axis-label" style="pointer-events: none;"><text text-anchor="middle" transform="translate(46.462093862815884,18)" style="font-family: sans-serif; font-size: 14px; fill: #000; opacity: 1;">abril</text><text text-anchor="middle" transform="translate(109.81949458483754,18)" style="font-family: sans-serif; font-size: 14px; fill: #000; opacity: 1;">mayo</text><text text-anchor="middle" transform="translate(175.28880866425993,18)" style="font-family: sans-serif; font-size: 14px; fill: #000; opacity: 1;">junio</text><text text-anchor="middle" transform="translate(238.6462093862816,18)" style="font-family: sans-serif; font-size: 14px; fill: #000; opacity: 1;">julio</text><text text-anchor="middle" transform="translate(304.1155234657039,18)" style="font-family: sans-serif; font-size: 14px; fill: #000; opacity: 1;">agosto</text><text text-anchor="middle" transform="translate(369.58483754512633,18)" style="font-family: sans-serif; font-size: 14px; fill: #000; opacity: 1;">septiembre</text><text text-anchor="middle" transform="translate(432.942238267148,18)" style="font-family: sans-serif; font-size: 14px; fill: #000; opacity: 1;">octubre</text><text text-anchor="middle" transform="translate(498.4115523465704,18)" style="font-family: sans-serif; font-size: 14px; fill: #000; opacity: 1;">noviembre</text><text text-anchor="middle" transform="translate(561.768953068592,18)" style="font-family: sans-serif; font-size: 14px; fill: #000; opacity: 1;">diciembre</text></g><g class="mark-rule role-axis-domain" style="pointer-events: none;"><line transform="translate(0,0)" x2="585" y2="0" style="fill: none; stroke: #888; stroke-width: 1; opacity: 1;"></line></g><g class="mark-text role-axis-title" style="pointer-events: none;"><text text-anchor="middle" transform="translate(292.5,36)" style="font-family: sans-serif; font-size: 14px; font-weight: bold; fill: #000; opacity: 1;">Fecha de muestras</text></g></g><path class="foreground" d="" style="pointer-events: none; display: none; fill: none;"></path></g></g><g class="mark-group role-axis"><g transform="translate(0.5,0.5)"><path class="background" d="M0,0h0v0h0Z" style="pointer-events: none; fill: none;"></path><g><g class="mark-rule role-axis-tick" style="pointer-events: none;"><line transform="translate(0,275)" x2="-5" y2="0" style="fill: none; stroke: #888; stroke-width: 1; opacity: 1;"></line><line transform="translate(0,192)" x2="-5" y2="0" style="fill: none; stroke: #888; stroke-width: 1; opacity: 1;"></line><line transform="translate(0,144)" x2="-5" y2="0" style="fill: none; stroke: #888; stroke-width: 1; opacity: 1;"></line><line transform="translate(0,109)" x2="-5" y2="0" style="fill: none; stroke: #888; stroke-width: 1; opacity: 1;"></line><line transform="translate(0,83)" x2="-5" y2="0" style="fill: none; stroke: #888; stroke-width: 1; opacity: 1;"></line><line transform="translate(0,61)" x2="-5" y2="0" style="fill: none; stroke: #888; stroke-width: 1; opacity: 1;"></line><line transform="translate(0,43)" x2="-5" y2="0" style="fill: none; stroke: #888; stroke-width: 1; opacity: 1;"></line><line transform="translate(0,27)" x2="-5" y2="0" style="fill: none; stroke: #888; stroke-width: 1; opacity: 1;"></line><line transform="translate(0,13)" x2="-5" y2="0" style="fill: none; stroke: #888; stroke-width: 1; opacity: 1;"></line><line transform="translate(0,0)" x2="-5" y2="0" style="fill: none; stroke: #888; stroke-width: 1; opacity: 1;"></line></g><g class="mark-text role-axis-label" style="pointer-events: none;"><text text-anchor="end" transform="translate(-7,279)" style="font-family: sans-serif; font-size: 14px; fill: #000; opacity: 1;">1%</text><text text-anchor="end" transform="translate(-7,196.2167511924052)" style="font-family: sans-serif; font-size: 14px; fill: #000; opacity: 1;">2%</text><text text-anchor="end" transform="translate(-7,147.7916549520929)" style="font-family: sans-serif; font-size: 14px; fill: #000; opacity: 1;">3%</text><text text-anchor="end" transform="translate(-7,113.43350238481037)" style="font-family: sans-serif; font-size: 14px; fill: #000; opacity: 1;">4%</text><text text-anchor="end" transform="translate(-7,86.78324880759484)" style="font-family: sans-serif; font-size: 14px; fill: #000; opacity: 1;">5%</text><text text-anchor="end" transform="translate(-7,65.00840614449803)" style="font-family: sans-serif; font-size: 14px; fill: #000; opacity: 1;">6%</text><text text-anchor="end" transform="translate(-7,46.598038996079374)" style="font-family: sans-serif; font-size: 14px; fill: #000; opacity: 1;">7%</text><text text-anchor="end" transform="translate(-7,30.650253577215558)" style="font-family: sans-serif; font-size: 14px; fill: #000; opacity: 1;">8%</text><text text-anchor="end" transform="translate(-7,16.58330990418566)" style="font-family: sans-serif; font-size: 14px; fill: #000; opacity: 1;">9%</text><text text-anchor="end" transform="translate(-7,4)" style="font-family: sans-serif; font-size: 14px; fill: #000; opacity: 0;">10%</text></g><g class="mark-rule role-axis-domain" style="pointer-events: none;"><line transform="translate(0,275)" x2="0" y2="-275" style="fill: none; stroke: #888; stroke-width: 1; opacity: 1;"></line></g><g class="mark-text role-axis-title" style="pointer-events: none;"><text text-anchor="middle" transform="translate(-31.234375,137.5) rotate(-90) translate(0,-3)" style="font-family: sans-serif; font-size: 14px; font-weight: bold; fill: #000; opacity: 1;">Letalidad (CFR, 14 días)</text></g></g><path class="foreground" d="" style="pointer-events: none; display: none; fill: none;"></path></g></g><g class="mark-group role-scope pathgroup"><g transform="translate(0,0)"><path class="background" d="M0,0h585v275h-585Z" style="fill: none;"></path><g><g class="mark-line role-mark marks" clip-path="url(#clip1)"><path d="M0,-240.64184743271753L2.1119133574007223,-253.22515733690315L4.223826714801445,-275L6.3357400722021655,-259.7327348412964L8.44765342960289,-259.0522145811361L10.55956678700361,-248.88173386151445L12.671480144404331,-192.21675119240516L14.783393501805053,-163.61542300492448L16.89530685920578,-176.94948603370153L19.007220216606495,-185.51793108105787L21.11913357400722,-159.73944037095666L23.231046931407942,-150.2410293878983L25.342960288808662,-146.87544647735896L27.454873646209386,-111.38609599974349L29.566787003610106,-79.84812420177951L31.67870036101083,-73.22366958631153L33.79061371841156,-50.74421731294962L35.90252707581227,-22.086192716844995L38.01444043321299,-22.882402215933784L40.12635379061372,-32.91920766052129L42.23826714801444,-13.451902696513823L44.35018050541516,-9.958347479972279L46.462093862815884,13.897417764476097L48.57400722021661,29.48274165316382L50.685920577617324,34.09823737759647L52.797833935018055,39.99117080453808L54.90974729241877,33.315080587569284L57.021660649819495,33.657301898949385L59.13357400722021,35.940043011782606L61.24548736462094,41.19648581574959L63.35740072202166,41.668843580359706L65.46931407942238,17.496932619149757L67.58122743682311,31.804623210321402L69.69314079422382,33.01488554386978L71.80505415162455,31.334421884380127L73.91696750902527,33.391094793502305L76.02888086642598,16.691906097243216L78.14079422382672,0.350752036316726L80.25270758122744,-6.316640641145654L82.36462093862816,-15.655658940099515L84.47653429602887,-5.3428517555396295L86.5884476534296,-5.909451854278047L88.70036101083032,-12.126594309282918L90.81227436823106,1.8234091972286592L92.92418772563177,-1.4418402384022144L95.03610108303249,20.409902291920595L97.14801444043322,15.267265158703674L99.25992779783394,26.17157164373268L101.37184115523465,14.948357138713009L103.48375451263537,17.210045662744907L105.59566787003611,22.875596837857177L107.70758122743683,41.87929470534057L109.81949458483754,43.19370597911899L111.93140794223827,59.80808465882426L114.04332129963899,60.40975334957256L116.1552346570397,43.422019913157165L118.26714801444042,55.50933333002826L120.37906137184116,39.52718620464565L122.49097472924188,30.014729091893717L124.6028880866426,53.61856588441516L126.71480144404332,55.50933333002826L128.82671480144404,52.90977459026719L130.93862815884475,44.05898666313188L133.0505415162455,35.819100234334975L135.16245487364623,38.20016163509053L137.27436823104694,21.67272125240844L139.38628158844764,22.38574416143534L141.49819494584838,11.79985090987296L143.6101083032491,27.017169326708323L145.7220216606498,44.69257426326208L147.83393501805054,22.71340138347549L149.94584837545125,28.111201244268L152.05776173285196,19.325551569373687L154.16967509025272,-5.791727860001511L156.28158844765343,-23.925474195647034L158.39350180505417,-22.459262774112826L160.50541516245488,-15.94778541886382L162.6173285198556,-29.16468292317968L164.72924187725633,-31.733190143069063L166.84115523465704,3.5302367939223647L168.95306859205775,35.349286741209454L171.06498194945848,49.41623041423932L173.1768953068592,48.42509624031237L175.28880866425993,65.97932364709168L177.40072202166064,89.42001072969269L179.51263537906135,85.31544929897139L181.62454873646212,89.42001072969269L183.73646209386283,108.63462995787341L185.84837545126354,158.65216289043195L187.96028880866427,158.65216289043195L190.07220216606498,164.06420129727658L192.18411552346572,202.87371316520978L194.29602888086643,172.80695576383576L196.40794223826714,140.39987780681838L198.51985559566788,131.20834504790722L200.6317689530686,138.91624403797417L202.7436823104693,121.53813035551319L204.85559566787003,114.88081055703732L206.96750902527074,117.88552205325672L209.0794223826715,103.12776320709459L211.19133574007222,110.79068724557622L213.30324909747293,98.16988527311112L215.41516245487367,70.86160808902578L217.52707581227438,47.0509495622259L219.63898916967509,39.57116741763518L221.75090252707582,50.09761346229129L223.86281588447653,44.69257426326208L225.97472924187724,55.16200628421772L228.08664259927798,54.59192891292979L230.1985559566787,34.926392524705314L232.3104693140794,38.25574971267004L234.42238267148014,57.27588416744768L236.53429602888085,63.643354019369205L238.6462093862816,76.0387286475311L240.75812274368232,92.82241452495691L242.87003610108303,116.03384182204042L244.98194945848377,106.26263201570023L247.09386281588448,99.78944714548854L249.2057761732852,120.04761916163137L251.31768953068593,129.94451333339123L253.42960288808663,138.73404570740797L255.54151624548737,146.55520433319785L257.6534296028881,166.98309181869047L259.7653429602888,166.70454629277805L261.8772563176895,142.4071684607307L263.98916967509024,153.55203087677336L266.101083032491,161.6251213688444L268.2129963898917,169.5368681943634L270.32490974729245,173.22395057176186L272.43682310469313,164.73623506094683L274.54873646209387,166.23994907107908L276.6606498194946,162.40348880277284L278.7725631768953,162.74450850479022L280.884476534296,161.94858171403237L282.99638989169677,170.23776213729246L285.10830324909745,173.66606071460228L287.2202166064982,161.64622987755988L289.3321299638989,152.52697057908216L291.4440433212996,155.12034421871542L293.5559566787004,146.7350615857554L295.6678700361011,141.93464286156973L297.7797833935018,127.15944942221299L299.8916967509025,115.62595838046647L302.00361010830323,120.91253502443989L304.1155234657039,117.59987020092964L306.2274368231047,115.81833477816966L308.33935018050545,118.3645530720387L310.45126353790613,125.6845405671706L312.56317689530687,124.70390011836624L314.67509025270755,126.11696484795036L316.78700361010834,137.03540229214022L318.898916967509,149.4934239786745L321.01083032490976,153.45618231942936L323.12274368231044,160.11645733041343L325.2346570397112,169.79993767501196L327.34657039711186,191.9320526487138L329.45848375451266,206.98711875641112L331.57039711191334,213.33501725671374L333.6823104693141,218.40128544346845L335.7942238267148,214.7747506455293L337.9061371841155,219.4284809306914L340.0180505415163,210.75276904417956L342.12996389891697,210.15644501173554L344.2418772563177,199.6365173948939L346.3537906137184,188.79107368286014L348.4657039711191,180.77801530662808L350.57761732851986,174.3207139480093L352.6895306859206,165.1177895763361L354.8014440433213,155.20566037701812L356.913357400722,134.108025775435L359.0252707581227,122.58947638627052L361.13718411552344,105.78647145115526L363.24909747292423,100.16550932717799L365.3610108303249,102.84946458169594L367.47292418772565,95.5863607661087L369.58483754512633,98.3247959903072L371.69675090252707,92.7359089625096L373.8086642599278,100.30834670629723L375.92057761732855,100.93084141101116L378.0324909747292,105.029051323769L380.14440433212997,113.3068086642526L382.25631768953065,104.51200581219072L384.36823104693144,112.0436277405503L386.4801444043321,130.96435929906153L388.59205776173286,151.8840674530084L390.7039711191336,169.12893906955347L392.8158844765343,176.6017973382927L394.927797833935,171.42514617888295L397.03971119133575,176.1205120782016L399.1516245487365,174.23245550926833L401.2635379061372,190.82169465213593L403.3754512635379,192.61419243280497L405.4873646209386,201.9120610632473L407.5992779783394,205.46700888301376L409.71119133574007,195.2252473600087L411.8231046931408,207.2330762638205L413.9350180505415,210.49054773414858L416.0469314079422,211.4946879462245L418.158844765343,199.34907806836515L420.2707581227437,197.31778199093088L422.38267148014444,193.8510121628589L424.4945848375451,201.77633041368847L426.60649819494586,198.74067902641852L428.71841155234654,199.34266721554826L430.83032490974733,182.25840371243294L432.942238267148,183.1636780821419L435.05415162454875,181.4339424614931L437.16606498194943,178.18297818547487L439.27797833935017,187.54022622353793L441.38989169675085,182.25840371243294L443.50180505415165,184.05243008249957L445.6137184115523,187.78146548165412L447.72563176895306,194.91587132314484L449.8375451263538,206.4899406000909L451.9494584837545,219.24280146665802L454.0613718411553,224.88528728841902L456.17328519855596,223.78426606616603L458.2851985559567,224.5925244022152L460.3971119133574,232.61504042265997L462.5090252707581,229.77586679531103L464.6209386281588,230.15554400762827L466.7328519855596,241.95333726613455L468.8447653429603,229.6797694812601L470.956678700361,228.86775090182567L473.0685920577617,221.86472992650985L475.18050541516243,217.55907862681048L477.2924187725632,223.0738576383342L479.4043321299639,213.50402932318846L481.51624548736464,204.14683622736734L483.6281588447653,200.0043408716536L485.74007220216606,207.1178129452336L487.85198555956674,207.7073461579049L489.96389891696754,206.81332315034567L492.0758122743682,202.3789693652373L494.18772563176896,193.29758194022415L496.29963898916964,185.64725538446146L498.4115523465704,189.60948093658558L500.5234657039711,195.72993494388788L502.63537906137185,193.378046103528L504.7472924187726,194.30997815022644L506.85920577617327,198.26141733229173L508.971119133574,201.99456304310985L511.08303249097474,199.7984951242402L513.1949458483755,194.64144681499894L515.3068592057762,194.36741857665208L517.418772563177,197.32906224871132L519.5306859205776,192.2167511924052L521.6425992779783,199.14935043547422L523.754512635379,206.7289998462152L525.8664259927798,209.94269822980777L527.9783393501805,204.19163792566394L530.0902527075813,207.96188120914388L532.202166064982,212.68254058653196L534.3140794223826,219.69149539698813L536.4259927797834,218.11200803729542L538.5379061371841,218.66512858900307L540.6498194945849,221.08642866318252L542.7617328519856,219.17086665173983L544.8736462093863,223.79104676332847L546.985559566787,228.084103403086L549.0974729241877,231.21177668096774L551.2093862815884,220.1032191912576L553.3212996389892,211.9843032015897L555.4332129963899,207.08446231660702L557.5451263537906,210.8866373372935L559.6570397111914,210.26799682689466L561.768953068592,214.0846811419943L563.8808664259928,208.23957440512368L565.9927797833935,210.14843640734102L568.1046931407942,214.63419100733168L570.2166064981949,219.0899251396076L572.3285198555957,227.06898978468647L574.4404332129964,229.93608367198362L576.5523465703972,232.40196100392072L578.6642599277978,243.90239557460865L580.7761732851985,262.9226859109317L582.8880866425992,283.0598671225722L585,294.9326830172038" style="fill: none; stroke: #4c78a8; stroke-width: 2; stroke-dasharray: 1,0;"></path></g></g><path class="foreground" d="" style="display: none; fill: none;"></path></g><g transform="translate(0,0)"><path class="background" d="M0,0h585v275h-585Z" style="fill: none;"></path><g><g class="mark-line role-mark marks" clip-path="url(#clip2)"><path d="M0,-240.64184743271753L2.1119133574007223,-253.22515733690315L4.223826714801445,-275L6.3357400722021655,-259.7327348412964L8.44765342960289,-259.0522145811361L10.55956678700361,-248.88173386151445L12.671480144404331,-192.21675119240516L14.783393501805053,-163.61542300492448L16.89530685920578,-176.94948603370153L19.007220216606495,-185.51793108105787L21.11913357400722,-159.73944037095666L23.231046931407942,-150.2410293878983L25.342960288808662,-146.87544647735896L27.454873646209386,-111.38609599974349L29.566787003610106,-79.84812420177951L31.67870036101083,-73.22366958631153L33.79061371841156,-50.74421731294962L35.90252707581227,-22.086192716844995L38.01444043321299,-22.882402215933784L40.12635379061372,-32.91920766052129L42.23826714801444,-13.451902696513823L44.35018050541516,-9.958347479972279L46.462093862815884,13.897417764476097L48.57400722021661,29.48274165316382L50.685920577617324,34.09823737759647L52.797833935018055,39.99117080453808L54.90974729241877,33.315080587569284L57.021660649819495,33.657301898949385L59.13357400722021,35.940043011782606L61.24548736462094,41.19648581574959L63.35740072202166,41.668843580359706L65.46931407942238,17.496932619149757L67.58122743682311,31.804623210321402L69.69314079422382,33.01488554386978L71.80505415162455,31.334421884380127L73.91696750902527,33.391094793502305L76.02888086642598,16.691906097243216L78.14079422382672,0.350752036316726L80.25270758122744,-6.316640641145654L82.36462093862816,-15.655658940099515L84.47653429602887,-5.3428517555396295L86.5884476534296,-5.909451854278047L88.70036101083032,-12.126594309282918L90.81227436823106,1.8234091972286592L92.92418772563177,-1.4418402384022144L95.03610108303249,20.409902291920595L97.14801444043322,15.267265158703674L99.25992779783394,26.17157164373268L101.37184115523465,14.948357138713009L103.48375451263537,17.210045662744907L105.59566787003611,22.875596837857177L107.70758122743683,41.87929470534057L109.81949458483754,43.19370597911899L111.93140794223827,59.80808465882426L114.04332129963899,60.40975334957256L116.1552346570397,43.422019913157165L118.26714801444042,56.13299523037935L120.37906137184116,40.18520981151553L122.49097472924188,31.334421884380127L124.6028880866426,54.882397598931156L126.71480144404332,56.753417314041L128.82671480144404,54.173606304783206L130.93862815884475,45.3228183776479L133.0505415162455,37.08293194885103L135.16245487364623,39.52718620464565L137.27436823104694,23.094535455583287L139.38628158844764,23.79914506584838L141.49819494584838,13.247516907771207L143.6101083032491,28.473662774444154L145.7220216606498,46.15800347715547L147.83393501805054,23.528633098503672L149.94584837545125,28.95523996937906L152.05776173285196,19.325551569373687L154.16967509025272,-5.791727860001511L156.28158844765343,-23.925474195647034L158.39350180505417,-22.459262774112826L160.50541516245488,-15.94778541886382L162.6173285198556,-29.16468292317968L164.72924187725633,-31.733190143069063L166.84115523465704,3.5302367939223647L168.95306859205775,35.349286741209454L171.06498194945848,49.41623041423932L173.1768953068592,48.42509624031237L175.28880866425993,65.97932364709168L177.40072202166064,89.42001072969269L179.51263537906135,85.31544929897139L181.62454873646212,89.42001072969269L183.73646209386283,108.63462995787341L185.84837545126354,158.65216289043195L187.96028880866427,158.65216289043195L190.07220216606498,164.06420129727658L192.18411552346572,202.87371316520978L194.29602888086643,172.80695576383576L196.40794223826714,140.39987780681838L198.51985559566788,131.20834504790722L200.6317689530686,138.91624403797417L202.7436823104693,121.53813035551319L204.85559566787003,114.88081055703732L206.96750902527074,117.88552205325672L209.0794223826715,103.12776320709459L211.19133574007222,110.79068724557622L213.30324909747293,98.16988527311112L215.41516245487367,70.86160808902578L217.52707581227438,47.0509495622259L219.63898916967509,39.57116741763518L221.75090252707582,50.09761346229129L223.86281588447653,44.69257426326208L225.97472924187724,55.16200628421772L228.08664259927798,54.59192891292979L230.1985559566787,34.926392524705314L232.3104693140794,38.25574971267004L234.42238267148014,57.27588416744768L236.53429602888085,63.643354019369205L238.6462093862816,76.0387286475311L240.75812274368232,92.82241452495691L242.87003610108303,116.03384182204042L244.98194945848377,106.26263201570023L247.09386281588448,99.78944714548854L249.2057761732852,120.04761916163137L251.31768953068593,129.94451333339123L253.42960288808663,138.73404570740797L255.54151624548737,146.55520433319785L257.6534296028881,166.98309181869047L259.7653429602888,166.70454629277805L261.8772563176895,142.4071684607307L263.98916967509024,153.55203087677336L266.101083032491,161.6251213688444L268.2129963898917,169.5368681943634L270.32490974729245,173.22395057176186L272.43682310469313,164.73623506094683L274.54873646209387,166.23994907107908L276.6606498194946,162.40348880277284L278.7725631768953,162.74450850479022L280.884476534296,161.94858171403237L282.99638989169677,170.23776213729246L285.10830324909745,173.66606071460228L287.2202166064982,161.64622987755988L289.3321299638989,152.52697057908216L291.4440433212996,155.12034421871542L293.5559566787004,146.7350615857554L295.6678700361011,141.93464286156973L297.7797833935018,127.15944942221299L299.8916967509025,115.62595838046647L302.00361010830323,120.91253502443989L304.1155234657039,117.59987020092964L306.2274368231047,115.81833477816966L308.33935018050545,118.3645530720387L310.45126353790613,125.6845405671706L312.56317689530687,124.70390011836624L314.67509025270755,126.11696484795036L316.78700361010834,137.03540229214022L318.898916967509,149.4934239786745L321.01083032490976,153.45618231942936L323.12274368231044,160.11645733041343L325.2346570397112,169.79993767501196L327.34657039711186,191.9320526487138L329.45848375451266,206.98711875641112L331.57039711191334,213.33501725671374L333.6823104693141,218.40128544346845L335.7942238267148,214.7747506455293L337.9061371841155,219.3763618015538L340.0180505415163,210.67200876891235L342.12996389891697,210.0496194388501L344.2418772563177,199.52828813282176L346.3537906137184,188.6214273723422L348.4657039711191,180.6026393830099L350.57761732851986,174.14533802439115L352.6895306859206,164.87778752114465L354.8014440433213,154.89512722619048L356.913357400722,133.778287900261L359.0252707581227,122.10538951757098L361.13718411552344,105.22968264539129L363.24909747292423,99.59049144931444L365.3610108303249,102.2744467038324L367.47292418772565,95.02033609278084L369.58483754512633,97.78691087090039L371.69675090252707,92.2115130266185L373.8086642599278,99.78279698024893L375.92057761732855,100.49159493382814L378.0324909747292,104.60098282777808L380.14440433212997,112.87781760486611L382.25631768953065,104.14267893875109L384.36823104693144,111.82085024166437L386.4801444043321,130.67907785385677L388.59205776173286,151.84844299859859L390.7039711191336,169.09673440911206L392.8158844765343,176.57013902597387L394.927797833935,171.3935548594227L397.03971119133575,176.09079918278195L399.1516245487365,174.23245550926833L401.2635379061372,190.82169465213593L403.3754512635379,192.56458454734678L405.4873646209386,201.8881198017612L407.5992779783394,205.44325334190634L409.71119133574007,195.2014776350774L411.8231046931408,207.1424437551847L413.9350180505415,210.17127434268608L416.0469314079422,210.956129520036L418.158844765343,198.65470993497664L420.2707581227437,196.53496741737686L422.38267148014444,193.01031545771448L424.4945848375451,200.93340864367727L426.60649819494586,197.89296843636367L428.71841155234654,198.42235386455906L430.83032490974733,181.2461407055523L432.942238267148,182.1610017911527L435.05415162454875,180.10285058293525L437.16606498194943,176.6811016903698L439.27797833935017,186.04044532770226L441.38989169675085,180.83678630479875L443.50180505415165,182.91389922467138L445.6137184115523,186.93119517230764L447.72563176895306,193.97198866438328L449.8375451263538,205.4551317031001L451.9494584837545,217.96607326577006L454.0613718411553,223.60948898737922L456.17328519855596,222.34937859843728L458.2851985559567,223.0412677278888L460.3971119133574,230.89966468600755L462.5090252707581,227.72797827371193L464.6209386281588,228.07135820188688L466.7328519855596,239.94312677896477L468.8447653429603,227.69664409106554L470.956678700361,226.53399573307664L473.0685920577617,219.21722479844564L475.18050541516243,214.70889921007225L477.2924187725632,219.86545007467691L479.4043321299639,210.10274743106712L481.51624548736464,200.87091079490057L483.6281588447653,196.74472762720737L485.74007220216606,203.89169606071357L487.85198555956674,204.41636489528221L489.96389891696754,203.3823947237754L492.0758122743682,198.96561509692015L494.18772563176896,189.80392200784135L496.29963898916964,182.02047508071095L498.4115523465704,185.98137360758048L500.5234657039711,192.4097922759076L502.63537906137185,190.19400721861322L504.7472924187726,191.24350147865218L506.85920577617327,195.7223147122963L508.971119133574,199.66337030901556L511.08303249097474,197.61264918669423L513.1949458483755,192.5358214964232L515.3068592057762,192.15847796240138L517.418772563177,194.9761463690166L519.5306859205776,189.80392200784135L521.6425992779783,196.42712070438103L523.754512635379,203.8924627538378L525.8664259927798,207.16510833111823L527.9783393501805,201.53680110836785L530.0902527075813,205.07566959643268L532.202166064982,210.91765044008648L534.3140794223826,217.29670149223742L536.4259927797834,214.77622068291726L538.5379061371841,214.6273114702125L540.6498194945849,216.85740066022643L542.7617328519856,214.8655649792278L544.8736462093863,219.1483369755836L546.985559566787,222.91891557732532L549.0974729241877,226.5603381175545L551.2093862815884,215.93031592232697L553.3212996389892,209.9675047482319L555.4332129963899,206.15248291193055L557.5451263537906,211.6191283171416L559.6570397111914,210.89128030205418L561.768953068592,217.35422628524094L563.8808664259928,219.6627359568036L565.9927797833935,226.02273285215546L568.1046931407942,236.36464272247696L570.2166064981949,247.41776945824137" style="fill: none; stroke: #4c78a8; stroke-width: 2; stroke-dasharray: 4,2;"></path></g></g><path class="foreground" d="" style="display: none; fill: none;"></path></g></g><g class="mark-group role-legend"><g transform="translate(0,-36)"><path class="background" d="M0,0h301v18h-301Z" style="pointer-events: none; fill: none;"></path><g><g class="mark-group role-legend-entry"><g transform="translate(85,0)"><path class="background" d="M0,0h0v0h0Z" style="pointer-events: none; fill: none;"></path><g><g class="mark-group role-scope"><g transform="translate(0,0.25)"><path class="background" d="M0,0h101.2822265625v17.5h-101.2822265625Z" style="pointer-events: none; fill: none; opacity: 1;"></path><g><g class="mark-symbol role-legend-symbol" style="pointer-events: none;"><path transform="translate(10.5,10.5)" d="M-8.660254037844387,0L8.660254037844387,0" style="fill: none; stroke: #4c78a8; stroke-width: 3; stroke-dasharray: 1,0; opacity: 1;"></path></g><g class="mark-text role-legend-label" style="pointer-events: none;"><text text-anchor="start" transform="translate(25,14.5)" style="font-family: sans-serif; font-size: 14px; fill: #000; opacity: 1;">dic 28, 2020</text></g></g><path class="foreground" d="" style="pointer-events: none; display: none; fill: none;"></path></g><g transform="translate(114,0.25)"><path class="background" d="M0,0h101.2822265625v17.5h-101.2822265625Z" style="pointer-events: none; fill: none; opacity: 1;"></path><g><g class="mark-symbol role-legend-symbol" style="pointer-events: none;"><path transform="translate(10.5,10.5)" d="M-8.660254037844387,0L8.660254037844387,0" style="fill: none; stroke: #4c78a8; stroke-width: 3; stroke-dasharray: 4,2; opacity: 1;"></path></g><g class="mark-text role-legend-label" style="pointer-events: none;"><text text-anchor="start" transform="translate(25,14.5)" style="font-family: sans-serif; font-size: 14px; fill: #000; opacity: 1;">dic 21, 2020</text></g></g><path class="foreground" d="" style="pointer-events: none; display: none; fill: none;"></path></g></g></g><path class="foreground" d="" style="pointer-events: none; display: none; fill: none;"></path></g></g><g class="mark-text role-legend-title" style="pointer-events: none;"><text text-anchor="start" transform="translate(0,13)" style="font-family: sans-serif; font-size: 14px; font-weight: bold; fill: #000; opacity: 1;">Datos hasta</text></g></g><path class="foreground" d="" style="pointer-events: none; display: none; fill: none;"></path></g></g></g><path class="foreground" d="" style="display: none; fill: none;"></path></g></g></g></svg>