<svg class="marks" width="641" height="360" viewBox="0 0 641 360" version="1.1" xmlns="http://www.w3.org/2000/svg" xmlns:xlink="http://www.w3.org/1999/xlink"><rect width="641" height="360" style="fill: white;"></rect><defs><clipPath id="clip1"><rect x="0" y="0" width="585" height="275"></rect></clipPath><clipPath id="clip2"><rect x="0" y="0" width="585" height="275"></rect></clipPath></defs><g transform="translate(51,41)"><g class="mark-group role-frame root"><g transform="translate(0,0)"><path class="background" d="M0.5,0.5h585v275h-585Z" style="fill: none; stroke: #ddd;"></path><g><g class="mark-group role-axis"><g transform="translate(0.5,275.5)"><path class="background" d="M0,0h0v0h0Z" style="pointer-events: none; fill: none;"></path><g><g class="mark-rule role-axis-grid" style="pointer-events: none;"><line transform="translate(45,-275)" x2="0" y2="275" style="fill: none; stroke: #ddd; stroke-width: 1; opacity: 1;"></line><line transform="translate(106,-275)" x2="0" y2="275" style="fill: none; stroke: #ddd; stroke-width: 1; opacity: 1;"></line><line transform="translate(169,-275)" x2="0" y2="275" style="fill: none; stroke: #ddd; stroke-width: 1; opacity: 1;"></line><line transform="translate(230,-275)" x2="0" y2="275" style="fill: none; stroke: #ddd; stroke-width: 1; opacity: 1;"></line><line transform="translate(293,-275)" x2="0" y2="275" style="fill: none; stroke: #ddd; stroke-width: 1; opacity: 1;"></line><line transform="translate(355,-275)" x2="0" y2="275" style="fill: none; stroke: #ddd; stroke-width: 1; opacity: 1;"></line><line transform="translate(416,-275)" x2="0" y2="275" style="fill: none; stroke: #ddd; stroke-width: 1; opacity: 1;"></line><line transform="translate(479,-275)" x2="0" y2="275" style="fill: none; stroke: #ddd; stroke-width: 1; opacity: 1;"></line><line transform="translate(540,-275)" x2="0" y2="275" style="fill: none; stroke: #ddd; stroke-width: 1; opacity: 1;"></line></g></g><path class="foreground" d="" style="pointer-events: none; display: none; fill: none;"></path></g></g><g class="mark-group role-axis"><g transform="translate(0.5,0.5)"><path class="background" d="M0,0h0v0h0Z" style="pointer-events: none; fill: none;"></path><g><g class="mark-rule role-axis-grid" style="pointer-events: none;"><line transform="translate(0,275)" x2="585" y2="0" style="fill: none; stroke: #ddd; stroke-width: 1; opacity: 1;"></line><line transform="translate(0,192)" x2="585" y2="0" style="fill: none; stroke: #ddd; stroke-width: 1; opacity: 1;"></line><line transform="translate(0,144)" x2="585" y2="0" style="fill: none; stroke: #ddd; stroke-width: 1; opacity: 1;"></line><line transform="translate(0,109)" x2="585" y2="0" style="fill: none; stroke: #ddd; stroke-width: 1; opacity: 1;"></line><line transform="translate(0,83)" x2="585" y2="0" style="fill: none; stroke: #ddd; stroke-width: 1; opacity: 1;"></line><line transform="translate(0,61)" x2="585" y2="0" style="fill: none; stroke: #ddd; stroke-width: 1; opacity: 1;"></line><line transform="translate(0,43)" x2="585" y2="0" style="fill: none; stroke: #ddd; stroke-width: 1; opacity: 1;"></line><line transform="translate(0,27)" x2="585" y2="0" style="fill: none; stroke: #ddd; stroke-width: 1; opacity: 1;"></line><line transform="translate(0,13)" x2="585" y2="0" style="fill: none; stroke: #ddd; stroke-width: 1; opacity: 1;"></line><line transform="translate(0,0)" x2="585" y2="0" style="fill: none; stroke: #ddd; stroke-width: 1; opacity: 1;"></line></g></g><path class="foreground" d="" style="pointer-events: none; display: none; fill: none;"></path></g></g><g class="mark-group role-axis"><g transform="translate(0.5,275.5)"><path class="background" d="M0,0h0v0h0Z" style="pointer-events: none; fill: none;"></path><g><g class="mark-rule role-axis-tick" style="pointer-events: none;"><line transform="translate(45,0)" x2="0" y2="5" style="fill: none; stroke: #888; stroke-width: 1; opacity: 1;"></line><line transform="translate(106,0)" x2="0" y2="5" style="fill: none; stroke: #888; stroke-width: 1; opacity: 1;"></line><line transform="translate(169,0)" x2="0" y2="5" style="fill: none; stroke: #888; stroke-width: 1; opacity: 1;"></line><line transform="translate(230,0)" x2="0" y2="5" style="fill: none; stroke: #888; stroke-width: 1; opacity: 1;"></line><line transform="translate(293,0)" x2="0" y2="5" style="fill: none; stroke: #888; stroke-width: 1; opacity: 1;"></line><line transform="translate(355,0)" x2="0" y2="5" style="fill: none; stroke: #888; stroke-width: 1; opacity: 1;"></line><line transform="translate(416,0)" x2="0" y2="5" style="fill: none; stroke: #888; stroke-width: 1; opacity: 1;"></line><line transform="translate(479,0)" x2="0" y2="5" style="fill: none; stroke: #888; stroke-width: 1; opacity: 1;"></line><line transform="translate(540,0)" x2="0" y2="5" style="fill: none; stroke: #888; stroke-width: 1; opacity: 1;"></line></g><g class="mark-text role-axis-label" style="pointer-events: none;"><text text-anchor="middle" transform="translate(44.68750000000001,18)" style="font-family: sans-serif; font-size: 14px; fill: #000; opacity: 1;">abril</text><text text-anchor="middle" transform="translate(105.625,18)" style="font-family: sans-serif; font-size: 14px; fill: #000; opacity: 0;">mayo</text><text text-anchor="middle" transform="translate(168.59374999999997,18)" style="font-family: sans-serif; font-size: 14px; fill: #000; opacity: 1;">junio</text><text text-anchor="middle" transform="translate(229.53125,18)" style="font-family: sans-serif; font-size: 14px; fill: #000; opacity: 0;">julio</text><text text-anchor="middle" transform="translate(292.5,18)" style="font-family: sans-serif; font-size: 14px; fill: #000; opacity: 1;">agosto</text><text text-anchor="middle" transform="translate(355.46874999999994,18)" style="font-family: sans-serif; font-size: 14px; fill: #000; opacity: 0;">septiembre</text><text text-anchor="middle" transform="translate(416.40625,18)" style="font-family: sans-serif; font-size: 14px; fill: #000; opacity: 1;">octubre</text><text text-anchor="middle" transform="translate(479.375,18)" style="font-family: sans-serif; font-size: 14px; fill: #000; opacity: 0;">noviembre</text><text text-anchor="middle" transform="translate(540.3125,18)" style="font-family: sans-serif; font-size: 14px; fill: #000; opacity: 1;">diciembre</text></g><g class="mark-rule role-axis-domain" style="pointer-events: none;"><line transform="translate(0,0)" x2="585" y2="0" style="fill: none; stroke: #888; stroke-width: 1; opacity: 1;"></line></g><g class="mark-text role-axis-title" style="pointer-events: none;"><text text-anchor="middle" transform="translate(292.5,36)" style="font-family: sans-serif; font-size: 14px; font-weight: bold; fill: #000; opacity: 1;">Fecha de muestras</text></g></g><path class="foreground" d="" style="pointer-events: none; display: none; fill: none;"></path></g></g><g class="mark-group role-axis"><g transform="translate(0.5,0.5)"><path class="background" d="M0,0h0v0h0Z" style="pointer-events: none; fill: none;"></path><g><g class="mark-rule role-axis-tick" style="pointer-events: none;"><line transform="translate(0,275)" x2="-5" y2="0" style="fill: none; stroke: #888; stroke-width: 1; opacity: 1;"></line><line transform="translate(0,192)" x2="-5" y2="0" style="fill: none; stroke: #888; stroke-width: 1; opacity: 1;"></line><line transform="translate(0,144)" x2="-5" y2="0" style="fill: none; stroke: #888; stroke-width: 1; opacity: 1;"></line><line transform="translate(0,109)" x2="-5" y2="0" style="fill: none; stroke: #888; stroke-width: 1; opacity: 1;"></line><line transform="translate(0,83)" x2="-5" y2="0" style="fill: none; stroke: #888; stroke-width: 1; opacity: 1;"></line><line transform="translate(0,61)" x2="-5" y2="0" style="fill: none; stroke: #888; stroke-width: 1; opacity: 1;"></line><line transform="translate(0,43)" x2="-5" y2="0" style="fill: none; stroke: #888; stroke-width: 1; opacity: 1;"></line><line transform="translate(0,27)" x2="-5" y2="0" style="fill: none; stroke: #888; stroke-width: 1; opacity: 1;"></line><line transform="translate(0,13)" x2="-5" y2="0" style="fill: none; stroke: #888; stroke-width: 1; opacity: 1;"></line><line transform="translate(0,0)" x2="-5" y2="0" style="fill: none; stroke: #888; stroke-width: 1; opacity: 1;"></line></g><g class="mark-text role-axis-label" style="pointer-events: none;"><text text-anchor="end" transform="translate(-7,279)" style="font-family: sans-serif; font-size: 14px; fill: #000; opacity: 1;">1%</text><text text-anchor="end" transform="translate(-7,196.2167511924052)" style="font-family: sans-serif; font-size: 14px; fill: #000; opacity: 1;">2%</text><text text-anchor="end" transform="translate(-7,147.7916549520929)" style="font-family: sans-serif; font-size: 14px; fill: #000; opacity: 1;">3%</text><text text-anchor="end" transform="translate(-7,113.43350238481037)" style="font-family: sans-serif; font-size: 14px; fill: #000; opacity: 1;">4%</text><text text-anchor="end" transform="translate(-7,86.78324880759484)" style="font-family: sans-serif; font-size: 14px; fill: #000; opacity: 1;">5%</text><text text-anchor="end" transform="translate(-7,65.00840614449803)" style="font-family: sans-serif; font-size: 14px; fill: #000; opacity: 1;">6%</text><text text-anchor="end" transform="translate(-7,46.598038996079374)" style="font-family: sans-serif; font-size: 14px; fill: #000; opacity: 1;">7%</text><text text-anchor="end" transform="translate(-7,30.650253577215558)" style="font-family: sans-serif; font-size: 14px; fill: #000; opacity: 1;">8%</text><text text-anchor="end" transform="translate(-7,16.58330990418566)" style="font-family: sans-serif; font-size: 14px; fill: #000; opacity: 1;">9%</text><text text-anchor="end" transform="translate(-7,4)" style="font-family: sans-serif; font-size: 14px; fill: #000; opacity: 0;">10%</text></g><g class="mark-rule role-axis-domain" style="pointer-events: none;"><line transform="translate(0,275)" x2="0" y2="-275" style="fill: none; stroke: #888; stroke-width: 1; opacity: 1;"></line></g><g class="mark-text role-axis-title" style="pointer-events: none;"><text text-anchor="middle" transform="translate(-31.234375,137.5) rotate(-90) translate(0,-3)" style="font-family: sans-serif; font-size: 14px; font-weight: bold; fill: #000; opacity: 1;">Letalidad (CFR, 14 días)</text></g></g><path class="foreground" d="" style="pointer-events: none; display: none; fill: none;"></path></g></g><g class="mark-group role-scope pathgroup"><g transform="translate(0,0)"><path class="background" d="M0,0h585v275h-585Z" style="fill: none;"></path><g><g class="mark-line role-mark marks" clip-path="url(#clip1)"><path d="M0,-240.64184743271753L2.03125,-253.22515733690315L4.0625,-275L6.09375,-259.7327348412964L8.125,-259.0522145811361L10.15625,-248.88173386151445L12.1875,-192.21675119240516L14.21875,-163.61542300492448L16.25,-176.94948603370153L18.28125,-185.51793108105787L20.3125,-159.73944037095666L22.343750000000004,-150.2410293878983L24.375,-146.87544647735896L26.40625,-111.38609599974349L28.4375,-79.84812420177951L30.46875,-73.22366958631153L32.5,-50.74421731294962L34.53125,-22.086192716844995L36.5625,-22.882402215933784L38.59375,-32.91920766052129L40.625,-13.451902696513823L42.65625,-9.958347479972279L44.68750000000001,13.897417764476097L46.71874999999999,29.27521600142891L48.75,33.9029291042696L50.78125,39.7968160301196L52.8125,33.118486333262986L54.84375,33.46544485765287L56.875,35.743448757476365L58.90625,40.99491448938035L60.9375,41.45802096158499L62.96875000000001,17.267478211350294L65,31.569753945790527L67.03125,32.776262122782434L69.0625,31.063909917035453L71.09375,33.099443897594035L73.125,16.36692363135046L75.15624999999999,0.350752036316726L77.1875,-6.316640641145654L79.21875,-15.655658940099515L81.25,-5.3428517555396295L83.28125,-5.909451854278047L85.3125,-12.126594309282918L87.34375,1.8234091972286592L89.37500000000001,-1.4418402384022144L91.40625,20.409902291920595L93.43749999999999,15.267265158703674L95.46875,26.17157164373268L97.5,14.948357138713009L99.53125,17.210045662744907L101.5625,22.875596837857177L103.59375,41.87929470534057L105.625,43.19370597911899L107.65625000000001,59.80808465882426L109.6875,60.40975334957256L111.71874999999999,43.422019913157165L113.75,55.50933333002826L115.78125,39.52718620464565L117.8125,30.014729091893717L119.84375,53.61856588441516L121.875,55.50933333002826L123.90625,52.90977459026719L125.93750000000001,44.05898666313188L127.96875,35.819100234334975L130,38.20016163509053L132.03125,21.67272125240844L134.0625,22.38574416143534L136.09375,11.79985090987296L138.125,27.017169326708323L140.15625,44.69257426326208L142.1875,22.71340138347549L144.21875,28.111201244268L146.25,19.325551569373687L148.28125,-5.791727860001511L150.31249999999997,-23.925474195647034L152.34375,-22.459262774112826L154.375,-15.94778541886382L156.40625,-29.16468292317968L158.4375,-31.733190143069063L160.46875000000003,3.5302367939223647L162.5,35.349286741209454L164.53125,49.41623041423932L166.5625,48.42509624031237L168.59374999999997,65.97932364709168L170.625,89.42001072969269L172.65625,85.31544929897139L174.6875,89.42001072969269L176.71875,108.63462995787341L178.75000000000003,158.65216289043195L180.78125,158.65216289043195L182.8125,164.06420129727658L184.84375,202.87371316520978L186.87499999999997,172.80695576383576L188.90625,140.39987780681838L190.9375,131.20834504790722L192.96875,138.91624403797417L195,121.53813035551319L197.03125000000003,114.88081055703732L199.0625,117.88552205325672L201.09375,103.12776320709459L203.125,110.79068724557622L205.15624999999997,98.16988527311112L207.1875,70.86160808902578L209.21875,47.0509495622259L211.25,39.57116741763518L213.28125,50.09761346229129L215.31250000000003,44.69257426326208L217.34375,55.16200628421772L219.375,54.59192891292979L221.40625,34.926392524705314L223.43749999999997,38.25574971267004L225.46875,57.27588416744768L227.5,63.643354019369205L229.53125,76.0387286475311L231.5625,92.82241452495691L233.59375000000003,116.03384182204042L235.625,106.26263201570023L237.65625,99.78944714548854L239.6875,120.04761916163137L241.71874999999997,129.94451333339123L243.75,138.73404570740797L245.78125,146.55520433319785L247.8125,166.98309181869047L249.84375,166.64160506205994L251.87500000000003,142.28423383070657L253.90625,153.44880616635137L255.9375,161.53296782837458L257.96875,169.45548421675187L260,173.1482415470247L262.03125,164.6637648023376L264.0625,166.16923800772076L266.09375,162.33378878181387L268.125,162.67729917126448L270.15625,161.88237828521775L272.1875,170.17322229107268L274.21875,173.60263480630152L276.25,161.58193325015318L278.28125,152.4943168584349L280.3125,155.12034421871542L282.34375,146.7350615857554L284.375,141.93464286156973L286.40625,127.12299864136433L288.4375,115.58650966581438L290.46875,120.83570582750066L292.5,117.67611085626268L294.53125,115.89506525464343L296.5625,118.43903451038872L298.59375,125.86108307163543L300.62499999999994,124.94486197490389L302.65625000000006,126.58889144431647L304.6875,137.67629989946587L306.71875,150.0873759076998L308.75,154.05263215101346L310.78125,161.03210952207354L312.8125,171.15880100983816L314.84375,193.8267001316951L316.875,209.07943252336636L318.90624999999994,215.39759942367795L320.93750000000006,220.30440338402823L322.96875,216.6848611042958L325,221.39234055662473L327.03125,212.5953405923012L329.0625,211.93171360033335L331.09375,201.1949190307477L333.125,190.33503784344532L335.15625,182.4025569979161L337.18749999999994,175.9164388982905L339.21875000000006,166.81398502430346L341.25,156.6850824324632L343.28125,135.61320328577133L345.3125,123.96186704076936L347.34375,107.47794836842137L349.375,102.02483779140407L351.40625,104.67113547584069L353.4375,97.78441646342897L355.46874999999994,100.97847339385218L357.50000000000006,95.70730354355635L359.53125,103.4991114652863L361.5625,104.08931627197556L363.59375,108.10831838643217L365.625,116.43433794702848L367.65625,107.15600577282738L369.6875,114.55434753137375L371.71875,132.5815943356962L373.74999999999994,152.98318771100404L375.78125000000006,170.05911659095938L377.8125,177.45341497764167L379.84375,172.27496832510576L381.875,176.5949158103124L383.90625,174.6040252173344L385.9375,191.0812708954263L387.96875,192.86192324662966L390,202.24673577290986L392.03124999999994,205.75170742670522L394.06250000000006,195.55752773240036L396.09375,207.86558530993523L398.125,211.60133075178433L400.15625,212.7034197683352L402.1875,200.72581933698922L404.21875,198.58544647393694L406.25,195.17875992145906L408.28125,203.21134582952126L410.31249999999994,200.47198519503675L412.34375000000006,201.18964593597946L414.375,184.58751023572802L416.40625,185.87053532048293L418.4375,184.24652164611086L420.46875,181.29290950909035L422.5,190.5813436790159L424.53125,185.37247864251776L426.5625,186.61473769377L428.59374999999994,190.5114353707322L430.62500000000006,198.11764521334757L432.65625,208.3525332690544L434.6875,217.29194535117756L436.71875,222.62892152469863L438.75,218.04927084824732L440.78125,217.4455934703207L442.8125,225.08988373032255L444.84375,218.05969467391603L446.87499999999994,219.18506349960478L448.90625000000006,229.75518270924326L450.9375,219.0340912119156L452.96875,219.42498584696745L455,213.96897220896724L457.03125,211.25599596017793L459.0625,216.96223230257857L461.09375,209.9847144070304L463.125,204.0950476615263L465.15624999999994,199.05288731535785L467.18750000000006,208.2685825000543L469.21875,209.06760565952206L471.25,207.35875406875618L473.28125,206.2266526771323L475.3125,195.5012887195083L477.34375,186.60431644827221L479.375,190.34061599353734L481.40625,195.10106438633895L483.43749999999994,191.32623787662638L485.46875000000006,190.27736921293487L487.5,193.97942943988144L489.53125,196.8712803425686L491.5625,194.74268765679415L493.59375,190.7720327869118L495.625,190.32901568441034L497.65625,192.37588643583405L499.6875,187.53969771056845L501.71874999999994,194.19937420481102L503.75000000000006,201.67039939675774L505.78125,205.47108078709095L507.8125,198.88630509540178L509.84375,203.54197371739747L511.875,209.33798310232478L513.90625,215.92490839100634L515.9375,212.29532156101348L517.96875,212.899960651817L520,214.5239461076726L522.03125,212.75638912883193L524.0625,217.67673597386687L526.09375,222.1552234023701L528.125,225.90447165334007L530.15625,213.622409689737L532.1875,206.79672129467542L534.21875,202.6654637967993L536.25,207.43904563325725L538.28125,206.50935574036174L540.3125,209.9540117316894L542.34375,204.5785942752471L544.375,207.05102982922418L546.40625,211.70895152679373L548.4375,214.63126635949763L550.46875,219.23224575213843L552.5,217.3751340972577L554.53125,214.89193187755168L556.5625,217.98700677386105L558.59375,227.74253439750862L560.625,232.37202467527078L562.65625,242.05453690696982L564.6875,245.16785517046972L566.71875,247.48495654539778L568.75,246.0943303696726L570.78125,255.52583285812764L572.8125,257.08702098913506L574.84375,256.40512289909935L576.875,263.50386849085896L578.90625,269.5363158911643L580.9375,275.38934340112337L582.96875,282.09674229704876L585,290.3380181125048" style="fill: none; stroke: #4c78a8; stroke-width: 2; stroke-dasharray: 1,0;"></path></g></g><path class="foreground" d="" style="display: none; fill: none;"></path></g><g transform="translate(0,0)"><path class="background" d="M0,0h585v275h-585Z" style="fill: none;"></path><g><g class="mark-line role-mark marks" clip-path="url(#clip2)"><path d="M0,-240.64184743271753L2.03125,-253.22515733690315L4.0625,-275L6.09375,-259.7327348412964L8.125,-259.0522145811361L10.15625,-248.88173386151445L12.1875,-192.21675119240516L14.21875,-163.61542300492448L16.25,-176.94948603370153L18.28125,-185.51793108105787L20.3125,-159.73944037095666L22.343750000000004,-150.2410293878983L24.375,-146.87544647735896L26.40625,-111.38609599974349L28.4375,-79.84812420177951L30.46875,-73.22366958631153L32.5,-50.74421731294962L34.53125,-22.086192716844995L36.5625,-22.882402215933784L38.59375,-32.91920766052129L40.625,-13.451902696513823L42.65625,-9.958347479972279L44.68750000000001,13.897417764476097L46.71874999999999,29.48274165316382L48.75,34.09823737759647L50.78125,39.99117080453808L52.8125,33.315080587569284L54.84375,33.657301898949385L56.875,35.940043011782606L58.90625,41.19648581574959L60.9375,41.668843580359706L62.96875000000001,17.496932619149757L65,31.804623210321402L67.03125,33.01488554386978L69.0625,31.334421884380127L71.09375,33.391094793502305L73.125,16.691906097243216L75.15624999999999,0.350752036316726L77.1875,-6.316640641145654L79.21875,-15.655658940099515L81.25,-5.3428517555396295L83.28125,-5.909451854278047L85.3125,-12.126594309282918L87.34375,1.8234091972286592L89.37500000000001,-1.4418402384022144L91.40625,20.409902291920595L93.43749999999999,15.267265158703674L95.46875,26.17157164373268L97.5,14.948357138713009L99.53125,17.210045662744907L101.5625,22.875596837857177L103.59375,41.87929470534057L105.625,43.19370597911899L107.65625000000001,59.80808465882426L109.6875,60.40975334957256L111.71874999999999,43.422019913157165L113.75,55.50933333002826L115.78125,39.52718620464565L117.8125,30.014729091893717L119.84375,53.61856588441516L121.875,55.50933333002826L123.90625,52.90977459026719L125.93750000000001,44.05898666313188L127.96875,35.819100234334975L130,38.20016163509053L132.03125,21.67272125240844L134.0625,22.38574416143534L136.09375,11.79985090987296L138.125,27.017169326708323L140.15625,44.69257426326208L142.1875,22.71340138347549L144.21875,28.111201244268L146.25,19.325551569373687L148.28125,-5.791727860001511L150.31249999999997,-23.925474195647034L152.34375,-22.459262774112826L154.375,-15.94778541886382L156.40625,-29.16468292317968L158.4375,-31.733190143069063L160.46875000000003,3.5302367939223647L162.5,35.349286741209454L164.53125,49.41623041423932L166.5625,48.42509624031237L168.59374999999997,65.97932364709168L170.625,89.42001072969269L172.65625,85.31544929897139L174.6875,89.42001072969269L176.71875,108.63462995787341L178.75000000000003,158.65216289043195L180.78125,158.65216289043195L182.8125,164.06420129727658L184.84375,202.87371316520978L186.87499999999997,172.80695576383576L188.90625,140.39987780681838L190.9375,131.20834504790722L192.96875,138.91624403797417L195,121.53813035551319L197.03125000000003,114.88081055703732L199.0625,117.88552205325672L201.09375,103.12776320709459L203.125,110.79068724557622L205.15624999999997,98.16988527311112L207.1875,70.86160808902578L209.21875,47.0509495622259L211.25,39.57116741763518L213.28125,50.09761346229129L215.31250000000003,44.69257426326208L217.34375,55.16200628421772L219.375,54.59192891292979L221.40625,34.926392524705314L223.43749999999997,38.25574971267004L225.46875,57.27588416744768L227.5,63.643354019369205L229.53125,76.0387286475311L231.5625,92.82241452495691L233.59375000000003,116.03384182204042L235.625,106.26263201570023L237.65625,99.78944714548854L239.6875,120.04761916163137L241.71874999999997,129.94451333339123L243.75,138.73404570740797L245.78125,146.55520433319785L247.8125,166.98309181869047L249.84375,166.70454629277805L251.87500000000003,142.4071684607307L253.90625,153.55203087677336L255.9375,161.6251213688444L257.96875,169.5368681943634L260,173.22395057176186L262.03125,164.73623506094683L264.0625,166.23994907107908L266.09375,162.40348880277284L268.125,162.74450850479022L270.15625,161.94858171403237L272.1875,170.23776213729246L274.21875,173.66606071460228L276.25,161.64622987755988L278.28125,152.52697057908216L280.3125,155.12034421871542L282.34375,146.7350615857554L284.375,141.93464286156973L286.40625,127.15944942221299L288.4375,115.62595838046647L290.46875,120.91253502443989L292.5,117.59987020092964L294.53125,115.81833477816966L296.5625,118.3645530720387L298.59375,125.6845405671706L300.62499999999994,124.70390011836624L302.65625000000006,126.11696484795036L304.6875,137.03540229214022L306.71875,149.4934239786745L308.75,153.45618231942936L310.78125,160.11645733041343L312.8125,169.79993767501196L314.84375,191.9320526487138L316.875,206.98711875641112L318.90624999999994,213.33501725671374L320.93750000000006,218.40128544346845L322.96875,214.7747506455293L325,219.45453196853566L327.03125,210.77967700475824L329.0625,210.1831364818485L331.09375,199.66355939263724L333.125,188.81932465461182L335.15625,180.80721960620468L337.18749999999994,174.34991824758586L339.21875000000006,165.14775595022897L341.25,155.32964791218544L343.28125,134.40401349204623L345.3125,122.89964214787568L347.34375,106.1193030159066L349.375,100.50919584499742L351.40625,103.19315109951545L353.4375,95.86837030097355L355.46874999999994,98.61342615932483L357.50000000000006,93.04074664037273L359.53125,100.61385276642227L361.5625,101.23735555823227L363.59375,105.32778897378029L365.625,113.60618818634089L367.65625,104.83423259376637L369.6875,112.2215510248884L371.71875,130.92364650421578L373.74999999999994,151.84844299859859L375.78125000000006,169.03229902447734L377.8125,176.50679721461194L379.84375,171.33034714028474L381.875,176.03135120618197L383.90625,174.1465442365145L385.9375,190.74371163759682L387.96875,192.53977287539234L390,201.84022287610486L392.03124999999994,205.39572807963052L394.06250000000006,195.15392398821245L396.09375,207.16510833111823L398.125,210.42220382239887L400.15625,211.42457876750245L402.1875,199.2748742868396L404.21875,197.29177066935935L406.25,193.82482977044373L408.28125,201.75007896122025L410.31249999999994,198.74067902641852L412.34375000000006,199.34266721554826L414.375,182.25840371243294L416.40625,183.1636780821419L418.4375,181.4339424614931L420.46875,178.18297818547487L422.5,187.54022622353793L424.53125,182.25840371243294L426.5625,184.05243008249957L428.59374999999994,187.78146548165412L430.62500000000006,194.91587132314484L432.65625,206.4899406000909L434.6875,217.44681299794462L436.71875,223.00444554258502L438.75,221.90342432033205L440.78125,220.9731267362732L442.8125,228.93995099421508L444.84375,224.5444765341177L446.87499999999994,225.09780119411428L448.90625000000006,236.53146867437925L450.9375,224.78625112111223L452.96875,224.1299996501228L455,217.50768927441248L457.03125,213.41154908967562L459.0625,218.82149858407365L461.09375,209.6767048402952L463.125,201.8236204489622L465.15624999999994,196.6406266631053L467.18750000000006,203.78224730289168L469.21875,205.53429060079398L471.25,204.7189911351726L473.28125,201.42686809241405L475.3125,191.5374532473464L477.34375,182.34728589449415L479.375,186.23231146770968L481.40625,191.43493180790796L483.43749999999994,188.90445260705334L485.46875000000006,188.41753319986086L487.5,192.50690623934938L489.53125,195.50870243933502L491.5625,193.5263479552543L493.59375,189.43179301442132L495.625,188.67915389019305L497.65625,190.99574722637436L499.6875,185.51543458793975L501.71874999999994,192.24328846226737L503.75000000000006,199.55300808003648L505.78125,203.40910751533823L507.8125,196.68736943448027L509.84375,201.16764114871808L511.875,206.28641690809053L513.90625,213.06117781297777L515.9375,210.21191745593788L517.96875,210.94659507842482L520,212.64302926582957L522.03125,210.8614848075694L524.0625,216.30888240105068L526.09375,220.99130197111583L528.125,225.0040981074284L530.15625,213.52803482712815L532.1875,206.3740103872915L534.21875,202.35565562690442L536.25,207.2147336581808L538.28125,207.0587313196747L540.3125,211.007775181071L542.34375,206.94465070872408L544.375,209.23206180055453L546.40625,213.7912622750836L548.4375,217.3751340972577L550.46875,223.50715539176724L552.5,222.74177325994359L554.53125,220.56067687094972L556.5625,226.490116198751L558.59375,238.31925700010322L560.625,251.63680735190565L562.65625,265.1540389270342L564.6875,274.0022584671009L566.71875,283.78778701676094L568.75,281.8514852635147L570.78125,290.64883411753004" style="fill: none; stroke: #4c78a8; stroke-width: 2; stroke-dasharray: 4,2;"></path></g></g><path class="foreground" d="" style="display: none; fill: none;"></path></g></g><g class="mark-group role-legend"><g transform="translate(0,-36)"><path class="background" d="M0,0h311v18h-311Z" style="pointer-events: none; fill: none;"></path><g><g class="mark-group role-legend-entry"><g transform="translate(85,0)"><path class="background" d="M0,0h0v0h0Z" style="pointer-events: none; fill: none;"></path><g><g class="mark-group role-scope"><g transform="translate(0,0.25)"><path class="background" d="M0,0h106.744140625v17.5h-106.744140625Z" style="pointer-events: none; fill: none; opacity: 1;"></path><g><g class="mark-symbol role-legend-symbol" style="pointer-events: none;"><path transform="translate(10.5,10.5)" d="M-8.660254037844387,0L8.660254037844387,0" style="fill: none; stroke: #4c78a8; stroke-width: 3; stroke-dasharray: 1,0; opacity: 1;"></path></g><g class="mark-text role-legend-label" style="pointer-events: none;"><text text-anchor="start" transform="translate(25,14.5)" style="font-family: sans-serif; font-size: 14px; fill: #000; opacity: 1;">ene 08, 2021</text></g></g><path class="foreground" d="" style="pointer-events: none; display: none; fill: none;"></path></g><g transform="translate(119,0.25)"><path class="background" d="M0,0h106.744140625v17.5h-106.744140625Z" style="pointer-events: none; fill: none; opacity: 1;"></path><g><g class="mark-symbol role-legend-symbol" style="pointer-events: none;"><path transform="translate(10.5,10.5)" d="M-8.660254037844387,0L8.660254037844387,0" style="fill: none; stroke: #4c78a8; stroke-width: 3; stroke-dasharray: 4,2; opacity: 1;"></path></g><g class="mark-text role-legend-label" style="pointer-events: none;"><text text-anchor="start" transform="translate(25,14.5)" style="font-family: sans-serif; font-size: 14px; fill: #000; opacity: 1;">ene 01, 2021</text></g></g><path class="foreground" d="" style="pointer-events: none; display: none; fill: none;"></path></g></g></g><path class="foreground" d="" style="pointer-events: none; display: none; fill: none;"></path></g></g><g class="mark-text role-legend-title" style="pointer-events: none;"><text text-anchor="start" transform="translate(0,13)" style="font-family: sans-serif; font-size: 14px; font-weight: bold; fill: #000; opacity: 1;">Datos hasta</text></g></g><path class="foreground" d="" style="pointer-events: none; display: none; fill: none;"></path></g></g></g><path class="foreground" d="" style="display: none; fill: none;"></path></g></g></g></svg>