<svg class="marks" width="634" height="429" viewBox="0 0 634 429" version="1.1" xmlns="http://www.w3.org/2000/svg" xmlns:xlink="http://www.w3.org/1999/xlink"><rect width="634" height="429" style="fill: white;"></rect><g transform="translate(6,54)"><g class="mark-group role-frame root"><g transform="translate(0,0)"><path class="background" d="M0,0h0v0h0Z" style="fill: none;"></path><g><g class="mark-group role-column-title facet-title"><g transform="translate(311,-25)"><path class="background" d="M0,0h0v0h0Z" style="fill: none;"></path><g><g class="mark-group role-title"><g transform="translate(0,-24)"><path class="background" d="M0,0h0v0h0Z" style="pointer-events: none; fill: none;"></path><g><g class="mark-text role-title-text" style="pointer-events: none;"><text text-anchor="middle" transform="translate(0,11)" style="font-family: sans-serif; font-size: 14px; font-weight: bold; fill: #000; opacity: 1;">Fecha de récord</text></g></g><path class="foreground" d="" style="pointer-events: none; display: none; fill: none;"></path></g></g></g><path class="foreground" d="" style="display: none; fill: none;"></path></g></g><g class="mark-group role-column-footer column_footer"><g transform="translate(0,299)"><path class="background" d="M0,0h300v0h-300Z" style="fill: none;"></path><g><g class="mark-group role-axis"><g transform="translate(0.5,0.5)"><path class="background" d="M0,0h0v0h0Z" style="pointer-events: none; fill: none;"></path><g><g class="mark-rule role-axis-tick" style="pointer-events: none;"><line transform="translate(0,0)" x2="0" y2="5" style="fill: none; stroke: #888; stroke-width: 1; opacity: 1;"></line><line transform="translate(27,0)" x2="0" y2="5" style="fill: none; stroke: #888; stroke-width: 1; opacity: 1;"></line><line transform="translate(55,0)" x2="0" y2="5" style="fill: none; stroke: #888; stroke-width: 1; opacity: 1;"></line><line transform="translate(82,0)" x2="0" y2="5" style="fill: none; stroke: #888; stroke-width: 1; opacity: 1;"></line><line transform="translate(109,0)" x2="0" y2="5" style="fill: none; stroke: #888; stroke-width: 1; opacity: 1;"></line><line transform="translate(136,0)" x2="0" y2="5" style="fill: none; stroke: #888; stroke-width: 1; opacity: 1;"></line><line transform="translate(164,0)" x2="0" y2="5" style="fill: none; stroke: #888; stroke-width: 1; opacity: 1;"></line><line transform="translate(191,0)" x2="0" y2="5" style="fill: none; stroke: #888; stroke-width: 1; opacity: 1;"></line><line transform="translate(218,0)" x2="0" y2="5" style="fill: none; stroke: #888; stroke-width: 1; opacity: 1;"></line><line transform="translate(245,0)" x2="0" y2="5" style="fill: none; stroke: #888; stroke-width: 1; opacity: 1;"></line><line transform="translate(273,0)" x2="0" y2="5" style="fill: none; stroke: #888; stroke-width: 1; opacity: 1;"></line><line transform="translate(300,0)" x2="0" y2="5" style="fill: none; stroke: #888; stroke-width: 1; opacity: 1;"></line></g><g class="mark-text role-axis-label" style="pointer-events: none;"><text text-anchor="start" transform="translate(0,18)" style="font-family: sans-serif; font-size: 14px; fill: #000; opacity: 1;">0.0</text><text text-anchor="middle" transform="translate(27.272727272727273,18)" style="font-family: sans-serif; font-size: 14px; fill: #000; opacity: 0;">0.5</text><text text-anchor="middle" transform="translate(54.54545454545455,18)" style="font-family: sans-serif; font-size: 14px; fill: #000; opacity: 1;">1.0</text><text text-anchor="middle" transform="translate(81.81818181818181,18)" style="font-family: sans-serif; font-size: 14px; fill: #000; opacity: 0;">1.5</text><text text-anchor="middle" transform="translate(109.0909090909091,18)" style="font-family: sans-serif; font-size: 14px; fill: #000; opacity: 1;">2.0</text><text text-anchor="middle" transform="translate(136.36363636363635,18)" style="font-family: sans-serif; font-size: 14px; fill: #000; opacity: 0;">2.5</text><text text-anchor="middle" transform="translate(163.63636363636363,18)" style="font-family: sans-serif; font-size: 14px; fill: #000; opacity: 1;">3.0</text><text text-anchor="middle" transform="translate(190.9090909090909,18)" style="font-family: sans-serif; font-size: 14px; fill: #000; opacity: 0;">3.5</text><text text-anchor="middle" transform="translate(218.1818181818182,18)" style="font-family: sans-serif; font-size: 14px; fill: #000; opacity: 1;">4.0</text><text text-anchor="middle" transform="translate(245.45454545454547,18)" style="font-family: sans-serif; font-size: 14px; fill: #000; opacity: 0;">4.5</text><text text-anchor="middle" transform="translate(272.7272727272727,18)" style="font-family: sans-serif; font-size: 14px; fill: #000; opacity: 1;">5.0</text><text text-anchor="end" transform="translate(300,18)" style="font-family: sans-serif; font-size: 14px; fill: #000; opacity: 0;">5.5</text></g><g class="mark-rule role-axis-domain" style="pointer-events: none;"><line transform="translate(0,0)" x2="300" y2="0" style="fill: none; stroke: #888; stroke-width: 1; opacity: 1;"></line></g><g class="mark-text role-axis-title" style="pointer-events: none;"><text text-anchor="middle" transform="translate(150,36)" style="font-family: sans-serif; font-size: 14px; font-weight: bold; fill: #000; opacity: 1;">Rezago estimado (días)</text></g></g><path class="foreground" d="" style="pointer-events: none; display: none; fill: none;"></path></g></g></g><path class="foreground" d="" style="display: none; fill: none;"></path></g><g transform="translate(322,299)"><path class="background" d="M0,0h300v0h-300Z" style="fill: none;"></path><g><g class="mark-group role-axis"><g transform="translate(0.5,0.5)"><path class="background" d="M0,0h0v0h0Z" style="pointer-events: none; fill: none;"></path><g><g class="mark-rule role-axis-tick" style="pointer-events: none;"><line transform="translate(0,0)" x2="0" y2="5" style="fill: none; stroke: #888; stroke-width: 1; opacity: 1;"></line><line transform="translate(27,0)" x2="0" y2="5" style="fill: none; stroke: #888; stroke-width: 1; opacity: 1;"></line><line transform="translate(55,0)" x2="0" y2="5" style="fill: none; stroke: #888; stroke-width: 1; opacity: 1;"></line><line transform="translate(82,0)" x2="0" y2="5" style="fill: none; stroke: #888; stroke-width: 1; opacity: 1;"></line><line transform="translate(109,0)" x2="0" y2="5" style="fill: none; stroke: #888; stroke-width: 1; opacity: 1;"></line><line transform="translate(136,0)" x2="0" y2="5" style="fill: none; stroke: #888; stroke-width: 1; opacity: 1;"></line><line transform="translate(164,0)" x2="0" y2="5" style="fill: none; stroke: #888; stroke-width: 1; opacity: 1;"></line><line transform="translate(191,0)" x2="0" y2="5" style="fill: none; stroke: #888; stroke-width: 1; opacity: 1;"></line><line transform="translate(218,0)" x2="0" y2="5" style="fill: none; stroke: #888; stroke-width: 1; opacity: 1;"></line><line transform="translate(245,0)" x2="0" y2="5" style="fill: none; stroke: #888; stroke-width: 1; opacity: 1;"></line><line transform="translate(273,0)" x2="0" y2="5" style="fill: none; stroke: #888; stroke-width: 1; opacity: 1;"></line><line transform="translate(300,0)" x2="0" y2="5" style="fill: none; stroke: #888; stroke-width: 1; opacity: 1;"></line></g><g class="mark-text role-axis-label" style="pointer-events: none;"><text text-anchor="start" transform="translate(0,18)" style="font-family: sans-serif; font-size: 14px; fill: #000; opacity: 1;">0.0</text><text text-anchor="middle" transform="translate(27.272727272727273,18)" style="font-family: sans-serif; font-size: 14px; fill: #000; opacity: 0;">0.5</text><text text-anchor="middle" transform="translate(54.54545454545455,18)" style="font-family: sans-serif; font-size: 14px; fill: #000; opacity: 1;">1.0</text><text text-anchor="middle" transform="translate(81.81818181818181,18)" style="font-family: sans-serif; font-size: 14px; fill: #000; opacity: 0;">1.5</text><text text-anchor="middle" transform="translate(109.0909090909091,18)" style="font-family: sans-serif; font-size: 14px; fill: #000; opacity: 1;">2.0</text><text text-anchor="middle" transform="translate(136.36363636363635,18)" style="font-family: sans-serif; font-size: 14px; fill: #000; opacity: 0;">2.5</text><text text-anchor="middle" transform="translate(163.63636363636363,18)" style="font-family: sans-serif; font-size: 14px; fill: #000; opacity: 1;">3.0</text><text text-anchor="middle" transform="translate(190.9090909090909,18)" style="font-family: sans-serif; font-size: 14px; fill: #000; opacity: 0;">3.5</text><text text-anchor="middle" transform="translate(218.1818181818182,18)" style="font-family: sans-serif; font-size: 14px; fill: #000; opacity: 1;">4.0</text><text text-anchor="middle" transform="translate(245.45454545454547,18)" style="font-family: sans-serif; font-size: 14px; fill: #000; opacity: 0;">4.5</text><text text-anchor="middle" transform="translate(272.7272727272727,18)" style="font-family: sans-serif; font-size: 14px; fill: #000; opacity: 1;">5.0</text><text text-anchor="end" transform="translate(300,18)" style="font-family: sans-serif; font-size: 14px; fill: #000; opacity: 0;">5.5</text></g><g class="mark-rule role-axis-domain" style="pointer-events: none;"><line transform="translate(0,0)" x2="300" y2="0" style="fill: none; stroke: #888; stroke-width: 1; opacity: 1;"></line></g><g class="mark-text role-axis-title" style="pointer-events: none;"><text text-anchor="middle" transform="translate(150,36)" style="font-family: sans-serif; font-size: 14px; font-weight: bold; fill: #000; opacity: 1;">Rezago estimado (días)</text></g></g><path class="foreground" d="" style="pointer-events: none; display: none; fill: none;"></path></g></g></g><path class="foreground" d="" style="display: none; fill: none;"></path></g></g><g class="mark-group role-scope cell"><g transform="translate(0,0)"><path class="background" d="M0.5,0.5h300v40h-300Z" style="fill: none; stroke: #ddd;"></path><g><g class="mark-group role-axis"><g transform="translate(0.5,40.5)"><path class="background" d="M0,0h0v0h0Z" style="pointer-events: none; fill: none;"></path><g><g class="mark-rule role-axis-grid" style="pointer-events: none;"><line transform="translate(0,0)" x2="0" y2="-40" style="fill: none; stroke: #ddd; stroke-width: 1; opacity: 1;"></line><line transform="translate(27,0)" x2="0" y2="-40" style="fill: none; stroke: #ddd; stroke-width: 1; opacity: 1;"></line><line transform="translate(55,0)" x2="0" y2="-40" style="fill: none; stroke: #ddd; stroke-width: 1; opacity: 1;"></line><line transform="translate(82,0)" x2="0" y2="-40" style="fill: none; stroke: #ddd; stroke-width: 1; opacity: 1;"></line><line transform="translate(109,0)" x2="0" y2="-40" style="fill: none; stroke: #ddd; stroke-width: 1; opacity: 1;"></line><line transform="translate(136,0)" x2="0" y2="-40" style="fill: none; stroke: #ddd; stroke-width: 1; opacity: 1;"></line><line transform="translate(164,0)" x2="0" y2="-40" style="fill: none; stroke: #ddd; stroke-width: 1; opacity: 1;"></line><line transform="translate(191,0)" x2="0" y2="-40" style="fill: none; stroke: #ddd; stroke-width: 1; opacity: 1;"></line><line transform="translate(218,0)" x2="0" y2="-40" style="fill: none; stroke: #ddd; stroke-width: 1; opacity: 1;"></line><line transform="translate(245,0)" x2="0" y2="-40" style="fill: none; stroke: #ddd; stroke-width: 1; opacity: 1;"></line><line transform="translate(273,0)" x2="0" y2="-40" style="fill: none; stroke: #ddd; stroke-width: 1; opacity: 1;"></line><line transform="translate(300,0)" x2="0" y2="-40" style="fill: none; stroke: #ddd; stroke-width: 1; opacity: 1;"></line></g></g><path class="foreground" d="" style="pointer-events: none; display: none; fill: none;"></path></g></g><g class="mark-rect role-mark child_layer_0_marks"><path d="M0,1h292.30418201375534v18h-292.30418201375534Z" style="fill: #4c78a8;"></path><path d="M0,21h213.63636363636363v18h-213.63636363636363Z" style="fill: #f58518;"></path></g><g class="mark-text role-mark child_layer_1_marks"><text text-anchor="end" transform="translate(287.30418201375534,14)" style="font-family: sans-serif; font-size: 12px; fill: white;">5.4</text><text text-anchor="end" transform="translate(208.63636363636363,34)" style="font-family: sans-serif; font-size: 12px; fill: white;">3.9</text></g><g class="mark-group role-title"><g transform="translate(150,-24)"><path class="background" d="M0,0h0v0h0Z" style="pointer-events: none; fill: none;"></path><g><g class="mark-text role-title-text" style="pointer-events: none;"><text text-anchor="middle" transform="translate(0,11)" style="font-family: sans-serif; font-size: 14px; fill: #000; opacity: 1;">jul 19, 2020</text></g></g><path class="foreground" d="" style="pointer-events: none; display: none; fill: none;"></path></g></g></g><path class="foreground" d="" style="display: none; fill: none;"></path></g><g transform="translate(322,0)"><path class="background" d="M0.5,0.5h300v40h-300Z" style="fill: none; stroke: #ddd;"></path><g><g class="mark-group role-axis"><g transform="translate(0.5,40.5)"><path class="background" d="M0,0h0v0h0Z" style="pointer-events: none; fill: none;"></path><g><g class="mark-rule role-axis-grid" style="pointer-events: none;"><line transform="translate(0,0)" x2="0" y2="-40" style="fill: none; stroke: #ddd; stroke-width: 1; opacity: 1;"></line><line transform="translate(27,0)" x2="0" y2="-40" style="fill: none; stroke: #ddd; stroke-width: 1; opacity: 1;"></line><line transform="translate(55,0)" x2="0" y2="-40" style="fill: none; stroke: #ddd; stroke-width: 1; opacity: 1;"></line><line transform="translate(82,0)" x2="0" y2="-40" style="fill: none; stroke: #ddd; stroke-width: 1; opacity: 1;"></line><line transform="translate(109,0)" x2="0" y2="-40" style="fill: none; stroke: #ddd; stroke-width: 1; opacity: 1;"></line><line transform="translate(136,0)" x2="0" y2="-40" style="fill: none; stroke: #ddd; stroke-width: 1; opacity: 1;"></line><line transform="translate(164,0)" x2="0" y2="-40" style="fill: none; stroke: #ddd; stroke-width: 1; opacity: 1;"></line><line transform="translate(191,0)" x2="0" y2="-40" style="fill: none; stroke: #ddd; stroke-width: 1; opacity: 1;"></line><line transform="translate(218,0)" x2="0" y2="-40" style="fill: none; stroke: #ddd; stroke-width: 1; opacity: 1;"></line><line transform="translate(245,0)" x2="0" y2="-40" style="fill: none; stroke: #ddd; stroke-width: 1; opacity: 1;"></line><line transform="translate(273,0)" x2="0" y2="-40" style="fill: none; stroke: #ddd; stroke-width: 1; opacity: 1;"></line><line transform="translate(300,0)" x2="0" y2="-40" style="fill: none; stroke: #ddd; stroke-width: 1; opacity: 1;"></line></g></g><path class="foreground" d="" style="pointer-events: none; display: none; fill: none;"></path></g></g><g class="mark-rect role-mark child_layer_0_marks"><path d="M0,1h247.91285067000868v18h-247.91285067000868Z" style="fill: #4c78a8;"></path><path d="M0,21h186.8181818181818v18h-186.8181818181818Z" style="fill: #f58518;"></path></g><g class="mark-text role-mark child_layer_1_marks"><text text-anchor="end" transform="translate(242.91285067000868,14)" style="font-family: sans-serif; font-size: 12px; fill: white;">4.5</text><text text-anchor="end" transform="translate(181.8181818181818,34)" style="font-family: sans-serif; font-size: 12px; fill: white;">3.4</text></g><g class="mark-group role-title"><g transform="translate(150,-24)"><path class="background" d="M0,0h0v0h0Z" style="pointer-events: none; fill: none;"></path><g><g class="mark-text role-title-text" style="pointer-events: none;"><text text-anchor="middle" transform="translate(0,11)" style="font-family: sans-serif; font-size: 14px; fill: #000; opacity: 1;">jul 18, 2020</text></g></g><path class="foreground" d="" style="pointer-events: none; display: none; fill: none;"></path></g></g></g><path class="foreground" d="" style="display: none; fill: none;"></path></g><g transform="translate(0,86)"><path class="background" d="M0.5,0.5h300v40h-300Z" style="fill: none; stroke: #ddd;"></path><g><g class="mark-group role-axis"><g transform="translate(0.5,40.5)"><path class="background" d="M0,0h0v0h0Z" style="pointer-events: none; fill: none;"></path><g><g class="mark-rule role-axis-grid" style="pointer-events: none;"><line transform="translate(0,0)" x2="0" y2="-40" style="fill: none; stroke: #ddd; stroke-width: 1; opacity: 1;"></line><line transform="translate(27,0)" x2="0" y2="-40" style="fill: none; stroke: #ddd; stroke-width: 1; opacity: 1;"></line><line transform="translate(55,0)" x2="0" y2="-40" style="fill: none; stroke: #ddd; stroke-width: 1; opacity: 1;"></line><line transform="translate(82,0)" x2="0" y2="-40" style="fill: none; stroke: #ddd; stroke-width: 1; opacity: 1;"></line><line transform="translate(109,0)" x2="0" y2="-40" style="fill: none; stroke: #ddd; stroke-width: 1; opacity: 1;"></line><line transform="translate(136,0)" x2="0" y2="-40" style="fill: none; stroke: #ddd; stroke-width: 1; opacity: 1;"></line><line transform="translate(164,0)" x2="0" y2="-40" style="fill: none; stroke: #ddd; stroke-width: 1; opacity: 1;"></line><line transform="translate(191,0)" x2="0" y2="-40" style="fill: none; stroke: #ddd; stroke-width: 1; opacity: 1;"></line><line transform="translate(218,0)" x2="0" y2="-40" style="fill: none; stroke: #ddd; stroke-width: 1; opacity: 1;"></line><line transform="translate(245,0)" x2="0" y2="-40" style="fill: none; stroke: #ddd; stroke-width: 1; opacity: 1;"></line><line transform="translate(273,0)" x2="0" y2="-40" style="fill: none; stroke: #ddd; stroke-width: 1; opacity: 1;"></line><line transform="translate(300,0)" x2="0" y2="-40" style="fill: none; stroke: #ddd; stroke-width: 1; opacity: 1;"></line></g></g><path class="foreground" d="" style="pointer-events: none; display: none; fill: none;"></path></g></g><g class="mark-rect role-mark child_layer_0_marks"><path d="M0,1h162.21033868092692v18h-162.21033868092692Z" style="fill: #4c78a8;"></path><path d="M0,21h164.51330020461856v18h-164.51330020461856Z" style="fill: #f58518;"></path></g><g class="mark-text role-mark child_layer_1_marks"><text text-anchor="end" transform="translate(157.21033868092692,14)" style="font-family: sans-serif; font-size: 12px; fill: white;">3.0</text><text text-anchor="end" transform="translate(159.51330020461856,34)" style="font-family: sans-serif; font-size: 12px; fill: white;">3.0</text></g><g class="mark-group role-title"><g transform="translate(150,-24)"><path class="background" d="M0,0h0v0h0Z" style="pointer-events: none; fill: none;"></path><g><g class="mark-text role-title-text" style="pointer-events: none;"><text text-anchor="middle" transform="translate(0,11)" style="font-family: sans-serif; font-size: 14px; fill: #000; opacity: 1;">jul 17, 2020</text></g></g><path class="foreground" d="" style="pointer-events: none; display: none; fill: none;"></path></g></g></g><path class="foreground" d="" style="display: none; fill: none;"></path></g><g transform="translate(322,86)"><path class="background" d="M0.5,0.5h300v40h-300Z" style="fill: none; stroke: #ddd;"></path><g><g class="mark-group role-axis"><g transform="translate(0.5,40.5)"><path class="background" d="M0,0h0v0h0Z" style="pointer-events: none; fill: none;"></path><g><g class="mark-rule role-axis-grid" style="pointer-events: none;"><line transform="translate(0,0)" x2="0" y2="-40" style="fill: none; stroke: #ddd; stroke-width: 1; opacity: 1;"></line><line transform="translate(27,0)" x2="0" y2="-40" style="fill: none; stroke: #ddd; stroke-width: 1; opacity: 1;"></line><line transform="translate(55,0)" x2="0" y2="-40" style="fill: none; stroke: #ddd; stroke-width: 1; opacity: 1;"></line><line transform="translate(82,0)" x2="0" y2="-40" style="fill: none; stroke: #ddd; stroke-width: 1; opacity: 1;"></line><line transform="translate(109,0)" x2="0" y2="-40" style="fill: none; stroke: #ddd; stroke-width: 1; opacity: 1;"></line><line transform="translate(136,0)" x2="0" y2="-40" style="fill: none; stroke: #ddd; stroke-width: 1; opacity: 1;"></line><line transform="translate(164,0)" x2="0" y2="-40" style="fill: none; stroke: #ddd; stroke-width: 1; opacity: 1;"></line><line transform="translate(191,0)" x2="0" y2="-40" style="fill: none; stroke: #ddd; stroke-width: 1; opacity: 1;"></line><line transform="translate(218,0)" x2="0" y2="-40" style="fill: none; stroke: #ddd; stroke-width: 1; opacity: 1;"></line><line transform="translate(245,0)" x2="0" y2="-40" style="fill: none; stroke: #ddd; stroke-width: 1; opacity: 1;"></line><line transform="translate(273,0)" x2="0" y2="-40" style="fill: none; stroke: #ddd; stroke-width: 1; opacity: 1;"></line><line transform="translate(300,0)" x2="0" y2="-40" style="fill: none; stroke: #ddd; stroke-width: 1; opacity: 1;"></line></g></g><path class="foreground" d="" style="pointer-events: none; display: none; fill: none;"></path></g></g><g class="mark-rect role-mark child_layer_0_marks"><path d="M0,1h183.91563821774145v18h-183.91563821774145Z" style="fill: #4c78a8;"></path><path d="M0,21h170.7105181507912v18h-170.7105181507912Z" style="fill: #f58518;"></path></g><g class="mark-text role-mark child_layer_1_marks"><text text-anchor="end" transform="translate(178.91563821774145,14)" style="font-family: sans-serif; font-size: 12px; fill: white;">3.4</text><text text-anchor="end" transform="translate(165.7105181507912,34)" style="font-family: sans-serif; font-size: 12px; fill: white;">3.1</text></g><g class="mark-group role-title"><g transform="translate(150,-24)"><path class="background" d="M0,0h0v0h0Z" style="pointer-events: none; fill: none;"></path><g><g class="mark-text role-title-text" style="pointer-events: none;"><text text-anchor="middle" transform="translate(0,11)" style="font-family: sans-serif; font-size: 14px; fill: #000; opacity: 1;">jul 16, 2020</text></g></g><path class="foreground" d="" style="pointer-events: none; display: none; fill: none;"></path></g></g></g><path class="foreground" d="" style="display: none; fill: none;"></path></g><g transform="translate(0,172)"><path class="background" d="M0.5,0.5h300v40h-300Z" style="fill: none; stroke: #ddd;"></path><g><g class="mark-group role-axis"><g transform="translate(0.5,40.5)"><path class="background" d="M0,0h0v0h0Z" style="pointer-events: none; fill: none;"></path><g><g class="mark-rule role-axis-grid" style="pointer-events: none;"><line transform="translate(0,0)" x2="0" y2="-40" style="fill: none; stroke: #ddd; stroke-width: 1; opacity: 1;"></line><line transform="translate(27,0)" x2="0" y2="-40" style="fill: none; stroke: #ddd; stroke-width: 1; opacity: 1;"></line><line transform="translate(55,0)" x2="0" y2="-40" style="fill: none; stroke: #ddd; stroke-width: 1; opacity: 1;"></line><line transform="translate(82,0)" x2="0" y2="-40" style="fill: none; stroke: #ddd; stroke-width: 1; opacity: 1;"></line><line transform="translate(109,0)" x2="0" y2="-40" style="fill: none; stroke: #ddd; stroke-width: 1; opacity: 1;"></line><line transform="translate(136,0)" x2="0" y2="-40" style="fill: none; stroke: #ddd; stroke-width: 1; opacity: 1;"></line><line transform="translate(164,0)" x2="0" y2="-40" style="fill: none; stroke: #ddd; stroke-width: 1; opacity: 1;"></line><line transform="translate(191,0)" x2="0" y2="-40" style="fill: none; stroke: #ddd; stroke-width: 1; opacity: 1;"></line><line transform="translate(218,0)" x2="0" y2="-40" style="fill: none; stroke: #ddd; stroke-width: 1; opacity: 1;"></line><line transform="translate(245,0)" x2="0" y2="-40" style="fill: none; stroke: #ddd; stroke-width: 1; opacity: 1;"></line><line transform="translate(273,0)" x2="0" y2="-40" style="fill: none; stroke: #ddd; stroke-width: 1; opacity: 1;"></line><line transform="translate(300,0)" x2="0" y2="-40" style="fill: none; stroke: #ddd; stroke-width: 1; opacity: 1;"></line></g></g><path class="foreground" d="" style="pointer-events: none; display: none; fill: none;"></path></g></g><g class="mark-rect role-mark child_layer_0_marks"><path d="M0,1h168.26907247044878v18h-168.26907247044878Z" style="fill: #4c78a8;"></path><path d="M0,21h151.5769944341373v18h-151.5769944341373Z" style="fill: #f58518;"></path></g><g class="mark-text role-mark child_layer_1_marks"><text text-anchor="end" transform="translate(163.26907247044878,14)" style="font-family: sans-serif; font-size: 12px; fill: white;">3.1</text><text text-anchor="end" transform="translate(146.5769944341373,34)" style="font-family: sans-serif; font-size: 12px; fill: white;">2.8</text></g><g class="mark-group role-title"><g transform="translate(150,-24)"><path class="background" d="M0,0h0v0h0Z" style="pointer-events: none; fill: none;"></path><g><g class="mark-text role-title-text" style="pointer-events: none;"><text text-anchor="middle" transform="translate(0,11)" style="font-family: sans-serif; font-size: 14px; fill: #000; opacity: 1;">jul 15, 2020</text></g></g><path class="foreground" d="" style="pointer-events: none; display: none; fill: none;"></path></g></g></g><path class="foreground" d="" style="display: none; fill: none;"></path></g><g transform="translate(322,172)"><path class="background" d="M0.5,0.5h300v40h-300Z" style="fill: none; stroke: #ddd;"></path><g><g class="mark-group role-axis"><g transform="translate(0.5,40.5)"><path class="background" d="M0,0h0v0h0Z" style="pointer-events: none; fill: none;"></path><g><g class="mark-rule role-axis-grid" style="pointer-events: none;"><line transform="translate(0,0)" x2="0" y2="-40" style="fill: none; stroke: #ddd; stroke-width: 1; opacity: 1;"></line><line transform="translate(27,0)" x2="0" y2="-40" style="fill: none; stroke: #ddd; stroke-width: 1; opacity: 1;"></line><line transform="translate(55,0)" x2="0" y2="-40" style="fill: none; stroke: #ddd; stroke-width: 1; opacity: 1;"></line><line transform="translate(82,0)" x2="0" y2="-40" style="fill: none; stroke: #ddd; stroke-width: 1; opacity: 1;"></line><line transform="translate(109,0)" x2="0" y2="-40" style="fill: none; stroke: #ddd; stroke-width: 1; opacity: 1;"></line><line transform="translate(136,0)" x2="0" y2="-40" style="fill: none; stroke: #ddd; stroke-width: 1; opacity: 1;"></line><line transform="translate(164,0)" x2="0" y2="-40" style="fill: none; stroke: #ddd; stroke-width: 1; opacity: 1;"></line><line transform="translate(191,0)" x2="0" y2="-40" style="fill: none; stroke: #ddd; stroke-width: 1; opacity: 1;"></line><line transform="translate(218,0)" x2="0" y2="-40" style="fill: none; stroke: #ddd; stroke-width: 1; opacity: 1;"></line><line transform="translate(245,0)" x2="0" y2="-40" style="fill: none; stroke: #ddd; stroke-width: 1; opacity: 1;"></line><line transform="translate(273,0)" x2="0" y2="-40" style="fill: none; stroke: #ddd; stroke-width: 1; opacity: 1;"></line><line transform="translate(300,0)" x2="0" y2="-40" style="fill: none; stroke: #ddd; stroke-width: 1; opacity: 1;"></line></g></g><path class="foreground" d="" style="pointer-events: none; display: none; fill: none;"></path></g></g><g class="mark-rect role-mark child_layer_0_marks"><path d="M0,1h147.61329849535994v18h-147.61329849535994Z" style="fill: #4c78a8;"></path><path d="M0,21h121.61955691367456v18h-121.61955691367456Z" style="fill: #f58518;"></path></g><g class="mark-text role-mark child_layer_1_marks"><text text-anchor="end" transform="translate(142.61329849535994,14)" style="font-family: sans-serif; font-size: 12px; fill: white;">2.7</text><text text-anchor="end" transform="translate(116.61955691367456,34)" style="font-family: sans-serif; font-size: 12px; fill: white;">2.2</text></g><g class="mark-group role-title"><g transform="translate(150,-24)"><path class="background" d="M0,0h0v0h0Z" style="pointer-events: none; fill: none;"></path><g><g class="mark-text role-title-text" style="pointer-events: none;"><text text-anchor="middle" transform="translate(0,11)" style="font-family: sans-serif; font-size: 14px; fill: #000; opacity: 1;">jul 14, 2020</text></g></g><path class="foreground" d="" style="pointer-events: none; display: none; fill: none;"></path></g></g></g><path class="foreground" d="" style="display: none; fill: none;"></path></g><g transform="translate(0,258)"><path class="background" d="M0.5,0.5h300v40h-300Z" style="fill: none; stroke: #ddd;"></path><g><g class="mark-group role-axis"><g transform="translate(0.5,40.5)"><path class="background" d="M0,0h0v0h0Z" style="pointer-events: none; fill: none;"></path><g><g class="mark-rule role-axis-grid" style="pointer-events: none;"><line transform="translate(0,0)" x2="0" y2="-40" style="fill: none; stroke: #ddd; stroke-width: 1; opacity: 1;"></line><line transform="translate(27,0)" x2="0" y2="-40" style="fill: none; stroke: #ddd; stroke-width: 1; opacity: 1;"></line><line transform="translate(55,0)" x2="0" y2="-40" style="fill: none; stroke: #ddd; stroke-width: 1; opacity: 1;"></line><line transform="translate(82,0)" x2="0" y2="-40" style="fill: none; stroke: #ddd; stroke-width: 1; opacity: 1;"></line><line transform="translate(109,0)" x2="0" y2="-40" style="fill: none; stroke: #ddd; stroke-width: 1; opacity: 1;"></line><line transform="translate(136,0)" x2="0" y2="-40" style="fill: none; stroke: #ddd; stroke-width: 1; opacity: 1;"></line><line transform="translate(164,0)" x2="0" y2="-40" style="fill: none; stroke: #ddd; stroke-width: 1; opacity: 1;"></line><line transform="translate(191,0)" x2="0" y2="-40" style="fill: none; stroke: #ddd; stroke-width: 1; opacity: 1;"></line><line transform="translate(218,0)" x2="0" y2="-40" style="fill: none; stroke: #ddd; stroke-width: 1; opacity: 1;"></line><line transform="translate(245,0)" x2="0" y2="-40" style="fill: none; stroke: #ddd; stroke-width: 1; opacity: 1;"></line><line transform="translate(273,0)" x2="0" y2="-40" style="fill: none; stroke: #ddd; stroke-width: 1; opacity: 1;"></line><line transform="translate(300,0)" x2="0" y2="-40" style="fill: none; stroke: #ddd; stroke-width: 1; opacity: 1;"></line></g></g><path class="foreground" d="" style="pointer-events: none; display: none; fill: none;"></path></g></g><g class="mark-rect role-mark child_layer_0_marks"><path d="M0,1h208.90032399466364v18h-208.90032399466364Z" style="fill: #4c78a8;"></path><path d="M0,21h145.21841794569067v18h-145.21841794569067Z" style="fill: #f58518;"></path></g><g class="mark-text role-mark child_layer_1_marks"><text text-anchor="end" transform="translate(203.90032399466364,14)" style="font-family: sans-serif; font-size: 12px; fill: white;">3.8</text><text text-anchor="end" transform="translate(140.21841794569067,34)" style="font-family: sans-serif; font-size: 12px; fill: white;">2.7</text></g><g class="mark-group role-title"><g transform="translate(150,-24)"><path class="background" d="M0,0h0v0h0Z" style="pointer-events: none; fill: none;"></path><g><g class="mark-text role-title-text" style="pointer-events: none;"><text text-anchor="middle" transform="translate(0,11)" style="font-family: sans-serif; font-size: 14px; fill: #000; opacity: 1;">jul 13, 2020</text></g></g><path class="foreground" d="" style="pointer-events: none; display: none; fill: none;"></path></g></g></g><path class="foreground" d="" style="display: none; fill: none;"></path></g><g transform="translate(322,258)"><path class="background" d="M0.5,0.5h300v40h-300Z" style="fill: none; stroke: #ddd;"></path><g><g class="mark-group role-axis"><g transform="translate(0.5,40.5)"><path class="background" d="M0,0h0v0h0Z" style="pointer-events: none; fill: none;"></path><g><g class="mark-rule role-axis-grid" style="pointer-events: none;"><line transform="translate(0,0)" x2="0" y2="-40" style="fill: none; stroke: #ddd; stroke-width: 1; opacity: 1;"></line><line transform="translate(27,0)" x2="0" y2="-40" style="fill: none; stroke: #ddd; stroke-width: 1; opacity: 1;"></line><line transform="translate(55,0)" x2="0" y2="-40" style="fill: none; stroke: #ddd; stroke-width: 1; opacity: 1;"></line><line transform="translate(82,0)" x2="0" y2="-40" style="fill: none; stroke: #ddd; stroke-width: 1; opacity: 1;"></line><line transform="translate(109,0)" x2="0" y2="-40" style="fill: none; stroke: #ddd; stroke-width: 1; opacity: 1;"></line><line transform="translate(136,0)" x2="0" y2="-40" style="fill: none; stroke: #ddd; stroke-width: 1; opacity: 1;"></line><line transform="translate(164,0)" x2="0" y2="-40" style="fill: none; stroke: #ddd; stroke-width: 1; opacity: 1;"></line><line transform="translate(191,0)" x2="0" y2="-40" style="fill: none; stroke: #ddd; stroke-width: 1; opacity: 1;"></line><line transform="translate(218,0)" x2="0" y2="-40" style="fill: none; stroke: #ddd; stroke-width: 1; opacity: 1;"></line><line transform="translate(245,0)" x2="0" y2="-40" style="fill: none; stroke: #ddd; stroke-width: 1; opacity: 1;"></line><line transform="translate(273,0)" x2="0" y2="-40" style="fill: none; stroke: #ddd; stroke-width: 1; opacity: 1;"></line><line transform="translate(300,0)" x2="0" y2="-40" style="fill: none; stroke: #ddd; stroke-width: 1; opacity: 1;"></line></g></g><path class="foreground" d="" style="pointer-events: none; display: none; fill: none;"></path></g></g><g class="mark-rect role-mark child_layer_0_marks"><path d="M0,1h131.6774300380858v18h-131.6774300380858Z" style="fill: #4c78a8;"></path><path d="M0,21h109.97067448680352v18h-109.97067448680352Z" style="fill: #f58518;"></path></g><g class="mark-text role-mark child_layer_1_marks"><text text-anchor="end" transform="translate(126.67743003808579,14)" style="font-family: sans-serif; font-size: 12px; fill: white;">2.4</text><text text-anchor="end" transform="translate(104.97067448680352,34)" style="font-family: sans-serif; font-size: 12px; fill: white;">2.0</text></g><g class="mark-group role-title"><g transform="translate(150,-24)"><path class="background" d="M0,0h0v0h0Z" style="pointer-events: none; fill: none;"></path><g><g class="mark-text role-title-text" style="pointer-events: none;"><text text-anchor="middle" transform="translate(0,11)" style="font-family: sans-serif; font-size: 14px; fill: #000; opacity: 1;">jul 12, 2020</text></g></g><path class="foreground" d="" style="pointer-events: none; display: none; fill: none;"></path></g></g></g><path class="foreground" d="" style="display: none; fill: none;"></path></g></g><g class="mark-group role-legend"><g transform="translate(0,356)"><path class="background" d="M0,0h156v14h-156Z" style="pointer-events: none; fill: none;"></path><g><g class="mark-group role-legend-entry"><g transform="translate(0,0)"><path class="background" d="M0,0h0v0h0Z" style="pointer-events: none; fill: none;"></path><g><g class="mark-group role-scope"><g transform="translate(0,0)"><path class="background" d="M0,0h70.14453125v14h-70.14453125Z" style="pointer-events: none; fill: none; opacity: 1;"></path><g><g class="mark-symbol role-legend-symbol" style="pointer-events: none;"><path transform="translate(7,7)" d="M-5,-5h10v10h-10Z" style="fill: #4c78a8; stroke-width: 1.5; opacity: 1;"></path></g><g class="mark-text role-legend-label" style="pointer-events: none;"><text text-anchor="start" transform="translate(18,11)" style="font-family: sans-serif; font-size: 14px; fill: #000; opacity: 1;">Pruebas</text></g></g><path class="foreground" d="" style="pointer-events: none; display: none; fill: none;"></path></g><g transform="translate(81,0)"><path class="background" d="M0,0h74.0205078125v14h-74.0205078125Z" style="pointer-events: none; fill: none; opacity: 1;"></path><g><g class="mark-symbol role-legend-symbol" style="pointer-events: none;"><path transform="translate(7,7)" d="M-5,-5h10v10h-10Z" style="fill: #f58518; stroke-width: 1.5; opacity: 1;"></path></g><g class="mark-text role-legend-label" style="pointer-events: none;"><text text-anchor="start" transform="translate(18,11)" style="font-family: sans-serif; font-size: 14px; fill: #000; opacity: 1;">Positivas</text></g></g><path class="foreground" d="" style="pointer-events: none; display: none; fill: none;"></path></g></g></g><path class="foreground" d="" style="pointer-events: none; display: none; fill: none;"></path></g></g></g><path class="foreground" d="" style="pointer-events: none; display: none; fill: none;"></path></g></g></g><path class="foreground" d="" style="display: none; fill: none;"></path></g></g></g></svg>