<svg class="marks" width="656" height="436" viewBox="0 0 656 436" version="1.1" xmlns="http://www.w3.org/2000/svg" xmlns:xlink="http://www.w3.org/1999/xlink"><rect width="656" height="436" style="fill: white;"></rect><g transform="translate(74,29)"><g class="mark-group role-frame root"><g transform="translate(0,0)"><path class="background" d="M0,0h0v0h0Z" style="fill: none;"></path><g><g class="mark-group role-scope concat_0_group"><g transform="translate(0,0)"><path class="background" d="M0.5,0.5h575v275h-575Z" style="fill: none; stroke: #ddd;"></path><g><g class="mark-group role-axis"><g transform="translate(0.5,275.5)"><path class="background" d="M0,0h0v0h0Z" style="pointer-events: none; fill: none;"></path><g><g class="mark-rule role-axis-grid" style="pointer-events: none;"><line transform="translate(4,-275)" x2="0" y2="275" style="fill: none; stroke: #ddd; stroke-width: 1; opacity: 1;"></line><line transform="translate(34,-275)" x2="0" y2="275" style="fill: none; stroke: #ddd; stroke-width: 1; opacity: 1;"></line><line transform="translate(64,-275)" x2="0" y2="275" style="fill: none; stroke: #ddd; stroke-width: 1; opacity: 1;"></line><line transform="translate(94,-275)" x2="0" y2="275" style="fill: none; stroke: #ddd; stroke-width: 1; opacity: 1;"></line><line transform="translate(124,-275)" x2="0" y2="275" style="fill: none; stroke: #ddd; stroke-width: 1; opacity: 1;"></line><line transform="translate(154,-275)" x2="0" y2="275" style="fill: none; stroke: #ddd; stroke-width: 1; opacity: 1;"></line><line transform="translate(185,-275)" x2="0" y2="275" style="fill: none; stroke: #ddd; stroke-width: 1; opacity: 1;"></line><line transform="translate(215,-275)" x2="0" y2="275" style="fill: none; stroke: #ddd; stroke-width: 1; opacity: 1;"></line><line transform="translate(245,-275)" x2="0" y2="275" style="fill: none; stroke: #ddd; stroke-width: 1; opacity: 1;"></line><line transform="translate(275,-275)" x2="0" y2="275" style="fill: none; stroke: #ddd; stroke-width: 1; opacity: 1;"></line><line transform="translate(305,-275)" x2="0" y2="275" style="fill: none; stroke: #ddd; stroke-width: 1; opacity: 1;"></line><line transform="translate(335,-275)" x2="0" y2="275" style="fill: none; stroke: #ddd; stroke-width: 1; opacity: 1;"></line><line transform="translate(365,-275)" x2="0" y2="275" style="fill: none; stroke: #ddd; stroke-width: 1; opacity: 1;"></line><line transform="translate(395,-275)" x2="0" y2="275" style="fill: none; stroke: #ddd; stroke-width: 1; opacity: 1;"></line><line transform="translate(425,-275)" x2="0" y2="275" style="fill: none; stroke: #ddd; stroke-width: 1; opacity: 1;"></line><line transform="translate(455,-275)" x2="0" y2="275" style="fill: none; stroke: #ddd; stroke-width: 1; opacity: 1;"></line><line transform="translate(485,-275)" x2="0" y2="275" style="fill: none; stroke: #ddd; stroke-width: 1; opacity: 1;"></line><line transform="translate(515,-275)" x2="0" y2="275" style="fill: none; stroke: #ddd; stroke-width: 1; opacity: 1;"></line><line transform="translate(545,-275)" x2="0" y2="275" style="fill: none; stroke: #ddd; stroke-width: 1; opacity: 1;"></line><line transform="translate(575,-275)" x2="0" y2="275" style="fill: none; stroke: #ddd; stroke-width: 1; opacity: 1;"></line></g></g><path class="foreground" d="" style="pointer-events: none; display: none; fill: none;"></path></g></g><g class="mark-group role-axis"><g transform="translate(0.5,0.5)"><path class="background" d="M0,0h0v0h0Z" style="pointer-events: none; fill: none;"></path><g><g class="mark-rule role-axis-grid" style="pointer-events: none;"><line transform="translate(0,275)" x2="575" y2="0" style="fill: none; stroke: #ddd; stroke-width: 1; opacity: 1;"></line><line transform="translate(0,233)" x2="575" y2="0" style="fill: none; stroke: #ddd; stroke-width: 1; opacity: 1;"></line><line transform="translate(0,190)" x2="575" y2="0" style="fill: none; stroke: #ddd; stroke-width: 1; opacity: 1;"></line><line transform="translate(0,148)" x2="575" y2="0" style="fill: none; stroke: #ddd; stroke-width: 1; opacity: 1;"></line><line transform="translate(0,106)" x2="575" y2="0" style="fill: none; stroke: #ddd; stroke-width: 1; opacity: 1;"></line><line transform="translate(0,63)" x2="575" y2="0" style="fill: none; stroke: #ddd; stroke-width: 1; opacity: 1;"></line><line transform="translate(0,21)" x2="575" y2="0" style="fill: none; stroke: #ddd; stroke-width: 1; opacity: 1;"></line></g></g><path class="foreground" d="" style="pointer-events: none; display: none; fill: none;"></path></g></g><g class="mark-group role-axis"><g transform="translate(0.5,275.5)"><path class="background" d="M0,0h0v0h0Z" style="pointer-events: none; fill: none;"></path><g><g class="mark-rule role-axis-domain" style="pointer-events: none;"><line transform="translate(0,0)" x2="575" y2="0" style="fill: none; stroke: #888; stroke-width: 1; opacity: 1;"></line></g></g><path class="foreground" d="" style="pointer-events: none; display: none; fill: none;"></path></g></g><g class="mark-group role-axis"><g transform="translate(0.5,0.5)"><path class="background" d="M0,0h0v0h0Z" style="pointer-events: none; fill: none;"></path><g><g class="mark-rule role-axis-tick" style="pointer-events: none;"><line transform="translate(0,275)" x2="-5" y2="0" style="fill: none; stroke: #888; stroke-width: 1; opacity: 1;"></line><line transform="translate(0,233)" x2="-5" y2="0" style="fill: none; stroke: #888; stroke-width: 1; opacity: 1;"></line><line transform="translate(0,190)" x2="-5" y2="0" style="fill: none; stroke: #888; stroke-width: 1; opacity: 1;"></line><line transform="translate(0,148)" x2="-5" y2="0" style="fill: none; stroke: #888; stroke-width: 1; opacity: 1;"></line><line transform="translate(0,106)" x2="-5" y2="0" style="fill: none; stroke: #888; stroke-width: 1; opacity: 1;"></line><line transform="translate(0,63)" x2="-5" y2="0" style="fill: none; stroke: #888; stroke-width: 1; opacity: 1;"></line><line transform="translate(0,21)" x2="-5" y2="0" style="fill: none; stroke: #888; stroke-width: 1; opacity: 1;"></line></g><g class="mark-text role-axis-label" style="pointer-events: none;"><text text-anchor="end" transform="translate(-7,279)" style="font-family: sans-serif; font-size: 14px; fill: #000; opacity: 1;"></text><text text-anchor="end" transform="translate(-7,236.69230769230768)" style="font-family: sans-serif; font-size: 14px; fill: #000; opacity: 1;">2,000</text><text text-anchor="end" transform="translate(-7,194.3846153846154)" style="font-family: sans-serif; font-size: 14px; fill: #000; opacity: 1;">4,000</text><text text-anchor="end" transform="translate(-7,152.07692307692307)" style="font-family: sans-serif; font-size: 14px; fill: #000; opacity: 1;">6,000</text><text text-anchor="end" transform="translate(-7,109.76923076923076)" style="font-family: sans-serif; font-size: 14px; fill: #000; opacity: 1;">8,000</text><text text-anchor="end" transform="translate(-7,67.46153846153845)" style="font-family: sans-serif; font-size: 14px; fill: #000; opacity: 1;">10,000</text><text text-anchor="end" transform="translate(-7,25.15384615384614)" style="font-family: sans-serif; font-size: 14px; fill: #000; opacity: 1;">12,000</text></g><g class="mark-rule role-axis-domain" style="pointer-events: none;"><line transform="translate(0,275)" x2="0" y2="-275" style="fill: none; stroke: #888; stroke-width: 1; opacity: 1;"></line></g><g class="mark-text role-axis-title" style="pointer-events: none;"><text text-anchor="middle" transform="translate(-53.8203125,137.5) rotate(-90) translate(0,-3)" style="font-family: sans-serif; font-size: 14px; font-weight: bold; fill: #000; opacity: 1;">Resultados moleculares (promedio 7 días)</text></g></g><path class="foreground" d="" style="pointer-events: none; display: none; fill: none;"></path></g></g><g class="mark-group role-scope concat_0_pathgroup"><g transform="translate(0,0)"><path class="background" d="M0,0h575v275h-575Z" style="fill: none;"></path><g><g class="mark-area role-mark concat_0_marks"><path d="M0,261.99038461538464L4.291044776119403,262.7730769230769L8.582089552238806,260.8128205128205L12.873134328358208,261.17596153846154L17.16417910447761,260.2769230769231L21.455223880597014,259.32147435897434L25.746268656716417,258.9381868131868L30.03731343283582,258.1282967032967L34.32835820895522,259.52445054945053L38.61940298507463,260.8208791208791L42.91044776119403,262.2442307692308L47.201492537313435,261.8423076923077L51.492537313432834,260.8480769230769L55.78358208955224,260.8601648351648L60.07462686567164,262.6975274725275L64.36567164179105,260.3282967032967L68.65671641791045,258.0497252747253L72.94776119402985,256.03406593406595L77.23880597014926,253.44120879120877L81.52985074626865,248.45192307692307L85.82089552238806,243.23296703296705L90.11194029850746,235.7596153846154L94.40298507462687,234.81071428571428L98.69402985074626,232.3901098901099L102.98507462686567,232.1392857142857L107.27611940298507,230.67664835164834L111.56716417910448,231.9881868131868L115.85820895522389,236.40631868131868L120.14925373134328,230.10247252747254L124.44029850746269,230.38351648351647L128.7313432835821,234.55686813186813L133.02238805970148,233.10934065934066L137.3134328358209,234.34230769230768L141.6044776119403,232.66510989010987L145.8955223880597,231.37774725274727L150.18656716417908,245.26373626373626L154.47761194029852,246.51785714285714L158.76865671641792,244.96153846153845L163.0597014925373,245.3423076923077L167.3507462686567,246.8532967032967L171.6417910447761,251.85467032967034L175.93283582089552,251.52527472527476L180.22388059701493,249.78763736263735L184.51492537313433,250.43736263736267L188.80597014925374,248.2857142857143L193.09701492537314,249.31923076923076L197.38805970149252,245.97087912087915L201.67910447761196,245.23956043956045L205.97014925373134,237.0771978021978L210.26119402985074,236.5725274725275L214.55223880597015,234.0431318681319L218.84328358208955,235.8714285714286L223.13432835820896,237.2826923076923L227.42537313432834,241.80054945054945L231.71641791044777,242.3989010989011L236.00746268656718,249.24670329670332L240.29850746268656,249.14697802197801L244.58955223880596,251.57060439560442L248.88059701492537,252.314010989011L253.17164179104478,249.78763736263735L257.4626865671642,248.9565934065934L261.75373134328356,247.94423076923076L266.04477611940297,248.74807692307692L270.3358208955224,249.289010989011L274.6268656716418,249.5307692307692L278.9179104477612,248.8206043956044L283.2089552238806,249.50659340659342L287.5,249.08956043956044L291.7910447761194,247.69642857142856L296.0820895522388,248.4458791208791L300.37313432835816,239.9541208791209L304.6641791044776,239.17445054945054L308.95522388059703,237.464010989011L313.24626865671644,234.96483516483516L317.53731343283584,231.97609890109888L321.8283582089552,228.41923076923078L326.1194029850746,223.15796703296704L330.410447761194,231.29615384615383L334.7014925373134,231.4684065934066L338.9925373134329,231.7131868131868L343.2835820895522,230.0964285714286L347.57462686567163,232.72252747252745L351.86567164179104,237.54560439560439L356.15671641791045,241.52252747252746L360.44776119402985,241.59807692307692L364.73880597014926,231.50769230769234L369.02985074626866,234.56593406593404L373.32089552238807,239.34368131868132L377.6119402985075,238.48241758241755L381.9029850746269,238.01401098901098L386.1940298507463,235.88653846153846L390.48507462686564,235.77774725274725L394.77611940298505,245.98296703296703L399.06716417910445,245.10357142857143L403.3582089552239,239.9208791208791L407.6492537313433,232.72554945054944L411.94029850746267,224.85329670329668L416.2313432835821,224.6447802197802L420.5223880597015,224.82307692307694L424.8134328358209,216.29203296703295L429.1044776119403,215.35521978021978L433.3955223880597,214.907967032967L437.6865671641791,222.8739010989011L441.9776119402985,217.28021978021977L446.2686567164179,208.40769230769232L450.55970149253733,207.93626373626373L454.8507462686567,216.0472527472527L459.1417910447761,214.82335164835163L463.43283582089555,216.61236263736262L467.72388059701495,207.91813186813187L472.01492537313436,219.69175824175824L476.3059701492537,231.07554945054943L480.5970149253731,231.08461538461538L484.8880597014925,230.71593406593405L489.17910447761193,222.50824175824172L493.47014925373134,223.05824175824173L497.76119402985074,224.49065934065933L502.05223880597015,224.86840659340658L506.34328358208955,217.41923076923075L510.63432835820896,215.75412087912088L514.9253731343284,215.50631868131867L519.2164179104478,224.34862637362633L523.5074626865671,224.3667582417582L527.7985074626865,229.5282967032967L532.0895522388059,222.84670329670325L536.3805970149253,224.77472527472526L540.6716417910447,225.4274725274725L544.9626865671642,225.24313186813185L549.2537313432836,223.99203296703294L553.544776119403,223.6656593406593L557.8358208955224,223.60219780219776L562.1268656716418,236.6480769230769L566.4179104477612,241.35027472527472L570.7089552238806,239.83021978021975L575,240.63104395604392L575,275L570.7089552238806,275L566.4179104477612,275L562.1268656716418,275L557.8358208955224,275L553.544776119403,275L549.2537313432836,275L544.9626865671642,275L540.6716417910447,275L536.3805970149253,275L532.0895522388059,275L527.7985074626865,275L523.5074626865671,275L519.2164179104478,275L514.9253731343284,275L510.63432835820896,275L506.34328358208955,275L502.05223880597015,275L497.76119402985074,275L493.47014925373134,275L489.17910447761193,275L484.8880597014925,275L480.5970149253731,275L476.3059701492537,275L472.01492537313436,275L467.72388059701495,275L463.43283582089555,275L459.1417910447761,275L454.8507462686567,275L450.55970149253733,275L446.2686567164179,275L441.9776119402985,275L437.6865671641791,275L433.3955223880597,275L429.1044776119403,275L424.8134328358209,275L420.5223880597015,275L416.2313432835821,275L411.94029850746267,275L407.6492537313433,275L403.3582089552239,275L399.06716417910445,275L394.77611940298505,275L390.48507462686564,275L386.1940298507463,275L381.9029850746269,275L377.6119402985075,275L373.32089552238807,275L369.02985074626866,275L364.73880597014926,275L360.44776119402985,275L356.15671641791045,275L351.86567164179104,275L347.57462686567163,275L343.2835820895522,275L338.9925373134329,275L334.7014925373134,275L330.410447761194,275L326.1194029850746,275L321.8283582089552,275L317.53731343283584,275L313.24626865671644,275L308.95522388059703,275L304.6641791044776,275L300.37313432835816,275L296.0820895522388,275L291.7910447761194,275L287.5,275L283.2089552238806,275L278.9179104477612,275L274.6268656716418,275L270.3358208955224,275L266.04477611940297,275L261.75373134328356,275L257.4626865671642,275L253.17164179104478,275L248.88059701492537,275L244.58955223880596,275L240.29850746268656,275L236.00746268656718,275L231.71641791044777,275L227.42537313432834,275L223.13432835820896,275L218.84328358208955,275L214.55223880597015,275L210.26119402985074,275L205.97014925373134,275L201.67910447761196,275L197.38805970149252,275L193.09701492537314,275L188.80597014925374,275L184.51492537313433,275L180.22388059701493,275L175.93283582089552,275L171.6417910447761,275L167.3507462686567,275L163.0597014925373,275L158.76865671641792,275L154.47761194029852,275L150.18656716417908,275L145.8955223880597,275L141.6044776119403,275L137.3134328358209,275L133.02238805970148,275L128.7313432835821,275L124.44029850746269,275L120.14925373134328,275L115.85820895522389,275L111.56716417910448,275L107.27611940298507,275L102.98507462686567,275L98.69402985074626,275L94.40298507462687,275L90.11194029850746,275L85.82089552238806,275L81.52985074626865,275L77.23880597014926,275L72.94776119402985,275L68.65671641791045,275L64.36567164179105,275L60.07462686567164,275L55.78358208955224,275L51.492537313432834,275L47.201492537313435,275L42.91044776119403,275L38.61940298507463,275L34.32835820895522,275L30.03731343283582,275L25.746268656716417,275L21.455223880597014,275L17.16417910447761,275L12.873134328358208,275L8.582089552238806,275L4.291044776119403,275L0,275Z" style="fill: rgb(100, 188, 97); opacity: 0.85;"></path></g></g><path class="foreground" d="" style="display: none; fill: none;"></path></g><g transform="translate(0,0)"><path class="background" d="M0,0h575v275h-575Z" style="fill: none;"></path><g><g class="mark-area role-mark concat_0_marks"><path d="M0,258.4788461538462L4.291044776119403,260.4778846153846L8.582089552238806,240.56153846153845L12.873134328358208,234.11490384615382L17.16417910447761,233.87269230769232L21.455223880597014,234.04967948717947L25.746268656716417,235.5813186813187L30.03731343283582,232.75576923076923L34.32835820895522,232.92499999999998L38.61940298507463,237.46098901098904L42.91044776119403,242.6436813186813L47.201492537313435,241.55274725274725L51.492537313432834,240.00247252747252L55.78358208955224,239.07472527472527L60.07462686567164,241.74615384615385L64.36567164179105,237.51236263736266L68.65671641791045,237.2736263736264L72.94776119402985,236.84450549450548L77.23880597014926,236.45467032967034L81.52985074626865,234.10357142857143L85.82089552238806,230.3291208791209L90.11194029850746,222.83763736263737L94.40298507462687,221.01236263736266L98.69402985074626,218.25027472527475L102.98507462686567,215.76016483516486L107.27611940298507,214.60576923076925L111.56716417910448,213.78983516483515L115.85820895522389,218.53736263736263L120.14925373134328,204.7571428571429L124.44029850746269,208.47115384615384L128.7313432835821,214.27335164835165L133.02238805970148,206.8967032967033L137.3134328358209,203.71456043956044L141.6044776119403,203.367032967033L145.8955223880597,202.22472527472527L150.18656716417908,225.2703296703297L154.47761194029852,227.15906593406595L158.76865671641792,213.95906593406596L163.0597014925373,217.60659340659342L167.3507462686567,219.59807692307695L171.6417910447761,225.13736263736266L175.93283582089552,224.46648351648352L180.22388059701493,222.60796703296705L184.51492537313433,217.74258241758244L188.80597014925374,214.4607142857143L193.09701492537314,219.7824175824176L197.38805970149252,219.22939560439562L201.67910447761196,218.26236263736266L205.97014925373134,204.92939560439564L210.26119402985074,204.28269230769234L214.55223880597015,204.41565934065935L218.84328358208955,212.19423076923078L223.13432835820896,214.0648351648352L227.42537313432834,218.81538461538463L231.71641791044777,219.92445054945057L236.00746268656718,231.19945054945057L240.29850746268656,228.53406593406595L244.58955223880596,233.7953296703297L248.88059701492537,225.19780219780222L253.17164179104478,215.0802197802198L257.4626865671642,211.03983516483515L261.75373134328356,209.8008241758242L266.04477611940297,211.46895604395604L270.3358208955224,214.7085164835165L274.6268656716418,214.90494505494505L278.9179104477612,210.51098901098905L283.2089552238806,213.74148351648356L287.5,217.12307692307695L291.7910447761194,201.35137362637363L296.0820895522388,199.91291208791213L300.37313432835816,177.6802197802198L304.6641791044776,174.96043956043957L308.95522388059703,188.5019230769231L313.24626865671644,182.8901098901099L317.53731343283584,176.7857142857143L321.8283582089552,185.30769230769232L326.1194029850746,178.93736263736264L330.410447761194,200.61703296703294L334.7014925373134,202.7263736263736L338.9925373134329,200.14560439560438L343.2835820895522,202.25494505494507L347.57462686567163,208.6706043956044L351.86567164179104,216.27994505494507L356.15671641791045,223.6989010989011L360.44776119402985,223.68983516483516L364.73880597014926,196.80934065934068L369.02985074626866,207.07802197802198L373.32089552238807,214.57252747252747L377.6119402985075,211.86785714285716L381.9029850746269,206.98736263736265L386.1940298507463,200.47197802197803L390.48507462686564,200.5173076923077L394.77611940298505,223.01291208791207L399.06716417910445,219.8368131868132L403.3582089552239,188.56840659340662L407.6492537313433,179.5236263736264L411.94029850746267,171.54560439560439L416.2313432835821,173.72142857142856L420.5223880597015,173.8664835164835L424.8134328358209,157.78956043956043L429.1044776119403,157.91043956043958L433.3955223880597,175.28681318681316L437.6865671641791,185.99972527472528L441.9776119402985,177.51401098901098L446.2686567164179,162.8120879120879L450.55970149253733,162.16538461538462L454.8507462686567,181.80824175824176L459.1417910447761,179.91043956043956L463.43283582089555,175.60109890109888L467.72388059701495,161.31318681318683L472.01492537313436,176.78269230769232L476.3059701492537,195.40412087912085L480.5970149253731,195.62774725274724L484.8880597014925,195.7032967032967L489.17910447761193,160.69670329670325L493.47014925373134,175.453021978022L497.76119402985074,177.18763736263733L502.05223880597015,180.393956043956L506.34328358208955,171.17692307692306L510.63432835820896,168.6384615384615L514.9253731343284,167.16373626373624L519.2164179104478,204.29780219780218L523.5074626865671,188.6892857142857L527.7985074626865,190.31510989010985L532.0895522388059,175.41373626373624L536.3805970149253,173.5642857142857L540.6716417910447,174.62197802197798L544.9626865671642,175.35329670329668L549.2537313432836,173.02335164835162L553.544776119403,158.60851648351644L557.8358208955224,168.0340659340659L562.1268656716418,190.58708791208787L566.4179104477612,184.6307692307692L570.7089552238806,173.61565934065928L575,174.1928571428571L575,240.63104395604392L570.7089552238806,239.83021978021975L566.4179104477612,241.35027472527472L562.1268656716418,236.6480769230769L557.8358208955224,223.60219780219776L553.544776119403,223.6656593406593L549.2537313432836,223.99203296703294L544.9626865671642,225.24313186813185L540.6716417910447,225.4274725274725L536.3805970149253,224.77472527472526L532.0895522388059,222.84670329670325L527.7985074626865,229.5282967032967L523.5074626865671,224.3667582417582L519.2164179104478,224.34862637362633L514.9253731343284,215.50631868131867L510.63432835820896,215.75412087912088L506.34328358208955,217.41923076923075L502.05223880597015,224.86840659340658L497.76119402985074,224.49065934065933L493.47014925373134,223.05824175824173L489.17910447761193,222.50824175824172L484.8880597014925,230.71593406593405L480.5970149253731,231.08461538461538L476.3059701492537,231.07554945054943L472.01492537313436,219.69175824175824L467.72388059701495,207.91813186813187L463.43283582089555,216.61236263736262L459.1417910447761,214.82335164835163L454.8507462686567,216.0472527472527L450.55970149253733,207.93626373626373L446.2686567164179,208.40769230769232L441.9776119402985,217.28021978021977L437.6865671641791,222.8739010989011L433.3955223880597,214.907967032967L429.1044776119403,215.35521978021978L424.8134328358209,216.29203296703295L420.5223880597015,224.82307692307694L416.2313432835821,224.6447802197802L411.94029850746267,224.85329670329668L407.6492537313433,232.72554945054944L403.3582089552239,239.9208791208791L399.06716417910445,245.10357142857143L394.77611940298505,245.98296703296703L390.48507462686564,235.77774725274725L386.1940298507463,235.88653846153846L381.9029850746269,238.01401098901098L377.6119402985075,238.48241758241755L373.32089552238807,239.34368131868132L369.02985074626866,234.56593406593404L364.73880597014926,231.50769230769234L360.44776119402985,241.59807692307692L356.15671641791045,241.52252747252746L351.86567164179104,237.54560439560439L347.57462686567163,232.72252747252745L343.2835820895522,230.0964285714286L338.9925373134329,231.7131868131868L334.7014925373134,231.4684065934066L330.410447761194,231.29615384615383L326.1194029850746,223.15796703296704L321.8283582089552,228.41923076923078L317.53731343283584,231.97609890109888L313.24626865671644,234.96483516483516L308.95522388059703,237.464010989011L304.6641791044776,239.17445054945054L300.37313432835816,239.9541208791209L296.0820895522388,248.4458791208791L291.7910447761194,247.69642857142856L287.5,249.08956043956044L283.2089552238806,249.50659340659342L278.9179104477612,248.8206043956044L274.6268656716418,249.5307692307692L270.3358208955224,249.289010989011L266.04477611940297,248.74807692307692L261.75373134328356,247.94423076923076L257.4626865671642,248.9565934065934L253.17164179104478,249.78763736263735L248.88059701492537,252.314010989011L244.58955223880596,251.57060439560442L240.29850746268656,249.14697802197801L236.00746268656718,249.24670329670332L231.71641791044777,242.3989010989011L227.42537313432834,241.80054945054945L223.13432835820896,237.2826923076923L218.84328358208955,235.8714285714286L214.55223880597015,234.0431318681319L210.26119402985074,236.5725274725275L205.97014925373134,237.0771978021978L201.67910447761196,245.23956043956045L197.38805970149252,245.97087912087915L193.09701492537314,249.31923076923076L188.80597014925374,248.2857142857143L184.51492537313433,250.43736263736267L180.22388059701493,249.78763736263735L175.93283582089552,251.52527472527476L171.6417910447761,251.85467032967034L167.3507462686567,246.8532967032967L163.0597014925373,245.3423076923077L158.76865671641792,244.96153846153845L154.47761194029852,246.51785714285714L150.18656716417908,245.26373626373626L145.8955223880597,231.37774725274727L141.6044776119403,232.66510989010987L137.3134328358209,234.34230769230768L133.02238805970148,233.10934065934066L128.7313432835821,234.55686813186813L124.44029850746269,230.38351648351647L120.14925373134328,230.10247252747254L115.85820895522389,236.40631868131868L111.56716417910448,231.9881868131868L107.27611940298507,230.67664835164834L102.98507462686567,232.1392857142857L98.69402985074626,232.3901098901099L94.40298507462687,234.81071428571428L90.11194029850746,235.7596153846154L85.82089552238806,243.23296703296705L81.52985074626865,248.45192307692307L77.23880597014926,253.44120879120877L72.94776119402985,256.03406593406595L68.65671641791045,258.0497252747253L64.36567164179105,260.3282967032967L60.07462686567164,262.6975274725275L55.78358208955224,260.8601648351648L51.492537313432834,260.8480769230769L47.201492537313435,261.8423076923077L42.91044776119403,262.2442307692308L38.61940298507463,260.8208791208791L34.32835820895522,259.52445054945053L30.03731343283582,258.1282967032967L25.746268656716417,258.9381868131868L21.455223880597014,259.32147435897434L17.16417910447761,260.2769230769231L12.873134328358208,261.17596153846154L8.582089552238806,260.8128205128205L4.291044776119403,262.7730769230769L0,261.99038461538464Z" style="fill: rgb(215, 238, 142); opacity: 0.85;"></path></g></g><path class="foreground" d="" style="display: none; fill: none;"></path></g><g transform="translate(0,0)"><path class="background" d="M0,0h575v275h-575Z" style="fill: none;"></path><g><g class="mark-area role-mark concat_0_marks"><path d="M0,257.5692307692308L4.291044776119403,259.2086538461538L8.582089552238806,233.70064102564103L12.873134328358208,220.21153846153845L17.16417910447761,217.03L21.455223880597014,216.40737179487178L25.746268656716417,216.88434065934067L30.03731343283582,207.97554945054947L34.32835820895522,208.32005494505495L38.61940298507463,209.6315934065934L42.91044776119403,218.60384615384615L47.201492537313435,210.96126373626376L51.492537313432834,206.34065934065936L55.78358208955224,207.8032967032967L60.07462686567164,216.02005494505497L64.36567164179105,211.2271978021978L68.65671641791045,215.91730769230767L72.94776119402985,216.1228021978022L77.23880597014926,225.79917582417582L81.52985074626865,228.76978021978022L85.82089552238806,225.41236263736266L90.11194029850746,218.33791208791212L94.40298507462687,212.9074175824176L98.69402985074626,210.5532967032967L102.98507462686567,208.3019230769231L107.27611940298507,207.4467032967033L111.56716417910448,206.6186813186813L115.85820895522389,211.5324175824176L120.14925373134328,197.6978021978022L124.44029850746269,205.46730769230768L128.7313432835821,211.26346153846154L133.02238805970148,203.0587912087912L137.3134328358209,199.4989010989011L141.6044776119403,199.8857142857143L145.8955223880597,199.22087912087912L150.18656716417908,222.55357142857144L154.47761194029852,224.59038461538466L158.76865671641792,211.617032967033L163.0597014925373,216.2648351648352L167.3507462686567,218.5192307692308L171.6417910447761,223.93159340659344L175.93283582089552,222.72280219780222L180.22388059701493,220.86428571428573L184.51492537313433,210.2118131868132L188.80597014925374,204.8357142857143L193.09701492537314,210.1L197.38805970149252,209.6769230769231L201.67910447761196,208.49835164835167L205.97014925373134,195.38901098901098L210.26119402985074,194.6304945054945L214.55223880597015,200.36016483516485L218.84328358208955,210.18159340659344L223.13432835820896,211.9978021978022L227.42537313432834,216.20439560439564L231.71641791044777,217.48873626373629L236.00746268656718,228.86346153846156L240.29850746268656,226.00467032967035L244.58955223880596,231.3596153846154L248.88059701492537,222.44780219780222L253.17164179104478,212.35137362637366L257.4626865671642,208.70384615384614L261.75373134328356,207.56153846153848L266.04477611940297,207.9302197802198L270.3358208955224,211.20000000000005L274.6268656716418,211.51126373626374L278.9179104477612,200.69258241758243L283.2089552238806,199.0879120879121L287.5,202.38186813186817L291.7910447761194,179.5387362637363L296.0820895522388,179.32719780219782L300.37313432835816,154.0574175824176L304.6641791044776,151.25906593406594L308.95522388059703,171.41263736263735L313.24626865671644,170.37307692307695L317.53731343283584,164.314010989011L321.8283582089552,179.6717032967033L326.1194029850746,173.5431318681319L330.410447761194,198.45934065934068L334.7014925373134,200.56565934065935L338.9925373134329,198.0664835164835L343.2835820895522,200.43873626373627L347.57462686567163,203.221978021978L351.86567164179104,211.0096153846154L356.15671641791045,218.4467032967033L360.44776119402985,218.38626373626374L364.73880597014926,190.78956043956046L369.02985074626866,201.13681318681319L373.32089552238807,208.314010989011L377.6119402985075,208.49532967032968L381.9029850746269,200.17884615384614L386.1940298507463,188.96428571428572L390.48507462686564,182.64230769230767L394.77611940298505,198.34752747252747L399.06716417910445,194.87527472527472L403.3582089552239,158.30027472527476L407.6492537313433,150.2406593406594L411.94029850746267,141.0206043956044L416.2313432835821,145.9554945054945L420.5223880597015,152.52527472527473L424.8134328358209,137.24615384615385L429.1044776119403,137.82335164835166L433.3955223880597,160.6423076923077L437.6865671641791,170.96538461538464L441.9776119402985,163.47390109890108L446.2686567164179,150.53681318681316L450.55970149253733,149.9445054945055L454.8507462686567,176.29615384615386L459.1417910447761,174.3379120879121L463.43283582089555,167.2392857142857L467.72388059701495,152.77005494505497L472.01492537313436,170.40329670329666L476.3059701492537,188.77390109890112L480.5970149253731,188.7164835164835L484.8880597014925,188.5532967032967L489.17910447761193,151.72747252747251L493.47014925373134,168.7442307692308L497.76119402985074,170.7206043956044L502.05223880597015,174.95741758241755L506.34328358208955,166.1271978021978L510.63432835820896,163.60384615384615L514.9253731343284,161.53681318681316L519.2164179104478,199.82829670329667L523.5074626865671,176.13901098901096L527.7985074626865,176.06346153846152L532.0895522388059,159.8656593406593L536.3805970149253,157.4722527472527L540.6716417910447,158.45741758241755L544.9626865671642,159.96236263736262L549.2537313432836,157.24862637362634L553.544776119403,143.1752747252747L557.8358208955224,153.9153846153846L562.1268656716418,178.15467032967032L566.4179104477612,166.46263736263734L570.7089552238806,152.5252747252747L575,152.8123626373626L575,174.1928571428571L570.7089552238806,173.61565934065928L566.4179104477612,184.6307692307692L562.1268656716418,190.58708791208787L557.8358208955224,168.0340659340659L553.544776119403,158.60851648351644L549.2537313432836,173.02335164835162L544.9626865671642,175.35329670329668L540.6716417910447,174.62197802197798L536.3805970149253,173.5642857142857L532.0895522388059,175.41373626373624L527.7985074626865,190.31510989010985L523.5074626865671,188.6892857142857L519.2164179104478,204.29780219780218L514.9253731343284,167.16373626373624L510.63432835820896,168.6384615384615L506.34328358208955,171.17692307692306L502.05223880597015,180.393956043956L497.76119402985074,177.18763736263733L493.47014925373134,175.453021978022L489.17910447761193,160.69670329670325L484.8880597014925,195.7032967032967L480.5970149253731,195.62774725274724L476.3059701492537,195.40412087912085L472.01492537313436,176.78269230769232L467.72388059701495,161.31318681318683L463.43283582089555,175.60109890109888L459.1417910447761,179.91043956043956L454.8507462686567,181.80824175824176L450.55970149253733,162.16538461538462L446.2686567164179,162.8120879120879L441.9776119402985,177.51401098901098L437.6865671641791,185.99972527472528L433.3955223880597,175.28681318681316L429.1044776119403,157.91043956043958L424.8134328358209,157.78956043956043L420.5223880597015,173.8664835164835L416.2313432835821,173.72142857142856L411.94029850746267,171.54560439560439L407.6492537313433,179.5236263736264L403.3582089552239,188.56840659340662L399.06716417910445,219.8368131868132L394.77611940298505,223.01291208791207L390.48507462686564,200.5173076923077L386.1940298507463,200.47197802197803L381.9029850746269,206.98736263736265L377.6119402985075,211.86785714285716L373.32089552238807,214.57252747252747L369.02985074626866,207.07802197802198L364.73880597014926,196.80934065934068L360.44776119402985,223.68983516483516L356.15671641791045,223.6989010989011L351.86567164179104,216.27994505494507L347.57462686567163,208.6706043956044L343.2835820895522,202.25494505494507L338.9925373134329,200.14560439560438L334.7014925373134,202.7263736263736L330.410447761194,200.61703296703294L326.1194029850746,178.93736263736264L321.8283582089552,185.30769230769232L317.53731343283584,176.7857142857143L313.24626865671644,182.8901098901099L308.95522388059703,188.5019230769231L304.6641791044776,174.96043956043957L300.37313432835816,177.6802197802198L296.0820895522388,199.91291208791213L291.7910447761194,201.35137362637363L287.5,217.12307692307695L283.2089552238806,213.74148351648356L278.9179104477612,210.51098901098905L274.6268656716418,214.90494505494505L270.3358208955224,214.7085164835165L266.04477611940297,211.46895604395604L261.75373134328356,209.8008241758242L257.4626865671642,211.03983516483515L253.17164179104478,215.0802197802198L248.88059701492537,225.19780219780222L244.58955223880596,233.7953296703297L240.29850746268656,228.53406593406595L236.00746268656718,231.19945054945057L231.71641791044777,219.92445054945057L227.42537313432834,218.81538461538463L223.13432835820896,214.0648351648352L218.84328358208955,212.19423076923078L214.55223880597015,204.41565934065935L210.26119402985074,204.28269230769234L205.97014925373134,204.92939560439564L201.67910447761196,218.26236263736266L197.38805970149252,219.22939560439562L193.09701492537314,219.7824175824176L188.80597014925374,214.4607142857143L184.51492537313433,217.74258241758244L180.22388059701493,222.60796703296705L175.93283582089552,224.46648351648352L171.6417910447761,225.13736263736266L167.3507462686567,219.59807692307695L163.0597014925373,217.60659340659342L158.76865671641792,213.95906593406596L154.47761194029852,227.15906593406595L150.18656716417908,225.2703296703297L145.8955223880597,202.22472527472527L141.6044776119403,203.367032967033L137.3134328358209,203.71456043956044L133.02238805970148,206.8967032967033L128.7313432835821,214.27335164835165L124.44029850746269,208.47115384615384L120.14925373134328,204.7571428571429L115.85820895522389,218.53736263736263L111.56716417910448,213.78983516483515L107.27611940298507,214.60576923076925L102.98507462686567,215.76016483516486L98.69402985074626,218.25027472527475L94.40298507462687,221.01236263736266L90.11194029850746,222.83763736263737L85.82089552238806,230.3291208791209L81.52985074626865,234.10357142857143L77.23880597014926,236.45467032967034L72.94776119402985,236.84450549450548L68.65671641791045,237.2736263736264L64.36567164179105,237.51236263736266L60.07462686567164,241.74615384615385L55.78358208955224,239.07472527472527L51.492537313432834,240.00247252747252L47.201492537313435,241.55274725274725L42.91044776119403,242.6436813186813L38.61940298507463,237.46098901098904L34.32835820895522,232.92499999999998L30.03731343283582,232.75576923076923L25.746268656716417,235.5813186813187L21.455223880597014,234.04967948717947L17.16417910447761,233.87269230769232L12.873134328358208,234.11490384615382L8.582089552238806,240.56153846153845L4.291044776119403,260.4778846153846L0,258.4788461538462Z" style="fill: rgb(254, 221, 141); opacity: 0.85;"></path></g></g><path class="foreground" d="" style="display: none; fill: none;"></path></g><g transform="translate(0,0)"><path class="background" d="M0,0h575v275h-575Z" style="fill: none;"></path><g><g class="mark-area role-mark concat_0_marks"><path d="M0,257.42115384615386L4.291044776119403,259.0817307692308L8.582089552238806,232.07179487179488L12.873134328358208,214.71682692307692L17.16417910447761,210.90807692307692L21.455223880597014,210.23397435897436L25.746268656716417,210.6258241758242L30.03731343283582,201.2637362637363L34.32835820895522,201.5598901098901L38.61940298507463,200.34505494505498L42.91044776119403,210.75576923076926L47.201492537313435,196.35604395604398L51.492537313432834,178.5989010989011L55.78358208955224,178.63818681318682L60.07462686567164,186.82472527472527L64.36567164179105,180.9228021978022L68.65671641791045,187.96401098901097L72.94776119402985,188.64093406593403L77.23880597014926,204.67857142857142L81.52985074626865,219.30494505494502L85.82089552238806,211.9796703296703L90.11194029850746,204.40961538461536L94.40298507462687,191.20054945054946L98.69402985074626,182.36730769230772L102.98507462686567,175.75824175824175L107.27611940298507,172.67884615384617L111.56716417910448,163.25329670329668L115.85820895522389,173.50686813186812L120.14925373134328,154.52582417582414L124.44029850746269,171.14670329670327L128.7313432835821,183.52472527472526L133.02238805970148,175.71593406593405L137.3134328358209,166.56236263736264L141.6044776119403,175.90027472527473L145.8955223880597,175.65247252747253L150.18656716417908,205.05934065934068L154.47761194029852,207.12335164835164L158.76865671641792,188.4717032967033L163.0597014925373,197.1115384615385L167.3507462686567,208.29285714285714L171.6417910447761,214.9412087912088L175.93283582089552,213.6598901098901L180.22388059701493,211.8618131868132L184.51492537313433,201.09752747252745L188.80597014925374,200.5565934065934L193.09701492537314,205.89038461538465L197.38805970149252,203.66016483516484L201.67910447761196,202.18846153846158L205.97014925373134,186.16593406593407L210.26119402985074,185.0357142857143L214.55223880597015,190.710989010989L218.84328358208955,201.12170329670332L223.13432835820896,202.8291208791209L227.42537313432834,208.6736263736264L231.71641791044777,210.5049450549451L236.00746268656718,224.4423076923077L240.29850746268656,221.58351648351652L244.58955223880596,227.014010989011L248.88059701492537,217.76373626373626L253.17164179104478,207.6008241758242L257.4626865671642,201.48434065934066L261.75373134328356,191.53598901098903L266.04477611940297,191.82307692307694L270.3358208955224,195.42527472527476L274.6268656716418,195.86648351648353L278.9179104477612,183.70906593406596L283.2089552238806,180.30631868131871L287.5,186.0964285714286L291.7910447761194,143.12087912087912L296.0820895522388,69.79560439560443L300.37313432835816,44.01208791208798L304.6641791044776,41.01126373626375L308.95522388059703,62.87225274725277L313.24626865671644,63.73351648351652L317.53731343283584,57.704670329670364L321.8283582089552,102.13681318681316L326.1194029850746,169.8835164835165L330.410447761194,195.15027472527473L334.7014925373134,197.453021978022L338.9925373134329,195.0626373626374L343.2835820895522,197.25659340659342L347.57462686567163,168.42692307692306L351.86567164179104,106.79670329670333L356.15671641791045,109.3291208791209L360.44776119402985,109.47719780219784L364.73880597014926,81.9137362637363L369.02985074626866,92.66291208791212L373.32089552238807,100.03653846153851L377.6119402985075,131.82472527472532L381.9029850746269,172.46730769230768L386.1940298507463,164.3291208791209L390.48507462686564,151.00521978021976L394.77611940298505,163.51318681318682L399.06716417910445,159.39725274725276L403.3582089552239,122.10302197802201L407.6492537313433,112.00961538461543L411.94029850746267,120.82170329670332L416.2313432835821,107.25L420.5223880597015,70.20054945054942L424.8134328358209,20.90302197802201L429.1044776119403,21.885164835164893L433.3955223880597,45.4324175824176L437.6865671641791,57.95851648351651L441.9776119402985,52.97829670329672L446.2686567164179,49.312637362637396L450.55970149253733,99.11483516483518L454.8507462686567,162.52500000000006L459.1417910447761,161.19835164835166L463.43283582089555,154.49560439560443L467.72388059701495,140.0324175824176L472.01492537313436,157.5054945054945L476.3059701492537,186.77032967032972L480.5970149253731,186.83076923076925L484.8880597014925,186.8247252747253L489.17910447761193,149.71181318681317L493.47014925373134,166.61071428571432L497.76119402985074,166.47774725274726L502.05223880597015,170.90192307692308L506.34328358208955,155.8554945054945L510.63432835820896,150.5126373626374L514.9253731343284,144.5291208791209L519.2164179104478,182.92637362637365L523.5074626865671,158.66593406593407L527.7985074626865,160.5456043956044L532.0895522388059,143.98818681318681L536.3805970149253,147.90467032967035L540.6716417910447,151.43434065934068L544.9626865671642,156.4357142857143L549.2537313432836,152.58571428571432L553.544776119403,138.40054945054945L557.8358208955224,149.17692307692306L562.1268656716418,173.935989010989L566.4179104477612,162.25604395604395L570.7089552238806,147.22774725274726L575,147.65082417582414L575,152.8123626373626L570.7089552238806,152.5252747252747L566.4179104477612,166.46263736263734L562.1268656716418,178.15467032967032L557.8358208955224,153.9153846153846L553.544776119403,143.1752747252747L549.2537313432836,157.24862637362634L544.9626865671642,159.96236263736262L540.6716417910447,158.45741758241755L536.3805970149253,157.4722527472527L532.0895522388059,159.8656593406593L527.7985074626865,176.06346153846152L523.5074626865671,176.13901098901096L519.2164179104478,199.82829670329667L514.9253731343284,161.53681318681316L510.63432835820896,163.60384615384615L506.34328358208955,166.1271978021978L502.05223880597015,174.95741758241755L497.76119402985074,170.7206043956044L493.47014925373134,168.7442307692308L489.17910447761193,151.72747252747251L484.8880597014925,188.5532967032967L480.5970149253731,188.7164835164835L476.3059701492537,188.77390109890112L472.01492537313436,170.40329670329666L467.72388059701495,152.77005494505497L463.43283582089555,167.2392857142857L459.1417910447761,174.3379120879121L454.8507462686567,176.29615384615386L450.55970149253733,149.9445054945055L446.2686567164179,150.53681318681316L441.9776119402985,163.47390109890108L437.6865671641791,170.96538461538464L433.3955223880597,160.6423076923077L429.1044776119403,137.82335164835166L424.8134328358209,137.24615384615385L420.5223880597015,152.52527472527473L416.2313432835821,145.9554945054945L411.94029850746267,141.0206043956044L407.6492537313433,150.2406593406594L403.3582089552239,158.30027472527476L399.06716417910445,194.87527472527472L394.77611940298505,198.34752747252747L390.48507462686564,182.64230769230767L386.1940298507463,188.96428571428572L381.9029850746269,200.17884615384614L377.6119402985075,208.49532967032968L373.32089552238807,208.314010989011L369.02985074626866,201.13681318681319L364.73880597014926,190.78956043956046L360.44776119402985,218.38626373626374L356.15671641791045,218.4467032967033L351.86567164179104,211.0096153846154L347.57462686567163,203.221978021978L343.2835820895522,200.43873626373627L338.9925373134329,198.0664835164835L334.7014925373134,200.56565934065935L330.410447761194,198.45934065934068L326.1194029850746,173.5431318681319L321.8283582089552,179.6717032967033L317.53731343283584,164.314010989011L313.24626865671644,170.37307692307695L308.95522388059703,171.41263736263735L304.6641791044776,151.25906593406594L300.37313432835816,154.0574175824176L296.0820895522388,179.32719780219782L291.7910447761194,179.5387362637363L287.5,202.38186813186817L283.2089552238806,199.0879120879121L278.9179104477612,200.69258241758243L274.6268656716418,211.51126373626374L270.3358208955224,211.20000000000005L266.04477611940297,207.9302197802198L261.75373134328356,207.56153846153848L257.4626865671642,208.70384615384614L253.17164179104478,212.35137362637366L248.88059701492537,222.44780219780222L244.58955223880596,231.3596153846154L240.29850746268656,226.00467032967035L236.00746268656718,228.86346153846156L231.71641791044777,217.48873626373629L227.42537313432834,216.20439560439564L223.13432835820896,211.9978021978022L218.84328358208955,210.18159340659344L214.55223880597015,200.36016483516485L210.26119402985074,194.6304945054945L205.97014925373134,195.38901098901098L201.67910447761196,208.49835164835167L197.38805970149252,209.6769230769231L193.09701492537314,210.1L188.80597014925374,204.8357142857143L184.51492537313433,210.2118131868132L180.22388059701493,220.86428571428573L175.93283582089552,222.72280219780222L171.6417910447761,223.93159340659344L167.3507462686567,218.5192307692308L163.0597014925373,216.2648351648352L158.76865671641792,211.617032967033L154.47761194029852,224.59038461538466L150.18656716417908,222.55357142857144L145.8955223880597,199.22087912087912L141.6044776119403,199.8857142857143L137.3134328358209,199.4989010989011L133.02238805970148,203.0587912087912L128.7313432835821,211.26346153846154L124.44029850746269,205.46730769230768L120.14925373134328,197.6978021978022L115.85820895522389,211.5324175824176L111.56716417910448,206.6186813186813L107.27611940298507,207.4467032967033L102.98507462686567,208.3019230769231L98.69402985074626,210.5532967032967L94.40298507462687,212.9074175824176L90.11194029850746,218.33791208791212L85.82089552238806,225.41236263736266L81.52985074626865,228.76978021978022L77.23880597014926,225.79917582417582L72.94776119402985,216.1228021978022L68.65671641791045,215.91730769230767L64.36567164179105,211.2271978021978L60.07462686567164,216.02005494505497L55.78358208955224,207.8032967032967L51.492537313432834,206.34065934065936L47.201492537313435,210.96126373626376L42.91044776119403,218.60384615384615L38.61940298507463,209.6315934065934L34.32835820895522,208.32005494505495L30.03731343283582,207.97554945054947L25.746268656716417,216.88434065934067L21.455223880597014,216.40737179487178L17.16417910447761,217.03L12.873134328358208,220.21153846153845L8.582089552238806,233.70064102564103L4.291044776119403,259.2086538461538L0,257.5692307692308Z" style="fill: rgb(241, 110, 67); opacity: 0.85;"></path></g></g><path class="foreground" d="" style="display: none; fill: none;"></path></g></g></g><path class="foreground" d="" style="display: none; fill: none;"></path></g></g><g class="mark-group role-scope concat_1_group"><g transform="translate(0,287)"><path class="background" d="M0.5,0.5h575v75h-575Z" style="fill: none; stroke: #ddd;"></path><g><g class="mark-group role-axis"><g transform="translate(0.5,75.5)"><path class="background" d="M0,0h0v0h0Z" style="pointer-events: none; fill: none;"></path><g><g class="mark-rule role-axis-grid" style="pointer-events: none;"><line transform="translate(4,-75)" x2="0" y2="75" style="fill: none; stroke: #ddd; stroke-width: 1; opacity: 1;"></line><line transform="translate(34,-75)" x2="0" y2="75" style="fill: none; stroke: #ddd; stroke-width: 1; opacity: 1;"></line><line transform="translate(64,-75)" x2="0" y2="75" style="fill: none; stroke: #ddd; stroke-width: 1; opacity: 1;"></line><line transform="translate(94,-75)" x2="0" y2="75" style="fill: none; stroke: #ddd; stroke-width: 1; opacity: 1;"></line><line transform="translate(124,-75)" x2="0" y2="75" style="fill: none; stroke: #ddd; stroke-width: 1; opacity: 1;"></line><line transform="translate(154,-75)" x2="0" y2="75" style="fill: none; stroke: #ddd; stroke-width: 1; opacity: 1;"></line><line transform="translate(185,-75)" x2="0" y2="75" style="fill: none; stroke: #ddd; stroke-width: 1; opacity: 1;"></line><line transform="translate(215,-75)" x2="0" y2="75" style="fill: none; stroke: #ddd; stroke-width: 1; opacity: 1;"></line><line transform="translate(245,-75)" x2="0" y2="75" style="fill: none; stroke: #ddd; stroke-width: 1; opacity: 1;"></line><line transform="translate(275,-75)" x2="0" y2="75" style="fill: none; stroke: #ddd; stroke-width: 1; opacity: 1;"></line><line transform="translate(305,-75)" x2="0" y2="75" style="fill: none; stroke: #ddd; stroke-width: 1; opacity: 1;"></line><line transform="translate(335,-75)" x2="0" y2="75" style="fill: none; stroke: #ddd; stroke-width: 1; opacity: 1;"></line><line transform="translate(365,-75)" x2="0" y2="75" style="fill: none; stroke: #ddd; stroke-width: 1; opacity: 1;"></line><line transform="translate(395,-75)" x2="0" y2="75" style="fill: none; stroke: #ddd; stroke-width: 1; opacity: 1;"></line><line transform="translate(425,-75)" x2="0" y2="75" style="fill: none; stroke: #ddd; stroke-width: 1; opacity: 1;"></line><line transform="translate(455,-75)" x2="0" y2="75" style="fill: none; stroke: #ddd; stroke-width: 1; opacity: 1;"></line><line transform="translate(485,-75)" x2="0" y2="75" style="fill: none; stroke: #ddd; stroke-width: 1; opacity: 1;"></line><line transform="translate(515,-75)" x2="0" y2="75" style="fill: none; stroke: #ddd; stroke-width: 1; opacity: 1;"></line><line transform="translate(545,-75)" x2="0" y2="75" style="fill: none; stroke: #ddd; stroke-width: 1; opacity: 1;"></line><line transform="translate(575,-75)" x2="0" y2="75" style="fill: none; stroke: #ddd; stroke-width: 1; opacity: 1;"></line></g></g><path class="foreground" d="" style="pointer-events: none; display: none; fill: none;"></path></g></g><g class="mark-group role-axis"><g transform="translate(0.5,0.5)"><path class="background" d="M0,0h0v0h0Z" style="pointer-events: none; fill: none;"></path><g><g class="mark-rule role-axis-grid" style="pointer-events: none;"><line transform="translate(0,75)" x2="575" y2="0" style="fill: none; stroke: #ddd; stroke-width: 1; opacity: 1;"></line><line transform="translate(0,38)" x2="575" y2="0" style="fill: none; stroke: #ddd; stroke-width: 1; opacity: 1;"></line><line transform="translate(0,0)" x2="575" y2="0" style="fill: none; stroke: #ddd; stroke-width: 1; opacity: 1;"></line></g></g><path class="foreground" d="" style="pointer-events: none; display: none; fill: none;"></path></g></g><g class="mark-group role-axis"><g transform="translate(0.5,75.5)"><path class="background" d="M0,0h0v0h0Z" style="pointer-events: none; fill: none;"></path><g><g class="mark-rule role-axis-tick" style="pointer-events: none;"><line transform="translate(4,0)" x2="0" y2="5" style="fill: none; stroke: #888; stroke-width: 1; opacity: 1;"></line><line transform="translate(34,0)" x2="0" y2="5" style="fill: none; stroke: #888; stroke-width: 1; opacity: 1;"></line><line transform="translate(64,0)" x2="0" y2="5" style="fill: none; stroke: #888; stroke-width: 1; opacity: 1;"></line><line transform="translate(94,0)" x2="0" y2="5" style="fill: none; stroke: #888; stroke-width: 1; opacity: 1;"></line><line transform="translate(124,0)" x2="0" y2="5" style="fill: none; stroke: #888; stroke-width: 1; opacity: 1;"></line><line transform="translate(154,0)" x2="0" y2="5" style="fill: none; stroke: #888; stroke-width: 1; opacity: 1;"></line><line transform="translate(185,0)" x2="0" y2="5" style="fill: none; stroke: #888; stroke-width: 1; opacity: 1;"></line><line transform="translate(215,0)" x2="0" y2="5" style="fill: none; stroke: #888; stroke-width: 1; opacity: 1;"></line><line transform="translate(245,0)" x2="0" y2="5" style="fill: none; stroke: #888; stroke-width: 1; opacity: 1;"></line><line transform="translate(275,0)" x2="0" y2="5" style="fill: none; stroke: #888; stroke-width: 1; opacity: 1;"></line><line transform="translate(305,0)" x2="0" y2="5" style="fill: none; stroke: #888; stroke-width: 1; opacity: 1;"></line><line transform="translate(335,0)" x2="0" y2="5" style="fill: none; stroke: #888; stroke-width: 1; opacity: 1;"></line><line transform="translate(365,0)" x2="0" y2="5" style="fill: none; stroke: #888; stroke-width: 1; opacity: 1;"></line><line transform="translate(395,0)" x2="0" y2="5" style="fill: none; stroke: #888; stroke-width: 1; opacity: 1;"></line><line transform="translate(425,0)" x2="0" y2="5" style="fill: none; stroke: #888; stroke-width: 1; opacity: 1;"></line><line transform="translate(455,0)" x2="0" y2="5" style="fill: none; stroke: #888; stroke-width: 1; opacity: 1;"></line><line transform="translate(485,0)" x2="0" y2="5" style="fill: none; stroke: #888; stroke-width: 1; opacity: 1;"></line><line transform="translate(515,0)" x2="0" y2="5" style="fill: none; stroke: #888; stroke-width: 1; opacity: 1;"></line><line transform="translate(545,0)" x2="0" y2="5" style="fill: none; stroke: #888; stroke-width: 1; opacity: 1;"></line><line transform="translate(575,0)" x2="0" y2="5" style="fill: none; stroke: #888; stroke-width: 1; opacity: 1;"></line></g><g class="mark-text role-axis-label" style="pointer-events: none;"><text text-anchor="middle" transform="translate(4.291044776119403,18)" style="font-family: sans-serif; font-size: 14px; fill: #000; opacity: 1;">jul 19</text><text text-anchor="middle" transform="translate(34.32835820895522,18)" style="font-family: sans-serif; font-size: 14px; fill: #000; opacity: 0;">jul 26</text><text text-anchor="middle" transform="translate(64.36567164179105,18)" style="font-family: sans-serif; font-size: 14px; fill: #000; opacity: 1;">ago 02</text><text text-anchor="middle" transform="translate(94.40298507462687,18)" style="font-family: sans-serif; font-size: 14px; fill: #000; opacity: 0;">ago 09</text><text text-anchor="middle" transform="translate(124.44029850746269,18)" style="font-family: sans-serif; font-size: 14px; fill: #000; opacity: 1;">ago 16</text><text text-anchor="middle" transform="translate(154.47761194029852,18)" style="font-family: sans-serif; font-size: 14px; fill: #000; opacity: 0;">ago 23</text><text text-anchor="middle" transform="translate(184.51492537313433,18)" style="font-family: sans-serif; font-size: 14px; fill: #000; opacity: 1;">ago 30</text><text text-anchor="middle" transform="translate(214.55223880597015,18)" style="font-family: sans-serif; font-size: 14px; fill: #000; opacity: 0;">sep 06</text><text text-anchor="middle" transform="translate(244.58955223880596,18)" style="font-family: sans-serif; font-size: 14px; fill: #000; opacity: 1;">sep 13</text><text text-anchor="middle" transform="translate(274.6268656716418,18)" style="font-family: sans-serif; font-size: 14px; fill: #000; opacity: 0;">sep 20</text><text text-anchor="middle" transform="translate(304.6641791044776,18)" style="font-family: sans-serif; font-size: 14px; fill: #000; opacity: 1;">sep 27</text><text text-anchor="middle" transform="translate(334.7014925373134,18)" style="font-family: sans-serif; font-size: 14px; fill: #000; opacity: 0;">oct 04</text><text text-anchor="middle" transform="translate(364.73880597014926,18)" style="font-family: sans-serif; font-size: 14px; fill: #000; opacity: 1;">oct 11</text><text text-anchor="middle" transform="translate(394.77611940298505,18)" style="font-family: sans-serif; font-size: 14px; fill: #000; opacity: 0;">oct 18</text><text text-anchor="middle" transform="translate(424.8134328358209,18)" style="font-family: sans-serif; font-size: 14px; fill: #000; opacity: 1;">oct 25</text><text text-anchor="middle" transform="translate(454.8507462686567,18)" style="font-family: sans-serif; font-size: 14px; fill: #000; opacity: 0;">noviembre</text><text text-anchor="middle" transform="translate(484.8880597014925,18)" style="font-family: sans-serif; font-size: 14px; fill: #000; opacity: 1;">nov 08</text><text text-anchor="middle" transform="translate(514.9253731343284,18)" style="font-family: sans-serif; font-size: 14px; fill: #000; opacity: 0;">nov 15</text><text text-anchor="middle" transform="translate(544.9626865671642,18)" style="font-family: sans-serif; font-size: 14px; fill: #000; opacity: 1;">nov 22</text><text text-anchor="end" transform="translate(575,18)" style="font-family: sans-serif; font-size: 14px; fill: #000; opacity: 0;">nov 29</text></g><g class="mark-rule role-axis-domain" style="pointer-events: none;"><line transform="translate(0,0)" x2="575" y2="0" style="fill: none; stroke: #888; stroke-width: 1; opacity: 1;"></line></g><g class="mark-text role-axis-title" style="pointer-events: none;"><text text-anchor="middle" transform="translate(287.5,36)" style="font-family: sans-serif; font-size: 14px; font-weight: bold; fill: #000; opacity: 1;">Fecha de boletín</text></g></g><path class="foreground" d="" style="pointer-events: none; display: none; fill: none;"></path></g></g><g class="mark-group role-axis"><g transform="translate(0.5,0.5)"><path class="background" d="M0,0h0v0h0Z" style="pointer-events: none; fill: none;"></path><g><g class="mark-rule role-axis-tick" style="pointer-events: none;"><line transform="translate(0,75)" x2="-5" y2="0" style="fill: none; stroke: #888; stroke-width: 1; opacity: 1;"></line><line transform="translate(0,38)" x2="-5" y2="0" style="fill: none; stroke: #888; stroke-width: 1; opacity: 1;"></line><line transform="translate(0,0)" x2="-5" y2="0" style="fill: none; stroke: #888; stroke-width: 1; opacity: 1;"></line></g><g class="mark-text role-axis-label" style="pointer-events: none;"><text text-anchor="end" transform="translate(-7,79)" style="font-family: sans-serif; font-size: 14px; fill: #000; opacity: 1;">0%</text><text text-anchor="end" transform="translate(-7,41.5)" style="font-family: sans-serif; font-size: 14px; fill: #000; opacity: 1;">50%</text><text text-anchor="end" transform="translate(-7,4)" style="font-family: sans-serif; font-size: 14px; fill: #000; opacity: 1;"></text></g><g class="mark-rule role-axis-domain" style="pointer-events: none;"><line transform="translate(0,75)" x2="0" y2="-75" style="fill: none; stroke: #888; stroke-width: 1; opacity: 1;"></line></g><g class="mark-text role-axis-title" style="pointer-events: none;"><text text-anchor="middle" transform="translate(-39.0205078125,37.5) rotate(-90) translate(0,-3)" style="font-family: sans-serif; font-size: 14px; font-weight: bold; fill: #000; opacity: 1;">% renglón</text></g></g><path class="foreground" d="" style="pointer-events: none; display: none; fill: none;"></path></g></g><g class="mark-group role-scope concat_1_pathgroup"><g transform="translate(0,0)"><path class="background" d="M0,0h575v75h-575Z" style="fill: none;"></path><g><g class="mark-area role-mark concat_1_marks"><path d="M0,19.49458483754512L4.291044776119403,17.39202657807309L8.582089552238806,50.213534822601844L12.873134328358208,57.801122905518035L17.16417910447761,57.77114000924154L21.455223880597014,56.844039194338606L25.746268656716417,56.28696835977843L30.03731343283582,57.8391393442623L34.32835820895522,59.19574520615587L38.61940298507463,60.7553432642487L42.91044776119403,60.10865986170563L47.201492537313435,62.451967414694124L51.492537313432834,63.98981191222571L55.78358208955224,63.99473139523944L60.07462686567164,64.53578038247994L64.36567164179105,63.30345957405801L68.65671641791045,60.3937363285997L72.94776119402985,58.528711901179264L77.23880597014926,52.00687580575849L81.52985074626865,39.24986435160065L85.82089552238806,37.19430325117483L90.11194029850746,33.308360803116564L94.40298507462687,39.03083303281644L98.69402985074626,40.50092976217662L102.98507462686567,42.608861144945195L107.27611940298507,42.51159219114564L111.56716417910448,46.13215966250203L115.85820895522389,46.4805716837874L120.14925373134328,47.049490794160434L124.44029850746269,42.779200372461155L128.7313432835821,41.84093161546085L133.02238805970148,43.355451391002624L137.3134328358209,46.879441518267704L141.6044776119403,42.96038788765896L145.8955223880597,42.0684410646388L150.18656716417908,43.11268579329416L154.47761194029852,43.528783224255385L158.76865671641792,48.96360842384663L163.0597014925373,46.44215100488866L167.3507462686567,43.354172329437354L171.6417910447761,46.096658951393785L175.93283582089552,46.29766479456105L180.22388059701493,45.050974010434125L184.51492537313433,50.07258229400942L188.80597014925374,48.08597872858651L193.09701492537314,47.13039485766758L197.38805970149252,44.481509721692724L201.67910447761196,44.34506516145098L205.97014925373134,42.98288882841204L210.26119402985074,42.96439368491771L214.55223880597015,38.55675462498208L218.84328358208955,35.2773346422874L223.13432835820896,35.80416213047484L227.42537313432834,37.45899398578459L231.71641791044777,37.08883890919314L236.00746268656718,36.79617453676031L240.29850746268656,38.70078071961982L244.58955223880596,38.380880408086156L248.88059701492537,45.27323125659979L253.17164179104478,46.94435726135498L257.4626865671642,48.43075595017881L261.75373134328356,50.6879322205728L266.04477611940297,51.32884028484232L270.3358208955224,50.76712744949111L274.6268656716418,50.86114717788131L278.9179104477612,53.492336720844776L283.2089552238806,54.80852082336046L287.5,53.14167714742173L291.7910447761194,59.4723877176902L296.0820895522388,65.29475435909518L300.37313432835816,63.62087236380763L304.6641791044776,63.51689935295561L308.95522388059703,61.728755609373884L313.24626865671644,60.78744099556573L317.53731343283584,60.150198178151726L321.8283582089552,54.790042306213074L326.1194029850746,38.011010809567615L330.410447761194,33.95053551829844L334.7014925373134,32.89817232375978L338.9925373134329,34.3868138515046L343.2835820895522,31.680984218300534L347.57462686567163,45.247547212612716L351.86567164179104,58.299496945742L356.15671641791045,59.84458793914851L360.44776119402985,59.86526208168257L364.73880597014926,58.10639496666354L369.02985074626866,58.368414074282775L373.32089552238807,59.715529302036366L377.6119402985075,55.870868335514366L381.9029850746269,47.94571015945061L386.1940298507463,48.49339195019387L390.48507462686564,51.27586459018791L394.77611940298505,55.47950775235823L399.06716417910445,55.603989125320226L403.3582089552239,57.792766083605095L407.6492537313433,55.54741818856031L411.94029850746267,50.60614672964974L416.2313432835821,52.48648892091514L420.5223880597015,56.62461266046923L424.8134328358209,57.67158640866762L429.1044776119403,57.32676281668616L433.3955223880597,55.36786193823552L437.6865671641791,56.98751061667199L441.9776119402985,55.501980427118916L446.2686567164179,52.87016951875954L450.55970149253733,46.40304456891515L454.8507462686567,35.68943281657216L459.1417910447761,35.34109618142225L463.43283582089555,38.660472464640364L467.72388059701495,37.72334422999416L472.01492537313436,39.69521604938271L476.3059701492537,37.661837237977785L480.5970149253731,37.64395393474087L484.8880597014925,37.33292206456917L489.17910447761193,43.57738971031621L493.47014925373134,39.05888421111326L497.76119402985074,40.092868480409884L502.05223880597015,38.88147008447759L506.34328358208955,38.753614366154295L510.63432835820896,39.30608826528134L514.9253731343284,40.800597581877966L519.2164179104478,33.74113824340289L523.5074626865671,42.35699812967579L527.7985074626865,45.20317368115328L532.0895522388059,45.14393467580097L536.3805970149253,45.36165204365503L540.6716417910447,44.9112230673286L544.9626865671642,43.52538614467043L549.2537313432836,43.74876567591585L553.544776119403,46.8148533250741L557.8358208955224,44.36305120568737L562.1268656716418,46.53888706156742L566.4179104477612,52.61539080090059L570.7089552238806,54.35597549726826L575,54.75902327899194L575,75L570.7089552238806,75L566.4179104477612,75L562.1268656716418,75L557.8358208955224,75L553.544776119403,75L549.2537313432836,75L544.9626865671642,75L540.6716417910447,75L536.3805970149253,75L532.0895522388059,75L527.7985074626865,75L523.5074626865671,75L519.2164179104478,75L514.9253731343284,75L510.63432835820896,75L506.34328358208955,75L502.05223880597015,75L497.76119402985074,75L493.47014925373134,75L489.17910447761193,75L484.8880597014925,75L480.5970149253731,75L476.3059701492537,75L472.01492537313436,75L467.72388059701495,75L463.43283582089555,75L459.1417910447761,75L454.8507462686567,75L450.55970149253733,75L446.2686567164179,75L441.9776119402985,75L437.6865671641791,75L433.3955223880597,75L429.1044776119403,75L424.8134328358209,75L420.5223880597015,75L416.2313432835821,75L411.94029850746267,75L407.6492537313433,75L403.3582089552239,75L399.06716417910445,75L394.77611940298505,75L390.48507462686564,75L386.1940298507463,75L381.9029850746269,75L377.6119402985075,75L373.32089552238807,75L369.02985074626866,75L364.73880597014926,75L360.44776119402985,75L356.15671641791045,75L351.86567164179104,75L347.57462686567163,75L343.2835820895522,75L338.9925373134329,75L334.7014925373134,75L330.410447761194,75L326.1194029850746,75L321.8283582089552,75L317.53731343283584,75L313.24626865671644,75L308.95522388059703,75L304.6641791044776,75L300.37313432835816,75L296.0820895522388,75L291.7910447761194,75L287.5,75L283.2089552238806,75L278.9179104477612,75L274.6268656716418,75L270.3358208955224,75L266.04477611940297,75L261.75373134328356,75L257.4626865671642,75L253.17164179104478,75L248.88059701492537,75L244.58955223880596,75L240.29850746268656,75L236.00746268656718,75L231.71641791044777,75L227.42537313432834,75L223.13432835820896,75L218.84328358208955,75L214.55223880597015,75L210.26119402985074,75L205.97014925373134,75L201.67910447761196,75L197.38805970149252,75L193.09701492537314,75L188.80597014925374,75L184.51492537313433,75L180.22388059701493,75L175.93283582089552,75L171.6417910447761,75L167.3507462686567,75L163.0597014925373,75L158.76865671641792,75L154.47761194029852,75L150.18656716417908,75L145.8955223880597,75L141.6044776119403,75L137.3134328358209,75L133.02238805970148,75L128.7313432835821,75L124.44029850746269,75L120.14925373134328,75L115.85820895522389,75L111.56716417910448,75L107.27611940298507,75L102.98507462686567,75L98.69402985074626,75L94.40298507462687,75L90.11194029850746,75L85.82089552238806,75L81.52985074626865,75L77.23880597014926,75L72.94776119402985,75L68.65671641791045,75L64.36567164179105,75L60.07462686567164,75L55.78358208955224,75L51.492537313432834,75L47.201492537313435,75L42.91044776119403,75L38.61940298507463,75L34.32835820895522,75L30.03731343283582,75L25.746268656716417,75L21.455223880597014,75L17.16417910447761,75L12.873134328358208,75L8.582089552238806,75L4.291044776119403,75L0,75Z" style="fill: rgb(100, 188, 97); opacity: 0.85;"></path></g></g><path class="foreground" d="" style="display: none; fill: none;"></path></g><g transform="translate(0,0)"><path class="background" d="M0,0h575v75h-575Z" style="fill: none;"></path><g><g class="mark-area role-mark concat_1_marks"><path d="M0,4.512635379061372L4.291044776119403,6.578073089700995L8.582089552238806,14.832457293035475L12.873134328358208,24.133695938240194L17.16417910447761,26.87306092811407L21.455223880597014,27.5789330430049L25.746268656716417,29.07473476668857L30.03731343283582,32.03176229508197L34.32835820895522,32.03131429511973L38.61940298507463,37.28748380829015L42.91044776119403,37.226586386942L47.201492537313435,43.10252075007685L51.492537313432834,47.771943573667706L55.78358208955224,47.03876187788127L60.07462686567164,46.714990746452806L64.36567164179105,45.11419485400405L68.65671641791045,42.490712128051115L72.94776119402985,41.86321167372362L77.23880597014926,33.890201976794174L81.52985074626865,19.928106348345096L85.82089552238806,21.837537163134172L90.11194029850746,19.579177190804398L94.40298507462687,26.681391994230083L98.69402985074626,29.052621276873392L102.98507462686567,30.230663824604147L107.27611940298507,30.731858590035156L111.56716417910448,33.918140515982486L115.85820895522389,33.276016078606524L120.14925373134328,31.271007876385895L124.44029850746269,26.954693592504228L128.7313432835821,25.21060455896929L133.02238805970148,23.55420953308578L137.3134328358209,25.69601203912717L141.6044776119403,20.78721068520721L145.8955223880597,20.060076045627394L150.18656716417908,21.673003802281386L154.47761194029852,22.138373180179L158.76865671641792,22.09164251039013L163.0597014925373,19.73500426786686L167.3507462686567,12.710655069312335L171.6417910447761,12.732716111502473L175.93283582089552,13.21312444575822L180.22388059701493,12.76504092279712L184.51492537313433,16.89225107340014L188.80597014925374,14.008078265811491L193.09701492537314,15.076085530630998L197.38805970149252,16.368026432837727L201.67910447761196,16.557026645637926L205.97014925373134,15.841441012382656L210.26119402985074,16.045515619751434L214.55223880597015,12.194356804818598L218.84328358208955,11.240643023683894L223.13432835820896,11.676157775730692L227.42537313432834,11.468015308911985L231.71641791044777,10.953753162777641L236.00746268656718,10.023909145248066L240.29850746268656,9.758995247793631L244.58955223880596,10.59890421311167L248.88059701492537,9.741288278775093L253.17164179104478,8.322871362596981L257.4626865671642,9.748427672955994L261.75373134328356,16.412614504507776L266.04477611940297,17.714540037785216L270.3358208955224,18.174654412881676L274.6268656716418,18.04399297334454L278.9179104477612,22.01910026813202L283.2089552238806,26.481570129248457L287.5,26.17441109487067L291.7910447761194,33.11583409715858L296.0820895522388,47.55647679076343L300.37313432835816,43.401015228426395L304.6641791044776,42.9344948275194L308.95522388059703,44.417693567917944L313.24626865671644,42.30081533400085L317.53731343283584,41.101105625478056L321.8283582089552,36.08527673857558L326.1194029850746,6.45986660533579L330.410447761194,5.134731105476279L334.7014925373134,5.100151981606313L338.9925373134329,4.76901557538181L343.2835820895522,4.82196999144833L347.57462686567163,28.321187546078377L351.86567164179104,48.817373338124334L356.15671641791045,51.77574696289811L360.44776119402985,51.7508626513063L364.73880597014926,44.6286036247535L369.02985074626866,47.06191888890731L373.32089552238807,49.09710347686408L377.6119402985075,41.92927096964836L381.9029850746269,25.250523151286508L386.1940298507463,24.493473868166678L390.48507462686564,29.94808803100095L394.77611940298505,40.02697061693592L399.06716417910445,39.21158571652638L403.3582089552239,32.603024014230655L407.6492537313433,31.066561601928242L411.94029850746267,24.67463101981614L416.2313432835821,29.718969555035127L420.5223880597015,37.96370075254538L424.8134328358209,40.40382717077173L429.1044776119403,40.305403662933685L433.3955223880597,42.423584235052516L437.6865671641791,44.2454156862199L441.9776119402985,42.06876369625284L446.2686567164179,37.717923997750454L450.55970149253733,26.885674031820212L454.8507462686567,12.858351917031602L459.1417910447761,12.332041000584182L463.43283582089555,13.13572073427623L467.72388059701495,11.825489230218068L472.01492537313436,12.305169753086407L476.3059701492537,7.339190300041068L480.5970149253731,7.483034000548372L484.8880597014925,7.551922681472309L489.17910447761193,6.575773655900993L493.47014925373134,6.118437560989188L497.76119402985074,7.401631811979592L502.05223880597015,6.838766801172799L506.34328358208955,9.6446507380916L510.63432835820896,10.920279652376545L514.9253731343284,13.011303099087392L519.2164179104478,17.408428515163422L523.5074626865671,19.355907107231904L527.7985074626865,19.50744574114166L532.0895522388059,17.990104491038664L536.3805970149253,15.141950210428679L540.6716417910447,14.074078603047246L544.9626865671642,11.966661569047233L549.2537313432836,12.52160067147228L553.544776119403,11.095194902880387L557.8358208955224,11.240272840810814L562.1268656716418,12.356845976736508L566.4179104477612,14.884207140559633L570.7089552238806,15.489226839478695L575,15.631451555492257L575,54.75902327899194L570.7089552238806,54.35597549726826L566.4179104477612,52.61539080090059L562.1268656716418,46.53888706156742L557.8358208955224,44.36305120568737L553.544776119403,46.8148533250741L549.2537313432836,43.74876567591585L544.9626865671642,43.52538614467043L540.6716417910447,44.9112230673286L536.3805970149253,45.36165204365503L532.0895522388059,45.14393467580097L527.7985074626865,45.20317368115328L523.5074626865671,42.35699812967579L519.2164179104478,33.74113824340289L514.9253731343284,40.800597581877966L510.63432835820896,39.30608826528134L506.34328358208955,38.753614366154295L502.05223880597015,38.881470084477584L497.76119402985074,40.092868480409884L493.47014925373134,39.05888421111326L489.17910447761193,43.57738971031621L484.8880597014925,37.33292206456917L480.5970149253731,37.64395393474087L476.3059701492537,37.661837237977785L472.01492537313436,39.69521604938271L467.72388059701495,37.72334422999416L463.43283582089555,38.660472464640364L459.1417910447761,35.34109618142225L454.8507462686567,35.68943281657216L450.55970149253733,46.40304456891515L446.2686567164179,52.87016951875954L441.9776119402985,55.501980427118916L437.6865671641791,56.98751061667199L433.3955223880597,55.36786193823552L429.1044776119403,57.32676281668616L424.8134328358209,57.67158640866762L420.5223880597015,56.62461266046923L416.2313432835821,52.48648892091514L411.94029850746267,50.60614672964974L407.6492537313433,55.54741818856031L403.3582089552239,57.792766083605095L399.06716417910445,55.603989125320226L394.77611940298505,55.47950775235823L390.48507462686564,51.27586459018791L386.1940298507463,48.49339195019387L381.9029850746269,47.94571015945061L377.6119402985075,55.870868335514366L373.32089552238807,59.715529302036366L369.02985074626866,58.368414074282775L364.73880597014926,58.10639496666354L360.44776119402985,59.86526208168257L356.15671641791045,59.84458793914851L351.86567164179104,58.299496945742L347.57462686567163,45.247547212612716L343.2835820895522,31.680984218300534L338.9925373134329,34.3868138515046L334.7014925373134,32.89817232375978L330.410447761194,33.95053551829844L326.1194029850746,38.011010809567615L321.8283582089552,54.790042306213074L317.53731343283584,60.150198178151726L313.24626865671644,60.78744099556573L308.95522388059703,61.728755609373884L304.6641791044776,63.51689935295561L300.37313432835816,63.62087236380763L296.0820895522388,65.29475435909518L291.7910447761194,59.4723877176902L287.5,53.14167714742173L283.2089552238806,54.80852082336046L278.9179104477612,53.492336720844776L274.6268656716418,50.86114717788131L270.3358208955224,50.76712744949111L266.04477611940297,51.328840284842315L261.75373134328356,50.68793222057279L257.4626865671642,48.43075595017882L253.17164179104478,46.94435726135498L248.88059701492537,45.27323125659979L244.58955223880596,38.380880408086156L240.29850746268656,38.70078071961982L236.00746268656718,36.79617453676031L231.71641791044777,37.08883890919314L227.42537313432834,37.45899398578459L223.13432835820896,35.80416213047484L218.84328358208955,35.2773346422874L214.55223880597015,38.55675462498208L210.26119402985074,42.96439368491771L205.97014925373134,42.98288882841204L201.67910447761196,44.34506516145098L197.38805970149252,44.481509721692724L193.09701492537314,47.13039485766758L188.80597014925374,48.08597872858651L184.51492537313433,50.07258229400942L180.22388059701493,45.050974010434125L175.93283582089552,46.29766479456105L171.6417910447761,46.09665895139378L167.3507462686567,43.354172329437354L163.0597014925373,46.44215100488866L158.76865671641792,48.96360842384663L154.47761194029852,43.528783224255385L150.18656716417908,43.11268579329416L145.8955223880597,42.0684410646388L141.6044776119403,42.96038788765896L137.3134328358209,46.879441518267704L133.02238805970148,43.355451391002624L128.7313432835821,41.84093161546085L124.44029850746269,42.779200372461155L120.14925373134328,47.049490794160434L115.85820895522389,46.4805716837874L111.56716417910448,46.13215966250203L107.27611940298507,42.51159219114564L102.98507462686567,42.608861144945195L98.69402985074626,40.50092976217662L94.40298507462687,39.03083303281644L90.11194029850746,33.308360803116564L85.82089552238806,37.19430325117483L81.52985074626865,39.24986435160065L77.23880597014926,52.00687580575849L72.94776119402985,58.528711901179264L68.65671641791045,60.3937363285997L64.36567164179105,63.30345957405801L60.07462686567164,64.53578038247994L55.78358208955224,63.99473139523944L51.492537313432834,63.98981191222571L47.201492537313435,62.451967414694124L42.91044776119403,60.10865986170563L38.61940298507463,60.7553432642487L34.32835820895522,59.19574520615587L30.03731343283582,57.8391393442623L25.746268656716417,56.28696835977843L21.455223880597014,56.844039194338606L17.16417910447761,57.77114000924154L12.873134328358208,57.801122905518035L8.582089552238806,50.213534822601844L4.291044776119403,17.39202657807309L0,19.49458483754512Z" style="fill: rgb(215, 238, 142); opacity: 0.85;"></path></g></g><path class="foreground" d="" style="display: none; fill: none;"></path></g><g transform="translate(0,0)"><path class="background" d="M0,0h575v75h-575Z" style="fill: none;"></path><g><g class="mark-area role-mark concat_1_marks"><path d="M0,0.6317689530685899L4.291044776119403,0.5980066445182647L8.582089552238806,2.8457621550591257L12.873134328358208,6.836125975962798L17.16417910447761,7.16383919730676L21.455223880597014,7.148884050081655L25.746268656716417,7.291568866773074L30.03731343283582,6.8268442622950785L34.32835820895522,6.903752777549163L38.61940298507463,9.329460816062173L42.91044776119403,9.162001975633851L47.201492537313435,13.928489086996612L51.492537313432834,21.58307210031347L55.78358208955224,22.699689528648037L60.07462686567164,24.83292206456919L64.36567164179105,24.159198226847842L68.65671641791045,24.087705288010834L72.94776119402985,23.86709591629633L77.23880597014926,22.525784271594343L81.52985074626865,12.745523602821496L85.82089552238806,15.986141747386606L90.11194029850746,14.798364656021235L94.40298507462687,19.427515326361355L98.69402985074626,22.820767950934663L102.98507462686567,24.59424482338612L107.27611940298507,25.48436161729526L111.56716417910448,29.10514359889665L115.85820895522389,28.09959803483699L120.14925373134328,26.876285556614665L124.44029850746269,24.785398358843054L128.7313432835821,22.742814667988124L133.02238805970148,20.655019175747256L137.3134328358209,22.780285929270132L141.6044776119403,18.152502058366117L145.8955223880597,17.79239543726237L150.18656716417908,18.759721742136207L154.47761194029852,19.30012020836117L158.76865671641792,20.061642161142757L163.0597014925373,18.443004578257177L167.3507462686567,11.497689589562398L171.6417910447761,11.226979973835174L175.93283582089552,11.081140999113229L180.22388059701493,10.693773034030546L184.51492537313433,9.249642199959126L188.80597014925374,4.3111147194933945L193.09701492537314,4.568411386593215L197.38805970149252,6.3254543143982795L201.67910447761196,6.499543454802029L205.97014925373134,7.786773710708958L210.26119402985074,7.99882431978502L214.55223880597015,8.585795210096093L218.84328358208955,9.197447539575423L223.13432835820896,9.528096474332152L227.42537313432834,8.515582285401873L231.71641791044777,8.121310092774836L236.00746268656718,6.558577405857758L240.29850746268656,6.207569585879175L244.58955223880596,6.791989419988689L248.88059701492537,6.1378035902851265L253.17164179104478,5.286284356364629L257.4626865671642,7.365273153286486L261.75373134328356,14.400412759332351L266.04477611940297,14.523688417381212L270.3358208955224,14.867841409691646L274.6268656716418,14.827579622699158L278.9179104477612,13.952795524512574L283.2089552238806,14.875538535184308L287.5,13.738570311703334L291.7910447761194,20.710930339138418L296.0820895522388,40.03261958058435L300.37313432835816,35.73087288712125L304.6641791044776,35.337535032093925L308.95522388059703,38.375596552461L313.24626865671644,37.857245029323416L317.53731343283584,36.79646756136568L321.8283582089552,33.63999510506626L326.1194029850746,2.6111143054277837L330.410447761194,3.108087650910191L334.7014925373134,3.0104048945871096L338.9925373134329,2.8183124149402605L343.2835820895522,3.069851512088928L347.57462686567163,24.486757783701023L351.86567164179104,46.467391304347835L356.15671641791045,49.39805187698369L360.44776119402985,49.34776258375478L364.73880597014926,42.29035590196262L369.02985074626866,44.618144753633764L373.32089552238807,46.41432198559511L377.6119402985075,40.16262822407025L381.9029850746269,20.27027027027027L386.1940298507463,16.694882857298886L390.48507462686564,19.136140966586243L394.77611940298505,23.433942318117747L399.06716417910445,23.017200815600983L403.3582089552239,17.75570708568041L407.6492537313433,17.59200889960138L411.94029850746267,9.82575119073286L416.2313432835821,17.30499009187533L420.5223880597015,30.14829570606463L424.8134328358209,34.34017577869486L429.1044776119403,34.353434895771144L433.3955223880597,37.639207013664006L437.6865671641791,39.05020815638879L441.9776119402985,37.325946998053595L446.2686567164179,33.638627781794796L450.55970149253733,21.674512903336655L454.8507462686567,9.182809855181477L459.1417910447761,8.659514578575589L463.43283582089555,7.9314625338549325L467.72388059701495,7.0781648828982L472.01492537313436,8.233024691358013L476.3059701492537,1.703144266337825L480.5970149253731,1.604058129969821L484.8880597014925,1.470285831791049L489.17910447761193,1.2066137629947515L493.47014925373134,1.4762873950985385L497.76119402985074,2.9322491715630146L502.05223880597015,2.921879989549139L506.34328358208955,6.465910820270876L510.63432835820896,7.887070932660081L514.9253731343284,9.776717468846972L519.2164179104478,13.767723513194143L523.5074626865671,11.264806733167063L527.7985074626865,10.168585309183062L532.0895522388059,9.089336378105303L536.3805970149253,5.6459091233326015L540.6716417910447,4.26276015554303L544.9626865671642,2.2308456950603848L549.2537313432836,2.8568430927224107L553.544776119403,2.6215654174593874L557.8358208955224,2.8244788164088623L562.1268656716418,3.1306999970098115L566.4179104477612,2.798327436474721L570.7089552238806,3.109552754192177L575,3.0397949740157912L575,15.631451555492257L570.7089552238806,15.489226839478693L566.4179104477612,14.884207140559635L562.1268656716418,12.356845976736508L557.8358208955224,11.240272840810814L553.544776119403,11.095194902880387L549.2537313432836,12.52160067147228L544.9626865671642,11.966661569047233L540.6716417910447,14.074078603047248L536.3805970149253,15.141950210428679L532.0895522388059,17.990104491038664L527.7985074626865,19.50744574114166L523.5074626865671,19.355907107231904L519.2164179104478,17.408428515163422L514.9253731343284,13.011303099087392L510.63432835820896,10.920279652376545L506.34328358208955,9.6446507380916L502.05223880597015,6.838766801172799L497.76119402985074,7.401631811979593L493.47014925373134,6.118437560989188L489.17910447761193,6.575773655900993L484.8880597014925,7.551922681472309L480.5970149253731,7.483034000548372L476.3059701492537,7.339190300041068L472.01492537313436,12.305169753086407L467.72388059701495,11.825489230218068L463.43283582089555,13.13572073427623L459.1417910447761,12.332041000584182L454.8507462686567,12.858351917031602L450.55970149253733,26.885674031820212L446.2686567164179,37.717923997750454L441.9776119402985,42.06876369625284L437.6865671641791,44.2454156862199L433.3955223880597,42.423584235052516L429.1044776119403,40.305403662933685L424.8134328358209,40.40382717077173L420.5223880597015,37.96370075254538L416.2313432835821,29.718969555035127L411.94029850746267,24.67463101981614L407.6492537313433,31.066561601928242L403.3582089552239,32.603024014230655L399.06716417910445,39.21158571652638L394.77611940298505,40.02697061693592L390.48507462686564,29.94808803100095L386.1940298507463,24.493473868166678L381.9029850746269,25.250523151286508L377.6119402985075,41.92927096964836L373.32089552238807,49.09710347686408L369.02985074626866,47.06191888890731L364.73880597014926,44.6286036247535L360.44776119402985,51.7508626513063L356.15671641791045,51.77574696289811L351.86567164179104,48.817373338124334L347.57462686567163,28.321187546078377L343.2835820895522,4.82196999144833L338.9925373134329,4.76901557538181L334.7014925373134,5.100151981606313L330.410447761194,5.134731105476279L326.1194029850746,6.45986660533579L321.8283582089552,36.08527673857558L317.53731343283584,41.101105625478056L313.24626865671644,42.30081533400085L308.95522388059703,44.417693567917944L304.6641791044776,42.9344948275194L300.37313432835816,43.401015228426395L296.0820895522388,47.55647679076343L291.7910447761194,33.11583409715858L287.5,26.17441109487067L283.2089552238806,26.481570129248457L278.9179104477612,22.01910026813202L274.6268656716418,18.04399297334454L270.3358208955224,18.174654412881676L266.04477611940297,17.714540037785216L261.75373134328356,16.412614504507776L257.4626865671642,9.748427672955994L253.17164179104478,8.322871362596981L248.88059701492537,9.741288278775093L244.58955223880596,10.59890421311167L240.29850746268656,9.758995247793631L236.00746268656718,10.023909145248066L231.71641791044777,10.953753162777641L227.42537313432834,11.468015308911985L223.13432835820896,11.676157775730692L218.84328358208955,11.240643023683894L214.55223880597015,12.194356804818598L210.26119402985074,16.045515619751434L205.97014925373134,15.841441012382656L201.67910447761196,16.557026645637926L197.38805970149252,16.368026432837727L193.09701492537314,15.076085530630998L188.80597014925374,14.008078265811491L184.51492537313433,16.89225107340014L180.22388059701493,12.76504092279712L175.93283582089552,13.21312444575822L171.6417910447761,12.732716111502473L167.3507462686567,12.710655069312335L163.0597014925373,19.73500426786686L158.76865671641792,22.09164251039013L154.47761194029852,22.138373180179L150.18656716417908,21.673003802281386L145.8955223880597,20.060076045627394L141.6044776119403,20.78721068520721L137.3134328358209,25.69601203912717L133.02238805970148,23.55420953308578L128.7313432835821,25.21060455896929L124.44029850746269,26.954693592504228L120.14925373134328,31.271007876385895L115.85820895522389,33.276016078606524L111.56716417910448,33.918140515982486L107.27611940298507,30.731858590035156L102.98507462686567,30.230663824604147L98.69402985074626,29.052621276873392L94.40298507462687,26.681391994230083L90.11194029850746,19.579177190804398L85.82089552238806,21.837537163134172L81.52985074626865,19.928106348345096L77.23880597014926,33.890201976794174L72.94776119402985,41.86321167372362L68.65671641791045,42.490712128051115L64.36567164179105,45.11419485400405L60.07462686567164,46.714990746452806L55.78358208955224,47.03876187788127L51.492537313432834,47.771943573667706L47.201492537313435,43.10252075007685L42.91044776119403,37.226586386942L38.61940298507463,37.28748380829015L34.32835820895522,32.03131429511973L30.03731343283582,32.03176229508197L25.746268656716417,29.07473476668857L21.455223880597014,27.5789330430049L17.16417910447761,26.87306092811407L12.873134328358208,24.133695938240194L8.582089552238806,14.832457293035475L4.291044776119403,6.578073089700995L0,4.512635379061372Z" style="fill: rgb(254, 221, 141); opacity: 0.85;"></path></g></g><path class="foreground" d="" style="display: none; fill: none;"></path></g><g transform="translate(0,0)"><path class="background" d="M0,0h575v75h-575Z" style="fill: none;"></path><g><g class="mark-area role-mark concat_1_marks"><path d="M0,0L4.291044776119403,0L8.582089552238806,0L12.873134328358208,0L17.16417910447761,0L21.455223880597014,0L25.746268656716417,0L30.03731343283582,0L34.32835820895522,0L38.61940298507463,0L42.91044776119403,8.326672684688674e-15L47.201492537313435,0L51.492537313432834,0L55.78358208955224,8.326672684688674e-15L60.07462686567164,0L64.36567164179105,0L68.65671641791045,0L72.94776119402985,0L77.23880597014926,0L81.52985074626865,0L85.82089552238806,0L90.11194029850746,0L94.40298507462687,0L98.69402985074626,0L102.98507462686567,0L107.27611940298507,0L111.56716417910448,0L115.85820895522389,0L120.14925373134328,0L124.44029850746269,0L128.7313432835821,8.326672684688674e-15L133.02238805970148,0L137.3134328358209,0L141.6044776119403,0L145.8955223880597,0L150.18656716417908,0L154.47761194029852,0L158.76865671641792,8.326672684688674e-15L163.0597014925373,8.326672684688674e-15L167.3507462686567,0L171.6417910447761,0L175.93283582089552,0L180.22388059701493,0L184.51492537313433,8.326672684688674e-15L188.80597014925374,0L193.09701492537314,0L197.38805970149252,0L201.67910447761196,0L205.97014925373134,0L210.26119402985074,0L214.55223880597015,0L218.84328358208955,0L223.13432835820896,0L227.42537313432834,8.326672684688674e-15L231.71641791044777,8.326672684688674e-15L236.00746268656718,0L240.29850746268656,0L244.58955223880596,0L248.88059701492537,0L253.17164179104478,0L257.4626865671642,0L261.75373134328356,0L266.04477611940297,0L270.3358208955224,0L274.6268656716418,0L278.9179104477612,0L283.2089552238806,0L287.5,0L291.7910447761194,0L296.0820895522388,0L300.37313432835816,0L304.6641791044776,0L308.95522388059703,0L313.24626865671644,0L317.53731343283584,0L321.8283582089552,0L326.1194029850746,0L330.410447761194,8.326672684688674e-15L334.7014925373134,0L338.9925373134329,0L343.2835820895522,0L347.57462686567163,0L351.86567164179104,8.326672684688674e-15L356.15671641791045,8.326672684688674e-15L360.44776119402985,0L364.73880597014926,0L369.02985074626866,0L373.32089552238807,0L377.6119402985075,0L381.9029850746269,0L386.1940298507463,0L390.48507462686564,0L394.77611940298505,0L399.06716417910445,0L403.3582089552239,0L407.6492537313433,8.326672684688674e-15L411.94029850746267,0L416.2313432835821,0L420.5223880597015,0L424.8134328358209,0L429.1044776119403,0L433.3955223880597,0L437.6865671641791,0L441.9776119402985,8.326672684688674e-15L446.2686567164179,0L450.55970149253733,0L454.8507462686567,0L459.1417910447761,8.326672684688674e-15L463.43283582089555,0L467.72388059701495,0L472.01492537313436,0L476.3059701492537,0L480.5970149253731,0L484.8880597014925,0L489.17910447761193,0L493.47014925373134,0L497.76119402985074,0L502.05223880597015,0L506.34328358208955,8.326672684688674e-15L510.63432835820896,0L514.9253731343284,0L519.2164179104478,0L523.5074626865671,8.326672684688674e-15L527.7985074626865,0L532.0895522388059,0L536.3805970149253,0L540.6716417910447,0L544.9626865671642,0L549.2537313432836,8.326672684688674e-15L553.544776119403,0L557.8358208955224,0L562.1268656716418,0L566.4179104477612,0L570.7089552238806,8.326672684688674e-15L575,0L575,3.0397949740157912L570.7089552238806,3.109552754192177L566.4179104477612,2.798327436474721L562.1268656716418,3.1306999970098115L557.8358208955224,2.8244788164088623L553.544776119403,2.6215654174593874L549.2537313432836,2.8568430927224107L544.9626865671642,2.2308456950603848L540.6716417910447,4.26276015554303L536.3805970149253,5.6459091233326015L532.0895522388059,9.089336378105303L527.7985074626865,10.168585309183062L523.5074626865671,11.264806733167063L519.2164179104478,13.767723513194143L514.9253731343284,9.776717468846972L510.63432835820896,7.887070932660081L506.34328358208955,6.465910820270876L502.05223880597015,2.921879989549139L497.76119402985074,2.9322491715630146L493.47014925373134,1.4762873950985385L489.17910447761193,1.2066137629947515L484.8880597014925,1.470285831791049L480.5970149253731,1.604058129969821L476.3059701492537,1.703144266337825L472.01492537313436,8.233024691358013L467.72388059701495,7.0781648828982L463.43283582089555,7.9314625338549325L459.1417910447761,8.659514578575589L454.8507462686567,9.182809855181477L450.55970149253733,21.674512903336655L446.2686567164179,33.638627781794796L441.9776119402985,37.325946998053595L437.6865671641791,39.05020815638879L433.3955223880597,37.639207013664006L429.1044776119403,34.353434895771144L424.8134328358209,34.34017577869486L420.5223880597015,30.14829570606463L416.2313432835821,17.30499009187533L411.94029850746267,9.82575119073286L407.6492537313433,17.59200889960138L403.3582089552239,17.75570708568041L399.06716417910445,23.017200815600983L394.77611940298505,23.433942318117747L390.48507462686564,19.136140966586243L386.1940298507463,16.694882857298886L381.9029850746269,20.27027027027027L377.6119402985075,40.16262822407025L373.32089552238807,46.41432198559511L369.02985074626866,44.618144753633764L364.73880597014926,42.29035590196262L360.44776119402985,49.34776258375478L356.15671641791045,49.39805187698369L351.86567164179104,46.467391304347835L347.57462686567163,24.486757783701023L343.2835820895522,3.069851512088928L338.9925373134329,2.8183124149402605L334.7014925373134,3.0104048945871096L330.410447761194,3.108087650910191L326.1194029850746,2.6111143054277837L321.8283582089552,33.63999510506626L317.53731343283584,36.79646756136568L313.24626865671644,37.857245029323416L308.95522388059703,38.375596552461L304.6641791044776,35.337535032093925L300.37313432835816,35.73087288712125L296.0820895522388,40.03261958058435L291.7910447761194,20.710930339138418L287.5,13.738570311703334L283.2089552238806,14.875538535184308L278.9179104477612,13.952795524512574L274.6268656716418,14.827579622699158L270.3358208955224,14.867841409691646L266.04477611940297,14.523688417381212L261.75373134328356,14.400412759332351L257.4626865671642,7.365273153286486L253.17164179104478,5.286284356364629L248.88059701492537,6.1378035902851265L244.58955223880596,6.791989419988689L240.29850746268656,6.207569585879175L236.00746268656718,6.558577405857758L231.71641791044777,8.121310092774836L227.42537313432834,8.515582285401873L223.13432835820896,9.528096474332152L218.84328358208955,9.197447539575423L214.55223880597015,8.585795210096093L210.26119402985074,7.99882431978502L205.97014925373134,7.786773710708958L201.67910447761196,6.499543454802029L197.38805970149252,6.3254543143982795L193.09701492537314,4.568411386593215L188.80597014925374,4.3111147194933945L184.51492537313433,9.249642199959126L180.22388059701493,10.693773034030546L175.93283582089552,11.081140999113229L171.6417910447761,11.226979973835174L167.3507462686567,11.497689589562398L163.0597014925373,18.443004578257177L158.76865671641792,20.061642161142757L154.47761194029852,19.30012020836117L150.18656716417908,18.759721742136207L145.8955223880597,17.79239543726237L141.6044776119403,18.152502058366117L137.3134328358209,22.780285929270132L133.02238805970148,20.655019175747256L128.7313432835821,22.742814667988124L124.44029850746269,24.785398358843054L120.14925373134328,26.876285556614665L115.85820895522389,28.09959803483699L111.56716417910448,29.10514359889665L107.27611940298507,25.48436161729526L102.98507462686567,24.59424482338612L98.69402985074626,22.820767950934663L94.40298507462687,19.427515326361355L90.11194029850746,14.798364656021235L85.82089552238806,15.986141747386606L81.52985074626865,12.745523602821496L77.23880597014926,22.525784271594343L72.94776119402985,23.86709591629633L68.65671641791045,24.087705288010834L64.36567164179105,24.159198226847842L60.07462686567164,24.83292206456919L55.78358208955224,22.699689528648037L51.492537313432834,21.58307210031347L47.201492537313435,13.928489086996612L42.91044776119403,9.162001975633851L38.61940298507463,9.329460816062173L34.32835820895522,6.903752777549163L30.03731343283582,6.8268442622950785L25.746268656716417,7.291568866773074L21.455223880597014,7.148884050081655L17.16417910447761,7.16383919730676L12.873134328358208,6.836125975962798L8.582089552238806,2.8457621550591257L4.291044776119403,0.5980066445182647L0,0.6317689530685899Z" style="fill: rgb(241, 110, 67); opacity: 0.85;"></path></g></g><path class="foreground" d="" style="display: none; fill: none;"></path></g></g></g><path class="foreground" d="" style="display: none; fill: none;"></path></g></g><g class="mark-group role-legend"><g transform="translate(0,-24)"><path class="background" d="M0,0h304v14h-304Z" style="pointer-events: none; fill: none;"></path><g><g class="mark-group role-legend-entry"><g transform="translate(103,0)"><path class="background" d="M0,0h0v0h0Z" style="pointer-events: none; fill: none;"></path><g><g class="mark-group role-scope"><g transform="translate(0,0)"><path class="background" d="M0,0h38.234375v14h-38.234375Z" style="pointer-events: none; fill: none; opacity: 1;"></path><g><g class="mark-symbol role-legend-symbol" style="pointer-events: none;"><path transform="translate(7,7)" d="M5,0A5,5,0,1,1,-5,0A5,5,0,1,1,5,0" style="fill: rgb(100, 188, 97); stroke-width: 1.5; opacity: 0.85;"></path></g><g class="mark-text role-legend-label" style="pointer-events: none;"><text text-anchor="start" transform="translate(18,11)" style="font-family: sans-serif; font-size: 14px; fill: #000; opacity: 1;">0-3</text></g></g><path class="foreground" d="" style="pointer-events: none; display: none; fill: none;"></path></g><g transform="translate(49,0)"><path class="background" d="M0,0h38.234375v14h-38.234375Z" style="pointer-events: none; fill: none; opacity: 1;"></path><g><g class="mark-symbol role-legend-symbol" style="pointer-events: none;"><path transform="translate(7,7)" d="M5,0A5,5,0,1,1,-5,0A5,5,0,1,1,5,0" style="fill: rgb(215, 238, 142); stroke-width: 1.5; opacity: 0.85;"></path></g><g class="mark-text role-legend-label" style="pointer-events: none;"><text text-anchor="start" transform="translate(18,11)" style="font-family: sans-serif; font-size: 14px; fill: #000; opacity: 1;">4-7</text></g></g><path class="foreground" d="" style="pointer-events: none; display: none; fill: none;"></path></g><g transform="translate(98,0)"><path class="background" d="M0,0h46.0205078125v14h-46.0205078125Z" style="pointer-events: none; fill: none; opacity: 1;"></path><g><g class="mark-symbol role-legend-symbol" style="pointer-events: none;"><path transform="translate(7,7)" d="M5,0A5,5,0,1,1,-5,0A5,5,0,1,1,5,0" style="fill: rgb(254, 221, 141); stroke-width: 1.5; opacity: 0.85;"></path></g><g class="mark-text role-legend-label" style="pointer-events: none;"><text text-anchor="start" transform="translate(18,11)" style="font-family: sans-serif; font-size: 14px; fill: #000; opacity: 1;">8-14</text></g></g><path class="foreground" d="" style="pointer-events: none; display: none; fill: none;"></path></g><g transform="translate(155,0)"><path class="background" d="M0,0h45.6376953125v14h-45.6376953125Z" style="pointer-events: none; fill: none; opacity: 1;"></path><g><g class="mark-symbol role-legend-symbol" style="pointer-events: none;"><path transform="translate(7,7)" d="M5,0A5,5,0,1,1,-5,0A5,5,0,1,1,5,0" style="fill: rgb(241, 110, 67); stroke-width: 1.5; opacity: 0.85;"></path></g><g class="mark-text role-legend-label" style="pointer-events: none;"><text text-anchor="start" transform="translate(18,11)" style="font-family: sans-serif; font-size: 14px; fill: #000; opacity: 1;">&gt; 14</text></g></g><path class="foreground" d="" style="pointer-events: none; display: none; fill: none;"></path></g></g></g><path class="foreground" d="" style="pointer-events: none; display: none; fill: none;"></path></g></g><g class="mark-text role-legend-title" style="pointer-events: none;"><text text-anchor="start" transform="translate(0,11)" style="font-family: sans-serif; font-size: 14px; font-weight: bold; fill: #000; opacity: 1;">Renglón (días)</text></g></g><path class="foreground" d="" style="pointer-events: none; display: none; fill: none;"></path></g></g></g><path class="foreground" d="" style="display: none; fill: none;"></path></g></g></g></svg>