<svg class="marks" width="671" height="439" viewBox="0 0 671 439" version="1.1" xmlns="http://www.w3.org/2000/svg" xmlns:xlink="http://www.w3.org/1999/xlink"><rect width="671" height="439" style="fill: white;"></rect><g transform="translate(74,32)"><g class="mark-group role-frame root"><g transform="translate(0,0)"><path class="background" d="M0,0h0v0h0Z" style="fill: none;"></path><g><g class="mark-group role-scope concat_0_group"><g transform="translate(0,0)"><path class="background" d="M0.5,0.5h575v275h-575Z" style="fill: none; stroke: #ddd;"></path><g><g class="mark-group role-axis"><g transform="translate(0.5,275.5)"><path class="background" d="M0,0h0v0h0Z" style="pointer-events: none; fill: none;"></path><g><g class="mark-rule role-axis-grid" style="pointer-events: none;"><line transform="translate(5,-275)" x2="0" y2="275" style="fill: none; stroke: #ddd; stroke-width: 1; opacity: 1;"></line><line transform="translate(40,-275)" x2="0" y2="275" style="fill: none; stroke: #ddd; stroke-width: 1; opacity: 1;"></line><line transform="translate(76,-275)" x2="0" y2="275" style="fill: none; stroke: #ddd; stroke-width: 1; opacity: 1;"></line><line transform="translate(111,-275)" x2="0" y2="275" style="fill: none; stroke: #ddd; stroke-width: 1; opacity: 1;"></line><line transform="translate(146,-275)" x2="0" y2="275" style="fill: none; stroke: #ddd; stroke-width: 1; opacity: 1;"></line><line transform="translate(182,-275)" x2="0" y2="275" style="fill: none; stroke: #ddd; stroke-width: 1; opacity: 1;"></line><line transform="translate(217,-275)" x2="0" y2="275" style="fill: none; stroke: #ddd; stroke-width: 1; opacity: 1;"></line><line transform="translate(252,-275)" x2="0" y2="275" style="fill: none; stroke: #ddd; stroke-width: 1; opacity: 1;"></line><line transform="translate(288,-275)" x2="0" y2="275" style="fill: none; stroke: #ddd; stroke-width: 1; opacity: 1;"></line><line transform="translate(323,-275)" x2="0" y2="275" style="fill: none; stroke: #ddd; stroke-width: 1; opacity: 1;"></line><line transform="translate(358,-275)" x2="0" y2="275" style="fill: none; stroke: #ddd; stroke-width: 1; opacity: 1;"></line><line transform="translate(393,-275)" x2="0" y2="275" style="fill: none; stroke: #ddd; stroke-width: 1; opacity: 1;"></line><line transform="translate(429,-275)" x2="0" y2="275" style="fill: none; stroke: #ddd; stroke-width: 1; opacity: 1;"></line><line transform="translate(464,-275)" x2="0" y2="275" style="fill: none; stroke: #ddd; stroke-width: 1; opacity: 1;"></line><line transform="translate(499,-275)" x2="0" y2="275" style="fill: none; stroke: #ddd; stroke-width: 1; opacity: 1;"></line><line transform="translate(535,-275)" x2="0" y2="275" style="fill: none; stroke: #ddd; stroke-width: 1; opacity: 1;"></line><line transform="translate(570,-275)" x2="0" y2="275" style="fill: none; stroke: #ddd; stroke-width: 1; opacity: 1;"></line></g></g><path class="foreground" d="" style="pointer-events: none; display: none; fill: none;"></path></g></g><g class="mark-group role-axis"><g transform="translate(0.5,0.5)"><path class="background" d="M0,0h0v0h0Z" style="pointer-events: none; fill: none;"></path><g><g class="mark-rule role-axis-grid" style="pointer-events: none;"><line transform="translate(0,275)" x2="575" y2="0" style="fill: none; stroke: #ddd; stroke-width: 1; opacity: 1;"></line><line transform="translate(0,229)" x2="575" y2="0" style="fill: none; stroke: #ddd; stroke-width: 1; opacity: 1;"></line><line transform="translate(0,183)" x2="575" y2="0" style="fill: none; stroke: #ddd; stroke-width: 1; opacity: 1;"></line><line transform="translate(0,138)" x2="575" y2="0" style="fill: none; stroke: #ddd; stroke-width: 1; opacity: 1;"></line><line transform="translate(0,92)" x2="575" y2="0" style="fill: none; stroke: #ddd; stroke-width: 1; opacity: 1;"></line><line transform="translate(0,46)" x2="575" y2="0" style="fill: none; stroke: #ddd; stroke-width: 1; opacity: 1;"></line><line transform="translate(0,0)" x2="575" y2="0" style="fill: none; stroke: #ddd; stroke-width: 1; opacity: 1;"></line></g></g><path class="foreground" d="" style="pointer-events: none; display: none; fill: none;"></path></g></g><g class="mark-group role-axis"><g transform="translate(0.5,275.5)"><path class="background" d="M0,0h0v0h0Z" style="pointer-events: none; fill: none;"></path><g><g class="mark-rule role-axis-domain" style="pointer-events: none;"><line transform="translate(0,0)" x2="575" y2="0" style="fill: none; stroke: #888; stroke-width: 1; opacity: 1;"></line></g></g><path class="foreground" d="" style="pointer-events: none; display: none; fill: none;"></path></g></g><g class="mark-group role-axis"><g transform="translate(0.5,0.5)"><path class="background" d="M0,0h0v0h0Z" style="pointer-events: none; fill: none;"></path><g><g class="mark-rule role-axis-tick" style="pointer-events: none;"><line transform="translate(0,275)" x2="-5" y2="0" style="fill: none; stroke: #888; stroke-width: 1; opacity: 1;"></line><line transform="translate(0,229)" x2="-5" y2="0" style="fill: none; stroke: #888; stroke-width: 1; opacity: 1;"></line><line transform="translate(0,183)" x2="-5" y2="0" style="fill: none; stroke: #888; stroke-width: 1; opacity: 1;"></line><line transform="translate(0,138)" x2="-5" y2="0" style="fill: none; stroke: #888; stroke-width: 1; opacity: 1;"></line><line transform="translate(0,92)" x2="-5" y2="0" style="fill: none; stroke: #888; stroke-width: 1; opacity: 1;"></line><line transform="translate(0,46)" x2="-5" y2="0" style="fill: none; stroke: #888; stroke-width: 1; opacity: 1;"></line><line transform="translate(0,0)" x2="-5" y2="0" style="fill: none; stroke: #888; stroke-width: 1; opacity: 1;"></line></g><g class="mark-text role-axis-label" style="pointer-events: none;"><text text-anchor="end" transform="translate(-7,279)" style="font-family: sans-serif; font-size: 14px; fill: #000; opacity: 1;"></text><text text-anchor="end" transform="translate(-7,233.16666666666669)" style="font-family: sans-serif; font-size: 14px; fill: #000; opacity: 1;">2,000</text><text text-anchor="end" transform="translate(-7,187.33333333333334)" style="font-family: sans-serif; font-size: 14px; fill: #000; opacity: 1;">4,000</text><text text-anchor="end" transform="translate(-7,141.5)" style="font-family: sans-serif; font-size: 14px; fill: #000; opacity: 1;">6,000</text><text text-anchor="end" transform="translate(-7,95.66666666666667)" style="font-family: sans-serif; font-size: 14px; fill: #000; opacity: 1;">8,000</text><text text-anchor="end" transform="translate(-7,49.83333333333332)" style="font-family: sans-serif; font-size: 14px; fill: #000; opacity: 1;">10,000</text><text text-anchor="end" transform="translate(-7,4)" style="font-family: sans-serif; font-size: 14px; fill: #000; opacity: 1;">12,000</text></g><g class="mark-rule role-axis-domain" style="pointer-events: none;"><line transform="translate(0,275)" x2="0" y2="-275" style="fill: none; stroke: #888; stroke-width: 1; opacity: 1;"></line></g><g class="mark-text role-axis-title" style="pointer-events: none;"><text text-anchor="middle" transform="translate(-53.8203125,137.5) rotate(-90) translate(0,-3)" style="font-family: sans-serif; font-size: 14px; font-weight: bold; fill: #000; opacity: 1;">Resultados moleculares (promedio 7 días)</text></g></g><path class="foreground" d="" style="pointer-events: none; display: none; fill: none;"></path></g></g><g class="mark-group role-scope concat_0_pathgroup"><g transform="translate(0,0)"><path class="background" d="M0,0h575v275h-575Z" style="fill: none;"></path><g><g class="mark-area role-mark concat_0_marks"><path d="M0,260.90625L5.0438596491228065,261.75416666666666L10.087719298245613,259.63055555555553L15.13157894736842,260.0239583333333L20.175438596491226,259.05L25.219298245614034,258.01493055555557L30.26315789473684,257.59970238095235L35.307017543859644,256.72232142857143L40.35087719298245,258.2348214285714L45.39473684210526,259.63928571428573L50.43859649122807,261.18125L55.48245614035088,260.74583333333334L60.52631578947368,259.66875L65.5701754385965,259.6818452380952L70.61403508771929,261.6723214285714L75.6578947368421,259.10565476190476L80.7017543859649,256.6372023809524L85.74561403508771,254.45357142857142L90.78947368421052,251.64464285714286L95.83333333333333,246.23958333333331L100.87719298245614,240.5857142857143L105.92105263157895,232.48958333333334L110.96491228070175,231.46160714285713L116.00877192982456,228.8392857142857L121.05263157894736,228.56755952380954L126.09649122807016,226.9830357142857L131.140350877193,228.40386904761905L136.18421052631578,233.19017857142856L141.22807017543857,226.3610119047619L146.27192982456143,226.66547619047617L151.3157894736842,231.18660714285713L156.359649122807,229.6184523809524L161.4035087719298,230.95416666666665L166.44736842105263,229.1372023809524L171.49122807017542,227.74255952380952L176.53508771929825,242.7857142857143L181.57894736842104,244.14434523809527L186.62280701754386,242.45833333333334L191.66666666666666,242.87083333333334L196.71052631578948,244.5077380952381L201.75438596491227,249.92589285714288L206.7982456140351,249.5690476190476L211.8421052631579,247.68660714285716L216.8859649122807,248.3904761904762L221.9298245614035,246.0595238095238L226.97368421052633,247.17916666666667L232.01754385964912,243.55178571428573L237.06140350877195,242.75952380952384L242.1052631578947,233.9169642857143L247.14912280701753,233.37023809523808L252.19298245614033,230.63005952380954L257.2368421052632,232.6107142857143L262.280701754386,234.13958333333335L267.32456140350877,239.03392857142856L272.36842105263156,239.68214285714288L277.4122807017544,247.10059523809522L282.45614035087715,246.99255952380955L287.5,249.61815476190478L292.54385964912285,250.4235119047619L297.58771929824564,247.68660714285716L302.6315789473684,246.78630952380954L307.67543859649123,245.68958333333333L312.719298245614,246.56041666666664L317.7631578947369,247.14642857142857L322.8070175438596,247.40833333333333L327.85087719298247,246.6389880952381L332.89473684210526,247.38214285714287L337.9385964912281,246.93035714285713L342.98245614035085,245.42113095238093L348.0263157894737,246.2330357142857L353.0701754385965,237.03363095238095L358.11403508771934,236.18898809523807L363.1578947368421,234.3360119047619L368.20175438596493,231.62857142857143L373.2456140350877,228.3907738095238L378.2894736842106,224.5375L383.3333333333333,218.83779761904762L388.3771929824561,227.65416666666667L393.42105263157896,227.8407738095238L398.46491228070175,228.10595238095237L403.50877192982455,226.35446428571427L408.55263157894734,229.19940476190476L413.5964912280702,234.42440476190475L418.640350877193,238.73273809523812L423.6842105263158,238.81458333333333L428.7280701754386,227.88660714285712L433.7719298245614,231.19970238095237L438.8157894736842,236.37559523809523L443.859649122807,235.44255952380954L448.9035087719298,234.93511904761905L453.94736842105266,232.63035714285715L458.99122807017545,232.51250000000002L464.03508771929825,243.56488095238097L469.07894736842104,242.61220238095237L474.1228070175439,236.99761904761905L479.1666666666667,229.20267857142858L484.2105263157894,220.67440476190475L489.2543859649123,220.44851190476192L494.29824561403507,220.64166666666668L499.3421052631579,211.39970238095236L504.38596491228066,210.38482142857143L509.4298245614035,209.90029761904762L514.4736842105264,218.53333333333333L519.5175438596491,212.4735119047619L524.561403508772,202.86488095238093L529.6052631578947,202.35416666666666L534.6491228070175,211.14107142857142L539.6929824561404,209.81845238095238L544.7368421052631,211.7565476190476L549.780701754386,202.3345238095238L554.8245614035088,215.0892857142857L559.8684210526316,227.41845238095237L564.9122807017543,227.42827380952377L569.9561403508771,227.02886904761903L575,218.13392857142856L575,275L569.9561403508771,275L564.9122807017543,275L559.8684210526316,275L554.8245614035088,275L549.780701754386,275L544.7368421052631,275L539.6929824561404,275L534.6491228070175,275L529.6052631578947,275L524.561403508772,275L519.5175438596491,275L514.4736842105264,275L509.4298245614035,275L504.38596491228066,275L499.3421052631579,275L494.29824561403507,275L489.2543859649123,275L484.2105263157894,275L479.1666666666667,275L474.1228070175439,275L469.07894736842104,275L464.03508771929825,275L458.99122807017545,275L453.94736842105266,275L448.9035087719298,275L443.859649122807,275L438.8157894736842,275L433.7719298245614,275L428.7280701754386,275L423.6842105263158,275L418.640350877193,275L413.5964912280702,275L408.55263157894734,275L403.50877192982455,275L398.46491228070175,275L393.42105263157896,275L388.3771929824561,275L383.3333333333333,275L378.2894736842106,275L373.2456140350877,275L368.20175438596493,275L363.1578947368421,275L358.11403508771934,275L353.0701754385965,275L348.0263157894737,275L342.98245614035085,275L337.9385964912281,275L332.89473684210526,275L327.85087719298247,275L322.8070175438596,275L317.7631578947369,275L312.719298245614,275L307.67543859649123,275L302.6315789473684,275L297.58771929824564,275L292.54385964912285,275L287.5,275L282.45614035087715,275L277.4122807017544,275L272.36842105263156,275L267.32456140350877,275L262.280701754386,275L257.2368421052632,275L252.19298245614033,275L247.14912280701753,275L242.1052631578947,275L237.06140350877195,275L232.01754385964912,275L226.97368421052633,275L221.9298245614035,275L216.8859649122807,275L211.8421052631579,275L206.7982456140351,275L201.75438596491227,275L196.71052631578948,275L191.66666666666666,275L186.62280701754386,275L181.57894736842104,275L176.53508771929825,275L171.49122807017542,275L166.44736842105263,275L161.4035087719298,275L156.359649122807,275L151.3157894736842,275L146.27192982456143,275L141.22807017543857,275L136.18421052631578,275L131.140350877193,275L126.09649122807016,275L121.05263157894736,275L116.00877192982456,275L110.96491228070175,275L105.92105263157895,275L100.87719298245614,275L95.83333333333333,275L90.78947368421052,275L85.74561403508771,275L80.7017543859649,275L75.6578947368421,275L70.61403508771929,275L65.5701754385965,275L60.52631578947368,275L55.48245614035088,275L50.43859649122807,275L45.39473684210526,275L40.35087719298245,275L35.307017543859644,275L30.26315789473684,275L25.219298245614034,275L20.175438596491226,275L15.13157894736842,275L10.087719298245613,275L5.0438596491228065,275L0,275Z" style="fill: rgb(100, 188, 97); opacity: 0.85;"></path></g></g><path class="foreground" d="" style="display: none; fill: none;"></path></g><g transform="translate(0,0)"><path class="background" d="M0,0h575v275h-575Z" style="fill: none;"></path><g><g class="mark-area role-mark concat_0_marks"><path d="M0,257.1020833333333L5.0438596491228065,259.26770833333336L10.087719298245613,237.6916666666667L15.13157894736842,230.7078125L20.175438596491226,230.44541666666666L25.219298245614034,230.63715277777777L30.26315789473684,232.29642857142858L35.307017543859644,229.23541666666668L40.35087719298245,229.41875L45.39473684210526,234.3327380952381L50.43859649122807,239.94732142857143L55.48245614035088,238.7654761904762L60.52631578947368,237.0860119047619L65.5701754385965,236.0809523809524L70.61403508771929,238.975L75.6578947368421,234.38839285714286L80.7017543859649,234.1297619047619L85.74561403508771,233.66488095238097L90.78947368421052,233.24255952380952L95.83333333333333,230.6955357142857L100.87719298245614,226.6065476190476L105.92105263157895,218.49077380952383L110.96491228070175,216.51339285714286L116.00877192982456,213.52113095238096L121.05263157894736,210.82351190476192L126.09649122807016,209.57291666666666L131.140350877193,208.6889880952381L136.18421052631578,213.83214285714286L141.22807017543857,198.90357142857144L146.27192982456143,202.92708333333334L151.3157894736842,209.21279761904762L156.359649122807,201.2214285714286L161.4035087719298,197.77410714285713L166.44736842105263,197.39761904761906L171.49122807017542,196.16011904761905L176.53508771929825,221.12619047619052L181.57894736842104,223.17232142857145L186.62280701754386,208.87232142857144L191.66666666666666,212.82380952380956L196.71052631578948,214.98125000000002L201.75438596491227,220.98214285714286L206.7982456140351,220.25535714285715L211.8421052631579,218.24196428571432L216.8859649122807,212.97113095238097L221.9298245614035,209.4157738095238L226.97368421052633,215.1809523809524L232.01754385964912,214.58184523809524L237.06140350877195,213.53422619047623L242.1052631578947,199.0901785714286L247.14912280701753,198.38958333333338L252.19298245614033,198.53363095238095L257.2368421052632,206.96041666666667L262.280701754386,208.98690476190478L267.32456140350877,214.13333333333335L272.36842105263156,215.33482142857144L277.4122807017544,227.54940476190478L282.45614035087715,224.6619047619048L287.5,230.36160714285717L292.54385964912285,221.04761904761907L297.58771929824564,210.08690476190478L302.6315789473684,205.70982142857144L307.67543859649123,204.36755952380958L312.719298245614,206.1747023809524L317.7631578947369,209.6842261904762L322.8070175438596,209.89702380952383L327.85087719298247,205.1369047619048L332.89473684210526,208.63660714285717L337.9385964912281,212.3L342.98245614035085,195.2139880952381L348.0263157894737,193.65565476190477L353.0701754385965,169.57023809523812L358.11403508771934,166.62380952380954L363.1578947368421,181.29375000000005L368.20175438596493,175.21428571428575L373.2456140350877,168.60119047619048L378.2894736842106,177.83333333333334L383.3333333333333,170.93214285714288L388.3771929824561,194.41845238095237L393.42105263157896,196.70357142857142L398.46491228070175,193.9077380952381L403.50877192982455,196.19285714285718L408.55263157894734,203.14315476190475L413.5964912280702,211.38660714285717L418.640350877193,219.42380952380952L423.6842105263158,219.4139880952381L428.7280701754386,190.2967261904762L433.7719298245614,201.42113095238093L438.8157894736842,209.54017857142858L443.859649122807,206.61011904761907L448.9035087719298,201.32291666666669L453.94736842105266,194.26458333333335L458.99122807017545,194.3136904761905L464.03508771929825,218.68065476190475L469.07894736842104,215.239880952381L474.1228070175439,181.36577380952383L479.1666666666667,171.56726190476192L484.2105263157894,162.92440476190475L489.2543859649123,165.2815476190476L494.29824561403507,165.43869047619046L499.3421052631579,148.0220238095238L504.38596491228066,148.15297619047618L509.4298245614035,166.97738095238094L514.4736842105264,178.58630952380952L519.5175438596491,169.39345238095237L524.561403508772,153.46964285714284L529.6052631578947,152.76904761904763L534.6491228070175,174.04880952380952L539.6929824561404,171.99613095238095L544.7368421052631,167.32767857142855L549.780701754386,151.84910714285715L554.8245614035088,168.6077380952381L559.8684210526316,188.77767857142854L564.9122807017543,189.01994047619047L569.9561403508771,189.10178571428568L575,151.17470238095234L575,218.13392857142856L569.9561403508771,227.02886904761903L564.9122807017543,227.42827380952377L559.8684210526316,227.41845238095237L554.8245614035088,215.0892857142857L549.780701754386,202.3345238095238L544.7368421052631,211.7565476190476L539.6929824561404,209.81845238095238L534.6491228070175,211.14107142857142L529.6052631578947,202.35416666666666L524.561403508772,202.86488095238093L519.5175438596491,212.4735119047619L514.4736842105264,218.53333333333333L509.4298245614035,209.90029761904762L504.38596491228066,210.38482142857143L499.3421052631579,211.39970238095236L494.29824561403507,220.64166666666668L489.2543859649123,220.44851190476192L484.2105263157894,220.67440476190475L479.1666666666667,229.20267857142858L474.1228070175439,236.99761904761905L469.07894736842104,242.61220238095237L464.03508771929825,243.56488095238097L458.99122807017545,232.51250000000002L453.94736842105266,232.63035714285715L448.9035087719298,234.93511904761905L443.859649122807,235.44255952380954L438.8157894736842,236.37559523809523L433.7719298245614,231.19970238095237L428.7280701754386,227.88660714285712L423.6842105263158,238.81458333333333L418.640350877193,238.73273809523812L413.5964912280702,234.42440476190475L408.55263157894734,229.19940476190476L403.50877192982455,226.35446428571427L398.46491228070175,228.10595238095237L393.42105263157896,227.8407738095238L388.3771929824561,227.65416666666667L383.3333333333333,218.83779761904762L378.2894736842106,224.5375L373.2456140350877,228.3907738095238L368.20175438596493,231.62857142857143L363.1578947368421,234.3360119047619L358.11403508771934,236.18898809523807L353.0701754385965,237.03363095238095L348.0263157894737,246.2330357142857L342.98245614035085,245.42113095238093L337.9385964912281,246.93035714285713L332.89473684210526,247.38214285714287L327.85087719298247,246.6389880952381L322.8070175438596,247.40833333333333L317.7631578947369,247.14642857142857L312.719298245614,246.56041666666664L307.67543859649123,245.68958333333333L302.6315789473684,246.78630952380954L297.58771929824564,247.68660714285716L292.54385964912285,250.4235119047619L287.5,249.61815476190478L282.45614035087715,246.99255952380955L277.4122807017544,247.10059523809522L272.36842105263156,239.68214285714288L267.32456140350877,239.03392857142856L262.280701754386,234.13958333333335L257.2368421052632,232.6107142857143L252.19298245614033,230.63005952380954L247.14912280701753,233.37023809523808L242.1052631578947,233.9169642857143L237.06140350877195,242.75952380952384L232.01754385964912,243.55178571428573L226.97368421052633,247.17916666666667L221.9298245614035,246.0595238095238L216.8859649122807,248.3904761904762L211.8421052631579,247.68660714285716L206.7982456140351,249.5690476190476L201.75438596491227,249.92589285714288L196.71052631578948,244.5077380952381L191.66666666666666,242.87083333333334L186.62280701754386,242.45833333333334L181.57894736842104,244.14434523809527L176.53508771929825,242.7857142857143L171.49122807017542,227.74255952380952L166.44736842105263,229.1372023809524L161.4035087719298,230.95416666666665L156.359649122807,229.6184523809524L151.3157894736842,231.18660714285713L146.27192982456143,226.66547619047617L141.22807017543857,226.3610119047619L136.18421052631578,233.19017857142856L131.140350877193,228.40386904761905L126.09649122807016,226.9830357142857L121.05263157894736,228.56755952380954L116.00877192982456,228.8392857142857L110.96491228070175,231.46160714285713L105.92105263157895,232.48958333333334L100.87719298245614,240.5857142857143L95.83333333333333,246.23958333333331L90.78947368421052,251.64464285714286L85.74561403508771,254.45357142857142L80.7017543859649,256.6372023809524L75.6578947368421,259.10565476190476L70.61403508771929,261.6723214285714L65.5701754385965,259.6818452380952L60.52631578947368,259.66875L55.48245614035088,260.74583333333334L50.43859649122807,261.18125L45.39473684210526,259.63928571428573L40.35087719298245,258.2348214285714L35.307017543859644,256.72232142857143L30.26315789473684,257.59970238095235L25.219298245614034,258.01493055555557L20.175438596491226,259.05L15.13157894736842,260.0239583333333L10.087719298245613,259.63055555555553L5.0438596491228065,261.75416666666666L0,260.90625Z" style="fill: rgb(215, 238, 142); opacity: 0.85;"></path></g></g><path class="foreground" d="" style="display: none; fill: none;"></path></g><g transform="translate(0,0)"><path class="background" d="M0,0h575v275h-575Z" style="fill: none;"></path><g><g class="mark-area role-mark concat_0_marks"><path d="M0,256.1166666666667L5.0438596491228065,257.89270833333336L10.087719298245613,230.25902777777776L15.13157894736842,215.64583333333334L20.175438596491226,212.19916666666668L25.219298245614034,211.52465277777776L30.26315789473684,212.04136904761904L35.307017543859644,202.39017857142855L40.35087719298245,202.76339285714286L45.39473684210526,204.18422619047618L50.43859649122807,213.90416666666667L55.48245614035088,205.62470238095239L60.52631578947368,200.6190476190476L65.5701754385965,202.20357142857145L70.61403508771929,211.10505952380953L75.6578947368421,205.91279761904764L80.7017543859649,210.99375L85.74561403508771,211.21636904761905L90.78947368421052,221.69910714285714L95.83333333333333,224.91726190476192L100.87719298245614,221.28005952380954L105.92105263157895,213.61607142857144L110.96491228070175,207.73303571428573L116.00877192982456,205.1827380952381L121.05263157894736,202.74374999999998L126.09649122807016,201.81726190476192L131.140350877193,200.9202380952381L136.18421052631578,206.24345238095242L141.22807017543857,191.25595238095238L146.27192982456143,199.67291666666668L151.3157894736842,205.95208333333335L156.359649122807,197.06369047619046L161.4035087719298,193.20714285714288L166.44736842105263,193.6261904761905L171.49122807017542,192.9059523809524L176.53508771929825,218.18303571428575L181.57894736842104,220.38958333333338L186.62280701754386,206.33511904761906L191.66666666666666,211.3702380952381L196.71052631578948,213.81250000000003L201.75438596491227,219.67589285714288L206.7982456140351,218.36636904761906L211.8421052631579,216.35297619047623L216.8859649122807,204.81279761904767L221.9298245614035,198.9886904761905L226.97368421052633,204.6916666666667L232.01754385964912,204.23333333333338L237.06140350877195,202.95654761904765L242.1052631578947,188.75476190476192L247.14912280701753,187.93303571428575L252.19298245614033,194.1401785714286L257.2368421052632,204.78005952380954L262.280701754386,206.74761904761908L267.32456140350877,211.30476190476193L272.36842105263156,212.69613095238097L277.4122807017544,225.01875000000004L282.45614035087715,221.92172619047622L287.5,227.72291666666672L292.54385964912285,218.06845238095238L297.58771929824564,207.13065476190476L302.6315789473684,203.1791666666667L307.67543859649123,201.9416666666667L312.719298245614,202.3410714285714L317.7631578947369,205.88333333333338L322.8070175438596,206.22053571428572L327.85087719298247,194.50029761904764L332.89473684210526,192.76190476190476L337.9385964912281,196.33035714285717L342.98245614035085,171.583630952381L348.0263157894737,171.35446428571433L353.0701754385965,143.97886904761907L358.11403508771934,140.94732142857143L363.1578947368421,162.78035714285716L368.20175438596493,161.6541666666667L373.2456140350877,155.0901785714286L378.2894736842106,171.72767857142856L383.3333333333333,165.08839285714288L388.3771929824561,192.08095238095237L393.42105263157896,194.36279761904765L398.46491228070175,191.65535714285716L403.50877192982455,194.22529761904764L408.55263157894734,197.2404761904762L413.5964912280702,205.67708333333337L418.640350877193,213.73392857142858L423.6842105263158,213.6684523809524L428.7280701754386,183.77529761904765L433.7719298245614,194.98482142857145L438.8157894736842,202.7601190476191L443.859649122807,202.95654761904765L448.9035087719298,193.94702380952384L453.94736842105266,181.7979166666667L458.99122807017545,174.94910714285714L464.03508771929825,191.95982142857144L469.07894736842104,188.1982142857143L474.1228070175439,148.57529761904766L479.1666666666667,139.84404761904764L484.2105263157894,129.85565476190476L489.2543859649123,135.2017857142857L494.29824561403507,142.3190476190476L499.3421052631579,125.76666666666668L504.38596491228066,126.3919642857143L509.4298245614035,151.11249999999998L514.4736842105264,162.29910714285714L519.5175438596491,154.18333333333334L524.561403508772,140.17142857142858L529.6052631578947,139.5297619047619L534.6491228070175,168.077380952381L539.6929824561404,165.9592261904762L544.7368421052631,158.26904761904763L549.780701754386,142.59404761904764L554.8245614035088,161.69672619047617L559.8684210526316,181.5949404761905L564.9122807017543,181.53273809523807L569.9561403508771,181.35595238095235L575,141.4580357142857L575,151.17470238095234L569.9561403508771,189.10178571428568L564.9122807017543,189.01994047619047L559.8684210526316,188.77767857142854L554.8245614035088,168.6077380952381L549.780701754386,151.84910714285715L544.7368421052631,167.32767857142855L539.6929824561404,171.99613095238095L534.6491228070175,174.04880952380952L529.6052631578947,152.76904761904763L524.561403508772,153.46964285714284L519.5175438596491,169.39345238095237L514.4736842105264,178.58630952380952L509.4298245614035,166.97738095238094L504.38596491228066,148.15297619047618L499.3421052631579,148.0220238095238L494.29824561403507,165.43869047619046L489.2543859649123,165.2815476190476L484.2105263157894,162.92440476190475L479.1666666666667,171.56726190476192L474.1228070175439,181.36577380952383L469.07894736842104,215.239880952381L464.03508771929825,218.68065476190475L458.99122807017545,194.3136904761905L453.94736842105266,194.26458333333335L448.9035087719298,201.32291666666669L443.859649122807,206.61011904761907L438.8157894736842,209.54017857142858L433.7719298245614,201.42113095238093L428.7280701754386,190.2967261904762L423.6842105263158,219.4139880952381L418.640350877193,219.42380952380952L413.5964912280702,211.38660714285717L408.55263157894734,203.14315476190475L403.50877192982455,196.19285714285718L398.46491228070175,193.9077380952381L393.42105263157896,196.70357142857142L388.3771929824561,194.41845238095237L383.3333333333333,170.93214285714288L378.2894736842106,177.83333333333334L373.2456140350877,168.60119047619048L368.20175438596493,175.21428571428575L363.1578947368421,181.29375000000005L358.11403508771934,166.62380952380954L353.0701754385965,169.57023809523812L348.0263157894737,193.65565476190477L342.98245614035085,195.2139880952381L337.9385964912281,212.3L332.89473684210526,208.63660714285717L327.85087719298247,205.1369047619048L322.8070175438596,209.89702380952383L317.7631578947369,209.6842261904762L312.719298245614,206.1747023809524L307.67543859649123,204.36755952380958L302.6315789473684,205.70982142857144L297.58771929824564,210.08690476190478L292.54385964912285,221.04761904761907L287.5,230.36160714285717L282.45614035087715,224.6619047619048L277.4122807017544,227.54940476190478L272.36842105263156,215.33482142857144L267.32456140350877,214.13333333333335L262.280701754386,208.98690476190478L257.2368421052632,206.96041666666667L252.19298245614033,198.53363095238095L247.14912280701753,198.38958333333338L242.1052631578947,199.0901785714286L237.06140350877195,213.53422619047623L232.01754385964912,214.58184523809524L226.97368421052633,215.1809523809524L221.9298245614035,209.4157738095238L216.8859649122807,212.97113095238097L211.8421052631579,218.24196428571432L206.7982456140351,220.25535714285715L201.75438596491227,220.98214285714286L196.71052631578948,214.98125000000002L191.66666666666666,212.82380952380956L186.62280701754386,208.87232142857144L181.57894736842104,223.17232142857145L176.53508771929825,221.12619047619052L171.49122807017542,196.16011904761905L166.44736842105263,197.39761904761906L161.4035087719298,197.77410714285713L156.359649122807,201.2214285714286L151.3157894736842,209.21279761904762L146.27192982456143,202.92708333333334L141.22807017543857,198.90357142857144L136.18421052631578,213.83214285714286L131.140350877193,208.6889880952381L126.09649122807016,209.57291666666666L121.05263157894736,210.82351190476192L116.00877192982456,213.52113095238096L110.96491228070175,216.51339285714286L105.92105263157895,218.49077380952383L100.87719298245614,226.6065476190476L95.83333333333333,230.6955357142857L90.78947368421052,233.24255952380952L85.74561403508771,233.66488095238097L80.7017543859649,234.1297619047619L75.6578947368421,234.38839285714286L70.61403508771929,238.975L65.5701754385965,236.0809523809524L60.52631578947368,237.0860119047619L55.48245614035088,238.7654761904762L50.43859649122807,239.94732142857143L45.39473684210526,234.3327380952381L40.35087719298245,229.41875L35.307017543859644,229.23541666666668L30.26315789473684,232.29642857142858L25.219298245614034,230.63715277777777L20.175438596491226,230.44541666666666L15.13157894736842,230.7078125L10.087719298245613,237.6916666666667L5.0438596491228065,259.26770833333336L0,257.1020833333333Z" style="fill: rgb(254, 221, 141); opacity: 0.85;"></path></g></g><path class="foreground" d="" style="display: none; fill: none;"></path></g><g transform="translate(0,0)"><path class="background" d="M0,0h575v275h-575Z" style="fill: none;"></path><g><g class="mark-area role-mark concat_0_marks"><path d="M0,255.95624999999998L5.0438596491228065,257.7552083333333L10.087719298245613,228.49444444444444L15.13157894736842,209.69322916666667L20.175438596491226,205.56708333333333L25.219298245614034,204.83680555555554L30.26315789473684,205.26130952380953L35.307017543859644,195.1190476190476L40.35087719298245,195.43988095238095L45.39473684210526,194.12380952380954L50.43859649122807,205.40208333333334L55.48245614035088,189.80238095238096L60.52631578947368,170.5654761904762L65.5701754385965,170.60803571428573L70.61403508771929,179.47678571428574L75.6578947368421,173.08303571428573L80.7017543859649,180.71101190476188L85.74561403508771,181.44434523809522L90.78947368421052,198.81845238095238L95.83333333333333,214.66369047619048L100.87719298245614,206.72797619047617L105.92105263157895,198.52708333333334L110.96491228070175,184.2172619047619L116.00877192982456,174.64791666666667L121.05263157894736,167.48809523809524L126.09649122807016,164.15208333333334L131.140350877193,153.9410714285714L136.18421052631578,165.04910714285714L141.22807017543857,144.48630952380952L146.27192982456143,162.49226190476188L151.3157894736842,175.90178571428572L156.359649122807,167.44226190476192L161.4035087719298,157.52589285714285L166.44736842105263,167.6419642857143L171.49122807017542,167.3735119047619L176.53508771929825,199.23095238095237L181.57894736842104,201.4669642857143L186.62280701754386,181.2610119047619L191.66666666666666,190.62083333333334L196.71052631578948,202.7339285714286L201.75438596491227,209.93630952380954L206.7982456140351,208.5482142857143L211.8421052631579,206.60029761904764L216.8859649122807,194.93898809523807L221.9298245614035,194.3529761904762L226.97368421052633,200.13125000000002L232.01754385964912,197.71517857142857L237.06140350877195,196.12083333333334L242.1052631578947,178.76309523809522L247.14912280701753,177.53869047619048L252.19298245614033,183.68690476190477L257.2368421052632,194.96517857142857L262.280701754386,196.81488095238095L267.32456140350877,203.14642857142857L272.36842105263156,205.13035714285715L277.4122807017544,220.22916666666669L282.45614035087715,217.13214285714287L287.5,223.0151785714286L292.54385964912285,212.99404761904765L297.58771929824564,201.9842261904762L302.6315789473684,195.35803571428568L307.67543859649123,184.58065476190475L312.719298245614,184.89166666666668L317.7631578947369,188.79404761904763L322.8070175438596,189.2720238095238L327.85087719298247,176.10148809523815L332.89473684210526,172.41517857142856L337.9385964912281,178.68779761904761L342.98245614035085,132.13095238095238L348.0263157894737,52.69523809523812L353.0701754385965,24.763095238095296L358.11403508771934,21.512202380952388L363.1578947368421,45.194940476190524L368.20175438596493,46.127976190476254L373.2456140350877,39.59672619047624L378.2894736842106,87.7315476190476L383.3333333333333,161.12380952380954L388.3771929824561,188.49613095238095L393.42105263157896,190.99077380952383L398.46491228070175,188.4011904761905L403.50877192982455,190.77797619047624L408.55263157894734,159.54583333333335L413.5964912280702,92.77976190476195L418.640350877193,95.5232142857143L423.6842105263158,95.68363095238098L428.7280701754386,65.82648809523813L433.7719298245614,77.4714285714286L438.8157894736842,85.45952380952384L443.859649122807,119.89672619047624L448.9035087719298,163.92619047619053L453.94736842105266,155.11309523809527L458.99122807017545,140.67886904761906L464.03508771929825,154.22589285714292L469.07894736842104,149.76696428571432L474.1228070175439,109.364880952381L479.1666666666667,98.43035714285719L484.2105263157894,107.97678571428573L489.2543859649123,101.89732142857143L494.29824561403507,61.76041666666667L499.3421052631579,8.35476190476191L504.38596491228066,9.418750000000001L509.4298245614035,34.92827380952386L514.4736842105264,48.501488095238116L519.5175438596491,43.10624999999998L524.561403508772,30.51190476190478L529.6052631578947,84.46428571428572L534.6491228070175,153.15863095238095L539.6929824561404,151.7247023809524L544.7368421052631,144.46339285714288L549.780701754386,128.7949404761905L554.8245614035088,147.72410714285712L559.8684210526316,179.42440476190478L564.9122807017543,179.48988095238093L569.9561403508771,179.48333333333332L575,139.27440476190475L575,141.4580357142857L569.9561403508771,181.35595238095235L564.9122807017543,181.53273809523807L559.8684210526316,181.5949404761905L554.8245614035088,161.69672619047617L549.780701754386,142.59404761904764L544.7368421052631,158.26904761904763L539.6929824561404,165.9592261904762L534.6491228070175,168.077380952381L529.6052631578947,139.5297619047619L524.561403508772,140.17142857142858L519.5175438596491,154.18333333333334L514.4736842105264,162.29910714285714L509.4298245614035,151.11249999999998L504.38596491228066,126.3919642857143L499.3421052631579,125.76666666666668L494.29824561403507,142.3190476190476L489.2543859649123,135.2017857142857L484.2105263157894,129.85565476190476L479.1666666666667,139.84404761904764L474.1228070175439,148.57529761904766L469.07894736842104,188.1982142857143L464.03508771929825,191.95982142857144L458.99122807017545,174.94910714285714L453.94736842105266,181.7979166666667L448.9035087719298,193.94702380952384L443.859649122807,202.95654761904765L438.8157894736842,202.7601190476191L433.7719298245614,194.98482142857145L428.7280701754386,183.77529761904765L423.6842105263158,213.6684523809524L418.640350877193,213.73392857142858L413.5964912280702,205.67708333333337L408.55263157894734,197.2404761904762L403.50877192982455,194.22529761904764L398.46491228070175,191.65535714285716L393.42105263157896,194.36279761904765L388.3771929824561,192.08095238095237L383.3333333333333,165.08839285714288L378.2894736842106,171.72767857142856L373.2456140350877,155.0901785714286L368.20175438596493,161.6541666666667L363.1578947368421,162.78035714285716L358.11403508771934,140.94732142857143L353.0701754385965,143.97886904761907L348.0263157894737,171.35446428571433L342.98245614035085,171.583630952381L337.9385964912281,196.33035714285717L332.89473684210526,192.76190476190476L327.85087719298247,194.50029761904764L322.8070175438596,206.22053571428572L317.7631578947369,205.88333333333338L312.719298245614,202.3410714285714L307.67543859649123,201.9416666666667L302.6315789473684,203.1791666666667L297.58771929824564,207.13065476190476L292.54385964912285,218.06845238095238L287.5,227.72291666666672L282.45614035087715,221.92172619047622L277.4122807017544,225.01875000000004L272.36842105263156,212.69613095238097L267.32456140350877,211.30476190476193L262.280701754386,206.74761904761908L257.2368421052632,204.78005952380954L252.19298245614033,194.1401785714286L247.14912280701753,187.93303571428575L242.1052631578947,188.75476190476192L237.06140350877195,202.95654761904765L232.01754385964912,204.23333333333338L226.97368421052633,204.6916666666667L221.9298245614035,198.9886904761905L216.8859649122807,204.81279761904767L211.8421052631579,216.35297619047623L206.7982456140351,218.36636904761906L201.75438596491227,219.67589285714288L196.71052631578948,213.81250000000003L191.66666666666666,211.3702380952381L186.62280701754386,206.33511904761906L181.57894736842104,220.38958333333338L176.53508771929825,218.18303571428575L171.49122807017542,192.9059523809524L166.44736842105263,193.6261904761905L161.4035087719298,193.20714285714288L156.359649122807,197.06369047619046L151.3157894736842,205.95208333333335L146.27192982456143,199.67291666666668L141.22807017543857,191.25595238095238L136.18421052631578,206.24345238095242L131.140350877193,200.9202380952381L126.09649122807016,201.81726190476192L121.05263157894736,202.74374999999998L116.00877192982456,205.1827380952381L110.96491228070175,207.73303571428573L105.92105263157895,213.61607142857144L100.87719298245614,221.28005952380954L95.83333333333333,224.91726190476192L90.78947368421052,221.69910714285714L85.74561403508771,211.21636904761905L80.7017543859649,210.99375L75.6578947368421,205.91279761904764L70.61403508771929,211.10505952380953L65.5701754385965,202.20357142857145L60.52631578947368,200.6190476190476L55.48245614035088,205.62470238095239L50.43859649122807,213.90416666666667L45.39473684210526,204.18422619047618L40.35087719298245,202.76339285714286L35.307017543859644,202.39017857142855L30.26315789473684,212.04136904761904L25.219298245614034,211.52465277777776L20.175438596491226,212.19916666666668L15.13157894736842,215.64583333333334L10.087719298245613,230.25902777777776L5.0438596491228065,257.89270833333336L0,256.1166666666667Z" style="fill: rgb(241, 110, 67); opacity: 0.85;"></path></g></g><path class="foreground" d="" style="display: none; fill: none;"></path></g></g></g><path class="foreground" d="" style="display: none; fill: none;"></path></g></g><g class="mark-group role-scope concat_1_group"><g transform="translate(0,287)"><path class="background" d="M0.5,0.5h575v75h-575Z" style="fill: none; stroke: #ddd;"></path><g><g class="mark-group role-axis"><g transform="translate(0.5,75.5)"><path class="background" d="M0,0h0v0h0Z" style="pointer-events: none; fill: none;"></path><g><g class="mark-rule role-axis-grid" style="pointer-events: none;"><line transform="translate(5,-75)" x2="0" y2="75" style="fill: none; stroke: #ddd; stroke-width: 1; opacity: 1;"></line><line transform="translate(40,-75)" x2="0" y2="75" style="fill: none; stroke: #ddd; stroke-width: 1; opacity: 1;"></line><line transform="translate(76,-75)" x2="0" y2="75" style="fill: none; stroke: #ddd; stroke-width: 1; opacity: 1;"></line><line transform="translate(111,-75)" x2="0" y2="75" style="fill: none; stroke: #ddd; stroke-width: 1; opacity: 1;"></line><line transform="translate(146,-75)" x2="0" y2="75" style="fill: none; stroke: #ddd; stroke-width: 1; opacity: 1;"></line><line transform="translate(182,-75)" x2="0" y2="75" style="fill: none; stroke: #ddd; stroke-width: 1; opacity: 1;"></line><line transform="translate(217,-75)" x2="0" y2="75" style="fill: none; stroke: #ddd; stroke-width: 1; opacity: 1;"></line><line transform="translate(252,-75)" x2="0" y2="75" style="fill: none; stroke: #ddd; stroke-width: 1; opacity: 1;"></line><line transform="translate(288,-75)" x2="0" y2="75" style="fill: none; stroke: #ddd; stroke-width: 1; opacity: 1;"></line><line transform="translate(323,-75)" x2="0" y2="75" style="fill: none; stroke: #ddd; stroke-width: 1; opacity: 1;"></line><line transform="translate(358,-75)" x2="0" y2="75" style="fill: none; stroke: #ddd; stroke-width: 1; opacity: 1;"></line><line transform="translate(393,-75)" x2="0" y2="75" style="fill: none; stroke: #ddd; stroke-width: 1; opacity: 1;"></line><line transform="translate(429,-75)" x2="0" y2="75" style="fill: none; stroke: #ddd; stroke-width: 1; opacity: 1;"></line><line transform="translate(464,-75)" x2="0" y2="75" style="fill: none; stroke: #ddd; stroke-width: 1; opacity: 1;"></line><line transform="translate(499,-75)" x2="0" y2="75" style="fill: none; stroke: #ddd; stroke-width: 1; opacity: 1;"></line><line transform="translate(535,-75)" x2="0" y2="75" style="fill: none; stroke: #ddd; stroke-width: 1; opacity: 1;"></line><line transform="translate(570,-75)" x2="0" y2="75" style="fill: none; stroke: #ddd; stroke-width: 1; opacity: 1;"></line></g></g><path class="foreground" d="" style="pointer-events: none; display: none; fill: none;"></path></g></g><g class="mark-group role-axis"><g transform="translate(0.5,0.5)"><path class="background" d="M0,0h0v0h0Z" style="pointer-events: none; fill: none;"></path><g><g class="mark-rule role-axis-grid" style="pointer-events: none;"><line transform="translate(0,75)" x2="575" y2="0" style="fill: none; stroke: #ddd; stroke-width: 1; opacity: 1;"></line><line transform="translate(0,38)" x2="575" y2="0" style="fill: none; stroke: #ddd; stroke-width: 1; opacity: 1;"></line><line transform="translate(0,0)" x2="575" y2="0" style="fill: none; stroke: #ddd; stroke-width: 1; opacity: 1;"></line></g></g><path class="foreground" d="" style="pointer-events: none; display: none; fill: none;"></path></g></g><g class="mark-group role-axis"><g transform="translate(0.5,75.5)"><path class="background" d="M0,0h0v0h0Z" style="pointer-events: none; fill: none;"></path><g><g class="mark-rule role-axis-tick" style="pointer-events: none;"><line transform="translate(5,0)" x2="0" y2="5" style="fill: none; stroke: #888; stroke-width: 1; opacity: 1;"></line><line transform="translate(40,0)" x2="0" y2="5" style="fill: none; stroke: #888; stroke-width: 1; opacity: 1;"></line><line transform="translate(76,0)" x2="0" y2="5" style="fill: none; stroke: #888; stroke-width: 1; opacity: 1;"></line><line transform="translate(111,0)" x2="0" y2="5" style="fill: none; stroke: #888; stroke-width: 1; opacity: 1;"></line><line transform="translate(146,0)" x2="0" y2="5" style="fill: none; stroke: #888; stroke-width: 1; opacity: 1;"></line><line transform="translate(182,0)" x2="0" y2="5" style="fill: none; stroke: #888; stroke-width: 1; opacity: 1;"></line><line transform="translate(217,0)" x2="0" y2="5" style="fill: none; stroke: #888; stroke-width: 1; opacity: 1;"></line><line transform="translate(252,0)" x2="0" y2="5" style="fill: none; stroke: #888; stroke-width: 1; opacity: 1;"></line><line transform="translate(288,0)" x2="0" y2="5" style="fill: none; stroke: #888; stroke-width: 1; opacity: 1;"></line><line transform="translate(323,0)" x2="0" y2="5" style="fill: none; stroke: #888; stroke-width: 1; opacity: 1;"></line><line transform="translate(358,0)" x2="0" y2="5" style="fill: none; stroke: #888; stroke-width: 1; opacity: 1;"></line><line transform="translate(393,0)" x2="0" y2="5" style="fill: none; stroke: #888; stroke-width: 1; opacity: 1;"></line><line transform="translate(429,0)" x2="0" y2="5" style="fill: none; stroke: #888; stroke-width: 1; opacity: 1;"></line><line transform="translate(464,0)" x2="0" y2="5" style="fill: none; stroke: #888; stroke-width: 1; opacity: 1;"></line><line transform="translate(499,0)" x2="0" y2="5" style="fill: none; stroke: #888; stroke-width: 1; opacity: 1;"></line><line transform="translate(535,0)" x2="0" y2="5" style="fill: none; stroke: #888; stroke-width: 1; opacity: 1;"></line><line transform="translate(570,0)" x2="0" y2="5" style="fill: none; stroke: #888; stroke-width: 1; opacity: 1;"></line></g><g class="mark-text role-axis-label" style="pointer-events: none;"><text text-anchor="middle" transform="translate(5.0438596491228065,18)" style="font-family: sans-serif; font-size: 14px; fill: #000; opacity: 1;">jul 19</text><text text-anchor="middle" transform="translate(40.35087719298245,18)" style="font-family: sans-serif; font-size: 14px; fill: #000; opacity: 0;">jul 26</text><text text-anchor="middle" transform="translate(75.6578947368421,18)" style="font-family: sans-serif; font-size: 14px; fill: #000; opacity: 1;">ago 02</text><text text-anchor="middle" transform="translate(110.96491228070175,18)" style="font-family: sans-serif; font-size: 14px; fill: #000; opacity: 0;">ago 09</text><text text-anchor="middle" transform="translate(146.27192982456143,18)" style="font-family: sans-serif; font-size: 14px; fill: #000; opacity: 1;">ago 16</text><text text-anchor="middle" transform="translate(181.57894736842104,18)" style="font-family: sans-serif; font-size: 14px; fill: #000; opacity: 0;">ago 23</text><text text-anchor="middle" transform="translate(216.8859649122807,18)" style="font-family: sans-serif; font-size: 14px; fill: #000; opacity: 1;">ago 30</text><text text-anchor="middle" transform="translate(252.19298245614033,18)" style="font-family: sans-serif; font-size: 14px; fill: #000; opacity: 0;">sep 06</text><text text-anchor="middle" transform="translate(287.5,18)" style="font-family: sans-serif; font-size: 14px; fill: #000; opacity: 1;">sep 13</text><text text-anchor="middle" transform="translate(322.8070175438596,18)" style="font-family: sans-serif; font-size: 14px; fill: #000; opacity: 0;">sep 20</text><text text-anchor="middle" transform="translate(358.11403508771934,18)" style="font-family: sans-serif; font-size: 14px; fill: #000; opacity: 1;">sep 27</text><text text-anchor="middle" transform="translate(393.42105263157896,18)" style="font-family: sans-serif; font-size: 14px; fill: #000; opacity: 0;">oct 04</text><text text-anchor="middle" transform="translate(428.7280701754386,18)" style="font-family: sans-serif; font-size: 14px; fill: #000; opacity: 1;">oct 11</text><text text-anchor="middle" transform="translate(464.03508771929825,18)" style="font-family: sans-serif; font-size: 14px; fill: #000; opacity: 0;">oct 18</text><text text-anchor="middle" transform="translate(499.3421052631579,18)" style="font-family: sans-serif; font-size: 14px; fill: #000; opacity: 1;">oct 25</text><text text-anchor="middle" transform="translate(534.6491228070175,18)" style="font-family: sans-serif; font-size: 14px; fill: #000; opacity: 0;">noviembre</text><text text-anchor="middle" transform="translate(569.9561403508771,18)" style="font-family: sans-serif; font-size: 14px; fill: #000; opacity: 1;">nov 08</text></g><g class="mark-rule role-axis-domain" style="pointer-events: none;"><line transform="translate(0,0)" x2="575" y2="0" style="fill: none; stroke: #888; stroke-width: 1; opacity: 1;"></line></g><g class="mark-text role-axis-title" style="pointer-events: none;"><text text-anchor="middle" transform="translate(287.5,36)" style="font-family: sans-serif; font-size: 14px; font-weight: bold; fill: #000; opacity: 1;">Fecha de boletín</text></g></g><path class="foreground" d="" style="pointer-events: none; display: none; fill: none;"></path></g></g><g class="mark-group role-axis"><g transform="translate(0.5,0.5)"><path class="background" d="M0,0h0v0h0Z" style="pointer-events: none; fill: none;"></path><g><g class="mark-rule role-axis-tick" style="pointer-events: none;"><line transform="translate(0,75)" x2="-5" y2="0" style="fill: none; stroke: #888; stroke-width: 1; opacity: 1;"></line><line transform="translate(0,38)" x2="-5" y2="0" style="fill: none; stroke: #888; stroke-width: 1; opacity: 1;"></line><line transform="translate(0,0)" x2="-5" y2="0" style="fill: none; stroke: #888; stroke-width: 1; opacity: 1;"></line></g><g class="mark-text role-axis-label" style="pointer-events: none;"><text text-anchor="end" transform="translate(-7,79)" style="font-family: sans-serif; font-size: 14px; fill: #000; opacity: 1;">0%</text><text text-anchor="end" transform="translate(-7,41.5)" style="font-family: sans-serif; font-size: 14px; fill: #000; opacity: 1;">50%</text><text text-anchor="end" transform="translate(-7,4)" style="font-family: sans-serif; font-size: 14px; fill: #000; opacity: 1;"></text></g><g class="mark-rule role-axis-domain" style="pointer-events: none;"><line transform="translate(0,75)" x2="0" y2="-75" style="fill: none; stroke: #888; stroke-width: 1; opacity: 1;"></line></g><g class="mark-text role-axis-title" style="pointer-events: none;"><text text-anchor="middle" transform="translate(-39.0205078125,37.5) rotate(-90) translate(0,-3)" style="font-family: sans-serif; font-size: 14px; font-weight: bold; fill: #000; opacity: 1;">% renglón</text></g></g><path class="foreground" d="" style="pointer-events: none; display: none; fill: none;"></path></g></g><g class="mark-group role-scope concat_1_pathgroup"><g transform="translate(0,0)"><path class="background" d="M0,0h575v75h-575Z" style="fill: none;"></path><g><g class="mark-area role-mark concat_1_marks"><path d="M0,19.49458483754512L5.0438596491228065,17.39202657807309L10.087719298245613,50.213534822601844L15.13157894736842,57.801122905518035L20.175438596491226,57.77114000924154L25.219298245614034,56.844039194338606L30.26315789473684,56.28696835977843L35.307017543859644,57.8391393442623L40.35087719298245,59.19574520615587L45.39473684210526,60.7553432642487L50.43859649122807,60.10865986170563L55.48245614035088,62.451967414694124L60.52631578947368,63.98981191222571L65.5701754385965,63.99473139523944L70.61403508771929,64.53578038247994L75.6578947368421,63.30345957405801L80.7017543859649,60.3937363285997L85.74561403508771,58.528711901179264L90.78947368421052,52.00687580575849L95.83333333333333,39.24986435160065L100.87719298245614,37.19430325117483L105.92105263157895,33.308360803116564L110.96491228070175,39.03083303281644L116.00877192982456,40.50092976217662L121.05263157894736,42.608861144945195L126.09649122807016,42.51159219114564L131.140350877193,46.13215966250203L136.18421052631578,46.4805716837874L141.22807017543857,47.049490794160434L146.27192982456143,42.779200372461155L151.3157894736842,41.84093161546085L156.359649122807,43.355451391002624L161.4035087719298,46.879441518267704L166.44736842105263,42.96038788765896L171.49122807017542,42.0684410646388L176.53508771929825,43.11268579329416L181.57894736842104,43.528783224255385L186.62280701754386,48.96360842384663L191.66666666666666,46.44215100488866L196.71052631578948,43.354172329437354L201.75438596491227,46.096658951393785L206.7982456140351,46.29766479456105L211.8421052631579,45.050974010434125L216.8859649122807,50.07258229400942L221.9298245614035,48.08597872858651L226.97368421052633,47.13039485766758L232.01754385964912,44.481509721692724L237.06140350877195,44.34506516145098L242.1052631578947,42.98288882841204L247.14912280701753,42.96439368491771L252.19298245614033,38.55675462498208L257.2368421052632,35.2773346422874L262.280701754386,35.80416213047484L267.32456140350877,37.45899398578459L272.36842105263156,37.08883890919314L277.4122807017544,36.79617453676031L282.45614035087715,38.70078071961982L287.5,38.380880408086156L292.54385964912285,45.27323125659979L297.58771929824564,46.94435726135498L302.6315789473684,48.43075595017881L307.67543859649123,50.6879322205728L312.719298245614,51.32884028484232L317.7631578947369,50.76712744949111L322.8070175438596,50.86114717788131L327.85087719298247,53.492336720844776L332.89473684210526,54.80852082336046L337.9385964912281,53.14167714742173L342.98245614035085,59.4723877176902L348.0263157894737,65.29475435909518L353.0701754385965,63.62087236380763L358.11403508771934,63.51689935295561L363.1578947368421,61.728755609373884L368.20175438596493,60.78744099556573L373.2456140350877,60.150198178151726L378.2894736842106,54.790042306213074L383.3333333333333,38.011010809567615L388.3771929824561,33.95053551829844L393.42105263157896,32.89817232375978L398.46491228070175,34.3868138515046L403.50877192982455,31.680984218300534L408.55263157894734,45.247547212612716L413.5964912280702,58.299496945742L418.640350877193,59.84458793914851L423.6842105263158,59.86526208168257L428.7280701754386,58.10730439954298L433.7719298245614,58.3693814638027L438.8157894736842,59.71656072958408L443.859649122807,55.87204761804251L448.9035087719298,47.947123319971695L453.94736842105266,48.493992353904964L458.99122807017545,51.2765361086061L464.03508771929825,55.478978612669756L469.07894736842104,55.60348207983687L474.1228070175439,57.792425979365134L479.1666666666667,55.54705751474023L484.2105263157894,50.605668587557325L489.2543859649123,51.36453900709219L494.29824561403507,55.88124664159054L499.3421052631579,57.11097878400943L504.38596491228066,56.752708849524794L509.4298245614035,54.66242107703426L514.4736842105264,56.30230541302305L519.5175438596491,54.777434246749394L524.561403508772,52.871585431173L529.6052631578947,46.40463917525773L534.6491228070175,35.69135072681838L539.6929824561404,35.34391183109812L544.7368421052631,38.663381235422456L549.780701754386,37.724198929667025L554.8245614035088,39.69635002700825L559.8684210526316,37.66184832499827L564.9122807017543,37.64396380338656L569.9561403508771,37.33291061146146L575,43.57663177191374L575,75L569.9561403508771,75L564.9122807017543,75L559.8684210526316,75L554.8245614035088,75L549.780701754386,75L544.7368421052631,75L539.6929824561404,75L534.6491228070175,75L529.6052631578947,75L524.561403508772,75L519.5175438596491,75L514.4736842105264,75L509.4298245614035,75L504.38596491228066,75L499.3421052631579,75L494.29824561403507,75L489.2543859649123,75L484.2105263157894,75L479.1666666666667,75L474.1228070175439,75L469.07894736842104,75L464.03508771929825,75L458.99122807017545,75L453.94736842105266,75L448.9035087719298,75L443.859649122807,75L438.8157894736842,75L433.7719298245614,75L428.7280701754386,75L423.6842105263158,75L418.640350877193,75L413.5964912280702,75L408.55263157894734,75L403.50877192982455,75L398.46491228070175,75L393.42105263157896,75L388.3771929824561,75L383.3333333333333,75L378.2894736842106,75L373.2456140350877,75L368.20175438596493,75L363.1578947368421,75L358.11403508771934,75L353.0701754385965,75L348.0263157894737,75L342.98245614035085,75L337.9385964912281,75L332.89473684210526,75L327.85087719298247,75L322.8070175438596,75L317.7631578947369,75L312.719298245614,75L307.67543859649123,75L302.6315789473684,75L297.58771929824564,75L292.54385964912285,75L287.5,75L282.45614035087715,75L277.4122807017544,75L272.36842105263156,75L267.32456140350877,75L262.280701754386,75L257.2368421052632,75L252.19298245614033,75L247.14912280701753,75L242.1052631578947,75L237.06140350877195,75L232.01754385964912,75L226.97368421052633,75L221.9298245614035,75L216.8859649122807,75L211.8421052631579,75L206.7982456140351,75L201.75438596491227,75L196.71052631578948,75L191.66666666666666,75L186.62280701754386,75L181.57894736842104,75L176.53508771929825,75L171.49122807017542,75L166.44736842105263,75L161.4035087719298,75L156.359649122807,75L151.3157894736842,75L146.27192982456143,75L141.22807017543857,75L136.18421052631578,75L131.140350877193,75L126.09649122807016,75L121.05263157894736,75L116.00877192982456,75L110.96491228070175,75L105.92105263157895,75L100.87719298245614,75L95.83333333333333,75L90.78947368421052,75L85.74561403508771,75L80.7017543859649,75L75.6578947368421,75L70.61403508771929,75L65.5701754385965,75L60.52631578947368,75L55.48245614035088,75L50.43859649122807,75L45.39473684210526,75L40.35087719298245,75L35.307017543859644,75L30.26315789473684,75L25.219298245614034,75L20.175438596491226,75L15.13157894736842,75L10.087719298245613,75L5.0438596491228065,75L0,75Z" style="fill: rgb(100, 188, 97); opacity: 0.85;"></path></g></g><path class="foreground" d="" style="display: none; fill: none;"></path></g><g transform="translate(0,0)"><path class="background" d="M0,0h575v75h-575Z" style="fill: none;"></path><g><g class="mark-area role-mark concat_1_marks"><path d="M0,4.512635379061372L5.0438596491228065,6.578073089700995L10.087719298245613,14.832457293035475L15.13157894736842,24.133695938240194L20.175438596491226,26.87306092811407L25.219298245614034,27.5789330430049L30.26315789473684,29.07473476668857L35.307017543859644,32.03176229508197L40.35087719298245,32.03131429511973L45.39473684210526,37.28748380829015L50.43859649122807,37.226586386942L55.48245614035088,43.10252075007685L60.52631578947368,47.771943573667706L65.5701754385965,47.03876187788127L70.61403508771929,46.714990746452806L75.6578947368421,45.11419485400405L80.7017543859649,42.490712128051115L85.74561403508771,41.86321167372362L90.78947368421052,33.890201976794174L95.83333333333333,19.928106348345096L100.87719298245614,21.837537163134172L105.92105263157895,19.579177190804398L110.96491228070175,26.681391994230083L116.00877192982456,29.052621276873392L121.05263157894736,30.230663824604147L126.09649122807016,30.731858590035156L131.140350877193,33.918140515982486L136.18421052631578,33.276016078606524L141.22807017543857,31.271007876385895L146.27192982456143,26.954693592504228L151.3157894736842,25.21060455896929L156.359649122807,23.55420953308578L161.4035087719298,25.69601203912717L166.44736842105263,20.78721068520721L171.49122807017542,20.060076045627394L176.53508771929825,21.673003802281386L181.57894736842104,22.138373180179L186.62280701754386,22.09164251039013L191.66666666666666,19.73500426786686L196.71052631578948,12.710655069312335L201.75438596491227,12.732716111502473L206.7982456140351,13.21312444575822L211.8421052631579,12.76504092279712L216.8859649122807,16.89225107340014L221.9298245614035,14.008078265811491L226.97368421052633,15.076085530630998L232.01754385964912,16.368026432837727L237.06140350877195,16.557026645637926L242.1052631578947,15.841441012382656L247.14912280701753,16.045515619751434L252.19298245614033,12.194356804818598L257.2368421052632,11.240643023683894L262.280701754386,11.676157775730692L267.32456140350877,11.468015308911985L272.36842105263156,10.953753162777641L277.4122807017544,10.023909145248066L282.45614035087715,9.758995247793631L287.5,10.59890421311167L292.54385964912285,9.741288278775093L297.58771929824564,8.322871362596981L302.6315789473684,9.748427672955994L307.67543859649123,16.412614504507776L312.719298245614,17.714540037785216L317.7631578947369,18.174654412881676L322.8070175438596,18.04399297334454L327.85087719298247,22.01910026813202L332.89473684210526,26.481570129248457L337.9385964912281,26.17441109487067L342.98245614035085,33.11583409715858L348.0263157894737,47.55647679076343L353.0701754385965,43.401015228426395L358.11403508771934,42.9344948275194L363.1578947368421,44.417693567917944L368.20175438596493,42.30081533400085L373.2456140350877,41.101105625478056L378.2894736842106,36.08527673857558L383.3333333333333,6.45986660533579L388.3771929824561,5.134731105476279L393.42105263157896,5.100151981606313L398.46491228070175,4.76901557538181L403.50877192982455,4.82196999144833L408.55263157894734,28.321187546078377L413.5964912280702,48.817373338124334L418.640350877193,51.77574696289811L423.6842105263158,51.7508626513063L428.7280701754386,44.62930211447263L433.7719298245614,47.06269888623707L438.8157894736842,49.09795149924002L443.859649122807,41.93015598286088L448.9035087719298,25.25126738976656L453.94736842105266,24.492763517203716L458.99122807017545,29.947719905432738L464.03508771929825,40.02602260713995L469.07894736842104,39.21065014508666L474.1228070175439,32.60218602996402L479.1666666666667,31.065747024140613L484.2105263157894,24.673644596024925L489.2543859649123,27.46241134751772L494.29824561403507,36.4654179780456L499.3421052631579,39.28457420685591L504.38596491228066,39.178469731148994L509.4298245614035,41.25301714145449L514.4736842105264,43.074727180747274L519.5175438596491,40.84430985557579L524.561403508772,37.718934118907335L529.6052631578947,26.886597938144323L534.6491228070175,12.85904291049789L539.6929824561404,12.333023502854857L544.7368421052631,13.136709051237675L549.780701754386,11.826283615844496L554.8245614035088,12.30611929932865L559.8684210526316,7.33969308762073L564.9122807017543,7.4835469938986625L569.9561403508771,7.552440361941318L575,6.575932268802156L575,43.57663177191374L569.9561403508771,37.33291061146146L564.9122807017543,37.64396380338656L559.8684210526316,37.66184832499827L554.8245614035088,39.69635002700825L549.780701754386,37.724198929667025L544.7368421052631,38.663381235422456L539.6929824561404,35.34391183109812L534.6491228070175,35.69135072681838L529.6052631578947,46.40463917525773L524.561403508772,52.871585431173L519.5175438596491,54.777434246749394L514.4736842105264,56.30230541302305L509.4298245614035,54.66242107703426L504.38596491228066,56.752708849524794L499.3421052631579,57.11097878400943L494.29824561403507,55.88124664159054L489.2543859649123,51.36453900709219L484.2105263157894,50.605668587557325L479.1666666666667,55.54705751474023L474.1228070175439,57.792425979365134L469.07894736842104,55.60348207983687L464.03508771929825,55.478978612669756L458.99122807017545,51.2765361086061L453.94736842105266,48.493992353904964L448.9035087719298,47.947123319971695L443.859649122807,55.87204761804251L438.8157894736842,59.71656072958408L433.7719298245614,58.3693814638027L428.7280701754386,58.10730439954298L423.6842105263158,59.86526208168257L418.640350877193,59.84458793914851L413.5964912280702,58.299496945742L408.55263157894734,45.247547212612716L403.50877192982455,31.680984218300534L398.46491228070175,34.3868138515046L393.42105263157896,32.89817232375978L388.3771929824561,33.95053551829844L383.3333333333333,38.011010809567615L378.2894736842106,54.790042306213074L373.2456140350877,60.150198178151726L368.20175438596493,60.78744099556573L363.1578947368421,61.728755609373884L358.11403508771934,63.51689935295561L353.0701754385965,63.62087236380763L348.0263157894737,65.29475435909518L342.98245614035085,59.4723877176902L337.9385964912281,53.14167714742173L332.89473684210526,54.80852082336046L327.85087719298247,53.492336720844776L322.8070175438596,50.86114717788131L317.7631578947369,50.76712744949111L312.719298245614,51.328840284842315L307.67543859649123,50.68793222057279L302.6315789473684,48.43075595017882L297.58771929824564,46.94435726135498L292.54385964912285,45.27323125659979L287.5,38.380880408086156L282.45614035087715,38.70078071961982L277.4122807017544,36.79617453676031L272.36842105263156,37.08883890919314L267.32456140350877,37.45899398578459L262.280701754386,35.80416213047484L257.2368421052632,35.2773346422874L252.19298245614033,38.55675462498208L247.14912280701753,42.96439368491771L242.1052631578947,42.98288882841204L237.06140350877195,44.34506516145098L232.01754385964912,44.481509721692724L226.97368421052633,47.13039485766758L221.9298245614035,48.08597872858651L216.8859649122807,50.07258229400942L211.8421052631579,45.050974010434125L206.7982456140351,46.29766479456105L201.75438596491227,46.09665895139378L196.71052631578948,43.354172329437354L191.66666666666666,46.44215100488866L186.62280701754386,48.96360842384663L181.57894736842104,43.528783224255385L176.53508771929825,43.11268579329416L171.49122807017542,42.0684410646388L166.44736842105263,42.96038788765896L161.4035087719298,46.879441518267704L156.359649122807,43.355451391002624L151.3157894736842,41.84093161546085L146.27192982456143,42.779200372461155L141.22807017543857,47.049490794160434L136.18421052631578,46.4805716837874L131.140350877193,46.13215966250203L126.09649122807016,42.51159219114564L121.05263157894736,42.608861144945195L116.00877192982456,40.50092976217662L110.96491228070175,39.03083303281644L105.92105263157895,33.308360803116564L100.87719298245614,37.19430325117483L95.83333333333333,39.24986435160065L90.78947368421052,52.00687580575849L85.74561403508771,58.528711901179264L80.7017543859649,60.3937363285997L75.6578947368421,63.30345957405801L70.61403508771929,64.53578038247994L65.5701754385965,63.99473139523944L60.52631578947368,63.98981191222571L55.48245614035088,62.451967414694124L50.43859649122807,60.10865986170563L45.39473684210526,60.7553432642487L40.35087719298245,59.19574520615587L35.307017543859644,57.8391393442623L30.26315789473684,56.28696835977843L25.219298245614034,56.844039194338606L20.175438596491226,57.77114000924154L15.13157894736842,57.801122905518035L10.087719298245613,50.213534822601844L5.0438596491228065,17.39202657807309L0,19.49458483754512Z" style="fill: rgb(215, 238, 142); opacity: 0.85;"></path></g></g><path class="foreground" d="" style="display: none; fill: none;"></path></g><g transform="translate(0,0)"><path class="background" d="M0,0h575v75h-575Z" style="fill: none;"></path><g><g class="mark-area role-mark concat_1_marks"><path d="M0,0.6317689530685899L5.0438596491228065,0.5980066445182647L10.087719298245613,2.8457621550591257L15.13157894736842,6.836125975962798L20.175438596491226,7.16383919730676L25.219298245614034,7.148884050081655L30.26315789473684,7.291568866773074L35.307017543859644,6.8268442622950785L40.35087719298245,6.903752777549163L45.39473684210526,9.329460816062173L50.43859649122807,9.162001975633851L55.48245614035088,13.928489086996612L60.52631578947368,21.58307210031347L65.5701754385965,22.699689528648037L70.61403508771929,24.83292206456919L75.6578947368421,24.159198226847842L80.7017543859649,24.087705288010834L85.74561403508771,23.86709591629633L90.78947368421052,22.525784271594343L95.83333333333333,12.745523602821496L100.87719298245614,15.986141747386606L105.92105263157895,14.798364656021235L110.96491228070175,19.427515326361355L116.00877192982456,22.820767950934663L121.05263157894736,24.59424482338612L126.09649122807016,25.48436161729526L131.140350877193,29.10514359889665L136.18421052631578,28.09959803483699L141.22807017543857,26.876285556614665L146.27192982456143,24.785398358843054L151.3157894736842,22.742814667988124L156.359649122807,20.655019175747256L161.4035087719298,22.780285929270132L166.44736842105263,18.152502058366117L171.49122807017542,17.79239543726237L176.53508771929825,18.759721742136207L181.57894736842104,19.30012020836117L186.62280701754386,20.061642161142757L191.66666666666666,18.443004578257177L196.71052631578948,11.497689589562398L201.75438596491227,11.226979973835174L206.7982456140351,11.081140999113229L211.8421052631579,10.693773034030546L216.8859649122807,9.249642199959126L221.9298245614035,4.3111147194933945L226.97368421052633,4.568411386593215L232.01754385964912,6.3254543143982795L237.06140350877195,6.499543454802029L242.1052631578947,7.786773710708958L247.14912280701753,7.99882431978502L252.19298245614033,8.585795210096093L257.2368421052632,9.197447539575423L262.280701754386,9.528096474332152L267.32456140350877,8.515582285401873L272.36842105263156,8.121310092774836L277.4122807017544,6.558577405857758L282.45614035087715,6.207569585879175L287.5,6.791989419988689L292.54385964912285,6.1378035902851265L297.58771929824564,5.286284356364629L302.6315789473684,7.365273153286486L307.67543859649123,14.400412759332351L312.719298245614,14.523688417381212L317.7631578947369,14.867841409691646L322.8070175438596,14.827579622699158L327.85087719298247,13.952795524512574L332.89473684210526,14.875538535184308L337.9385964912281,13.738570311703334L342.98245614035085,20.710930339138418L348.0263157894737,40.03261958058435L353.0701754385965,35.73087288712125L358.11403508771934,35.337535032093925L363.1578947368421,38.375596552461L368.20175438596493,37.857245029323416L373.2456140350877,36.79646756136568L378.2894736842106,33.63999510506626L383.3333333333333,2.6111143054277837L388.3771929824561,3.108087650910191L393.42105263157896,3.0104048945871096L398.46491228070175,2.8183124149402605L403.50877192982455,3.069851512088928L408.55263157894734,24.486757783701023L413.5964912280702,46.467391304347835L418.640350877193,49.39805187698369L423.6842105263158,49.34776258375478L428.7280701754386,42.29101779537665L433.7719298245614,44.61888424821002L438.8157894736842,46.41512367002902L443.859649122807,40.16347594824492L448.9035087719298,20.270867719877383L453.94736842105266,16.693746586564718L458.99122807017545,19.135245801749978L464.03508771929825,23.432544523054393L469.07894736842104,23.01584189475335L474.1228070175439,17.75457564138039L479.1666666666667,17.590944487707198L484.2105263157894,9.824473715159352L489.2543859649123,14.429787234042541L494.29824561403507,28.333845090964914L499.3421052631579,33.024751988999114L504.38596491228066,33.03317185015347L509.4298245614035,36.296723077552464L514.4736842105264,37.681578376815786L519.5175438596491,35.92499258820042L524.561403508772,33.63952865559722L529.6052631578947,21.675257731958762L534.6491228070175,9.183303329123785L539.6929824561404,8.660204488115786L544.7368421052631,7.932059288240165L549.780701754386,7.0786403636445L554.8245614035088,8.233660004629986L559.8684210526316,1.7032609440295916L564.9122807017543,1.6041680948789994L569.9561403508771,1.4703866191390247L575,1.2066428674803398L575,6.575932268802156L569.9561403508771,7.552440361941318L564.9122807017543,7.4835469938986625L559.8684210526316,7.33969308762073L554.8245614035088,12.30611929932865L549.780701754386,11.826283615844496L544.7368421052631,13.136709051237675L539.6929824561404,12.333023502854857L534.6491228070175,12.85904291049789L529.6052631578947,26.886597938144323L524.561403508772,37.718934118907335L519.5175438596491,40.84430985557579L514.4736842105264,43.074727180747274L509.4298245614035,41.25301714145449L504.38596491228066,39.178469731148994L499.3421052631579,39.28457420685591L494.29824561403507,36.4654179780456L489.2543859649123,27.46241134751772L484.2105263157894,24.673644596024925L479.1666666666667,31.065747024140613L474.1228070175439,32.60218602996402L469.07894736842104,39.21065014508666L464.03508771929825,40.02602260713995L458.99122807017545,29.947719905432738L453.94736842105266,24.492763517203716L448.9035087719298,25.25126738976656L443.859649122807,41.93015598286088L438.8157894736842,49.09795149924002L433.7719298245614,47.06269888623707L428.7280701754386,44.62930211447263L423.6842105263158,51.7508626513063L418.640350877193,51.77574696289811L413.5964912280702,48.817373338124334L408.55263157894734,28.321187546078377L403.50877192982455,4.82196999144833L398.46491228070175,4.76901557538181L393.42105263157896,5.100151981606313L388.3771929824561,5.134731105476279L383.3333333333333,6.45986660533579L378.2894736842106,36.08527673857558L373.2456140350877,41.101105625478056L368.20175438596493,42.30081533400085L363.1578947368421,44.417693567917944L358.11403508771934,42.9344948275194L353.0701754385965,43.401015228426395L348.0263157894737,47.55647679076343L342.98245614035085,33.11583409715858L337.9385964912281,26.17441109487067L332.89473684210526,26.481570129248457L327.85087719298247,22.01910026813202L322.8070175438596,18.04399297334454L317.7631578947369,18.174654412881676L312.719298245614,17.714540037785216L307.67543859649123,16.412614504507776L302.6315789473684,9.748427672955994L297.58771929824564,8.322871362596981L292.54385964912285,9.741288278775093L287.5,10.59890421311167L282.45614035087715,9.758995247793631L277.4122807017544,10.023909145248066L272.36842105263156,10.953753162777641L267.32456140350877,11.468015308911985L262.280701754386,11.676157775730692L257.2368421052632,11.240643023683894L252.19298245614033,12.194356804818598L247.14912280701753,16.045515619751434L242.1052631578947,15.841441012382656L237.06140350877195,16.557026645637926L232.01754385964912,16.368026432837727L226.97368421052633,15.076085530630998L221.9298245614035,14.008078265811491L216.8859649122807,16.89225107340014L211.8421052631579,12.76504092279712L206.7982456140351,13.21312444575822L201.75438596491227,12.732716111502473L196.71052631578948,12.710655069312335L191.66666666666666,19.73500426786686L186.62280701754386,22.09164251039013L181.57894736842104,22.138373180179L176.53508771929825,21.673003802281386L171.49122807017542,20.060076045627394L166.44736842105263,20.78721068520721L161.4035087719298,25.69601203912717L156.359649122807,23.55420953308578L151.3157894736842,25.21060455896929L146.27192982456143,26.954693592504228L141.22807017543857,31.271007876385895L136.18421052631578,33.276016078606524L131.140350877193,33.918140515982486L126.09649122807016,30.731858590035156L121.05263157894736,30.230663824604147L116.00877192982456,29.052621276873392L110.96491228070175,26.681391994230083L105.92105263157895,19.579177190804398L100.87719298245614,21.837537163134172L95.83333333333333,19.928106348345096L90.78947368421052,33.890201976794174L85.74561403508771,41.86321167372362L80.7017543859649,42.490712128051115L75.6578947368421,45.11419485400405L70.61403508771929,46.714990746452806L65.5701754385965,47.03876187788127L60.52631578947368,47.771943573667706L55.48245614035088,43.10252075007685L50.43859649122807,37.226586386942L45.39473684210526,37.28748380829015L40.35087719298245,32.03131429511973L35.307017543859644,32.03176229508197L30.26315789473684,29.07473476668857L25.219298245614034,27.5789330430049L20.175438596491226,26.87306092811407L15.13157894736842,24.133695938240194L10.087719298245613,14.832457293035475L5.0438596491228065,6.578073089700995L0,4.512635379061372Z" style="fill: rgb(254, 221, 141); opacity: 0.85;"></path></g></g><path class="foreground" d="" style="display: none; fill: none;"></path></g><g transform="translate(0,0)"><path class="background" d="M0,0h575v75h-575Z" style="fill: none;"></path><g><g class="mark-area role-mark concat_1_marks"><path d="M0,0L5.0438596491228065,0L10.087719298245613,0L15.13157894736842,0L20.175438596491226,0L25.219298245614034,0L30.26315789473684,0L35.307017543859644,0L40.35087719298245,0L45.39473684210526,0L50.43859649122807,8.326672684688674e-15L55.48245614035088,0L60.52631578947368,0L65.5701754385965,8.326672684688674e-15L70.61403508771929,0L75.6578947368421,0L80.7017543859649,0L85.74561403508771,0L90.78947368421052,0L95.83333333333333,0L100.87719298245614,0L105.92105263157895,0L110.96491228070175,0L116.00877192982456,0L121.05263157894736,0L126.09649122807016,0L131.140350877193,0L136.18421052631578,0L141.22807017543857,0L146.27192982456143,0L151.3157894736842,8.326672684688674e-15L156.359649122807,0L161.4035087719298,0L166.44736842105263,0L171.49122807017542,0L176.53508771929825,0L181.57894736842104,0L186.62280701754386,8.326672684688674e-15L191.66666666666666,8.326672684688674e-15L196.71052631578948,0L201.75438596491227,0L206.7982456140351,0L211.8421052631579,0L216.8859649122807,8.326672684688674e-15L221.9298245614035,0L226.97368421052633,0L232.01754385964912,0L237.06140350877195,0L242.1052631578947,0L247.14912280701753,0L252.19298245614033,0L257.2368421052632,0L262.280701754386,0L267.32456140350877,8.326672684688674e-15L272.36842105263156,8.326672684688674e-15L277.4122807017544,0L282.45614035087715,0L287.5,0L292.54385964912285,0L297.58771929824564,0L302.6315789473684,0L307.67543859649123,0L312.719298245614,0L317.7631578947369,0L322.8070175438596,0L327.85087719298247,0L332.89473684210526,0L337.9385964912281,0L342.98245614035085,0L348.0263157894737,0L353.0701754385965,0L358.11403508771934,0L363.1578947368421,0L368.20175438596493,0L373.2456140350877,0L378.2894736842106,0L383.3333333333333,0L388.3771929824561,8.326672684688674e-15L393.42105263157896,0L398.46491228070175,0L403.50877192982455,0L408.55263157894734,0L413.5964912280702,8.326672684688674e-15L418.640350877193,8.326672684688674e-15L423.6842105263158,0L428.7280701754386,0L433.7719298245614,0L438.8157894736842,0L443.859649122807,8.326672684688674e-15L448.9035087719298,0L453.94736842105266,8.326672684688674e-15L458.99122807017545,0L464.03508771929825,0L469.07894736842104,8.326672684688674e-15L474.1228070175439,0L479.1666666666667,0L484.2105263157894,0L489.2543859649123,0L494.29824561403507,0L499.3421052631579,0L504.38596491228066,0L509.4298245614035,8.326672684688674e-15L514.4736842105264,8.326672684688674e-15L519.5175438596491,0L524.561403508772,0L529.6052631578947,0L534.6491228070175,0L539.6929824561404,0L544.7368421052631,0L549.780701754386,0L554.8245614035088,0L559.8684210526316,0L564.9122807017543,0L569.9561403508771,0L575,8.326672684688674e-15L575,1.20664286748034L569.9561403508771,1.4703866191390247L564.9122807017543,1.6041680948789994L559.8684210526316,1.7032609440295916L554.8245614035088,8.233660004629986L549.780701754386,7.0786403636445L544.7368421052631,7.932059288240165L539.6929824561404,8.660204488115786L534.6491228070175,9.183303329123785L529.6052631578947,21.675257731958762L524.561403508772,33.63952865559722L519.5175438596491,35.92499258820042L514.4736842105264,37.681578376815786L509.4298245614035,36.296723077552464L504.38596491228066,33.03317185015347L499.3421052631579,33.024751988999114L494.29824561403507,28.333845090964914L489.2543859649123,14.429787234042541L484.2105263157894,9.824473715159352L479.1666666666667,17.590944487707198L474.1228070175439,17.75457564138039L469.07894736842104,23.01584189475335L464.03508771929825,23.432544523054393L458.99122807017545,19.135245801749978L453.94736842105266,16.693746586564718L448.9035087719298,20.270867719877383L443.859649122807,40.16347594824492L438.8157894736842,46.41512367002902L433.7719298245614,44.61888424821002L428.7280701754386,42.29101779537665L423.6842105263158,49.34776258375478L418.640350877193,49.39805187698369L413.5964912280702,46.467391304347835L408.55263157894734,24.486757783701023L403.50877192982455,3.069851512088928L398.46491228070175,2.8183124149402605L393.42105263157896,3.0104048945871096L388.3771929824561,3.108087650910191L383.3333333333333,2.6111143054277837L378.2894736842106,33.63999510506626L373.2456140350877,36.79646756136568L368.20175438596493,37.857245029323416L363.1578947368421,38.375596552461L358.11403508771934,35.337535032093925L353.0701754385965,35.73087288712125L348.0263157894737,40.03261958058435L342.98245614035085,20.710930339138418L337.9385964912281,13.738570311703334L332.89473684210526,14.875538535184308L327.85087719298247,13.952795524512574L322.8070175438596,14.827579622699158L317.7631578947369,14.867841409691646L312.719298245614,14.523688417381212L307.67543859649123,14.400412759332351L302.6315789473684,7.365273153286486L297.58771929824564,5.286284356364629L292.54385964912285,6.1378035902851265L287.5,6.791989419988689L282.45614035087715,6.207569585879175L277.4122807017544,6.558577405857758L272.36842105263156,8.121310092774836L267.32456140350877,8.515582285401873L262.280701754386,9.528096474332152L257.2368421052632,9.197447539575423L252.19298245614033,8.585795210096093L247.14912280701753,7.99882431978502L242.1052631578947,7.786773710708958L237.06140350877195,6.499543454802029L232.01754385964912,6.3254543143982795L226.97368421052633,4.568411386593215L221.9298245614035,4.3111147194933945L216.8859649122807,9.249642199959126L211.8421052631579,10.693773034030546L206.7982456140351,11.081140999113229L201.75438596491227,11.226979973835174L196.71052631578948,11.497689589562398L191.66666666666666,18.443004578257177L186.62280701754386,20.061642161142757L181.57894736842104,19.30012020836117L176.53508771929825,18.759721742136207L171.49122807017542,17.79239543726237L166.44736842105263,18.152502058366117L161.4035087719298,22.780285929270132L156.359649122807,20.655019175747256L151.3157894736842,22.742814667988124L146.27192982456143,24.785398358843054L141.22807017543857,26.876285556614665L136.18421052631578,28.09959803483699L131.140350877193,29.10514359889665L126.09649122807016,25.48436161729526L121.05263157894736,24.59424482338612L116.00877192982456,22.820767950934663L110.96491228070175,19.427515326361355L105.92105263157895,14.798364656021235L100.87719298245614,15.986141747386606L95.83333333333333,12.745523602821496L90.78947368421052,22.525784271594343L85.74561403508771,23.86709591629633L80.7017543859649,24.087705288010834L75.6578947368421,24.159198226847842L70.61403508771929,24.83292206456919L65.5701754385965,22.699689528648037L60.52631578947368,21.58307210031347L55.48245614035088,13.928489086996612L50.43859649122807,9.162001975633851L45.39473684210526,9.329460816062173L40.35087719298245,6.903752777549163L35.307017543859644,6.8268442622950785L30.26315789473684,7.291568866773074L25.219298245614034,7.148884050081655L20.175438596491226,7.16383919730676L15.13157894736842,6.836125975962798L10.087719298245613,2.8457621550591257L5.0438596491228065,0.5980066445182647L0,0.6317689530685899Z" style="fill: rgb(241, 110, 67); opacity: 0.85;"></path></g></g><path class="foreground" d="" style="display: none; fill: none;"></path></g></g></g><path class="foreground" d="" style="display: none; fill: none;"></path></g></g><g class="mark-group role-legend"><g transform="translate(0,-27)"><path class="background" d="M0,0h304v14h-304Z" style="pointer-events: none; fill: none;"></path><g><g class="mark-group role-legend-entry"><g transform="translate(103,0)"><path class="background" d="M0,0h0v0h0Z" style="pointer-events: none; fill: none;"></path><g><g class="mark-group role-scope"><g transform="translate(0,0)"><path class="background" d="M0,0h38.234375v14h-38.234375Z" style="pointer-events: none; fill: none; opacity: 1;"></path><g><g class="mark-symbol role-legend-symbol" style="pointer-events: none;"><path transform="translate(7,7)" d="M5,0A5,5,0,1,1,-5,0A5,5,0,1,1,5,0" style="fill: rgb(100, 188, 97); stroke-width: 1.5; opacity: 0.85;"></path></g><g class="mark-text role-legend-label" style="pointer-events: none;"><text text-anchor="start" transform="translate(18,11)" style="font-family: sans-serif; font-size: 14px; fill: #000; opacity: 1;">0-3</text></g></g><path class="foreground" d="" style="pointer-events: none; display: none; fill: none;"></path></g><g transform="translate(49,0)"><path class="background" d="M0,0h38.234375v14h-38.234375Z" style="pointer-events: none; fill: none; opacity: 1;"></path><g><g class="mark-symbol role-legend-symbol" style="pointer-events: none;"><path transform="translate(7,7)" d="M5,0A5,5,0,1,1,-5,0A5,5,0,1,1,5,0" style="fill: rgb(215, 238, 142); stroke-width: 1.5; opacity: 0.85;"></path></g><g class="mark-text role-legend-label" style="pointer-events: none;"><text text-anchor="start" transform="translate(18,11)" style="font-family: sans-serif; font-size: 14px; fill: #000; opacity: 1;">4-7</text></g></g><path class="foreground" d="" style="pointer-events: none; display: none; fill: none;"></path></g><g transform="translate(98,0)"><path class="background" d="M0,0h46.0205078125v14h-46.0205078125Z" style="pointer-events: none; fill: none; opacity: 1;"></path><g><g class="mark-symbol role-legend-symbol" style="pointer-events: none;"><path transform="translate(7,7)" d="M5,0A5,5,0,1,1,-5,0A5,5,0,1,1,5,0" style="fill: rgb(254, 221, 141); stroke-width: 1.5; opacity: 0.85;"></path></g><g class="mark-text role-legend-label" style="pointer-events: none;"><text text-anchor="start" transform="translate(18,11)" style="font-family: sans-serif; font-size: 14px; fill: #000; opacity: 1;">8-14</text></g></g><path class="foreground" d="" style="pointer-events: none; display: none; fill: none;"></path></g><g transform="translate(155,0)"><path class="background" d="M0,0h45.6376953125v14h-45.6376953125Z" style="pointer-events: none; fill: none; opacity: 1;"></path><g><g class="mark-symbol role-legend-symbol" style="pointer-events: none;"><path transform="translate(7,7)" d="M5,0A5,5,0,1,1,-5,0A5,5,0,1,1,5,0" style="fill: rgb(241, 110, 67); stroke-width: 1.5; opacity: 0.85;"></path></g><g class="mark-text role-legend-label" style="pointer-events: none;"><text text-anchor="start" transform="translate(18,11)" style="font-family: sans-serif; font-size: 14px; fill: #000; opacity: 1;">&gt; 14</text></g></g><path class="foreground" d="" style="pointer-events: none; display: none; fill: none;"></path></g></g></g><path class="foreground" d="" style="pointer-events: none; display: none; fill: none;"></path></g></g><g class="mark-text role-legend-title" style="pointer-events: none;"><text text-anchor="start" transform="translate(0,11)" style="font-family: sans-serif; font-size: 14px; font-weight: bold; fill: #000; opacity: 1;">Renglón (días)</text></g></g><path class="foreground" d="" style="pointer-events: none; display: none; fill: none;"></path></g></g></g><path class="foreground" d="" style="display: none; fill: none;"></path></g></g></g></svg>