<svg class="marks" width="654" height="456" viewBox="0 0 654 456" version="1.1" xmlns="http://www.w3.org/2000/svg" xmlns:xlink="http://www.w3.org/1999/xlink"><rect width="654" height="456" style="fill: white;"></rect><g transform="translate(66,12)"><g class="mark-group role-frame root"><g transform="translate(0,0)"><path class="background" d="M0.5,0.5h580v400h-580Z" style="fill: none; stroke: #ddd;"></path><g><g class="mark-group role-axis"><g transform="translate(0.5,400.5)"><path class="background" d="M0,0h0v0h0Z" style="pointer-events: none; fill: none;"></path><g><g class="mark-rule role-axis-grid" style="pointer-events: none;"><line transform="translate(46,-400)" x2="0" y2="400" style="fill: none; stroke: #ddd; stroke-width: 1; opacity: 1;"></line><line transform="translate(119,-400)" x2="0" y2="400" style="fill: none; stroke: #ddd; stroke-width: 1; opacity: 1;"></line><line transform="translate(194,-400)" x2="0" y2="400" style="fill: none; stroke: #ddd; stroke-width: 1; opacity: 1;"></line><line transform="translate(267,-400)" x2="0" y2="400" style="fill: none; stroke: #ddd; stroke-width: 1; opacity: 1;"></line><line transform="translate(342,-400)" x2="0" y2="400" style="fill: none; stroke: #ddd; stroke-width: 1; opacity: 1;"></line><line transform="translate(417,-400)" x2="0" y2="400" style="fill: none; stroke: #ddd; stroke-width: 1; opacity: 1;"></line><line transform="translate(490,-400)" x2="0" y2="400" style="fill: none; stroke: #ddd; stroke-width: 1; opacity: 1;"></line><line transform="translate(565,-400)" x2="0" y2="400" style="fill: none; stroke: #ddd; stroke-width: 1; opacity: 1;"></line></g></g><path class="foreground" d="" style="pointer-events: none; display: none; fill: none;"></path></g></g><g class="mark-group role-axis"><g transform="translate(0.5,0.5)"><path class="background" d="M0,0h0v0h0Z" style="pointer-events: none; fill: none;"></path><g><g class="mark-rule role-axis-grid" style="pointer-events: none;"><line transform="translate(0,400)" x2="580" y2="0" style="fill: none; stroke: #ddd; stroke-width: 1; opacity: 1;"></line><line transform="translate(0,360)" x2="580" y2="0" style="fill: none; stroke: #ddd; stroke-width: 1; opacity: 1;"></line><line transform="translate(0,336)" x2="580" y2="0" style="fill: none; stroke: #ddd; stroke-width: 1; opacity: 1;"></line><line transform="translate(0,320)" x2="580" y2="0" style="fill: none; stroke: #ddd; stroke-width: 1; opacity: 1;"></line><line transform="translate(0,307)" x2="580" y2="0" style="fill: none; stroke: #ddd; stroke-width: 1; opacity: 1;"></line><line transform="translate(0,296)" x2="580" y2="0" style="fill: none; stroke: #ddd; stroke-width: 1; opacity: 1;"></line><line transform="translate(0,287)" x2="580" y2="0" style="fill: none; stroke: #ddd; stroke-width: 1; opacity: 1;"></line><line transform="translate(0,280)" x2="580" y2="0" style="fill: none; stroke: #ddd; stroke-width: 1; opacity: 1;"></line><line transform="translate(0,273)" x2="580" y2="0" style="fill: none; stroke: #ddd; stroke-width: 1; opacity: 1;"></line><line transform="translate(0,267)" x2="580" y2="0" style="fill: none; stroke: #ddd; stroke-width: 1; opacity: 1;"></line><line transform="translate(0,227)" x2="580" y2="0" style="fill: none; stroke: #ddd; stroke-width: 1; opacity: 1;"></line><line transform="translate(0,203)" x2="580" y2="0" style="fill: none; stroke: #ddd; stroke-width: 1; opacity: 1;"></line><line transform="translate(0,186)" x2="580" y2="0" style="fill: none; stroke: #ddd; stroke-width: 1; opacity: 1;"></line><line transform="translate(0,173)" x2="580" y2="0" style="fill: none; stroke: #ddd; stroke-width: 1; opacity: 1;"></line><line transform="translate(0,163)" x2="580" y2="0" style="fill: none; stroke: #ddd; stroke-width: 1; opacity: 1;"></line><line transform="translate(0,154)" x2="580" y2="0" style="fill: none; stroke: #ddd; stroke-width: 1; opacity: 1;"></line><line transform="translate(0,146)" x2="580" y2="0" style="fill: none; stroke: #ddd; stroke-width: 1; opacity: 1;"></line><line transform="translate(0,139)" x2="580" y2="0" style="fill: none; stroke: #ddd; stroke-width: 1; opacity: 1;"></line><line transform="translate(0,133)" x2="580" y2="0" style="fill: none; stroke: #ddd; stroke-width: 1; opacity: 1;"></line><line transform="translate(0,93)" x2="580" y2="0" style="fill: none; stroke: #ddd; stroke-width: 1; opacity: 1;"></line><line transform="translate(0,70)" x2="580" y2="0" style="fill: none; stroke: #ddd; stroke-width: 1; opacity: 1;"></line><line transform="translate(0,53)" x2="580" y2="0" style="fill: none; stroke: #ddd; stroke-width: 1; opacity: 1;"></line><line transform="translate(0,40)" x2="580" y2="0" style="fill: none; stroke: #ddd; stroke-width: 1; opacity: 1;"></line><line transform="translate(0,30)" x2="580" y2="0" style="fill: none; stroke: #ddd; stroke-width: 1; opacity: 1;"></line><line transform="translate(0,21)" x2="580" y2="0" style="fill: none; stroke: #ddd; stroke-width: 1; opacity: 1;"></line><line transform="translate(0,13)" x2="580" y2="0" style="fill: none; stroke: #ddd; stroke-width: 1; opacity: 1;"></line><line transform="translate(0,6)" x2="580" y2="0" style="fill: none; stroke: #ddd; stroke-width: 1; opacity: 1;"></line><line transform="translate(0,0)" x2="580" y2="0" style="fill: none; stroke: #ddd; stroke-width: 1; opacity: 1;"></line></g></g><path class="foreground" d="" style="pointer-events: none; display: none; fill: none;"></path></g></g><g class="mark-group role-axis"><g transform="translate(0.5,400.5)"><path class="background" d="M0,0h0v0h0Z" style="pointer-events: none; fill: none;"></path><g><g class="mark-rule role-axis-tick" style="pointer-events: none;"><line transform="translate(46,0)" x2="0" y2="5" style="fill: none; stroke: #888; stroke-width: 1; opacity: 1;"></line><line transform="translate(119,0)" x2="0" y2="5" style="fill: none; stroke: #888; stroke-width: 1; opacity: 1;"></line><line transform="translate(194,0)" x2="0" y2="5" style="fill: none; stroke: #888; stroke-width: 1; opacity: 1;"></line><line transform="translate(267,0)" x2="0" y2="5" style="fill: none; stroke: #888; stroke-width: 1; opacity: 1;"></line><line transform="translate(342,0)" x2="0" y2="5" style="fill: none; stroke: #888; stroke-width: 1; opacity: 1;"></line><line transform="translate(417,0)" x2="0" y2="5" style="fill: none; stroke: #888; stroke-width: 1; opacity: 1;"></line><line transform="translate(490,0)" x2="0" y2="5" style="fill: none; stroke: #888; stroke-width: 1; opacity: 1;"></line><line transform="translate(565,0)" x2="0" y2="5" style="fill: none; stroke: #888; stroke-width: 1; opacity: 1;"></line></g><g class="mark-text role-axis-label" style="pointer-events: none;"><text text-anchor="middle" transform="translate(46.10878661087866,18)" style="font-family: sans-serif; font-size: 14px; fill: #000; opacity: 1;">01/04</text><text text-anchor="middle" transform="translate(118.91213389121339,18)" style="font-family: sans-serif; font-size: 14px; fill: #000; opacity: 1;">01/05</text><text text-anchor="middle" transform="translate(194.14225941422592,18)" style="font-family: sans-serif; font-size: 14px; fill: #000; opacity: 1;">01/06</text><text text-anchor="middle" transform="translate(266.94560669456064,18)" style="font-family: sans-serif; font-size: 14px; fill: #000; opacity: 1;">01/07</text><text text-anchor="middle" transform="translate(342.1757322175732,18)" style="font-family: sans-serif; font-size: 14px; fill: #000; opacity: 1;">01/08</text><text text-anchor="middle" transform="translate(417.40585774058576,18)" style="font-family: sans-serif; font-size: 14px; fill: #000; opacity: 1;">01/09</text><text text-anchor="middle" transform="translate(490.2092050209205,18)" style="font-family: sans-serif; font-size: 14px; fill: #000; opacity: 1;">01/10</text><text text-anchor="middle" transform="translate(565.4393305439331,18)" style="font-family: sans-serif; font-size: 14px; fill: #000; opacity: 1;">01/11</text></g><g class="mark-rule role-axis-domain" style="pointer-events: none;"><line transform="translate(0,0)" x2="580" y2="0" style="fill: none; stroke: #888; stroke-width: 1; opacity: 1;"></line></g><g class="mark-text role-axis-title" style="pointer-events: none;"><text text-anchor="middle" transform="translate(290,36)" style="font-family: sans-serif; font-size: 14px; font-weight: bold; fill: #000; opacity: 1;">Fecha de muestra</text></g></g><path class="foreground" d="" style="pointer-events: none; display: none; fill: none;"></path></g></g><g class="mark-group role-axis"><g transform="translate(0.5,0.5)"><path class="background" d="M0,0h0v0h0Z" style="pointer-events: none; fill: none;"></path><g><g class="mark-rule role-axis-tick" style="pointer-events: none;"><line transform="translate(0,400)" x2="-5" y2="0" style="fill: none; stroke: #888; stroke-width: 1; opacity: 1;"></line><line transform="translate(0,360)" x2="-5" y2="0" style="fill: none; stroke: #888; stroke-width: 1; opacity: 1;"></line><line transform="translate(0,336)" x2="-5" y2="0" style="fill: none; stroke: #888; stroke-width: 1; opacity: 1;"></line><line transform="translate(0,320)" x2="-5" y2="0" style="fill: none; stroke: #888; stroke-width: 1; opacity: 1;"></line><line transform="translate(0,307)" x2="-5" y2="0" style="fill: none; stroke: #888; stroke-width: 1; opacity: 1;"></line><line transform="translate(0,296)" x2="-5" y2="0" style="fill: none; stroke: #888; stroke-width: 1; opacity: 1;"></line><line transform="translate(0,287)" x2="-5" y2="0" style="fill: none; stroke: #888; stroke-width: 1; opacity: 1;"></line><line transform="translate(0,280)" x2="-5" y2="0" style="fill: none; stroke: #888; stroke-width: 1; opacity: 1;"></line><line transform="translate(0,273)" x2="-5" y2="0" style="fill: none; stroke: #888; stroke-width: 1; opacity: 1;"></line><line transform="translate(0,267)" x2="-5" y2="0" style="fill: none; stroke: #888; stroke-width: 1; opacity: 1;"></line><line transform="translate(0,227)" x2="-5" y2="0" style="fill: none; stroke: #888; stroke-width: 1; opacity: 1;"></line><line transform="translate(0,203)" x2="-5" y2="0" style="fill: none; stroke: #888; stroke-width: 1; opacity: 1;"></line><line transform="translate(0,186)" x2="-5" y2="0" style="fill: none; stroke: #888; stroke-width: 1; opacity: 1;"></line><line transform="translate(0,173)" x2="-5" y2="0" style="fill: none; stroke: #888; stroke-width: 1; opacity: 1;"></line><line transform="translate(0,163)" x2="-5" y2="0" style="fill: none; stroke: #888; stroke-width: 1; opacity: 1;"></line><line transform="translate(0,154)" x2="-5" y2="0" style="fill: none; stroke: #888; stroke-width: 1; opacity: 1;"></line><line transform="translate(0,146)" x2="-5" y2="0" style="fill: none; stroke: #888; stroke-width: 1; opacity: 1;"></line><line transform="translate(0,139)" x2="-5" y2="0" style="fill: none; stroke: #888; stroke-width: 1; opacity: 1;"></line><line transform="translate(0,133)" x2="-5" y2="0" style="fill: none; stroke: #888; stroke-width: 1; opacity: 1;"></line><line transform="translate(0,93)" x2="-5" y2="0" style="fill: none; stroke: #888; stroke-width: 1; opacity: 1;"></line><line transform="translate(0,70)" x2="-5" y2="0" style="fill: none; stroke: #888; stroke-width: 1; opacity: 1;"></line><line transform="translate(0,53)" x2="-5" y2="0" style="fill: none; stroke: #888; stroke-width: 1; opacity: 1;"></line><line transform="translate(0,40)" x2="-5" y2="0" style="fill: none; stroke: #888; stroke-width: 1; opacity: 1;"></line><line transform="translate(0,30)" x2="-5" y2="0" style="fill: none; stroke: #888; stroke-width: 1; opacity: 1;"></line><line transform="translate(0,21)" x2="-5" y2="0" style="fill: none; stroke: #888; stroke-width: 1; opacity: 1;"></line><line transform="translate(0,13)" x2="-5" y2="0" style="fill: none; stroke: #888; stroke-width: 1; opacity: 1;"></line><line transform="translate(0,6)" x2="-5" y2="0" style="fill: none; stroke: #888; stroke-width: 1; opacity: 1;"></line><line transform="translate(0,0)" x2="-5" y2="0" style="fill: none; stroke: #888; stroke-width: 1; opacity: 1;"></line></g><g class="mark-text role-axis-label" style="pointer-events: none;"><text text-anchor="end" transform="translate(-7,404)" style="font-family: sans-serif; font-size: 14px; fill: #000; opacity: 1;">0.1%</text><text text-anchor="end" transform="translate(-7,363.86266724480254)" style="font-family: sans-serif; font-size: 14px; fill: #000; opacity: 1;">0.2%</text><text text-anchor="end" transform="translate(-7,340.383832704045)" style="font-family: sans-serif; font-size: 14px; fill: #000; opacity: 1;">0.3%</text><text text-anchor="end" transform="translate(-7,323.725334489605)" style="font-family: sans-serif; font-size: 14px; fill: #000; opacity: 1;"></text><text text-anchor="end" transform="translate(-7,310.80399942186415)" style="font-family: sans-serif; font-size: 14px; fill: #000; opacity: 1;"></text><text text-anchor="end" transform="translate(-7,300.24649994884754)" style="font-family: sans-serif; font-size: 14px; fill: #000; opacity: 1;"></text><text text-anchor="end" transform="translate(-7,291.3202613314324)" style="font-family: sans-serif; font-size: 14px; fill: #000; opacity: 1;"></text><text text-anchor="end" transform="translate(-7,283.58800173440756)" style="font-family: sans-serif; font-size: 14px; fill: #000; opacity: 1;"></text><text text-anchor="end" transform="translate(-7,276.76766540809)" style="font-family: sans-serif; font-size: 14px; fill: #000; opacity: 1;"></text><text text-anchor="end" transform="translate(-7,270.66666666666663)" style="font-family: sans-serif; font-size: 14px; fill: #000; opacity: 1;">1%</text><text text-anchor="end" transform="translate(-7,230.52933391146917)" style="font-family: sans-serif; font-size: 14px; fill: #000; opacity: 1;">2%</text><text text-anchor="end" transform="translate(-7,207.05049937071172)" style="font-family: sans-serif; font-size: 14px; fill: #000; opacity: 1;">3%</text><text text-anchor="end" transform="translate(-7,190.39200115627168)" style="font-family: sans-serif; font-size: 14px; fill: #000; opacity: 1;"></text><text text-anchor="end" transform="translate(-7,177.47066608853083)" style="font-family: sans-serif; font-size: 14px; fill: #000; opacity: 1;"></text><text text-anchor="end" transform="translate(-7,166.91316661551417)" style="font-family: sans-serif; font-size: 14px; fill: #000; opacity: 1;"></text><text text-anchor="end" transform="translate(-7,157.98692799809913)" style="font-family: sans-serif; font-size: 14px; fill: #000; opacity: 1;"></text><text text-anchor="end" transform="translate(-7,150.25466840107418)" style="font-family: sans-serif; font-size: 14px; fill: #000; opacity: 1;"></text><text text-anchor="end" transform="translate(-7,143.4343320747567)" style="font-family: sans-serif; font-size: 14px; fill: #000; opacity: 1;"></text><text text-anchor="end" transform="translate(-7,137.33333333333331)" style="font-family: sans-serif; font-size: 14px; fill: #000; opacity: 1;">10%</text><text text-anchor="end" transform="translate(-7,97.19600057813587)" style="font-family: sans-serif; font-size: 14px; fill: #000; opacity: 1;">20%</text><text text-anchor="end" transform="translate(-7,73.71716603737832)" style="font-family: sans-serif; font-size: 14px; fill: #000; opacity: 1;">30%</text><text text-anchor="end" transform="translate(-7,57.05866782293833)" style="font-family: sans-serif; font-size: 14px; fill: #000; opacity: 1;"></text><text text-anchor="end" transform="translate(-7,44.137332755197484)" style="font-family: sans-serif; font-size: 14px; fill: #000; opacity: 1;"></text><text text-anchor="end" transform="translate(-7,33.579833282180836)" style="font-family: sans-serif; font-size: 14px; fill: #000; opacity: 1;"></text><text text-anchor="end" transform="translate(-7,24.653594664765773)" style="font-family: sans-serif; font-size: 14px; fill: #000; opacity: 1;"></text><text text-anchor="end" transform="translate(-7,16.92133506774085)" style="font-family: sans-serif; font-size: 14px; fill: #000; opacity: 1;"></text><text text-anchor="end" transform="translate(-7,10.100998741423336)" style="font-family: sans-serif; font-size: 14px; fill: #000; opacity: 1;"></text><text text-anchor="end" transform="translate(-7,4)" style="font-family: sans-serif; font-size: 14px; fill: #000; opacity: 1;">100%</text></g><g class="mark-rule role-axis-domain" style="pointer-events: none;"><line transform="translate(0,400)" x2="0" y2="-400" style="fill: none; stroke: #888; stroke-width: 1; opacity: 1;"></line></g><g class="mark-text role-axis-title" style="pointer-events: none;"><text text-anchor="middle" transform="translate(-46.806640625,200) rotate(-90) translate(0,-3)" style="font-family: sans-serif; font-size: 14px; font-weight: bold; fill: #000; opacity: 1;">Positividad</text></g></g><path class="foreground" d="" style="pointer-events: none; display: none; fill: none;"></path></g></g><g class="mark-group role-scope pathgroup"><g transform="translate(0,0)"><path class="background" d="M0,0h580v400h-580Z" style="fill: none;"></path><g><g class="mark-line role-mark marks"><path d="M546.0251046025104,146.94540340157823L550.8786610878661,172.25154882988153L553.305439330544,173.82055193201734L555.7322175732218,174.40843445269135L558.1589958158995,190.12916430297082L560.5857740585774,180.20348398807448L563.0125523012553,180.42313922981018L565.4393305439331,186.12515307610212L567.8661087866109,183.63690778300756L570.2928870292886,184.42890024684417L572.7196652719665,188.66311306277575L575.1464435146444,184.75884946389155L577.5732217573222,181.23335888887732L580,163.91775566848187" style="fill: none; stroke: #e45756; stroke-width: 2; stroke-dasharray: 1,0;"></path></g></g><path class="foreground" d="" style="display: none; fill: none;"></path></g><g transform="translate(0,0)"><path class="background" d="M0,0h580v400h-580Z" style="fill: none;"></path><g><g class="mark-line role-mark marks"><path d="M546.0251046025104,146.94540340157823L550.8786610878661,173.21835226483685L553.305439330544,179.1709301446575L555.7322175732218,187.11886338946707L558.1589958158995,199.32241879495427L560.5857740585774,190.0156831327148L563.0125523012553,190.97452137377334" style="fill: none; stroke: #e45756; stroke-width: 2; stroke-dasharray: 4,2;"></path></g></g><path class="foreground" d="" style="display: none; fill: none;"></path></g><g transform="translate(0,0)"><path class="background" d="M0,0h580v400h-580Z" style="fill: none;"></path><g><g class="mark-line role-mark marks"><path d="M0,138.8523580210967L2.426778242677824,120.4119982655925L4.853556485355648,133.33333333333331L7.2803347280334725,140.92064684486303L9.707112970711297,144.37138270886L12.13389121338912,138.8523580210967L14.560669456066945,147.6279959530491L16.98744769874477,131.26219893935973L19.414225941422593,130.56597045458406L21.84100418410042,123.92252342857235L24.26778242677824,107.02589219482257L26.694560669456067,97.37351513151307L29.12133891213389,97.14947301977794L31.548117154811717,95.50566503661022L33.97489539748954,103.93951348101203L36.40167364016736,105.7926519822125L38.82845188284519,106.47508193406532L41.25523012552301,111.38719633770751L43.68200836820084,119.16885293721622L46.10878661087866,126.66660571465624L48.53556485355648,135.556008657406L50.96234309623431,140.65723038082135L53.38912133891213,142.8042451188566L55.81589958158996,143.99127677068586L58.24267782426778,151.07260378130357L60.66945606694561,157.96927311481284L63.09623430962343,163.3295438758513L65.52301255230125,165.99781040327528L67.94979079497908,167.22962875184106L70.3765690376569,166.83336680999798L72.80334728033472,167.49651500116283L75.23012552301256,168.78979413051957L77.65690376569037,166.80155975394416L80.0836820083682,168.22986579890394L82.51046025104603,167.10620149354307L84.93723849372384,170.82424034615337L87.36401673640168,172.53389581854907L89.7907949790795,172.98117939598524L92.21757322175732,180.1739024135254L94.64435146443515,183.4864269041173L97.07112970711296,183.20322970769354L99.4979079497908,191.16504540259055L101.92468619246861,195.41449509243364L104.35146443514644,200.0666450671524L106.77824267782427,200.94341651852946L109.2050209205021,204.03512785506538L111.63179916317992,211.39476393446674L114.05857740585775,225.55712977324518L116.48535564853556,230.6778081889453L118.91213389121339,237.10725515543297L121.33891213389121,237.1114480207419L123.76569037656904,236.41857742859597L126.19246861924687,240.90416781978314L128.6192468619247,248.15759566585842L131.0460251046025,252.27562318053646L133.47280334728032,262.878008691389L135.89958158995816,269.0204108436557L138.326359832636,273.0929930237207L140.7531380753138,275.033474330853L143.17991631799163,281.61972955318004L145.60669456066944,286.89111378749095L148.03347280334728,295.74066782715835L150.46025104602512,296.6919235674166L152.88702928870293,299.6392091784189L155.31380753138075,301.1743022809275L157.74058577405856,299.9722875989859L160.1673640167364,303.2020889874012L162.59414225941424,308.89079521225995L165.02092050209205,309.8214642404516L167.44769874476987,313.75534190137694L169.87447698744768,323.0071152587188L172.30125523012552,322.1348591362279L174.72803347280336,320.8720240578607L177.15481171548117,322.8698230502437L179.581589958159,332.5670145303833L182.0083682008368,329.33763695591267L184.43514644351464,319.2554587782317L186.86192468619248,310.2322467842475L189.2887029288703,310.03453781755917L191.7154811715481,312.2049135953181L194.14225941422592,309.24758037077964L196.56903765690376,303.98799709075774L198.9958158995816,307.1681645015735L201.4225941422594,317.3039355539147L203.84937238493723,327.85012530037164L206.27615062761507,324.3560540240587L208.70292887029288,322.4383605492379L211.12970711297072,328.7019169309231L213.55648535564853,332.2144116456019L215.98326359832635,331.85817504681035L218.4100418410042,328.8221816251315L220.836820083682,320.5888649072133L223.26359832635984,319.71038909504006L225.69037656903765,318.0081851068354L228.1171548117155,315.0363162158969L230.5439330543933,309.9483805766253L232.97071129707112,308.2338481407673L235.39748953974896,300.12624162452914L237.82426778242677,303.73147831928287L240.2510460251046,307.05163742260646L242.67782426778243,308.87872664946053L245.10460251046024,304.093066542261L247.53138075313808,295.032882369327L249.95815899581592,290.13374246417726L252.38493723849373,280.67738098496073L254.81171548117155,268.4919112621861L257.2384937238494,264.8401389687428L259.6652719665272,264.19029989040774L262.092050209205,255.93910768999672L264.5188284518829,248.3170010988104L266.94560669456064,242.38260601384692L269.3723849372385,236.91593528428473L271.7991631799163,230.47526543402742L274.22594142259413,228.22479022689683L276.652719665272,226.99833390743515L279.07949790794976,217.63786319117813L281.5062761506276,208.77709199839666L283.93305439330544,202.47648631778193L286.35983263598325,196.9556182069096L288.7866108786611,194.21908552839562L291.2133891213389,192.30394560537744L293.64016736401675,189.99049140704702L296.06694560669456,184.1557090661519L298.4937238493724,184.60918899409205L300.92050209205024,180.96369880132488L303.347280334728,179.38042683181652L305.77405857740587,176.38682403810537L308.2008368200837,176.07945623630496L310.6276150627615,176.79375137098597L313.05439330543936,175.01875335662933L315.4811715481171,170.8914065940631L317.907949790795,168.01876142609225L320.3347280334728,163.95827794319197L322.7615062761506,158.08659896090543L325.1882845188285,156.58266235964135L327.61506276150624,156.1027448395026L330.0418410041841,151.39586656904046L332.4686192468619,145.60347027351503L334.89539748953973,139.31589173831847L337.3221757322176,133.1202505514716L339.74895397489536,125.87800363246538L342.1757322175732,125.87156214793542L344.60251046025104,125.88139743487865L347.02928870292885,121.65758902329982L349.4560669456067,117.16072701618012L351.8828451882845,117.68400551850849L354.30962343096235,120.27685228534094L356.73640167364016,122.0861922285585L359.163179916318,122.40568426704073L361.58995815899584,122.26847088432771L364.0167364016736,123.57844899695185L366.44351464435147,125.93643851856156L368.8702928870293,125.89192657849195L371.2970711297071,126.07278287657473L373.72384937238496,126.14311641419577L376.1506276150627,125.80008575574722L378.5774058577406,126.01995702618511L381.0041841004184,124.01992619488654L383.4309623430962,123.16735795965256L385.8577405857741,123.01326214711725L388.28451882845184,123.41362877015469L390.7112970711297,124.97688721824201L393.1380753138075,125.35700573907755L395.56485355648533,125.09065165682709L397.9916317991632,128.25046917762694L400.418410041841,129.14507261615276L402.8451882845188,129.52135376825052L405.27196652719664,128.0361379712245L407.69874476987445,126.07348724784129L410.1255230125523,125.3492676452146L412.55230125523013,125.77725012448893L414.97907949790795,124.26722326217777L417.40585774058576,124.99822774660893L419.8326359832636,125.44967412244641L422.25941422594144,126.3377261821176L424.68619246861925,127.26623240111472L427.11297071129707,127.88293344448793L429.5397489539749,127.68824662535327L431.9665271966527,128.3416134403419L434.39330543933056,127.42089200671494L436.8200836820084,125.63804315827105L439.2468619246862,119.60184762063778L441.673640167364,116.13955658046322L444.10041841004187,116.68243596116388L446.5271966527197,116.85981233015994L448.9539748953975,118.22559561553696L451.3807531380753,118.11973784980378L453.8075313807531,115.11258085183056L456.234309623431,117.29850234849985L458.6610878661088,121.16787626377064L461.0878661087866,121.3042701320485L463.5146443514644,121.34097662056926L465.94142259414224,124.2405585550272L468.3682008368201,126.6837790781068L470.7949790794979,133.86798608424385L473.22175732217573,137.3299426556248L475.64853556485355,138.91990171325094L478.07531380753136,139.0062803989123L480.5020920502092,138.84317986081368L482.92887029288704,137.7593919731432L485.35564853556485,134.55943187544776L487.7824267782427,132.9055262470464L490.2092050209205,132.18450613028153L492.63598326359835,130.31490760409986L495.06276150627616,130.24687234173493L497.489539748954,130.21905270608642L499.91631799163184,129.01236623624519L502.3430962343096,130.74829208576494L504.76987447698747,130.26836790866204L507.1966527196653,129.29469962294226L509.6234309623431,129.46115537642484L512.0502092050209,129.01722869450558L514.4769874476988,129.0341996044277L516.9037656903766,128.03629159574922L519.3305439330544,127.21740845935656L521.7573221757322,125.72103082335175L524.18410041841,126.98227308755534L526.6108786610879,126.46888649325732L529.0376569037658,125.59419409617676L531.4644351464435,125.63108458482697L533.8912133891213,126.65669088999093L536.3179916317991,125.87983171185999L538.744769874477,126.65636490161086L541.1715481171549,125.15702995012536L543.5983263598326,125.47060044865104L546.0251046025104,125.05234336107902L548.4518828451883,124.70864231069339L550.8786610878661,122.57982308228539L553.305439330544,121.68349822753738L555.7322175732218,118.14712298727379L558.1589958158995,116.90034634174897L560.5857740585774,113.9193447952469L563.0125523012553,114.14807642635228L565.4393305439331,114.08756970266802L567.8661087866109,114.13931726522529L570.2928870292886,111.84337849073138L572.7196652719665,111.44752529160806L575.1464435146444,107.75903696288083L577.5732217573222,105.17358568875368L580,103.79048292382618" style="fill: none; stroke: #4c78a8; stroke-width: 2; stroke-dasharray: 1,0;"></path></g></g><path class="foreground" d="" style="display: none; fill: none;"></path></g><g transform="translate(0,0)"><path class="background" d="M0,0h580v400h-580Z" style="fill: none;"></path><g><g class="mark-line role-mark marks"><path d="M0,138.8523580210967L2.426778242677824,120.4119982655925L4.853556485355648,133.33333333333331L7.2803347280334725,140.92064684486303L9.707112970711297,144.37138270886L12.13389121338912,142.2595719507484L14.560669456066945,150.3715439308168L16.98744769874477,132.68633296074506L19.414225941422593,131.73214567026466L21.84100418410042,124.87861445374402L24.26778242677824,108.17594848483978L26.694560669456067,98.46773977583871L29.12133891213389,97.71745468829556L31.548117154811717,95.91276849436494L33.97489539748954,104.31406523157678L36.40167364016736,106.31839810802349L38.82845188284519,106.99266976936998L41.25523012552301,112.11407844257444L43.68200836820084,119.87792062220714L46.10878661087866,127.57511911633061L48.53556485355648,136.7760508593708L50.96234309623431,142.1240104147368L53.38912133891213,144.1821680837302L55.81589958158996,145.39364419036426L58.24267782426778,152.63376664606443L60.66945606694561,159.48111634367584L63.09623430962343,165.04194515026444L65.52301255230125,167.5821664146485L67.94979079497908,168.67608510364215L70.3765690376569,168.5316982668691L72.80334728033472,169.20355617992834L75.23012552301256,169.76827083895571L77.65690376569037,167.9578276013952L80.0836820083682,169.13130030713313L82.51046025104603,167.74838636169153L84.93723849372384,171.39305453681976L87.36401673640168,172.90659462611572L89.7907949790795,173.35277138017057L92.21757322175732,180.78093511425496L94.64435146443515,183.90832517777739L97.07112970711296,183.4082683632993L99.4979079497908,191.38860109511504L101.92468619246861,195.65097715217732L104.35146443514644,200.318694326006L106.77824267782427,201.2013865510859L109.2050209205021,204.03512785506538L111.63179916317992,211.39476393446674L114.05857740585775,225.55712977324518L116.48535564853556,230.6778081889453L118.91213389121339,237.10725515543297L121.33891213389121,237.1114480207419L123.76569037656904,236.41857742859597L126.19246861924687,240.90416781978314L128.6192468619247,248.15759566585842L131.0460251046025,252.27562318053646L133.47280334728032,262.878008691389L135.89958158995816,269.0204108436557L138.326359832636,273.0929930237207L140.7531380753138,275.033474330853L143.17991631799163,281.61972955318004L145.60669456066944,286.89111378749095L148.03347280334728,296.11827476715405L150.46025104602512,297.0721152852843L152.88702928870293,300.0467048698487L155.31380753138075,301.59081347526643L157.74058577405856,300.3827313991422L160.1673640167364,303.64450088989173L162.59414225941424,309.37888084294445L165.02092050209205,309.8214642404516L167.44769874476987,313.75534190137694L169.87447698744768,323.0071152587188L172.30125523012552,322.1348591362279L174.72803347280336,320.8720240578607L177.15481171548117,322.8698230502437L179.581589958159,332.5670145303833L182.0083682008368,329.33763695591267L184.43514644351464,319.2554587782317L186.86192468619248,310.2322467842475L189.2887029288703,310.03453781755917L191.7154811715481,312.2049135953181L194.14225941422592,309.24758037077964L196.56903765690376,304.3682160884322L198.9958158995816,307.5561739016005L201.4225941422594,317.7492299865697L203.84937238493723,328.37235089499774L206.27615062761507,324.8470613517884L208.70292887029288,322.9131435802698L211.12970711297072,329.2148842627061L213.55648535564853,332.2144116456019L215.98326359832635,331.85817504681035L218.4100418410042,328.8221816251315L220.836820083682,320.5888649072133L223.26359832635984,319.71038909504006L225.69037656903765,318.0081851068354L228.1171548117155,315.0363162158969L230.5439330543933,309.9483805766253L232.97071129707112,308.2338481407673L235.39748953974896,300.12624162452914L237.82426778242677,303.73147831928287L240.2510460251046,307.05163742260646L242.67782426778243,308.87872664946053L245.10460251046024,304.093066542261L247.53138075313808,295.032882369327L249.95815899581592,290.13374246417726L252.38493723849373,280.67738098496073L254.81171548117155,268.4919112621861L257.2384937238494,264.8401389687428L259.6652719665272,264.19029989040774L262.092050209205,255.93910768999672L264.5188284518829,248.3170010988104L266.94560669456064,242.38260601384692L269.3723849372385,236.91593528428473L271.7991631799163,230.47526543402742L274.22594142259413,228.22479022689683L276.652719665272,226.99833390743515L279.07949790794976,217.71069829771898L281.5062761506276,208.83568079710085L283.93305439330544,202.57689776302277L286.35983263598325,197.0428713896926L288.7866108786611,194.36686391145034L291.2133891213389,192.43791215037854L293.64016736401675,190.11787305100873L296.06694560669456,184.2654531954123L298.4937238493724,184.71120986357352L300.92050209205024,181.031294693553L303.347280334728,179.43774004843598L305.77405857740587,176.39905098323504L308.2008368200837,176.09192536148467L310.6276150627615,176.8064971454323L313.05439330543936,175.00651186430622L315.4811715481171,170.8793555510606L317.907949790795,168.04920073847435L320.3347280334728,164.0090183032114L322.7615062761506,158.12624815953632L325.1882845188285,156.62130398465152L327.61506276150624,156.14106513656748L330.0418410041841,151.41521906550918L332.4686192468619,145.6162490328735L334.89539748953973,139.25479651008334L337.3221757322176,133.03901283921235L339.74895397489536,125.78320536149126L342.1757322175732,125.75561163386149L344.60251046025104,125.7893858727428L347.02928870292885,121.59623406161582L349.4560669456067,117.10280039235079L351.8828451882845,117.6617144778652L354.30962343096235,120.25839882562046L356.73640167364016,122.08429320647357L359.163179916318,122.41738555926646L361.58995815899584,122.26659505443331L364.0167364016736,123.57663742689996L366.44351464435147,125.9346333864349L368.8702928870293,125.89192657849195L371.2970711297071,126.08728029937546L373.72384937238496,126.15771501992374L376.1506276150627,125.81453363367542L378.5774058577406,126.03448557701964L381.0041841004184,124.03426764582912L383.4309623430962,123.18187479728815L385.8577405857741,123.02573331287725L388.28451882845184,123.41171436628903L390.7112970711297,124.97306340400213L393.1380753138075,125.35295453181945L395.56485355648533,125.08661864868228L397.9916317991632,128.2464320924703L400.418410041841,129.1410693024576L402.8451882845188,129.53262645003275L405.27196652719664,128.06897204778406L407.69874476987445,126.10221756058526L410.1255230125523,125.37499963821541L412.55230125523013,125.80393696343388L414.97907949790795,124.29103486927188L417.40585774058576,125.02330462283426L419.8326359832636,125.46207548151926L422.25941422594144,126.34950308264897L424.68619246861925,127.26623240111472L427.11297071129707,127.89820068297418L429.5397489539749,127.68609434856214L431.9665271966527,128.31823127530774L434.39330543933056,127.35810773197436L436.8200836820084,125.55128516111095L439.2468619246862,119.45833497223121L441.673640167364,116.01699615321186L444.10041841004187,116.55192833807568L446.5271966527197,116.74419393050405L448.9539748953975,118.13202037383049L451.3807531380753,118.04607373700753L453.8075313807531,115.0683091947771L456.234309623431,117.29353454368483L458.6610878661088,121.16483387850808L461.0878661087866,121.29960046238119L463.5146443514644,121.3363218437038L465.94142259414224,124.2806348907711L468.3682008368201,126.73567644218507L470.7949790794979,133.92188171353845L473.22175732217573,137.37081677863102L475.64853556485355,138.98207934612392L478.07531380753136,139.06876733894L480.5020920502092,138.90563695617163L482.92887029288704,137.76840601128808L485.35564853556485,134.55370890874093L487.7824267782427,132.91505722707964L490.2092050209205,132.1958071833696L492.63598326359835,130.30899793109168L495.06276150627616,130.24292672092935L497.489539748954,130.21512674717636L499.91631799163184,129.00858820199574L502.3430962343096,130.758367821264L504.76987447698747,130.2649184578407L507.1966527196653,129.29139165773597L509.6234309623431,129.46962007747004L512.0502092050209,129.02549689876395L514.4769874476988,129.0554909895815L516.9037656903766,128.0654548810388L519.3305439330544,127.30542088601328L521.7573221757322,125.79369604361968L524.18410041841,127.07568858176681L526.6108786610879,126.5170245052309L529.0376569037658,125.67108412470627L531.4644351464435,125.69456527290784L533.8912133891213,126.86769557073814L536.3179916317991,126.42203777261818L538.744769874477,127.4885226026683L541.1715481171549,126.02504642341734L543.5983263598326,126.23393173956998L546.0251046025104,125.89858432401297L548.4518828451883,125.60976549289849L550.8786610878661,123.81716506037645L553.305439330544,123.57084110297384L555.7322175732218,120.38962492604423L558.1589958158995,118.96799794831918L560.5857740585774,115.0105413493418L563.0125523012553,115.3520808098774" style="fill: none; stroke: #4c78a8; stroke-width: 2; stroke-dasharray: 4,2;"></path></g></g><path class="foreground" d="" style="display: none; fill: none;"></path></g><g transform="translate(0,0)"><path class="background" d="M0,0h580v400h-580Z" style="fill: none;"></path><g><g class="mark-line role-mark marks"><path d="M0,16.658498214439987L2.426778242677824,23.478834540757497L7.2803347280334725,64.88887635011902L9.707112970711297,93.19600057813587L12.13389121338912,104.81602400732255L14.560669456066945,119.50007499488513L16.98744769874477,118.65471792408258L19.414225941422593,119.08076881137899L21.84100418410042,115.92279947186763L24.26778242677824,105.69466274060915L26.694560669456067,97.81724091137005L29.12133891213389,97.14947301977794L31.548117154811717,97.8068657621443L33.97489539748954,104.38839891433962L36.40167364016736,107.90624175170444L38.82845188284519,109.18828849041628L41.25523012552301,115.04562945063283L43.68200836820084,124.22199302099553L46.10878661087866,132.60697763763022L48.53556485355648,141.31247470674987L50.96234309623431,147.85692371807144L53.38912133891213,149.73604621668625L55.81589958158996,151.55145323684485L58.24267782426778,159.6404612966818L60.66945606694561,167.16174636637132L63.09623430962343,176.45021108851898L65.52301255230125,181.5637114690124L67.94979079497908,185.7644774011757L70.3765690376569,186.1655847156233L72.80334728033472,186.22330203936917L75.23012552301256,195.6991400990988L77.65690376569037,201.17808905291588L80.0836820083682,201.88926809332077L82.51046025104603,207.46928865133327L84.93723849372384,210.3676609111842L87.36401673640168,214.25779168037425L89.7907949790795,215.71026005387267L92.21757322175732,221.37375912489298L94.64435146443515,224.06411106599285L97.07112970711296,226.63780587123185L99.4979079497908,234.15078503985814L101.92468619246861,237.7936277155845L104.35146443514644,243.13317810493783L106.77824267782427,242.1531119744488L109.2050209205021,248.2424677190572L111.63179916317992,257.57516052788526L114.05857740585775,269.1292441476989L116.48535564853556,269.8836581627206L118.91213389121339,282.03292869604974L121.33891213389121,280.90721388886465L123.76569037656904,281.09394397048277L126.19246861924687,291.99973473329396L128.6192468619247,291.65716686812016L131.0460251046025,298.10338458955744L133.47280334728032,308.9516005863689L135.89958158995816,308.0222968091826L138.326359832636,310.89037384339844L143.17991631799163,313.6694689779961L145.60669456066944,313.4997409653585L148.03347280334728,323.40903173945094L150.46025104602512,330.92399701703437L152.88702928870293,335.7632804138346L155.31380753138075,345.1951186441401L157.74058577405856,343.5168342838351L160.1673640167364,350.944555205314L162.59414225941424,359.7822521826082L165.02092050209205,355.1790801906022L167.44769874476987,356.1637865630785L169.87447698744768,359.40728486721713L172.30125523012552,357.341049724336L174.72803347280336,357.3509237001329L177.15481171548117,355.09862230997686L179.581589958159,358.9731258562142L182.0083682008368,368.7277860420437L184.43514644351464,355.9518230525911L186.86192468619248,337.84897915700077L189.2887029288703,340.4242574613658L191.7154811715481,341.452906823673L194.14225941422592,332.93813701548805L196.56903765690376,327.08711924847177L198.9958158995816,328.54803699585375L201.4225941422594,335.46656848964653L203.84937238493723,349.7847101678205L206.27615062761507,347.59004282614995L208.70292887029288,346.8743397069452L211.12970711297072,359.83985132312995L213.55648535564853,365.29360104242625L215.98326359832635,359.2930990098639L218.4100418410042,357.5312326194514L220.836820083682,350.01198380166954L223.26359832635984,344.36861126618476L225.69037656903765,341.0363875607422L228.1171548117155,335.68991088066264L230.5439330543933,328.17778953081284L232.97071129707112,327.717586231199L235.39748953974896,322.54255220911654L237.82426778242677,324.65253734372845L240.2510460251046,329.36061538903L245.10460251046024,327.74280109374433L247.53138075313808,315.6017909972369L249.95815899581592,311.85000394740536L252.38493723849373,299.9321808445381L254.81171548117155,291.0469870034557L257.2384937238494,283.25307427347565L259.6652719665272,279.54902388032866L262.092050209205,266.4256004944955L264.5188284518829,258.5080061147402L266.94560669456064,253.176939890304L269.3723849372385,245.8801076933744L271.7991631799163,236.71653762557395L274.22594142259413,233.98928340823377L276.652719665272,232.8340736833069L279.07949790794976,227.35194975666255L281.5062761506276,218.6643210419509L283.93305439330544,211.37645778531572L286.35983263598325,206.7292382359179L288.7866108786611,205.0007721844116L291.2133891213389,203.4317433721758L293.64016736401675,202.496132436011L296.06694560669456,195.066984168714L298.4937238493724,194.96063661798271L300.92050209205024,192.2577595151986L303.347280334728,190.4388418105609L305.77405857740587,187.4733622553817L308.2008368200837,186.77561825827763L310.6276150627615,186.43646131272246L313.05439330543936,186.2795006849205L315.4811715481171,183.29643240111193L317.907949790795,180.9468806225879L320.3347280334728,178.49932156107556L322.7615062761506,174.1757988577226L325.1882845188285,173.39111889166884L327.61506276150624,173.16809867948163L330.0418410041841,168.82663283908056L332.4686192468619,164.2322266720867L334.89539748953973,159.40878462443823L337.3221757322176,153.7353425087286L339.74895397489536,147.0974717833987L342.1757322175732,147.0512966299679L344.60251046025104,147.5563282925635L347.02928870292885,146.34233826024374L349.4560669456067,143.53626352057748L351.8828451882845,145.38584501498164L354.30962343096235,148.20073512948412L356.73640167364016,150.3722435632867L359.163179916318,150.2232913180771L361.58995815899584,149.92309304726908L364.0167364016736,152.01649512212154L366.44351464435147,153.56376279383582L368.8702928870293,152.03470638613456L371.2970711297071,151.37845444098397L373.72384937238496,151.61457369340434L376.1506276150627,151.24370768001666L378.5774058577406,151.49919535254662L381.0041841004184,150.14150461778178L383.4309623430962,150.8931350420768L385.8577405857741,150.98793568926934L388.28451882845184,153.69667209752916L390.7112970711297,158.5648214166647L393.1380753138075,160.1858781375893L395.56485355648533,160.02941571522848L397.9916317991632,163.29388824346051L400.418410041841,165.32455944075255L402.8451882845188,170.99220390861677L405.27196652719664,171.70463603608997L407.69874476987445,171.32837886539818L410.1255230125523,171.74883865467817L412.55230125523013,172.1762084395592L414.97907949790795,174.27194413683554L417.40585774058576,175.91108701320377L419.8326359832636,174.7053051435L422.25941422594144,172.36488060769256L424.68619246861925,169.46145140555672L427.11297071129707,168.17698058741004L429.5397489539749,167.82557938055075L431.9665271966527,163.6356908350249L434.39330543933056,159.707102452771L436.8200836820084,155.232023992665L439.2468619246862,146.1536679316527L441.673640167364,141.5528512491165L444.10041841004187,141.92252046736473L446.5271966527197,142.20487717461629L448.9539748953975,143.22132969542633L451.3807531380753,143.28830174376367L453.8075313807531,138.39558858802997L456.234309623431,141.65957727920153L458.6610878661088,145.88546201033284L461.0878661087866,146.21312564901822L463.5146443514644,146.26570109278168L465.94142259414224,149.4611662083544L468.3682008368201,150.9465266075081L470.7949790794979,159.92438552999994L473.22175732217573,163.7272294521421L475.64853556485355,165.53624684563698L478.07531380753136,166.06506184541746L480.5020920502092,166.1399953295962L482.92887029288704,166.0153742326853L485.35564853556485,165.39321504789294L487.7824267782427,164.72320172443372L490.2092050209205,164.7137692398704L492.63598326359835,163.7670987033184L495.06276150627616,163.4144340272421L497.489539748954,163.34003393104908L499.91631799163184,163.46039304350316L502.3430962343096,163.5137992897598L504.76987447698747,162.64073508973217L507.1966527196653,161.30010190752847L509.6234309623431,161.11331044370257L512.0502092050209,160.0832314736912L514.4769874476988,160.12889987202544L516.9037656903766,159.08361524448068L519.3305439330544,158.23268730928618L521.7573221757322,156.07951705062314L524.18410041841,157.1986082242515L526.6108786610879,155.14467091817986L529.0376569037658,153.87940426778323L531.4644351464435,153.74861907673272L533.8912133891213,153.53949396704522L536.3179916317991,152.496649601682L538.744769874477,152.2115503519006L541.1715481171549,148.9405187196955L543.5983263598326,149.2200572228373L546.0251046025104,149.05279297954274L548.4518828451883,148.93828223298902L550.8786610878661,147.37498368056507L553.305439330544,146.38929450808132L555.7322175732218,143.27574006225365L558.1589958158995,143.24319393324708L560.5857740585774,141.0721430045602L563.0125523012553,141.3925361104107L565.4393305439331,141.00979638797097L567.8661087866109,142.13688984782382L570.2928870292886,140.24558637052377L572.7196652719665,144.22646471099912L575.1464435146444,147.80247326338656" style="fill: none; stroke: #f58518; stroke-width: 2; stroke-dasharray: 1,0;"></path></g></g><path class="foreground" d="" style="display: none; fill: none;"></path></g><g transform="translate(0,0)"><path class="background" d="M0,0h580v400h-580Z" style="fill: none;"></path><g><g class="mark-line role-mark marks"><path d="M0,16.658498214439987L2.426778242677824,23.478834540757497L7.2803347280334725,64.88887635011902L9.707112970711297,93.19600057813587L12.13389121338912,104.4640111851614L14.560669456066945,119.2698324214843L16.98744769874477,118.49228883884012L19.414225941422593,118.94594702539737L21.84100418410042,115.79650513408208L24.26778242677824,106.1439529439415L26.694560669456067,98.46773977583871L29.12133891213389,97.71745468829556L31.548117154811717,98.23447536338917L33.97489539748954,104.7664576178887L36.40167364016736,108.2381075347758L38.82845188284519,109.5198750897262L41.25523012552301,115.28297470360758L43.68200836820084,124.2951763974216L46.10878661087866,132.65379239741586L48.53556485355648,141.34787186255565L50.96234309623431,147.8804764640807L53.38912133891213,149.7774349562017L55.81589958158996,151.59795416511574L58.24267782426778,159.51819366062958L60.66945606694561,167.05750523845379L63.09623430962343,176.34342827405928L65.52301255230125,181.46951717264952L67.94979079497908,185.6802913951861L70.3765690376569,186.06624845392784L72.80334728033472,186.12466677608887L75.23012552301256,195.64355484796664L77.65690376569037,201.11008442863425L80.0836820083682,201.83749702959472L82.51046025104603,207.4315526246342L84.93723849372384,210.3364082716271L87.36401673640168,214.23790640170344L89.7907949790795,215.69059425951815L92.21757322175732,221.34561985281397L94.64435146443515,224.04565793297485L97.07112970711296,226.62877429811513L99.4979079497908,234.14225252220908L101.92468619246861,237.78526403666183L104.35146443514644,243.12497555078843L106.77824267782427,242.14484737286188L109.2050209205021,248.2424677190572L111.63179916317992,257.57516052788526L114.05857740585775,269.1292441476989L116.48535564853556,269.8836581627206L118.91213389121339,282.03292869604974L121.33891213389121,280.90721388886465L123.76569037656904,281.09394397048277L126.19246861924687,291.99973473329396L128.6192468619247,291.65716686812016L131.0460251046025,298.10338458955744L133.47280334728032,308.9516005863689L135.89958158995816,308.0222968091826L138.326359832636,310.89037384339844L143.17991631799163,313.6694689779961L145.60669456066944,313.4997409653585L148.03347280334728,323.4049690206588L150.46025104602512,330.9200609173203L152.88702928870293,335.7594211762097L155.31380753138075,345.19073033517515L157.74058577405856,343.51218002743906L160.1673640167364,350.9398148401261L162.59414225941424,359.7775184052975L165.02092050209205,355.1790801906022L167.44769874476987,356.1637865630785L169.87447698744768,359.40728486721713L172.30125523012552,357.341049724336L174.72803347280336,357.3509237001329L177.15481171548117,355.09862230997686L179.581589958159,358.9731258562142L182.0083682008368,368.7277860420437L184.43514644351464,355.9518230525911L186.86192468619248,337.84897915700077L189.2887029288703,340.4242574613658L191.7154811715481,341.452906823673L194.14225941422592,332.93813701548805L196.56903765690376,327.08511949259906L198.9958158995816,328.5461059935718L201.4225941422594,335.4647106546231L203.84937238493723,349.7828966119889L206.27615062761507,347.5882307458844L208.70292887029288,346.8725280235373L211.12970711297072,359.8380958798145L213.55648535564853,365.29360104242625L215.98326359832635,359.2930990098639L218.4100418410042,357.5312326194514L220.836820083682,350.01198380166954L223.26359832635984,344.36861126618476L225.69037656903765,341.0363875607422L228.1171548117155,335.68991088066264L230.5439330543933,328.17778953081284L232.97071129707112,327.717586231199L235.39748953974896,323.07137717146344L237.82426778242677,325.1912010506271L240.2510460251046,329.94258944268995L245.10460251046024,328.22737238109016L247.53138075313808,315.9970548590687L249.95815899581592,312.2200111547083L252.38493723849373,300.23456237198104L254.81171548117155,291.0469870034557L257.2384937238494,283.25307427347565L259.6652719665272,279.54902388032866L262.092050209205,266.4256004944955L264.5188284518829,258.5080061147402L266.94560669456064,253.176939890304L269.3723849372385,245.8801076933744L271.7991631799163,236.71653762557395L274.22594142259413,233.98928340823377L276.652719665272,232.8340736833069L279.07949790794976,227.35021185750668L281.5062761506276,218.66268525808604L283.93305439330544,211.3716813162177L286.35983263598325,206.72465011329388L288.7866108786611,204.9940316474372L291.2133891213389,203.425416860253L293.64016736401675,202.4898592464396L296.06694560669456,195.0609742745798L298.4937238493724,194.953913923261L300.92050209205024,192.25355635182942L303.347280334728,190.4274782874594L305.77405857740587,187.46228232520355L308.2008368200837,186.76420372425278L310.6276150627615,186.42506452650207L313.05439330543936,186.26725919259738L315.4811715481171,183.28438135810944L317.907949790795,180.9230246371145L320.3347280334728,178.46913118685833L322.7615062761506,174.1361791446995L325.1882845188285,173.35041919677076L327.61506276150624,173.12704140288236L330.0418410041841,168.76657147498295L332.4686192468619,164.1671225267381L334.89539748953973,159.32156445512362L337.3221757322176,153.6541047964693L339.74895397489536,147.00267351242456L342.1757322175732,146.96229791108405L344.60251046025104,147.46431673042767L347.02928870292885,146.28098329855973L349.4560669456067,143.47833689674823L351.8828451882845,145.36355397433834L354.30962343096235,148.15578616213125L356.73640167364016,150.3448633830698L359.163179916318,150.19463284097938L361.58995815899584,149.89624161598667L364.0167364016736,151.98967559187935L366.44351464435147,153.53636387967023L368.8702928870293,152.00946954506378L371.2970711297071,151.37660118432538L373.72384937238496,151.61271005853231L376.1506276150627,151.24185091728512L378.5774058577406,151.49733620526123L381.0041841004184,150.1395963335482L383.4309623430962,150.89117089741234L385.8577405857741,150.98401915690937L388.28451882845184,153.6947576936635L390.7112970711297,158.56099760242478L393.1380753138075,160.18182693033114L395.56485355648533,160.02538270708357L397.9916317991632,163.2898511583039L400.418410041841,165.32055612705742L402.8451882845188,171.0240798176709L405.27196652719664,171.74266814001933L407.69874476987445,171.3688913118011L410.1255230125523,171.7882034381828L412.55230125523013,172.21666384311075L414.97907949790795,174.27092148278024L417.40585774058576,175.91273877043113L419.8326359832636,174.66666203122156L422.25941422594144,172.32062854311673L424.68619246861925,169.42193865689256L427.11297071129707,168.1334633294653L429.5397489539749,167.78439378180946L431.9665271966527,163.6356908350249L434.39330543933056,159.64431817803043L436.8200836820084,155.08157477267278L439.2468619246862,145.97261497015137L441.673640167364,141.3546574711171L444.10041841004187,141.734244534307L446.5271966527197,142.01531117106833L448.9539748953975,143.0498511008309L451.3807531380753,143.15182274600912L453.8075313807531,138.31869192795003L456.234309623431,141.6078705490629L458.6610878661088,145.8548716079378L461.0878661087866,146.13852842617464L463.5146443514644,146.1910238470353L465.94142259414224,149.45139653775027L468.3682008368201,150.94577160455748L470.7949790794979,160.0177273722716L473.22175732217573,163.8606999802715L475.64853556485355,165.74114408013423L478.07531380753136,166.3373387704114L480.5020920502092,166.41351617918164L482.92887029288704,166.3355554760124L485.35564853556485,165.92088381735627L487.7824267782427,165.3489464748842L490.2092050209205,165.54887744765585L492.63598326359835,165.17771225590388L495.06276150627616,165.09294059961738L497.489539748954,165.00787335621396L499.91631799163184,165.16602030622124L502.3430962343096,165.30271289973788L504.76987447698747,164.35034609975298L507.1966527196653,163.17675638675678L509.6234309623431,162.5553565861698L512.0502092050209,161.33256895949498L514.4769874476988,161.38047797919222L516.9037656903766,160.25645781048894L519.3305439330544,159.26716793117563L521.7573221757322,156.77713857548613L524.18410041841,157.4942004351268L526.6108786610879,155.11808555385505L529.0376569037658,153.7470414015347L531.4644351464435,153.61813040298136L533.8912133891213,153.4473264425393L536.3179916317991,152.45535765321043L538.744769874477,153.06654725984097L541.1715481171549,150.5862663271321L543.5983263598326,151.8464431596884L546.0251046025104,153.4328675999066L548.4518828451883,153.4111030794062L550.8786610878661,156.75946472788738L553.305439330544,160.73366886848194L555.7322175732218,164.42839308256637L558.1589958158995,174.26857241062987" style="fill: none; stroke: #f58518; stroke-width: 2; stroke-dasharray: 4,2;"></path></g></g><path class="foreground" d="" style="display: none; fill: none;"></path></g></g><g class="mark-group role-legend"><g transform="translate(50,4)"><path class="background" d="M0,0h234v89h-234Z" style="pointer-events: none; fill: white;"></path><g><g class="mark-group role-legend-entry"><g transform="translate(7.5,26.5)"><path class="background" d="M0,0h0v0h0Z" style="pointer-events: none; fill: none;"></path><g><g class="mark-group role-scope"><g transform="translate(0,0)"><path class="background" d="M0,0h218.9794921875v16.5h-218.9794921875Z" style="pointer-events: none; fill: none; opacity: 1;"></path><g><g class="mark-symbol role-legend-symbol" style="pointer-events: none;"><path transform="translate(9.5,9.5)" d="M-7.905694150420948,0L7.905694150420948,0" style="fill: none; stroke: #4c78a8; stroke-width: 3; opacity: 1;"></path></g><g class="mark-text role-legend-label" style="pointer-events: none;"><text text-anchor="start" transform="translate(23,13.5)" style="font-family: sans-serif; font-size: 14px; fill: #000; opacity: 1;">Positivas  pruebas (Molecular)</text></g></g><path class="foreground" d="" style="pointer-events: none; display: none; fill: none;"></path></g><g transform="translate(0,19)"><path class="background" d="M0,0h218.9794921875v16.5h-218.9794921875Z" style="pointer-events: none; fill: none; opacity: 1;"></path><g><g class="mark-symbol role-legend-symbol" style="pointer-events: none;"><path transform="translate(9.5,9.5)" d="M-7.905694150420948,0L7.905694150420948,0" style="fill: none; stroke: #f58518; stroke-width: 3; opacity: 1;"></path></g><g class="mark-text role-legend-label" style="pointer-events: none;"><text text-anchor="start" transform="translate(23,13.5)" style="font-family: sans-serif; font-size: 14px; fill: #000; opacity: 1;">Casos  pruebas (Molecular)</text></g></g><path class="foreground" d="" style="pointer-events: none; display: none; fill: none;"></path></g><g transform="translate(0,38)"><path class="background" d="M0,0h218.9794921875v16.5h-218.9794921875Z" style="pointer-events: none; fill: none; opacity: 1;"></path><g><g class="mark-symbol role-legend-symbol" style="pointer-events: none;"><path transform="translate(9.5,9.5)" d="M-7.905694150420948,0L7.905694150420948,0" style="fill: none; stroke: #e45756; stroke-width: 3; opacity: 1;"></path></g><g class="mark-text role-legend-label" style="pointer-events: none;"><text text-anchor="start" transform="translate(23,13.5)" style="font-family: sans-serif; font-size: 14px; fill: #000; opacity: 1;">Positivas  pruebas (Antigens)</text></g></g><path class="foreground" d="" style="pointer-events: none; display: none; fill: none;"></path></g></g></g><path class="foreground" d="" style="pointer-events: none; display: none; fill: none;"></path></g></g><g class="mark-text role-legend-title" style="pointer-events: none;"><text text-anchor="start" transform="translate(7.5,18.5)" style="font-family: sans-serif; font-size: 14px; font-weight: bold; fill: #000; opacity: 1;">Mtodo de clculo</text></g></g><path class="foreground" d="" style="pointer-events: none; display: none; fill: none;"></path></g></g><g class="mark-group role-legend"><g transform="translate(444,314)"><path class="background" d="M0,0h118v68h-118Z" style="pointer-events: none; fill: white;"></path><g><g class="mark-group role-legend-entry"><g transform="translate(7.5,26.5)"><path class="background" d="M0,0h0v0h0Z" style="pointer-events: none; fill: none;"></path><g><g class="mark-group role-scope"><g transform="translate(0,0)"><path class="background" d="M0,0h102.9580078125v16h-102.9580078125Z" style="pointer-events: none; fill: none; opacity: 1;"></path><g><g class="mark-symbol role-legend-symbol" style="pointer-events: none;"><path transform="translate(9,9)" d="M-7.905694150420948,0L7.905694150420948,0" style="fill: none; stroke: #888; stroke-width: 2; stroke-dasharray: 1,0; opacity: 1;"></path></g><g class="mark-text role-legend-label" style="pointer-events: none;"><text text-anchor="start" transform="translate(22,13)" style="font-family: sans-serif; font-size: 14px; fill: #000; opacity: 1;">nov 07, 2020</text></g></g><path class="foreground" d="" style="pointer-events: none; display: none; fill: none;"></path></g><g transform="translate(0,18)"><path class="background" d="M0,0h102.9580078125v16h-102.9580078125Z" style="pointer-events: none; fill: none; opacity: 1;"></path><g><g class="mark-symbol role-legend-symbol" style="pointer-events: none;"><path transform="translate(9,9)" d="M-7.905694150420948,0L7.905694150420948,0" style="fill: none; stroke: #888; stroke-width: 2; stroke-dasharray: 4,2; opacity: 1;"></path></g><g class="mark-text role-legend-label" style="pointer-events: none;"><text text-anchor="start" transform="translate(22,13)" style="font-family: sans-serif; font-size: 14px; fill: #000; opacity: 1;">oct 31, 2020</text></g></g><path class="foreground" d="" style="pointer-events: none; display: none; fill: none;"></path></g></g></g><path class="foreground" d="" style="pointer-events: none; display: none; fill: none;"></path></g></g><g class="mark-text role-legend-title" style="pointer-events: none;"><text text-anchor="start" transform="translate(7.5,18.5)" style="font-family: sans-serif; font-size: 14px; font-weight: bold; fill: #000; opacity: 1;">Datos hasta</text></g></g><path class="foreground" d="" style="pointer-events: none; display: none; fill: none;"></path></g></g></g><path class="foreground" d="" style="display: none; fill: none;"></path></g></g></g></svg>