<svg class="marks" width="655" height="400" viewBox="0 0 655 400" version="1.1" xmlns="http://www.w3.org/2000/svg" xmlns:xlink="http://www.w3.org/1999/xlink"><rect width="655" height="400" style="fill: white;"></rect><defs><clipPath id="clip1"><rect x="0" y="0" width="525" height="336"></rect></clipPath><clipPath id="clip2"><rect x="0" y="0" width="525" height="336"></rect></clipPath><clipPath id="clip3"><rect x="0" y="0" width="525" height="336"></rect></clipPath><clipPath id="clip4"><rect x="0" y="0" width="525" height="336"></rect></clipPath><clipPath id="clip5"><rect x="0" y="0" width="525" height="336"></rect></clipPath></defs><g transform="translate(81,20)"><g class="mark-group role-frame root"><g transform="translate(0,0)"><path class="background" d="M0.5,0.5h525v336h-525Z" style="fill: none; stroke: #ddd;"></path><g><g class="mark-group role-axis"><g transform="translate(0.5,336.5)"><path class="background" d="M0,0h0v0h0Z" style="pointer-events: none; fill: none;"></path><g><g class="mark-rule role-axis-grid" style="pointer-events: none;"><line transform="translate(0,-336)" x2="0" y2="336" style="fill: none; stroke: #ddd; stroke-width: 1; opacity: 1;"></line><line transform="translate(53,-336)" x2="0" y2="336" style="fill: none; stroke: #ddd; stroke-width: 1; opacity: 1;"></line><line transform="translate(105,-336)" x2="0" y2="336" style="fill: none; stroke: #ddd; stroke-width: 1; opacity: 1;"></line><line transform="translate(158,-336)" x2="0" y2="336" style="fill: none; stroke: #ddd; stroke-width: 1; opacity: 1;"></line><line transform="translate(210,-336)" x2="0" y2="336" style="fill: none; stroke: #ddd; stroke-width: 1; opacity: 1;"></line><line transform="translate(263,-336)" x2="0" y2="336" style="fill: none; stroke: #ddd; stroke-width: 1; opacity: 1;"></line><line transform="translate(315,-336)" x2="0" y2="336" style="fill: none; stroke: #ddd; stroke-width: 1; opacity: 1;"></line><line transform="translate(368,-336)" x2="0" y2="336" style="fill: none; stroke: #ddd; stroke-width: 1; opacity: 1;"></line><line transform="translate(420,-336)" x2="0" y2="336" style="fill: none; stroke: #ddd; stroke-width: 1; opacity: 1;"></line><line transform="translate(473,-336)" x2="0" y2="336" style="fill: none; stroke: #ddd; stroke-width: 1; opacity: 1;"></line><line transform="translate(525,-336)" x2="0" y2="336" style="fill: none; stroke: #ddd; stroke-width: 1; opacity: 1;"></line></g></g><path class="foreground" d="" style="pointer-events: none; display: none; fill: none;"></path></g></g><g class="mark-group role-axis"><g transform="translate(0.5,0.5)"><path class="background" d="M0,0h0v0h0Z" style="pointer-events: none; fill: none;"></path><g><g class="mark-rule role-axis-grid" style="pointer-events: none;"><line transform="translate(0,336)" x2="525" y2="0" style="fill: none; stroke: #ddd; stroke-width: 1; opacity: 1;"></line><line transform="translate(0,294)" x2="525" y2="0" style="fill: none; stroke: #ddd; stroke-width: 1; opacity: 1;"></line><line transform="translate(0,252)" x2="525" y2="0" style="fill: none; stroke: #ddd; stroke-width: 1; opacity: 1;"></line><line transform="translate(0,210)" x2="525" y2="0" style="fill: none; stroke: #ddd; stroke-width: 1; opacity: 1;"></line><line transform="translate(0,168)" x2="525" y2="0" style="fill: none; stroke: #ddd; stroke-width: 1; opacity: 1;"></line><line transform="translate(0,126)" x2="525" y2="0" style="fill: none; stroke: #ddd; stroke-width: 1; opacity: 1;"></line><line transform="translate(0,84)" x2="525" y2="0" style="fill: none; stroke: #ddd; stroke-width: 1; opacity: 1;"></line><line transform="translate(0,42)" x2="525" y2="0" style="fill: none; stroke: #ddd; stroke-width: 1; opacity: 1;"></line><line transform="translate(0,0)" x2="525" y2="0" style="fill: none; stroke: #ddd; stroke-width: 1; opacity: 1;"></line></g></g><path class="foreground" d="" style="pointer-events: none; display: none; fill: none;"></path></g></g><g class="mark-group role-axis"><g transform="translate(0.5,336.5)"><path class="background" d="M0,0h0v0h0Z" style="pointer-events: none; fill: none;"></path><g><g class="mark-rule role-axis-tick" style="pointer-events: none;"><line transform="translate(0,0)" x2="0" y2="5" style="fill: none; stroke: #888; stroke-width: 1; opacity: 1;"></line><line transform="translate(53,0)" x2="0" y2="5" style="fill: none; stroke: #888; stroke-width: 1; opacity: 1;"></line><line transform="translate(105,0)" x2="0" y2="5" style="fill: none; stroke: #888; stroke-width: 1; opacity: 1;"></line><line transform="translate(158,0)" x2="0" y2="5" style="fill: none; stroke: #888; stroke-width: 1; opacity: 1;"></line><line transform="translate(210,0)" x2="0" y2="5" style="fill: none; stroke: #888; stroke-width: 1; opacity: 1;"></line><line transform="translate(263,0)" x2="0" y2="5" style="fill: none; stroke: #888; stroke-width: 1; opacity: 1;"></line><line transform="translate(315,0)" x2="0" y2="5" style="fill: none; stroke: #888; stroke-width: 1; opacity: 1;"></line><line transform="translate(368,0)" x2="0" y2="5" style="fill: none; stroke: #888; stroke-width: 1; opacity: 1;"></line><line transform="translate(420,0)" x2="0" y2="5" style="fill: none; stroke: #888; stroke-width: 1; opacity: 1;"></line><line transform="translate(473,0)" x2="0" y2="5" style="fill: none; stroke: #888; stroke-width: 1; opacity: 1;"></line><line transform="translate(525,0)" x2="0" y2="5" style="fill: none; stroke: #888; stroke-width: 1; opacity: 1;"></line></g><g class="mark-text role-axis-label" style="pointer-events: none;"><text text-anchor="start" transform="translate(0,18)" style="font-family: sans-serif; font-size: 14px; fill: #000; opacity: 1;">0</text><text text-anchor="middle" transform="translate(52.5,18)" style="font-family: sans-serif; font-size: 14px; fill: #000; opacity: 0;">500</text><text text-anchor="middle" transform="translate(105,18)" style="font-family: sans-serif; font-size: 14px; fill: #000; opacity: 1;">1,000</text><text text-anchor="middle" transform="translate(157.5,18)" style="font-family: sans-serif; font-size: 14px; fill: #000; opacity: 0;">1,500</text><text text-anchor="middle" transform="translate(210,18)" style="font-family: sans-serif; font-size: 14px; fill: #000; opacity: 1;">2,000</text><text text-anchor="middle" transform="translate(262.5,18)" style="font-family: sans-serif; font-size: 14px; fill: #000; opacity: 0;">2,500</text><text text-anchor="middle" transform="translate(315,18)" style="font-family: sans-serif; font-size: 14px; fill: #000; opacity: 1;">3,000</text><text text-anchor="middle" transform="translate(367.5,18)" style="font-family: sans-serif; font-size: 14px; fill: #000; opacity: 0;">3,500</text><text text-anchor="middle" transform="translate(420,18)" style="font-family: sans-serif; font-size: 14px; fill: #000; opacity: 1;">4,000</text><text text-anchor="middle" transform="translate(472.5,18)" style="font-family: sans-serif; font-size: 14px; fill: #000; opacity: 0;">4,500</text><text text-anchor="end" transform="translate(525,18)" style="font-family: sans-serif; font-size: 14px; fill: #000; opacity: 1;">5,000</text></g><g class="mark-rule role-axis-domain" style="pointer-events: none;"><line transform="translate(0,0)" x2="525" y2="0" style="fill: none; stroke: #888; stroke-width: 1; opacity: 1;"></line></g><g class="mark-text role-axis-title" style="pointer-events: none;"><text text-anchor="middle" transform="translate(262.5,36)" style="font-family: sans-serif; font-size: 14px; font-weight: bold; fill: #000; opacity: 1;">Total de casos por millón de habitantes</text></g></g><path class="foreground" d="" style="pointer-events: none; display: none; fill: none;"></path></g></g><g class="mark-group role-axis"><g transform="translate(0.5,0.5)"><path class="background" d="M0,0h0v0h0Z" style="pointer-events: none; fill: none;"></path><g><g class="mark-rule role-axis-tick" style="pointer-events: none;"><line transform="translate(0,336)" x2="-5" y2="0" style="fill: none; stroke: #888; stroke-width: 1; opacity: 1;"></line><line transform="translate(0,294)" x2="-5" y2="0" style="fill: none; stroke: #888; stroke-width: 1; opacity: 1;"></line><line transform="translate(0,252)" x2="-5" y2="0" style="fill: none; stroke: #888; stroke-width: 1; opacity: 1;"></line><line transform="translate(0,210)" x2="-5" y2="0" style="fill: none; stroke: #888; stroke-width: 1; opacity: 1;"></line><line transform="translate(0,168)" x2="-5" y2="0" style="fill: none; stroke: #888; stroke-width: 1; opacity: 1;"></line><line transform="translate(0,126)" x2="-5" y2="0" style="fill: none; stroke: #888; stroke-width: 1; opacity: 1;"></line><line transform="translate(0,84)" x2="-5" y2="0" style="fill: none; stroke: #888; stroke-width: 1; opacity: 1;"></line><line transform="translate(0,42)" x2="-5" y2="0" style="fill: none; stroke: #888; stroke-width: 1; opacity: 1;"></line><line transform="translate(0,0)" x2="-5" y2="0" style="fill: none; stroke: #888; stroke-width: 1; opacity: 1;"></line></g><g class="mark-text role-axis-label" style="pointer-events: none;"><text text-anchor="end" transform="translate(-7,340)" style="font-family: sans-serif; font-size: 14px; fill: #000; opacity: 1;">0</text><text text-anchor="end" transform="translate(-7,298)" style="font-family: sans-serif; font-size: 14px; fill: #000; opacity: 1;">20,000</text><text text-anchor="end" transform="translate(-7,256)" style="font-family: sans-serif; font-size: 14px; fill: #000; opacity: 1;">40,000</text><text text-anchor="end" transform="translate(-7,214)" style="font-family: sans-serif; font-size: 14px; fill: #000; opacity: 1;">60,000</text><text text-anchor="end" transform="translate(-7,172)" style="font-family: sans-serif; font-size: 14px; fill: #000; opacity: 1;">80,000</text><text text-anchor="end" transform="translate(-7,130)" style="font-family: sans-serif; font-size: 14px; fill: #000; opacity: 1;">100,000</text><text text-anchor="end" transform="translate(-7,88)" style="font-family: sans-serif; font-size: 14px; fill: #000; opacity: 1;">120,000</text><text text-anchor="end" transform="translate(-7,46)" style="font-family: sans-serif; font-size: 14px; fill: #000; opacity: 1;">140,000</text><text text-anchor="end" transform="translate(-7,4)" style="font-family: sans-serif; font-size: 14px; fill: #000; opacity: 1;">160,000</text></g><g class="mark-rule role-axis-domain" style="pointer-events: none;"><line transform="translate(0,336)" x2="0" y2="-336" style="fill: none; stroke: #888; stroke-width: 1; opacity: 1;"></line></g><g class="mark-text role-axis-title" style="pointer-events: none;"><text text-anchor="middle" transform="translate(-61.6064453125,168) rotate(-90) translate(0,-3)" style="font-family: sans-serif; font-size: 14px; font-weight: bold; fill: #000; opacity: 1;">Total de pruebas por millón de habitantes</text></g></g><path class="foreground" d="" style="pointer-events: none; display: none; fill: none;"></path></g></g><g class="mark-group role-scope layer_0_pathgroup"><g transform="translate(0,0)"><path class="background" d="M0,0h525v336h-525Z" style="fill: none;"></path><g><g class="mark-line role-mark layer_0_marks" clip-path="url(#clip1)"><path d="M0,336L84,0" style="fill: none; stroke: grey; stroke-width: 0.5; stroke-dasharray: 6,4;"></path></g></g><path class="foreground" d="" style="display: none; fill: none;"></path></g><g transform="translate(0,0)"><path class="background" d="M0,0h525v336h-525Z" style="fill: none;"></path><g><g class="mark-line role-mark layer_0_marks" clip-path="url(#clip2)"><path d="M0,336L168,0" style="fill: none; stroke: grey; stroke-width: 0.5; stroke-dasharray: 6,4;"></path></g></g><path class="foreground" d="" style="display: none; fill: none;"></path></g><g transform="translate(0,0)"><path class="background" d="M0,0h525v336h-525Z" style="fill: none;"></path><g><g class="mark-line role-mark layer_0_marks" clip-path="url(#clip3)"><path d="M0,336L336,0" style="fill: none; stroke: grey; stroke-width: 0.5; stroke-dasharray: 6,4;"></path></g></g><path class="foreground" d="" style="display: none; fill: none;"></path></g><g transform="translate(0,0)"><path class="background" d="M0,0h525v336h-525Z" style="fill: none;"></path><g><g class="mark-line role-mark layer_0_marks" clip-path="url(#clip4)"><path d="M0,336L525,126" style="fill: none; stroke: grey; stroke-width: 0.5; stroke-dasharray: 6,4;"></path></g></g><path class="foreground" d="" style="display: none; fill: none;"></path></g><g transform="translate(0,0)"><path class="background" d="M0,0h525v336h-525Z" style="fill: none;"></path><g><g class="mark-line role-mark layer_0_marks" clip-path="url(#clip5)"><path d="M0,336L525,231" style="fill: none; stroke: grey; stroke-width: 0.5; stroke-dasharray: 6,4;"></path></g></g><path class="foreground" d="" style="display: none; fill: none;"></path></g></g><g class="mark-text role-mark layer_1_marks"><text text-anchor="start" transform="translate(88,-4)" style="font-family: sans-serif; font-size: 14px; fill: grey;">0.5%</text><text text-anchor="start" transform="translate(172,-4)" style="font-family: sans-serif; font-size: 14px; fill: grey;">1.0%</text><text text-anchor="start" transform="translate(340,-4)" style="font-family: sans-serif; font-size: 14px; fill: grey;">2.0%</text><text text-anchor="start" transform="translate(529,122)" style="font-family: sans-serif; font-size: 14px; fill: grey;">5.0%</text><text text-anchor="start" transform="translate(529,227)" style="font-family: sans-serif; font-size: 14px; fill: grey;">10.0%</text></g><g class="mark-symbol role-mark layer_2_marks"><path transform="translate(0.0328772888072558,335.995397179567)" d="M2.7386127875258306,0A2.7386127875258306,2.7386127875258306,0,1,1,-2.7386127875258306,0A2.7386127875258306,2.7386127875258306,0,1,1,2.7386127875258306,0" style="fill: none; stroke: #4c78a8; stroke-width: 2; opacity: 0.7;"></path><path transform="translate(0.1315091552290232,335.99276699646236)" d="M2.7386127875258306,0A2.7386127875258306,2.7386127875258306,0,1,1,-2.7386127875258306,0A2.7386127875258306,2.7386127875258306,0,1,1,2.7386127875258306,0" style="fill: none; stroke: #4c78a8; stroke-width: 2; opacity: 0.7;"></path><path transform="translate(0.2301410216507906,335.9894792675817)" d="M2.7386127875258306,0A2.7386127875258306,2.7386127875258306,0,1,1,-2.7386127875258306,0A2.7386127875258306,2.7386127875258306,0,1,1,2.7386127875258306,0" style="fill: none; stroke: #4c78a8; stroke-width: 2; opacity: 0.7;"></path><path transform="translate(0.2301410216507906,335.9868490844771)" d="M2.7386127875258306,0A2.7386127875258306,2.7386127875258306,0,1,1,-2.7386127875258306,0A2.7386127875258306,2.7386127875258306,0,1,1,2.7386127875258306,0" style="fill: none; stroke: #4c78a8; stroke-width: 2; opacity: 0.7;"></path><path transform="translate(0.5260366209160928,335.9625198907597)" d="M2.7386127875258306,0A2.7386127875258306,2.7386127875258306,0,1,1,-2.7386127875258306,0A2.7386127875258306,2.7386127875258306,0,1,1,2.7386127875258306,0" style="fill: none; stroke: #4c78a8; stroke-width: 2; opacity: 0.7;"></path><path transform="translate(0.7561776425668835,335.9210945068626)" d="M2.7386127875258306,0A2.7386127875258306,2.7386127875258306,0,1,1,-2.7386127875258306,0A2.7386127875258306,2.7386127875258306,0,1,1,2.7386127875258306,0" style="fill: none; stroke: #4c78a8; stroke-width: 2; opacity: 0.7;"></path><path transform="translate(0.9205640866031624,335.8862445807269)" d="M2.7386127875258306,0A2.7386127875258306,2.7386127875258306,0,1,1,-2.7386127875258306,0A2.7386127875258306,2.7386127875258306,0,1,1,2.7386127875258306,0" style="fill: none; stroke: #4c78a8; stroke-width: 2; opacity: 0.7;"></path><path transform="translate(1.0849505306394414,335.82903809820226)" d="M2.7386127875258306,0A2.7386127875258306,2.7386127875258306,0,1,1,-2.7386127875258306,0A2.7386127875258306,2.7386127875258306,0,1,1,2.7386127875258306,0" style="fill: none; stroke: #4c78a8; stroke-width: 2; opacity: 0.7;"></path><path transform="translate(1.5452325739410229,335.76131088325934)" d="M2.7386127875258306,0A2.7386127875258306,2.7386127875258306,0,1,1,-2.7386127875258306,0A2.7386127875258306,2.7386127875258306,0,1,1,2.7386127875258306,0" style="fill: none; stroke: #4c78a8; stroke-width: 2; opacity: 0.7;"></path><path transform="translate(1.9068827508208364,335.7113374042723)" d="M2.7386127875258306,0A2.7386127875258306,2.7386127875258306,0,1,1,-2.7386127875258306,0A2.7386127875258306,2.7386127875258306,0,1,1,2.7386127875258306,0" style="fill: none; stroke: #4c78a8; stroke-width: 2; opacity: 0.7;"></path><path transform="translate(2.2356556388933946,335.68898084788333)" d="M2.7386127875258306,0A2.7386127875258306,2.7386127875258306,0,1,1,-2.7386127875258306,0A2.7386127875258306,2.7386127875258306,0,1,1,2.7386127875258306,0" style="fill: none; stroke: #4c78a8; stroke-width: 2; opacity: 0.7;"></path><path transform="translate(3.3534834583400914,335.61073290052207)" d="M2.7386127875258306,0A2.7386127875258306,2.7386127875258306,0,1,1,-2.7386127875258306,0A2.7386127875258306,2.7386127875258306,0,1,1,2.7386127875258306,0" style="fill: none; stroke: #4c78a8; stroke-width: 2; opacity: 0.7;"></path><path transform="translate(4.93159332108837,335.4693605586509)" d="M2.7386127875258306,0A2.7386127875258306,2.7386127875258306,0,1,1,-2.7386127875258306,0A2.7386127875258306,2.7386127875258306,0,1,1,2.7386127875258306,0" style="fill: none; stroke: #4c78a8; stroke-width: 2; opacity: 0.7;"></path><path transform="translate(6.279562162185858,335.3122071181522)" d="M2.7386127875258306,0A2.7386127875258306,2.7386127875258306,0,1,1,-2.7386127875258306,0A2.7386127875258306,2.7386127875258306,0,1,1,2.7386127875258306,0" style="fill: none; stroke: #4c78a8; stroke-width: 2; opacity: 0.7;"></path><path transform="translate(8.21932220181395,335.0570793570079)" d="M2.7386127875258306,0A2.7386127875258306,2.7386127875258306,0,1,1,-2.7386127875258306,0A2.7386127875258306,2.7386127875258306,0,1,1,2.7386127875258306,0" style="fill: none; stroke: #4c78a8; stroke-width: 2; opacity: 0.7;"></path><path transform="translate(9.830309353369485,334.75460829998116)" d="M2.7386127875258306,0A2.7386127875258306,2.7386127875258306,0,1,1,-2.7386127875258306,0A2.7386127875258306,2.7386127875258306,0,1,1,2.7386127875258306,0" style="fill: none; stroke: #4c78a8; stroke-width: 2; opacity: 0.7;"></path><path transform="translate(10.619364284743623,334.5895643101687)" d="M2.7386127875258306,0A2.7386127875258306,2.7386127875258306,0,1,1,-2.7386127875258306,0A2.7386127875258306,2.7386127875258306,0,1,1,2.7386127875258306,0" style="fill: none; stroke: #4c78a8; stroke-width: 2; opacity: 0.7;"></path><path transform="translate(11.013891750430693,334.5336729191964)" d="M2.7386127875258306,0A2.7386127875258306,2.7386127875258306,0,1,1,-2.7386127875258306,0A2.7386127875258306,2.7386127875258306,0,1,1,2.7386127875258306,0" style="fill: none; stroke: #4c78a8; stroke-width: 2; opacity: 0.7;"></path><path transform="translate(13.808461299047437,334.09443234073143)" d="M2.7386127875258306,0A2.7386127875258306,2.7386127875258306,0,1,1,-2.7386127875258306,0A2.7386127875258306,2.7386127875258306,0,1,1,2.7386127875258306,0" style="fill: none; stroke: #4c78a8; stroke-width: 2; opacity: 0.7;"></path><path transform="translate(15.649589472253759,333.65519176226655)" d="M2.7386127875258306,0A2.7386127875258306,2.7386127875258306,0,1,1,-2.7386127875258306,0A2.7386127875258306,2.7386127875258306,0,1,1,2.7386127875258306,0" style="fill: none; stroke: #4c78a8; stroke-width: 2; opacity: 0.7;"></path><path transform="translate(18.115386132797948,333.014084630525)" d="M2.7386127875258306,0A2.7386127875258306,2.7386127875258306,0,1,1,-2.7386127875258306,0A2.7386127875258306,2.7386127875258306,0,1,1,2.7386127875258306,0" style="fill: none; stroke: #4c78a8; stroke-width: 2; opacity: 0.7;"></path><path transform="translate(19.825005150775247,332.44004716795035)" d="M2.7386127875258306,0A2.7386127875258306,2.7386127875258306,0,1,1,-2.7386127875258306,0A2.7386127875258306,2.7386127875258306,0,1,1,2.7386127875258306,0" style="fill: none; stroke: #4c78a8; stroke-width: 2; opacity: 0.7;"></path><path transform="translate(21.468869591138038,331.81274849750787)" d="M2.7386127875258306,0A2.7386127875258306,2.7386127875258306,0,1,1,-2.7386127875258306,0A2.7386127875258306,2.7386127875258306,0,1,1,2.7386127875258306,0" style="fill: none; stroke: #4c78a8; stroke-width: 2; opacity: 0.7;"></path><path transform="translate(21.962028923246873,331.6279781344111)" d="M2.7386127875258306,0A2.7386127875258306,2.7386127875258306,0,1,1,-2.7386127875258306,0A2.7386127875258306,2.7386127875258306,0,1,1,2.7386127875258306,0" style="fill: none; stroke: #4c78a8; stroke-width: 2; opacity: 0.7;"></path><path transform="translate(22.060660789668646,331.5563056448113)" d="M2.7386127875258306,0A2.7386127875258306,2.7386127875258306,0,1,1,-2.7386127875258306,0A2.7386127875258306,2.7386127875258306,0,1,1,2.7386127875258306,0" style="fill: none; stroke: #4c78a8; stroke-width: 2; opacity: 0.7;"></path><path transform="translate(23.70452523003143,331.0269812950145)" d="M2.7386127875258306,0A2.7386127875258306,2.7386127875258306,0,1,1,-2.7386127875258306,0A2.7386127875258306,2.7386127875258306,0,1,1,2.7386127875258306,0" style="fill: none; stroke: #4c78a8; stroke-width: 2; opacity: 0.7;"></path><path transform="translate(24.82235304947813,330.40560053655736)" d="M2.7386127875258306,0A2.7386127875258306,2.7386127875258306,0,1,1,-2.7386127875258306,0A2.7386127875258306,2.7386127875258306,0,1,1,2.7386127875258306,0" style="fill: none; stroke: #4c78a8; stroke-width: 2; opacity: 0.7;"></path><path transform="translate(25.710039847274036,329.83156307398264)" d="M2.7386127875258306,0A2.7386127875258306,2.7386127875258306,0,1,1,-2.7386127875258306,0A2.7386127875258306,2.7386127875258306,0,1,1,2.7386127875258306,0" style="fill: none; stroke: #4c78a8; stroke-width: 2; opacity: 0.7;"></path><path transform="translate(26.86074495552799,329.22399077682456)" d="M2.7386127875258306,0A2.7386127875258306,2.7386127875258306,0,1,1,-2.7386127875258306,0A2.7386127875258306,2.7386127875258306,0,1,1,2.7386127875258306,0" style="fill: none; stroke: #4c78a8; stroke-width: 2; opacity: 0.7;"></path><path transform="translate(26.959376821949753,329.11286554065606)" d="M2.7386127875258306,0A2.7386127875258306,2.7386127875258306,0,1,1,-2.7386127875258306,0A2.7386127875258306,2.7386127875258306,0,1,1,2.7386127875258306,0" style="fill: none; stroke: #4c78a8; stroke-width: 2; opacity: 0.7;"></path><path transform="translate(27.353904287636823,328.9576847374858)" d="M2.7386127875258306,0A2.7386127875258306,2.7386127875258306,0,1,1,-2.7386127875258306,0A2.7386127875258306,2.7386127875258306,0,1,1,2.7386127875258306,0" style="fill: none; stroke: #4c78a8; stroke-width: 2; opacity: 0.7;"></path><path transform="translate(27.48541344286585,328.86760096615393)" d="M2.7386127875258306,0A2.7386127875258306,2.7386127875258306,0,1,1,-2.7386127875258306,0A2.7386127875258306,2.7386127875258306,0,1,1,2.7386127875258306,0" style="fill: none; stroke: #4c78a8; stroke-width: 2; opacity: 0.7;"></path><path transform="translate(28.438854818276265,328.3034266902214)" d="M2.7386127875258306,0A2.7386127875258306,2.7386127875258306,0,1,1,-2.7386127875258306,0A2.7386127875258306,2.7386127875258306,0,1,1,2.7386127875258306,0" style="fill: none; stroke: #4c78a8; stroke-width: 2; opacity: 0.7;"></path><path transform="translate(29.227909749650404,327.62681208656807)" d="M2.7386127875258306,0A2.7386127875258306,2.7386127875258306,0,1,1,-2.7386127875258306,0A2.7386127875258306,2.7386127875258306,0,1,1,2.7386127875258306,0" style="fill: none; stroke: #4c78a8; stroke-width: 2; opacity: 0.7;"></path><path transform="translate(30.247105702675334,326.94296447937717)" d="M2.7386127875258306,0A2.7386127875258306,2.7386127875258306,0,1,1,-2.7386127875258306,0A2.7386127875258306,2.7386127875258306,0,1,1,2.7386127875258306,0" style="fill: none; stroke: #4c78a8; stroke-width: 2; opacity: 0.7;"></path><path transform="translate(31.101915211663986,326.2755555165899)" d="M2.7386127875258306,0A2.7386127875258306,2.7386127875258306,0,1,1,-2.7386127875258306,0A2.7386127875258306,2.7386127875258306,0,1,1,2.7386127875258306,0" style="fill: none; stroke: #4c78a8; stroke-width: 2; opacity: 0.7;"></path><path transform="translate(31.79233827661636,325.56737871568157)" d="M2.7386127875258306,0A2.7386127875258306,2.7386127875258306,0,1,1,-2.7386127875258306,0A2.7386127875258306,2.7386127875258306,0,1,1,2.7386127875258306,0" style="fill: none; stroke: #4c78a8; stroke-width: 2; opacity: 0.7;"></path><path transform="translate(32.08823387588166,325.26819538753557)" d="M2.7386127875258306,0A2.7386127875258306,2.7386127875258306,0,1,1,-2.7386127875258306,0A2.7386127875258306,2.7386127875258306,0,1,1,2.7386127875258306,0" style="fill: none; stroke: #4c78a8; stroke-width: 2; opacity: 0.7;"></path><path transform="translate(32.153988453496176,325.1347135949781)" d="M2.7386127875258306,0A2.7386127875258306,2.7386127875258306,0,1,1,-2.7386127875258306,0A2.7386127875258306,2.7386127875258306,0,1,1,2.7386127875258306,0" style="fill: none; stroke: #4c78a8; stroke-width: 2; opacity: 0.7;"></path><path transform="translate(32.77865694083403,324.4087830581139)" d="M2.7386127875258306,0A2.7386127875258306,2.7386127875258306,0,1,1,-2.7386127875258306,0A2.7386127875258306,2.7386127875258306,0,1,1,2.7386127875258306,0" style="fill: none; stroke: #4c78a8; stroke-width: 2; opacity: 0.7;"></path><path transform="translate(33.43620271697915,323.6992911656533)" d="M2.7386127875258306,0A2.7386127875258306,2.7386127875258306,0,1,1,-2.7386127875258306,0A2.7386127875258306,2.7386127875258306,0,1,1,2.7386127875258306,0" style="fill: none; stroke: #4c78a8; stroke-width: 2; opacity: 0.7;"></path><path transform="translate(34.32388951477506,323.0036077344918)" d="M2.7386127875258306,0A2.7386127875258306,2.7386127875258306,0,1,1,-2.7386127875258306,0A2.7386127875258306,2.7386127875258306,0,1,1,2.7386127875258306,0" style="fill: none; stroke: #4c78a8; stroke-width: 2; opacity: 0.7;"></path><path transform="translate(34.882803424498405,322.1678670530114)" d="M2.7386127875258306,0A2.7386127875258306,2.7386127875258306,0,1,1,-2.7386127875258306,0A2.7386127875258306,2.7386127875258306,0,1,1,2.7386127875258306,0" style="fill: none; stroke: #4c78a8; stroke-width: 2; opacity: 0.7;"></path><path transform="translate(35.40884004541449,321.4241827801912)" d="M2.7386127875258306,0A2.7386127875258306,2.7386127875258306,0,1,1,-2.7386127875258306,0A2.7386127875258306,2.7386127875258306,0,1,1,2.7386127875258306,0" style="fill: none; stroke: #4c78a8; stroke-width: 2; opacity: 0.7;"></path><path transform="translate(35.44171733422175,321.0671354237444)" d="M2.7386127875258306,0A2.7386127875258306,2.7386127875258306,0,1,1,-2.7386127875258306,0A2.7386127875258306,2.7386127875258306,0,1,1,2.7386127875258306,0" style="fill: none; stroke: #4c78a8; stroke-width: 2; opacity: 0.7;"></path><path transform="translate(35.540349200643526,320.96850355732266)" d="M2.7386127875258306,0A2.7386127875258306,2.7386127875258306,0,1,1,-2.7386127875258306,0A2.7386127875258306,2.7386127875258306,0,1,1,2.7386127875258306,0" style="fill: none; stroke: #4c78a8; stroke-width: 2; opacity: 0.7;"></path><path transform="translate(36.03350853275236,319.96574624870135)" d="M2.7386127875258306,0A2.7386127875258306,2.7386127875258306,0,1,1,-2.7386127875258306,0A2.7386127875258306,2.7386127875258306,0,1,1,2.7386127875258306,0" style="fill: none; stroke: #4c78a8; stroke-width: 2; opacity: 0.7;"></path><path transform="translate(36.55954515366845,318.6401339639928)" d="M2.7386127875258306,0A2.7386127875258306,2.7386127875258306,0,1,1,-2.7386127875258306,0A2.7386127875258306,2.7386127875258306,0,1,1,2.7386127875258306,0" style="fill: none; stroke: #4c78a8; stroke-width: 2; opacity: 0.7;"></path><path transform="translate(37.1842136410063,317.39145453509326)" d="M2.7386127875258306,0A2.7386127875258306,2.7386127875258306,0,1,1,-2.7386127875258306,0A2.7386127875258306,2.7386127875258306,0,1,1,2.7386127875258306,0" style="fill: none; stroke: #4c78a8; stroke-width: 2; opacity: 0.7;"></path><path transform="translate(37.907513994765935,316.1782825781055)" d="M2.7386127875258306,0A2.7386127875258306,2.7386127875258306,0,1,1,-2.7386127875258306,0A2.7386127875258306,2.7386127875258306,0,1,1,2.7386127875258306,0" style="fill: none; stroke: #4c78a8; stroke-width: 2; opacity: 0.7;"></path><path transform="translate(38.20340959403124,314.6363377330452)" d="M2.7386127875258306,0A2.7386127875258306,2.7386127875258306,0,1,1,-2.7386127875258306,0A2.7386127875258306,2.7386127875258306,0,1,1,2.7386127875258306,0" style="fill: none; stroke: #4c78a8; stroke-width: 2; opacity: 0.7;"></path><path transform="translate(38.400673326874774,313.9998334217367)" d="M2.7386127875258306,0A2.7386127875258306,2.7386127875258306,0,1,1,-2.7386127875258306,0A2.7386127875258306,2.7386127875258306,0,1,1,2.7386127875258306,0" style="fill: none; stroke: #4c78a8; stroke-width: 2; opacity: 0.7;"></path><path transform="translate(38.49930519329654,313.8768723615976)" d="M2.7386127875258306,0A2.7386127875258306,2.7386127875258306,0,1,1,-2.7386127875258306,0A2.7386127875258306,2.7386127875258306,0,1,1,2.7386127875258306,0" style="fill: none; stroke: #4c78a8; stroke-width: 2; opacity: 0.7;"></path><path transform="translate(38.696568926140074,312.1810618049193)" d="M2.7386127875258306,0A2.7386127875258306,2.7386127875258306,0,1,1,-2.7386127875258306,0A2.7386127875258306,2.7386127875258306,0,1,1,2.7386127875258306,0" style="fill: none; stroke: #4c78a8; stroke-width: 2; opacity: 0.7;"></path><path transform="translate(39.41986927989971,310.1393821699887)" d="M2.7386127875258306,0A2.7386127875258306,2.7386127875258306,0,1,1,-2.7386127875258306,0A2.7386127875258306,2.7386127875258306,0,1,1,2.7386127875258306,0" style="fill: none; stroke: #4c78a8; stroke-width: 2; opacity: 0.7;"></path><path transform="translate(40.044537767237564,307.94712455232093)" d="M2.7386127875258306,0A2.7386127875258306,2.7386127875258306,0,1,1,-2.7386127875258306,0A2.7386127875258306,2.7386127875258306,0,1,1,2.7386127875258306,0" style="fill: none; stroke: #4c78a8; stroke-width: 2; opacity: 0.7;"></path><path transform="translate(40.57057438815366,305.3978195782063)" d="M2.7386127875258306,0A2.7386127875258306,2.7386127875258306,0,1,1,-2.7386127875258306,0A2.7386127875258306,2.7386127875258306,0,1,1,2.7386127875258306,0" style="fill: none; stroke: #4c78a8; stroke-width: 2; opacity: 0.7;"></path><path transform="translate(41.392506608335054,302.18833864484196)" d="M2.7386127875258306,0A2.7386127875258306,2.7386127875258306,0,1,1,-2.7386127875258306,0A2.7386127875258306,2.7386127875258306,0,1,1,2.7386127875258306,0" style="fill: none; stroke: #4c78a8; stroke-width: 2; opacity: 0.7;"></path><path transform="translate(41.52401576356407,301.26514437513424)" d="M2.7386127875258306,0A2.7386127875258306,2.7386127875258306,0,1,1,-2.7386127875258306,0A2.7386127875258306,2.7386127875258306,0,1,1,2.7386127875258306,0" style="fill: none; stroke: #4c78a8; stroke-width: 2; opacity: 0.7;"></path><path transform="translate(41.52401576356407,301.03960617391647)" d="M2.7386127875258306,0A2.7386127875258306,2.7386127875258306,0,1,1,-2.7386127875258306,0A2.7386127875258306,2.7386127875258306,0,1,1,2.7386127875258306,0" style="fill: none; stroke: #4c78a8; stroke-width: 2; opacity: 0.7;"></path><path transform="translate(42.01717509567291,298.65139991495744)" d="M2.7386127875258306,0A2.7386127875258306,2.7386127875258306,0,1,1,-2.7386127875258306,0A2.7386127875258306,2.7386127875258306,0,1,1,2.7386127875258306,0" style="fill: none; stroke: #4c78a8; stroke-width: 2; opacity: 0.7;"></path><path transform="translate(42.345947983745475,296.06001201116953)" d="M2.7386127875258306,0A2.7386127875258306,2.7386127875258306,0,1,1,-2.7386127875258306,0A2.7386127875258306,2.7386127875258306,0,1,1,2.7386127875258306,0" style="fill: none; stroke: #4c78a8; stroke-width: 2; opacity: 0.7;"></path><path transform="translate(42.641843583010775,293.45350055453025)" d="M2.7386127875258306,0A2.7386127875258306,2.7386127875258306,0,1,1,-2.7386127875258306,0A2.7386127875258306,2.7386127875258306,0,1,1,2.7386127875258306,0" style="fill: none; stroke: #4c78a8; stroke-width: 2; opacity: 0.7;"></path><path transform="translate(42.937739182276076,290.8634277422947)" d="M2.7386127875258306,0A2.7386127875258306,2.7386127875258306,0,1,1,-2.7386127875258306,0A2.7386127875258306,2.7386127875258306,0,1,1,2.7386127875258306,0" style="fill: none; stroke: #4c78a8; stroke-width: 2; opacity: 0.7;"></path><path transform="translate(43.29938935915589,288.5048110432621)" d="M2.7386127875258306,0A2.7386127875258306,2.7386127875258306,0,1,1,-2.7386127875258306,0A2.7386127875258306,2.7386127875258306,0,1,1,2.7386127875258306,0" style="fill: none; stroke: #4c78a8; stroke-width: 2; opacity: 0.7;"></path><path transform="translate(43.365143936770394,287.64474116806434)" d="M2.7386127875258306,0A2.7386127875258306,2.7386127875258306,0,1,1,-2.7386127875258306,0A2.7386127875258306,2.7386127875258306,0,1,1,2.7386127875258306,0" style="fill: none; stroke: #4c78a8; stroke-width: 2; opacity: 0.7;"></path><path transform="translate(43.43089851438491,287.52178010792517)" d="M2.7386127875258306,0A2.7386127875258306,2.7386127875258306,0,1,1,-2.7386127875258306,0A2.7386127875258306,2.7386127875258306,0,1,1,2.7386127875258306,0" style="fill: none; stroke: #4c78a8; stroke-width: 2; opacity: 0.7;"></path><path transform="translate(43.6610395360357,285.65040482901617)" d="M2.7386127875258306,0A2.7386127875258306,2.7386127875258306,0,1,1,-2.7386127875258306,0A2.7386127875258306,2.7386127875258306,0,1,1,2.7386127875258306,0" style="fill: none; stroke: #4c78a8; stroke-width: 2; opacity: 0.7;"></path><path transform="translate(43.85830326887923,283.5686149017408)" d="M2.7386127875258306,0A2.7386127875258306,2.7386127875258306,0,1,1,-2.7386127875258306,0A2.7386127875258306,2.7386127875258306,0,1,1,2.7386127875258306,0" style="fill: none; stroke: #4c78a8; stroke-width: 2; opacity: 0.7;"></path><path transform="translate(44.25283073456631,281.1882991920954)" d="M2.7386127875258306,0A2.7386127875258306,2.7386127875258306,0,1,1,-2.7386127875258306,0A2.7386127875258306,2.7386127875258306,0,1,1,2.7386127875258306,0" style="fill: none; stroke: #4c78a8; stroke-width: 2; opacity: 0.7;"></path><path transform="translate(44.41721717860259,279.34519838156064)" d="M2.7386127875258306,0A2.7386127875258306,2.7386127875258306,0,1,1,-2.7386127875258306,0A2.7386127875258306,2.7386127875258306,0,1,1,2.7386127875258306,0" style="fill: none; stroke: #4c78a8; stroke-width: 2; opacity: 0.7;"></path><path transform="translate(44.61448091144612,276.6157258647823)" d="M2.7386127875258306,0A2.7386127875258306,2.7386127875258306,0,1,1,-2.7386127875258306,0A2.7386127875258306,2.7386127875258306,0,1,1,2.7386127875258306,0" style="fill: none; stroke: #4c78a8; stroke-width: 2; opacity: 0.7;"></path><path transform="translate(44.713112777867885,275.79247855304857)" d="M2.7386127875258306,0A2.7386127875258306,2.7386127875258306,0,1,1,-2.7386127875258306,0A2.7386127875258306,2.7386127875258306,0,1,1,2.7386127875258306,0" style="fill: none; stroke: #4c78a8; stroke-width: 2; opacity: 0.7;"></path><path transform="translate(44.7788673554824,275.66622976402874)" d="M2.7386127875258306,0A2.7386127875258306,2.7386127875258306,0,1,1,-2.7386127875258306,0A2.7386127875258306,2.7386127875258306,0,1,1,2.7386127875258306,0" style="fill: none; stroke: #4c78a8; stroke-width: 2; opacity: 0.7;"></path><path transform="translate(44.94325379951868,274.6924044695578)" d="M2.7386127875258306,0A2.7386127875258306,2.7386127875258306,0,1,1,-2.7386127875258306,0A2.7386127875258306,2.7386127875258306,0,1,1,2.7386127875258306,0" style="fill: none; stroke: #4c78a8; stroke-width: 2; opacity: 0.7;"></path><path transform="translate(45.10764024355496,272.0628789107535)" d="M2.7386127875258306,0A2.7386127875258306,2.7386127875258306,0,1,1,-2.7386127875258306,0A2.7386127875258306,2.7386127875258306,0,1,1,2.7386127875258306,0" style="fill: none; stroke: #4c78a8; stroke-width: 2; opacity: 0.7;"></path><path transform="translate(45.370658554013005,269.55039650010303)" d="M2.7386127875258306,0A2.7386127875258306,2.7386127875258306,0,1,1,-2.7386127875258306,0A2.7386127875258306,2.7386127875258306,0,1,1,2.7386127875258306,0" style="fill: none; stroke: #4c78a8; stroke-width: 2; opacity: 0.7;"></path><path transform="translate(45.99532704135086,266.77423823321834)" d="M2.7386127875258306,0A2.7386127875258306,2.7386127875258306,0,1,1,-2.7386127875258306,0A2.7386127875258306,2.7386127875258306,0,1,1,2.7386127875258306,0" style="fill: none; stroke: #4c78a8; stroke-width: 2; opacity: 0.7;"></path><path transform="translate(46.94876841676128,263.7889804095195)" d="M2.7386127875258306,0A2.7386127875258306,2.7386127875258306,0,1,1,-2.7386127875258306,0A2.7386127875258306,2.7386127875258306,0,1,1,2.7386127875258306,0" style="fill: none; stroke: #4c78a8; stroke-width: 2; opacity: 0.7;"></path><path transform="translate(47.014522994375795,262.635645118161)" d="M2.7386127875258306,0A2.7386127875258306,2.7386127875258306,0,1,1,-2.7386127875258306,0A2.7386127875258306,2.7386127875258306,0,1,1,2.7386127875258306,0" style="fill: none; stroke: #4c78a8; stroke-width: 2; opacity: 0.7;"></path><path transform="translate(47.047400283183045,262.4561351212734)" d="M2.7386127875258306,0A2.7386127875258306,2.7386127875258306,0,1,1,-2.7386127875258306,0A2.7386127875258306,2.7386127875258306,0,1,1,2.7386127875258306,0" style="fill: none; stroke: #4c78a8; stroke-width: 2; opacity: 0.7;"></path><path transform="translate(47.86933250336445,259.6017289070274)" d="M2.7386127875258306,0A2.7386127875258306,2.7386127875258306,0,1,1,-2.7386127875258306,0A2.7386127875258306,2.7386127875258306,0,1,1,2.7386127875258306,0" style="fill: none; stroke: #4c78a8; stroke-width: 2; opacity: 0.7;"></path><path transform="translate(48.42824641308779,256.50074302672704)" d="M2.7386127875258306,0A2.7386127875258306,2.7386127875258306,0,1,1,-2.7386127875258306,0A2.7386127875258306,2.7386127875258306,0,1,1,2.7386127875258306,0" style="fill: none; stroke: #4c78a8; stroke-width: 2; opacity: 0.7;"></path><path transform="translate(48.7241420123531,253.12490301199801)" d="M2.7386127875258306,0A2.7386127875258306,2.7386127875258306,0,1,1,-2.7386127875258306,0A2.7386127875258306,2.7386127875258306,0,1,1,2.7386127875258306,0" style="fill: none; stroke: #4c78a8; stroke-width: 2; opacity: 0.7;"></path><path transform="translate(49.052914900425655,249.49853805655766)" d="M2.7386127875258306,0A2.7386127875258306,2.7386127875258306,0,1,1,-2.7386127875258306,0A2.7386127875258306,2.7386127875258306,0,1,1,2.7386127875258306,0" style="fill: none; stroke: #4c78a8; stroke-width: 2; opacity: 0.7;"></path><path transform="translate(49.38168778849821,245.9964492528088)" d="M2.7386127875258306,0A2.7386127875258306,2.7386127875258306,0,1,1,-2.7386127875258306,0A2.7386127875258306,2.7386127875258306,0,1,1,2.7386127875258306,0" style="fill: none; stroke: #4c78a8; stroke-width: 2; opacity: 0.7;"></path><path transform="translate(49.51319694372724,244.89440253198958)" d="M2.7386127875258306,0A2.7386127875258306,2.7386127875258306,0,1,1,-2.7386127875258306,0A2.7386127875258306,2.7386127875258306,0,1,1,2.7386127875258306,0" style="fill: none; stroke: #4c78a8; stroke-width: 2; opacity: 0.7;"></path><path transform="translate(49.57895152134175,244.70502934845982)" d="M2.7386127875258306,0A2.7386127875258306,2.7386127875258306,0,1,1,-2.7386127875258306,0A2.7386127875258306,2.7386127875258306,0,1,1,2.7386127875258306,0" style="fill: none; stroke: #4c78a8; stroke-width: 2; opacity: 0.7;"></path><path transform="translate(49.87484712060705,241.33444969993994)" d="M2.7386127875258306,0A2.7386127875258306,2.7386127875258306,0,1,1,-2.7386127875258306,0A2.7386127875258306,2.7386127875258306,0,1,1,2.7386127875258306,0" style="fill: none; stroke: #4c78a8; stroke-width: 2; opacity: 0.7;"></path><path transform="translate(50.26937458629412,238.0513236396474)" d="M2.7386127875258306,0A2.7386127875258306,2.7386127875258306,0,1,1,-2.7386127875258306,0A2.7386127875258306,2.7386127875258306,0,1,1,2.7386127875258306,0" style="fill: none; stroke: #4c78a8; stroke-width: 2; opacity: 0.7;"></path><path transform="translate(50.7296566295957,235.15746467883275)" d="M2.7386127875258306,0A2.7386127875258306,2.7386127875258306,0,1,1,-2.7386127875258306,0A2.7386127875258306,2.7386127875258306,0,1,1,2.7386127875258306,0" style="fill: none; stroke: #4c78a8; stroke-width: 2; opacity: 0.7;"></path><path transform="translate(51.091306806475515,231.85592733680812)" d="M2.7386127875258306,0A2.7386127875258306,2.7386127875258306,0,1,1,-2.7386127875258306,0A2.7386127875258306,2.7386127875258306,0,1,1,2.7386127875258306,0" style="fill: none; stroke: #4c78a8; stroke-width: 2; opacity: 0.7;"></path><path transform="translate(51.6173434273916,228.94562973158983)" d="M2.7386127875258306,0A2.7386127875258306,2.7386127875258306,0,1,1,-2.7386127875258306,0A2.7386127875258306,2.7386127875258306,0,1,1,2.7386127875258306,0" style="fill: none; stroke: #4c78a8; stroke-width: 2; opacity: 0.7;"></path><path transform="translate(51.97899360427142,227.77980107048452)" d="M2.7386127875258306,0A2.7386127875258306,2.7386127875258306,0,1,1,-2.7386127875258306,0A2.7386127875258306,2.7386127875258306,0,1,1,2.7386127875258306,0" style="fill: none; stroke: #4c78a8; stroke-width: 2; opacity: 0.7;"></path><path transform="translate(52.20913462592221,227.55689305237132)" d="M2.7386127875258306,0A2.7386127875258306,2.7386127875258306,0,1,1,-2.7386127875258306,0A2.7386127875258306,2.7386127875258306,0,1,1,2.7386127875258306,0" style="fill: none; stroke: #4c78a8; stroke-width: 2; opacity: 0.7;"></path><path transform="translate(52.76804853564556,224.68276046484104)" d="M2.7386127875258306,0A2.7386127875258306,2.7386127875258306,0,1,1,-2.7386127875258306,0A2.7386127875258306,2.7386127875258306,0,1,1,2.7386127875258306,0" style="fill: none; stroke: #4c78a8; stroke-width: 2; opacity: 0.7;"></path><path transform="translate(53.425594311790675,221.97958977910844)" d="M2.7386127875258306,0A2.7386127875258306,2.7386127875258306,0,1,1,-2.7386127875258306,0A2.7386127875258306,2.7386127875258306,0,1,1,2.7386127875258306,0" style="fill: none; stroke: #4c78a8; stroke-width: 2; opacity: 0.7;"></path><path transform="translate(53.88587635509225,219.19882869179077)" d="M2.7386127875258306,0A2.7386127875258306,2.7386127875258306,0,1,1,-2.7386127875258306,0A2.7386127875258306,2.7386127875258306,0,1,1,2.7386127875258306,0" style="fill: none; stroke: #4c78a8; stroke-width: 2; opacity: 0.7;"></path><path transform="translate(54.54342213123738,215.67832860630978)" d="M2.7386127875258306,0A2.7386127875258306,2.7386127875258306,0,1,1,-2.7386127875258306,0A2.7386127875258306,2.7386127875258306,0,1,1,2.7386127875258306,0" style="fill: none; stroke: #4c78a8; stroke-width: 2; opacity: 0.7;"></path><path transform="translate(55.03658146334621,212.23804910551854)" d="M2.7386127875258306,0A2.7386127875258306,2.7386127875258306,0,1,1,-2.7386127875258306,0A2.7386127875258306,2.7386127875258306,0,1,1,2.7386127875258306,0" style="fill: none; stroke: #4c78a8; stroke-width: 2; opacity: 0.7;"></path><path transform="translate(55.135213329767986,211.0294799689638)" d="M2.7386127875258306,0A2.7386127875258306,2.7386127875258306,0,1,1,-2.7386127875258306,0A2.7386127875258306,2.7386127875258306,0,1,1,2.7386127875258306,0" style="fill: none; stroke: #4c78a8; stroke-width: 2; opacity: 0.7;"></path><path transform="translate(55.135213329767986,210.8512850636285)" d="M2.7386127875258306,0A2.7386127875258306,2.7386127875258306,0,1,1,-2.7386127875258306,0A2.7386127875258306,2.7386127875258306,0,1,1,2.7386127875258306,0" style="fill: none; stroke: #4c78a8; stroke-width: 2; opacity: 0.7;"></path><path transform="translate(55.99002283875662,207.9423025499625)" d="M2.7386127875258306,0A2.7386127875258306,2.7386127875258306,0,1,1,-2.7386127875258306,0A2.7386127875258306,2.7386127875258306,0,1,1,2.7386127875258306,0" style="fill: none; stroke: #4c78a8; stroke-width: 2; opacity: 0.7;"></path><path transform="translate(57.43662354627588,205.35222973772693)" d="M2.7386127875258306,0A2.7386127875258306,2.7386127875258306,0,1,1,-2.7386127875258306,0A2.7386127875258306,2.7386127875258306,0,1,1,2.7386127875258306,0" style="fill: none; stroke: #4c78a8; stroke-width: 2; opacity: 0.7;"></path><path transform="translate(58.45581949930081,202.70692308029507)" d="M2.7386127875258306,0A2.7386127875258306,2.7386127875258306,0,1,1,-2.7386127875258306,0A2.7386127875258306,2.7386127875258306,0,1,1,2.7386127875258306,0" style="fill: none; stroke: #4c78a8; stroke-width: 2; opacity: 0.7;"></path><path transform="translate(60.00105207324184,200.0734522468339)" d="M2.7386127875258306,0A2.7386127875258306,2.7386127875258306,0,1,1,-2.7386127875258306,0A2.7386127875258306,2.7386127875258306,0,1,1,2.7386127875258306,0" style="fill: none; stroke: #4c78a8; stroke-width: 2; opacity: 0.7;"></path><path transform="translate(61.41477549195383,197.5109963571964)" d="M2.7386127875258306,0A2.7386127875258306,2.7386127875258306,0,1,1,-2.7386127875258306,0A2.7386127875258306,2.7386127875258306,0,1,1,2.7386127875258306,0" style="fill: none; stroke: #4c78a8; stroke-width: 2; opacity: 0.7;"></path><path transform="translate(61.842180246448166,196.5739936261896)" d="M2.7386127875258306,0A2.7386127875258306,2.7386127875258306,0,1,1,-2.7386127875258306,0A2.7386127875258306,2.7386127875258306,0,1,1,2.7386127875258306,0" style="fill: none; stroke: #4c78a8; stroke-width: 2; opacity: 0.7;"></path><path transform="translate(61.940812112869935,196.40171663283954)" d="M2.7386127875258306,0A2.7386127875258306,2.7386127875258306,0,1,1,-2.7386127875258306,0A2.7386127875258306,2.7386127875258306,0,1,1,2.7386127875258306,0" style="fill: none; stroke: #4c78a8; stroke-width: 2; opacity: 0.7;"></path><path transform="translate(64.6367497950649,193.36517023860145)" d="M2.7386127875258306,0A2.7386127875258306,2.7386127875258306,0,1,1,-2.7386127875258306,0A2.7386127875258306,2.7386127875258306,0,1,1,2.7386127875258306,0" style="fill: none; stroke: #4c78a8; stroke-width: 2; opacity: 0.7;"></path><path transform="translate(67.52995121010342,190.62649208095704)" d="M2.7386127875258306,0A2.7386127875258306,2.7386127875258306,0,1,1,-2.7386127875258306,0A2.7386127875258306,2.7386127875258306,0,1,1,2.7386127875258306,0" style="fill: none; stroke: #4c78a8; stroke-width: 2; opacity: 0.7;"></path><path transform="translate(70.02862515945485,187.6760841833939)" d="M2.7386127875258306,0A2.7386127875258306,2.7386127875258306,0,1,1,-2.7386127875258306,0A2.7386127875258306,2.7386127875258306,0,1,1,2.7386127875258306,0" style="fill: none; stroke: #4c78a8; stroke-width: 2; opacity: 0.7;"></path><path transform="translate(73.84239066109653,184.4343835069985)" d="M2.7386127875258306,0A2.7386127875258306,2.7386127875258306,0,1,1,-2.7386127875258306,0A2.7386127875258306,2.7386127875258306,0,1,1,2.7386127875258306,0" style="fill: none; stroke: #4c78a8; stroke-width: 2; opacity: 0.7;"></path><path transform="translate(78.5438429605341,181.3176165280706)" d="M2.7386127875258306,0A2.7386127875258306,2.7386127875258306,0,1,1,-2.7386127875258306,0A2.7386127875258306,2.7386127875258306,0,1,1,2.7386127875258306,0" style="fill: none; stroke: #4c78a8; stroke-width: 2; opacity: 0.7;"></path><path transform="translate(79.00412500383568,181.10785942548034)" d="M2.7386127875258306,0A2.7386127875258306,2.7386127875258306,0,1,1,-2.7386127875258306,0A2.7386127875258306,2.7386127875258306,0,1,1,2.7386127875258306,0" style="fill: none; stroke: #4c78a8; stroke-width: 2; opacity: 0.7;"></path><path transform="translate(79.49728433594451,180.90270514332303)" d="M2.7386127875258306,0A2.7386127875258306,2.7386127875258306,0,1,1,-2.7386127875258306,0A2.7386127875258306,2.7386127875258306,0,1,1,2.7386127875258306,0" style="fill: none; stroke: #4c78a8; stroke-width: 2; opacity: 0.7;"></path><path transform="translate(85.90835565335941,176.97321158507984)" d="M2.7386127875258306,0A2.7386127875258306,2.7386127875258306,0,1,1,-2.7386127875258306,0A2.7386127875258306,2.7386127875258306,0,1,1,2.7386127875258306,0" style="fill: none; stroke: #4c78a8; stroke-width: 2; opacity: 0.7;"></path><path transform="translate(93.86465954471531,173.23506384769487)" d="M2.7386127875258306,0A2.7386127875258306,2.7386127875258306,0,1,1,-2.7386127875258306,0A2.7386127875258306,2.7386127875258306,0,1,1,2.7386127875258306,0" style="fill: none; stroke: #4c78a8; stroke-width: 2; opacity: 0.7;"></path><path transform="translate(100.67025832781725,169.50809438850433)" d="M2.7386127875258306,0A2.7386127875258306,2.7386127875258306,0,1,1,-2.7386127875258306,0A2.7386127875258306,2.7386127875258306,0,1,1,2.7386127875258306,0" style="fill: none; stroke: #4c78a8; stroke-width: 2; opacity: 0.7;"></path><path transform="translate(108.33066661990784,165.36424090723781)" d="M2.7386127875258306,0A2.7386127875258306,2.7386127875258306,0,1,1,-2.7386127875258306,0A2.7386127875258306,2.7386127875258306,0,1,1,2.7386127875258306,0" style="fill: none; stroke: #4c78a8; stroke-width: 2; opacity: 0.7;"></path><path transform="translate(118.68701259419342,160.88766926324186)" d="M2.7386127875258306,0A2.7386127875258306,2.7386127875258306,0,1,1,-2.7386127875258306,0A2.7386127875258306,2.7386127875258306,0,1,1,2.7386127875258306,0" style="fill: none; stroke: #4c78a8; stroke-width: 2; opacity: 0.7;"></path><path transform="translate(122.92818285032942,159.36216306258518)" d="M2.7386127875258306,0A2.7386127875258306,2.7386127875258306,0,1,1,-2.7386127875258306,0A2.7386127875258306,2.7386127875258306,0,1,1,2.7386127875258306,0" style="fill: none; stroke: #4c78a8; stroke-width: 2; opacity: 0.7;"></path><path transform="translate(124.5062927130777,158.930813033434)" d="M2.7386127875258306,0A2.7386127875258306,2.7386127875258306,0,1,1,-2.7386127875258306,0A2.7386127875258306,2.7386127875258306,0,1,1,2.7386127875258306,0" style="fill: none; stroke: #4c78a8; stroke-width: 2; opacity: 0.7;"></path><path transform="translate(138.15036756808888,153.4186067920095)" d="M2.7386127875258306,0A2.7386127875258306,2.7386127875258306,0,1,1,-2.7386127875258306,0A2.7386127875258306,2.7386127875258306,0,1,1,2.7386127875258306,0" style="fill: none; stroke: #4c78a8; stroke-width: 2; opacity: 0.7;"></path><path transform="translate(149.03275016329053,147.6841500782479)" d="M2.7386127875258306,0A2.7386127875258306,2.7386127875258306,0,1,1,-2.7386127875258306,0A2.7386127875258306,2.7386127875258306,0,1,1,2.7386127875258306,0" style="fill: none; stroke: #4c78a8; stroke-width: 2; opacity: 0.7;"></path><path transform="translate(161.95352466454207,142.48099035161164)" d="M2.7386127875258306,0A2.7386127875258306,2.7386127875258306,0,1,1,-2.7386127875258306,0A2.7386127875258306,2.7386127875258306,0,1,1,2.7386127875258306,0" style="fill: none; stroke: #4c78a8; stroke-width: 2; opacity: 0.7;"></path><path transform="translate(171.7509567291043,139.15512381586964)" d="M2.7386127875258306,0A2.7386127875258306,2.7386127875258306,0,1,1,-2.7386127875258306,0A2.7386127875258306,2.7386127875258306,0,1,1,2.7386127875258306,0" style="fill: none; stroke: #4c78a8; stroke-width: 2; opacity: 0.7;"></path><path transform="translate(179.57575146523118,136.22049701693396)" d="M2.7386127875258306,0A2.7386127875258306,2.7386127875258306,0,1,1,-2.7386127875258306,0A2.7386127875258306,2.7386127875258306,0,1,1,2.7386127875258306,0" style="fill: none; stroke: #4c78a8; stroke-width: 2; opacity: 0.7;"></path><path transform="translate(182.43607559146244,135.5491427794898)" d="M2.7386127875258306,0A2.7386127875258306,2.7386127875258306,0,1,1,-2.7386127875258306,0A2.7386127875258306,2.7386127875258306,0,1,1,2.7386127875258306,0" style="fill: none; stroke: #4c78a8; stroke-width: 2; opacity: 0.7;"></path><path transform="translate(184.57309936393406,135.0737371833369)" d="M2.7386127875258306,0A2.7386127875258306,2.7386127875258306,0,1,1,-2.7386127875258306,0A2.7386127875258306,2.7386127875258306,0,1,1,2.7386127875258306,0" style="fill: none; stroke: #4c78a8; stroke-width: 2; opacity: 0.7;"></path><path transform="translate(193.9102493851947,132.2245913353001)" d="M2.7386127875258306,0A2.7386127875258306,2.7386127875258306,0,1,1,-2.7386127875258306,0A2.7386127875258306,2.7386127875258306,0,1,1,2.7386127875258306,0" style="fill: none; stroke: #4c78a8; stroke-width: 2; opacity: 0.7;"></path><path transform="translate(202.35971260865946,129.49840654740248)" d="M2.7386127875258306,0A2.7386127875258306,2.7386127875258306,0,1,1,-2.7386127875258306,0A2.7386127875258306,2.7386127875258306,0,1,1,2.7386127875258306,0" style="fill: none; stroke: #4c78a8; stroke-width: 2; opacity: 0.7;"></path><path transform="translate(211.36808974184754,126.96554021769145)" d="M2.7386127875258306,0A2.7386127875258306,2.7386127875258306,0,1,1,-2.7386127875258306,0A2.7386127875258306,2.7386127875258306,0,1,1,2.7386127875258306,0" style="fill: none; stroke: #4c78a8; stroke-width: 2; opacity: 0.7;"></path><path transform="translate(219.52165736604695,124.92320303698477)" d="M2.7386127875258306,0A2.7386127875258306,2.7386127875258306,0,1,1,-2.7386127875258306,0A2.7386127875258306,2.7386127875258306,0,1,1,2.7386127875258306,0" style="fill: none; stroke: #4c78a8; stroke-width: 2; opacity: 0.7;"></path><path transform="translate(228.2012616111625,122.99659391287956)" d="M2.7386127875258306,0A2.7386127875258306,2.7386127875258306,0,1,1,-2.7386127875258306,0A2.7386127875258306,2.7386127875258306,0,1,1,2.7386127875258306,0" style="fill: none; stroke: #4c78a8; stroke-width: 2; opacity: 0.7;"></path><path transform="translate(230.6013036940922,122.6342861902236)" d="M2.7386127875258306,0A2.7386127875258306,2.7386127875258306,0,1,1,-2.7386127875258306,0A2.7386127875258306,2.7386127875258306,0,1,1,2.7386127875258306,0" style="fill: none; stroke: #4c78a8; stroke-width: 2; opacity: 0.7;"></path><path transform="translate(232.4424318672985,122.40809044322967)" d="M2.7386127875258306,0A2.7386127875258306,2.7386127875258306,0,1,1,-2.7386127875258306,0A2.7386127875258306,2.7386127875258306,0,1,1,2.7386127875258306,0" style="fill: none; stroke: #4c78a8; stroke-width: 2; opacity: 0.7;"></path><path transform="translate(240.20147202581086,120.62548384410029)" d="M2.7386127875258306,0A2.7386127875258306,2.7386127875258306,0,1,1,-2.7386127875258306,0A2.7386127875258306,2.7386127875258306,0,1,1,2.7386127875258306,0" style="fill: none; stroke: #4c78a8; stroke-width: 2; opacity: 0.7;"></path><path transform="translate(248.61805796046835,118.59695512469258)" d="M2.7386127875258306,0A2.7386127875258306,2.7386127875258306,0,1,1,-2.7386127875258306,0A2.7386127875258306,2.7386127875258306,0,1,1,2.7386127875258306,0" style="fill: none; stroke: #4c78a8; stroke-width: 2; opacity: 0.7;"></path><path transform="translate(255.39077945476305,117.1878345264136)" d="M2.7386127875258306,0A2.7386127875258306,2.7386127875258306,0,1,1,-2.7386127875258306,0A2.7386127875258306,2.7386127875258306,0,1,1,2.7386127875258306,0" style="fill: none; stroke: #4c78a8; stroke-width: 2; opacity: 0.7;"></path><path transform="translate(257.4949259384274,116.57171413416563)" d="M2.7386127875258306,0A2.7386127875258306,2.7386127875258306,0,1,1,-2.7386127875258306,0A2.7386127875258306,2.7386127875258306,0,1,1,2.7386127875258306,0" style="fill: none; stroke: #4c78a8; stroke-width: 2; opacity: 0.7;"></path><path transform="translate(266.4704257828082,114.74505196803452)" d="M2.7386127875258306,0A2.7386127875258306,2.7386127875258306,0,1,1,-2.7386127875258306,0A2.7386127875258306,2.7386127875258306,0,1,1,2.7386127875258306,0" style="fill: none; stroke: #4c78a8; stroke-width: 2; opacity: 0.7;"></path><path transform="translate(268.34443124482186,114.1841654209827)" d="M2.7386127875258306,0A2.7386127875258306,2.7386127875258306,0,1,1,-2.7386127875258306,0A2.7386127875258306,2.7386127875258306,0,1,1,2.7386127875258306,0" style="fill: none; stroke: #4c78a8; stroke-width: 2; opacity: 0.7;"></path><path transform="translate(268.4759404000509,113.92772256828611)" d="M2.7386127875258306,0A2.7386127875258306,2.7386127875258306,0,1,1,-2.7386127875258306,0A2.7386127875258306,2.7386127875258306,0,1,1,2.7386127875258306,0" style="fill: none; stroke: #4c78a8; stroke-width: 2; opacity: 0.7;"></path><path transform="translate(270.4485777284862,111.7584790527834)" d="M2.7386127875258306,0A2.7386127875258306,2.7386127875258306,0,1,1,-2.7386127875258306,0A2.7386127875258306,2.7386127875258306,0,1,1,2.7386127875258306,0" style="fill: none; stroke: #4c78a8; stroke-width: 2; opacity: 0.7;"></path><path transform="translate(270.58008688371524,109.54846769915964)" d="M2.7386127875258306,0A2.7386127875258306,2.7386127875258306,0,1,1,-2.7386127875258306,0A2.7386127875258306,2.7386127875258306,0,1,1,2.7386127875258306,0" style="fill: none; stroke: #4c78a8; stroke-width: 2; opacity: 0.7;"></path><path transform="translate(270.58008688371524,107.81583457901726)" d="M2.7386127875258306,0A2.7386127875258306,2.7386127875258306,0,1,1,-2.7386127875258306,0A2.7386127875258306,2.7386127875258306,0,1,1,2.7386127875258306,0" style="fill: none; stroke: #4c78a8; stroke-width: 2; opacity: 0.7;"></path><path transform="translate(270.58008688371524,107.12935678872176)" d="M2.7386127875258306,0A2.7386127875258306,2.7386127875258306,0,1,1,-2.7386127875258306,0A2.7386127875258306,2.7386127875258306,0,1,1,2.7386127875258306,0" style="fill: none; stroke: #4c78a8; stroke-width: 2; opacity: 0.7;"></path></g></g><path class="foreground" d="" style="display: none; fill: none;"></path></g></g></g></svg>