<svg class="marks" width="626" height="204" viewBox="0 0 626 204" version="1.1" xmlns="http://www.w3.org/2000/svg" xmlns:xlink="http://www.w3.org/1999/xlink"><rect width="626" height="204" style="fill: white;"></rect><g transform="translate(45,13)"><g class="mark-group role-frame root"><g transform="translate(0,0)"><path class="background" d="M0,0h0v0h0Z" style="fill: none;"></path><g><g class="mark-group role-row-header row_header"><g transform="translate(-1,0)"><path class="background" d="M0,0h0v37h0Z" style="fill: none;"></path><g><g class="mark-group role-axis"><g transform="translate(0.5,0.5)"><path class="background" d="M0,0h0v0h0Z" style="pointer-events: none; fill: none;"></path><g><g class="mark-rule role-axis-tick" style="pointer-events: none;"><line transform="translate(0,37)" x2="-5" y2="0" style="fill: none; stroke: #888; stroke-width: 1; opacity: 1;"></line><line transform="translate(0,11)" x2="-5" y2="0" style="fill: none; stroke: #888; stroke-width: 1; opacity: 1;"></line></g><g class="mark-text role-axis-label" style="pointer-events: none;"><text text-anchor="end" transform="translate(-7,41)" style="font-family: sans-serif; font-size: 14px; fill: #000; opacity: 1;">0</text><text text-anchor="end" transform="translate(-7,14.571428571428571)" style="font-family: sans-serif; font-size: 14px; fill: #000; opacity: 1;">5</text></g><g class="mark-rule role-axis-domain" style="pointer-events: none;"><line transform="translate(0,37)" x2="0" y2="-37" style="fill: none; stroke: #888; stroke-width: 1; opacity: 1;"></line></g></g><path class="foreground" d="" style="pointer-events: none; display: none; fill: none;"></path></g></g><g class="mark-group role-title"><g transform="translate(-38.7861328125,18.5)"><path class="background" d="M0,0h0v0h0Z" style="pointer-events: none; fill: none;"></path><g><g class="mark-text role-title-text" style="pointer-events: none;"><text text-anchor="middle" transform="translate(0,0) rotate(-90) translate(0,11)" style="font-family: sans-serif; font-size: 14px; fill: #000; opacity: 1;">Pruebas</text></g></g><path class="foreground" d="" style="pointer-events: none; display: none; fill: none;"></path></g></g></g><path class="foreground" d="" style="display: none; fill: none;"></path></g><g transform="translate(-1,70)"><path class="background" d="M0,0h0v37h0Z" style="fill: none;"></path><g><g class="mark-group role-axis"><g transform="translate(0.5,0.5)"><path class="background" d="M0,0h0v0h0Z" style="pointer-events: none; fill: none;"></path><g><g class="mark-rule role-axis-tick" style="pointer-events: none;"><line transform="translate(0,37)" x2="-5" y2="0" style="fill: none; stroke: #888; stroke-width: 1; opacity: 1;"></line><line transform="translate(0,11)" x2="-5" y2="0" style="fill: none; stroke: #888; stroke-width: 1; opacity: 1;"></line></g><g class="mark-text role-axis-label" style="pointer-events: none;"><text text-anchor="end" transform="translate(-7,41)" style="font-family: sans-serif; font-size: 14px; fill: #000; opacity: 1;">0</text><text text-anchor="end" transform="translate(-7,14.571428571428571)" style="font-family: sans-serif; font-size: 14px; fill: #000; opacity: 1;">5</text></g><g class="mark-rule role-axis-domain" style="pointer-events: none;"><line transform="translate(0,37)" x2="0" y2="-37" style="fill: none; stroke: #888; stroke-width: 1; opacity: 1;"></line></g></g><path class="foreground" d="" style="pointer-events: none; display: none; fill: none;"></path></g></g><g class="mark-group role-title"><g transform="translate(-38.7861328125,18.5)"><path class="background" d="M0,0h0v0h0Z" style="pointer-events: none; fill: none;"></path><g><g class="mark-text role-title-text" style="pointer-events: none;"><text text-anchor="middle" transform="translate(0,0) rotate(-90) translate(0,11)" style="font-family: sans-serif; font-size: 14px; fill: #000; opacity: 1;">Positivas</text></g></g><path class="foreground" d="" style="pointer-events: none; display: none; fill: none;"></path></g></g></g><path class="foreground" d="" style="display: none; fill: none;"></path></g></g><g class="mark-group role-column-footer column_footer"><g transform="translate(0,119)"><path class="background" d="M0,0h575v0h-575Z" style="fill: none;"></path><g><g class="mark-group role-axis"><g transform="translate(0.5,0.5)"><path class="background" d="M0,0h0v0h0Z" style="pointer-events: none; fill: none;"></path><g><g class="mark-rule role-axis-tick" style="pointer-events: none;"><line transform="translate(19,0)" x2="0" y2="5" style="fill: none; stroke: #888; stroke-width: 1; opacity: 1;"></line><line transform="translate(57,0)" x2="0" y2="5" style="fill: none; stroke: #888; stroke-width: 1; opacity: 1;"></line><line transform="translate(96,0)" x2="0" y2="5" style="fill: none; stroke: #888; stroke-width: 1; opacity: 1;"></line><line transform="translate(134,0)" x2="0" y2="5" style="fill: none; stroke: #888; stroke-width: 1; opacity: 1;"></line><line transform="translate(172,0)" x2="0" y2="5" style="fill: none; stroke: #888; stroke-width: 1; opacity: 1;"></line><line transform="translate(211,0)" x2="0" y2="5" style="fill: none; stroke: #888; stroke-width: 1; opacity: 1;"></line><line transform="translate(249,0)" x2="0" y2="5" style="fill: none; stroke: #888; stroke-width: 1; opacity: 1;"></line><line transform="translate(288,0)" x2="0" y2="5" style="fill: none; stroke: #888; stroke-width: 1; opacity: 1;"></line><line transform="translate(326,0)" x2="0" y2="5" style="fill: none; stroke: #888; stroke-width: 1; opacity: 1;"></line><line transform="translate(364,0)" x2="0" y2="5" style="fill: none; stroke: #888; stroke-width: 1; opacity: 1;"></line><line transform="translate(403,0)" x2="0" y2="5" style="fill: none; stroke: #888; stroke-width: 1; opacity: 1;"></line><line transform="translate(441,0)" x2="0" y2="5" style="fill: none; stroke: #888; stroke-width: 1; opacity: 1;"></line><line transform="translate(479,0)" x2="0" y2="5" style="fill: none; stroke: #888; stroke-width: 1; opacity: 1;"></line><line transform="translate(518,0)" x2="0" y2="5" style="fill: none; stroke: #888; stroke-width: 1; opacity: 1;"></line><line transform="translate(556,0)" x2="0" y2="5" style="fill: none; stroke: #888; stroke-width: 1; opacity: 1;"></line></g><g class="mark-text role-axis-label" style="pointer-events: none;"><text text-anchor="end" transform="translate(19.16666666666663,7) rotate(270) translate(0,4)" style="font-family: sans-serif; font-size: 14px; fill: #000; opacity: 1;">19/07</text><text text-anchor="end" transform="translate(57.499999999999964,7) rotate(270) translate(0,4)" style="font-family: sans-serif; font-size: 14px; fill: #000; opacity: 1;">20/07</text><text text-anchor="end" transform="translate(95.8333333333333,7) rotate(270) translate(0,4)" style="font-family: sans-serif; font-size: 14px; fill: #000; opacity: 1;">21/07</text><text text-anchor="end" transform="translate(134.16666666666663,7) rotate(270) translate(0,4)" style="font-family: sans-serif; font-size: 14px; fill: #000; opacity: 1;">22/07</text><text text-anchor="end" transform="translate(172.49999999999997,7) rotate(270) translate(0,4)" style="font-family: sans-serif; font-size: 14px; fill: #000; opacity: 1;">23/07</text><text text-anchor="end" transform="translate(210.83333333333331,7) rotate(270) translate(0,4)" style="font-family: sans-serif; font-size: 14px; fill: #000; opacity: 1;">24/07</text><text text-anchor="end" transform="translate(249.16666666666663,7) rotate(270) translate(0,4)" style="font-family: sans-serif; font-size: 14px; fill: #000; opacity: 1;">25/07</text><text text-anchor="end" transform="translate(287.5,7) rotate(270) translate(0,4)" style="font-family: sans-serif; font-size: 14px; fill: #000; opacity: 1;">26/07</text><text text-anchor="end" transform="translate(325.8333333333333,7) rotate(270) translate(0,4)" style="font-family: sans-serif; font-size: 14px; fill: #000; opacity: 1;">27/07</text><text text-anchor="end" transform="translate(364.16666666666663,7) rotate(270) translate(0,4)" style="font-family: sans-serif; font-size: 14px; fill: #000; opacity: 1;">28/07</text><text text-anchor="end" transform="translate(402.5,7) rotate(270) translate(0,4)" style="font-family: sans-serif; font-size: 14px; fill: #000; opacity: 1;">29/07</text><text text-anchor="end" transform="translate(440.8333333333333,7) rotate(270) translate(0,4)" style="font-family: sans-serif; font-size: 14px; fill: #000; opacity: 1;">30/07</text><text text-anchor="end" transform="translate(479.16666666666663,7) rotate(270) translate(0,4)" style="font-family: sans-serif; font-size: 14px; fill: #000; opacity: 1;">31/07</text><text text-anchor="end" transform="translate(517.5,7) rotate(270) translate(0,4)" style="font-family: sans-serif; font-size: 14px; fill: #000; opacity: 1;">01/08</text><text text-anchor="end" transform="translate(555.8333333333334,7) rotate(270) translate(0,4)" style="font-family: sans-serif; font-size: 14px; fill: #000; opacity: 1;">02/08</text></g><g class="mark-rule role-axis-domain" style="pointer-events: none;"><line transform="translate(0,0)" x2="575" y2="0" style="fill: none; stroke: #888; stroke-width: 1; opacity: 1;"></line></g><g class="mark-text role-axis-title" style="pointer-events: none;"><text text-anchor="middle" transform="translate(287.5,63.03417968750001)" style="font-family: sans-serif; font-size: 14px; font-weight: bold; fill: #000; opacity: 1;">Fecha de récord</text></g></g><path class="foreground" d="" style="pointer-events: none; display: none; fill: none;"></path></g></g></g><path class="foreground" d="" style="display: none; fill: none;"></path></g></g><g class="mark-group role-scope cell"><g transform="translate(0,0)"><path class="background" d="M0.5,0.5h575v37h-575Z" style="fill: none; stroke: #ddd;"></path><g><g class="mark-group role-axis"><g transform="translate(0.5,0.5)"><path class="background" d="M0,0h0v0h0Z" style="pointer-events: none; fill: none;"></path><g><g class="mark-rule role-axis-grid" style="pointer-events: none;"><line transform="translate(0,37)" x2="575" y2="0" style="fill: none; stroke: #ddd; stroke-width: 1; opacity: 1;"></line><line transform="translate(0,11)" x2="575" y2="0" style="fill: none; stroke: #ddd; stroke-width: 1; opacity: 1;"></line></g></g><path class="foreground" d="" style="pointer-events: none; display: none; fill: none;"></path></g></g><g class="mark-group role-scope child_layer_0_layer_0_pathgroup"><g transform="translate(0,0)"><path class="background" d="M0,0h575v37h-575Z" style="fill: none;"></path><g><g class="mark-line role-mark child_layer_0_layer_0_marks"><path d="M19.16666666666663,18.37880920031056L57.499999999999964,17.33148521816398L95.8333333333333,16.055835196269317L134.16666666666663,14.405937012848073L172.49999999999997,13.140803914064358L210.83333333333331,11.308070380297758L249.16666666666663,10.7430662180262L287.5,10.347983918185722L325.8333333333333,8.782528825483684L364.16666666666663,3.3850841199289246L402.5,3.102639170851586L440.8333333333333,1.9507766353095617L479.16666666666663,2.219275467200207L517.5,3.0605897283238788L555.8333333333334,3.332039776861508" style="fill: none; stroke: #4c78a8; stroke-width: 3;"></path></g></g><path class="foreground" d="" style="display: none; fill: none;"></path></g></g><g class="mark-symbol role-mark child_layer_0_layer_1_marks"><path transform="translate(555.8333333333334,3.332039776861508)" d="M3.5355339059327378,0A3.5355339059327378,3.5355339059327378,0,1,1,-3.5355339059327378,0A3.5355339059327378,3.5355339059327378,0,1,1,3.5355339059327378,0" style="fill: #4c78a8; stroke-width: 2; opacity: 1;"></path><path transform="translate(517.5,3.0605897283238788)" d="M3.5355339059327378,0A3.5355339059327378,3.5355339059327378,0,1,1,-3.5355339059327378,0A3.5355339059327378,3.5355339059327378,0,1,1,3.5355339059327378,0" style="fill: #4c78a8; stroke-width: 2; opacity: 1;"></path><path transform="translate(479.16666666666663,2.219275467200207)" d="M3.5355339059327378,0A3.5355339059327378,3.5355339059327378,0,1,1,-3.5355339059327378,0A3.5355339059327378,3.5355339059327378,0,1,1,3.5355339059327378,0" style="fill: #4c78a8; stroke-width: 2; opacity: 1;"></path><path transform="translate(440.8333333333333,1.9507766353095617)" d="M3.5355339059327378,0A3.5355339059327378,3.5355339059327378,0,1,1,-3.5355339059327378,0A3.5355339059327378,3.5355339059327378,0,1,1,3.5355339059327378,0" style="fill: #4c78a8; stroke-width: 2; opacity: 1;"></path><path transform="translate(402.5,3.102639170851586)" d="M3.5355339059327378,0A3.5355339059327378,3.5355339059327378,0,1,1,-3.5355339059327378,0A3.5355339059327378,3.5355339059327378,0,1,1,3.5355339059327378,0" style="fill: #4c78a8; stroke-width: 2; opacity: 1;"></path><path transform="translate(364.16666666666663,3.3850841199289246)" d="M3.5355339059327378,0A3.5355339059327378,3.5355339059327378,0,1,1,-3.5355339059327378,0A3.5355339059327378,3.5355339059327378,0,1,1,3.5355339059327378,0" style="fill: #4c78a8; stroke-width: 2; opacity: 1;"></path><path transform="translate(325.8333333333333,8.782528825483684)" d="M3.5355339059327378,0A3.5355339059327378,3.5355339059327378,0,1,1,-3.5355339059327378,0A3.5355339059327378,3.5355339059327378,0,1,1,3.5355339059327378,0" style="fill: #4c78a8; stroke-width: 2; opacity: 1;"></path><path transform="translate(287.5,10.347983918185722)" d="M3.5355339059327378,0A3.5355339059327378,3.5355339059327378,0,1,1,-3.5355339059327378,0A3.5355339059327378,3.5355339059327378,0,1,1,3.5355339059327378,0" style="fill: #4c78a8; stroke-width: 2; opacity: 1;"></path><path transform="translate(249.16666666666663,10.7430662180262)" d="M3.5355339059327378,0A3.5355339059327378,3.5355339059327378,0,1,1,-3.5355339059327378,0A3.5355339059327378,3.5355339059327378,0,1,1,3.5355339059327378,0" style="fill: #4c78a8; stroke-width: 2; opacity: 1;"></path><path transform="translate(210.83333333333331,11.308070380297758)" d="M3.5355339059327378,0A3.5355339059327378,3.5355339059327378,0,1,1,-3.5355339059327378,0A3.5355339059327378,3.5355339059327378,0,1,1,3.5355339059327378,0" style="fill: #4c78a8; stroke-width: 2; opacity: 1;"></path><path transform="translate(172.49999999999997,13.140803914064358)" d="M3.5355339059327378,0A3.5355339059327378,3.5355339059327378,0,1,1,-3.5355339059327378,0A3.5355339059327378,3.5355339059327378,0,1,1,3.5355339059327378,0" style="fill: #4c78a8; stroke-width: 2; opacity: 1;"></path><path transform="translate(134.16666666666663,14.405937012848073)" d="M3.5355339059327378,0A3.5355339059327378,3.5355339059327378,0,1,1,-3.5355339059327378,0A3.5355339059327378,3.5355339059327378,0,1,1,3.5355339059327378,0" style="fill: #4c78a8; stroke-width: 2; opacity: 1;"></path><path transform="translate(95.8333333333333,16.055835196269317)" d="M3.5355339059327378,0A3.5355339059327378,3.5355339059327378,0,1,1,-3.5355339059327378,0A3.5355339059327378,3.5355339059327378,0,1,1,3.5355339059327378,0" style="fill: #4c78a8; stroke-width: 2; opacity: 1;"></path><path transform="translate(57.499999999999964,17.33148521816398)" d="M3.5355339059327378,0A3.5355339059327378,3.5355339059327378,0,1,1,-3.5355339059327378,0A3.5355339059327378,3.5355339059327378,0,1,1,3.5355339059327378,0" style="fill: #4c78a8; stroke-width: 2; opacity: 1;"></path><path transform="translate(19.16666666666663,18.37880920031056)" d="M3.5355339059327378,0A3.5355339059327378,3.5355339059327378,0,1,1,-3.5355339059327378,0A3.5355339059327378,3.5355339059327378,0,1,1,3.5355339059327378,0" style="fill: #4c78a8; stroke-width: 2; opacity: 1;"></path></g><g class="mark-text role-mark child_layer_1_marks"><text text-anchor="middle" transform="translate(555.8333333333334,26.332039776861507)" style="font-family: sans-serif; font-size: 15px; fill: #4c78a8;">6.4</text><text text-anchor="middle" transform="translate(517.5,26.06058972832388)" style="font-family: sans-serif; font-size: 15px; fill: #4c78a8;">6.4</text><text text-anchor="middle" transform="translate(479.16666666666663,25.219275467200205)" style="font-family: sans-serif; font-size: 15px; fill: #4c78a8;">6.6</text><text text-anchor="middle" transform="translate(440.8333333333333,24.950776635309563)" style="font-family: sans-serif; font-size: 15px; fill: #4c78a8;">6.6</text><text text-anchor="middle" transform="translate(402.5,26.102639170851585)" style="font-family: sans-serif; font-size: 15px; fill: #4c78a8;">6.4</text><text text-anchor="middle" transform="translate(364.16666666666663,26.385084119928926)" style="font-family: sans-serif; font-size: 15px; fill: #4c78a8;">6.4</text><text text-anchor="middle" transform="translate(325.8333333333333,31.782528825483684)" style="font-family: sans-serif; font-size: 15px; fill: #4c78a8;">5.3</text><text text-anchor="middle" transform="translate(287.5,33.34798391818572)" style="font-family: sans-serif; font-size: 15px; fill: #4c78a8;">5.0</text><text text-anchor="middle" transform="translate(249.16666666666663,33.7430662180262)" style="font-family: sans-serif; font-size: 15px; fill: #4c78a8;">5.0</text><text text-anchor="middle" transform="translate(210.83333333333331,34.30807038029776)" style="font-family: sans-serif; font-size: 15px; fill: #4c78a8;">4.9</text><text text-anchor="middle" transform="translate(172.49999999999997,36.14080391406436)" style="font-family: sans-serif; font-size: 15px; fill: #4c78a8;">4.5</text><text text-anchor="middle" transform="translate(134.16666666666663,37.40593701284807)" style="font-family: sans-serif; font-size: 15px; fill: #4c78a8;">4.3</text><text text-anchor="middle" transform="translate(95.8333333333333,39.055835196269314)" style="font-family: sans-serif; font-size: 15px; fill: #4c78a8;">4.0</text><text text-anchor="middle" transform="translate(57.499999999999964,40.33148521816398)" style="font-family: sans-serif; font-size: 15px; fill: #4c78a8;">3.7</text><text text-anchor="middle" transform="translate(19.16666666666663,41.378809200310556)" style="font-family: sans-serif; font-size: 15px; fill: #4c78a8;">3.5</text></g></g><path class="foreground" d="" style="display: none; fill: none;"></path></g><g transform="translate(0,70)"><path class="background" d="M0.5,0.5h575v37h-575Z" style="fill: none; stroke: #ddd;"></path><g><g class="mark-group role-axis"><g transform="translate(0.5,0.5)"><path class="background" d="M0,0h0v0h0Z" style="pointer-events: none; fill: none;"></path><g><g class="mark-rule role-axis-grid" style="pointer-events: none;"><line transform="translate(0,37)" x2="575" y2="0" style="fill: none; stroke: #ddd; stroke-width: 1; opacity: 1;"></line><line transform="translate(0,11)" x2="575" y2="0" style="fill: none; stroke: #ddd; stroke-width: 1; opacity: 1;"></line></g></g><path class="foreground" d="" style="pointer-events: none; display: none; fill: none;"></path></g></g><g class="mark-group role-scope child_layer_0_layer_0_pathgroup"><g transform="translate(0,0)"><path class="background" d="M0,0h575v37h-575Z" style="fill: none;"></path><g><g class="mark-line role-mark child_layer_0_layer_0_marks"><path d="M19.16666666666663,21.481873954266593L57.499999999999964,20.473924128872746L95.8333333333333,18.944986185600523L134.16666666666663,17.74006319640778L172.49999999999997,17.129516075571757L210.83333333333331,16.872320907347174L249.16666666666663,16.928355371186587L287.5,16.816414119295786L325.8333333333333,15.167436489607391L364.16666666666663,12.069047619047618L402.5,12.443887634105023L440.8333333333333,11.637249871729088L479.16666666666663,12.227567454507422L517.5,12.842857142857145L555.8333333333334,12.520982727442787" style="fill: none; stroke: #f58518; stroke-width: 3;"></path></g></g><path class="foreground" d="" style="display: none; fill: none;"></path></g></g><g class="mark-symbol role-mark child_layer_0_layer_1_marks"><path transform="translate(555.8333333333334,12.520982727442787)" d="M3.5355339059327378,0A3.5355339059327378,3.5355339059327378,0,1,1,-3.5355339059327378,0A3.5355339059327378,3.5355339059327378,0,1,1,3.5355339059327378,0" style="fill: #f58518; stroke-width: 2; opacity: 1;"></path><path transform="translate(517.5,12.842857142857145)" d="M3.5355339059327378,0A3.5355339059327378,3.5355339059327378,0,1,1,-3.5355339059327378,0A3.5355339059327378,3.5355339059327378,0,1,1,3.5355339059327378,0" style="fill: #f58518; stroke-width: 2; opacity: 1;"></path><path transform="translate(479.16666666666663,12.227567454507422)" d="M3.5355339059327378,0A3.5355339059327378,3.5355339059327378,0,1,1,-3.5355339059327378,0A3.5355339059327378,3.5355339059327378,0,1,1,3.5355339059327378,0" style="fill: #f58518; stroke-width: 2; opacity: 1;"></path><path transform="translate(440.8333333333333,11.637249871729088)" d="M3.5355339059327378,0A3.5355339059327378,3.5355339059327378,0,1,1,-3.5355339059327378,0A3.5355339059327378,3.5355339059327378,0,1,1,3.5355339059327378,0" style="fill: #f58518; stroke-width: 2; opacity: 1;"></path><path transform="translate(402.5,12.443887634105023)" d="M3.5355339059327378,0A3.5355339059327378,3.5355339059327378,0,1,1,-3.5355339059327378,0A3.5355339059327378,3.5355339059327378,0,1,1,3.5355339059327378,0" style="fill: #f58518; stroke-width: 2; opacity: 1;"></path><path transform="translate(364.16666666666663,12.069047619047618)" d="M3.5355339059327378,0A3.5355339059327378,3.5355339059327378,0,1,1,-3.5355339059327378,0A3.5355339059327378,3.5355339059327378,0,1,1,3.5355339059327378,0" style="fill: #f58518; stroke-width: 2; opacity: 1;"></path><path transform="translate(325.8333333333333,15.167436489607391)" d="M3.5355339059327378,0A3.5355339059327378,3.5355339059327378,0,1,1,-3.5355339059327378,0A3.5355339059327378,3.5355339059327378,0,1,1,3.5355339059327378,0" style="fill: #f58518; stroke-width: 2; opacity: 1;"></path><path transform="translate(287.5,16.816414119295786)" d="M3.5355339059327378,0A3.5355339059327378,3.5355339059327378,0,1,1,-3.5355339059327378,0A3.5355339059327378,3.5355339059327378,0,1,1,3.5355339059327378,0" style="fill: #f58518; stroke-width: 2; opacity: 1;"></path><path transform="translate(249.16666666666663,16.928355371186587)" d="M3.5355339059327378,0A3.5355339059327378,3.5355339059327378,0,1,1,-3.5355339059327378,0A3.5355339059327378,3.5355339059327378,0,1,1,3.5355339059327378,0" style="fill: #f58518; stroke-width: 2; opacity: 1;"></path><path transform="translate(210.83333333333331,16.872320907347174)" d="M3.5355339059327378,0A3.5355339059327378,3.5355339059327378,0,1,1,-3.5355339059327378,0A3.5355339059327378,3.5355339059327378,0,1,1,3.5355339059327378,0" style="fill: #f58518; stroke-width: 2; opacity: 1;"></path><path transform="translate(172.49999999999997,17.129516075571757)" d="M3.5355339059327378,0A3.5355339059327378,3.5355339059327378,0,1,1,-3.5355339059327378,0A3.5355339059327378,3.5355339059327378,0,1,1,3.5355339059327378,0" style="fill: #f58518; stroke-width: 2; opacity: 1;"></path><path transform="translate(134.16666666666663,17.74006319640778)" d="M3.5355339059327378,0A3.5355339059327378,3.5355339059327378,0,1,1,-3.5355339059327378,0A3.5355339059327378,3.5355339059327378,0,1,1,3.5355339059327378,0" style="fill: #f58518; stroke-width: 2; opacity: 1;"></path><path transform="translate(95.8333333333333,18.944986185600523)" d="M3.5355339059327378,0A3.5355339059327378,3.5355339059327378,0,1,1,-3.5355339059327378,0A3.5355339059327378,3.5355339059327378,0,1,1,3.5355339059327378,0" style="fill: #f58518; stroke-width: 2; opacity: 1;"></path><path transform="translate(57.499999999999964,20.473924128872746)" d="M3.5355339059327378,0A3.5355339059327378,3.5355339059327378,0,1,1,-3.5355339059327378,0A3.5355339059327378,3.5355339059327378,0,1,1,3.5355339059327378,0" style="fill: #f58518; stroke-width: 2; opacity: 1;"></path><path transform="translate(19.16666666666663,21.481873954266593)" d="M3.5355339059327378,0A3.5355339059327378,3.5355339059327378,0,1,1,-3.5355339059327378,0A3.5355339059327378,3.5355339059327378,0,1,1,3.5355339059327378,0" style="fill: #f58518; stroke-width: 2; opacity: 1;"></path></g><g class="mark-text role-mark child_layer_1_marks"><text text-anchor="middle" transform="translate(555.8333333333334,35.520982727442785)" style="font-family: sans-serif; font-size: 15px; fill: #f58518;">4.6</text><text text-anchor="middle" transform="translate(517.5,35.84285714285714)" style="font-family: sans-serif; font-size: 15px; fill: #f58518;">4.6</text><text text-anchor="middle" transform="translate(479.16666666666663,35.22756745450742)" style="font-family: sans-serif; font-size: 15px; fill: #f58518;">4.7</text><text text-anchor="middle" transform="translate(440.8333333333333,34.63724987172909)" style="font-family: sans-serif; font-size: 15px; fill: #f58518;">4.8</text><text text-anchor="middle" transform="translate(402.5,35.443887634105025)" style="font-family: sans-serif; font-size: 15px; fill: #f58518;">4.6</text><text text-anchor="middle" transform="translate(364.16666666666663,35.069047619047616)" style="font-family: sans-serif; font-size: 15px; fill: #f58518;">4.7</text><text text-anchor="middle" transform="translate(325.8333333333333,38.16743648960739)" style="font-family: sans-serif; font-size: 15px; fill: #f58518;">4.1</text><text text-anchor="middle" transform="translate(287.5,39.816414119295786)" style="font-family: sans-serif; font-size: 15px; fill: #f58518;">3.8</text><text text-anchor="middle" transform="translate(249.16666666666663,39.92835537118658)" style="font-family: sans-serif; font-size: 15px; fill: #f58518;">3.8</text><text text-anchor="middle" transform="translate(210.83333333333331,39.872320907347174)" style="font-family: sans-serif; font-size: 15px; fill: #f58518;">3.8</text><text text-anchor="middle" transform="translate(172.49999999999997,40.12951607557176)" style="font-family: sans-serif; font-size: 15px; fill: #f58518;">3.8</text><text text-anchor="middle" transform="translate(134.16666666666663,40.74006319640778)" style="font-family: sans-serif; font-size: 15px; fill: #f58518;">3.6</text><text text-anchor="middle" transform="translate(95.8333333333333,41.94498618560053)" style="font-family: sans-serif; font-size: 15px; fill: #f58518;">3.4</text><text text-anchor="middle" transform="translate(57.499999999999964,43.473924128872746)" style="font-family: sans-serif; font-size: 15px; fill: #f58518;">3.1</text><text text-anchor="middle" transform="translate(19.16666666666663,44.48187395426659)" style="font-family: sans-serif; font-size: 15px; fill: #f58518;">2.9</text></g></g><path class="foreground" d="" style="display: none; fill: none;"></path></g></g></g><path class="foreground" d="" style="display: none; fill: none;"></path></g></g></g></svg>