<svg class="marks" width="641" height="436" viewBox="0 0 641 436" version="1.1" xmlns="http://www.w3.org/2000/svg" xmlns:xlink="http://www.w3.org/1999/xlink"><rect width="641" height="436" style="fill: white;"></rect><g transform="translate(60,32)"><g class="mark-group role-frame root"><g transform="translate(0,0)"><path class="background" d="M0,0h0v0h0Z" style="fill: none;"></path><g><g class="mark-group role-scope concat_0_group"><g transform="translate(0,0)"><path class="background" d="M0.5,0.5h575v275h-575Z" style="fill: none; stroke: #ddd;"></path><g><g class="mark-group role-axis"><g transform="translate(0.5,275.5)"><path class="background" d="M0,0h0v0h0Z" style="pointer-events: none; fill: none;"></path><g><g class="mark-rule role-axis-grid" style="pointer-events: none;"><line transform="translate(4,-275)" x2="0" y2="275" style="fill: none; stroke: #ddd; stroke-width: 1; opacity: 1;"></line><line transform="translate(31,-275)" x2="0" y2="275" style="fill: none; stroke: #ddd; stroke-width: 1; opacity: 1;"></line><line transform="translate(58,-275)" x2="0" y2="275" style="fill: none; stroke: #ddd; stroke-width: 1; opacity: 1;"></line><line transform="translate(84,-275)" x2="0" y2="275" style="fill: none; stroke: #ddd; stroke-width: 1; opacity: 1;"></line><line transform="translate(111,-275)" x2="0" y2="275" style="fill: none; stroke: #ddd; stroke-width: 1; opacity: 1;"></line><line transform="translate(138,-275)" x2="0" y2="275" style="fill: none; stroke: #ddd; stroke-width: 1; opacity: 1;"></line><line transform="translate(165,-275)" x2="0" y2="275" style="fill: none; stroke: #ddd; stroke-width: 1; opacity: 1;"></line><line transform="translate(192,-275)" x2="0" y2="275" style="fill: none; stroke: #ddd; stroke-width: 1; opacity: 1;"></line><line transform="translate(219,-275)" x2="0" y2="275" style="fill: none; stroke: #ddd; stroke-width: 1; opacity: 1;"></line><line transform="translate(245,-275)" x2="0" y2="275" style="fill: none; stroke: #ddd; stroke-width: 1; opacity: 1;"></line><line transform="translate(272,-275)" x2="0" y2="275" style="fill: none; stroke: #ddd; stroke-width: 1; opacity: 1;"></line><line transform="translate(299,-275)" x2="0" y2="275" style="fill: none; stroke: #ddd; stroke-width: 1; opacity: 1;"></line><line transform="translate(326,-275)" x2="0" y2="275" style="fill: none; stroke: #ddd; stroke-width: 1; opacity: 1;"></line><line transform="translate(353,-275)" x2="0" y2="275" style="fill: none; stroke: #ddd; stroke-width: 1; opacity: 1;"></line><line transform="translate(380,-275)" x2="0" y2="275" style="fill: none; stroke: #ddd; stroke-width: 1; opacity: 1;"></line><line transform="translate(406,-275)" x2="0" y2="275" style="fill: none; stroke: #ddd; stroke-width: 1; opacity: 1;"></line><line transform="translate(433,-275)" x2="0" y2="275" style="fill: none; stroke: #ddd; stroke-width: 1; opacity: 1;"></line><line transform="translate(460,-275)" x2="0" y2="275" style="fill: none; stroke: #ddd; stroke-width: 1; opacity: 1;"></line><line transform="translate(487,-275)" x2="0" y2="275" style="fill: none; stroke: #ddd; stroke-width: 1; opacity: 1;"></line><line transform="translate(514,-275)" x2="0" y2="275" style="fill: none; stroke: #ddd; stroke-width: 1; opacity: 1;"></line><line transform="translate(541,-275)" x2="0" y2="275" style="fill: none; stroke: #ddd; stroke-width: 1; opacity: 1;"></line><line transform="translate(567,-275)" x2="0" y2="275" style="fill: none; stroke: #ddd; stroke-width: 1; opacity: 1;"></line></g></g><path class="foreground" d="" style="pointer-events: none; display: none; fill: none;"></path></g></g><g class="mark-group role-axis"><g transform="translate(0.5,0.5)"><path class="background" d="M0,0h0v0h0Z" style="pointer-events: none; fill: none;"></path><g><g class="mark-rule role-axis-grid" style="pointer-events: none;"><line transform="translate(0,275)" x2="575" y2="0" style="fill: none; stroke: #ddd; stroke-width: 1; opacity: 1;"></line><line transform="translate(0,244)" x2="575" y2="0" style="fill: none; stroke: #ddd; stroke-width: 1; opacity: 1;"></line><line transform="translate(0,214)" x2="575" y2="0" style="fill: none; stroke: #ddd; stroke-width: 1; opacity: 1;"></line><line transform="translate(0,183)" x2="575" y2="0" style="fill: none; stroke: #ddd; stroke-width: 1; opacity: 1;"></line><line transform="translate(0,153)" x2="575" y2="0" style="fill: none; stroke: #ddd; stroke-width: 1; opacity: 1;"></line><line transform="translate(0,122)" x2="575" y2="0" style="fill: none; stroke: #ddd; stroke-width: 1; opacity: 1;"></line><line transform="translate(0,92)" x2="575" y2="0" style="fill: none; stroke: #ddd; stroke-width: 1; opacity: 1;"></line><line transform="translate(0,61)" x2="575" y2="0" style="fill: none; stroke: #ddd; stroke-width: 1; opacity: 1;"></line><line transform="translate(0,31)" x2="575" y2="0" style="fill: none; stroke: #ddd; stroke-width: 1; opacity: 1;"></line><line transform="translate(0,0)" x2="575" y2="0" style="fill: none; stroke: #ddd; stroke-width: 1; opacity: 1;"></line></g></g><path class="foreground" d="" style="pointer-events: none; display: none; fill: none;"></path></g></g><g class="mark-group role-axis"><g transform="translate(0.5,275.5)"><path class="background" d="M0,0h0v0h0Z" style="pointer-events: none; fill: none;"></path><g><g class="mark-rule role-axis-domain" style="pointer-events: none;"><line transform="translate(0,0)" x2="575" y2="0" style="fill: none; stroke: #888; stroke-width: 1; opacity: 1;"></line></g></g><path class="foreground" d="" style="pointer-events: none; display: none; fill: none;"></path></g></g><g class="mark-group role-axis"><g transform="translate(0.5,0.5)"><path class="background" d="M0,0h0v0h0Z" style="pointer-events: none; fill: none;"></path><g><g class="mark-rule role-axis-tick" style="pointer-events: none;"><line transform="translate(0,275)" x2="-5" y2="0" style="fill: none; stroke: #888; stroke-width: 1; opacity: 1;"></line><line transform="translate(0,244)" x2="-5" y2="0" style="fill: none; stroke: #888; stroke-width: 1; opacity: 1;"></line><line transform="translate(0,214)" x2="-5" y2="0" style="fill: none; stroke: #888; stroke-width: 1; opacity: 1;"></line><line transform="translate(0,183)" x2="-5" y2="0" style="fill: none; stroke: #888; stroke-width: 1; opacity: 1;"></line><line transform="translate(0,153)" x2="-5" y2="0" style="fill: none; stroke: #888; stroke-width: 1; opacity: 1;"></line><line transform="translate(0,122)" x2="-5" y2="0" style="fill: none; stroke: #888; stroke-width: 1; opacity: 1;"></line><line transform="translate(0,92)" x2="-5" y2="0" style="fill: none; stroke: #888; stroke-width: 1; opacity: 1;"></line><line transform="translate(0,61)" x2="-5" y2="0" style="fill: none; stroke: #888; stroke-width: 1; opacity: 1;"></line><line transform="translate(0,31)" x2="-5" y2="0" style="fill: none; stroke: #888; stroke-width: 1; opacity: 1;"></line><line transform="translate(0,0)" x2="-5" y2="0" style="fill: none; stroke: #888; stroke-width: 1; opacity: 1;"></line></g><g class="mark-text role-axis-label" style="pointer-events: none;"><text text-anchor="end" transform="translate(-7,279)" style="font-family: sans-serif; font-size: 14px; fill: #000; opacity: 1;"></text><text text-anchor="end" transform="translate(-7,248.44444444444443)" style="font-family: sans-serif; font-size: 14px; fill: #000; opacity: 1;">50</text><text text-anchor="end" transform="translate(-7,217.88888888888889)" style="font-family: sans-serif; font-size: 14px; fill: #000; opacity: 1;">100</text><text text-anchor="end" transform="translate(-7,187.33333333333334)" style="font-family: sans-serif; font-size: 14px; fill: #000; opacity: 1;">150</text><text text-anchor="end" transform="translate(-7,156.77777777777777)" style="font-family: sans-serif; font-size: 14px; fill: #000; opacity: 1;">200</text><text text-anchor="end" transform="translate(-7,126.22222222222221)" style="font-family: sans-serif; font-size: 14px; fill: #000; opacity: 1;">250</text><text text-anchor="end" transform="translate(-7,95.66666666666667)" style="font-family: sans-serif; font-size: 14px; fill: #000; opacity: 1;">300</text><text text-anchor="end" transform="translate(-7,65.11111111111111)" style="font-family: sans-serif; font-size: 14px; fill: #000; opacity: 1;">350</text><text text-anchor="end" transform="translate(-7,34.55555555555557)" style="font-family: sans-serif; font-size: 14px; fill: #000; opacity: 1;">400</text><text text-anchor="end" transform="translate(-7,4)" style="font-family: sans-serif; font-size: 14px; fill: #000; opacity: 1;">450</text></g><g class="mark-rule role-axis-domain" style="pointer-events: none;"><line transform="translate(0,275)" x2="0" y2="-275" style="fill: none; stroke: #888; stroke-width: 1; opacity: 1;"></line></g><g class="mark-text role-axis-title" style="pointer-events: none;"><text text-anchor="middle" transform="translate(-34.3583984375,137.5) rotate(-90) translate(0,-3)" style="font-family: sans-serif; font-size: 14px; font-weight: bold; fill: #000; opacity: 1;">Casos confirmados (promedio 7 días)</text></g></g><path class="foreground" d="" style="pointer-events: none; display: none; fill: none;"></path></g></g><g class="mark-group role-scope concat_0_pathgroup"><g transform="translate(0,0)"><path class="background" d="M0,0h575v275h-575Z" style="fill: none;"></path><g><g class="mark-area role-mark concat_0_marks"><path d="M0,275L3.8333333333333335,275L7.666666666666667,275L11.5,275L15.333333333333334,275L19.166666666666668,275L23,275L26.833333333333336,275L30.666666666666668,275L34.5,275L38.333333333333336,275L42.166666666666664,275L46,275L49.833333333333336,275L53.66666666666667,275L57.5,275L61.333333333333336,275L65.16666666666666,275L69,275L72.83333333333334,275L76.66666666666667,275L80.50000000000001,275L84.33333333333333,275L88.16666666666666,275L92,275L95.83333333333333,275L99.66666666666667,275L103.5,274.91269841269843L107.33333333333334,274.91269841269843L111.16666666666667,274.91269841269843L115,274.91269841269843L118.83333333333333,274.91269841269843L122.66666666666667,274.8253968253968L126.5,274.73809523809524L130.33333333333331,274.56349206349205L134.16666666666666,274.56349206349205L138,274.56349206349205L141.83333333333334,274.56349206349205L145.66666666666669,274.56349206349205L149.5,274.6507936507936L153.33333333333334,274.6507936507936L157.16666666666666,274.38888888888886L161.00000000000003,274.38888888888886L164.83333333333334,274.38888888888886L168.66666666666666,274.38888888888886L172.5,274.3015873015873L176.33333333333331,274.2142857142857L180.16666666666669,274.3015873015873L184,274.8253968253968L187.83333333333334,274.8253968253968L191.66666666666666,274.8253968253968L195.5,274.8253968253968L199.33333333333334,274.4761904761905L203.16666666666666,274.56349206349205L207,274.56349206349205L210.83333333333331,274.4761904761905L214.66666666666669,274.4761904761905L218.5,274.4761904761905L222.33333333333334,274.4761904761905L226.16666666666666,274.91269841269843L230,274.91269841269843L233.83333333333334,274.91269841269843L237.66666666666666,275L241.5,275L245.33333333333334,275L249.16666666666669,274.8253968253968L253,274.73809523809524L256.8333333333333,274.56349206349205L260.66666666666663,272.8174603174603L264.5,272.2936507936508L268.3333333333333,272.2063492063492L272.1666666666667,269.06349206349205L276,268.3650793650794L279.83333333333337,267.92857142857144L283.6666666666667,267.57936507936506L287.5,266.61904761904765L291.33333333333337,265.22222222222223L295.16666666666663,262.60317460317464L299,262.6904761904762L302.8333333333333,259.72222222222223L306.6666666666667,260.1587301587301L310.5,260.24603174603175L314.3333333333333,261.031746031746L318.1666666666667,261.11904761904765L322.00000000000006,262.86507936507934L325.8333333333333,264.7857142857143L329.6666666666667,268.27777777777777L333.5,268.015873015873L337.3333333333333,266.968253968254L341.1666666666667,266.0952380952381L345,267.14285714285717L348.83333333333337,267.40476190476187L352.66666666666663,266.7063492063492L356.5,266.35714285714283L360.33333333333337,266.7063492063492L364.16666666666663,268.015873015873L368,269.8492063492064L371.8333333333333,266.968253968254L375.6666666666667,262.25396825396825L379.5,263.2142857142857L383.3333333333333,259.72222222222223L387.1666666666667,259.54761904761904L391,259.1111111111111L394.8333333333333,254.74603174603175L398.6666666666667,253.6984126984127L402.5,251.515873015873L406.3333333333333,246.1904761904762L410.1666666666667,246.1031746031746L414,246.1031746031746L417.8333333333333,245.75396825396825L421.66666666666663,248.28571428571428L425.5,248.02380952380952L429.33333333333337,253.78571428571428L433.16666666666663,256.92857142857144L437,257.36507936507934L440.83333333333337,256.3174603174603L444.6666666666667,256.8412698412699L448.5,256.3174603174603L452.3333333333333,257.6269841269841L456.1666666666667,256.1428571428571L460,255.26984126984127L463.8333333333333,258.58730158730157L467.6666666666667,259.8095238095238L471.5,259.1111111111111L475.3333333333333,256.75396825396825L479.1666666666667,256.8412698412699L483,256.92857142857144L486.8333333333333,254.83333333333331L490.6666666666667,253.0873015873016L494.5,252.82539682539684L498.33333333333337,252.73809523809527L502.16666666666663,257.015873015873L506,257.1031746031746L509.83333333333337,259.1984126984127L513.6666666666666,259.2857142857143L517.5,258.6746031746032L521.3333333333333,258.93650793650795L525.1666666666666,258.93650793650795L529,258.1507936507937L532.8333333333334,253.43650793650795L536.6666666666666,245.92857142857144L540.5,244.61904761904762L544.3333333333334,244.70634920634922L548.1666666666666,242.87301587301587L552,242.26190476190476L555.8333333333334,234.4047619047619L559.6666666666667,234.4920634920635L563.5,232.65873015873015L567.3333333333334,229.25396825396825L571.1666666666666,227.76984126984127L575,228.38095238095238L575,275L571.1666666666666,275L567.3333333333334,275L563.5,275L559.6666666666667,275L555.8333333333334,275L552,275L548.1666666666666,275L544.3333333333334,275L540.5,275L536.6666666666666,275L532.8333333333334,275L529,275L525.1666666666666,275L521.3333333333333,275L517.5,275L513.6666666666666,275L509.83333333333337,275L506,275L502.16666666666663,275L498.33333333333337,275L494.5,275L490.6666666666667,275L486.8333333333333,275L483,275L479.1666666666667,275L475.3333333333333,275L471.5,275L467.6666666666667,275L463.8333333333333,275L460,275L456.1666666666667,275L452.3333333333333,275L448.5,275L444.6666666666667,275L440.83333333333337,275L437,275L433.16666666666663,275L429.33333333333337,275L425.5,275L421.66666666666663,275L417.8333333333333,275L414,275L410.1666666666667,275L406.3333333333333,275L402.5,275L398.6666666666667,275L394.8333333333333,275L391,275L387.1666666666667,275L383.3333333333333,275L379.5,275L375.6666666666667,275L371.8333333333333,275L368,275L364.16666666666663,275L360.33333333333337,275L356.5,275L352.66666666666663,275L348.83333333333337,275L345,275L341.1666666666667,275L337.3333333333333,275L333.5,275L329.6666666666667,275L325.8333333333333,275L322.00000000000006,275L318.1666666666667,275L314.3333333333333,275L310.5,275L306.6666666666667,275L302.8333333333333,275L299,275L295.16666666666663,275L291.33333333333337,275L287.5,275L283.6666666666667,275L279.83333333333337,275L276,275L272.1666666666667,275L268.3333333333333,275L264.5,275L260.66666666666663,275L256.8333333333333,275L253,275L249.16666666666669,275L245.33333333333334,275L241.5,275L237.66666666666666,275L233.83333333333334,275L230,275L226.16666666666666,275L222.33333333333334,275L218.5,275L214.66666666666669,275L210.83333333333331,275L207,275L203.16666666666666,275L199.33333333333334,275L195.5,275L191.66666666666666,275L187.83333333333334,275L184,275L180.16666666666669,275L176.33333333333331,275L172.5,275L168.66666666666666,275L164.83333333333334,275L161.00000000000003,275L157.16666666666666,275L153.33333333333334,275L149.5,275L145.66666666666669,275L141.83333333333334,275L138,275L134.16666666666666,275L130.33333333333331,275L126.5,275L122.66666666666667,275L118.83333333333333,275L115,275L111.16666666666667,275L107.33333333333334,275L103.5,275L99.66666666666667,275L95.83333333333333,275L92,275L88.16666666666666,275L84.33333333333333,275L80.50000000000001,275L76.66666666666667,275L72.83333333333334,275L69,275L65.16666666666666,275L61.333333333333336,275L57.5,275L53.66666666666667,275L49.833333333333336,275L46,275L42.166666666666664,275L38.333333333333336,275L34.5,275L30.666666666666668,275L26.833333333333336,275L23,275L19.166666666666668,275L15.333333333333334,275L11.5,275L7.666666666666667,275L3.8333333333333335,275L0,275Z" style="fill: rgb(100, 188, 97); opacity: 0.85;"></path></g></g><path class="foreground" d="" style="display: none; fill: none;"></path></g><g transform="translate(0,0)"><path class="background" d="M0,0h575v275h-575Z" style="fill: none;"></path><g><g class="mark-area role-mark concat_0_marks"><path d="M0,269.5L3.8333333333333335,272.25L7.666666666666667,272.96296296296293L11.5,273.16666666666663L15.333333333333334,271.3333333333333L19.166666666666668,271.7407407407407L23,271.94444444444446L26.833333333333336,272.2936507936508L30.666666666666668,272.2936507936508L34.5,272.2063492063492L38.333333333333336,272.3809523809524L42.166666666666664,273.515873015873L46,272.9047619047619L49.833333333333336,273.07936507936506L53.66666666666667,273.42857142857144L57.5,272.8174603174603L61.333333333333336,272.55555555555554L65.16666666666666,272.55555555555554L69,272.8174603174603L72.83333333333334,273.07936507936506L76.66666666666667,272.3809523809524L80.50000000000001,272.468253968254L84.33333333333333,272.73015873015873L88.16666666666666,272.64285714285717L92,272.64285714285717L95.83333333333333,272.55555555555554L99.66666666666667,272.73015873015873L103.5,273.3412698412698L107.33333333333334,273.3412698412698L111.16666666666667,273.6031746031746L115,274.12698412698415L118.83333333333333,273.77777777777777L122.66666666666667,273.95238095238096L126.5,274.2142857142857L130.33333333333331,274.12698412698415L134.16666666666666,274.03968253968253L138,274.12698412698415L141.83333333333334,274.03968253968253L145.66666666666669,274.2142857142857L149.5,273.6031746031746L153.33333333333334,273.16666666666663L157.16666666666666,271.6825396825397L161.00000000000003,271.5079365079365L164.83333333333334,271.1587301587302L168.66666666666666,270.8968253968254L172.5,270.1984126984127L176.33333333333331,270.72222222222223L180.16666666666669,271.0714285714286L184,272.3809523809524L187.83333333333334,272.2936507936508L191.66666666666666,272.2936507936508L195.5,272.468253968254L199.33333333333334,272.8174603174603L203.16666666666666,272.3809523809524L207,272.031746031746L210.83333333333331,271.5952380952381L214.66666666666669,271.76984126984127L218.5,271.5079365079365L222.33333333333334,270.8095238095238L226.16666666666666,269.8492063492064L230,270.37301587301585L233.83333333333334,270.63492063492066L237.66666666666666,270.8968253968254L241.5,270.37301587301585L245.33333333333334,269.8492063492064L249.16666666666669,265.9206349206349L253,265.74603174603175L256.8333333333333,264.43650793650795L260.66666666666663,262.60317460317464L264.5,261.031746031746L268.3333333333333,259.8095238095238L272.1666666666667,248.1984126984127L276,247.23809523809524L279.83333333333337,246.45238095238096L283.6666666666667,242.7857142857143L287.5,235.7142857142857L291.33333333333337,231.17460317460316L295.16666666666663,220.87301587301587L299,216.07142857142858L302.8333333333333,213.71428571428572L306.6666666666667,205.07142857142858L310.5,204.02380952380952L314.3333333333333,202.7142857142857L318.1666666666667,195.9920634920635L322.00000000000006,192.67460317460316L325.8333333333333,197.56349206349205L329.6666666666667,188.83333333333331L333.5,193.28571428571428L337.3333333333333,184.55555555555557L341.1666666666667,185.95238095238096L345,187.8730158730159L348.83333333333337,193.11111111111114L352.66666666666663,194.15873015873018L356.5,201.66666666666669L360.33333333333337,202.97619047619048L364.16666666666663,206.468253968254L368,211.44444444444446L371.8333333333333,205.42063492063494L375.6666666666667,206.20634920634922L379.5,210.22222222222223L383.3333333333333,207.6904761904762L387.1666666666667,200.0079365079365L391,206.73015873015876L394.8333333333333,186.12698412698418L398.6666666666667,177.04761904761907L402.5,160.02380952380952L406.3333333333333,139.15873015873015L410.1666666666667,127.80952380952385L414,115.32539682539684L417.8333333333333,110.7857142857143L421.66666666666663,104.41269841269843L425.5,106.94444444444449L429.33333333333337,122.484126984127L433.16666666666663,120.65079365079369L437,90.44444444444447L440.83333333333337,108.77777777777777L444.6666666666667,108.86507936507938L448.5,109.12698412698411L452.3333333333333,115.23809523809523L456.1666666666667,110L460,112.18253968253968L463.8333333333333,160.46031746031747L467.6666666666667,166.04761904761904L471.5,150.4206349206349L475.3333333333333,164.65079365079367L479.1666666666667,166.04761904761904L483,169.27777777777774L486.8333333333333,178.0079365079365L490.6666666666667,175.56349206349205L494.5,164.03968253968253L498.33333333333337,178.70634920634922L502.16666666666663,190.92857142857142L506,195.46825396825395L509.83333333333337,205.76984126984124L513.6666666666666,193.19841269841268L517.5,192.5L521.3333333333333,205.50793650793653L525.1666666666666,180.8015873015873L529,177.2222222222222L532.8333333333334,170.3253968253968L536.6666666666666,159.76190476190473L540.5,176.34920634920633L544.3333333333334,165.78571428571425L548.1666666666666,161.59523809523805L552,174.69047619047618L555.8333333333334,151.55555555555554L559.6666666666667,136.36507936507934L563.5,129.81746031746033L567.3333333333334,126.15079365079366L571.1666666666666,137.7619047619048L575,138.89682539682545L575,228.38095238095238L571.1666666666666,227.76984126984127L567.3333333333334,229.25396825396825L563.5,232.65873015873015L559.6666666666667,234.4920634920635L555.8333333333334,234.4047619047619L552,242.26190476190476L548.1666666666666,242.87301587301587L544.3333333333334,244.70634920634922L540.5,244.61904761904762L536.6666666666666,245.92857142857144L532.8333333333334,253.43650793650795L529,258.1507936507937L525.1666666666666,258.93650793650795L521.3333333333333,258.93650793650795L517.5,258.6746031746032L513.6666666666666,259.2857142857143L509.83333333333337,259.1984126984127L506,257.1031746031746L502.16666666666663,257.015873015873L498.33333333333337,252.73809523809527L494.5,252.82539682539684L490.6666666666667,253.0873015873016L486.8333333333333,254.83333333333331L483,256.92857142857144L479.1666666666667,256.8412698412699L475.3333333333333,256.75396825396825L471.5,259.1111111111111L467.6666666666667,259.8095238095238L463.8333333333333,258.58730158730157L460,255.26984126984127L456.1666666666667,256.1428571428571L452.3333333333333,257.6269841269841L448.5,256.3174603174603L444.6666666666667,256.8412698412699L440.83333333333337,256.3174603174603L437,257.36507936507934L433.16666666666663,256.92857142857144L429.33333333333337,253.78571428571428L425.5,248.02380952380952L421.66666666666663,248.28571428571428L417.8333333333333,245.75396825396825L414,246.1031746031746L410.1666666666667,246.1031746031746L406.3333333333333,246.1904761904762L402.5,251.515873015873L398.6666666666667,253.6984126984127L394.8333333333333,254.74603174603175L391,259.1111111111111L387.1666666666667,259.54761904761904L383.3333333333333,259.72222222222223L379.5,263.2142857142857L375.6666666666667,262.25396825396825L371.8333333333333,266.968253968254L368,269.8492063492064L364.16666666666663,268.015873015873L360.33333333333337,266.7063492063492L356.5,266.35714285714283L352.66666666666663,266.7063492063492L348.83333333333337,267.40476190476187L345,267.14285714285717L341.1666666666667,266.0952380952381L337.3333333333333,266.968253968254L333.5,268.015873015873L329.6666666666667,268.27777777777777L325.8333333333333,264.7857142857143L322.00000000000006,262.86507936507934L318.1666666666667,261.11904761904765L314.3333333333333,261.031746031746L310.5,260.24603174603175L306.6666666666667,260.1587301587301L302.8333333333333,259.72222222222223L299,262.6904761904762L295.16666666666663,262.60317460317464L291.33333333333337,265.22222222222223L287.5,266.61904761904765L283.6666666666667,267.57936507936506L279.83333333333337,267.92857142857144L276,268.3650793650794L272.1666666666667,269.06349206349205L268.3333333333333,272.2063492063492L264.5,272.2936507936508L260.66666666666663,272.8174603174603L256.8333333333333,274.56349206349205L253,274.73809523809524L249.16666666666669,274.8253968253968L245.33333333333334,275L241.5,275L237.66666666666666,275L233.83333333333334,274.91269841269843L230,274.91269841269843L226.16666666666666,274.91269841269843L222.33333333333334,274.4761904761905L218.5,274.4761904761905L214.66666666666669,274.4761904761905L210.83333333333331,274.4761904761905L207,274.56349206349205L203.16666666666666,274.56349206349205L199.33333333333334,274.4761904761905L195.5,274.8253968253968L191.66666666666666,274.8253968253968L187.83333333333334,274.8253968253968L184,274.8253968253968L180.16666666666669,274.3015873015873L176.33333333333331,274.2142857142857L172.5,274.3015873015873L168.66666666666666,274.38888888888886L164.83333333333334,274.38888888888886L161.00000000000003,274.38888888888886L157.16666666666666,274.38888888888886L153.33333333333334,274.6507936507936L149.5,274.6507936507936L145.66666666666669,274.56349206349205L141.83333333333334,274.56349206349205L138,274.56349206349205L134.16666666666666,274.56349206349205L130.33333333333331,274.56349206349205L126.5,274.73809523809524L122.66666666666667,274.8253968253968L118.83333333333333,274.91269841269843L115,274.91269841269843L111.16666666666667,274.91269841269843L107.33333333333334,274.91269841269843L103.5,274.91269841269843L99.66666666666667,275L95.83333333333333,275L92,275L88.16666666666666,275L84.33333333333333,275L80.50000000000001,275L76.66666666666667,275L72.83333333333334,275L69,275L65.16666666666666,275L61.333333333333336,275L57.5,275L53.66666666666667,275L49.833333333333336,275L46,275L42.166666666666664,275L38.333333333333336,275L34.5,275L30.666666666666668,275L26.833333333333336,275L23,275L19.166666666666668,275L15.333333333333334,275L11.5,275L7.666666666666667,275L3.8333333333333335,275L0,275Z" style="fill: rgb(215, 238, 142); opacity: 0.85;"></path></g></g><path class="foreground" d="" style="display: none; fill: none;"></path></g><g transform="translate(0,0)"><path class="background" d="M0,0h575v275h-575Z" style="fill: none;"></path><g><g class="mark-area role-mark concat_0_marks"><path d="M0,267.6666666666667L3.8333333333333335,270.1111111111111L7.666666666666667,270.9259259259259L11.5,271.02777777777777L15.333333333333334,266.0777777777778L19.166666666666668,266.64814814814815L23,266.968253968254L26.833333333333336,266.44444444444446L30.666666666666668,266.531746031746L34.5,266.531746031746L38.333333333333336,266.968253968254L42.166666666666664,270.46031746031747L46,270.0238095238095L49.833333333333336,270.46031746031747L53.66666666666667,271.6825396825397L57.5,270.72222222222223L61.333333333333336,270.37301587301585L65.16666666666666,270.2857142857143L69,270.2857142857143L72.83333333333334,270.2857142857143L76.66666666666667,269.6746031746032L80.50000000000001,269.3253968253968L84.33333333333333,269.3253968253968L88.16666666666666,269.1507936507937L92,269.3253968253968L95.83333333333333,269.3253968253968L99.66666666666667,269.93650793650795L103.5,270.46031746031747L107.33333333333334,271.1587301587302L111.16666666666667,271.76984126984127L115,272.55555555555554L118.83333333333333,272.031746031746L122.66666666666667,271.76984126984127L126.5,271.76984126984127L130.33333333333331,271.6825396825397L134.16666666666666,271.42063492063494L138,271.85714285714283L141.83333333333334,271.85714285714283L145.66666666666669,272.031746031746L149.5,271.85714285714283L153.33333333333334,271.85714285714283L157.16666666666666,270.0238095238095L161.00000000000003,269.8492063492064L164.83333333333334,269.5L168.66666666666666,268.53968253968253L172.5,267.92857142857144L176.33333333333331,268.7142857142857L180.16666666666669,268.015873015873L184,269.06349206349205L187.83333333333334,268.45238095238096L191.66666666666666,268.53968253968253L195.5,269.41269841269843L199.33333333333334,269.8492063492064L203.16666666666666,269.3253968253968L207,269.8492063492064L210.83333333333331,268.53968253968253L214.66666666666669,269.41269841269843L218.5,269.23809523809524L222.33333333333334,268.53968253968253L226.16666666666666,267.14285714285717L230,267.8412698412698L233.83333333333334,268.27777777777777L237.66666666666666,269.3253968253968L241.5,267.75396825396825L245.33333333333334,267.23015873015873L249.16666666666669,263.3015873015873L253,262.86507936507934L256.8333333333333,260.94444444444446L260.66666666666663,259.1111111111111L264.5,257.45238095238096L268.3333333333333,256.75396825396825L272.1666666666667,240.0793650793651L276,238.24603174603175L279.83333333333337,238.07142857142856L283.6666666666667,234.66666666666666L287.5,226.8968253968254L291.33333333333337,222.88095238095238L295.16666666666663,212.4047619047619L299,210.39682539682542L302.8333333333333,208.91269841269843L306.6666666666667,199.39682539682536L310.5,198.34920634920636L314.3333333333333,194.76984126984127L318.1666666666667,185.77777777777777L322.00000000000006,170.6746031746032L325.8333333333333,171.28571428571428L329.6666666666667,158.88888888888889L333.5,164.2142857142857L337.3333333333333,150.6825396825397L341.1666666666667,145.53174603174605L345,141.51587301587304L348.83333333333337,152.77777777777783L352.66666666666663,156.35714285714286L356.5,162.38095238095238L360.33333333333337,159.23809523809524L364.16666666666663,163.515873015873L368,175.56349206349205L371.8333333333333,156.96825396825395L375.6666666666667,156.09523809523805L379.5,152.34126984126982L383.3333333333333,144.48412698412696L387.1666666666667,130.34126984126982L391,134.18253968253967L394.8333333333333,106.24603174603178L398.6666666666667,116.28571428571428L402.5,104.41269841269839L406.3333333333333,93.41269841269839L410.1666666666667,91.2301587301587L414,80.66666666666664L417.8333333333333,82.32539682539684L421.66666666666663,82.32539682539684L425.5,85.64285714285717L429.33333333333337,99.43650793650794L433.16666666666663,94.19841269841268L437,63.73015873015872L440.83333333333337,91.14285714285714L444.6666666666667,90.88095238095235L448.5,88.87301587301583L452.3333333333333,92.80158730158725L456.1666666666667,91.84126984126979L460,88.87301587301583L463.8333333333333,138.19841269841265L467.6666666666667,143.78571428571428L471.5,114.80158730158726L475.3333333333333,129.46825396825392L479.1666666666667,130.3412698412698L483,129.90476190476187L486.8333333333333,147.01587301587298L490.6666666666667,144.22222222222217L494.5,114.5396825396825L498.33333333333337,142.99999999999994L502.16666666666663,160.28571428571425L506,168.8412698412698L509.83333333333337,183.15873015873012L513.6666666666666,168.49206349206344L517.5,167.7063492063492L521.3333333333333,198.87301587301585L525.1666666666666,168.40476190476187L529,162.46825396825392L532.8333333333334,153.7380952380952L536.6666666666666,142.73809523809516L540.5,161.42063492063485L544.3333333333334,150.76984126984127L548.1666666666666,145.88095238095235L552,153.99999999999994L555.8333333333334,121.87301587301586L559.6666666666667,83.28571428571425L563.5,76.0396825396825L567.3333333333334,73.68253968253968L571.1666666666666,85.90476190476188L575,87.73809523809523L575,138.89682539682545L571.1666666666666,137.7619047619048L567.3333333333334,126.15079365079366L563.5,129.81746031746033L559.6666666666667,136.36507936507934L555.8333333333334,151.55555555555554L552,174.69047619047618L548.1666666666666,161.59523809523805L544.3333333333334,165.78571428571425L540.5,176.34920634920633L536.6666666666666,159.76190476190473L532.8333333333334,170.3253968253968L529,177.2222222222222L525.1666666666666,180.8015873015873L521.3333333333333,205.50793650793653L517.5,192.5L513.6666666666666,193.19841269841268L509.83333333333337,205.76984126984124L506,195.46825396825395L502.16666666666663,190.92857142857142L498.33333333333337,178.70634920634922L494.5,164.03968253968253L490.6666666666667,175.56349206349205L486.8333333333333,178.0079365079365L483,169.27777777777774L479.1666666666667,166.04761904761904L475.3333333333333,164.65079365079367L471.5,150.4206349206349L467.6666666666667,166.04761904761904L463.8333333333333,160.46031746031747L460,112.18253968253968L456.1666666666667,110L452.3333333333333,115.23809523809523L448.5,109.12698412698411L444.6666666666667,108.86507936507938L440.83333333333337,108.77777777777777L437,90.44444444444447L433.16666666666663,120.65079365079369L429.33333333333337,122.484126984127L425.5,106.94444444444449L421.66666666666663,104.41269841269843L417.8333333333333,110.7857142857143L414,115.32539682539684L410.1666666666667,127.80952380952385L406.3333333333333,139.15873015873015L402.5,160.02380952380952L398.6666666666667,177.04761904761907L394.8333333333333,186.12698412698418L391,206.73015873015876L387.1666666666667,200.0079365079365L383.3333333333333,207.6904761904762L379.5,210.22222222222223L375.6666666666667,206.20634920634922L371.8333333333333,205.42063492063494L368,211.44444444444446L364.16666666666663,206.468253968254L360.33333333333337,202.97619047619048L356.5,201.66666666666669L352.66666666666663,194.15873015873018L348.83333333333337,193.11111111111114L345,187.8730158730159L341.1666666666667,185.95238095238096L337.3333333333333,184.55555555555557L333.5,193.28571428571428L329.6666666666667,188.83333333333331L325.8333333333333,197.56349206349205L322.00000000000006,192.67460317460316L318.1666666666667,195.9920634920635L314.3333333333333,202.7142857142857L310.5,204.02380952380952L306.6666666666667,205.07142857142858L302.8333333333333,213.71428571428572L299,216.07142857142858L295.16666666666663,220.87301587301587L291.33333333333337,231.17460317460316L287.5,235.7142857142857L283.6666666666667,242.7857142857143L279.83333333333337,246.45238095238096L276,247.23809523809524L272.1666666666667,248.1984126984127L268.3333333333333,259.8095238095238L264.5,261.031746031746L260.66666666666663,262.60317460317464L256.8333333333333,264.43650793650795L253,265.74603174603175L249.16666666666669,265.9206349206349L245.33333333333334,269.8492063492064L241.5,270.37301587301585L237.66666666666666,270.8968253968254L233.83333333333334,270.63492063492066L230,270.37301587301585L226.16666666666666,269.8492063492064L222.33333333333334,270.8095238095238L218.5,271.5079365079365L214.66666666666669,271.76984126984127L210.83333333333331,271.5952380952381L207,272.031746031746L203.16666666666666,272.3809523809524L199.33333333333334,272.8174603174603L195.5,272.468253968254L191.66666666666666,272.2936507936508L187.83333333333334,272.2936507936508L184,272.3809523809524L180.16666666666669,271.0714285714286L176.33333333333331,270.72222222222223L172.5,270.1984126984127L168.66666666666666,270.8968253968254L164.83333333333334,271.1587301587302L161.00000000000003,271.5079365079365L157.16666666666666,271.6825396825397L153.33333333333334,273.16666666666663L149.5,273.6031746031746L145.66666666666669,274.2142857142857L141.83333333333334,274.03968253968253L138,274.12698412698415L134.16666666666666,274.03968253968253L130.33333333333331,274.12698412698415L126.5,274.2142857142857L122.66666666666667,273.95238095238096L118.83333333333333,273.77777777777777L115,274.12698412698415L111.16666666666667,273.6031746031746L107.33333333333334,273.3412698412698L103.5,273.3412698412698L99.66666666666667,272.73015873015873L95.83333333333333,272.55555555555554L92,272.64285714285717L88.16666666666666,272.64285714285717L84.33333333333333,272.73015873015873L80.50000000000001,272.468253968254L76.66666666666667,272.3809523809524L72.83333333333334,273.07936507936506L69,272.8174603174603L65.16666666666666,272.55555555555554L61.333333333333336,272.55555555555554L57.5,272.8174603174603L53.66666666666667,273.42857142857144L49.833333333333336,273.07936507936506L46,272.9047619047619L42.166666666666664,273.515873015873L38.333333333333336,272.3809523809524L34.5,272.2063492063492L30.666666666666668,272.2936507936508L26.833333333333336,272.2936507936508L23,271.94444444444446L19.166666666666668,271.7407407407407L15.333333333333334,271.3333333333333L11.5,273.16666666666663L7.666666666666667,272.96296296296293L3.8333333333333335,272.25L0,269.5Z" style="fill: rgb(254, 221, 141); opacity: 0.85;"></path></g></g><path class="foreground" d="" style="display: none; fill: none;"></path></g><g transform="translate(0,0)"><path class="background" d="M0,0h575v275h-575Z" style="fill: none;"></path><g><g class="mark-area role-mark concat_0_marks"><path d="M0,267.05555555555554L3.8333333333333335,267.6666666666667L7.666666666666667,269.0925925925926L11.5,269.65277777777777L15.333333333333334,263.38888888888886L19.166666666666668,264.10185185185185L23,264.6111111111111L26.833333333333336,264.08730158730157L30.666666666666668,263.91269841269843L34.5,264L38.333333333333336,264.43650793650795L42.166666666666664,269.06349206349205L46,268.6269841269841L49.833333333333336,269.1507936507937L53.66666666666667,270.2857142857143L57.5,270.1984126984127L61.333333333333336,269.8492063492064L65.16666666666666,269.76190476190476L69,269.23809523809524L72.83333333333334,269.41269841269843L76.66666666666667,266.61904761904765L80.50000000000001,264.26190476190476L84.33333333333333,261.031746031746L88.16666666666666,260.6825396825397L92,260.8571428571429L95.83333333333333,261.2063492063492L99.66666666666667,261.55555555555554L103.5,263.4761904761905L107.33333333333334,266.3571428571429L111.16666666666667,268.9761904761905L115,269.93650793650795L118.83333333333333,268.27777777777777L122.66666666666667,266.968253968254L126.5,266.7063492063492L130.33333333333331,266.7936507936508L134.16666666666666,266.44444444444446L138,268.015873015873L141.83333333333334,268.015873015873L145.66666666666669,268.9761904761905L149.5,269.93650793650795L153.33333333333334,270.1984126984127L157.16666666666666,268.8015873015873L161.00000000000003,268.3650793650794L164.83333333333334,267.8412698412698L168.66666666666666,266.7063492063492L172.5,265.8333333333333L176.33333333333331,266.35714285714283L180.16666666666669,263.6507936507937L184,264.1746031746032L187.83333333333334,263.2142857142857L191.66666666666666,263.4761904761905L195.5,264.5238095238095L199.33333333333334,265.484126984127L203.16666666666666,265.22222222222223L207,267.92857142857144L210.83333333333331,267.23015873015873L214.66666666666669,268.8015873015873L218.5,268.7142857142857L222.33333333333334,267.92857142857144L226.16666666666666,266.1825396825397L230,266.8809523809524L233.83333333333334,267.4920634920635L237.66666666666666,268.45238095238096L241.5,266.61904761904765L245.33333333333334,266.0079365079365L249.16666666666669,262.1666666666667L253,261.031746031746L256.8333333333333,257.015873015873L260.66666666666663,255.1825396825397L264.5,253.43650793650795L268.3333333333333,252.9126984126984L272.1666666666667,234.4920634920635L276,232.65873015873015L279.83333333333337,233.61904761904762L283.6666666666667,232.13492063492063L287.5,223.92857142857142L291.33333333333337,220.26190476190476L295.16666666666663,209.7857142857143L299,209.43650793650795L302.8333333333333,207.95238095238096L306.6666666666667,198.26190476190476L310.5,196.6031746031746L314.3333333333333,193.46031746031747L318.1666666666667,184.2936507936508L322.00000000000006,168.3174603174603L325.8333333333333,169.10317460317458L329.6666666666667,155.9206349206349L333.5,161.4206349206349L337.3333333333333,147.45238095238096L341.1666666666667,141.77777777777777L345,136.452380952381L348.83333333333337,148.50000000000003L352.66666666666663,151.99206349206352L356.5,157.31746031746036L360.33333333333337,152.16666666666666L364.16666666666663,153.99999999999997L368,166.3968253968254L371.8333333333333,139.24603174603175L375.6666666666667,130.34126984126982L379.5,121.69841269841268L383.3333333333333,109.563492063492L387.1666666666667,97.25396825396822L391,104.06349206349206L394.8333333333333,75.34126984126988L398.6666666666667,94.19841269841271L402.5,88.52380952380949L406.3333333333333,79.18253968253968L410.1666666666667,82.06349206349205L414,55.87301587301586L417.8333333333333,57.095238095238116L421.66666666666663,52.992063492063494L425.5,53.16666666666671L429.33333333333337,68.79365079365078L433.16666666666663,61.19841269841268L437,29.769841269841272L440.83333333333337,72.89682539682538L444.6666666666667,72.89682539682535L448.5,74.29365079365076L452.3333333333333,80.75396825396821L456.1666666666667,79.61904761904759L460,81.8888888888888L463.8333333333333,132.4365079365079L467.6666666666667,138.1111111111111L471.5,109.30158730158726L475.3333333333333,125.01587301587297L479.1666666666667,125.80158730158728L483,121.61111111111107L486.8333333333333,139.07142857142853L490.6666666666667,135.66666666666663L494.5,105.46031746031744L498.33333333333337,134.531746031746L502.16666666666663,152.4285714285714L506,162.73015873015868L509.83333333333337,180.97619047619042L513.6666666666666,165.61111111111106L517.5,165.5238095238095L521.3333333333333,197.2142857142857L525.1666666666666,166.65873015873012L529,160.54761904761904L532.8333333333334,151.29365079365076L536.6666666666666,139.1587301587301L540.5,157.92857142857136L544.3333333333334,147.10317460317458L548.1666666666666,141.07936507936503L552,148.41269841269838L555.8333333333334,116.28571428571425L559.6666666666667,76.99999999999997L563.5,68.4444444444444L567.3333333333334,65.47619047619045L571.1666666666666,78.22222222222224L575,80.84126984126985L575,87.73809523809523L571.1666666666666,85.90476190476188L567.3333333333334,73.68253968253968L563.5,76.0396825396825L559.6666666666667,83.28571428571425L555.8333333333334,121.87301587301586L552,153.99999999999994L548.1666666666666,145.88095238095235L544.3333333333334,150.76984126984127L540.5,161.42063492063485L536.6666666666666,142.73809523809516L532.8333333333334,153.7380952380952L529,162.46825396825392L525.1666666666666,168.40476190476187L521.3333333333333,198.87301587301585L517.5,167.7063492063492L513.6666666666666,168.49206349206344L509.83333333333337,183.15873015873012L506,168.8412698412698L502.16666666666663,160.28571428571425L498.33333333333337,142.99999999999994L494.5,114.5396825396825L490.6666666666667,144.22222222222217L486.8333333333333,147.01587301587298L483,129.90476190476187L479.1666666666667,130.3412698412698L475.3333333333333,129.46825396825392L471.5,114.80158730158726L467.6666666666667,143.78571428571428L463.8333333333333,138.19841269841265L460,88.87301587301583L456.1666666666667,91.84126984126979L452.3333333333333,92.80158730158725L448.5,88.87301587301583L444.6666666666667,90.88095238095235L440.83333333333337,91.14285714285714L437,63.73015873015872L433.16666666666663,94.19841269841268L429.33333333333337,99.43650793650794L425.5,85.64285714285717L421.66666666666663,82.32539682539684L417.8333333333333,82.32539682539684L414,80.66666666666664L410.1666666666667,91.2301587301587L406.3333333333333,93.41269841269839L402.5,104.41269841269839L398.6666666666667,116.28571428571428L394.8333333333333,106.24603174603178L391,134.18253968253967L387.1666666666667,130.34126984126982L383.3333333333333,144.48412698412696L379.5,152.34126984126982L375.6666666666667,156.09523809523805L371.8333333333333,156.96825396825395L368,175.56349206349205L364.16666666666663,163.515873015873L360.33333333333337,159.23809523809524L356.5,162.38095238095238L352.66666666666663,156.35714285714286L348.83333333333337,152.77777777777783L345,141.51587301587304L341.1666666666667,145.53174603174605L337.3333333333333,150.6825396825397L333.5,164.2142857142857L329.6666666666667,158.88888888888889L325.8333333333333,171.28571428571428L322.00000000000006,170.6746031746032L318.1666666666667,185.77777777777777L314.3333333333333,194.76984126984127L310.5,198.34920634920636L306.6666666666667,199.39682539682536L302.8333333333333,208.91269841269843L299,210.39682539682542L295.16666666666663,212.4047619047619L291.33333333333337,222.88095238095238L287.5,226.8968253968254L283.6666666666667,234.66666666666666L279.83333333333337,238.07142857142856L276,238.24603174603175L272.1666666666667,240.0793650793651L268.3333333333333,256.75396825396825L264.5,257.45238095238096L260.66666666666663,259.1111111111111L256.8333333333333,260.94444444444446L253,262.86507936507934L249.16666666666669,263.3015873015873L245.33333333333334,267.23015873015873L241.5,267.75396825396825L237.66666666666666,269.3253968253968L233.83333333333334,268.27777777777777L230,267.8412698412698L226.16666666666666,267.14285714285717L222.33333333333334,268.53968253968253L218.5,269.23809523809524L214.66666666666669,269.41269841269843L210.83333333333331,268.53968253968253L207,269.8492063492064L203.16666666666666,269.3253968253968L199.33333333333334,269.8492063492064L195.5,269.41269841269843L191.66666666666666,268.53968253968253L187.83333333333334,268.45238095238096L184,269.06349206349205L180.16666666666669,268.015873015873L176.33333333333331,268.7142857142857L172.5,267.92857142857144L168.66666666666666,268.53968253968253L164.83333333333334,269.5L161.00000000000003,269.8492063492064L157.16666666666666,270.0238095238095L153.33333333333334,271.85714285714283L149.5,271.85714285714283L145.66666666666669,272.031746031746L141.83333333333334,271.85714285714283L138,271.85714285714283L134.16666666666666,271.42063492063494L130.33333333333331,271.6825396825397L126.5,271.76984126984127L122.66666666666667,271.76984126984127L118.83333333333333,272.031746031746L115,272.55555555555554L111.16666666666667,271.76984126984127L107.33333333333334,271.1587301587302L103.5,270.46031746031747L99.66666666666667,269.93650793650795L95.83333333333333,269.3253968253968L92,269.3253968253968L88.16666666666666,269.1507936507937L84.33333333333333,269.3253968253968L80.50000000000001,269.3253968253968L76.66666666666667,269.6746031746032L72.83333333333334,270.2857142857143L69,270.2857142857143L65.16666666666666,270.2857142857143L61.333333333333336,270.37301587301585L57.5,270.72222222222223L53.66666666666667,271.6825396825397L49.833333333333336,270.46031746031747L46,270.0238095238095L42.166666666666664,270.46031746031747L38.333333333333336,266.968253968254L34.5,266.531746031746L30.666666666666668,266.531746031746L26.833333333333336,266.44444444444446L23,266.968253968254L19.166666666666668,266.64814814814815L15.333333333333334,266.0777777777778L11.5,271.02777777777777L7.666666666666667,270.9259259259259L3.8333333333333335,270.1111111111111L0,267.6666666666667Z" style="fill: rgb(241, 110, 67); opacity: 0.85;"></path></g></g><path class="foreground" d="" style="display: none; fill: none;"></path></g></g></g><path class="foreground" d="" style="display: none; fill: none;"></path></g></g><g class="mark-group role-scope concat_1_group"><g transform="translate(0,284)"><path class="background" d="M0.5,0.5h575v75h-575Z" style="fill: none; stroke: #ddd;"></path><g><g class="mark-group role-axis"><g transform="translate(0.5,75.5)"><path class="background" d="M0,0h0v0h0Z" style="pointer-events: none; fill: none;"></path><g><g class="mark-rule role-axis-grid" style="pointer-events: none;"><line transform="translate(4,-75)" x2="0" y2="75" style="fill: none; stroke: #ddd; stroke-width: 1; opacity: 1;"></line><line transform="translate(31,-75)" x2="0" y2="75" style="fill: none; stroke: #ddd; stroke-width: 1; opacity: 1;"></line><line transform="translate(58,-75)" x2="0" y2="75" style="fill: none; stroke: #ddd; stroke-width: 1; opacity: 1;"></line><line transform="translate(84,-75)" x2="0" y2="75" style="fill: none; stroke: #ddd; stroke-width: 1; opacity: 1;"></line><line transform="translate(111,-75)" x2="0" y2="75" style="fill: none; stroke: #ddd; stroke-width: 1; opacity: 1;"></line><line transform="translate(138,-75)" x2="0" y2="75" style="fill: none; stroke: #ddd; stroke-width: 1; opacity: 1;"></line><line transform="translate(165,-75)" x2="0" y2="75" style="fill: none; stroke: #ddd; stroke-width: 1; opacity: 1;"></line><line transform="translate(192,-75)" x2="0" y2="75" style="fill: none; stroke: #ddd; stroke-width: 1; opacity: 1;"></line><line transform="translate(219,-75)" x2="0" y2="75" style="fill: none; stroke: #ddd; stroke-width: 1; opacity: 1;"></line><line transform="translate(245,-75)" x2="0" y2="75" style="fill: none; stroke: #ddd; stroke-width: 1; opacity: 1;"></line><line transform="translate(272,-75)" x2="0" y2="75" style="fill: none; stroke: #ddd; stroke-width: 1; opacity: 1;"></line><line transform="translate(299,-75)" x2="0" y2="75" style="fill: none; stroke: #ddd; stroke-width: 1; opacity: 1;"></line><line transform="translate(326,-75)" x2="0" y2="75" style="fill: none; stroke: #ddd; stroke-width: 1; opacity: 1;"></line><line transform="translate(353,-75)" x2="0" y2="75" style="fill: none; stroke: #ddd; stroke-width: 1; opacity: 1;"></line><line transform="translate(380,-75)" x2="0" y2="75" style="fill: none; stroke: #ddd; stroke-width: 1; opacity: 1;"></line><line transform="translate(406,-75)" x2="0" y2="75" style="fill: none; stroke: #ddd; stroke-width: 1; opacity: 1;"></line><line transform="translate(433,-75)" x2="0" y2="75" style="fill: none; stroke: #ddd; stroke-width: 1; opacity: 1;"></line><line transform="translate(460,-75)" x2="0" y2="75" style="fill: none; stroke: #ddd; stroke-width: 1; opacity: 1;"></line><line transform="translate(487,-75)" x2="0" y2="75" style="fill: none; stroke: #ddd; stroke-width: 1; opacity: 1;"></line><line transform="translate(514,-75)" x2="0" y2="75" style="fill: none; stroke: #ddd; stroke-width: 1; opacity: 1;"></line><line transform="translate(541,-75)" x2="0" y2="75" style="fill: none; stroke: #ddd; stroke-width: 1; opacity: 1;"></line><line transform="translate(567,-75)" x2="0" y2="75" style="fill: none; stroke: #ddd; stroke-width: 1; opacity: 1;"></line></g></g><path class="foreground" d="" style="pointer-events: none; display: none; fill: none;"></path></g></g><g class="mark-group role-axis"><g transform="translate(0.5,0.5)"><path class="background" d="M0,0h0v0h0Z" style="pointer-events: none; fill: none;"></path><g><g class="mark-rule role-axis-grid" style="pointer-events: none;"><line transform="translate(0,75)" x2="575" y2="0" style="fill: none; stroke: #ddd; stroke-width: 1; opacity: 1;"></line><line transform="translate(0,38)" x2="575" y2="0" style="fill: none; stroke: #ddd; stroke-width: 1; opacity: 1;"></line><line transform="translate(0,0)" x2="575" y2="0" style="fill: none; stroke: #ddd; stroke-width: 1; opacity: 1;"></line></g></g><path class="foreground" d="" style="pointer-events: none; display: none; fill: none;"></path></g></g><g class="mark-group role-axis"><g transform="translate(0.5,75.5)"><path class="background" d="M0,0h0v0h0Z" style="pointer-events: none; fill: none;"></path><g><g class="mark-rule role-axis-tick" style="pointer-events: none;"><line transform="translate(4,0)" x2="0" y2="5" style="fill: none; stroke: #888; stroke-width: 1; opacity: 1;"></line><line transform="translate(31,0)" x2="0" y2="5" style="fill: none; stroke: #888; stroke-width: 1; opacity: 1;"></line><line transform="translate(58,0)" x2="0" y2="5" style="fill: none; stroke: #888; stroke-width: 1; opacity: 1;"></line><line transform="translate(84,0)" x2="0" y2="5" style="fill: none; stroke: #888; stroke-width: 1; opacity: 1;"></line><line transform="translate(111,0)" x2="0" y2="5" style="fill: none; stroke: #888; stroke-width: 1; opacity: 1;"></line><line transform="translate(138,0)" x2="0" y2="5" style="fill: none; stroke: #888; stroke-width: 1; opacity: 1;"></line><line transform="translate(165,0)" x2="0" y2="5" style="fill: none; stroke: #888; stroke-width: 1; opacity: 1;"></line><line transform="translate(192,0)" x2="0" y2="5" style="fill: none; stroke: #888; stroke-width: 1; opacity: 1;"></line><line transform="translate(219,0)" x2="0" y2="5" style="fill: none; stroke: #888; stroke-width: 1; opacity: 1;"></line><line transform="translate(245,0)" x2="0" y2="5" style="fill: none; stroke: #888; stroke-width: 1; opacity: 1;"></line><line transform="translate(272,0)" x2="0" y2="5" style="fill: none; stroke: #888; stroke-width: 1; opacity: 1;"></line><line transform="translate(299,0)" x2="0" y2="5" style="fill: none; stroke: #888; stroke-width: 1; opacity: 1;"></line><line transform="translate(326,0)" x2="0" y2="5" style="fill: none; stroke: #888; stroke-width: 1; opacity: 1;"></line><line transform="translate(353,0)" x2="0" y2="5" style="fill: none; stroke: #888; stroke-width: 1; opacity: 1;"></line><line transform="translate(380,0)" x2="0" y2="5" style="fill: none; stroke: #888; stroke-width: 1; opacity: 1;"></line><line transform="translate(406,0)" x2="0" y2="5" style="fill: none; stroke: #888; stroke-width: 1; opacity: 1;"></line><line transform="translate(433,0)" x2="0" y2="5" style="fill: none; stroke: #888; stroke-width: 1; opacity: 1;"></line><line transform="translate(460,0)" x2="0" y2="5" style="fill: none; stroke: #888; stroke-width: 1; opacity: 1;"></line><line transform="translate(487,0)" x2="0" y2="5" style="fill: none; stroke: #888; stroke-width: 1; opacity: 1;"></line><line transform="translate(514,0)" x2="0" y2="5" style="fill: none; stroke: #888; stroke-width: 1; opacity: 1;"></line><line transform="translate(541,0)" x2="0" y2="5" style="fill: none; stroke: #888; stroke-width: 1; opacity: 1;"></line><line transform="translate(567,0)" x2="0" y2="5" style="fill: none; stroke: #888; stroke-width: 1; opacity: 1;"></line></g><g class="mark-text role-axis-label" style="pointer-events: none;"><text text-anchor="middle" transform="translate(3.8333333333333335,18)" style="font-family: sans-serif; font-size: 14px; fill: #000; opacity: 1;">abr 26</text><text text-anchor="middle" transform="translate(30.666666666666668,18)" style="font-family: sans-serif; font-size: 14px; fill: #000; opacity: 0;">may 03</text><text text-anchor="middle" transform="translate(57.5,18)" style="font-family: sans-serif; font-size: 14px; fill: #000; opacity: 1;">may 10</text><text text-anchor="middle" transform="translate(84.33333333333333,18)" style="font-family: sans-serif; font-size: 14px; fill: #000; opacity: 0;">may 17</text><text text-anchor="middle" transform="translate(111.16666666666667,18)" style="font-family: sans-serif; font-size: 14px; fill: #000; opacity: 1;">may 24</text><text text-anchor="middle" transform="translate(138,18)" style="font-family: sans-serif; font-size: 14px; fill: #000; opacity: 0;">may 31</text><text text-anchor="middle" transform="translate(164.83333333333334,18)" style="font-family: sans-serif; font-size: 14px; fill: #000; opacity: 1;">jun 07</text><text text-anchor="middle" transform="translate(191.66666666666666,18)" style="font-family: sans-serif; font-size: 14px; fill: #000; opacity: 0;">jun 14</text><text text-anchor="middle" transform="translate(218.5,18)" style="font-family: sans-serif; font-size: 14px; fill: #000; opacity: 1;">jun 21</text><text text-anchor="middle" transform="translate(245.33333333333334,18)" style="font-family: sans-serif; font-size: 14px; fill: #000; opacity: 0;">jun 28</text><text text-anchor="middle" transform="translate(272.1666666666667,18)" style="font-family: sans-serif; font-size: 14px; fill: #000; opacity: 1;">jul 05</text><text text-anchor="middle" transform="translate(299,18)" style="font-family: sans-serif; font-size: 14px; fill: #000; opacity: 0;">jul 12</text><text text-anchor="middle" transform="translate(325.8333333333333,18)" style="font-family: sans-serif; font-size: 14px; fill: #000; opacity: 1;">jul 19</text><text text-anchor="middle" transform="translate(352.66666666666663,18)" style="font-family: sans-serif; font-size: 14px; fill: #000; opacity: 0;">jul 26</text><text text-anchor="middle" transform="translate(379.5,18)" style="font-family: sans-serif; font-size: 14px; fill: #000; opacity: 1;">ago 02</text><text text-anchor="middle" transform="translate(406.3333333333333,18)" style="font-family: sans-serif; font-size: 14px; fill: #000; opacity: 0;">ago 09</text><text text-anchor="middle" transform="translate(433.16666666666663,18)" style="font-family: sans-serif; font-size: 14px; fill: #000; opacity: 1;">ago 16</text><text text-anchor="middle" transform="translate(460,18)" style="font-family: sans-serif; font-size: 14px; fill: #000; opacity: 0;">ago 23</text><text text-anchor="middle" transform="translate(486.8333333333333,18)" style="font-family: sans-serif; font-size: 14px; fill: #000; opacity: 1;">ago 30</text><text text-anchor="middle" transform="translate(513.6666666666666,18)" style="font-family: sans-serif; font-size: 14px; fill: #000; opacity: 0;">sep 06</text><text text-anchor="middle" transform="translate(540.5,18)" style="font-family: sans-serif; font-size: 14px; fill: #000; opacity: 1;">sep 13</text><text text-anchor="middle" transform="translate(567.3333333333334,18)" style="font-family: sans-serif; font-size: 14px; fill: #000; opacity: 0;">sep 20</text></g><g class="mark-rule role-axis-domain" style="pointer-events: none;"><line transform="translate(0,0)" x2="575" y2="0" style="fill: none; stroke: #888; stroke-width: 1; opacity: 1;"></line></g><g class="mark-text role-axis-title" style="pointer-events: none;"><text text-anchor="middle" transform="translate(287.5,36)" style="font-family: sans-serif; font-size: 14px; font-weight: bold; fill: #000; opacity: 1;">Fecha de boletín</text></g></g><path class="foreground" d="" style="pointer-events: none; display: none; fill: none;"></path></g></g><g class="mark-group role-axis"><g transform="translate(0.5,0.5)"><path class="background" d="M0,0h0v0h0Z" style="pointer-events: none; fill: none;"></path><g><g class="mark-rule role-axis-tick" style="pointer-events: none;"><line transform="translate(0,75)" x2="-5" y2="0" style="fill: none; stroke: #888; stroke-width: 1; opacity: 1;"></line><line transform="translate(0,38)" x2="-5" y2="0" style="fill: none; stroke: #888; stroke-width: 1; opacity: 1;"></line><line transform="translate(0,0)" x2="-5" y2="0" style="fill: none; stroke: #888; stroke-width: 1; opacity: 1;"></line></g><g class="mark-text role-axis-label" style="pointer-events: none;"><text text-anchor="end" transform="translate(-7,79)" style="font-family: sans-serif; font-size: 14px; fill: #000; opacity: 1;">0%</text><text text-anchor="end" transform="translate(-7,41.5)" style="font-family: sans-serif; font-size: 14px; fill: #000; opacity: 1;">50%</text><text text-anchor="end" transform="translate(-7,4)" style="font-family: sans-serif; font-size: 14px; fill: #000; opacity: 1;"></text></g><g class="mark-rule role-axis-domain" style="pointer-events: none;"><line transform="translate(0,75)" x2="0" y2="-75" style="fill: none; stroke: #888; stroke-width: 1; opacity: 1;"></line></g><g class="mark-text role-axis-title" style="pointer-events: none;"><text text-anchor="middle" transform="translate(-39.0205078125,37.5) rotate(-90) translate(0,-3)" style="font-family: sans-serif; font-size: 14px; font-weight: bold; fill: #000; opacity: 1;">% renglón</text></g></g><path class="foreground" d="" style="pointer-events: none; display: none; fill: none;"></path></g></g><g class="mark-group role-scope concat_1_pathgroup"><g transform="translate(0,0)"><path class="background" d="M0,0h575v75h-575Z" style="fill: none;"></path><g><g class="mark-area role-mark concat_1_marks"><path d="M0,75L3.8333333333333335,75L7.666666666666667,75L11.5,75L15.333333333333334,75L19.166666666666668,75L23,75L26.833333333333336,75L30.666666666666668,75L34.5,75L38.333333333333336,75L42.166666666666664,75L46,75L49.833333333333336,75L53.66666666666667,75L57.5,75L61.333333333333336,75L65.16666666666666,75L69,75L72.83333333333334,75L76.66666666666667,75L80.50000000000001,75L84.33333333333333,75L88.16666666666666,75L92,75L95.83333333333333,75L99.66666666666667,75L103.5,74.43181818181819L107.33333333333334,74.24242424242425L111.16666666666667,73.91304347826087L115,73.70689655172414L118.83333333333333,74.02597402597402L122.66666666666667,73.36956521739131L126.5,72.63157894736842L130.33333333333331,71.01063829787233L134.16666666666666,71.1734693877551L138,70.3125L141.83333333333334,70.3125L145.66666666666669,69.56521739130434L149.5,69.82758620689656L153.33333333333334,69.54545454545455L157.16666666666666,67.6056338028169L161.00000000000003,68.0921052631579L164.83333333333334,68.59756097560975L168.66666666666666,69.47368421052632L172.5,69.28571428571429L176.33333333333331,68.18181818181817L180.16666666666669,70.38461538461539L184,73.79032258064517L187.83333333333334,73.88888888888889L191.66666666666666,73.86363636363636L195.5,73.75L199.33333333333334,70.87155963302752L203.16666666666666,71.65178571428572L207,70.37037037037038L210.83333333333331,69.9438202247191L214.66666666666669,68.66197183098592L218.5,68.75L222.33333333333334,69.44444444444444L226.16666666666666,74.25742574257426L230,74.19354838709677L233.83333333333334,74.12790697674419L237.66666666666666,75L241.5,75L245.33333333333334,75L249.16666666666669,73.9795918367347L253,73.59375L256.8333333333333,73.17961165048544L260.66666666666663,66.74008810572687L264.5,65.58704453441295L268.3333333333333,65.51383399209486L272.1666666666667,64.00862068965517L276,63.24742268041237L279.83333333333337,62.18354430379747L283.6666666666667,62.0162932790224L287.5,62.692307692307686L291.33333333333337,61.60287081339713L295.16666666666663,60.7429718875502L299,60.91877496671104L302.8333333333333,57.91015625L306.6666666666667,60.49488054607508L310.5,60.88530066815145L314.3333333333333,62.152034261241965L318.1666666666667,63.52261790182868L322.00000000000006,66.46890343698854L325.8333333333333,67.76586974443529L329.6666666666667,70.76612903225806L333.5,70.38816295157571L337.3333333333333,70.27720739219713L341.1666666666667,69.98689384010486L345,70.74669187145558L348.83333333333337,70.49689440993788L352.66666666666663,69.9432221433641L356.5,69.49183976261128L360.33333333333337,69.9360341151386L364.16666666666663,70.67099567099567L368,71.44292604501608L371.8333333333333,70.56270096463022L375.6666666666667,68.39167169583584L379.5,69.23405466970387L383.3333333333333,68.07387862796834L387.1666666666667,68.47986247544205L391,68.02860061287028L394.8333333333333,67.39177962396151L398.6666666666667,66.16368903911153L402.5,65.55477528089888L406.3333333333333,63.96567097637093L410.1666666666667,63.76696832579185L414,65.10956175298806L417.8333333333333,64.93389423076923L421.66666666666663,65.97522611089265L425.5,65.87957497048406L429.33333333333337,67.28408128704487L433.16666666666663,68.66067782768476L437,69.6066215735137L440.83333333333337,68.0669546436285L444.6666666666667,68.26133909287257L448.5,68.01870378425403L452.3333333333333,68.29213483146067L456.1666666666667,67.76139410187668L460,67.3372513562387L463.8333333333333,66.36558481322719L467.6666666666667,66.67729591836735L471.5,67.8082191780822L475.3333333333333,65.87601862630966L479.1666666666667,65.87185488589819L483,66.16391576550939L486.8333333333333,63.872832369942195L490.6666666666667,63.204887218045116L494.5,65.19052523171987L498.33333333333337,63.11373523927906L502.16666666666663,63.9957264957265L506,63.044323483670304L509.83333333333337,62.39554317548747L513.6666666666666,64.22585794094175L517.5,63.81578947368422L521.3333333333333,59.51178451178451L525.1666666666666,63.87993553585819L529,63.958810068649896L532.8333333333334,61.926605504587165L536.6666666666666,58.94922879177379L540.5,55.53691275167786L544.3333333333334,57.235494880546085L548.1666666666666,57.007822685788796L552,55.60344827586207L555.8333333333334,55.816831683168324L559.6666666666667,59.65608465608466L563.5,59.625950972104825L567.3333333333334,58.62500000000001L571.1666666666666,56.99866903283052L575,56.99190647482015L575,75L571.1666666666666,75L567.3333333333334,75L563.5,75L559.6666666666667,75L555.8333333333334,75L552,75L548.1666666666666,75L544.3333333333334,75L540.5,75L536.6666666666666,75L532.8333333333334,75L529,75L525.1666666666666,75L521.3333333333333,75L517.5,75L513.6666666666666,75L509.83333333333337,75L506,75L502.16666666666663,75L498.33333333333337,75L494.5,75L490.6666666666667,75L486.8333333333333,75L483,75L479.1666666666667,75L475.3333333333333,75L471.5,75L467.6666666666667,75L463.8333333333333,75L460,75L456.1666666666667,75L452.3333333333333,75L448.5,75L444.6666666666667,75L440.83333333333337,75L437,75L433.16666666666663,75L429.33333333333337,75L425.5,75L421.66666666666663,75L417.8333333333333,75L414,75L410.1666666666667,75L406.3333333333333,75L402.5,75L398.6666666666667,75L394.8333333333333,75L391,75L387.1666666666667,75L383.3333333333333,75L379.5,75L375.6666666666667,75L371.8333333333333,75L368,75L364.16666666666663,75L360.33333333333337,75L356.5,75L352.66666666666663,75L348.83333333333337,75L345,75L341.1666666666667,75L337.3333333333333,75L333.5,75L329.6666666666667,75L325.8333333333333,75L322.00000000000006,75L318.1666666666667,75L314.3333333333333,75L310.5,75L306.6666666666667,75L302.8333333333333,75L299,75L295.16666666666663,75L291.33333333333337,75L287.5,75L283.6666666666667,75L279.83333333333337,75L276,75L272.1666666666667,75L268.3333333333333,75L264.5,75L260.66666666666663,75L256.8333333333333,75L253,75L249.16666666666669,75L245.33333333333334,75L241.5,75L237.66666666666666,75L233.83333333333334,75L230,75L226.16666666666666,75L222.33333333333334,75L218.5,75L214.66666666666669,75L210.83333333333331,75L207,75L203.16666666666666,75L199.33333333333334,75L195.5,75L191.66666666666666,75L187.83333333333334,75L184,75L180.16666666666669,75L176.33333333333331,75L172.5,75L168.66666666666666,75L164.83333333333334,75L161.00000000000003,75L157.16666666666666,75L153.33333333333334,75L149.5,75L145.66666666666669,75L141.83333333333334,75L138,75L134.16666666666666,75L130.33333333333331,75L126.5,75L122.66666666666667,75L118.83333333333333,75L115,75L111.16666666666667,75L107.33333333333334,75L103.5,75L99.66666666666667,75L95.83333333333333,75L92,75L88.16666666666666,75L84.33333333333333,75L80.50000000000001,75L76.66666666666667,75L72.83333333333334,75L69,75L65.16666666666666,75L61.333333333333336,75L57.5,75L53.66666666666667,75L49.833333333333336,75L46,75L42.166666666666664,75L38.333333333333336,75L34.5,75L30.666666666666668,75L26.833333333333336,75L23,75L19.166666666666668,75L15.333333333333334,75L11.5,75L7.666666666666667,75L3.8333333333333335,75L0,75Z" style="fill: rgb(100, 188, 97); opacity: 0.85;"></path></g></g><path class="foreground" d="" style="display: none; fill: none;"></path></g><g transform="translate(0,0)"><path class="background" d="M0,0h575v75h-575Z" style="fill: none;"></path><g><g class="mark-area role-mark concat_1_marks"><path d="M0,23.076923076923077L3.8333333333333335,46.875L7.666666666666667,49.137931034482754L11.5,49.285714285714285L15.333333333333334,51.31578947368421L19.166666666666668,52.570093457943926L23,52.94117647058823L26.833333333333336,56.4L30.666666666666668,56.69291338582677L34.5,55.952380952380956L38.333333333333336,56.40495867768596L42.166666666666664,56.25000000000001L46,50.34246575342466L49.833333333333336,50.37313432835822L53.66666666666667,50.00000000000001L57.5,40.909090909090914L61.333333333333336,39.406779661016955L65.16666666666666,40.00000000000001L69,46.5909090909091L72.83333333333334,49.21875L76.66666666666667,51.5625L80.50000000000001,57.31707317073171L84.33333333333333,62.8125L88.16666666666666,62.65243902439025L92,62.5L95.83333333333333,61.708860759493675L99.66666666666667,62.337662337662344L103.5,64.20454545454545L107.33333333333334,60.6060606060606L111.16666666666667,57.60869565217392L115,62.06896551724139L118.83333333333333,61.36363636363637L122.66666666666667,65.21739130434783L126.5,67.89473684210526L130.33333333333331,67.02127659574468L134.16666666666666,66.58163265306123L138,65.62500000000001L141.83333333333334,64.6875L145.66666666666669,65.21739130434783L149.5,54.31034482758621L153.33333333333334,46.36363636363636L157.16666666666666,34.85915492957748L161.00000000000003,35.526315789473685L164.83333333333334,34.75609756097562L168.66666666666666,37.89473684210527L172.5,35.714285714285715L176.33333333333331,37.87878787878789L180.16666666666669,49.03846153846155L184,56.85483870967743L187.83333333333334,57.777777777777786L191.66666666666666,57.38636363636364L195.5,56.875000000000014L199.33333333333334,57.79816513761469L203.16666666666666,54.91071428571429L207,43.518518518518526L210.83333333333331,42.13483146067417L214.66666666666669,35.915492957746494L218.5,33.33333333333334L222.33333333333334,30.555555555555575L226.16666666666666,31.18811881188119L230,32.258064516129046L233.83333333333334,31.39534883720931L237.66666666666666,28.000000000000014L241.5,33.59375000000001L245.33333333333334,32.03883495145632L249.16666666666669,21.93877551020409L253,25.31250000000001L256.8333333333333,30.946601941747577L260.66666666666663,28.083700440528645L264.5,26.417004048582996L268.3333333333333,23.41897233201581L272.1666666666667,25.377155172413794L276,25.824742268041238L279.83333333333337,23.259493670886084L283.6666666666667,18.635437881873724L287.5,17.307692307692303L291.33333333333337,14.952153110047856L295.16666666666663,12.751004016064257L299,7.589880159786944L302.8333333333333,6.4453125L306.6666666666667,6.655290102389086L310.5,7.099109131403117L314.3333333333333,8.511777301927184L318.1666666666667,9.67276227141482L322.00000000000006,17.12356792144026L325.8333333333333,20.156636438582037L329.6666666666667,20.72947214076246L333.5,21.041506533435825L337.3333333333333,21.81724845995894L341.1666666666667,24.868938401048496L345,27.835538752362954L348.83333333333337,26.44927536231885L352.66666666666663,25.709723207948905L356.5,28.264094955489625L360.33333333333337,31.02345415778253L364.16666666666663,32.521645021645035L368,31.109324758842458L371.8333333333333,36.55948553054663L375.6666666666667,39.333132166566095L379.5,43.30865603644648L383.3333333333333,44.48548812664908L387.1666666666667,43.35707269155207L391,45.045965270684384L394.8333333333333,41.615653694796684L398.6666666666667,34.367455335586676L402.5,28.757022471910126L406.3333333333333,22.971466785555066L410.1666666666667,17.782805429864265L414,20.348605577689245L417.8333333333333,18.47956730769232L421.66666666666663,17.37121510027527L425.5,18.181818181818183L429.33333333333337,19.52794242167655L433.16666666666663,20.855451204573313L437,18.556425774296915L440.83333333333337,13.315334773218146L444.6666666666667,13.347732181425497L448.5,13.01652892561985L452.3333333333333,13.314606741573042L456.1666666666667,11.662198391420928L460,11.765370705244147L463.8333333333333,14.742804654011026L467.6666666666667,15.3061224489796L471.5,18.611696522655443L475.3333333333333,19.819557625145535L479.1666666666667,20.231129315389122L483,23.30677290836654L486.8333333333333,21.483622350674388L490.6666666666667,21.47556390977445L494.5,25.914006179196708L498.33333333333337,23.586078309509027L502.16666666666663,23.557692307692324L506,21.870139968895806L509.83333333333337,19.777158774373266L513.6666666666666,18.91460494812451L517.5,18.48086124401915L521.3333333333333,7.996632996633019L525.1666666666666,9.790491539081408L529,10.926773455377598L532.8333333333334,11.538461538461547L536.6666666666666,11.375321336760946L540.5,11.800894854586138L544.3333333333334,10.955631399317422L548.1666666666666,11.48956975228163L552,15.568965517241388L555.8333333333334,16.666666666666682L559.6666666666667,22.486772486772484L563.5,22.28444632290788L567.3333333333334,21.718750000000007L571.1666666666666,22.6929902395741L575,22.425809352518L575,56.99190647482015L571.1666666666666,56.99866903283052L567.3333333333334,58.62500000000001L563.5,59.62595097210483L559.6666666666667,59.65608465608466L555.8333333333334,55.81683168316833L552,55.60344827586207L548.1666666666666,57.007822685788796L544.3333333333334,57.235494880546085L540.5,55.53691275167786L536.6666666666666,58.94922879177379L532.8333333333334,61.926605504587165L529,63.958810068649896L525.1666666666666,63.87993553585819L521.3333333333333,59.51178451178451L517.5,63.81578947368422L513.6666666666666,64.22585794094175L509.83333333333337,62.39554317548746L506,63.044323483670304L502.16666666666663,63.9957264957265L498.33333333333337,63.11373523927906L494.5,65.19052523171987L490.6666666666667,63.204887218045116L486.8333333333333,63.872832369942195L483,66.16391576550939L479.1666666666667,65.87185488589819L475.3333333333333,65.87601862630966L471.5,67.8082191780822L467.6666666666667,66.67729591836735L463.8333333333333,66.36558481322719L460,67.3372513562387L456.1666666666667,67.76139410187668L452.3333333333333,68.29213483146067L448.5,68.01870378425403L444.6666666666667,68.26133909287257L440.83333333333337,68.0669546436285L437,69.6066215735137L433.16666666666663,68.66067782768476L429.33333333333337,67.28408128704487L425.5,65.87957497048406L421.66666666666663,65.97522611089265L417.8333333333333,64.93389423076923L414,65.10956175298806L410.1666666666667,63.76696832579185L406.3333333333333,63.96567097637093L402.5,65.55477528089888L398.6666666666667,66.16368903911153L394.8333333333333,67.39177962396151L391,68.02860061287028L387.1666666666667,68.47986247544205L383.3333333333333,68.07387862796834L379.5,69.23405466970387L375.6666666666667,68.39167169583584L371.8333333333333,70.56270096463022L368,71.44292604501608L364.16666666666663,70.67099567099567L360.33333333333337,69.9360341151386L356.5,69.49183976261128L352.66666666666663,69.9432221433641L348.83333333333337,70.49689440993788L345,70.74669187145558L341.1666666666667,69.98689384010486L337.3333333333333,70.27720739219713L333.5,70.38816295157571L329.6666666666667,70.76612903225806L325.8333333333333,67.76586974443529L322.00000000000006,66.46890343698854L318.1666666666667,63.52261790182868L314.3333333333333,62.152034261241965L310.5,60.88530066815145L306.6666666666667,60.49488054607508L302.8333333333333,57.91015625L299,60.91877496671104L295.16666666666663,60.7429718875502L291.33333333333337,61.60287081339713L287.5,62.69230769230769L283.6666666666667,62.016293279022406L279.83333333333337,62.183544303797476L276,63.24742268041237L272.1666666666667,64.00862068965517L268.3333333333333,65.51383399209486L264.5,65.58704453441295L260.66666666666663,66.74008810572687L256.8333333333333,73.17961165048544L253,73.59375L249.16666666666669,73.9795918367347L245.33333333333334,75L241.5,75L237.66666666666666,75L233.83333333333334,74.12790697674419L230,74.19354838709677L226.16666666666666,74.25742574257426L222.33333333333334,69.44444444444444L218.5,68.75L214.66666666666669,68.66197183098592L210.83333333333331,69.9438202247191L207,70.37037037037038L203.16666666666666,71.65178571428572L199.33333333333334,70.87155963302752L195.5,73.75L191.66666666666666,73.86363636363636L187.83333333333334,73.88888888888889L184,73.79032258064517L180.16666666666669,70.38461538461539L176.33333333333331,68.18181818181817L172.5,69.28571428571429L168.66666666666666,69.47368421052632L164.83333333333334,68.59756097560975L161.00000000000003,68.0921052631579L157.16666666666666,67.6056338028169L153.33333333333334,69.54545454545455L149.5,69.82758620689656L145.66666666666669,69.56521739130434L141.83333333333334,70.3125L138,70.3125L134.16666666666666,71.1734693877551L130.33333333333331,71.01063829787233L126.5,72.63157894736842L122.66666666666667,73.36956521739131L118.83333333333333,74.02597402597402L115,73.70689655172414L111.16666666666667,73.91304347826087L107.33333333333334,74.24242424242425L103.5,74.43181818181819L99.66666666666667,75L95.83333333333333,75L92,75L88.16666666666666,75L84.33333333333333,75L80.50000000000001,75L76.66666666666667,75L72.83333333333334,75L69,75L65.16666666666666,75L61.333333333333336,75L57.5,75L53.66666666666667,75L49.833333333333336,75L46,75L42.166666666666664,75L38.333333333333336,75L34.5,75L30.666666666666668,75L26.833333333333336,75L23,75L19.166666666666668,75L15.333333333333334,75L11.5,75L7.666666666666667,75L3.8333333333333335,75L0,75Z" style="fill: rgb(215, 238, 142); opacity: 0.85;"></path></g></g><path class="foreground" d="" style="display: none; fill: none;"></path></g><g transform="translate(0,0)"><path class="background" d="M0,0h575v75h-575Z" style="fill: none;"></path><g><g class="mark-area role-mark concat_1_marks"><path d="M0,5.769230769230766L3.8333333333333335,25.000000000000004L7.666666666666667,23.275862068965512L11.5,19.285714285714285L15.333333333333334,17.368421052631582L19.166666666666668,17.52336448598131L23,17.016806722689083L26.833333333333336,16.2L30.666666666666668,17.716535433070867L34.5,17.26190476190476L38.333333333333336,17.975206611570247L42.166666666666664,17.647058823529406L46,16.438356164383553L49.833333333333336,16.791044776119403L53.66666666666667,22.22222222222222L57.5,8.181818181818176L61.333333333333336,7.627118644067793L65.16666666666666,7.499999999999998L69,13.636363636363633L72.83333333333334,11.718749999999991L76.66666666666667,27.343750000000004L80.50000000000001,35.36585365853659L84.33333333333333,44.53125L88.16666666666666,44.359756097560975L92,44.907407407407405L95.83333333333333,44.14556962025317L99.66666666666667,46.75324675324675L103.5,45.45454545454545L107.33333333333334,41.66666666666666L111.16666666666667,34.78260869565217L115,38.79310344827586L118.83333333333333,41.883116883116884L122.66666666666667,44.83695652173913L126.5,45.78947368421053L130.33333333333331,44.68085106382979L134.16666666666666,43.622448979591844L138,41.25L141.83333333333334,41.25L145.66666666666669,38.04347826086957L149.5,28.448275862068964L153.33333333333334,25.90909090909091L157.16666666666666,14.788732394366194L161.00000000000003,16.776315789473678L164.83333333333334,17.378048780487802L168.66666666666666,16.578947368421055L172.5,17.14285714285714L176.33333333333331,20.45454545454546L180.16666666666669,28.84615384615385L184,33.87096774193549L187.83333333333334,33.33333333333334L191.66666666666666,32.95454545454546L195.5,35L199.33333333333334,34.403669724770644L203.16666666666666,31.47321428571428L207,20.37037037037037L210.83333333333331,12.640449438202253L214.66666666666669,7.394366197183097L218.5,6.249999999999995L222.33333333333334,6.481481481481485L226.16666666666666,8.168316831683168L230,8.870967741935484L233.83333333333334,7.848837209302323L237.66666666666666,10.000000000000005L241.5,10.156249999999996L245.33333333333334,10.194174757281557L249.16666666666669,6.632653061224489L253,9.843750000000007L256.8333333333333,16.38349514563107L260.66666666666663,14.867841409691637L264.5,13.967611336032387L268.3333333333333,13.043478260869565L272.1666666666667,10.344827586206891L276,9.896907216494844L279.83333333333337,8.069620253164558L283.6666666666667,4.429735234215881L287.5,4.35897435897436L291.33333333333337,3.5885167464114938L295.16666666666663,3.0120481927710885L299,1.0985352862849544L302.8333333333333,1.0742187499999973L306.6666666666667,1.109215017064849L310.5,1.6703786191536785L314.3333333333333,1.2044967880085578L318.1666666666667,1.2271414821944133L322.00000000000006,1.6571194762684094L325.8333333333333,1.5457543281121282L329.6666666666667,1.8695014662756666L333.5,1.8447348193697173L337.3333333333333,1.8993839835728887L341.1666666666667,2.1133682830930587L345,2.741020793950849L348.83333333333337,2.5362318840579654L352.66666666666663,2.6614620298083755L356.5,3.227002967359041L360.33333333333337,4.317697228144998L364.16666666666663,5.898268398268397L368,6.330385852090023L371.8333333333333,9.790996784565909L375.6666666666667,13.352444176222086L379.5,14.991457858769927L383.3333333333333,15.831134564643806L387.1666666666667,13.961198428290766L391,13.215015321756898L394.8333333333333,11.609094884127677L398.6666666666667,9.162240463544173L402.5,6.390449438202242L406.3333333333333,5.450289790459204L410.1666666666667,3.5633484162895885L414,8.486055776892426L417.8333333333333,8.68389423076923L421.66666666666663,9.90955564294141L425.5,10.979929161747334L429.33333333333337,11.145215918712955L433.16666666666663,11.576153532053901L437,10.386258454966175L440.83333333333337,6.771058315334763L444.6666666666667,6.673866090712741L448.5,5.448020878642884L452.3333333333333,4.6516853932584254L456.1666666666667,4.691689008042893L460,2.7124773960217037L463.8333333333333,3.0312308634415115L467.6666666666667,3.109056122448972L471.5,2.489462592202321L475.3333333333333,2.2264260768335347L479.1666666666667,2.2820362785254455L483,4.055207740466699L486.8333333333333,4.383429672447018L490.6666666666667,4.6052631578947425L494.5,4.016477857878472L498.33333333333337,4.521441889372285L502.16666666666663,4.8076923076923075L506,4.082426127527211L509.83333333333337,1.7409470752088985L513.6666666666666,1.9752593774940153L517.5,1.4952153110047772L521.3333333333333,1.599326599326592L525.1666666666666,1.208702659145855L529,1.2585812356979447L532.8333333333334,1.4820042342978041L536.6666666666666,1.9762210796915176L540.5,2.2371364653243826L544.3333333333334,2.1501706484641643L548.1666666666666,2.6890482398957083L552,3.3103448275862117L555.8333333333334,2.64026402640265L559.6666666666667,2.380952380952381L563.5,2.75781910397295L567.3333333333334,2.9375000000000013L571.1666666666666,2.928127772848274L575,2.664118705035967L575,22.425809352518L571.1666666666666,22.6929902395741L567.3333333333334,21.718750000000007L563.5,22.28444632290788L559.6666666666667,22.486772486772484L555.8333333333334,16.666666666666682L552,15.568965517241388L548.1666666666666,11.48956975228163L544.3333333333334,10.955631399317422L540.5,11.800894854586138L536.6666666666666,11.375321336760946L532.8333333333334,11.538461538461547L529,10.926773455377598L525.1666666666666,9.790491539081408L521.3333333333333,7.996632996633018L517.5,18.48086124401915L513.6666666666666,18.91460494812451L509.83333333333337,19.777158774373266L506,21.870139968895806L502.16666666666663,23.557692307692324L498.33333333333337,23.586078309509027L494.5,25.914006179196704L490.6666666666667,21.47556390977445L486.8333333333333,21.483622350674388L483,23.30677290836654L479.1666666666667,20.231129315389122L475.3333333333333,19.819557625145535L471.5,18.611696522655443L467.6666666666667,15.3061224489796L463.8333333333333,14.742804654011026L460,11.765370705244147L456.1666666666667,11.662198391420928L452.3333333333333,13.314606741573042L448.5,13.01652892561985L444.6666666666667,13.347732181425497L440.83333333333337,13.315334773218146L437,18.556425774296915L433.16666666666663,20.855451204573313L429.33333333333337,19.52794242167655L425.5,18.181818181818183L421.66666666666663,17.37121510027527L417.8333333333333,18.47956730769232L414,20.348605577689245L410.1666666666667,17.782805429864265L406.3333333333333,22.971466785555066L402.5,28.757022471910126L398.6666666666667,34.367455335586676L394.8333333333333,41.615653694796684L391,45.045965270684384L387.1666666666667,43.35707269155207L383.3333333333333,44.48548812664908L379.5,43.30865603644648L375.6666666666667,39.333132166566095L371.8333333333333,36.55948553054663L368,31.10932475884246L364.16666666666663,32.521645021645035L360.33333333333337,31.02345415778253L356.5,28.264094955489625L352.66666666666663,25.709723207948905L348.83333333333337,26.44927536231885L345,27.835538752362954L341.1666666666667,24.868938401048496L337.3333333333333,21.81724845995894L333.5,21.041506533435825L329.6666666666667,20.72947214076246L325.8333333333333,20.156636438582037L322.00000000000006,17.12356792144026L318.1666666666667,9.67276227141482L314.3333333333333,8.511777301927184L310.5,7.099109131403118L306.6666666666667,6.655290102389086L302.8333333333333,6.4453125L299,7.589880159786944L295.16666666666663,12.751004016064257L291.33333333333337,14.952153110047856L287.5,17.307692307692303L283.6666666666667,18.635437881873724L279.83333333333337,23.259493670886084L276,25.824742268041238L272.1666666666667,25.377155172413794L268.3333333333333,23.41897233201581L264.5,26.417004048582996L260.66666666666663,28.083700440528645L256.8333333333333,30.946601941747577L253,25.31250000000001L249.16666666666669,21.93877551020409L245.33333333333334,32.03883495145632L241.5,33.59375000000001L237.66666666666666,28.000000000000014L233.83333333333334,31.395348837209312L230,32.258064516129046L226.16666666666666,31.18811881188119L222.33333333333334,30.555555555555575L218.5,33.33333333333334L214.66666666666669,35.915492957746494L210.83333333333331,42.13483146067417L207,43.518518518518526L203.16666666666666,54.91071428571429L199.33333333333334,57.79816513761469L195.5,56.875000000000014L191.66666666666666,57.38636363636364L187.83333333333334,57.777777777777786L184,56.85483870967743L180.16666666666669,49.03846153846155L176.33333333333331,37.87878787878789L172.5,35.714285714285715L168.66666666666666,37.89473684210527L164.83333333333334,34.75609756097562L161.00000000000003,35.526315789473685L157.16666666666666,34.85915492957748L153.33333333333334,46.36363636363636L149.5,54.31034482758621L145.66666666666669,65.21739130434783L141.83333333333334,64.6875L138,65.62500000000001L134.16666666666666,66.58163265306123L130.33333333333331,67.02127659574468L126.5,67.89473684210526L122.66666666666667,65.21739130434783L118.83333333333333,61.36363636363637L115,62.06896551724139L111.16666666666667,57.60869565217392L107.33333333333334,60.6060606060606L103.5,64.20454545454545L99.66666666666667,62.337662337662344L95.83333333333333,61.708860759493675L92,62.5L88.16666666666666,62.65243902439025L84.33333333333333,62.8125L80.50000000000001,57.31707317073171L76.66666666666667,51.5625L72.83333333333334,49.21875L69,46.5909090909091L65.16666666666666,40.00000000000001L61.333333333333336,39.406779661016955L57.5,40.90909090909091L53.66666666666667,50.00000000000001L49.833333333333336,50.37313432835822L46,50.34246575342466L42.166666666666664,56.25000000000001L38.333333333333336,56.404958677685954L34.5,55.952380952380956L30.666666666666668,56.69291338582677L26.833333333333336,56.400000000000006L23,52.94117647058823L19.166666666666668,52.570093457943926L15.333333333333334,51.31578947368421L11.5,49.285714285714285L7.666666666666667,49.137931034482754L3.8333333333333335,46.875L0,23.076923076923077Z" style="fill: rgb(254, 221, 141); opacity: 0.85;"></path></g></g><path class="foreground" d="" style="display: none; fill: none;"></path></g><g transform="translate(0,0)"><path class="background" d="M0,0h575v75h-575Z" style="fill: none;"></path><g><g class="mark-area role-mark concat_1_marks"><path d="M0,0L3.8333333333333335,0L7.666666666666667,0L11.5,0L15.333333333333334,0L19.166666666666668,0L23,0L26.833333333333336,0L30.666666666666668,0L34.5,0L38.333333333333336,0L42.166666666666664,0L46,0L49.833333333333336,0L53.66666666666667,0L57.5,0L61.333333333333336,0L65.16666666666666,0L69,0L72.83333333333334,0L76.66666666666667,0L80.50000000000001,0L84.33333333333333,0L88.16666666666666,0L92,8.326672684688674e-15L95.83333333333333,0L99.66666666666667,0L103.5,0L107.33333333333334,0L111.16666666666667,0L115,0L118.83333333333333,0L122.66666666666667,0L126.5,0L130.33333333333331,0L134.16666666666666,0L138,0L141.83333333333334,0L145.66666666666669,0L149.5,0L153.33333333333334,0L157.16666666666666,0L161.00000000000003,0L164.83333333333334,0L168.66666666666666,0L172.5,0L176.33333333333331,8.326672684688674e-15L180.16666666666669,0L184,0L187.83333333333334,0L191.66666666666666,0L195.5,0L199.33333333333334,8.326672684688674e-15L203.16666666666666,0L207,8.326672684688674e-15L210.83333333333331,0L214.66666666666669,0L218.5,0L222.33333333333334,8.326672684688674e-15L226.16666666666666,0L230,0L233.83333333333334,0L237.66666666666666,0L241.5,0L245.33333333333334,0L249.16666666666669,0L253,0L256.8333333333333,0L260.66666666666663,0L264.5,0L268.3333333333333,0L272.1666666666667,0L276,0L279.83333333333337,0L283.6666666666667,0L287.5,0L291.33333333333337,0L295.16666666666663,0L299,0L302.8333333333333,0L306.6666666666667,0L310.5,0L314.3333333333333,0L318.1666666666667,0L322.00000000000006,0L325.8333333333333,0L329.6666666666667,0L333.5,0L337.3333333333333,0L341.1666666666667,8.326672684688674e-15L345,0L348.83333333333337,0L352.66666666666663,0L356.5,0L360.33333333333337,0L364.16666666666663,0L368,0L371.8333333333333,0L375.6666666666667,0L379.5,0L383.3333333333333,0L387.1666666666667,0L391,0L394.8333333333333,0L398.6666666666667,0L402.5,0L406.3333333333333,0L410.1666666666667,0L414,0L417.8333333333333,0L421.66666666666663,0L425.5,0L429.33333333333337,0L433.16666666666663,0L437,0L440.83333333333337,0L444.6666666666667,0L448.5,0L452.3333333333333,0L456.1666666666667,0L460,8.326672684688674e-15L463.8333333333333,0L467.6666666666667,0L471.5,0L475.3333333333333,8.326672684688674e-15L479.1666666666667,0L483,0L486.8333333333333,8.326672684688674e-15L490.6666666666667,8.326672684688674e-15L494.5,0L498.33333333333337,8.326672684688674e-15L502.16666666666663,0L506,0L509.83333333333337,0L513.6666666666666,0L517.5,0L521.3333333333333,0L525.1666666666666,0L529,0L532.8333333333334,0L536.6666666666666,0L540.5,0L544.3333333333334,0L548.1666666666666,8.326672684688674e-15L552,0L555.8333333333334,0L559.6666666666667,0L563.5,0L567.3333333333334,0L571.1666666666666,8.326672684688674e-15L575,0L575,2.664118705035967L571.1666666666666,2.928127772848274L567.3333333333334,2.9375000000000013L563.5,2.75781910397295L559.6666666666667,2.380952380952381L555.8333333333334,2.64026402640265L552,3.3103448275862117L548.1666666666666,2.6890482398957083L544.3333333333334,2.1501706484641643L540.5,2.2371364653243826L536.6666666666666,1.9762210796915176L532.8333333333334,1.4820042342978041L529,1.2585812356979447L525.1666666666666,1.208702659145855L521.3333333333333,1.599326599326592L517.5,1.4952153110047772L513.6666666666666,1.9752593774940153L509.83333333333337,1.7409470752088985L506,4.082426127527211L502.16666666666663,4.8076923076923075L498.33333333333337,4.521441889372285L494.5,4.016477857878472L490.6666666666667,4.6052631578947425L486.8333333333333,4.383429672447018L483,4.055207740466699L479.1666666666667,2.2820362785254455L475.3333333333333,2.2264260768335347L471.5,2.489462592202321L467.6666666666667,3.109056122448972L463.8333333333333,3.0312308634415115L460,2.7124773960217037L456.1666666666667,4.691689008042893L452.3333333333333,4.6516853932584254L448.5,5.448020878642884L444.6666666666667,6.673866090712741L440.83333333333337,6.771058315334763L437,10.386258454966175L433.16666666666663,11.576153532053901L429.33333333333337,11.145215918712955L425.5,10.979929161747334L421.66666666666663,9.90955564294141L417.8333333333333,8.68389423076923L414,8.486055776892426L410.1666666666667,3.5633484162895885L406.3333333333333,5.450289790459204L402.5,6.390449438202242L398.6666666666667,9.162240463544173L394.8333333333333,11.609094884127677L391,13.215015321756898L387.1666666666667,13.961198428290766L383.3333333333333,15.831134564643806L379.5,14.991457858769927L375.6666666666667,13.352444176222086L371.8333333333333,9.790996784565909L368,6.330385852090023L364.16666666666663,5.898268398268397L360.33333333333337,4.317697228144998L356.5,3.227002967359041L352.66666666666663,2.6614620298083755L348.83333333333337,2.5362318840579654L345,2.741020793950849L341.1666666666667,2.1133682830930587L337.3333333333333,1.8993839835728887L333.5,1.8447348193697173L329.6666666666667,1.8695014662756666L325.8333333333333,1.5457543281121282L322.00000000000006,1.6571194762684094L318.1666666666667,1.2271414821944133L314.3333333333333,1.2044967880085578L310.5,1.6703786191536785L306.6666666666667,1.109215017064849L302.8333333333333,1.0742187499999973L299,1.0985352862849544L295.16666666666663,3.0120481927710885L291.33333333333337,3.5885167464114938L287.5,4.35897435897436L283.6666666666667,4.429735234215881L279.83333333333337,8.069620253164558L276,9.896907216494844L272.1666666666667,10.344827586206891L268.3333333333333,13.043478260869565L264.5,13.967611336032387L260.66666666666663,14.867841409691637L256.8333333333333,16.38349514563107L253,9.843750000000007L249.16666666666669,6.632653061224489L245.33333333333334,10.194174757281557L241.5,10.156249999999996L237.66666666666666,10.000000000000005L233.83333333333334,7.848837209302323L230,8.870967741935484L226.16666666666666,8.168316831683168L222.33333333333334,6.481481481481485L218.5,6.249999999999995L214.66666666666669,7.394366197183097L210.83333333333331,12.640449438202253L207,20.37037037037037L203.16666666666666,31.47321428571428L199.33333333333334,34.403669724770644L195.5,35L191.66666666666666,32.95454545454546L187.83333333333334,33.33333333333334L184,33.87096774193549L180.16666666666669,28.84615384615385L176.33333333333331,20.45454545454546L172.5,17.14285714285714L168.66666666666666,16.578947368421055L164.83333333333334,17.378048780487802L161.00000000000003,16.776315789473678L157.16666666666666,14.788732394366194L153.33333333333334,25.90909090909091L149.5,28.448275862068964L145.66666666666669,38.04347826086957L141.83333333333334,41.25L138,41.25L134.16666666666666,43.622448979591844L130.33333333333331,44.68085106382979L126.5,45.78947368421053L122.66666666666667,44.83695652173913L118.83333333333333,41.883116883116884L115,38.79310344827586L111.16666666666667,34.78260869565217L107.33333333333334,41.66666666666666L103.5,45.45454545454545L99.66666666666667,46.75324675324675L95.83333333333333,44.14556962025317L92,44.907407407407405L88.16666666666666,44.359756097560975L84.33333333333333,44.53125L80.50000000000001,35.36585365853659L76.66666666666667,27.343750000000004L72.83333333333334,11.718749999999991L69,13.636363636363633L65.16666666666666,7.499999999999998L61.333333333333336,7.627118644067793L57.5,8.181818181818176L53.66666666666667,22.22222222222222L49.833333333333336,16.791044776119403L46,16.438356164383553L42.166666666666664,17.647058823529406L38.333333333333336,17.975206611570247L34.5,17.26190476190476L30.666666666666668,17.716535433070867L26.833333333333336,16.2L23,17.016806722689083L19.166666666666668,17.52336448598131L15.333333333333334,17.368421052631582L11.5,19.285714285714285L7.666666666666667,23.275862068965512L3.8333333333333335,25.000000000000004L0,5.769230769230766Z" style="fill: rgb(241, 110, 67); opacity: 0.85;"></path></g></g><path class="foreground" d="" style="display: none; fill: none;"></path></g></g></g><path class="foreground" d="" style="display: none; fill: none;"></path></g></g><g class="mark-group role-legend"><g transform="translate(0,-27)"><path class="background" d="M0,0h304v14h-304Z" style="pointer-events: none; fill: none;"></path><g><g class="mark-group role-legend-entry"><g transform="translate(103,0)"><path class="background" d="M0,0h0v0h0Z" style="pointer-events: none; fill: none;"></path><g><g class="mark-group role-scope"><g transform="translate(0,0)"><path class="background" d="M0,0h38.234375v14h-38.234375Z" style="pointer-events: none; fill: none; opacity: 1;"></path><g><g class="mark-symbol role-legend-symbol" style="pointer-events: none;"><path transform="translate(7,7)" d="M5,0A5,5,0,1,1,-5,0A5,5,0,1,1,5,0" style="fill: rgb(100, 188, 97); stroke-width: 1.5; opacity: 0.85;"></path></g><g class="mark-text role-legend-label" style="pointer-events: none;"><text text-anchor="start" transform="translate(18,11)" style="font-family: sans-serif; font-size: 14px; fill: #000; opacity: 1;">0-3</text></g></g><path class="foreground" d="" style="pointer-events: none; display: none; fill: none;"></path></g><g transform="translate(49,0)"><path class="background" d="M0,0h38.234375v14h-38.234375Z" style="pointer-events: none; fill: none; opacity: 1;"></path><g><g class="mark-symbol role-legend-symbol" style="pointer-events: none;"><path transform="translate(7,7)" d="M5,0A5,5,0,1,1,-5,0A5,5,0,1,1,5,0" style="fill: rgb(215, 238, 142); stroke-width: 1.5; opacity: 0.85;"></path></g><g class="mark-text role-legend-label" style="pointer-events: none;"><text text-anchor="start" transform="translate(18,11)" style="font-family: sans-serif; font-size: 14px; fill: #000; opacity: 1;">4-7</text></g></g><path class="foreground" d="" style="pointer-events: none; display: none; fill: none;"></path></g><g transform="translate(98,0)"><path class="background" d="M0,0h46.0205078125v14h-46.0205078125Z" style="pointer-events: none; fill: none; opacity: 1;"></path><g><g class="mark-symbol role-legend-symbol" style="pointer-events: none;"><path transform="translate(7,7)" d="M5,0A5,5,0,1,1,-5,0A5,5,0,1,1,5,0" style="fill: rgb(254, 221, 141); stroke-width: 1.5; opacity: 0.85;"></path></g><g class="mark-text role-legend-label" style="pointer-events: none;"><text text-anchor="start" transform="translate(18,11)" style="font-family: sans-serif; font-size: 14px; fill: #000; opacity: 1;">8-14</text></g></g><path class="foreground" d="" style="pointer-events: none; display: none; fill: none;"></path></g><g transform="translate(155,0)"><path class="background" d="M0,0h45.6376953125v14h-45.6376953125Z" style="pointer-events: none; fill: none; opacity: 1;"></path><g><g class="mark-symbol role-legend-symbol" style="pointer-events: none;"><path transform="translate(7,7)" d="M5,0A5,5,0,1,1,-5,0A5,5,0,1,1,5,0" style="fill: rgb(241, 110, 67); stroke-width: 1.5; opacity: 0.85;"></path></g><g class="mark-text role-legend-label" style="pointer-events: none;"><text text-anchor="start" transform="translate(18,11)" style="font-family: sans-serif; font-size: 14px; fill: #000; opacity: 1;">&gt; 14</text></g></g><path class="foreground" d="" style="pointer-events: none; display: none; fill: none;"></path></g></g></g><path class="foreground" d="" style="pointer-events: none; display: none; fill: none;"></path></g></g><g class="mark-text role-legend-title" style="pointer-events: none;"><text text-anchor="start" transform="translate(0,11)" style="font-family: sans-serif; font-size: 14px; font-weight: bold; fill: #000; opacity: 1;">Renglón (días)</text></g></g><path class="foreground" d="" style="pointer-events: none; display: none; fill: none;"></path></g></g></g><path class="foreground" d="" style="display: none; fill: none;"></path></g></g></g></svg>