<svg class="marks" width="641" height="360" viewBox="0 0 641 360" version="1.1" xmlns="http://www.w3.org/2000/svg" xmlns:xlink="http://www.w3.org/1999/xlink"><rect width="641" height="360" style="fill: white;"></rect><defs><clipPath id="clip1"><rect x="0" y="0" width="585" height="275"></rect></clipPath><clipPath id="clip2"><rect x="0" y="0" width="585" height="275"></rect></clipPath></defs><g transform="translate(51,41)"><g class="mark-group role-frame root"><g transform="translate(0,0)"><path class="background" d="M0.5,0.5h585v275h-585Z" style="fill: none; stroke: #ddd;"></path><g><g class="mark-group role-axis"><g transform="translate(0.5,275.5)"><path class="background" d="M0,0h0v0h0Z" style="pointer-events: none; fill: none;"></path><g><g class="mark-rule role-axis-grid" style="pointer-events: none;"><line transform="translate(44,-275)" x2="0" y2="275" style="fill: none; stroke: #ddd; stroke-width: 1; opacity: 1;"></line><line transform="translate(105,-275)" x2="0" y2="275" style="fill: none; stroke: #ddd; stroke-width: 1; opacity: 1;"></line><line transform="translate(167,-275)" x2="0" y2="275" style="fill: none; stroke: #ddd; stroke-width: 1; opacity: 1;"></line><line transform="translate(227,-275)" x2="0" y2="275" style="fill: none; stroke: #ddd; stroke-width: 1; opacity: 1;"></line><line transform="translate(289,-275)" x2="0" y2="275" style="fill: none; stroke: #ddd; stroke-width: 1; opacity: 1;"></line><line transform="translate(352,-275)" x2="0" y2="275" style="fill: none; stroke: #ddd; stroke-width: 1; opacity: 1;"></line><line transform="translate(412,-275)" x2="0" y2="275" style="fill: none; stroke: #ddd; stroke-width: 1; opacity: 1;"></line><line transform="translate(474,-275)" x2="0" y2="275" style="fill: none; stroke: #ddd; stroke-width: 1; opacity: 1;"></line><line transform="translate(535,-275)" x2="0" y2="275" style="fill: none; stroke: #ddd; stroke-width: 1; opacity: 1;"></line></g></g><path class="foreground" d="" style="pointer-events: none; display: none; fill: none;"></path></g></g><g class="mark-group role-axis"><g transform="translate(0.5,0.5)"><path class="background" d="M0,0h0v0h0Z" style="pointer-events: none; fill: none;"></path><g><g class="mark-rule role-axis-grid" style="pointer-events: none;"><line transform="translate(0,275)" x2="585" y2="0" style="fill: none; stroke: #ddd; stroke-width: 1; opacity: 1;"></line><line transform="translate(0,192)" x2="585" y2="0" style="fill: none; stroke: #ddd; stroke-width: 1; opacity: 1;"></line><line transform="translate(0,144)" x2="585" y2="0" style="fill: none; stroke: #ddd; stroke-width: 1; opacity: 1;"></line><line transform="translate(0,109)" x2="585" y2="0" style="fill: none; stroke: #ddd; stroke-width: 1; opacity: 1;"></line><line transform="translate(0,83)" x2="585" y2="0" style="fill: none; stroke: #ddd; stroke-width: 1; opacity: 1;"></line><line transform="translate(0,61)" x2="585" y2="0" style="fill: none; stroke: #ddd; stroke-width: 1; opacity: 1;"></line><line transform="translate(0,43)" x2="585" y2="0" style="fill: none; stroke: #ddd; stroke-width: 1; opacity: 1;"></line><line transform="translate(0,27)" x2="585" y2="0" style="fill: none; stroke: #ddd; stroke-width: 1; opacity: 1;"></line><line transform="translate(0,13)" x2="585" y2="0" style="fill: none; stroke: #ddd; stroke-width: 1; opacity: 1;"></line><line transform="translate(0,0)" x2="585" y2="0" style="fill: none; stroke: #ddd; stroke-width: 1; opacity: 1;"></line></g></g><path class="foreground" d="" style="pointer-events: none; display: none; fill: none;"></path></g></g><g class="mark-group role-axis"><g transform="translate(0.5,275.5)"><path class="background" d="M0,0h0v0h0Z" style="pointer-events: none; fill: none;"></path><g><g class="mark-rule role-axis-tick" style="pointer-events: none;"><line transform="translate(44,0)" x2="0" y2="5" style="fill: none; stroke: #888; stroke-width: 1; opacity: 1;"></line><line transform="translate(105,0)" x2="0" y2="5" style="fill: none; stroke: #888; stroke-width: 1; opacity: 1;"></line><line transform="translate(167,0)" x2="0" y2="5" style="fill: none; stroke: #888; stroke-width: 1; opacity: 1;"></line><line transform="translate(227,0)" x2="0" y2="5" style="fill: none; stroke: #888; stroke-width: 1; opacity: 1;"></line><line transform="translate(289,0)" x2="0" y2="5" style="fill: none; stroke: #888; stroke-width: 1; opacity: 1;"></line><line transform="translate(352,0)" x2="0" y2="5" style="fill: none; stroke: #888; stroke-width: 1; opacity: 1;"></line><line transform="translate(412,0)" x2="0" y2="5" style="fill: none; stroke: #888; stroke-width: 1; opacity: 1;"></line><line transform="translate(474,0)" x2="0" y2="5" style="fill: none; stroke: #888; stroke-width: 1; opacity: 1;"></line><line transform="translate(535,0)" x2="0" y2="5" style="fill: none; stroke: #888; stroke-width: 1; opacity: 1;"></line></g><g class="mark-text role-axis-label" style="pointer-events: none;"><text text-anchor="middle" transform="translate(44.22680412371134,18)" style="font-family: sans-serif; font-size: 14px; fill: #000; opacity: 1;">abril</text><text text-anchor="middle" transform="translate(104.5360824742268,18)" style="font-family: sans-serif; font-size: 14px; fill: #000; opacity: 0;">mayo</text><text text-anchor="middle" transform="translate(166.85567010309276,18)" style="font-family: sans-serif; font-size: 14px; fill: #000; opacity: 1;">junio</text><text text-anchor="middle" transform="translate(227.16494845360825,18)" style="font-family: sans-serif; font-size: 14px; fill: #000; opacity: 0;">julio</text><text text-anchor="middle" transform="translate(289.4845360824742,18)" style="font-family: sans-serif; font-size: 14px; fill: #000; opacity: 1;">agosto</text><text text-anchor="middle" transform="translate(351.8041237113402,18)" style="font-family: sans-serif; font-size: 14px; fill: #000; opacity: 0;">septiembre</text><text text-anchor="middle" transform="translate(412.1134020618557,18)" style="font-family: sans-serif; font-size: 14px; fill: #000; opacity: 1;">octubre</text><text text-anchor="middle" transform="translate(474.4329896907216,18)" style="font-family: sans-serif; font-size: 14px; fill: #000; opacity: 0;">noviembre</text><text text-anchor="middle" transform="translate(534.7422680412371,18)" style="font-family: sans-serif; font-size: 14px; fill: #000; opacity: 1;">diciembre</text></g><g class="mark-rule role-axis-domain" style="pointer-events: none;"><line transform="translate(0,0)" x2="585" y2="0" style="fill: none; stroke: #888; stroke-width: 1; opacity: 1;"></line></g><g class="mark-text role-axis-title" style="pointer-events: none;"><text text-anchor="middle" transform="translate(292.5,36)" style="font-family: sans-serif; font-size: 14px; font-weight: bold; fill: #000; opacity: 1;">Fecha de muestras</text></g></g><path class="foreground" d="" style="pointer-events: none; display: none; fill: none;"></path></g></g><g class="mark-group role-axis"><g transform="translate(0.5,0.5)"><path class="background" d="M0,0h0v0h0Z" style="pointer-events: none; fill: none;"></path><g><g class="mark-rule role-axis-tick" style="pointer-events: none;"><line transform="translate(0,275)" x2="-5" y2="0" style="fill: none; stroke: #888; stroke-width: 1; opacity: 1;"></line><line transform="translate(0,192)" x2="-5" y2="0" style="fill: none; stroke: #888; stroke-width: 1; opacity: 1;"></line><line transform="translate(0,144)" x2="-5" y2="0" style="fill: none; stroke: #888; stroke-width: 1; opacity: 1;"></line><line transform="translate(0,109)" x2="-5" y2="0" style="fill: none; stroke: #888; stroke-width: 1; opacity: 1;"></line><line transform="translate(0,83)" x2="-5" y2="0" style="fill: none; stroke: #888; stroke-width: 1; opacity: 1;"></line><line transform="translate(0,61)" x2="-5" y2="0" style="fill: none; stroke: #888; stroke-width: 1; opacity: 1;"></line><line transform="translate(0,43)" x2="-5" y2="0" style="fill: none; stroke: #888; stroke-width: 1; opacity: 1;"></line><line transform="translate(0,27)" x2="-5" y2="0" style="fill: none; stroke: #888; stroke-width: 1; opacity: 1;"></line><line transform="translate(0,13)" x2="-5" y2="0" style="fill: none; stroke: #888; stroke-width: 1; opacity: 1;"></line><line transform="translate(0,0)" x2="-5" y2="0" style="fill: none; stroke: #888; stroke-width: 1; opacity: 1;"></line></g><g class="mark-text role-axis-label" style="pointer-events: none;"><text text-anchor="end" transform="translate(-7,279)" style="font-family: sans-serif; font-size: 14px; fill: #000; opacity: 1;">1%</text><text text-anchor="end" transform="translate(-7,196.2167511924052)" style="font-family: sans-serif; font-size: 14px; fill: #000; opacity: 1;">2%</text><text text-anchor="end" transform="translate(-7,147.7916549520929)" style="font-family: sans-serif; font-size: 14px; fill: #000; opacity: 1;">3%</text><text text-anchor="end" transform="translate(-7,113.43350238481037)" style="font-family: sans-serif; font-size: 14px; fill: #000; opacity: 1;">4%</text><text text-anchor="end" transform="translate(-7,86.78324880759484)" style="font-family: sans-serif; font-size: 14px; fill: #000; opacity: 1;">5%</text><text text-anchor="end" transform="translate(-7,65.00840614449803)" style="font-family: sans-serif; font-size: 14px; fill: #000; opacity: 1;">6%</text><text text-anchor="end" transform="translate(-7,46.598038996079374)" style="font-family: sans-serif; font-size: 14px; fill: #000; opacity: 1;">7%</text><text text-anchor="end" transform="translate(-7,30.650253577215558)" style="font-family: sans-serif; font-size: 14px; fill: #000; opacity: 1;">8%</text><text text-anchor="end" transform="translate(-7,16.58330990418566)" style="font-family: sans-serif; font-size: 14px; fill: #000; opacity: 1;">9%</text><text text-anchor="end" transform="translate(-7,4)" style="font-family: sans-serif; font-size: 14px; fill: #000; opacity: 0;">10%</text></g><g class="mark-rule role-axis-domain" style="pointer-events: none;"><line transform="translate(0,275)" x2="0" y2="-275" style="fill: none; stroke: #888; stroke-width: 1; opacity: 1;"></line></g><g class="mark-text role-axis-title" style="pointer-events: none;"><text text-anchor="middle" transform="translate(-31.234375,137.5) rotate(-90) translate(0,-3)" style="font-family: sans-serif; font-size: 14px; font-weight: bold; fill: #000; opacity: 1;">Letalidad (CFR, 14 días)</text></g></g><path class="foreground" d="" style="pointer-events: none; display: none; fill: none;"></path></g></g><g class="mark-group role-scope pathgroup"><g transform="translate(0,0)"><path class="background" d="M0,0h585v275h-585Z" style="fill: none;"></path><g><g class="mark-line role-mark marks" clip-path="url(#clip1)"><path d="M0,-240.64184743271753L2.0103092783505154,-253.22515733690315L4.020618556701031,-275L6.030927835051546,-259.7327348412964L8.041237113402062,-259.0522145811361L10.051546391752579,-248.88173386151445L12.061855670103093,-192.21675119240516L14.07216494845361,-163.61542300492448L16.082474226804123,-176.94948603370153L18.09278350515464,-185.51793108105787L20.103092783505158,-159.73944037095666L22.11340206185567,-150.2410293878983L24.123711340206185,-146.87544647735896L26.1340206185567,-111.38609599974349L28.14432989690722,-79.84812420177951L30.15463917525773,-73.22366958631153L32.16494845360825,-50.74421731294962L34.175257731958766,-22.086192716844995L36.18556701030928,-22.882402215933784L38.1958762886598,-32.91920766052129L40.206185567010316,-13.451902696513823L42.21649484536082,-9.958347479972279L44.22680412371134,13.897417764476097L46.23711340206185,29.27521600142891L48.24742268041237,33.9029291042696L50.25773195876289,39.7968160301196L52.2680412371134,33.118486333262986L54.27835051546392,33.46544485765287L56.28865979381444,35.743448757476365L58.29896907216495,40.99491448938035L60.30927835051546,41.45802096158499L62.319587628865975,17.267478211350294L64.3298969072165,31.569753945790527L66.34020618556701,32.776262122782434L68.35051546391753,31.063909917035453L70.36082474226804,33.099443897594035L72.37113402061856,16.36692363135046L74.38144329896907,0.350752036316726L76.3917525773196,-6.316640641145654L78.4020618556701,-15.655658940099515L80.41237113402063,-5.3428517555396295L82.42268041237114,-5.909451854278047L84.43298969072164,-12.126594309282918L86.44329896907216,1.8234091972286592L88.45360824742268,-1.4418402384022144L90.4639175257732,20.409902291920595L92.4742268041237,15.267265158703674L94.48453608247424,26.17157164373268L96.49484536082474,14.948357138713009L98.50515463917526,17.210045662744907L100.51546391752578,22.875596837857177L102.52577319587628,41.87929470534057L104.5360824742268,43.19370597911899L106.54639175257732,59.80808465882426L108.55670103092784,60.40975334957256L110.56701030927834,43.422019913157165L112.57731958762888,55.50933333002826L114.58762886597938,39.52718620464565L116.5979381443299,30.014729091893717L118.6082474226804,53.61856588441516L120.61855670103093,55.50933333002826L122.62886597938144,52.90977459026719L124.63917525773195,44.05898666313188L126.64948453608248,35.819100234334975L128.659793814433,38.20016163509053L130.6701030927835,21.67272125240844L132.68041237113403,22.38574416143534L134.69072164948452,11.79985090987296L136.70103092783506,27.017169326708323L138.71134020618555,44.69257426326208L140.72164948453607,22.71340138347549L142.7319587628866,28.111201244268L144.7422680412371,19.325551569373687L146.75257731958763,-5.791727860001511L148.76288659793815,-23.925474195647034L150.77319587628864,-22.459262774112826L152.7835051546392,-15.94778541886382L154.7938144329897,-29.16468292317968L156.8041237113402,-31.733190143069063L158.81443298969072,3.5302367939223647L160.82474226804126,35.349286741209454L162.83505154639175,49.41623041423932L164.84536082474227,48.42509624031237L166.85567010309276,65.97932364709168L168.86597938144328,89.42001072969269L170.87628865979383,85.31544929897139L172.88659793814432,89.42001072969269L174.89690721649484,108.63462995787341L176.90721649484536,158.65216289043195L178.91752577319588,158.65216289043195L180.9278350515464,164.06420129727658L182.93814432989691,202.87371316520978L184.9484536082474,172.80695576383576L186.95876288659792,140.39987780681838L188.96907216494847,131.20834504790722L190.97938144329896,138.91624403797417L192.98969072164948,121.53813035551319L195,114.88081055703732L197.01030927835052,117.88552205325672L199.02061855670104,103.12776320709459L201.03092783505156,110.79068724557622L203.04123711340205,98.16988527311112L205.05154639175257,70.86160808902578L207.0618556701031,47.0509495622259L209.0721649484536,39.57116741763518L211.08247422680412,50.09761346229129L213.09278350515464,44.69257426326208L215.10309278350516,55.16200628421772L217.11340206185568,54.59192891292979L219.1237113402062,34.926392524705314L221.1340206185567,38.25574971267004L223.1443298969072,57.27588416744768L225.15463917525776,63.643354019369205L227.16494845360825,76.0387286475311L229.17525773195877,92.82241452495691L231.18556701030926,116.03384182204042L233.1958762886598,106.26263201570023L235.20618556701032,99.78944714548854L237.2164948453608,120.04761916163137L239.22680412371133,129.94451333339123L241.23711340206185,138.73404570740797L243.24742268041237,146.55520433319785L245.2577319587629,166.98309181869047L247.2680412371134,166.64160506205994L249.2783505154639,142.28423383070657L251.28865979381442,153.44880616635137L253.29896907216497,161.53296782837458L255.30927835051546,169.45548421675187L257.319587628866,173.1482415470247L259.3298969072165,164.6637648023376L261.340206185567,166.16923800772076L263.35051546391753,162.33378878181387L265.36082474226805,162.67729917126448L267.37113402061857,161.88237828521775L269.38144329896903,170.17322229107268L271.3917525773196,173.60263480630152L273.4020618556701,161.58193325015318L275.4123711340206,152.4943168584349L277.4226804123711,155.12034421871542L279.4329896907217,146.76899566256373L281.44329896907215,141.9692956929527L283.45360824742266,127.15944942221299L285.4639175257732,115.62595838046647L287.4742268041237,120.91253502443989L289.4845360824742,117.75230287321578L291.49484536082474,115.97174646596046L293.50515463917526,118.51346952839388L295.5154639175258,125.93162706808891L297.5257731958763,125.0136190191308L299.53608247422676,126.65615755847057L301.5463917525773,137.74020090822592L303.55670103092785,150.14972567811787L305.5670103092784,154.1152434145829L307.5773195876289,161.0625106887194L309.5876288659794,171.18817048804428L311.5979381443299,193.85475203611614L313.6082474226804,209.10568397583458L315.6185567010309,215.39759942367795L317.62886597938143,220.30440338402823L319.63917525773195,216.6848611042958L321.6494845360825,221.39234055662473L323.659793814433,212.5953405923012L325.6701030927835,211.93171360033335L327.680412371134,201.1949190307477L329.69072164948454,190.33503784344532L331.70103092783506,182.4025569979161L333.7113402061855,175.9164388982905L335.72164948453604,166.78443387172825L337.73195876288656,156.65444732070785L339.74226804123714,135.5806829363469L341.75257731958766,123.92774877671121L343.7628865979382,107.4414307156301L345.77319587628864,101.98718022132277L347.78350515463916,104.633466028273L349.7938144329897,97.74481076499823L351.8041237113402,100.97847339385218L353.8144329896907,95.70730354355635L355.82474226804123,103.4991114652863L357.83505154639175,104.08931627197556L359.8453608247423,108.10831838643217L361.8556701030928,116.43433794702848L363.8659793814433,107.20108257371102L365.87628865979383,114.59792752912911L367.88659793814435,132.66188407487027L369.8969072164948,153.0537525476349L371.90721649484533,170.12300050931776L373.91752577319585,177.5162568536106L375.9278350515464,172.33767821498103L377.93814432989694,176.654083997068L379.94845360824746,174.6325596775163L381.9587628865979,191.1071975171548L383.96907216494844,192.88666808925902L385.97938144329896,202.24673577290986L387.9896907216495,205.75170742670522L390,195.55752773240036L392.01030927835046,207.86558530993523L394.02061855670104,211.60133075178433L396.03092783505156,212.68028991786625L398.0412371134021,200.70137332676705L400.0515463917526,198.5597098112959L402.0618556701031,195.1528670254176L404.0721649484536,201.77200704195198L406.0824742268041,199.01479738279983L408.0927835051546,199.69685880591481L410.10309278350513,183.16068185824784L412.1134020618557,184.32391052564085L414.1237113402062,182.71189863087676L416.1340206185567,179.7951623454602L418.1443298969072,188.96716149914985L420.1546391752577,183.8381590015751L422.16494845360825,185.0807494604465L424.17525773195877,188.9784645997101L426.1855670103093,196.54704966283288L428.19587628865975,206.6990077718899L430.2061855670103,215.54541921174626L432.21649484536084,222.6008630299089L434.22680412371136,218.0209730202454L436.2371134020619,217.4183541082403L438.2474226804124,225.03804736556629L440.25773195876286,218.03437809035037L442.2680412371134,219.16062749286513L444.2783505154639,229.7312845635861L446.2886597938144,219.01023602707176L448.298969072165,219.40178860837398L450.3092783505155,213.94634627681216L452.319587628866,211.23385656211224L454.3298969072165,216.96223230257857L456.340206185567,210.0687024432085L458.35051546391753,204.17739966101288L460.36082474226805,199.13488593342512L462.3711340206185,208.36433411467843L464.38144329896903,209.179677280999L466.3917525773196,207.5037826020888L468.4020618556701,206.40208012131063L470.41237113402065,195.73852400683901L472.42268041237116,186.83931775463927L474.4329896907216,190.5746633466211L476.44329896907215,195.32753523238344L478.45360824742266,191.56664539925873L480.4639175257732,190.58654421602765L482.4742268041237,194.30415944287543L484.4845360824743,197.18212523924242L486.49484536082474,195.0346594010921L488.50515463917526,191.0595067072069L490.5154639175258,190.63196541626402L492.5257731958763,192.6406415487415L494.5360824742268,187.77729258174713L496.54639175257734,194.4671996823105L498.5567010309278,202.01899419346043L500.5670103092783,205.84916233421256L502.57731958762884,199.2481443416506L504.5876288659794,203.96878117924942L506.59793814432993,209.7657711177682L508.60824742268045,215.72198856850713L510.6185567010309,212.13912020791645L512.6288659793814,212.1681846582734L514.639175257732,213.82899208426787L516.6494845360825,212.066063247585L518.659793814433,216.92063487968088L520.6701030927835,221.42417018859416L522.680412371134,225.1701021267997L524.6907216494845,212.91332109752562L526.7010309278351,206.0166191416563L528.7113402061856,201.89876095493113L530.7216494845361,206.63984138434L532.7319587628866,205.6394074818787L534.7422680412371,208.47562003166092L536.7525773195877,203.73537958293392L538.7628865979381,206.23693092249084L540.7731958762887,210.90198838740866L542.7835051546392,213.76169776425812L544.7938144329897,217.65855015155776L546.8041237113403,215.86610964023794L548.8144329896908,213.33754661743416L550.8247422680412,216.34987273648005L552.8350515463917,225.47794098450942L554.8453608247422,230.08857477474675L556.8556701030927,239.48619809363663L558.8659793814434,241.77108633462356L560.8762886597939,243.95604680162137L562.8865979381443,243.25993197489828L564.8969072164948,250.60577403995327L566.9072164948453,251.0005217958491L568.9175257731958,249.12809945677688L570.9278350515464,253.6554978086824L572.9381443298969,254.00041760257812L574.9484536082474,257.63097393494724L576.9587628865979,258.6295816041095L578.9690721649484,262.27488633283804L580.979381443299,270.7028118937291L582.9896907216495,281.8338575797255L585,283.0967142521651" style="fill: none; stroke: #4c78a8; stroke-width: 2; stroke-dasharray: 1,0;"></path></g></g><path class="foreground" d="" style="display: none; fill: none;"></path></g><g transform="translate(0,0)"><path class="background" d="M0,0h585v275h-585Z" style="fill: none;"></path><g><g class="mark-line role-mark marks" clip-path="url(#clip2)"><path d="M0,-240.64184743271753L2.0103092783505154,-253.22515733690315L4.020618556701031,-275L6.030927835051546,-259.7327348412964L8.041237113402062,-259.0522145811361L10.051546391752579,-248.88173386151445L12.061855670103093,-192.21675119240516L14.07216494845361,-163.61542300492448L16.082474226804123,-176.94948603370153L18.09278350515464,-185.51793108105787L20.103092783505158,-159.73944037095666L22.11340206185567,-150.2410293878983L24.123711340206185,-146.87544647735896L26.1340206185567,-111.38609599974349L28.14432989690722,-79.84812420177951L30.15463917525773,-73.22366958631153L32.16494845360825,-50.74421731294962L34.175257731958766,-22.086192716844995L36.18556701030928,-22.882402215933784L38.1958762886598,-32.91920766052129L40.206185567010316,-13.451902696513823L42.21649484536082,-9.958347479972279L44.22680412371134,13.897417764476097L46.23711340206185,29.27521600142891L48.24742268041237,33.9029291042696L50.25773195876289,39.7968160301196L52.2680412371134,33.118486333262986L54.27835051546392,33.46544485765287L56.28865979381444,35.743448757476365L58.29896907216495,40.99491448938035L60.30927835051546,41.45802096158499L62.319587628865975,17.267478211350294L64.3298969072165,31.569753945790527L66.34020618556701,32.776262122782434L68.35051546391753,31.063909917035453L70.36082474226804,33.099443897594035L72.37113402061856,16.36692363135046L74.38144329896907,0.350752036316726L76.3917525773196,-6.316640641145654L78.4020618556701,-15.655658940099515L80.41237113402063,-5.3428517555396295L82.42268041237114,-5.909451854278047L84.43298969072164,-12.126594309282918L86.44329896907216,1.8234091972286592L88.45360824742268,-1.4418402384022144L90.4639175257732,20.409902291920595L92.4742268041237,15.267265158703674L94.48453608247424,26.17157164373268L96.49484536082474,14.948357138713009L98.50515463917526,17.210045662744907L100.51546391752578,22.875596837857177L102.52577319587628,41.87929470534057L104.5360824742268,43.19370597911899L106.54639175257732,59.80808465882426L108.55670103092784,60.40975334957256L110.56701030927834,43.422019913157165L112.57731958762888,55.50933333002826L114.58762886597938,39.52718620464565L116.5979381443299,30.014729091893717L118.6082474226804,53.61856588441516L120.61855670103093,55.50933333002826L122.62886597938144,52.90977459026719L124.63917525773195,44.05898666313188L126.64948453608248,35.819100234334975L128.659793814433,38.20016163509053L130.6701030927835,21.67272125240844L132.68041237113403,22.38574416143534L134.69072164948452,11.79985090987296L136.70103092783506,27.017169326708323L138.71134020618555,44.69257426326208L140.72164948453607,22.71340138347549L142.7319587628866,28.111201244268L144.7422680412371,19.325551569373687L146.75257731958763,-5.791727860001511L148.76288659793815,-23.925474195647034L150.77319587628864,-22.459262774112826L152.7835051546392,-15.94778541886382L154.7938144329897,-29.16468292317968L156.8041237113402,-31.733190143069063L158.81443298969072,3.5302367939223647L160.82474226804126,35.349286741209454L162.83505154639175,49.41623041423932L164.84536082474227,48.42509624031237L166.85567010309276,65.97932364709168L168.86597938144328,89.42001072969269L170.87628865979383,85.31544929897139L172.88659793814432,89.42001072969269L174.89690721649484,108.63462995787341L176.90721649484536,158.65216289043195L178.91752577319588,158.65216289043195L180.9278350515464,164.06420129727658L182.93814432989691,202.87371316520978L184.9484536082474,172.80695576383576L186.95876288659792,140.39987780681838L188.96907216494847,131.20834504790722L190.97938144329896,138.91624403797417L192.98969072164948,121.53813035551319L195,114.88081055703732L197.01030927835052,117.88552205325672L199.02061855670104,103.12776320709459L201.03092783505156,110.79068724557622L203.04123711340205,98.16988527311112L205.05154639175257,70.86160808902578L207.0618556701031,47.0509495622259L209.0721649484536,39.57116741763518L211.08247422680412,50.09761346229129L213.09278350515464,44.69257426326208L215.10309278350516,55.16200628421772L217.11340206185568,54.59192891292979L219.1237113402062,34.926392524705314L221.1340206185567,38.25574971267004L223.1443298969072,57.27588416744768L225.15463917525776,63.643354019369205L227.16494845360825,76.0387286475311L229.17525773195877,92.82241452495691L231.18556701030926,116.03384182204042L233.1958762886598,106.26263201570023L235.20618556701032,99.78944714548854L237.2164948453608,120.04761916163137L239.22680412371133,129.94451333339123L241.23711340206185,138.73404570740797L243.24742268041237,146.55520433319785L245.2577319587629,166.98309181869047L247.2680412371134,166.70454629277805L249.2783505154639,142.4071684607307L251.28865979381442,153.55203087677336L253.29896907216497,161.6251213688444L255.30927835051546,169.5368681943634L257.319587628866,173.22395057176186L259.3298969072165,164.73623506094683L261.340206185567,166.23994907107908L263.35051546391753,162.40348880277284L265.36082474226805,162.74450850479022L267.37113402061857,161.94858171403237L269.38144329896903,170.23776213729246L271.3917525773196,173.66606071460228L273.4020618556701,161.64622987755988L275.4123711340206,152.52697057908216L277.4226804123711,155.12034421871542L279.4329896907217,146.7350615857554L281.44329896907215,141.93464286156973L283.45360824742266,127.12299864136433L285.4639175257732,115.58650966581438L287.4742268041237,120.87412660393737L289.4845360824742,117.56173161445729L291.49484536082474,115.77995104570903L293.50515463917526,118.32729492713408L295.5154639175258,125.64920072891205L297.5257731958763,124.63496448440425L299.53608247422676,126.04939427612054L301.5463917525773,136.9711229673789L303.55670103092785,149.43073054808877L305.5670103092784,153.39322449903443L307.5773195876289,160.05516352228165L309.5876288659794,169.74050449014607L311.5979381443299,191.90354543231797L313.6082474226804,206.9603974267274L315.6185567010309,213.30867896516955L317.62886597938143,218.3494265705202L319.63917525773195,214.72269966082067L321.6494845360825,219.402424209191L323.659793814433,210.69893492899104L325.6701030927835,210.12974757504816L327.680412371134,199.60946927281623L329.69072164948454,188.76281602686095L331.70103092783506,180.74880386401622L333.7113402061855,174.29150250539743L335.72164948453604,165.1177895763361L337.73195876288656,155.3606246942352L339.74226804123714,134.50251327703032L341.75257731958766,123.07160903507186L343.7628865979382,106.34067654086978L345.77319587628864,100.88991335746084L347.78350515463916,103.53585142798012L349.7938144329897,96.3903421430249L351.8041237113402,99.39335285881586L353.8144329896907,93.99377368346826L355.82474226804123,101.69861029201275L357.83505154639175,102.45560565158159L359.8453608247423,106.51532273177726L361.8556701030928,114.79625764552453L363.8659793814433,106.06902687013222L365.87628865979383,113.371636040206L367.88659793814435,131.81613761931436L369.8969072164948,152.59433408711334L371.90721649484533,169.7712153285452L373.91752577319585,177.13870864923882L375.9278350515464,171.99236563173378L377.93814432989694,176.44686697206143L379.94845360824746,174.4040928789624L381.9587628865979,190.89962678052825L383.96907216494844,192.63898865058806L385.97938144329896,201.84022287610486L387.9896907216495,205.37195835469916L390,195.13014006250935L392.01030927835046,207.1424437551847L394.02061855670104,210.60436741542438L396.03092783505156,211.65811615619748L398.0412371134021,199.49734746360122L400.0515463917526,197.47373106535028L402.0618556701031,194.0602649233945L404.0721649484536,201.9861345651807L406.0824742268041,199.17586414021704L408.0927835051546,199.81401471136147L410.10309278350513,182.9285104475965L412.1134020618557,183.8061270897501L414.1237113402062,182.15976834617405L416.1340206185567,178.94337178468462L418.1443298969072,188.2995688224356L420.1546391752577,183.10984837859158L422.16494845360825,184.69817906049641L424.17525773195877,188.56339169047502L426.1855670103093,195.91251952013533L428.19587628865975,207.5742190211851L430.2061855670103,218.4813515578675L432.21649484536084,224.03823785233936L434.22680412371136,223.06211381146187L436.2371134020619,222.44914927136062L438.2474226804124,230.44723680443235L440.25773195876286,226.35289715071144L442.2680412371134,227.36846802499701L444.2783505154639,238.7734546074226L446.2886597938144,227.12238394258875L448.298969072165,227.02975997869717L450.3092783505155,220.76277445529334L452.319587628866,217.39142537683705L454.3298969072165,223.04701290845307L456.340206185567,214.05578680653602L458.35051546391753,206.17327857576834L460.36082474226805,200.9693142380923L462.3711340206185,207.94388787463052L464.38144329896903,209.4842294037555L466.3917525773196,208.61156514012183L468.4020618556701,205.1227908468749L470.41237113402065,194.93080797548618L472.42268041237116,185.76308542479816L474.4329896907216,189.58057406490894L476.44329896907215,194.46548302606377L478.45360824742266,191.70632399248194L480.4639175257732,190.84158561450553L482.4742268041237,194.81890587531657L484.4845360824743,197.56830290131305L486.49484536082474,195.4940034418049L488.50515463917526,191.41299116412836L490.5154639175258,190.76366562820738L492.5257731958763,193.26314642278714L494.5360824742268,187.77327920307502L496.54639175257734,194.58179842693252L498.5567010309278,201.9058340292951L500.5670103092783,205.65189046935012L502.57731958762884,198.954010858113L504.5876288659794,203.67052751135364L506.59793814432993,208.74344338266081L508.60824742268045,215.3321170278308L510.6185567010309,212.3018263836303L512.6288659793814,213.08621806677704L514.639175257732,214.7851581208113L516.6494845360825,212.9712549594309L518.659793814433,218.0510768649649L520.6701030927835,222.31322486746984L522.680412371134,226.08230873337325L524.6907216494845,214.47479471364178L526.7010309278351,207.11651888726325L528.7113402061856,203.0923615324045L530.7216494845361,207.91112619991435L532.7319587628866,207.14991741497917L534.7422680412371,210.8137917912796L536.7525773195877,205.20301894620812L538.7628865979381,206.71821919408714L540.7731958762887,211.0575681679152L542.7835051546392,213.9020989224845L544.7938144329897,219.27736375191006L546.8041237113403,218.47627220545684L548.8144329896908,215.71055968575666L550.8247422680412,220.7743837853169L552.8350515463917,230.30060574546914L554.8453608247422,236.99381352148347L556.8556701030927,248.09384106984356L558.8659793814434,253.24548428487557L560.8762886597939,257.36238125931754L562.8865979381443,259.4009967615824L564.8969072164948,272.2654485928186L566.9072164948453,278.4153772134948L568.9175257731958,282.2079152433368L570.9278350515464,292.12585039487766" style="fill: none; stroke: #4c78a8; stroke-width: 2; stroke-dasharray: 4,2;"></path></g></g><path class="foreground" d="" style="display: none; fill: none;"></path></g></g><g class="mark-group role-legend"><g transform="translate(0,-36)"><path class="background" d="M0,0h311v18h-311Z" style="pointer-events: none; fill: none;"></path><g><g class="mark-group role-legend-entry"><g transform="translate(85,0)"><path class="background" d="M0,0h0v0h0Z" style="pointer-events: none; fill: none;"></path><g><g class="mark-group role-scope"><g transform="translate(0,0.25)"><path class="background" d="M0,0h106.744140625v17.5h-106.744140625Z" style="pointer-events: none; fill: none; opacity: 1;"></path><g><g class="mark-symbol role-legend-symbol" style="pointer-events: none;"><path transform="translate(10.5,10.5)" d="M-8.660254037844387,0L8.660254037844387,0" style="fill: none; stroke: #4c78a8; stroke-width: 3; stroke-dasharray: 1,0; opacity: 1;"></path></g><g class="mark-text role-legend-label" style="pointer-events: none;"><text text-anchor="start" transform="translate(25,14.5)" style="font-family: sans-serif; font-size: 14px; fill: #000; opacity: 1;">ene 11, 2021</text></g></g><path class="foreground" d="" style="pointer-events: none; display: none; fill: none;"></path></g><g transform="translate(119,0.25)"><path class="background" d="M0,0h106.744140625v17.5h-106.744140625Z" style="pointer-events: none; fill: none; opacity: 1;"></path><g><g class="mark-symbol role-legend-symbol" style="pointer-events: none;"><path transform="translate(10.5,10.5)" d="M-8.660254037844387,0L8.660254037844387,0" style="fill: none; stroke: #4c78a8; stroke-width: 3; stroke-dasharray: 4,2; opacity: 1;"></path></g><g class="mark-text role-legend-label" style="pointer-events: none;"><text text-anchor="start" transform="translate(25,14.5)" style="font-family: sans-serif; font-size: 14px; fill: #000; opacity: 1;">ene 04, 2021</text></g></g><path class="foreground" d="" style="pointer-events: none; display: none; fill: none;"></path></g></g></g><path class="foreground" d="" style="pointer-events: none; display: none; fill: none;"></path></g></g><g class="mark-text role-legend-title" style="pointer-events: none;"><text text-anchor="start" transform="translate(0,13)" style="font-family: sans-serif; font-size: 14px; font-weight: bold; fill: #000; opacity: 1;">Datos hasta</text></g></g><path class="foreground" d="" style="pointer-events: none; display: none; fill: none;"></path></g></g></g><path class="foreground" d="" style="display: none; fill: none;"></path></g></g></g></svg>