<svg class="marks" width="652" height="294" viewBox="0 0 652 294" version="1.1" xmlns="http://www.w3.org/2000/svg" xmlns:xlink="http://www.w3.org/1999/xlink"><rect width="652" height="294" style="fill: white;"></rect><defs><clipPath id="clip1"><rect x="0" y="0" width="585" height="120"></rect></clipPath><clipPath id="clip2"><rect x="0" y="0" width="585" height="120"></rect></clipPath><clipPath id="clip3"><rect x="0" y="0" width="585" height="80"></rect></clipPath><clipPath id="clip4"><rect x="0" y="0" width="585" height="80"></rect></clipPath><clipPath id="clip5"><rect x="0" y="0" width="585" height="80"></rect></clipPath></defs><g transform="translate(60,13)"><g class="mark-group role-frame root"><g transform="translate(0,0)"><path class="background" d="M0,0h0v0h0Z" style="fill: none;"></path><g><g class="mark-group role-scope concat_0_group"><g transform="translate(0,0)"><path class="background" d="M0.5,0.5h585v120h-585Z" style="fill: none; stroke: #ddd;"></path><g><g class="mark-group role-axis"><g transform="translate(0.5,120.5)"><path class="background" d="M0,0h0v0h0Z" style="pointer-events: none; fill: none;"></path><g><g class="mark-rule role-axis-grid" style="pointer-events: none;"><line transform="translate(11,-120)" x2="0" y2="120" style="fill: none; stroke: #ddd; stroke-width: 1; opacity: 1;"></line><line transform="translate(32,-120)" x2="0" y2="120" style="fill: none; stroke: #ddd; stroke-width: 1; opacity: 1;"></line><line transform="translate(53,-120)" x2="0" y2="120" style="fill: none; stroke: #ddd; stroke-width: 1; opacity: 1;"></line><line transform="translate(74,-120)" x2="0" y2="120" style="fill: none; stroke: #ddd; stroke-width: 1; opacity: 1;"></line><line transform="translate(96,-120)" x2="0" y2="120" style="fill: none; stroke: #ddd; stroke-width: 1; opacity: 1;"></line><line transform="translate(117,-120)" x2="0" y2="120" style="fill: none; stroke: #ddd; stroke-width: 1; opacity: 1;"></line><line transform="translate(138,-120)" x2="0" y2="120" style="fill: none; stroke: #ddd; stroke-width: 1; opacity: 1;"></line><line transform="translate(160,-120)" x2="0" y2="120" style="fill: none; stroke: #ddd; stroke-width: 1; opacity: 1;"></line><line transform="translate(181,-120)" x2="0" y2="120" style="fill: none; stroke: #ddd; stroke-width: 1; opacity: 1;"></line><line transform="translate(202,-120)" x2="0" y2="120" style="fill: none; stroke: #ddd; stroke-width: 1; opacity: 1;"></line><line transform="translate(223,-120)" x2="0" y2="120" style="fill: none; stroke: #ddd; stroke-width: 1; opacity: 1;"></line><line transform="translate(245,-120)" x2="0" y2="120" style="fill: none; stroke: #ddd; stroke-width: 1; opacity: 1;"></line><line transform="translate(266,-120)" x2="0" y2="120" style="fill: none; stroke: #ddd; stroke-width: 1; opacity: 1;"></line><line transform="translate(287,-120)" x2="0" y2="120" style="fill: none; stroke: #ddd; stroke-width: 1; opacity: 1;"></line><line transform="translate(308,-120)" x2="0" y2="120" style="fill: none; stroke: #ddd; stroke-width: 1; opacity: 1;"></line><line transform="translate(330,-120)" x2="0" y2="120" style="fill: none; stroke: #ddd; stroke-width: 1; opacity: 1;"></line><line transform="translate(351,-120)" x2="0" y2="120" style="fill: none; stroke: #ddd; stroke-width: 1; opacity: 1;"></line><line transform="translate(372,-120)" x2="0" y2="120" style="fill: none; stroke: #ddd; stroke-width: 1; opacity: 1;"></line><line transform="translate(394,-120)" x2="0" y2="120" style="fill: none; stroke: #ddd; stroke-width: 1; opacity: 1;"></line><line transform="translate(415,-120)" x2="0" y2="120" style="fill: none; stroke: #ddd; stroke-width: 1; opacity: 1;"></line><line transform="translate(436,-120)" x2="0" y2="120" style="fill: none; stroke: #ddd; stroke-width: 1; opacity: 1;"></line><line transform="translate(457,-120)" x2="0" y2="120" style="fill: none; stroke: #ddd; stroke-width: 1; opacity: 1;"></line><line transform="translate(479,-120)" x2="0" y2="120" style="fill: none; stroke: #ddd; stroke-width: 1; opacity: 1;"></line><line transform="translate(500,-120)" x2="0" y2="120" style="fill: none; stroke: #ddd; stroke-width: 1; opacity: 1;"></line><line transform="translate(521,-120)" x2="0" y2="120" style="fill: none; stroke: #ddd; stroke-width: 1; opacity: 1;"></line><line transform="translate(542,-120)" x2="0" y2="120" style="fill: none; stroke: #ddd; stroke-width: 1; opacity: 1;"></line><line transform="translate(564,-120)" x2="0" y2="120" style="fill: none; stroke: #ddd; stroke-width: 1; opacity: 1;"></line><line transform="translate(585,-120)" x2="0" y2="120" style="fill: none; stroke: #ddd; stroke-width: 1; opacity: 1;"></line></g></g><path class="foreground" d="" style="pointer-events: none; display: none; fill: none;"></path></g></g><g class="mark-group role-axis"><g transform="translate(0.5,0.5)"><path class="background" d="M0,0h0v0h0Z" style="pointer-events: none; fill: none;"></path><g><g class="mark-rule role-axis-grid" style="pointer-events: none;"><line transform="translate(0,120)" x2="585" y2="0" style="fill: none; stroke: #ddd; stroke-width: 1; opacity: 1;"></line><line transform="translate(0,80)" x2="585" y2="0" style="fill: none; stroke: #ddd; stroke-width: 1; opacity: 1;"></line><line transform="translate(0,40)" x2="585" y2="0" style="fill: none; stroke: #ddd; stroke-width: 1; opacity: 1;"></line><line transform="translate(0,0)" x2="585" y2="0" style="fill: none; stroke: #ddd; stroke-width: 1; opacity: 1;"></line></g></g><path class="foreground" d="" style="pointer-events: none; display: none; fill: none;"></path></g></g><g class="mark-group role-axis"><g transform="translate(0.5,120.5)"><path class="background" d="M0,0h0v0h0Z" style="pointer-events: none; fill: none;"></path><g><g class="mark-rule role-axis-tick" style="pointer-events: none;"><line transform="translate(11,0)" x2="0" y2="5" style="fill: none; stroke: #888; stroke-width: 1; opacity: 1;"></line><line transform="translate(32,0)" x2="0" y2="5" style="fill: none; stroke: #888; stroke-width: 1; opacity: 1;"></line><line transform="translate(53,0)" x2="0" y2="5" style="fill: none; stroke: #888; stroke-width: 1; opacity: 1;"></line><line transform="translate(74,0)" x2="0" y2="5" style="fill: none; stroke: #888; stroke-width: 1; opacity: 1;"></line><line transform="translate(96,0)" x2="0" y2="5" style="fill: none; stroke: #888; stroke-width: 1; opacity: 1;"></line><line transform="translate(117,0)" x2="0" y2="5" style="fill: none; stroke: #888; stroke-width: 1; opacity: 1;"></line><line transform="translate(138,0)" x2="0" y2="5" style="fill: none; stroke: #888; stroke-width: 1; opacity: 1;"></line><line transform="translate(160,0)" x2="0" y2="5" style="fill: none; stroke: #888; stroke-width: 1; opacity: 1;"></line><line transform="translate(181,0)" x2="0" y2="5" style="fill: none; stroke: #888; stroke-width: 1; opacity: 1;"></line><line transform="translate(202,0)" x2="0" y2="5" style="fill: none; stroke: #888; stroke-width: 1; opacity: 1;"></line><line transform="translate(223,0)" x2="0" y2="5" style="fill: none; stroke: #888; stroke-width: 1; opacity: 1;"></line><line transform="translate(245,0)" x2="0" y2="5" style="fill: none; stroke: #888; stroke-width: 1; opacity: 1;"></line><line transform="translate(266,0)" x2="0" y2="5" style="fill: none; stroke: #888; stroke-width: 1; opacity: 1;"></line><line transform="translate(287,0)" x2="0" y2="5" style="fill: none; stroke: #888; stroke-width: 1; opacity: 1;"></line><line transform="translate(308,0)" x2="0" y2="5" style="fill: none; stroke: #888; stroke-width: 1; opacity: 1;"></line><line transform="translate(330,0)" x2="0" y2="5" style="fill: none; stroke: #888; stroke-width: 1; opacity: 1;"></line><line transform="translate(351,0)" x2="0" y2="5" style="fill: none; stroke: #888; stroke-width: 1; opacity: 1;"></line><line transform="translate(372,0)" x2="0" y2="5" style="fill: none; stroke: #888; stroke-width: 1; opacity: 1;"></line><line transform="translate(394,0)" x2="0" y2="5" style="fill: none; stroke: #888; stroke-width: 1; opacity: 1;"></line><line transform="translate(415,0)" x2="0" y2="5" style="fill: none; stroke: #888; stroke-width: 1; opacity: 1;"></line><line transform="translate(436,0)" x2="0" y2="5" style="fill: none; stroke: #888; stroke-width: 1; opacity: 1;"></line><line transform="translate(457,0)" x2="0" y2="5" style="fill: none; stroke: #888; stroke-width: 1; opacity: 1;"></line><line transform="translate(479,0)" x2="0" y2="5" style="fill: none; stroke: #888; stroke-width: 1; opacity: 1;"></line><line transform="translate(500,0)" x2="0" y2="5" style="fill: none; stroke: #888; stroke-width: 1; opacity: 1;"></line><line transform="translate(521,0)" x2="0" y2="5" style="fill: none; stroke: #888; stroke-width: 1; opacity: 1;"></line><line transform="translate(542,0)" x2="0" y2="5" style="fill: none; stroke: #888; stroke-width: 1; opacity: 1;"></line><line transform="translate(564,0)" x2="0" y2="5" style="fill: none; stroke: #888; stroke-width: 1; opacity: 1;"></line><line transform="translate(585,0)" x2="0" y2="5" style="fill: none; stroke: #888; stroke-width: 1; opacity: 1;"></line></g><g class="mark-rule role-axis-domain" style="pointer-events: none;"><line transform="translate(0,0)" x2="585" y2="0" style="fill: none; stroke: #888; stroke-width: 1; opacity: 1;"></line></g></g><path class="foreground" d="" style="pointer-events: none; display: none; fill: none;"></path></g></g><g class="mark-group role-axis"><g transform="translate(0.5,0.5)"><path class="background" d="M0,0h0v0h0Z" style="pointer-events: none; fill: none;"></path><g><g class="mark-rule role-axis-tick" style="pointer-events: none;"><line transform="translate(0,120)" x2="-5" y2="0" style="fill: none; stroke: #888; stroke-width: 1; opacity: 1;"></line><line transform="translate(0,80)" x2="-5" y2="0" style="fill: none; stroke: #888; stroke-width: 1; opacity: 1;"></line><line transform="translate(0,40)" x2="-5" y2="0" style="fill: none; stroke: #888; stroke-width: 1; opacity: 1;"></line><line transform="translate(0,0)" x2="-5" y2="0" style="fill: none; stroke: #888; stroke-width: 1; opacity: 1;"></line></g><g class="mark-text role-axis-label" style="pointer-events: none;"><text text-anchor="end" transform="translate(-7,124)" style="font-family: sans-serif; font-size: 14px; fill: #000; opacity: 1;">0</text><text text-anchor="end" transform="translate(-7,84.00000000000001)" style="font-family: sans-serif; font-size: 14px; fill: #000; opacity: 1;">100</text><text text-anchor="end" transform="translate(-7,44.00000000000001)" style="font-family: sans-serif; font-size: 14px; fill: #000; opacity: 1;">200</text><text text-anchor="end" transform="translate(-7,4)" style="font-family: sans-serif; font-size: 14px; fill: #000; opacity: 1;">300</text></g><g class="mark-rule role-axis-domain" style="pointer-events: none;"><line transform="translate(0,120)" x2="0" y2="-120" style="fill: none; stroke: #888; stroke-width: 1; opacity: 1;"></line></g><g class="mark-text role-axis-title" style="pointer-events: none;"><text text-anchor="middle" transform="translate(-34.3583984375,60) rotate(-90) translate(0,-3)" style="font-family: sans-serif; font-size: 14px; font-weight: bold; fill: #000; opacity: 1;">Casos/100k</text></g></g><path class="foreground" d="" style="pointer-events: none; display: none; fill: none;"></path></g></g><g class="mark-rect role-mark concat_0_layer_0_marks" clip-path="url(#clip1)"><path d="M0,-280h585v360h-585Z" style="fill: red; opacity: 0.2;"></path><path d="M0,80.00000000000001h585v19.999999999999986h-585Z" style="fill: orange; opacity: 0.2;"></path><path d="M0,100h585v16h-585Z" style="fill: yellow; opacity: 0.2;"></path><path d="M0,116h585v3.6000000000000085h-585Z" style="fill: green; opacity: 0.2;"></path></g><g class="mark-symbol role-mark concat_0_layer_1_marks" clip-path="url(#clip2)"><path transform="translate(585,48.985056176327475)" d="M-2.7386127875258306,-2.7386127875258306h5.477225575051661v5.477225575051661h-5.477225575051661Z" style="fill: none; stroke: black; stroke-width: 2; opacity: 0.7;"></path><path transform="translate(574.3636363636364,50.26257368426655)" d="M-2.7386127875258306,-2.7386127875258306h5.477225575051661v5.477225575051661h-5.477225575051661Z" style="fill: none; stroke: black; stroke-width: 2; opacity: 0.7;"></path><path transform="translate(563.7272727272727,50.85123371243456)" d="M-2.7386127875258306,-2.7386127875258306h5.477225575051661v5.477225575051661h-5.477225575051661Z" style="fill: none; stroke: black; stroke-width: 2; opacity: 0.7;"></path><path transform="translate(553.0909090909091,52.016029087320206)" d="M-2.7386127875258306,-2.7386127875258306h5.477225575051661v5.477225575051661h-5.477225575051661Z" style="fill: none; stroke: black; stroke-width: 2; opacity: 0.7;"></path><path transform="translate(542.4545454545455,56.11159992159549)" d="M-2.7386127875258306,-2.7386127875258306h5.477225575051661v5.477225575051661h-5.477225575051661Z" style="fill: none; stroke: black; stroke-width: 2; opacity: 0.7;"></path><path transform="translate(531.8181818181818,56.36209355060315)" d="M-2.7386127875258306,-2.7386127875258306h5.477225575051661v5.477225575051661h-5.477225575051661Z" style="fill: none; stroke: black; stroke-width: 2; opacity: 0.7;"></path><path transform="translate(521.1818181818181,57.26387061503075)" d="M-2.7386127875258306,-2.7386127875258306h5.477225575051661v5.477225575051661h-5.477225575051661Z" style="fill: none; stroke: black; stroke-width: 2; opacity: 0.7;"></path><path transform="translate(510.5454545454545,58.27836981251178)" d="M-2.7386127875258306,-2.7386127875258306h5.477225575051661v5.477225575051661h-5.477225575051661Z" style="fill: none; stroke: black; stroke-width: 2; opacity: 0.7;"></path><path transform="translate(499.9090909090909,59.06742474388592)" d="M-2.7386127875258306,-2.7386127875258306h5.477225575051661v5.477225575051661h-5.477225575051661Z" style="fill: none; stroke: black; stroke-width: 2; opacity: 0.7;"></path><path transform="translate(489.27272727272725,59.66860945350432)" d="M-2.7386127875258306,-2.7386127875258306h5.477225575051661v5.477225575051661h-5.477225575051661Z" style="fill: none; stroke: black; stroke-width: 2; opacity: 0.7;"></path><path transform="translate(478.6363636363637,60.407565659076916)" d="M-2.7386127875258306,-2.7386127875258306h5.477225575051661v5.477225575051661h-5.477225575051661Z" style="fill: none; stroke: black; stroke-width: 2; opacity: 0.7;"></path><path transform="translate(468,61.20914527190145)" d="M-2.7386127875258306,-2.7386127875258306h5.477225575051661v5.477225575051661h-5.477225575051661Z" style="fill: none; stroke: black; stroke-width: 2; opacity: 0.7;"></path><path transform="translate(457.3636363636364,61.28429336060375)" d="M-2.7386127875258306,-2.7386127875258306h5.477225575051661v5.477225575051661h-5.477225575051661Z" style="fill: none; stroke: black; stroke-width: 2; opacity: 0.7;"></path><path transform="translate(446.72727272727275,62.712107045947434)" d="M-2.7386127875258306,-2.7386127875258306h5.477225575051661v5.477225575051661h-5.477225575051661Z" style="fill: none; stroke: black; stroke-width: 2; opacity: 0.7;"></path><path transform="translate(436.0909090909091,64.4405130861003)" d="M-2.7386127875258306,-2.7386127875258306h5.477225575051661v5.477225575051661h-5.477225575051661Z" style="fill: none; stroke: black; stroke-width: 2; opacity: 0.7;"></path><path transform="translate(425.45454545454544,65.29219142472635)" d="M-2.7386127875258306,-2.7386127875258306h5.477225575051661v5.477225575051661h-5.477225575051661Z" style="fill: none; stroke: black; stroke-width: 2; opacity: 0.7;"></path><path transform="translate(414.8181818181818,67.83470175915413)" d="M-2.7386127875258306,-2.7386127875258306h5.477225575051661v5.477225575051661h-5.477225575051661Z" style="fill: none; stroke: black; stroke-width: 2; opacity: 0.7;"></path><path transform="translate(404.1818181818182,69.46291034770395)" d="M-2.7386127875258306,-2.7386127875258306h5.477225575051661v5.477225575051661h-5.477225575051661Z" style="fill: none; stroke: black; stroke-width: 2; opacity: 0.7;"></path><path transform="translate(393.54545454545456,68.88677500098632)" d="M-2.7386127875258306,-2.7386127875258306h5.477225575051661v5.477225575051661h-5.477225575051661Z" style="fill: none; stroke: black; stroke-width: 2; opacity: 0.7;"></path><path transform="translate(382.90909090909093,68.93687372678785)" d="M-2.7386127875258306,-2.7386127875258306h5.477225575051661v5.477225575051661h-5.477225575051661Z" style="fill: none; stroke: black; stroke-width: 2; opacity: 0.7;"></path><path transform="translate(372.27272727272725,69.83865079121544)" d="M-2.7386127875258306,-2.7386127875258306h5.477225575051661v5.477225575051661h-5.477225575051661Z" style="fill: none; stroke: black; stroke-width: 2; opacity: 0.7;"></path><path transform="translate(361.6363636363636,71.2789891580095)" d="M-2.7386127875258306,-2.7386127875258306h5.477225575051661v5.477225575051661h-5.477225575051661Z" style="fill: none; stroke: black; stroke-width: 2; opacity: 0.7;"></path><path transform="translate(351,72.84457433930739)" d="M-2.7386127875258306,-2.7386127875258306h5.477225575051661v5.477225575051661h-5.477225575051661Z" style="fill: none; stroke: black; stroke-width: 2; opacity: 0.7;"></path><path transform="translate(340.3636363636364,74.36006079480376)" d="M-2.7386127875258306,-2.7386127875258306h5.477225575051661v5.477225575051661h-5.477225575051661Z" style="fill: none; stroke: black; stroke-width: 2; opacity: 0.7;"></path><path transform="translate(329.7272727272727,75.23678849633058)" d="M-2.7386127875258306,-2.7386127875258306h5.477225575051661v5.477225575051661h-5.477225575051661Z" style="fill: none; stroke: black; stroke-width: 2; opacity: 0.7;"></path><path transform="translate(319.09090909090907,75.57495489549092)" d="M-2.7386127875258306,-2.7386127875258306h5.477225575051661v5.477225575051661h-5.477225575051661Z" style="fill: none; stroke: black; stroke-width: 2; opacity: 0.7;"></path><path transform="translate(308.45454545454544,75.61252893984206)" d="M-2.7386127875258306,-2.7386127875258306h5.477225575051661v5.477225575051661h-5.477225575051661Z" style="fill: none; stroke: black; stroke-width: 2; opacity: 0.7;"></path><path transform="translate(297.8181818181818,75.43718339953672)" d="M-2.7386127875258306,-2.7386127875258306h5.477225575051661v5.477225575051661h-5.477225575051661Z" style="fill: none; stroke: black; stroke-width: 2; opacity: 0.7;"></path><path transform="translate(287.1818181818182,74.02189439564341)" d="M-2.7386127875258306,-2.7386127875258306h5.477225575051661v5.477225575051661h-5.477225575051661Z" style="fill: none; stroke: black; stroke-width: 2; opacity: 0.7;"></path><path transform="translate(276.54545454545456,71.5044334241164)" d="M-2.7386127875258306,-2.7386127875258306h5.477225575051661v5.477225575051661h-5.477225575051661Z" style="fill: none; stroke: black; stroke-width: 2; opacity: 0.7;"></path><path transform="translate(265.9090909090909,66.59475829556621)" d="M-2.7386127875258306,-2.7386127875258306h5.477225575051661v5.477225575051661h-5.477225575051661Z" style="fill: none; stroke: black; stroke-width: 2; opacity: 0.7;"></path><path transform="translate(255.27272727272725,65.51763569083325)" d="M-2.7386127875258306,-2.7386127875258306h5.477225575051661v5.477225575051661h-5.477225575051661Z" style="fill: none; stroke: black; stroke-width: 2; opacity: 0.7;"></path><path transform="translate(244.63636363636363,63.40096452571849)" d="M-2.7386127875258306,-2.7386127875258306h5.477225575051661v5.477225575051661h-5.477225575051661Z" style="fill: none; stroke: black; stroke-width: 2; opacity: 0.7;"></path><path transform="translate(234,63.250668348313894)" d="M-2.7386127875258306,-2.7386127875258306h5.477225575051661v5.477225575051661h-5.477225575051661Z" style="fill: none; stroke: black; stroke-width: 2; opacity: 0.7;"></path><path transform="translate(223.36363636363637,62.837353860451245)" d="M-2.7386127875258306,-2.7386127875258306h5.477225575051661v5.477225575051661h-5.477225575051661Z" style="fill: none; stroke: black; stroke-width: 2; opacity: 0.7;"></path><path transform="translate(212.72727272727272,59.78133158655776)" d="M-2.7386127875258306,-2.7386127875258306h5.477225575051661v5.477225575051661h-5.477225575051661Z" style="fill: none; stroke: black; stroke-width: 2; opacity: 0.7;"></path><path transform="translate(202.0909090909091,56.19927269174817)" d="M-2.7386127875258306,-2.7386127875258306h5.477225575051661v5.477225575051661h-5.477225575051661Z" style="fill: none; stroke: black; stroke-width: 2; opacity: 0.7;"></path><path transform="translate(191.45454545454547,54.45834197014492)" d="M-2.7386127875258306,-2.7386127875258306h5.477225575051661v5.477225575051661h-5.477225575051661Z" style="fill: none; stroke: black; stroke-width: 2; opacity: 0.7;"></path><path transform="translate(180.8181818181818,53.9448300306792)" d="M-2.7386127875258306,-2.7386127875258306h5.477225575051661v5.477225575051661h-5.477225575051661Z" style="fill: none; stroke: black; stroke-width: 2; opacity: 0.7;"></path><path transform="translate(170.1818181818182,57.0008523045727)" d="M-2.7386127875258306,-2.7386127875258306h5.477225575051661v5.477225575051661h-5.477225575051661Z" style="fill: none; stroke: black; stroke-width: 2; opacity: 0.7;"></path><path transform="translate(159.54545454545453,56.96327826022154)" d="M-2.7386127875258306,-2.7386127875258306h5.477225575051661v5.477225575051661h-5.477225575051661Z" style="fill: none; stroke: black; stroke-width: 2; opacity: 0.7;"></path><path transform="translate(148.9090909090909,57.47679019968727)" d="M-2.7386127875258306,-2.7386127875258306h5.477225575051661v5.477225575051661h-5.477225575051661Z" style="fill: none; stroke: black; stroke-width: 2; opacity: 0.7;"></path><path transform="translate(138.27272727272728,59.65608477205394)" d="M-2.7386127875258306,-2.7386127875258306h5.477225575051661v5.477225575051661h-5.477225575051661Z" style="fill: none; stroke: black; stroke-width: 2; opacity: 0.7;"></path><path transform="translate(127.63636363636363,62.38646532823745)" d="M-2.7386127875258306,-2.7386127875258306h5.477225575051661v5.477225575051661h-5.477225575051661Z" style="fill: none; stroke: black; stroke-width: 2; opacity: 0.7;"></path><path transform="translate(117,67.68440558174954)" d="M-2.7386127875258306,-2.7386127875258306h5.477225575051661v5.477225575051661h-5.477225575051661Z" style="fill: none; stroke: black; stroke-width: 2; opacity: 0.7;"></path><path transform="translate(106.36363636363636,69.62573120655892)" d="M-2.7386127875258306,-2.7386127875258306h5.477225575051661v5.477225575051661h-5.477225575051661Z" style="fill: none; stroke: black; stroke-width: 2; opacity: 0.7;"></path><path transform="translate(95.72727272727273,72.60660539175011)" d="M-2.7386127875258306,-2.7386127875258306h5.477225575051661v5.477225575051661h-5.477225575051661Z" style="fill: none; stroke: black; stroke-width: 2; opacity: 0.7;"></path><path transform="translate(85.0909090909091,72.70680284335319)" d="M-2.7386127875258306,-2.7386127875258306h5.477225575051661v5.477225575051661h-5.477225575051661Z" style="fill: none; stroke: black; stroke-width: 2; opacity: 0.7;"></path><path transform="translate(74.45454545454545,73.49585777472733)" d="M-2.7386127875258306,-2.7386127875258306h5.477225575051661v5.477225575051661h-5.477225575051661Z" style="fill: none; stroke: black; stroke-width: 2; opacity: 0.7;"></path><path transform="translate(63.81818181818181,78.02979245976603)" d="M-2.7386127875258306,-2.7386127875258306h5.477225575051661v5.477225575051661h-5.477225575051661Z" style="fill: none; stroke: black; stroke-width: 2; opacity: 0.7;"></path><path transform="translate(53.18181818181818,83.36530675762927)" d="M-2.7386127875258306,-2.7386127875258306h5.477225575051661v5.477225575051661h-5.477225575051661Z" style="fill: none; stroke: black; stroke-width: 2; opacity: 0.7;"></path><path transform="translate(42.54545454545455,86.49647712022505)" d="M-2.7386127875258306,-2.7386127875258306h5.477225575051661v5.477225575051661h-5.477225575051661Z" style="fill: none; stroke: black; stroke-width: 2; opacity: 0.7;"></path><path transform="translate(31.909090909090907,87.67379717656105)" d="M-2.7386127875258306,-2.7386127875258306h5.477225575051661v5.477225575051661h-5.477225575051661Z" style="fill: none; stroke: black; stroke-width: 2; opacity: 0.7;"></path><path transform="translate(21.272727272727273,85.23148429373636)" d="M-2.7386127875258306,-2.7386127875258306h5.477225575051661v5.477225575051661h-5.477225575051661Z" style="fill: none; stroke: black; stroke-width: 2; opacity: 0.7;"></path><path transform="translate(10.636363636363637,85.15633620503405)" d="M-2.7386127875258306,-2.7386127875258306h5.477225575051661v5.477225575051661h-5.477225575051661Z" style="fill: none; stroke: black; stroke-width: 2; opacity: 0.7;"></path><path transform="translate(0,86.03306390656086)" d="M-2.7386127875258306,-2.7386127875258306h5.477225575051661v5.477225575051661h-5.477225575051661Z" style="fill: none; stroke: black; stroke-width: 2; opacity: 0.7;"></path></g></g><path class="foreground" d="" style="display: none; fill: none;"></path></g></g><g class="mark-group role-scope concat_1_group"><g transform="translate(0,156)"><path class="background" d="M0.5,0.5h585v80h-585Z" style="fill: none; stroke: #ddd;"></path><g><g class="mark-group role-axis"><g transform="translate(0.5,80.5)"><path class="background" d="M0,0h0v0h0Z" style="pointer-events: none; fill: none;"></path><g><g class="mark-rule role-axis-grid" style="pointer-events: none;"><line transform="translate(11,-80)" x2="0" y2="80" style="fill: none; stroke: #ddd; stroke-width: 1; opacity: 1;"></line><line transform="translate(32,-80)" x2="0" y2="80" style="fill: none; stroke: #ddd; stroke-width: 1; opacity: 1;"></line><line transform="translate(53,-80)" x2="0" y2="80" style="fill: none; stroke: #ddd; stroke-width: 1; opacity: 1;"></line><line transform="translate(74,-80)" x2="0" y2="80" style="fill: none; stroke: #ddd; stroke-width: 1; opacity: 1;"></line><line transform="translate(96,-80)" x2="0" y2="80" style="fill: none; stroke: #ddd; stroke-width: 1; opacity: 1;"></line><line transform="translate(117,-80)" x2="0" y2="80" style="fill: none; stroke: #ddd; stroke-width: 1; opacity: 1;"></line><line transform="translate(138,-80)" x2="0" y2="80" style="fill: none; stroke: #ddd; stroke-width: 1; opacity: 1;"></line><line transform="translate(160,-80)" x2="0" y2="80" style="fill: none; stroke: #ddd; stroke-width: 1; opacity: 1;"></line><line transform="translate(181,-80)" x2="0" y2="80" style="fill: none; stroke: #ddd; stroke-width: 1; opacity: 1;"></line><line transform="translate(202,-80)" x2="0" y2="80" style="fill: none; stroke: #ddd; stroke-width: 1; opacity: 1;"></line><line transform="translate(223,-80)" x2="0" y2="80" style="fill: none; stroke: #ddd; stroke-width: 1; opacity: 1;"></line><line transform="translate(245,-80)" x2="0" y2="80" style="fill: none; stroke: #ddd; stroke-width: 1; opacity: 1;"></line><line transform="translate(266,-80)" x2="0" y2="80" style="fill: none; stroke: #ddd; stroke-width: 1; opacity: 1;"></line><line transform="translate(287,-80)" x2="0" y2="80" style="fill: none; stroke: #ddd; stroke-width: 1; opacity: 1;"></line><line transform="translate(308,-80)" x2="0" y2="80" style="fill: none; stroke: #ddd; stroke-width: 1; opacity: 1;"></line><line transform="translate(330,-80)" x2="0" y2="80" style="fill: none; stroke: #ddd; stroke-width: 1; opacity: 1;"></line><line transform="translate(351,-80)" x2="0" y2="80" style="fill: none; stroke: #ddd; stroke-width: 1; opacity: 1;"></line><line transform="translate(372,-80)" x2="0" y2="80" style="fill: none; stroke: #ddd; stroke-width: 1; opacity: 1;"></line><line transform="translate(394,-80)" x2="0" y2="80" style="fill: none; stroke: #ddd; stroke-width: 1; opacity: 1;"></line><line transform="translate(415,-80)" x2="0" y2="80" style="fill: none; stroke: #ddd; stroke-width: 1; opacity: 1;"></line><line transform="translate(436,-80)" x2="0" y2="80" style="fill: none; stroke: #ddd; stroke-width: 1; opacity: 1;"></line><line transform="translate(457,-80)" x2="0" y2="80" style="fill: none; stroke: #ddd; stroke-width: 1; opacity: 1;"></line><line transform="translate(479,-80)" x2="0" y2="80" style="fill: none; stroke: #ddd; stroke-width: 1; opacity: 1;"></line><line transform="translate(500,-80)" x2="0" y2="80" style="fill: none; stroke: #ddd; stroke-width: 1; opacity: 1;"></line><line transform="translate(521,-80)" x2="0" y2="80" style="fill: none; stroke: #ddd; stroke-width: 1; opacity: 1;"></line><line transform="translate(542,-80)" x2="0" y2="80" style="fill: none; stroke: #ddd; stroke-width: 1; opacity: 1;"></line><line transform="translate(564,-80)" x2="0" y2="80" style="fill: none; stroke: #ddd; stroke-width: 1; opacity: 1;"></line><line transform="translate(585,-80)" x2="0" y2="80" style="fill: none; stroke: #ddd; stroke-width: 1; opacity: 1;"></line></g></g><path class="foreground" d="" style="pointer-events: none; display: none; fill: none;"></path></g></g><g class="mark-group role-axis"><g transform="translate(0.5,0.5)"><path class="background" d="M0,0h0v0h0Z" style="pointer-events: none; fill: none;"></path><g><g class="mark-rule role-axis-grid" style="pointer-events: none;"><line transform="translate(0,80)" x2="585" y2="0" style="fill: none; stroke: #ddd; stroke-width: 1; opacity: 1;"></line><line transform="translate(0,40)" x2="585" y2="0" style="fill: none; stroke: #ddd; stroke-width: 1; opacity: 1;"></line><line transform="translate(0,0)" x2="585" y2="0" style="fill: none; stroke: #ddd; stroke-width: 1; opacity: 1;"></line></g></g><path class="foreground" d="" style="pointer-events: none; display: none; fill: none;"></path></g></g><g class="mark-group role-axis"><g transform="translate(0.5,80.5)"><path class="background" d="M0,0h0v0h0Z" style="pointer-events: none; fill: none;"></path><g><g class="mark-rule role-axis-tick" style="pointer-events: none;"><line transform="translate(11,0)" x2="0" y2="5" style="fill: none; stroke: #888; stroke-width: 1; opacity: 1;"></line><line transform="translate(32,0)" x2="0" y2="5" style="fill: none; stroke: #888; stroke-width: 1; opacity: 1;"></line><line transform="translate(53,0)" x2="0" y2="5" style="fill: none; stroke: #888; stroke-width: 1; opacity: 1;"></line><line transform="translate(74,0)" x2="0" y2="5" style="fill: none; stroke: #888; stroke-width: 1; opacity: 1;"></line><line transform="translate(96,0)" x2="0" y2="5" style="fill: none; stroke: #888; stroke-width: 1; opacity: 1;"></line><line transform="translate(117,0)" x2="0" y2="5" style="fill: none; stroke: #888; stroke-width: 1; opacity: 1;"></line><line transform="translate(138,0)" x2="0" y2="5" style="fill: none; stroke: #888; stroke-width: 1; opacity: 1;"></line><line transform="translate(160,0)" x2="0" y2="5" style="fill: none; stroke: #888; stroke-width: 1; opacity: 1;"></line><line transform="translate(181,0)" x2="0" y2="5" style="fill: none; stroke: #888; stroke-width: 1; opacity: 1;"></line><line transform="translate(202,0)" x2="0" y2="5" style="fill: none; stroke: #888; stroke-width: 1; opacity: 1;"></line><line transform="translate(223,0)" x2="0" y2="5" style="fill: none; stroke: #888; stroke-width: 1; opacity: 1;"></line><line transform="translate(245,0)" x2="0" y2="5" style="fill: none; stroke: #888; stroke-width: 1; opacity: 1;"></line><line transform="translate(266,0)" x2="0" y2="5" style="fill: none; stroke: #888; stroke-width: 1; opacity: 1;"></line><line transform="translate(287,0)" x2="0" y2="5" style="fill: none; stroke: #888; stroke-width: 1; opacity: 1;"></line><line transform="translate(308,0)" x2="0" y2="5" style="fill: none; stroke: #888; stroke-width: 1; opacity: 1;"></line><line transform="translate(330,0)" x2="0" y2="5" style="fill: none; stroke: #888; stroke-width: 1; opacity: 1;"></line><line transform="translate(351,0)" x2="0" y2="5" style="fill: none; stroke: #888; stroke-width: 1; opacity: 1;"></line><line transform="translate(372,0)" x2="0" y2="5" style="fill: none; stroke: #888; stroke-width: 1; opacity: 1;"></line><line transform="translate(394,0)" x2="0" y2="5" style="fill: none; stroke: #888; stroke-width: 1; opacity: 1;"></line><line transform="translate(415,0)" x2="0" y2="5" style="fill: none; stroke: #888; stroke-width: 1; opacity: 1;"></line><line transform="translate(436,0)" x2="0" y2="5" style="fill: none; stroke: #888; stroke-width: 1; opacity: 1;"></line><line transform="translate(457,0)" x2="0" y2="5" style="fill: none; stroke: #888; stroke-width: 1; opacity: 1;"></line><line transform="translate(479,0)" x2="0" y2="5" style="fill: none; stroke: #888; stroke-width: 1; opacity: 1;"></line><line transform="translate(500,0)" x2="0" y2="5" style="fill: none; stroke: #888; stroke-width: 1; opacity: 1;"></line><line transform="translate(521,0)" x2="0" y2="5" style="fill: none; stroke: #888; stroke-width: 1; opacity: 1;"></line><line transform="translate(542,0)" x2="0" y2="5" style="fill: none; stroke: #888; stroke-width: 1; opacity: 1;"></line><line transform="translate(564,0)" x2="0" y2="5" style="fill: none; stroke: #888; stroke-width: 1; opacity: 1;"></line><line transform="translate(585,0)" x2="0" y2="5" style="fill: none; stroke: #888; stroke-width: 1; opacity: 1;"></line></g><g class="mark-text role-axis-label" style="pointer-events: none;"><text text-anchor="middle" transform="translate(10.636363636363637,18)" style="font-family: sans-serif; font-size: 14px; fill: #000; opacity: 1;">sáb 05</text><text text-anchor="middle" transform="translate(31.909090909090907,18)" style="font-family: sans-serif; font-size: 14px; fill: #000; opacity: 0;">lun 07</text><text text-anchor="middle" transform="translate(53.18181818181818,18)" style="font-family: sans-serif; font-size: 14px; fill: #000; opacity: 0;">mié 09</text><text text-anchor="middle" transform="translate(74.45454545454545,18)" style="font-family: sans-serif; font-size: 14px; fill: #000; opacity: 0;">vie 11</text><text text-anchor="middle" transform="translate(95.72727272727273,18)" style="font-family: sans-serif; font-size: 14px; fill: #000; opacity: 1;">sep 13</text><text text-anchor="middle" transform="translate(117,18)" style="font-family: sans-serif; font-size: 14px; fill: #000; opacity: 0;">mar 15</text><text text-anchor="middle" transform="translate(138.27272727272728,18)" style="font-family: sans-serif; font-size: 14px; fill: #000; opacity: 0;">jue 17</text><text text-anchor="middle" transform="translate(159.54545454545453,18)" style="font-family: sans-serif; font-size: 14px; fill: #000; opacity: 0;">sáb 19</text><text text-anchor="middle" transform="translate(180.8181818181818,18)" style="font-family: sans-serif; font-size: 14px; fill: #000; opacity: 1;">lun 21</text><text text-anchor="middle" transform="translate(202.0909090909091,18)" style="font-family: sans-serif; font-size: 14px; fill: #000; opacity: 0;">mié 23</text><text text-anchor="middle" transform="translate(223.36363636363637,18)" style="font-family: sans-serif; font-size: 14px; fill: #000; opacity: 0;">vie 25</text><text text-anchor="middle" transform="translate(244.63636363636363,18)" style="font-family: sans-serif; font-size: 14px; fill: #000; opacity: 0;">sep 27</text><text text-anchor="middle" transform="translate(265.9090909090909,18)" style="font-family: sans-serif; font-size: 14px; fill: #000; opacity: 1;">mar 29</text><text text-anchor="middle" transform="translate(287.1818181818182,18)" style="font-family: sans-serif; font-size: 14px; fill: #000; opacity: 0;">octubre</text><text text-anchor="middle" transform="translate(308.45454545454544,18)" style="font-family: sans-serif; font-size: 14px; fill: #000; opacity: 0;">sáb 03</text><text text-anchor="middle" transform="translate(329.7272727272727,18)" style="font-family: sans-serif; font-size: 14px; fill: #000; opacity: 0;">lun 05</text><text text-anchor="middle" transform="translate(351,18)" style="font-family: sans-serif; font-size: 14px; fill: #000; opacity: 1;">mié 07</text><text text-anchor="middle" transform="translate(372.27272727272725,18)" style="font-family: sans-serif; font-size: 14px; fill: #000; opacity: 0;">vie 09</text><text text-anchor="middle" transform="translate(393.54545454545456,18)" style="font-family: sans-serif; font-size: 14px; fill: #000; opacity: 0;">oct 11</text><text text-anchor="middle" transform="translate(414.8181818181818,18)" style="font-family: sans-serif; font-size: 14px; fill: #000; opacity: 0;">mar 13</text><text text-anchor="middle" transform="translate(436.0909090909091,18)" style="font-family: sans-serif; font-size: 14px; fill: #000; opacity: 1;">jue 15</text><text text-anchor="middle" transform="translate(457.3636363636364,18)" style="font-family: sans-serif; font-size: 14px; fill: #000; opacity: 0;">sáb 17</text><text text-anchor="middle" transform="translate(478.6363636363637,18)" style="font-family: sans-serif; font-size: 14px; fill: #000; opacity: 0;">lun 19</text><text text-anchor="middle" transform="translate(499.9090909090909,18)" style="font-family: sans-serif; font-size: 14px; fill: #000; opacity: 0;">mié 21</text><text text-anchor="middle" transform="translate(521.1818181818181,18)" style="font-family: sans-serif; font-size: 14px; fill: #000; opacity: 1;">vie 23</text><text text-anchor="middle" transform="translate(542.4545454545455,18)" style="font-family: sans-serif; font-size: 14px; fill: #000; opacity: 0;">oct 25</text><text text-anchor="middle" transform="translate(563.7272727272727,18)" style="font-family: sans-serif; font-size: 14px; fill: #000; opacity: 0;">mar 27</text><text text-anchor="end" transform="translate(585,18)" style="font-family: sans-serif; font-size: 14px; fill: #000; opacity: 0;">jue 29</text></g><g class="mark-rule role-axis-domain" style="pointer-events: none;"><line transform="translate(0,0)" x2="585" y2="0" style="fill: none; stroke: #888; stroke-width: 1; opacity: 1;"></line></g><g class="mark-text role-axis-title" style="pointer-events: none;"><text text-anchor="middle" transform="translate(292.5,36)" style="font-family: sans-serif; font-size: 14px; font-weight: bold; fill: #000; opacity: 1;">Fecha de muestra</text></g></g><path class="foreground" d="" style="pointer-events: none; display: none; fill: none;"></path></g></g><g class="mark-group role-axis"><g transform="translate(0.5,0.5)"><path class="background" d="M0,0h0v0h0Z" style="pointer-events: none; fill: none;"></path><g><g class="mark-rule role-axis-tick" style="pointer-events: none;"><line transform="translate(0,80)" x2="-5" y2="0" style="fill: none; stroke: #888; stroke-width: 1; opacity: 1;"></line><line transform="translate(0,40)" x2="-5" y2="0" style="fill: none; stroke: #888; stroke-width: 1; opacity: 1;"></line><line transform="translate(0,0)" x2="-5" y2="0" style="fill: none; stroke: #888; stroke-width: 1; opacity: 1;"></line></g><g class="mark-text role-axis-label" style="pointer-events: none;"><text text-anchor="end" transform="translate(-7,84)" style="font-family: sans-serif; font-size: 14px; fill: #000; opacity: 1;">0%</text><text text-anchor="end" transform="translate(-7,44)" style="font-family: sans-serif; font-size: 14px; fill: #000; opacity: 1;">10%</text><text text-anchor="end" transform="translate(-7,4)" style="font-family: sans-serif; font-size: 14px; fill: #000; opacity: 1;">20%</text></g><g class="mark-rule role-axis-domain" style="pointer-events: none;"><line transform="translate(0,80)" x2="0" y2="-80" style="fill: none; stroke: #888; stroke-width: 1; opacity: 1;"></line></g><g class="mark-text role-axis-title" style="pointer-events: none;"><text text-anchor="middle" transform="translate(-39.0205078125,40) rotate(-90) translate(0,-3)" style="font-family: sans-serif; font-size: 14px; font-weight: bold; fill: #000; opacity: 1;">Positivad</text></g></g><path class="foreground" d="" style="pointer-events: none; display: none; fill: none;"></path></g></g><g class="mark-rect role-mark concat_1_layer_0_marks" clip-path="url(#clip3)"><path d="M0,-320h585v360h-585Z" style="fill: red; opacity: 0.2;"></path><path d="M0,40h585v20h-585Z" style="fill: orange; opacity: 0.2;"></path><path d="M0,60h585v8h-585Z" style="fill: yellow; opacity: 0.2;"></path><path d="M0,68h585v11.599999999999994h-585Z" style="fill: green; opacity: 0.2;"></path></g><g class="mark-symbol role-mark concat_1_layer_1_marks" clip-path="url(#clip4)"><path transform="translate(585,30.303628038041566)" d="M2.7386127875258306,0A2.7386127875258306,2.7386127875258306,0,1,1,-2.7386127875258306,0A2.7386127875258306,2.7386127875258306,0,1,1,2.7386127875258306,0" style="fill: none; stroke: black; stroke-width: 2; opacity: 0.7;"></path><path transform="translate(574.3636363636364,31.475207538703167)" d="M2.7386127875258306,0A2.7386127875258306,2.7386127875258306,0,1,1,-2.7386127875258306,0A2.7386127875258306,2.7386127875258306,0,1,1,2.7386127875258306,0" style="fill: none; stroke: black; stroke-width: 2; opacity: 0.7;"></path><path transform="translate(563.7272727272727,32.760365116023316)" d="M2.7386127875258306,0A2.7386127875258306,2.7386127875258306,0,1,1,-2.7386127875258306,0A2.7386127875258306,2.7386127875258306,0,1,1,2.7386127875258306,0" style="fill: none; stroke: black; stroke-width: 2; opacity: 0.7;"></path><path transform="translate(553.0909090909091,33.469230980273814)" d="M2.7386127875258306,0A2.7386127875258306,2.7386127875258306,0,1,1,-2.7386127875258306,0A2.7386127875258306,2.7386127875258306,0,1,1,2.7386127875258306,0" style="fill: none; stroke: black; stroke-width: 2; opacity: 0.7;"></path><path transform="translate(542.4545454545455,33.93705881507253)" d="M2.7386127875258306,0A2.7386127875258306,2.7386127875258306,0,1,1,-2.7386127875258306,0A2.7386127875258306,2.7386127875258306,0,1,1,2.7386127875258306,0" style="fill: none; stroke: black; stroke-width: 2; opacity: 0.7;"></path><path transform="translate(531.8181818181818,34.06398087199505)" d="M2.7386127875258306,0A2.7386127875258306,2.7386127875258306,0,1,1,-2.7386127875258306,0A2.7386127875258306,2.7386127875258306,0,1,1,2.7386127875258306,0" style="fill: none; stroke: black; stroke-width: 2; opacity: 0.7;"></path><path transform="translate(521.1818181818181,34.5685572369181)" d="M2.7386127875258306,0A2.7386127875258306,2.7386127875258306,0,1,1,-2.7386127875258306,0A2.7386127875258306,2.7386127875258306,0,1,1,2.7386127875258306,0" style="fill: none; stroke: black; stroke-width: 2; opacity: 0.7;"></path><path transform="translate(510.5454545454545,34.65032235681864)" d="M2.7386127875258306,0A2.7386127875258306,2.7386127875258306,0,1,1,-2.7386127875258306,0A2.7386127875258306,2.7386127875258306,0,1,1,2.7386127875258306,0" style="fill: none; stroke: black; stroke-width: 2; opacity: 0.7;"></path><path transform="translate(499.9090909090909,34.75152071617124)" d="M2.7386127875258306,0A2.7386127875258306,2.7386127875258306,0,1,1,-2.7386127875258306,0A2.7386127875258306,2.7386127875258306,0,1,1,2.7386127875258306,0" style="fill: none; stroke: black; stroke-width: 2; opacity: 0.7;"></path><path transform="translate(489.27272727272725,35.025350432448555)" d="M2.7386127875258306,0A2.7386127875258306,2.7386127875258306,0,1,1,-2.7386127875258306,0A2.7386127875258306,2.7386127875258306,0,1,1,2.7386127875258306,0" style="fill: none; stroke: black; stroke-width: 2; opacity: 0.7;"></path><path transform="translate(478.6363636363637,35.63795909702073)" d="M2.7386127875258306,0A2.7386127875258306,2.7386127875258306,0,1,1,-2.7386127875258306,0A2.7386127875258306,2.7386127875258306,0,1,1,2.7386127875258306,0" style="fill: none; stroke: black; stroke-width: 2; opacity: 0.7;"></path><path transform="translate(468,35.67627212154649)" d="M2.7386127875258306,0A2.7386127875258306,2.7386127875258306,0,1,1,-2.7386127875258306,0A2.7386127875258306,2.7386127875258306,0,1,1,2.7386127875258306,0" style="fill: none; stroke: black; stroke-width: 2; opacity: 0.7;"></path><path transform="translate(457.3636363636364,35.659335993886394)" d="M2.7386127875258306,0A2.7386127875258306,2.7386127875258306,0,1,1,-2.7386127875258306,0A2.7386127875258306,2.7386127875258306,0,1,1,2.7386127875258306,0" style="fill: none; stroke: black; stroke-width: 2; opacity: 0.7;"></path><path transform="translate(446.72727272727275,36.15230346907136)" d="M2.7386127875258306,0A2.7386127875258306,2.7386127875258306,0,1,1,-2.7386127875258306,0A2.7386127875258306,2.7386127875258306,0,1,1,2.7386127875258306,0" style="fill: none; stroke: black; stroke-width: 2; opacity: 0.7;"></path><path transform="translate(436.0909090909091,36.244239631336406)" d="M2.7386127875258306,0A2.7386127875258306,2.7386127875258306,0,1,1,-2.7386127875258306,0A2.7386127875258306,2.7386127875258306,0,1,1,2.7386127875258306,0" style="fill: none; stroke: black; stroke-width: 2; opacity: 0.7;"></path><path transform="translate(425.45454545454544,36.07173156247258)" d="M2.7386127875258306,0A2.7386127875258306,2.7386127875258306,0,1,1,-2.7386127875258306,0A2.7386127875258306,2.7386127875258306,0,1,1,2.7386127875258306,0" style="fill: none; stroke: black; stroke-width: 2; opacity: 0.7;"></path><path transform="translate(414.8181818181818,36.800717596053225)" d="M2.7386127875258306,0A2.7386127875258306,2.7386127875258306,0,1,1,-2.7386127875258306,0A2.7386127875258306,2.7386127875258306,0,1,1,2.7386127875258306,0" style="fill: none; stroke: black; stroke-width: 2; opacity: 0.7;"></path><path transform="translate(404.1818181818182,36.51226659711248)" d="M2.7386127875258306,0A2.7386127875258306,2.7386127875258306,0,1,1,-2.7386127875258306,0A2.7386127875258306,2.7386127875258306,0,1,1,2.7386127875258306,0" style="fill: none; stroke: black; stroke-width: 2; opacity: 0.7;"></path><path transform="translate(393.54545454545456,37.30418285301292)" d="M2.7386127875258306,0A2.7386127875258306,2.7386127875258306,0,1,1,-2.7386127875258306,0A2.7386127875258306,2.7386127875258306,0,1,1,2.7386127875258306,0" style="fill: none; stroke: black; stroke-width: 2; opacity: 0.7;"></path><path transform="translate(382.90909090909093,37.304556210342284)" d="M2.7386127875258306,0A2.7386127875258306,2.7386127875258306,0,1,1,-2.7386127875258306,0A2.7386127875258306,2.7386127875258306,0,1,1,2.7386127875258306,0" style="fill: none; stroke: black; stroke-width: 2; opacity: 0.7;"></path><path transform="translate(372.27272727272725,37.51177619920331)" d="M2.7386127875258306,0A2.7386127875258306,2.7386127875258306,0,1,1,-2.7386127875258306,0A2.7386127875258306,2.7386127875258306,0,1,1,2.7386127875258306,0" style="fill: none; stroke: black; stroke-width: 2; opacity: 0.7;"></path><path transform="translate(361.6363636363636,38.0689995984804)" d="M2.7386127875258306,0A2.7386127875258306,2.7386127875258306,0,1,1,-2.7386127875258306,0A2.7386127875258306,2.7386127875258306,0,1,1,2.7386127875258306,0" style="fill: none; stroke: black; stroke-width: 2; opacity: 0.7;"></path><path transform="translate(351,38.7095148871849)" d="M2.7386127875258306,0A2.7386127875258306,2.7386127875258306,0,1,1,-2.7386127875258306,0A2.7386127875258306,2.7386127875258306,0,1,1,2.7386127875258306,0" style="fill: none; stroke: black; stroke-width: 2; opacity: 0.7;"></path><path transform="translate(340.3636363636364,39.46995219302467)" d="M2.7386127875258306,0A2.7386127875258306,2.7386127875258306,0,1,1,-2.7386127875258306,0A2.7386127875258306,2.7386127875258306,0,1,1,2.7386127875258306,0" style="fill: none; stroke: black; stroke-width: 2; opacity: 0.7;"></path><path transform="translate(329.7272727272727,39.942077089536454)" d="M2.7386127875258306,0A2.7386127875258306,2.7386127875258306,0,1,1,-2.7386127875258306,0A2.7386127875258306,2.7386127875258306,0,1,1,2.7386127875258306,0" style="fill: none; stroke: black; stroke-width: 2; opacity: 0.7;"></path><path transform="translate(319.09090909090907,40.81849309457887)" d="M2.7386127875258306,0A2.7386127875258306,2.7386127875258306,0,1,1,-2.7386127875258306,0A2.7386127875258306,2.7386127875258306,0,1,1,2.7386127875258306,0" style="fill: none; stroke: black; stroke-width: 2; opacity: 0.7;"></path><path transform="translate(308.45454545454544,40.89323189926547)" d="M2.7386127875258306,0A2.7386127875258306,2.7386127875258306,0,1,1,-2.7386127875258306,0A2.7386127875258306,2.7386127875258306,0,1,1,2.7386127875258306,0" style="fill: none; stroke: black; stroke-width: 2; opacity: 0.7;"></path><path transform="translate(297.8181818181818,40.891186285415166)" d="M2.7386127875258306,0A2.7386127875258306,2.7386127875258306,0,1,1,-2.7386127875258306,0A2.7386127875258306,2.7386127875258306,0,1,1,2.7386127875258306,0" style="fill: none; stroke: black; stroke-width: 2; opacity: 0.7;"></path><path transform="translate(287.1818181818182,41.028330242373855)" d="M2.7386127875258306,0A2.7386127875258306,2.7386127875258306,0,1,1,-2.7386127875258306,0A2.7386127875258306,2.7386127875258306,0,1,1,2.7386127875258306,0" style="fill: none; stroke: black; stroke-width: 2; opacity: 0.7;"></path><path transform="translate(276.54545454545456,40.065970313358996)" d="M2.7386127875258306,0A2.7386127875258306,2.7386127875258306,0,1,1,-2.7386127875258306,0A2.7386127875258306,2.7386127875258306,0,1,1,2.7386127875258306,0" style="fill: none; stroke: black; stroke-width: 2; opacity: 0.7;"></path><path transform="translate(265.9090909090909,37.82814971006853)" d="M2.7386127875258306,0A2.7386127875258306,2.7386127875258306,0,1,1,-2.7386127875258306,0A2.7386127875258306,2.7386127875258306,0,1,1,2.7386127875258306,0" style="fill: none; stroke: black; stroke-width: 2; opacity: 0.7;"></path><path transform="translate(255.27272727272725,37.8184498218892)" d="M2.7386127875258306,0A2.7386127875258306,2.7386127875258306,0,1,1,-2.7386127875258306,0A2.7386127875258306,2.7386127875258306,0,1,1,2.7386127875258306,0" style="fill: none; stroke: black; stroke-width: 2; opacity: 0.7;"></path><path transform="translate(244.63636363636363,36.971626128938915)" d="M2.7386127875258306,0A2.7386127875258306,2.7386127875258306,0,1,1,-2.7386127875258306,0A2.7386127875258306,2.7386127875258306,0,1,1,2.7386127875258306,0" style="fill: none; stroke: black; stroke-width: 2; opacity: 0.7;"></path><path transform="translate(234,37.012983064246406)" d="M2.7386127875258306,0A2.7386127875258306,2.7386127875258306,0,1,1,-2.7386127875258306,0A2.7386127875258306,2.7386127875258306,0,1,1,2.7386127875258306,0" style="fill: none; stroke: black; stroke-width: 2; opacity: 0.7;"></path><path transform="translate(223.36363636363637,36.94187000516577)" d="M2.7386127875258306,0A2.7386127875258306,2.7386127875258306,0,1,1,-2.7386127875258306,0A2.7386127875258306,2.7386127875258306,0,1,1,2.7386127875258306,0" style="fill: none; stroke: black; stroke-width: 2; opacity: 0.7;"></path><path transform="translate(212.72727272727272,34.929662958860035)" d="M2.7386127875258306,0A2.7386127875258306,2.7386127875258306,0,1,1,-2.7386127875258306,0A2.7386127875258306,2.7386127875258306,0,1,1,2.7386127875258306,0" style="fill: none; stroke: black; stroke-width: 2; opacity: 0.7;"></path><path transform="translate(202.0909090909091,32.959699639688736)" d="M2.7386127875258306,0A2.7386127875258306,2.7386127875258306,0,1,1,-2.7386127875258306,0A2.7386127875258306,2.7386127875258306,0,1,1,2.7386127875258306,0" style="fill: none; stroke: black; stroke-width: 2; opacity: 0.7;"></path><path transform="translate(191.45454545454547,31.676436461174482)" d="M2.7386127875258306,0A2.7386127875258306,2.7386127875258306,0,1,1,-2.7386127875258306,0A2.7386127875258306,2.7386127875258306,0,1,1,2.7386127875258306,0" style="fill: none; stroke: black; stroke-width: 2; opacity: 0.7;"></path><path transform="translate(180.8181818181818,30.741094003118803)" d="M2.7386127875258306,0A2.7386127875258306,2.7386127875258306,0,1,1,-2.7386127875258306,0A2.7386127875258306,2.7386127875258306,0,1,1,2.7386127875258306,0" style="fill: none; stroke: black; stroke-width: 2; opacity: 0.7;"></path><path transform="translate(170.1818181818182,29.05951482125858)" d="M2.7386127875258306,0A2.7386127875258306,2.7386127875258306,0,1,1,-2.7386127875258306,0A2.7386127875258306,2.7386127875258306,0,1,1,2.7386127875258306,0" style="fill: none; stroke: black; stroke-width: 2; opacity: 0.7;"></path><path transform="translate(159.54545454545453,28.976201832146444)" d="M2.7386127875258306,0A2.7386127875258306,2.7386127875258306,0,1,1,-2.7386127875258306,0A2.7386127875258306,2.7386127875258306,0,1,1,2.7386127875258306,0" style="fill: none; stroke: black; stroke-width: 2; opacity: 0.7;"></path><path transform="translate(148.9090909090909,28.72119777251659)" d="M2.7386127875258306,0A2.7386127875258306,2.7386127875258306,0,1,1,-2.7386127875258306,0A2.7386127875258306,2.7386127875258306,0,1,1,2.7386127875258306,0" style="fill: none; stroke: black; stroke-width: 2; opacity: 0.7;"></path><path transform="translate(138.27272727272728,28.116164078278434)" d="M2.7386127875258306,0A2.7386127875258306,2.7386127875258306,0,1,1,-2.7386127875258306,0A2.7386127875258306,2.7386127875258306,0,1,1,2.7386127875258306,0" style="fill: none; stroke: black; stroke-width: 2; opacity: 0.7;"></path><path transform="translate(127.63636363636363,29.084828972411465)" d="M2.7386127875258306,0A2.7386127875258306,2.7386127875258306,0,1,1,-2.7386127875258306,0A2.7386127875258306,2.7386127875258306,0,1,1,2.7386127875258306,0" style="fill: none; stroke: black; stroke-width: 2; opacity: 0.7;"></path><path transform="translate(117,31.20821878165244)" d="M2.7386127875258306,0A2.7386127875258306,2.7386127875258306,0,1,1,-2.7386127875258306,0A2.7386127875258306,2.7386127875258306,0,1,1,2.7386127875258306,0" style="fill: none; stroke: black; stroke-width: 2; opacity: 0.7;"></path><path transform="translate(106.36363636363636,31.554780053264764)" d="M2.7386127875258306,0A2.7386127875258306,2.7386127875258306,0,1,1,-2.7386127875258306,0A2.7386127875258306,2.7386127875258306,0,1,1,2.7386127875258306,0" style="fill: none; stroke: black; stroke-width: 2; opacity: 0.7;"></path><path transform="translate(95.72727272727273,31.3851653261841)" d="M2.7386127875258306,0A2.7386127875258306,2.7386127875258306,0,1,1,-2.7386127875258306,0A2.7386127875258306,2.7386127875258306,0,1,1,2.7386127875258306,0" style="fill: none; stroke: black; stroke-width: 2; opacity: 0.7;"></path><path transform="translate(85.0909090909091,31.3935007275305)" d="M2.7386127875258306,0A2.7386127875258306,2.7386127875258306,0,1,1,-2.7386127875258306,0A2.7386127875258306,2.7386127875258306,0,1,1,2.7386127875258306,0" style="fill: none; stroke: black; stroke-width: 2; opacity: 0.7;"></path><path transform="translate(74.45454545454545,31.01059433466076)" d="M2.7386127875258306,0A2.7386127875258306,2.7386127875258306,0,1,1,-2.7386127875258306,0A2.7386127875258306,2.7386127875258306,0,1,1,2.7386127875258306,0" style="fill: none; stroke: black; stroke-width: 2; opacity: 0.7;"></path><path transform="translate(63.81818181818181,32.255276459466764)" d="M2.7386127875258306,0A2.7386127875258306,2.7386127875258306,0,1,1,-2.7386127875258306,0A2.7386127875258306,2.7386127875258306,0,1,1,2.7386127875258306,0" style="fill: none; stroke: black; stroke-width: 2; opacity: 0.7;"></path><path transform="translate(53.18181818181818,34.243865549563175)" d="M2.7386127875258306,0A2.7386127875258306,2.7386127875258306,0,1,1,-2.7386127875258306,0A2.7386127875258306,2.7386127875258306,0,1,1,2.7386127875258306,0" style="fill: none; stroke: black; stroke-width: 2; opacity: 0.7;"></path><path transform="translate(42.54545454545455,34.70918704560476)" d="M2.7386127875258306,0A2.7386127875258306,2.7386127875258306,0,1,1,-2.7386127875258306,0A2.7386127875258306,2.7386127875258306,0,1,1,2.7386127875258306,0" style="fill: none; stroke: black; stroke-width: 2; opacity: 0.7;"></path><path transform="translate(31.909090909090907,34.730238393977416)" d="M2.7386127875258306,0A2.7386127875258306,2.7386127875258306,0,1,1,-2.7386127875258306,0A2.7386127875258306,2.7386127875258306,0,1,1,2.7386127875258306,0" style="fill: none; stroke: black; stroke-width: 2; opacity: 0.7;"></path><path transform="translate(21.272727272727273,35.18640434815893)" d="M2.7386127875258306,0A2.7386127875258306,2.7386127875258306,0,1,1,-2.7386127875258306,0A2.7386127875258306,2.7386127875258306,0,1,1,2.7386127875258306,0" style="fill: none; stroke: black; stroke-width: 2; opacity: 0.7;"></path><path transform="translate(10.636363636363637,35.09798678228981)" d="M2.7386127875258306,0A2.7386127875258306,2.7386127875258306,0,1,1,-2.7386127875258306,0A2.7386127875258306,2.7386127875258306,0,1,1,2.7386127875258306,0" style="fill: none; stroke: black; stroke-width: 2; opacity: 0.7;"></path><path transform="translate(0,35.148545652512055)" d="M2.7386127875258306,0A2.7386127875258306,2.7386127875258306,0,1,1,-2.7386127875258306,0A2.7386127875258306,2.7386127875258306,0,1,1,2.7386127875258306,0" style="fill: none; stroke: black; stroke-width: 2; opacity: 0.7;"></path></g><g class="mark-symbol role-mark concat_1_layer_2_marks" clip-path="url(#clip5)"><path transform="translate(585,48.045086297992256)" d="M-2.7386127875258306,0L0,-2.7386127875258306L2.7386127875258306,0L0,2.7386127875258306Z" style="fill: none; stroke: black; stroke-width: 2; opacity: 0.7;"></path><path transform="translate(574.3636363636364,48.768229750953566)" d="M-2.7386127875258306,0L0,-2.7386127875258306L2.7386127875258306,0L0,2.7386127875258306Z" style="fill: none; stroke: black; stroke-width: 2; opacity: 0.7;"></path><path transform="translate(563.7272727272727,49.64148245903442)" d="M-2.7386127875258306,0L0,-2.7386127875258306L2.7386127875258306,0L0,2.7386127875258306Z" style="fill: none; stroke: black; stroke-width: 2; opacity: 0.7;"></path><path transform="translate(553.0909090909091,50.2159181321847)" d="M-2.7386127875258306,0L0,-2.7386127875258306L2.7386127875258306,0L0,2.7386127875258306Z" style="fill: none; stroke: black; stroke-width: 2; opacity: 0.7;"></path><path transform="translate(542.4545454545455,50.66578489584082)" d="M-2.7386127875258306,0L0,-2.7386127875258306L2.7386127875258306,0L0,2.7386127875258306Z" style="fill: none; stroke: black; stroke-width: 2; opacity: 0.7;"></path><path transform="translate(531.8181818181818,50.72608639290189)" d="M-2.7386127875258306,0L0,-2.7386127875258306L2.7386127875258306,0L0,2.7386127875258306Z" style="fill: none; stroke: black; stroke-width: 2; opacity: 0.7;"></path><path transform="translate(521.1818181818181,51.06965461476263)" d="M-2.7386127875258306,0L0,-2.7386127875258306L2.7386127875258306,0L0,2.7386127875258306Z" style="fill: none; stroke: black; stroke-width: 2; opacity: 0.7;"></path><path transform="translate(510.5454545454545,51.50539188759432)" d="M-2.7386127875258306,0L0,-2.7386127875258306L2.7386127875258306,0L0,2.7386127875258306Z" style="fill: none; stroke: black; stroke-width: 2; opacity: 0.7;"></path><path transform="translate(499.9090909090909,52.08194651669919)" d="M-2.7386127875258306,0L0,-2.7386127875258306L2.7386127875258306,0L0,2.7386127875258306Z" style="fill: none; stroke: black; stroke-width: 2; opacity: 0.7;"></path><path transform="translate(489.27272727272725,52.635734878502554)" d="M-2.7386127875258306,0L0,-2.7386127875258306L2.7386127875258306,0L0,2.7386127875258306Z" style="fill: none; stroke: black; stroke-width: 2; opacity: 0.7;"></path><path transform="translate(478.6363636363637,53.063477460901574)" d="M-2.7386127875258306,0L0,-2.7386127875258306L2.7386127875258306,0L0,2.7386127875258306Z" style="fill: none; stroke: black; stroke-width: 2; opacity: 0.7;"></path><path transform="translate(468,53.43858308930669)" d="M-2.7386127875258306,0L0,-2.7386127875258306L2.7386127875258306,0L0,2.7386127875258306Z" style="fill: none; stroke: black; stroke-width: 2; opacity: 0.7;"></path><path transform="translate(457.3636363636364,53.462398460275686)" d="M-2.7386127875258306,0L0,-2.7386127875258306L2.7386127875258306,0L0,2.7386127875258306Z" style="fill: none; stroke: black; stroke-width: 2; opacity: 0.7;"></path><path transform="translate(446.72727272727275,53.97698664428862)" d="M-2.7386127875258306,0L0,-2.7386127875258306L2.7386127875258306,0L0,2.7386127875258306Z" style="fill: none; stroke: black; stroke-width: 2; opacity: 0.7;"></path><path transform="translate(436.0909090909091,54.44700460829493)" d="M-2.7386127875258306,0L0,-2.7386127875258306L2.7386127875258306,0L0,2.7386127875258306Z" style="fill: none; stroke: black; stroke-width: 2; opacity: 0.7;"></path><path transform="translate(425.45454545454544,54.44343679606823)" d="M-2.7386127875258306,0L0,-2.7386127875258306L2.7386127875258306,0L0,2.7386127875258306Z" style="fill: none; stroke: black; stroke-width: 2; opacity: 0.7;"></path><path transform="translate(414.8181818181818,55.09343698609658)" d="M-2.7386127875258306,0L0,-2.7386127875258306L2.7386127875258306,0L0,2.7386127875258306Z" style="fill: none; stroke: black; stroke-width: 2; opacity: 0.7;"></path><path transform="translate(404.1818181818182,55.23666324010003)" d="M-2.7386127875258306,0L0,-2.7386127875258306L2.7386127875258306,0L0,2.7386127875258306Z" style="fill: none; stroke: black; stroke-width: 2; opacity: 0.7;"></path><path transform="translate(393.54545454545456,55.4208450025597)" d="M-2.7386127875258306,0L0,-2.7386127875258306L2.7386127875258306,0L0,2.7386127875258306Z" style="fill: none; stroke: black; stroke-width: 2; opacity: 0.7;"></path><path transform="translate(382.90909090909093,55.42088049556135)" d="M-2.7386127875258306,0L0,-2.7386127875258306L2.7386127875258306,0L0,2.7386127875258306Z" style="fill: none; stroke: black; stroke-width: 2; opacity: 0.7;"></path><path transform="translate(372.27272727272725,55.735728458264546)" d="M-2.7386127875258306,0L0,-2.7386127875258306L2.7386127875258306,0L0,2.7386127875258306Z" style="fill: none; stroke: black; stroke-width: 2; opacity: 0.7;"></path><path transform="translate(361.6363636363636,55.97059641103252)" d="M-2.7386127875258306,0L0,-2.7386127875258306L2.7386127875258306,0L0,2.7386127875258306Z" style="fill: none; stroke: black; stroke-width: 2; opacity: 0.7;"></path><path transform="translate(351,56.287572231581926)" d="M-2.7386127875258306,0L0,-2.7386127875258306L2.7386127875258306,0L0,2.7386127875258306Z" style="fill: none; stroke: black; stroke-width: 2; opacity: 0.7;"></path><path transform="translate(340.3636363636364,56.61629287387301)" d="M-2.7386127875258306,0L0,-2.7386127875258306L2.7386127875258306,0L0,2.7386127875258306Z" style="fill: none; stroke: black; stroke-width: 2; opacity: 0.7;"></path><path transform="translate(329.7272727272727,56.739721123964785)" d="M-2.7386127875258306,0L0,-2.7386127875258306L2.7386127875258306,0L0,2.7386127875258306Z" style="fill: none; stroke: black; stroke-width: 2; opacity: 0.7;"></path><path transform="translate(319.09090909090907,56.755844623928965)" d="M-2.7386127875258306,0L0,-2.7386127875258306L2.7386127875258306,0L0,2.7386127875258306Z" style="fill: none; stroke: black; stroke-width: 2; opacity: 0.7;"></path><path transform="translate(308.45454545454544,56.757607555089194)" d="M-2.7386127875258306,0L0,-2.7386127875258306L2.7386127875258306,0L0,2.7386127875258306Z" style="fill: none; stroke: black; stroke-width: 2; opacity: 0.7;"></path><path transform="translate(297.8181818181818,56.71923051756855)" d="M-2.7386127875258306,0L0,-2.7386127875258306L2.7386127875258306,0L0,2.7386127875258306Z" style="fill: none; stroke: black; stroke-width: 2; opacity: 0.7;"></path><path transform="translate(287.1818181818182,56.52362985227345)" d="M-2.7386127875258306,0L0,-2.7386127875258306L2.7386127875258306,0L0,2.7386127875258306Z" style="fill: none; stroke: black; stroke-width: 2; opacity: 0.7;"></path><path transform="translate(276.54545454545456,55.672661587999684)" d="M-2.7386127875258306,0L0,-2.7386127875258306L2.7386127875258306,0L0,2.7386127875258306Z" style="fill: none; stroke: black; stroke-width: 2; opacity: 0.7;"></path><path transform="translate(265.9090909090909,53.555769171137094)" d="M-2.7386127875258306,0L0,-2.7386127875258306L2.7386127875258306,0L0,2.7386127875258306Z" style="fill: none; stroke: black; stroke-width: 2; opacity: 0.7;"></path><path transform="translate(255.27272727272725,53.28338042009581)" d="M-2.7386127875258306,0L0,-2.7386127875258306L2.7386127875258306,0L0,2.7386127875258306Z" style="fill: none; stroke: black; stroke-width: 2; opacity: 0.7;"></path><path transform="translate(244.63636363636363,52.469882270518895)" d="M-2.7386127875258306,0L0,-2.7386127875258306L2.7386127875258306,0L0,2.7386127875258306Z" style="fill: none; stroke: black; stroke-width: 2; opacity: 0.7;"></path><path transform="translate(234,52.446714707044904)" d="M-2.7386127875258306,0L0,-2.7386127875258306L2.7386127875258306,0L0,2.7386127875258306Z" style="fill: none; stroke: black; stroke-width: 2; opacity: 0.7;"></path><path transform="translate(223.36363636363637,52.26290680360996)" d="M-2.7386127875258306,0L0,-2.7386127875258306L2.7386127875258306,0L0,2.7386127875258306Z" style="fill: none; stroke: black; stroke-width: 2; opacity: 0.7;"></path><path transform="translate(212.72727272727272,50.815059866154755)" d="M-2.7386127875258306,0L0,-2.7386127875258306L2.7386127875258306,0L0,2.7386127875258306Z" style="fill: none; stroke: black; stroke-width: 2; opacity: 0.7;"></path><path transform="translate(202.0909090909091,49.15251158143338)" d="M-2.7386127875258306,0L0,-2.7386127875258306L2.7386127875258306,0L0,2.7386127875258306Z" style="fill: none; stroke: black; stroke-width: 2; opacity: 0.7;"></path><path transform="translate(191.45454545454547,48.45737707388376)" d="M-2.7386127875258306,0L0,-2.7386127875258306L2.7386127875258306,0L0,2.7386127875258306Z" style="fill: none; stroke: black; stroke-width: 2; opacity: 0.7;"></path><path transform="translate(180.8181818181818,48.061043738929015)" d="M-2.7386127875258306,0L0,-2.7386127875258306L2.7386127875258306,0L0,2.7386127875258306Z" style="fill: none; stroke: black; stroke-width: 2; opacity: 0.7;"></path><path transform="translate(170.1818181818182,46.97633194366937)" d="M-2.7386127875258306,0L0,-2.7386127875258306L2.7386127875258306,0L0,2.7386127875258306Z" style="fill: none; stroke: black; stroke-width: 2; opacity: 0.7;"></path><path transform="translate(159.54545454545453,46.88979162212391)" d="M-2.7386127875258306,0L0,-2.7386127875258306L2.7386127875258306,0L0,2.7386127875258306Z" style="fill: none; stroke: black; stroke-width: 2; opacity: 0.7;"></path><path transform="translate(148.9090909090909,46.70779285738104)" d="M-2.7386127875258306,0L0,-2.7386127875258306L2.7386127875258306,0L0,2.7386127875258306Z" style="fill: none; stroke: black; stroke-width: 2; opacity: 0.7;"></path><path transform="translate(138.27272727272728,46.446131346194036)" d="M-2.7386127875258306,0L0,-2.7386127875258306L2.7386127875258306,0L0,2.7386127875258306Z" style="fill: none; stroke: black; stroke-width: 2; opacity: 0.7;"></path><path transform="translate(127.63636363636363,47.27085149148864)" d="M-2.7386127875258306,0L0,-2.7386127875258306L2.7386127875258306,0L0,2.7386127875258306Z" style="fill: none; stroke: black; stroke-width: 2; opacity: 0.7;"></path><path transform="translate(117,49.78006077268123)" d="M-2.7386127875258306,0L0,-2.7386127875258306L2.7386127875258306,0L0,2.7386127875258306Z" style="fill: none; stroke: black; stroke-width: 2; opacity: 0.7;"></path><path transform="translate(106.36363636363636,50.45091376618606)" d="M-2.7386127875258306,0L0,-2.7386127875258306L2.7386127875258306,0L0,2.7386127875258306Z" style="fill: none; stroke: black; stroke-width: 2; opacity: 0.7;"></path><path transform="translate(95.72727272727273,51.82007745010425)" d="M-2.7386127875258306,0L0,-2.7386127875258306L2.7386127875258306,0L0,2.7386127875258306Z" style="fill: none; stroke: black; stroke-width: 2; opacity: 0.7;"></path><path transform="translate(85.0909090909091,51.824049546692535)" d="M-2.7386127875258306,0L0,-2.7386127875258306L2.7386127875258306,0L0,2.7386127875258306Z" style="fill: none; stroke: black; stroke-width: 2; opacity: 0.7;"></path><path transform="translate(74.45454545454545,52.10158539334286)" d="M-2.7386127875258306,0L0,-2.7386127875258306L2.7386127875258306,0L0,2.7386127875258306Z" style="fill: none; stroke: black; stroke-width: 2; opacity: 0.7;"></path><path transform="translate(63.81818181818181,54.14052552378748)" d="M-2.7386127875258306,0L0,-2.7386127875258306L2.7386127875258306,0L0,2.7386127875258306Z" style="fill: none; stroke: black; stroke-width: 2; opacity: 0.7;"></path><path transform="translate(53.18181818181818,56.71595454635913)" d="M-2.7386127875258306,0L0,-2.7386127875258306L2.7386127875258306,0L0,2.7386127875258306Z" style="fill: none; stroke: black; stroke-width: 2; opacity: 0.7;"></path><path transform="translate(42.54545454545455,57.89986781229346)" d="M-2.7386127875258306,0L0,-2.7386127875258306L2.7386127875258306,0L0,2.7386127875258306Z" style="fill: none; stroke: black; stroke-width: 2; opacity: 0.7;"></path><path transform="translate(31.909090909090907,58.410706817231286)" d="M-2.7386127875258306,0L0,-2.7386127875258306L2.7386127875258306,0L0,2.7386127875258306Z" style="fill: none; stroke: black; stroke-width: 2; opacity: 0.7;"></path><path transform="translate(21.272727272727273,58.749138788945885)" d="M-2.7386127875258306,0L0,-2.7386127875258306L2.7386127875258306,0L0,2.7386127875258306Z" style="fill: none; stroke: black; stroke-width: 2; opacity: 0.7;"></path><path transform="translate(10.636363636363637,58.744699545402455)" d="M-2.7386127875258306,0L0,-2.7386127875258306L2.7386127875258306,0L0,2.7386127875258306Z" style="fill: none; stroke: black; stroke-width: 2; opacity: 0.7;"></path><path transform="translate(0,58.90807279514699)" d="M-2.7386127875258306,0L0,-2.7386127875258306L2.7386127875258306,0L0,2.7386127875258306Z" style="fill: none; stroke: black; stroke-width: 2; opacity: 0.7;"></path></g></g><path class="foreground" d="" style="display: none; fill: none;"></path></g></g></g><path class="foreground" d="" style="display: none; fill: none;"></path></g></g></g></svg>