<svg class="marks" width="654" height="306" viewBox="0 0 654 306" version="1.1" xmlns="http://www.w3.org/2000/svg" xmlns:xlink="http://www.w3.org/1999/xlink"><rect width="654" height="306" style="fill: white;"></rect><g transform="translate(50,12)"><g class="mark-group role-frame root"><g transform="translate(0,0)"><path class="background" d="M0.5,0.5h585v250h-585Z" style="fill: none; stroke: #ddd;"></path><g><g class="mark-group role-axis"><g transform="translate(0.5,250.5)"><path class="background" d="M0,0h0v0h0Z" style="pointer-events: none; fill: none;"></path><g><g class="mark-rule role-axis-grid" style="pointer-events: none;"><line transform="translate(14,-250)" x2="0" y2="250" style="fill: none; stroke: #ddd; stroke-width: 1; opacity: 1;"></line><line transform="translate(45,-250)" x2="0" y2="250" style="fill: none; stroke: #ddd; stroke-width: 1; opacity: 1;"></line><line transform="translate(77,-250)" x2="0" y2="250" style="fill: none; stroke: #ddd; stroke-width: 1; opacity: 1;"></line><line transform="translate(108,-250)" x2="0" y2="250" style="fill: none; stroke: #ddd; stroke-width: 1; opacity: 1;"></line><line transform="translate(140,-250)" x2="0" y2="250" style="fill: none; stroke: #ddd; stroke-width: 1; opacity: 1;"></line><line transform="translate(171,-250)" x2="0" y2="250" style="fill: none; stroke: #ddd; stroke-width: 1; opacity: 1;"></line><line transform="translate(203,-250)" x2="0" y2="250" style="fill: none; stroke: #ddd; stroke-width: 1; opacity: 1;"></line><line transform="translate(234,-250)" x2="0" y2="250" style="fill: none; stroke: #ddd; stroke-width: 1; opacity: 1;"></line><line transform="translate(266,-250)" x2="0" y2="250" style="fill: none; stroke: #ddd; stroke-width: 1; opacity: 1;"></line><line transform="translate(297,-250)" x2="0" y2="250" style="fill: none; stroke: #ddd; stroke-width: 1; opacity: 1;"></line><line transform="translate(329,-250)" x2="0" y2="250" style="fill: none; stroke: #ddd; stroke-width: 1; opacity: 1;"></line><line transform="translate(360,-250)" x2="0" y2="250" style="fill: none; stroke: #ddd; stroke-width: 1; opacity: 1;"></line><line transform="translate(392,-250)" x2="0" y2="250" style="fill: none; stroke: #ddd; stroke-width: 1; opacity: 1;"></line><line transform="translate(423,-250)" x2="0" y2="250" style="fill: none; stroke: #ddd; stroke-width: 1; opacity: 1;"></line><line transform="translate(455,-250)" x2="0" y2="250" style="fill: none; stroke: #ddd; stroke-width: 1; opacity: 1;"></line><line transform="translate(486,-250)" x2="0" y2="250" style="fill: none; stroke: #ddd; stroke-width: 1; opacity: 1;"></line><line transform="translate(518,-250)" x2="0" y2="250" style="fill: none; stroke: #ddd; stroke-width: 1; opacity: 1;"></line><line transform="translate(549,-250)" x2="0" y2="250" style="fill: none; stroke: #ddd; stroke-width: 1; opacity: 1;"></line><line transform="translate(581,-250)" x2="0" y2="250" style="fill: none; stroke: #ddd; stroke-width: 1; opacity: 1;"></line></g></g><path class="foreground" d="" style="pointer-events: none; display: none; fill: none;"></path></g></g><g class="mark-group role-axis"><g transform="translate(0.5,0.5)"><path class="background" d="M0,0h0v0h0Z" style="pointer-events: none; fill: none;"></path><g><g class="mark-rule role-axis-grid" style="pointer-events: none;"><line transform="translate(0,250)" x2="585" y2="0" style="fill: none; stroke: #ddd; stroke-width: 1; opacity: 1;"></line><line transform="translate(0,214)" x2="585" y2="0" style="fill: none; stroke: #ddd; stroke-width: 1; opacity: 1;"></line><line transform="translate(0,179)" x2="585" y2="0" style="fill: none; stroke: #ddd; stroke-width: 1; opacity: 1;"></line><line transform="translate(0,143)" x2="585" y2="0" style="fill: none; stroke: #ddd; stroke-width: 1; opacity: 1;"></line><line transform="translate(0,107)" x2="585" y2="0" style="fill: none; stroke: #ddd; stroke-width: 1; opacity: 1;"></line><line transform="translate(0,71)" x2="585" y2="0" style="fill: none; stroke: #ddd; stroke-width: 1; opacity: 1;"></line><line transform="translate(0,36)" x2="585" y2="0" style="fill: none; stroke: #ddd; stroke-width: 1; opacity: 1;"></line><line transform="translate(0,0)" x2="585" y2="0" style="fill: none; stroke: #ddd; stroke-width: 1; opacity: 1;"></line></g></g><path class="foreground" d="" style="pointer-events: none; display: none; fill: none;"></path></g></g><g class="mark-group role-axis"><g transform="translate(0.5,250.5)"><path class="background" d="M0,0h0v0h0Z" style="pointer-events: none; fill: none;"></path><g><g class="mark-rule role-axis-tick" style="pointer-events: none;"><line transform="translate(14,0)" x2="0" y2="5" style="fill: none; stroke: #888; stroke-width: 1; opacity: 1;"></line><line transform="translate(45,0)" x2="0" y2="5" style="fill: none; stroke: #888; stroke-width: 1; opacity: 1;"></line><line transform="translate(77,0)" x2="0" y2="5" style="fill: none; stroke: #888; stroke-width: 1; opacity: 1;"></line><line transform="translate(108,0)" x2="0" y2="5" style="fill: none; stroke: #888; stroke-width: 1; opacity: 1;"></line><line transform="translate(140,0)" x2="0" y2="5" style="fill: none; stroke: #888; stroke-width: 1; opacity: 1;"></line><line transform="translate(171,0)" x2="0" y2="5" style="fill: none; stroke: #888; stroke-width: 1; opacity: 1;"></line><line transform="translate(203,0)" x2="0" y2="5" style="fill: none; stroke: #888; stroke-width: 1; opacity: 1;"></line><line transform="translate(234,0)" x2="0" y2="5" style="fill: none; stroke: #888; stroke-width: 1; opacity: 1;"></line><line transform="translate(266,0)" x2="0" y2="5" style="fill: none; stroke: #888; stroke-width: 1; opacity: 1;"></line><line transform="translate(297,0)" x2="0" y2="5" style="fill: none; stroke: #888; stroke-width: 1; opacity: 1;"></line><line transform="translate(329,0)" x2="0" y2="5" style="fill: none; stroke: #888; stroke-width: 1; opacity: 1;"></line><line transform="translate(360,0)" x2="0" y2="5" style="fill: none; stroke: #888; stroke-width: 1; opacity: 1;"></line><line transform="translate(392,0)" x2="0" y2="5" style="fill: none; stroke: #888; stroke-width: 1; opacity: 1;"></line><line transform="translate(423,0)" x2="0" y2="5" style="fill: none; stroke: #888; stroke-width: 1; opacity: 1;"></line><line transform="translate(455,0)" x2="0" y2="5" style="fill: none; stroke: #888; stroke-width: 1; opacity: 1;"></line><line transform="translate(486,0)" x2="0" y2="5" style="fill: none; stroke: #888; stroke-width: 1; opacity: 1;"></line><line transform="translate(518,0)" x2="0" y2="5" style="fill: none; stroke: #888; stroke-width: 1; opacity: 1;"></line><line transform="translate(549,0)" x2="0" y2="5" style="fill: none; stroke: #888; stroke-width: 1; opacity: 1;"></line><line transform="translate(581,0)" x2="0" y2="5" style="fill: none; stroke: #888; stroke-width: 1; opacity: 1;"></line></g><g class="mark-text role-axis-label" style="pointer-events: none;"><text text-anchor="middle" transform="translate(13.5,18)" style="font-family: sans-serif; font-size: 14px; fill: #000; opacity: 1;">15/03</text><text text-anchor="middle" transform="translate(45,18)" style="font-family: sans-serif; font-size: 14px; fill: #000; opacity: 0;">22/03</text><text text-anchor="middle" transform="translate(76.5,18)" style="font-family: sans-serif; font-size: 14px; fill: #000; opacity: 1;">29/03</text><text text-anchor="middle" transform="translate(108,18)" style="font-family: sans-serif; font-size: 14px; fill: #000; opacity: 0;">05/04</text><text text-anchor="middle" transform="translate(139.5,18)" style="font-family: sans-serif; font-size: 14px; fill: #000; opacity: 1;">12/04</text><text text-anchor="middle" transform="translate(171,18)" style="font-family: sans-serif; font-size: 14px; fill: #000; opacity: 0;">19/04</text><text text-anchor="middle" transform="translate(202.5,18)" style="font-family: sans-serif; font-size: 14px; fill: #000; opacity: 1;">26/04</text><text text-anchor="middle" transform="translate(234,18)" style="font-family: sans-serif; font-size: 14px; fill: #000; opacity: 0;">03/05</text><text text-anchor="middle" transform="translate(265.5,18)" style="font-family: sans-serif; font-size: 14px; fill: #000; opacity: 1;">10/05</text><text text-anchor="middle" transform="translate(297,18)" style="font-family: sans-serif; font-size: 14px; fill: #000; opacity: 0;">17/05</text><text text-anchor="middle" transform="translate(328.5,18)" style="font-family: sans-serif; font-size: 14px; fill: #000; opacity: 1;">24/05</text><text text-anchor="middle" transform="translate(360,18)" style="font-family: sans-serif; font-size: 14px; fill: #000; opacity: 0;">31/05</text><text text-anchor="middle" transform="translate(391.5,18)" style="font-family: sans-serif; font-size: 14px; fill: #000; opacity: 1;">07/06</text><text text-anchor="middle" transform="translate(423,18)" style="font-family: sans-serif; font-size: 14px; fill: #000; opacity: 0;">14/06</text><text text-anchor="middle" transform="translate(454.5,18)" style="font-family: sans-serif; font-size: 14px; fill: #000; opacity: 1;">21/06</text><text text-anchor="middle" transform="translate(486,18)" style="font-family: sans-serif; font-size: 14px; fill: #000; opacity: 0;">28/06</text><text text-anchor="middle" transform="translate(517.5,18)" style="font-family: sans-serif; font-size: 14px; fill: #000; opacity: 1;">05/07</text><text text-anchor="middle" transform="translate(549,18)" style="font-family: sans-serif; font-size: 14px; fill: #000; opacity: 0;">12/07</text><text text-anchor="middle" transform="translate(580.5,18)" style="font-family: sans-serif; font-size: 14px; fill: #000; opacity: 1;">19/07</text></g><g class="mark-rule role-axis-domain" style="pointer-events: none;"><line transform="translate(0,0)" x2="585" y2="0" style="fill: none; stroke: #888; stroke-width: 1; opacity: 1;"></line></g><g class="mark-text role-axis-title" style="pointer-events: none;"><text text-anchor="middle" transform="translate(292.5,36)" style="font-family: sans-serif; font-size: 14px; font-weight: bold; fill: #000; opacity: 1;">Fecha de toma de muestra</text></g></g><path class="foreground" d="" style="pointer-events: none; display: none; fill: none;"></path></g></g><g class="mark-group role-axis"><g transform="translate(0.5,0.5)"><path class="background" d="M0,0h0v0h0Z" style="pointer-events: none; fill: none;"></path><g><g class="mark-rule role-axis-tick" style="pointer-events: none;"><line transform="translate(0,250)" x2="-5" y2="0" style="fill: none; stroke: #888; stroke-width: 1; opacity: 1;"></line><line transform="translate(0,214)" x2="-5" y2="0" style="fill: none; stroke: #888; stroke-width: 1; opacity: 1;"></line><line transform="translate(0,179)" x2="-5" y2="0" style="fill: none; stroke: #888; stroke-width: 1; opacity: 1;"></line><line transform="translate(0,143)" x2="-5" y2="0" style="fill: none; stroke: #888; stroke-width: 1; opacity: 1;"></line><line transform="translate(0,107)" x2="-5" y2="0" style="fill: none; stroke: #888; stroke-width: 1; opacity: 1;"></line><line transform="translate(0,71)" x2="-5" y2="0" style="fill: none; stroke: #888; stroke-width: 1; opacity: 1;"></line><line transform="translate(0,36)" x2="-5" y2="0" style="fill: none; stroke: #888; stroke-width: 1; opacity: 1;"></line><line transform="translate(0,0)" x2="-5" y2="0" style="fill: none; stroke: #888; stroke-width: 1; opacity: 1;"></line></g><g class="mark-text role-axis-label" style="pointer-events: none;"><text text-anchor="end" transform="translate(-7,254)" style="font-family: sans-serif; font-size: 14px; fill: #000; opacity: 1;">0.0</text><text text-anchor="end" transform="translate(-7,218.28571428571428)" style="font-family: sans-serif; font-size: 14px; fill: #000; opacity: 1;">0.2</text><text text-anchor="end" transform="translate(-7,182.57142857142856)" style="font-family: sans-serif; font-size: 14px; fill: #000; opacity: 1;">0.4</text><text text-anchor="end" transform="translate(-7,146.85714285714286)" style="font-family: sans-serif; font-size: 14px; fill: #000; opacity: 1;">0.6</text><text text-anchor="end" transform="translate(-7,111.14285714285712)" style="font-family: sans-serif; font-size: 14px; fill: #000; opacity: 1;">0.8</text><text text-anchor="end" transform="translate(-7,75.42857142857143)" style="font-family: sans-serif; font-size: 14px; fill: #000; opacity: 1;">1.0</text><text text-anchor="end" transform="translate(-7,39.7142857142857)" style="font-family: sans-serif; font-size: 14px; fill: #000; opacity: 1;">1.2</text><text text-anchor="end" transform="translate(-7,4)" style="font-family: sans-serif; font-size: 14px; fill: #000; opacity: 1;">1.4</text></g><g class="mark-rule role-axis-domain" style="pointer-events: none;"><line transform="translate(0,250)" x2="0" y2="-250" style="fill: none; stroke: #888; stroke-width: 1; opacity: 1;"></line></g><g class="mark-text role-axis-title" style="pointer-events: none;"><text text-anchor="middle" transform="translate(-30.4619140625,125) rotate(-90) translate(0,-3)" style="font-family: sans-serif; font-size: 14px; font-weight: bold; fill: #000; opacity: 1;">Pruebas (por 1K)</text></g></g><path class="foreground" d="" style="pointer-events: none; display: none; fill: none;"></path></g></g><g class="mark-group role-scope layer_0_pathgroup"><g transform="translate(0,0)"><path class="background" d="M0,0h585v250h-585Z" style="fill: none;"></path><g><g class="mark-line role-mark layer_0_marks"><path d="M0,249.94408624352508L4.5,249.91213552553938L9,249.8721971280573L13.5,249.84024641007164L18,249.54470226870419L22.5,249.04147846042986L27,248.6181314471197L31.5,247.97911708740628L36,247.19632449675734L40.5,246.6451746115045L45,246.405544226612L49.5,245.78250522589138L54,244.60831633991796L58.5,243.1625463510663L63,240.7742301816374L67.5,237.93061628091266L72,236.51679701004667L76.5,236.10942535572937L81,231.724189312196L85.5,228.0977828208223L90,222.29073982692654L94.5,218.44866598914956L99,214.5666537538905L103.5,214.32702336899794L108,214.13531906108395L112.5,213.104908406046L117,210.90829654453114L121.5,211.6112123402159L126,211.18786532690575L130.5,217.37831693662957L135,217.7457501934648L139.5,217.5220951675651L144,217.05880975677286L148.5,216.41979539705943L153,215.12579131863973L157.5,214.41488784345856L162,207.2179886171861L166.5,205.46868680747056L171,205.10125355063536L175.5,203.1362843945166L180,202.6889743427172L184.5,202.53720843228524L189,200.4923624812023L193.5,200.0450524294029L198,199.3421366337181L202.5,199.6057300570999L207,196.23492930961157L211.5,188.75846130096446L216,182.01685980598782L220.5,177.38400569806547L225,167.7668395843784L229.5,164.38805115739365L234,164.09250701602625L238.5,155.64952978831255L243,146.99088521419563L247.5,135.5685035343181L252,119.34552647709351L256.5,98.98493144072445L261,95.47834014179705L265.5,94.23226214035584L270,85.82123563062785L274.5,79.16749861011179L279,74.13526052736857L283.5,73.77581495002974L288,84.14382293638012L292.5,84.92661552702907L297,86.18068120796669L301.49999999999994,92.49094801013675L306,98.60951050439282L310.5,101.30934617418205L315,110.28749792815567L319.49999999999994,105.86232348714023L324,106.33359657742886L328.5,106.28567050045035L333,117.14891461557858L337.49999999999994,110.47920223606972L342,108.88166633678614L346.5,97.51519841338354L351,94.28817589683078L355.49999999999994,90.24641007164333L360,89.60739571192991L364.5,66.77860771116772L369,61.03546615324335L373.5,50.55563065394314L378,40.31542553953546L382.5,34.093023211825944L387,34.72404989204298L391.5,34.604234699596724L396,28.50164756433349L400.5,26.34497410030068L405,32.20793085067136L409.5,36.2017705988803L414,43.35074374817427L418.5,42.55996347802887L423,42.144604144215116L427.5,48.087437689549986L432,55.18049708236908L436.5,56.73809458417053L441,54.04624659387772L445.5,47.847807304657486L450,47.48037404782227L454.5,48.04749929206792L459,47.80786890717537L463.5,49.22168817804135L468,50.79526103883566L472.5,61.73039426943166L477,72.51376158959577L481.5,75.74078410614857L486,75.7966978626235L490.5,74.34294019427543L495,73.18472666729487L499.5,71.85078419139307L504,67.88889516116983L508.5,67.1700040064922L513,75.940476093559L517.5,75.58901819571662L522,69.41454194498561L526.5,60.620106819429616L531,57.31320750791258L535.5,65.24497324785555L540,74.20714964283631L544.5,70.91622569031219L549,72.24218048671754L553.5,112.38825763571356" style="fill: none; stroke: #4c78a8; stroke-width: 2; stroke-dasharray: 4,2;"></path></g></g><path class="foreground" d="" style="display: none; fill: none;"></path></g><g transform="translate(0,0)"><path class="background" d="M0,0h585v250h-585Z" style="fill: none;"></path><g><g class="mark-line role-mark layer_0_marks"><path d="M0,249.94408624352508L4.5,249.91213552553938L9,249.8721971280573L13.5,249.84024641007164L18,249.54470226870419L22.5,249.04147846042986L27,248.6181314471197L31.5,247.97911708740628L36,247.19632449675734L40.5,246.6451746115045L45,246.405544226612L49.5,245.78250522589138L54,244.60831633991796L58.5,243.1625463510663L63,240.7742301816374L67.5,237.93061628091266L72,236.51679701004667L76.5,236.10942535572937L81,231.724189312196L85.5,228.0977828208223L90,222.29073982692654L94.5,218.44866598914956L99,214.5666537538905L103.5,214.32702336899794L108,214.13531906108395L112.5,213.104908406046L117,210.90829654453114L121.5,211.6112123402159L126,211.18786532690575L130.5,217.37831693662957L135,217.7457501934648L139.5,217.5220951675651L144,217.05880975677286L148.5,216.41979539705943L153,215.12579131863973L157.5,214.40690016396212L162,207.21000093768964L166.5,205.46069912797415L171,205.09326587113895L175.5,203.12829671502013L180,202.68098666322075L184.5,202.5292207527888L189,200.4923624812023L193.5,200.0450524294029L198,199.3421366337181L202.5,199.6057300570999L207,196.23492930961157L211.5,188.75846130096446L216,182.01685980598782L220.5,177.38400569806547L225,167.7668395843784L229.5,164.38805115739365L234,164.09250701602625L238.5,155.64952978831255L243,146.99088521419563L247.5,135.55252817532528L252,119.32955111810067L256.5,98.96895608173159L261,95.4623647828042L265.5,94.21628678136298L270,85.80526027163503L274.5,79.15152325111896L279,74.12727284787212L283.5,73.76782727053336L288,84.13583525688367L292.5,84.91862784753262L297,86.17269352847023L301.49999999999994,92.47497265114393L306,98.59353514539998L310.5,101.30135849468563L315,110.27951024865928L319.49999999999994,105.85433580764378L324,106.31762121843602L328.5,106.26969514145753L333,117.14092693608217L337.49999999999994,110.46322687707688L342,108.8656909777933L346.5,97.49922305439071L351,94.27220053783792L355.49999999999994,90.23842239214692L360,89.59940803243349L364.5,66.77062003167134L369,61.03546615324335L373.5,50.55563065394314L378,40.31542553953546L382.5,34.085035532329556L387,34.71606221254658L391.5,34.58825934060389L396,28.485672205340624L400.5,26.328998741307867L405,32.1919554916785L409.5,36.18579523988743L414,43.34275606867782L418.5,42.55197579853245L423,42.144604144215116L427.5,48.087437689549986L432,55.18049708236908L436.5,56.73809458417053L441,54.04624659387772L445.5,47.83981962516107L450,47.47238636832582L454.5,48.03951161257153L459,47.79988122767897L463.5,49.21370049854495L468,50.77928567984286L472.5,61.62655443597823L477,72.40992175614231L481.5,75.62895659319871L486,75.68487034967364L490.5,74.21513732233277L495,72.78534269247395L499.5,70.68458298491603L504,64.26248866979614L508.5,58.44745799640394L513,67.22591776296713L517.5,66.83452146764266L522,59.64560992086662L526.5,50.26008651257566L531,44.68468622407601L535.5,37.90314633161726L540,25.650045984112303L544.5,10.449491902429193L549,8.013249656021737L553.5,3.212654278674676L558,12.8457957513545L562.5,18.061750462515402L567,36.01006629096626L571.5,66.77062003167134L576,82.53031167810369L580.5,85.14228287343234L585,129.1384215397018" style="fill: none; stroke: #4c78a8; stroke-width: 2; stroke-dasharray: 1,0;"></path></g></g><path class="foreground" d="" style="display: none; fill: none;"></path></g></g><g class="mark-symbol role-mark layer_1_marks"><path transform="translate(0,249.94408624352508)" d="M2.7386127875258306,0A2.7386127875258306,2.7386127875258306,0,1,1,-2.7386127875258306,0A2.7386127875258306,2.7386127875258306,0,1,1,2.7386127875258306,0" style="fill: #4c78a8; stroke-width: 2; stroke-dasharray: 4,2; opacity: 0;"></path><path transform="translate(4.5,249.91213552553938)" d="M2.7386127875258306,0A2.7386127875258306,2.7386127875258306,0,1,1,-2.7386127875258306,0A2.7386127875258306,2.7386127875258306,0,1,1,2.7386127875258306,0" style="fill: #4c78a8; stroke-width: 2; stroke-dasharray: 4,2; opacity: 0;"></path><path transform="translate(9,249.8721971280573)" d="M2.7386127875258306,0A2.7386127875258306,2.7386127875258306,0,1,1,-2.7386127875258306,0A2.7386127875258306,2.7386127875258306,0,1,1,2.7386127875258306,0" style="fill: #4c78a8; stroke-width: 2; stroke-dasharray: 4,2; opacity: 0;"></path><path transform="translate(13.5,249.84024641007164)" d="M2.7386127875258306,0A2.7386127875258306,2.7386127875258306,0,1,1,-2.7386127875258306,0A2.7386127875258306,2.7386127875258306,0,1,1,2.7386127875258306,0" style="fill: #4c78a8; stroke-width: 2; stroke-dasharray: 4,2; opacity: 0;"></path><path transform="translate(18,249.54470226870419)" d="M2.7386127875258306,0A2.7386127875258306,2.7386127875258306,0,1,1,-2.7386127875258306,0A2.7386127875258306,2.7386127875258306,0,1,1,2.7386127875258306,0" style="fill: #4c78a8; stroke-width: 2; stroke-dasharray: 4,2; opacity: 0;"></path><path transform="translate(22.5,249.04147846042986)" d="M2.7386127875258306,0A2.7386127875258306,2.7386127875258306,0,1,1,-2.7386127875258306,0A2.7386127875258306,2.7386127875258306,0,1,1,2.7386127875258306,0" style="fill: #4c78a8; stroke-width: 2; stroke-dasharray: 4,2; opacity: 0;"></path><path transform="translate(27,248.6181314471197)" d="M2.7386127875258306,0A2.7386127875258306,2.7386127875258306,0,1,1,-2.7386127875258306,0A2.7386127875258306,2.7386127875258306,0,1,1,2.7386127875258306,0" style="fill: #4c78a8; stroke-width: 2; stroke-dasharray: 4,2; opacity: 0;"></path><path transform="translate(31.5,247.97911708740628)" d="M2.7386127875258306,0A2.7386127875258306,2.7386127875258306,0,1,1,-2.7386127875258306,0A2.7386127875258306,2.7386127875258306,0,1,1,2.7386127875258306,0" style="fill: #4c78a8; stroke-width: 2; stroke-dasharray: 4,2; opacity: 0;"></path><path transform="translate(36,247.19632449675734)" d="M2.7386127875258306,0A2.7386127875258306,2.7386127875258306,0,1,1,-2.7386127875258306,0A2.7386127875258306,2.7386127875258306,0,1,1,2.7386127875258306,0" style="fill: #4c78a8; stroke-width: 2; stroke-dasharray: 4,2; opacity: 0;"></path><path transform="translate(40.5,246.6451746115045)" d="M2.7386127875258306,0A2.7386127875258306,2.7386127875258306,0,1,1,-2.7386127875258306,0A2.7386127875258306,2.7386127875258306,0,1,1,2.7386127875258306,0" style="fill: #4c78a8; stroke-width: 2; stroke-dasharray: 4,2; opacity: 0;"></path><path transform="translate(45,246.405544226612)" d="M2.7386127875258306,0A2.7386127875258306,2.7386127875258306,0,1,1,-2.7386127875258306,0A2.7386127875258306,2.7386127875258306,0,1,1,2.7386127875258306,0" style="fill: #4c78a8; stroke-width: 2; stroke-dasharray: 4,2; opacity: 0;"></path><path transform="translate(49.5,245.78250522589138)" d="M2.7386127875258306,0A2.7386127875258306,2.7386127875258306,0,1,1,-2.7386127875258306,0A2.7386127875258306,2.7386127875258306,0,1,1,2.7386127875258306,0" style="fill: #4c78a8; stroke-width: 2; stroke-dasharray: 4,2; opacity: 0;"></path><path transform="translate(54,244.60831633991796)" d="M2.7386127875258306,0A2.7386127875258306,2.7386127875258306,0,1,1,-2.7386127875258306,0A2.7386127875258306,2.7386127875258306,0,1,1,2.7386127875258306,0" style="fill: #4c78a8; stroke-width: 2; stroke-dasharray: 4,2; opacity: 0;"></path><path transform="translate(58.5,243.1625463510663)" d="M2.7386127875258306,0A2.7386127875258306,2.7386127875258306,0,1,1,-2.7386127875258306,0A2.7386127875258306,2.7386127875258306,0,1,1,2.7386127875258306,0" style="fill: #4c78a8; stroke-width: 2; stroke-dasharray: 4,2; opacity: 0;"></path><path transform="translate(63,240.7742301816374)" d="M2.7386127875258306,0A2.7386127875258306,2.7386127875258306,0,1,1,-2.7386127875258306,0A2.7386127875258306,2.7386127875258306,0,1,1,2.7386127875258306,0" style="fill: #4c78a8; stroke-width: 2; stroke-dasharray: 4,2; opacity: 0;"></path><path transform="translate(67.5,237.93061628091266)" d="M2.7386127875258306,0A2.7386127875258306,2.7386127875258306,0,1,1,-2.7386127875258306,0A2.7386127875258306,2.7386127875258306,0,1,1,2.7386127875258306,0" style="fill: #4c78a8; stroke-width: 2; stroke-dasharray: 4,2; opacity: 0;"></path><path transform="translate(72,236.51679701004667)" d="M2.7386127875258306,0A2.7386127875258306,2.7386127875258306,0,1,1,-2.7386127875258306,0A2.7386127875258306,2.7386127875258306,0,1,1,2.7386127875258306,0" style="fill: #4c78a8; stroke-width: 2; stroke-dasharray: 4,2; opacity: 0;"></path><path transform="translate(76.5,236.10942535572937)" d="M2.7386127875258306,0A2.7386127875258306,2.7386127875258306,0,1,1,-2.7386127875258306,0A2.7386127875258306,2.7386127875258306,0,1,1,2.7386127875258306,0" style="fill: #4c78a8; stroke-width: 2; stroke-dasharray: 4,2; opacity: 0;"></path><path transform="translate(81,231.724189312196)" d="M2.7386127875258306,0A2.7386127875258306,2.7386127875258306,0,1,1,-2.7386127875258306,0A2.7386127875258306,2.7386127875258306,0,1,1,2.7386127875258306,0" style="fill: #4c78a8; stroke-width: 2; stroke-dasharray: 4,2; opacity: 0;"></path><path transform="translate(85.5,228.0977828208223)" d="M2.7386127875258306,0A2.7386127875258306,2.7386127875258306,0,1,1,-2.7386127875258306,0A2.7386127875258306,2.7386127875258306,0,1,1,2.7386127875258306,0" style="fill: #4c78a8; stroke-width: 2; stroke-dasharray: 4,2; opacity: 0;"></path><path transform="translate(90,222.29073982692654)" d="M2.7386127875258306,0A2.7386127875258306,2.7386127875258306,0,1,1,-2.7386127875258306,0A2.7386127875258306,2.7386127875258306,0,1,1,2.7386127875258306,0" style="fill: #4c78a8; stroke-width: 2; stroke-dasharray: 4,2; opacity: 0;"></path><path transform="translate(94.5,218.44866598914956)" d="M2.7386127875258306,0A2.7386127875258306,2.7386127875258306,0,1,1,-2.7386127875258306,0A2.7386127875258306,2.7386127875258306,0,1,1,2.7386127875258306,0" style="fill: #4c78a8; stroke-width: 2; stroke-dasharray: 4,2; opacity: 0;"></path><path transform="translate(99,214.5666537538905)" d="M2.7386127875258306,0A2.7386127875258306,2.7386127875258306,0,1,1,-2.7386127875258306,0A2.7386127875258306,2.7386127875258306,0,1,1,2.7386127875258306,0" style="fill: #4c78a8; stroke-width: 2; stroke-dasharray: 4,2; opacity: 0;"></path><path transform="translate(103.5,214.32702336899794)" d="M2.7386127875258306,0A2.7386127875258306,2.7386127875258306,0,1,1,-2.7386127875258306,0A2.7386127875258306,2.7386127875258306,0,1,1,2.7386127875258306,0" style="fill: #4c78a8; stroke-width: 2; stroke-dasharray: 4,2; opacity: 0;"></path><path transform="translate(108,214.13531906108395)" d="M2.7386127875258306,0A2.7386127875258306,2.7386127875258306,0,1,1,-2.7386127875258306,0A2.7386127875258306,2.7386127875258306,0,1,1,2.7386127875258306,0" style="fill: #4c78a8; stroke-width: 2; stroke-dasharray: 4,2; opacity: 0;"></path><path transform="translate(112.5,213.104908406046)" d="M2.7386127875258306,0A2.7386127875258306,2.7386127875258306,0,1,1,-2.7386127875258306,0A2.7386127875258306,2.7386127875258306,0,1,1,2.7386127875258306,0" style="fill: #4c78a8; stroke-width: 2; stroke-dasharray: 4,2; opacity: 0;"></path><path transform="translate(117,210.90829654453114)" d="M2.7386127875258306,0A2.7386127875258306,2.7386127875258306,0,1,1,-2.7386127875258306,0A2.7386127875258306,2.7386127875258306,0,1,1,2.7386127875258306,0" style="fill: #4c78a8; stroke-width: 2; stroke-dasharray: 4,2; opacity: 0;"></path><path transform="translate(121.5,211.6112123402159)" d="M2.7386127875258306,0A2.7386127875258306,2.7386127875258306,0,1,1,-2.7386127875258306,0A2.7386127875258306,2.7386127875258306,0,1,1,2.7386127875258306,0" style="fill: #4c78a8; stroke-width: 2; stroke-dasharray: 4,2; opacity: 0;"></path><path transform="translate(126,211.18786532690575)" d="M2.7386127875258306,0A2.7386127875258306,2.7386127875258306,0,1,1,-2.7386127875258306,0A2.7386127875258306,2.7386127875258306,0,1,1,2.7386127875258306,0" style="fill: #4c78a8; stroke-width: 2; stroke-dasharray: 4,2; opacity: 0;"></path><path transform="translate(130.5,217.37831693662957)" d="M2.7386127875258306,0A2.7386127875258306,2.7386127875258306,0,1,1,-2.7386127875258306,0A2.7386127875258306,2.7386127875258306,0,1,1,2.7386127875258306,0" style="fill: #4c78a8; stroke-width: 2; stroke-dasharray: 4,2; opacity: 0;"></path><path transform="translate(135,217.7457501934648)" d="M2.7386127875258306,0A2.7386127875258306,2.7386127875258306,0,1,1,-2.7386127875258306,0A2.7386127875258306,2.7386127875258306,0,1,1,2.7386127875258306,0" style="fill: #4c78a8; stroke-width: 2; stroke-dasharray: 4,2; opacity: 0;"></path><path transform="translate(139.5,217.5220951675651)" d="M2.7386127875258306,0A2.7386127875258306,2.7386127875258306,0,1,1,-2.7386127875258306,0A2.7386127875258306,2.7386127875258306,0,1,1,2.7386127875258306,0" style="fill: #4c78a8; stroke-width: 2; stroke-dasharray: 4,2; opacity: 0;"></path><path transform="translate(144,217.05880975677286)" d="M2.7386127875258306,0A2.7386127875258306,2.7386127875258306,0,1,1,-2.7386127875258306,0A2.7386127875258306,2.7386127875258306,0,1,1,2.7386127875258306,0" style="fill: #4c78a8; stroke-width: 2; stroke-dasharray: 4,2; opacity: 0;"></path><path transform="translate(148.5,216.41979539705943)" d="M2.7386127875258306,0A2.7386127875258306,2.7386127875258306,0,1,1,-2.7386127875258306,0A2.7386127875258306,2.7386127875258306,0,1,1,2.7386127875258306,0" style="fill: #4c78a8; stroke-width: 2; stroke-dasharray: 4,2; opacity: 0;"></path><path transform="translate(153,215.12579131863973)" d="M2.7386127875258306,0A2.7386127875258306,2.7386127875258306,0,1,1,-2.7386127875258306,0A2.7386127875258306,2.7386127875258306,0,1,1,2.7386127875258306,0" style="fill: #4c78a8; stroke-width: 2; stroke-dasharray: 4,2; opacity: 0;"></path><path transform="translate(157.5,214.41488784345856)" d="M2.7386127875258306,0A2.7386127875258306,2.7386127875258306,0,1,1,-2.7386127875258306,0A2.7386127875258306,2.7386127875258306,0,1,1,2.7386127875258306,0" style="fill: #4c78a8; stroke-width: 2; stroke-dasharray: 4,2; opacity: 0;"></path><path transform="translate(162,207.2179886171861)" d="M2.7386127875258306,0A2.7386127875258306,2.7386127875258306,0,1,1,-2.7386127875258306,0A2.7386127875258306,2.7386127875258306,0,1,1,2.7386127875258306,0" style="fill: #4c78a8; stroke-width: 2; stroke-dasharray: 4,2; opacity: 0;"></path><path transform="translate(166.5,205.46868680747056)" d="M2.7386127875258306,0A2.7386127875258306,2.7386127875258306,0,1,1,-2.7386127875258306,0A2.7386127875258306,2.7386127875258306,0,1,1,2.7386127875258306,0" style="fill: #4c78a8; stroke-width: 2; stroke-dasharray: 4,2; opacity: 0;"></path><path transform="translate(171,205.10125355063536)" d="M2.7386127875258306,0A2.7386127875258306,2.7386127875258306,0,1,1,-2.7386127875258306,0A2.7386127875258306,2.7386127875258306,0,1,1,2.7386127875258306,0" style="fill: #4c78a8; stroke-width: 2; stroke-dasharray: 4,2; opacity: 0;"></path><path transform="translate(175.5,203.1362843945166)" d="M2.7386127875258306,0A2.7386127875258306,2.7386127875258306,0,1,1,-2.7386127875258306,0A2.7386127875258306,2.7386127875258306,0,1,1,2.7386127875258306,0" style="fill: #4c78a8; stroke-width: 2; stroke-dasharray: 4,2; opacity: 0;"></path><path transform="translate(180,202.6889743427172)" d="M2.7386127875258306,0A2.7386127875258306,2.7386127875258306,0,1,1,-2.7386127875258306,0A2.7386127875258306,2.7386127875258306,0,1,1,2.7386127875258306,0" style="fill: #4c78a8; stroke-width: 2; stroke-dasharray: 4,2; opacity: 0;"></path><path transform="translate(184.5,202.53720843228524)" d="M2.7386127875258306,0A2.7386127875258306,2.7386127875258306,0,1,1,-2.7386127875258306,0A2.7386127875258306,2.7386127875258306,0,1,1,2.7386127875258306,0" style="fill: #4c78a8; stroke-width: 2; stroke-dasharray: 4,2; opacity: 0;"></path><path transform="translate(189,200.4923624812023)" d="M2.7386127875258306,0A2.7386127875258306,2.7386127875258306,0,1,1,-2.7386127875258306,0A2.7386127875258306,2.7386127875258306,0,1,1,2.7386127875258306,0" style="fill: #4c78a8; stroke-width: 2; stroke-dasharray: 4,2; opacity: 0;"></path><path transform="translate(193.5,200.0450524294029)" d="M2.7386127875258306,0A2.7386127875258306,2.7386127875258306,0,1,1,-2.7386127875258306,0A2.7386127875258306,2.7386127875258306,0,1,1,2.7386127875258306,0" style="fill: #4c78a8; stroke-width: 2; stroke-dasharray: 4,2; opacity: 0;"></path><path transform="translate(198,199.3421366337181)" d="M2.7386127875258306,0A2.7386127875258306,2.7386127875258306,0,1,1,-2.7386127875258306,0A2.7386127875258306,2.7386127875258306,0,1,1,2.7386127875258306,0" style="fill: #4c78a8; stroke-width: 2; stroke-dasharray: 4,2; opacity: 0;"></path><path transform="translate(202.5,199.6057300570999)" d="M2.7386127875258306,0A2.7386127875258306,2.7386127875258306,0,1,1,-2.7386127875258306,0A2.7386127875258306,2.7386127875258306,0,1,1,2.7386127875258306,0" style="fill: #4c78a8; stroke-width: 2; stroke-dasharray: 4,2; opacity: 0;"></path><path transform="translate(207,196.23492930961157)" d="M2.7386127875258306,0A2.7386127875258306,2.7386127875258306,0,1,1,-2.7386127875258306,0A2.7386127875258306,2.7386127875258306,0,1,1,2.7386127875258306,0" style="fill: #4c78a8; stroke-width: 2; stroke-dasharray: 4,2; opacity: 0;"></path><path transform="translate(211.5,188.75846130096446)" d="M2.7386127875258306,0A2.7386127875258306,2.7386127875258306,0,1,1,-2.7386127875258306,0A2.7386127875258306,2.7386127875258306,0,1,1,2.7386127875258306,0" style="fill: #4c78a8; stroke-width: 2; stroke-dasharray: 4,2; opacity: 0;"></path><path transform="translate(216,182.01685980598782)" d="M2.7386127875258306,0A2.7386127875258306,2.7386127875258306,0,1,1,-2.7386127875258306,0A2.7386127875258306,2.7386127875258306,0,1,1,2.7386127875258306,0" style="fill: #4c78a8; stroke-width: 2; stroke-dasharray: 4,2; opacity: 0;"></path><path transform="translate(220.5,177.38400569806547)" d="M2.7386127875258306,0A2.7386127875258306,2.7386127875258306,0,1,1,-2.7386127875258306,0A2.7386127875258306,2.7386127875258306,0,1,1,2.7386127875258306,0" style="fill: #4c78a8; stroke-width: 2; stroke-dasharray: 4,2; opacity: 0;"></path><path transform="translate(225,167.7668395843784)" d="M2.7386127875258306,0A2.7386127875258306,2.7386127875258306,0,1,1,-2.7386127875258306,0A2.7386127875258306,2.7386127875258306,0,1,1,2.7386127875258306,0" style="fill: #4c78a8; stroke-width: 2; stroke-dasharray: 4,2; opacity: 0;"></path><path transform="translate(229.5,164.38805115739365)" d="M2.7386127875258306,0A2.7386127875258306,2.7386127875258306,0,1,1,-2.7386127875258306,0A2.7386127875258306,2.7386127875258306,0,1,1,2.7386127875258306,0" style="fill: #4c78a8; stroke-width: 2; stroke-dasharray: 4,2; opacity: 0;"></path><path transform="translate(234,164.09250701602625)" d="M2.7386127875258306,0A2.7386127875258306,2.7386127875258306,0,1,1,-2.7386127875258306,0A2.7386127875258306,2.7386127875258306,0,1,1,2.7386127875258306,0" style="fill: #4c78a8; stroke-width: 2; stroke-dasharray: 4,2; opacity: 0;"></path><path transform="translate(238.5,155.64952978831255)" d="M2.7386127875258306,0A2.7386127875258306,2.7386127875258306,0,1,1,-2.7386127875258306,0A2.7386127875258306,2.7386127875258306,0,1,1,2.7386127875258306,0" style="fill: #4c78a8; stroke-width: 2; stroke-dasharray: 4,2; opacity: 0;"></path><path transform="translate(243,146.99088521419563)" d="M2.7386127875258306,0A2.7386127875258306,2.7386127875258306,0,1,1,-2.7386127875258306,0A2.7386127875258306,2.7386127875258306,0,1,1,2.7386127875258306,0" style="fill: #4c78a8; stroke-width: 2; stroke-dasharray: 4,2; opacity: 0;"></path><path transform="translate(247.5,135.5685035343181)" d="M2.7386127875258306,0A2.7386127875258306,2.7386127875258306,0,1,1,-2.7386127875258306,0A2.7386127875258306,2.7386127875258306,0,1,1,2.7386127875258306,0" style="fill: #4c78a8; stroke-width: 2; stroke-dasharray: 4,2; opacity: 0;"></path><path transform="translate(252,119.34552647709351)" d="M2.7386127875258306,0A2.7386127875258306,2.7386127875258306,0,1,1,-2.7386127875258306,0A2.7386127875258306,2.7386127875258306,0,1,1,2.7386127875258306,0" style="fill: #4c78a8; stroke-width: 2; stroke-dasharray: 4,2; opacity: 0;"></path><path transform="translate(256.5,98.98493144072445)" d="M2.7386127875258306,0A2.7386127875258306,2.7386127875258306,0,1,1,-2.7386127875258306,0A2.7386127875258306,2.7386127875258306,0,1,1,2.7386127875258306,0" style="fill: #4c78a8; stroke-width: 2; stroke-dasharray: 4,2; opacity: 0;"></path><path transform="translate(261,95.47834014179705)" d="M2.7386127875258306,0A2.7386127875258306,2.7386127875258306,0,1,1,-2.7386127875258306,0A2.7386127875258306,2.7386127875258306,0,1,1,2.7386127875258306,0" style="fill: #4c78a8; stroke-width: 2; stroke-dasharray: 4,2; opacity: 0;"></path><path transform="translate(265.5,94.23226214035584)" d="M2.7386127875258306,0A2.7386127875258306,2.7386127875258306,0,1,1,-2.7386127875258306,0A2.7386127875258306,2.7386127875258306,0,1,1,2.7386127875258306,0" style="fill: #4c78a8; stroke-width: 2; stroke-dasharray: 4,2; opacity: 0;"></path><path transform="translate(270,85.82123563062785)" d="M2.7386127875258306,0A2.7386127875258306,2.7386127875258306,0,1,1,-2.7386127875258306,0A2.7386127875258306,2.7386127875258306,0,1,1,2.7386127875258306,0" style="fill: #4c78a8; stroke-width: 2; stroke-dasharray: 4,2; opacity: 0;"></path><path transform="translate(274.5,79.16749861011179)" d="M2.7386127875258306,0A2.7386127875258306,2.7386127875258306,0,1,1,-2.7386127875258306,0A2.7386127875258306,2.7386127875258306,0,1,1,2.7386127875258306,0" style="fill: #4c78a8; stroke-width: 2; stroke-dasharray: 4,2; opacity: 0;"></path><path transform="translate(279,74.13526052736857)" d="M2.7386127875258306,0A2.7386127875258306,2.7386127875258306,0,1,1,-2.7386127875258306,0A2.7386127875258306,2.7386127875258306,0,1,1,2.7386127875258306,0" style="fill: #4c78a8; stroke-width: 2; stroke-dasharray: 4,2; opacity: 0;"></path><path transform="translate(283.5,73.77581495002974)" d="M2.7386127875258306,0A2.7386127875258306,2.7386127875258306,0,1,1,-2.7386127875258306,0A2.7386127875258306,2.7386127875258306,0,1,1,2.7386127875258306,0" style="fill: #4c78a8; stroke-width: 2; stroke-dasharray: 4,2; opacity: 0;"></path><path transform="translate(288,84.14382293638012)" d="M2.7386127875258306,0A2.7386127875258306,2.7386127875258306,0,1,1,-2.7386127875258306,0A2.7386127875258306,2.7386127875258306,0,1,1,2.7386127875258306,0" style="fill: #4c78a8; stroke-width: 2; stroke-dasharray: 4,2; opacity: 0;"></path><path transform="translate(292.5,84.92661552702907)" d="M2.7386127875258306,0A2.7386127875258306,2.7386127875258306,0,1,1,-2.7386127875258306,0A2.7386127875258306,2.7386127875258306,0,1,1,2.7386127875258306,0" style="fill: #4c78a8; stroke-width: 2; stroke-dasharray: 4,2; opacity: 0;"></path><path transform="translate(297,86.18068120796669)" d="M2.7386127875258306,0A2.7386127875258306,2.7386127875258306,0,1,1,-2.7386127875258306,0A2.7386127875258306,2.7386127875258306,0,1,1,2.7386127875258306,0" style="fill: #4c78a8; stroke-width: 2; stroke-dasharray: 4,2; opacity: 0;"></path><path transform="translate(301.49999999999994,92.49094801013675)" d="M2.7386127875258306,0A2.7386127875258306,2.7386127875258306,0,1,1,-2.7386127875258306,0A2.7386127875258306,2.7386127875258306,0,1,1,2.7386127875258306,0" style="fill: #4c78a8; stroke-width: 2; stroke-dasharray: 4,2; opacity: 0;"></path><path transform="translate(306,98.60951050439282)" d="M2.7386127875258306,0A2.7386127875258306,2.7386127875258306,0,1,1,-2.7386127875258306,0A2.7386127875258306,2.7386127875258306,0,1,1,2.7386127875258306,0" style="fill: #4c78a8; stroke-width: 2; stroke-dasharray: 4,2; opacity: 0;"></path><path transform="translate(310.5,101.30934617418205)" d="M2.7386127875258306,0A2.7386127875258306,2.7386127875258306,0,1,1,-2.7386127875258306,0A2.7386127875258306,2.7386127875258306,0,1,1,2.7386127875258306,0" style="fill: #4c78a8; stroke-width: 2; stroke-dasharray: 4,2; opacity: 0;"></path><path transform="translate(315,110.28749792815567)" d="M2.7386127875258306,0A2.7386127875258306,2.7386127875258306,0,1,1,-2.7386127875258306,0A2.7386127875258306,2.7386127875258306,0,1,1,2.7386127875258306,0" style="fill: #4c78a8; stroke-width: 2; stroke-dasharray: 4,2; opacity: 0;"></path><path transform="translate(319.49999999999994,105.86232348714023)" d="M2.7386127875258306,0A2.7386127875258306,2.7386127875258306,0,1,1,-2.7386127875258306,0A2.7386127875258306,2.7386127875258306,0,1,1,2.7386127875258306,0" style="fill: #4c78a8; stroke-width: 2; stroke-dasharray: 4,2; opacity: 0;"></path><path transform="translate(324,106.33359657742886)" d="M2.7386127875258306,0A2.7386127875258306,2.7386127875258306,0,1,1,-2.7386127875258306,0A2.7386127875258306,2.7386127875258306,0,1,1,2.7386127875258306,0" style="fill: #4c78a8; stroke-width: 2; stroke-dasharray: 4,2; opacity: 0;"></path><path transform="translate(328.5,106.28567050045035)" d="M2.7386127875258306,0A2.7386127875258306,2.7386127875258306,0,1,1,-2.7386127875258306,0A2.7386127875258306,2.7386127875258306,0,1,1,2.7386127875258306,0" style="fill: #4c78a8; stroke-width: 2; stroke-dasharray: 4,2; opacity: 0;"></path><path transform="translate(333,117.14891461557858)" d="M2.7386127875258306,0A2.7386127875258306,2.7386127875258306,0,1,1,-2.7386127875258306,0A2.7386127875258306,2.7386127875258306,0,1,1,2.7386127875258306,0" style="fill: #4c78a8; stroke-width: 2; stroke-dasharray: 4,2; opacity: 0;"></path><path transform="translate(337.49999999999994,110.47920223606972)" d="M2.7386127875258306,0A2.7386127875258306,2.7386127875258306,0,1,1,-2.7386127875258306,0A2.7386127875258306,2.7386127875258306,0,1,1,2.7386127875258306,0" style="fill: #4c78a8; stroke-width: 2; stroke-dasharray: 4,2; opacity: 0;"></path><path transform="translate(342,108.88166633678614)" d="M2.7386127875258306,0A2.7386127875258306,2.7386127875258306,0,1,1,-2.7386127875258306,0A2.7386127875258306,2.7386127875258306,0,1,1,2.7386127875258306,0" style="fill: #4c78a8; stroke-width: 2; stroke-dasharray: 4,2; opacity: 0;"></path><path transform="translate(346.5,97.51519841338354)" d="M2.7386127875258306,0A2.7386127875258306,2.7386127875258306,0,1,1,-2.7386127875258306,0A2.7386127875258306,2.7386127875258306,0,1,1,2.7386127875258306,0" style="fill: #4c78a8; stroke-width: 2; stroke-dasharray: 4,2; opacity: 0;"></path><path transform="translate(351,94.28817589683078)" d="M2.7386127875258306,0A2.7386127875258306,2.7386127875258306,0,1,1,-2.7386127875258306,0A2.7386127875258306,2.7386127875258306,0,1,1,2.7386127875258306,0" style="fill: #4c78a8; stroke-width: 2; stroke-dasharray: 4,2; opacity: 0;"></path><path transform="translate(355.49999999999994,90.24641007164333)" d="M2.7386127875258306,0A2.7386127875258306,2.7386127875258306,0,1,1,-2.7386127875258306,0A2.7386127875258306,2.7386127875258306,0,1,1,2.7386127875258306,0" style="fill: #4c78a8; stroke-width: 2; stroke-dasharray: 4,2; opacity: 0;"></path><path transform="translate(360,89.60739571192991)" d="M2.7386127875258306,0A2.7386127875258306,2.7386127875258306,0,1,1,-2.7386127875258306,0A2.7386127875258306,2.7386127875258306,0,1,1,2.7386127875258306,0" style="fill: #4c78a8; stroke-width: 2; stroke-dasharray: 4,2; opacity: 0;"></path><path transform="translate(364.5,66.77860771116772)" d="M2.7386127875258306,0A2.7386127875258306,2.7386127875258306,0,1,1,-2.7386127875258306,0A2.7386127875258306,2.7386127875258306,0,1,1,2.7386127875258306,0" style="fill: #4c78a8; stroke-width: 2; stroke-dasharray: 4,2; opacity: 0;"></path><path transform="translate(369,61.03546615324335)" d="M2.7386127875258306,0A2.7386127875258306,2.7386127875258306,0,1,1,-2.7386127875258306,0A2.7386127875258306,2.7386127875258306,0,1,1,2.7386127875258306,0" style="fill: #4c78a8; stroke-width: 2; stroke-dasharray: 4,2; opacity: 0;"></path><path transform="translate(373.5,50.55563065394314)" d="M2.7386127875258306,0A2.7386127875258306,2.7386127875258306,0,1,1,-2.7386127875258306,0A2.7386127875258306,2.7386127875258306,0,1,1,2.7386127875258306,0" style="fill: #4c78a8; stroke-width: 2; stroke-dasharray: 4,2; opacity: 0;"></path><path transform="translate(378,40.31542553953546)" d="M2.7386127875258306,0A2.7386127875258306,2.7386127875258306,0,1,1,-2.7386127875258306,0A2.7386127875258306,2.7386127875258306,0,1,1,2.7386127875258306,0" style="fill: #4c78a8; stroke-width: 2; stroke-dasharray: 4,2; opacity: 0;"></path><path transform="translate(382.5,34.093023211825944)" d="M2.7386127875258306,0A2.7386127875258306,2.7386127875258306,0,1,1,-2.7386127875258306,0A2.7386127875258306,2.7386127875258306,0,1,1,2.7386127875258306,0" style="fill: #4c78a8; stroke-width: 2; stroke-dasharray: 4,2; opacity: 0;"></path><path transform="translate(387,34.72404989204298)" d="M2.7386127875258306,0A2.7386127875258306,2.7386127875258306,0,1,1,-2.7386127875258306,0A2.7386127875258306,2.7386127875258306,0,1,1,2.7386127875258306,0" style="fill: #4c78a8; stroke-width: 2; stroke-dasharray: 4,2; opacity: 0;"></path><path transform="translate(391.5,34.604234699596724)" d="M2.7386127875258306,0A2.7386127875258306,2.7386127875258306,0,1,1,-2.7386127875258306,0A2.7386127875258306,2.7386127875258306,0,1,1,2.7386127875258306,0" style="fill: #4c78a8; stroke-width: 2; stroke-dasharray: 4,2; opacity: 0;"></path><path transform="translate(396,28.50164756433349)" d="M2.7386127875258306,0A2.7386127875258306,2.7386127875258306,0,1,1,-2.7386127875258306,0A2.7386127875258306,2.7386127875258306,0,1,1,2.7386127875258306,0" style="fill: #4c78a8; stroke-width: 2; stroke-dasharray: 4,2; opacity: 0;"></path><path transform="translate(400.5,26.34497410030068)" d="M2.7386127875258306,0A2.7386127875258306,2.7386127875258306,0,1,1,-2.7386127875258306,0A2.7386127875258306,2.7386127875258306,0,1,1,2.7386127875258306,0" style="fill: #4c78a8; stroke-width: 2; stroke-dasharray: 4,2; opacity: 0;"></path><path transform="translate(405,32.20793085067136)" d="M2.7386127875258306,0A2.7386127875258306,2.7386127875258306,0,1,1,-2.7386127875258306,0A2.7386127875258306,2.7386127875258306,0,1,1,2.7386127875258306,0" style="fill: #4c78a8; stroke-width: 2; stroke-dasharray: 4,2; opacity: 0;"></path><path transform="translate(409.5,36.2017705988803)" d="M2.7386127875258306,0A2.7386127875258306,2.7386127875258306,0,1,1,-2.7386127875258306,0A2.7386127875258306,2.7386127875258306,0,1,1,2.7386127875258306,0" style="fill: #4c78a8; stroke-width: 2; stroke-dasharray: 4,2; opacity: 0;"></path><path transform="translate(414,43.35074374817427)" d="M2.7386127875258306,0A2.7386127875258306,2.7386127875258306,0,1,1,-2.7386127875258306,0A2.7386127875258306,2.7386127875258306,0,1,1,2.7386127875258306,0" style="fill: #4c78a8; stroke-width: 2; stroke-dasharray: 4,2; opacity: 0;"></path><path transform="translate(418.5,42.55996347802887)" d="M2.7386127875258306,0A2.7386127875258306,2.7386127875258306,0,1,1,-2.7386127875258306,0A2.7386127875258306,2.7386127875258306,0,1,1,2.7386127875258306,0" style="fill: #4c78a8; stroke-width: 2; stroke-dasharray: 4,2; opacity: 0;"></path><path transform="translate(423,42.144604144215116)" d="M2.7386127875258306,0A2.7386127875258306,2.7386127875258306,0,1,1,-2.7386127875258306,0A2.7386127875258306,2.7386127875258306,0,1,1,2.7386127875258306,0" style="fill: #4c78a8; stroke-width: 2; stroke-dasharray: 4,2; opacity: 0;"></path><path transform="translate(427.5,48.087437689549986)" d="M2.7386127875258306,0A2.7386127875258306,2.7386127875258306,0,1,1,-2.7386127875258306,0A2.7386127875258306,2.7386127875258306,0,1,1,2.7386127875258306,0" style="fill: #4c78a8; stroke-width: 2; stroke-dasharray: 4,2; opacity: 0;"></path><path transform="translate(432,55.18049708236908)" d="M2.7386127875258306,0A2.7386127875258306,2.7386127875258306,0,1,1,-2.7386127875258306,0A2.7386127875258306,2.7386127875258306,0,1,1,2.7386127875258306,0" style="fill: #4c78a8; stroke-width: 2; stroke-dasharray: 4,2; opacity: 0;"></path><path transform="translate(436.5,56.73809458417053)" d="M2.7386127875258306,0A2.7386127875258306,2.7386127875258306,0,1,1,-2.7386127875258306,0A2.7386127875258306,2.7386127875258306,0,1,1,2.7386127875258306,0" style="fill: #4c78a8; stroke-width: 2; stroke-dasharray: 4,2; opacity: 0;"></path><path transform="translate(441,54.04624659387772)" d="M2.7386127875258306,0A2.7386127875258306,2.7386127875258306,0,1,1,-2.7386127875258306,0A2.7386127875258306,2.7386127875258306,0,1,1,2.7386127875258306,0" style="fill: #4c78a8; stroke-width: 2; stroke-dasharray: 4,2; opacity: 0;"></path><path transform="translate(445.5,47.847807304657486)" d="M2.7386127875258306,0A2.7386127875258306,2.7386127875258306,0,1,1,-2.7386127875258306,0A2.7386127875258306,2.7386127875258306,0,1,1,2.7386127875258306,0" style="fill: #4c78a8; stroke-width: 2; stroke-dasharray: 4,2; opacity: 0;"></path><path transform="translate(450,47.48037404782227)" d="M2.7386127875258306,0A2.7386127875258306,2.7386127875258306,0,1,1,-2.7386127875258306,0A2.7386127875258306,2.7386127875258306,0,1,1,2.7386127875258306,0" style="fill: #4c78a8; stroke-width: 2; stroke-dasharray: 4,2; opacity: 0;"></path><path transform="translate(454.5,48.04749929206792)" d="M2.7386127875258306,0A2.7386127875258306,2.7386127875258306,0,1,1,-2.7386127875258306,0A2.7386127875258306,2.7386127875258306,0,1,1,2.7386127875258306,0" style="fill: #4c78a8; stroke-width: 2; stroke-dasharray: 4,2; opacity: 0;"></path><path transform="translate(459,47.80786890717537)" d="M2.7386127875258306,0A2.7386127875258306,2.7386127875258306,0,1,1,-2.7386127875258306,0A2.7386127875258306,2.7386127875258306,0,1,1,2.7386127875258306,0" style="fill: #4c78a8; stroke-width: 2; stroke-dasharray: 4,2; opacity: 0;"></path><path transform="translate(463.5,49.22168817804135)" d="M2.7386127875258306,0A2.7386127875258306,2.7386127875258306,0,1,1,-2.7386127875258306,0A2.7386127875258306,2.7386127875258306,0,1,1,2.7386127875258306,0" style="fill: #4c78a8; stroke-width: 2; stroke-dasharray: 4,2; opacity: 0;"></path><path transform="translate(468,50.79526103883566)" d="M2.7386127875258306,0A2.7386127875258306,2.7386127875258306,0,1,1,-2.7386127875258306,0A2.7386127875258306,2.7386127875258306,0,1,1,2.7386127875258306,0" style="fill: #4c78a8; stroke-width: 2; stroke-dasharray: 4,2; opacity: 0;"></path><path transform="translate(472.5,61.73039426943166)" d="M2.7386127875258306,0A2.7386127875258306,2.7386127875258306,0,1,1,-2.7386127875258306,0A2.7386127875258306,2.7386127875258306,0,1,1,2.7386127875258306,0" style="fill: #4c78a8; stroke-width: 2; stroke-dasharray: 4,2; opacity: 0;"></path><path transform="translate(477,72.51376158959577)" d="M2.7386127875258306,0A2.7386127875258306,2.7386127875258306,0,1,1,-2.7386127875258306,0A2.7386127875258306,2.7386127875258306,0,1,1,2.7386127875258306,0" style="fill: #4c78a8; stroke-width: 2; stroke-dasharray: 4,2; opacity: 0;"></path><path transform="translate(481.5,75.74078410614857)" d="M2.7386127875258306,0A2.7386127875258306,2.7386127875258306,0,1,1,-2.7386127875258306,0A2.7386127875258306,2.7386127875258306,0,1,1,2.7386127875258306,0" style="fill: #4c78a8; stroke-width: 2; stroke-dasharray: 4,2; opacity: 0;"></path><path transform="translate(486,75.7966978626235)" d="M2.7386127875258306,0A2.7386127875258306,2.7386127875258306,0,1,1,-2.7386127875258306,0A2.7386127875258306,2.7386127875258306,0,1,1,2.7386127875258306,0" style="fill: #4c78a8; stroke-width: 2; stroke-dasharray: 4,2; opacity: 0;"></path><path transform="translate(490.5,74.34294019427543)" d="M2.7386127875258306,0A2.7386127875258306,2.7386127875258306,0,1,1,-2.7386127875258306,0A2.7386127875258306,2.7386127875258306,0,1,1,2.7386127875258306,0" style="fill: #4c78a8; stroke-width: 2; stroke-dasharray: 4,2; opacity: 0;"></path><path transform="translate(495,73.18472666729487)" d="M2.7386127875258306,0A2.7386127875258306,2.7386127875258306,0,1,1,-2.7386127875258306,0A2.7386127875258306,2.7386127875258306,0,1,1,2.7386127875258306,0" style="fill: #4c78a8; stroke-width: 2; stroke-dasharray: 4,2; opacity: 0;"></path><path transform="translate(499.5,71.85078419139307)" d="M2.7386127875258306,0A2.7386127875258306,2.7386127875258306,0,1,1,-2.7386127875258306,0A2.7386127875258306,2.7386127875258306,0,1,1,2.7386127875258306,0" style="fill: #4c78a8; stroke-width: 2; stroke-dasharray: 4,2; opacity: 0;"></path><path transform="translate(504,67.88889516116983)" d="M2.7386127875258306,0A2.7386127875258306,2.7386127875258306,0,1,1,-2.7386127875258306,0A2.7386127875258306,2.7386127875258306,0,1,1,2.7386127875258306,0" style="fill: #4c78a8; stroke-width: 2; stroke-dasharray: 4,2; opacity: 0;"></path><path transform="translate(508.5,67.1700040064922)" d="M2.7386127875258306,0A2.7386127875258306,2.7386127875258306,0,1,1,-2.7386127875258306,0A2.7386127875258306,2.7386127875258306,0,1,1,2.7386127875258306,0" style="fill: #4c78a8; stroke-width: 2; stroke-dasharray: 4,2; opacity: 0;"></path><path transform="translate(513,75.940476093559)" d="M2.7386127875258306,0A2.7386127875258306,2.7386127875258306,0,1,1,-2.7386127875258306,0A2.7386127875258306,2.7386127875258306,0,1,1,2.7386127875258306,0" style="fill: #4c78a8; stroke-width: 2; stroke-dasharray: 4,2; opacity: 0;"></path><path transform="translate(517.5,75.58901819571662)" d="M2.7386127875258306,0A2.7386127875258306,2.7386127875258306,0,1,1,-2.7386127875258306,0A2.7386127875258306,2.7386127875258306,0,1,1,2.7386127875258306,0" style="fill: #4c78a8; stroke-width: 2; stroke-dasharray: 4,2; opacity: 0;"></path><path transform="translate(522,69.41454194498561)" d="M2.7386127875258306,0A2.7386127875258306,2.7386127875258306,0,1,1,-2.7386127875258306,0A2.7386127875258306,2.7386127875258306,0,1,1,2.7386127875258306,0" style="fill: #4c78a8; stroke-width: 2; stroke-dasharray: 4,2; opacity: 0;"></path><path transform="translate(526.5,60.620106819429616)" d="M2.7386127875258306,0A2.7386127875258306,2.7386127875258306,0,1,1,-2.7386127875258306,0A2.7386127875258306,2.7386127875258306,0,1,1,2.7386127875258306,0" style="fill: #4c78a8; stroke-width: 2; stroke-dasharray: 4,2; opacity: 0;"></path><path transform="translate(531,57.31320750791258)" d="M2.7386127875258306,0A2.7386127875258306,2.7386127875258306,0,1,1,-2.7386127875258306,0A2.7386127875258306,2.7386127875258306,0,1,1,2.7386127875258306,0" style="fill: #4c78a8; stroke-width: 2; stroke-dasharray: 4,2; opacity: 0;"></path><path transform="translate(535.5,65.24497324785555)" d="M2.7386127875258306,0A2.7386127875258306,2.7386127875258306,0,1,1,-2.7386127875258306,0A2.7386127875258306,2.7386127875258306,0,1,1,2.7386127875258306,0" style="fill: #4c78a8; stroke-width: 2; stroke-dasharray: 4,2; opacity: 0;"></path><path transform="translate(540,74.20714964283631)" d="M2.7386127875258306,0A2.7386127875258306,2.7386127875258306,0,1,1,-2.7386127875258306,0A2.7386127875258306,2.7386127875258306,0,1,1,2.7386127875258306,0" style="fill: #4c78a8; stroke-width: 2; stroke-dasharray: 4,2; opacity: 0;"></path><path transform="translate(544.5,70.91622569031219)" d="M2.7386127875258306,0A2.7386127875258306,2.7386127875258306,0,1,1,-2.7386127875258306,0A2.7386127875258306,2.7386127875258306,0,1,1,2.7386127875258306,0" style="fill: #4c78a8; stroke-width: 2; stroke-dasharray: 4,2; opacity: 0;"></path><path transform="translate(549,72.24218048671754)" d="M2.7386127875258306,0A2.7386127875258306,2.7386127875258306,0,1,1,-2.7386127875258306,0A2.7386127875258306,2.7386127875258306,0,1,1,2.7386127875258306,0" style="fill: #4c78a8; stroke-width: 2; stroke-dasharray: 4,2; opacity: 0;"></path><path transform="translate(553.5,112.38825763571356)" d="M2.7386127875258306,0A2.7386127875258306,2.7386127875258306,0,1,1,-2.7386127875258306,0A2.7386127875258306,2.7386127875258306,0,1,1,2.7386127875258306,0" style="fill: #4c78a8; stroke-width: 2; stroke-dasharray: 4,2; opacity: 0;"></path><path transform="translate(0,249.94408624352508)" d="M2.7386127875258306,0A2.7386127875258306,2.7386127875258306,0,1,1,-2.7386127875258306,0A2.7386127875258306,2.7386127875258306,0,1,1,2.7386127875258306,0" style="fill: #4c78a8; stroke-width: 2; stroke-dasharray: 1,0; opacity: 0;"></path><path transform="translate(4.5,249.91213552553938)" d="M2.7386127875258306,0A2.7386127875258306,2.7386127875258306,0,1,1,-2.7386127875258306,0A2.7386127875258306,2.7386127875258306,0,1,1,2.7386127875258306,0" style="fill: #4c78a8; stroke-width: 2; stroke-dasharray: 1,0; opacity: 0;"></path><path transform="translate(9,249.8721971280573)" d="M2.7386127875258306,0A2.7386127875258306,2.7386127875258306,0,1,1,-2.7386127875258306,0A2.7386127875258306,2.7386127875258306,0,1,1,2.7386127875258306,0" style="fill: #4c78a8; stroke-width: 2; stroke-dasharray: 1,0; opacity: 0;"></path><path transform="translate(13.5,249.84024641007164)" d="M2.7386127875258306,0A2.7386127875258306,2.7386127875258306,0,1,1,-2.7386127875258306,0A2.7386127875258306,2.7386127875258306,0,1,1,2.7386127875258306,0" style="fill: #4c78a8; stroke-width: 2; stroke-dasharray: 1,0; opacity: 0;"></path><path transform="translate(18,249.54470226870419)" d="M2.7386127875258306,0A2.7386127875258306,2.7386127875258306,0,1,1,-2.7386127875258306,0A2.7386127875258306,2.7386127875258306,0,1,1,2.7386127875258306,0" style="fill: #4c78a8; stroke-width: 2; stroke-dasharray: 1,0; opacity: 0;"></path><path transform="translate(22.5,249.04147846042986)" d="M2.7386127875258306,0A2.7386127875258306,2.7386127875258306,0,1,1,-2.7386127875258306,0A2.7386127875258306,2.7386127875258306,0,1,1,2.7386127875258306,0" style="fill: #4c78a8; stroke-width: 2; stroke-dasharray: 1,0; opacity: 0;"></path><path transform="translate(27,248.6181314471197)" d="M2.7386127875258306,0A2.7386127875258306,2.7386127875258306,0,1,1,-2.7386127875258306,0A2.7386127875258306,2.7386127875258306,0,1,1,2.7386127875258306,0" style="fill: #4c78a8; stroke-width: 2; stroke-dasharray: 1,0; opacity: 0;"></path><path transform="translate(31.5,247.97911708740628)" d="M2.7386127875258306,0A2.7386127875258306,2.7386127875258306,0,1,1,-2.7386127875258306,0A2.7386127875258306,2.7386127875258306,0,1,1,2.7386127875258306,0" style="fill: #4c78a8; stroke-width: 2; stroke-dasharray: 1,0; opacity: 0;"></path><path transform="translate(36,247.19632449675734)" d="M2.7386127875258306,0A2.7386127875258306,2.7386127875258306,0,1,1,-2.7386127875258306,0A2.7386127875258306,2.7386127875258306,0,1,1,2.7386127875258306,0" style="fill: #4c78a8; stroke-width: 2; stroke-dasharray: 1,0; opacity: 0;"></path><path transform="translate(40.5,246.6451746115045)" d="M2.7386127875258306,0A2.7386127875258306,2.7386127875258306,0,1,1,-2.7386127875258306,0A2.7386127875258306,2.7386127875258306,0,1,1,2.7386127875258306,0" style="fill: #4c78a8; stroke-width: 2; stroke-dasharray: 1,0; opacity: 0;"></path><path transform="translate(45,246.405544226612)" d="M2.7386127875258306,0A2.7386127875258306,2.7386127875258306,0,1,1,-2.7386127875258306,0A2.7386127875258306,2.7386127875258306,0,1,1,2.7386127875258306,0" style="fill: #4c78a8; stroke-width: 2; stroke-dasharray: 1,0; opacity: 0;"></path><path transform="translate(49.5,245.78250522589138)" d="M2.7386127875258306,0A2.7386127875258306,2.7386127875258306,0,1,1,-2.7386127875258306,0A2.7386127875258306,2.7386127875258306,0,1,1,2.7386127875258306,0" style="fill: #4c78a8; stroke-width: 2; stroke-dasharray: 1,0; opacity: 0;"></path><path transform="translate(54,244.60831633991796)" d="M2.7386127875258306,0A2.7386127875258306,2.7386127875258306,0,1,1,-2.7386127875258306,0A2.7386127875258306,2.7386127875258306,0,1,1,2.7386127875258306,0" style="fill: #4c78a8; stroke-width: 2; stroke-dasharray: 1,0; opacity: 0;"></path><path transform="translate(58.5,243.1625463510663)" d="M2.7386127875258306,0A2.7386127875258306,2.7386127875258306,0,1,1,-2.7386127875258306,0A2.7386127875258306,2.7386127875258306,0,1,1,2.7386127875258306,0" style="fill: #4c78a8; stroke-width: 2; stroke-dasharray: 1,0; opacity: 0;"></path><path transform="translate(63,240.7742301816374)" d="M2.7386127875258306,0A2.7386127875258306,2.7386127875258306,0,1,1,-2.7386127875258306,0A2.7386127875258306,2.7386127875258306,0,1,1,2.7386127875258306,0" style="fill: #4c78a8; stroke-width: 2; stroke-dasharray: 1,0; opacity: 0;"></path><path transform="translate(67.5,237.93061628091266)" d="M2.7386127875258306,0A2.7386127875258306,2.7386127875258306,0,1,1,-2.7386127875258306,0A2.7386127875258306,2.7386127875258306,0,1,1,2.7386127875258306,0" style="fill: #4c78a8; stroke-width: 2; stroke-dasharray: 1,0; opacity: 0;"></path><path transform="translate(72,236.51679701004667)" d="M2.7386127875258306,0A2.7386127875258306,2.7386127875258306,0,1,1,-2.7386127875258306,0A2.7386127875258306,2.7386127875258306,0,1,1,2.7386127875258306,0" style="fill: #4c78a8; stroke-width: 2; stroke-dasharray: 1,0; opacity: 0;"></path><path transform="translate(76.5,236.10942535572937)" d="M2.7386127875258306,0A2.7386127875258306,2.7386127875258306,0,1,1,-2.7386127875258306,0A2.7386127875258306,2.7386127875258306,0,1,1,2.7386127875258306,0" style="fill: #4c78a8; stroke-width: 2; stroke-dasharray: 1,0; opacity: 0;"></path><path transform="translate(81,231.724189312196)" d="M2.7386127875258306,0A2.7386127875258306,2.7386127875258306,0,1,1,-2.7386127875258306,0A2.7386127875258306,2.7386127875258306,0,1,1,2.7386127875258306,0" style="fill: #4c78a8; stroke-width: 2; stroke-dasharray: 1,0; opacity: 0;"></path><path transform="translate(85.5,228.0977828208223)" d="M2.7386127875258306,0A2.7386127875258306,2.7386127875258306,0,1,1,-2.7386127875258306,0A2.7386127875258306,2.7386127875258306,0,1,1,2.7386127875258306,0" style="fill: #4c78a8; stroke-width: 2; stroke-dasharray: 1,0; opacity: 0;"></path><path transform="translate(90,222.29073982692654)" d="M2.7386127875258306,0A2.7386127875258306,2.7386127875258306,0,1,1,-2.7386127875258306,0A2.7386127875258306,2.7386127875258306,0,1,1,2.7386127875258306,0" style="fill: #4c78a8; stroke-width: 2; stroke-dasharray: 1,0; opacity: 0;"></path><path transform="translate(94.5,218.44866598914956)" d="M2.7386127875258306,0A2.7386127875258306,2.7386127875258306,0,1,1,-2.7386127875258306,0A2.7386127875258306,2.7386127875258306,0,1,1,2.7386127875258306,0" style="fill: #4c78a8; stroke-width: 2; stroke-dasharray: 1,0; opacity: 0;"></path><path transform="translate(99,214.5666537538905)" d="M2.7386127875258306,0A2.7386127875258306,2.7386127875258306,0,1,1,-2.7386127875258306,0A2.7386127875258306,2.7386127875258306,0,1,1,2.7386127875258306,0" style="fill: #4c78a8; stroke-width: 2; stroke-dasharray: 1,0; opacity: 0;"></path><path transform="translate(103.5,214.32702336899794)" d="M2.7386127875258306,0A2.7386127875258306,2.7386127875258306,0,1,1,-2.7386127875258306,0A2.7386127875258306,2.7386127875258306,0,1,1,2.7386127875258306,0" style="fill: #4c78a8; stroke-width: 2; stroke-dasharray: 1,0; opacity: 0;"></path><path transform="translate(108,214.13531906108395)" d="M2.7386127875258306,0A2.7386127875258306,2.7386127875258306,0,1,1,-2.7386127875258306,0A2.7386127875258306,2.7386127875258306,0,1,1,2.7386127875258306,0" style="fill: #4c78a8; stroke-width: 2; stroke-dasharray: 1,0; opacity: 0;"></path><path transform="translate(112.5,213.104908406046)" d="M2.7386127875258306,0A2.7386127875258306,2.7386127875258306,0,1,1,-2.7386127875258306,0A2.7386127875258306,2.7386127875258306,0,1,1,2.7386127875258306,0" style="fill: #4c78a8; stroke-width: 2; stroke-dasharray: 1,0; opacity: 0;"></path><path transform="translate(117,210.90829654453114)" d="M2.7386127875258306,0A2.7386127875258306,2.7386127875258306,0,1,1,-2.7386127875258306,0A2.7386127875258306,2.7386127875258306,0,1,1,2.7386127875258306,0" style="fill: #4c78a8; stroke-width: 2; stroke-dasharray: 1,0; opacity: 0;"></path><path transform="translate(121.5,211.6112123402159)" d="M2.7386127875258306,0A2.7386127875258306,2.7386127875258306,0,1,1,-2.7386127875258306,0A2.7386127875258306,2.7386127875258306,0,1,1,2.7386127875258306,0" style="fill: #4c78a8; stroke-width: 2; stroke-dasharray: 1,0; opacity: 0;"></path><path transform="translate(126,211.18786532690575)" d="M2.7386127875258306,0A2.7386127875258306,2.7386127875258306,0,1,1,-2.7386127875258306,0A2.7386127875258306,2.7386127875258306,0,1,1,2.7386127875258306,0" style="fill: #4c78a8; stroke-width: 2; stroke-dasharray: 1,0; opacity: 0;"></path><path transform="translate(130.5,217.37831693662957)" d="M2.7386127875258306,0A2.7386127875258306,2.7386127875258306,0,1,1,-2.7386127875258306,0A2.7386127875258306,2.7386127875258306,0,1,1,2.7386127875258306,0" style="fill: #4c78a8; stroke-width: 2; stroke-dasharray: 1,0; opacity: 0;"></path><path transform="translate(135,217.7457501934648)" d="M2.7386127875258306,0A2.7386127875258306,2.7386127875258306,0,1,1,-2.7386127875258306,0A2.7386127875258306,2.7386127875258306,0,1,1,2.7386127875258306,0" style="fill: #4c78a8; stroke-width: 2; stroke-dasharray: 1,0; opacity: 0;"></path><path transform="translate(139.5,217.5220951675651)" d="M2.7386127875258306,0A2.7386127875258306,2.7386127875258306,0,1,1,-2.7386127875258306,0A2.7386127875258306,2.7386127875258306,0,1,1,2.7386127875258306,0" style="fill: #4c78a8; stroke-width: 2; stroke-dasharray: 1,0; opacity: 0;"></path><path transform="translate(144,217.05880975677286)" d="M2.7386127875258306,0A2.7386127875258306,2.7386127875258306,0,1,1,-2.7386127875258306,0A2.7386127875258306,2.7386127875258306,0,1,1,2.7386127875258306,0" style="fill: #4c78a8; stroke-width: 2; stroke-dasharray: 1,0; opacity: 0;"></path><path transform="translate(148.5,216.41979539705943)" d="M2.7386127875258306,0A2.7386127875258306,2.7386127875258306,0,1,1,-2.7386127875258306,0A2.7386127875258306,2.7386127875258306,0,1,1,2.7386127875258306,0" style="fill: #4c78a8; stroke-width: 2; stroke-dasharray: 1,0; opacity: 0;"></path><path transform="translate(153,215.12579131863973)" d="M2.7386127875258306,0A2.7386127875258306,2.7386127875258306,0,1,1,-2.7386127875258306,0A2.7386127875258306,2.7386127875258306,0,1,1,2.7386127875258306,0" style="fill: #4c78a8; stroke-width: 2; stroke-dasharray: 1,0; opacity: 0;"></path><path transform="translate(157.5,214.40690016396212)" d="M2.7386127875258306,0A2.7386127875258306,2.7386127875258306,0,1,1,-2.7386127875258306,0A2.7386127875258306,2.7386127875258306,0,1,1,2.7386127875258306,0" style="fill: #4c78a8; stroke-width: 2; stroke-dasharray: 1,0; opacity: 0;"></path><path transform="translate(162,207.21000093768964)" d="M2.7386127875258306,0A2.7386127875258306,2.7386127875258306,0,1,1,-2.7386127875258306,0A2.7386127875258306,2.7386127875258306,0,1,1,2.7386127875258306,0" style="fill: #4c78a8; stroke-width: 2; stroke-dasharray: 1,0; opacity: 0;"></path><path transform="translate(166.5,205.46069912797415)" d="M2.7386127875258306,0A2.7386127875258306,2.7386127875258306,0,1,1,-2.7386127875258306,0A2.7386127875258306,2.7386127875258306,0,1,1,2.7386127875258306,0" style="fill: #4c78a8; stroke-width: 2; stroke-dasharray: 1,0; opacity: 0;"></path><path transform="translate(171,205.09326587113895)" d="M2.7386127875258306,0A2.7386127875258306,2.7386127875258306,0,1,1,-2.7386127875258306,0A2.7386127875258306,2.7386127875258306,0,1,1,2.7386127875258306,0" style="fill: #4c78a8; stroke-width: 2; stroke-dasharray: 1,0; opacity: 0;"></path><path transform="translate(175.5,203.12829671502013)" d="M2.7386127875258306,0A2.7386127875258306,2.7386127875258306,0,1,1,-2.7386127875258306,0A2.7386127875258306,2.7386127875258306,0,1,1,2.7386127875258306,0" style="fill: #4c78a8; stroke-width: 2; stroke-dasharray: 1,0; opacity: 0;"></path><path transform="translate(180,202.68098666322075)" d="M2.7386127875258306,0A2.7386127875258306,2.7386127875258306,0,1,1,-2.7386127875258306,0A2.7386127875258306,2.7386127875258306,0,1,1,2.7386127875258306,0" style="fill: #4c78a8; stroke-width: 2; stroke-dasharray: 1,0; opacity: 0;"></path><path transform="translate(184.5,202.5292207527888)" d="M2.7386127875258306,0A2.7386127875258306,2.7386127875258306,0,1,1,-2.7386127875258306,0A2.7386127875258306,2.7386127875258306,0,1,1,2.7386127875258306,0" style="fill: #4c78a8; stroke-width: 2; stroke-dasharray: 1,0; opacity: 0;"></path><path transform="translate(189,200.4923624812023)" d="M2.7386127875258306,0A2.7386127875258306,2.7386127875258306,0,1,1,-2.7386127875258306,0A2.7386127875258306,2.7386127875258306,0,1,1,2.7386127875258306,0" style="fill: #4c78a8; stroke-width: 2; stroke-dasharray: 1,0; opacity: 0;"></path><path transform="translate(193.5,200.0450524294029)" d="M2.7386127875258306,0A2.7386127875258306,2.7386127875258306,0,1,1,-2.7386127875258306,0A2.7386127875258306,2.7386127875258306,0,1,1,2.7386127875258306,0" style="fill: #4c78a8; stroke-width: 2; stroke-dasharray: 1,0; opacity: 0;"></path><path transform="translate(198,199.3421366337181)" d="M2.7386127875258306,0A2.7386127875258306,2.7386127875258306,0,1,1,-2.7386127875258306,0A2.7386127875258306,2.7386127875258306,0,1,1,2.7386127875258306,0" style="fill: #4c78a8; stroke-width: 2; stroke-dasharray: 1,0; opacity: 0;"></path><path transform="translate(202.5,199.6057300570999)" d="M2.7386127875258306,0A2.7386127875258306,2.7386127875258306,0,1,1,-2.7386127875258306,0A2.7386127875258306,2.7386127875258306,0,1,1,2.7386127875258306,0" style="fill: #4c78a8; stroke-width: 2; stroke-dasharray: 1,0; opacity: 0;"></path><path transform="translate(207,196.23492930961157)" d="M2.7386127875258306,0A2.7386127875258306,2.7386127875258306,0,1,1,-2.7386127875258306,0A2.7386127875258306,2.7386127875258306,0,1,1,2.7386127875258306,0" style="fill: #4c78a8; stroke-width: 2; stroke-dasharray: 1,0; opacity: 0;"></path><path transform="translate(211.5,188.75846130096446)" d="M2.7386127875258306,0A2.7386127875258306,2.7386127875258306,0,1,1,-2.7386127875258306,0A2.7386127875258306,2.7386127875258306,0,1,1,2.7386127875258306,0" style="fill: #4c78a8; stroke-width: 2; stroke-dasharray: 1,0; opacity: 0;"></path><path transform="translate(216,182.01685980598782)" d="M2.7386127875258306,0A2.7386127875258306,2.7386127875258306,0,1,1,-2.7386127875258306,0A2.7386127875258306,2.7386127875258306,0,1,1,2.7386127875258306,0" style="fill: #4c78a8; stroke-width: 2; stroke-dasharray: 1,0; opacity: 0;"></path><path transform="translate(220.5,177.38400569806547)" d="M2.7386127875258306,0A2.7386127875258306,2.7386127875258306,0,1,1,-2.7386127875258306,0A2.7386127875258306,2.7386127875258306,0,1,1,2.7386127875258306,0" style="fill: #4c78a8; stroke-width: 2; stroke-dasharray: 1,0; opacity: 0;"></path><path transform="translate(225,167.7668395843784)" d="M2.7386127875258306,0A2.7386127875258306,2.7386127875258306,0,1,1,-2.7386127875258306,0A2.7386127875258306,2.7386127875258306,0,1,1,2.7386127875258306,0" style="fill: #4c78a8; stroke-width: 2; stroke-dasharray: 1,0; opacity: 0;"></path><path transform="translate(229.5,164.38805115739365)" d="M2.7386127875258306,0A2.7386127875258306,2.7386127875258306,0,1,1,-2.7386127875258306,0A2.7386127875258306,2.7386127875258306,0,1,1,2.7386127875258306,0" style="fill: #4c78a8; stroke-width: 2; stroke-dasharray: 1,0; opacity: 0;"></path><path transform="translate(234,164.09250701602625)" d="M2.7386127875258306,0A2.7386127875258306,2.7386127875258306,0,1,1,-2.7386127875258306,0A2.7386127875258306,2.7386127875258306,0,1,1,2.7386127875258306,0" style="fill: #4c78a8; stroke-width: 2; stroke-dasharray: 1,0; opacity: 0;"></path><path transform="translate(238.5,155.64952978831255)" d="M2.7386127875258306,0A2.7386127875258306,2.7386127875258306,0,1,1,-2.7386127875258306,0A2.7386127875258306,2.7386127875258306,0,1,1,2.7386127875258306,0" style="fill: #4c78a8; stroke-width: 2; stroke-dasharray: 1,0; opacity: 0;"></path><path transform="translate(243,146.99088521419563)" d="M2.7386127875258306,0A2.7386127875258306,2.7386127875258306,0,1,1,-2.7386127875258306,0A2.7386127875258306,2.7386127875258306,0,1,1,2.7386127875258306,0" style="fill: #4c78a8; stroke-width: 2; stroke-dasharray: 1,0; opacity: 0;"></path><path transform="translate(247.5,135.55252817532528)" d="M2.7386127875258306,0A2.7386127875258306,2.7386127875258306,0,1,1,-2.7386127875258306,0A2.7386127875258306,2.7386127875258306,0,1,1,2.7386127875258306,0" style="fill: #4c78a8; stroke-width: 2; stroke-dasharray: 1,0; opacity: 0;"></path><path transform="translate(252,119.32955111810067)" d="M2.7386127875258306,0A2.7386127875258306,2.7386127875258306,0,1,1,-2.7386127875258306,0A2.7386127875258306,2.7386127875258306,0,1,1,2.7386127875258306,0" style="fill: #4c78a8; stroke-width: 2; stroke-dasharray: 1,0; opacity: 0;"></path><path transform="translate(256.5,98.96895608173159)" d="M2.7386127875258306,0A2.7386127875258306,2.7386127875258306,0,1,1,-2.7386127875258306,0A2.7386127875258306,2.7386127875258306,0,1,1,2.7386127875258306,0" style="fill: #4c78a8; stroke-width: 2; stroke-dasharray: 1,0; opacity: 0;"></path><path transform="translate(261,95.4623647828042)" d="M2.7386127875258306,0A2.7386127875258306,2.7386127875258306,0,1,1,-2.7386127875258306,0A2.7386127875258306,2.7386127875258306,0,1,1,2.7386127875258306,0" style="fill: #4c78a8; stroke-width: 2; stroke-dasharray: 1,0; opacity: 0;"></path><path transform="translate(265.5,94.21628678136298)" d="M2.7386127875258306,0A2.7386127875258306,2.7386127875258306,0,1,1,-2.7386127875258306,0A2.7386127875258306,2.7386127875258306,0,1,1,2.7386127875258306,0" style="fill: #4c78a8; stroke-width: 2; stroke-dasharray: 1,0; opacity: 0;"></path><path transform="translate(270,85.80526027163503)" d="M2.7386127875258306,0A2.7386127875258306,2.7386127875258306,0,1,1,-2.7386127875258306,0A2.7386127875258306,2.7386127875258306,0,1,1,2.7386127875258306,0" style="fill: #4c78a8; stroke-width: 2; stroke-dasharray: 1,0; opacity: 0;"></path><path transform="translate(274.5,79.15152325111896)" d="M2.7386127875258306,0A2.7386127875258306,2.7386127875258306,0,1,1,-2.7386127875258306,0A2.7386127875258306,2.7386127875258306,0,1,1,2.7386127875258306,0" style="fill: #4c78a8; stroke-width: 2; stroke-dasharray: 1,0; opacity: 0;"></path><path transform="translate(279,74.12727284787212)" d="M2.7386127875258306,0A2.7386127875258306,2.7386127875258306,0,1,1,-2.7386127875258306,0A2.7386127875258306,2.7386127875258306,0,1,1,2.7386127875258306,0" style="fill: #4c78a8; stroke-width: 2; stroke-dasharray: 1,0; opacity: 0;"></path><path transform="translate(283.5,73.76782727053336)" d="M2.7386127875258306,0A2.7386127875258306,2.7386127875258306,0,1,1,-2.7386127875258306,0A2.7386127875258306,2.7386127875258306,0,1,1,2.7386127875258306,0" style="fill: #4c78a8; stroke-width: 2; stroke-dasharray: 1,0; opacity: 0;"></path><path transform="translate(288,84.13583525688367)" d="M2.7386127875258306,0A2.7386127875258306,2.7386127875258306,0,1,1,-2.7386127875258306,0A2.7386127875258306,2.7386127875258306,0,1,1,2.7386127875258306,0" style="fill: #4c78a8; stroke-width: 2; stroke-dasharray: 1,0; opacity: 0;"></path><path transform="translate(292.5,84.91862784753262)" d="M2.7386127875258306,0A2.7386127875258306,2.7386127875258306,0,1,1,-2.7386127875258306,0A2.7386127875258306,2.7386127875258306,0,1,1,2.7386127875258306,0" style="fill: #4c78a8; stroke-width: 2; stroke-dasharray: 1,0; opacity: 0;"></path><path transform="translate(297,86.17269352847023)" d="M2.7386127875258306,0A2.7386127875258306,2.7386127875258306,0,1,1,-2.7386127875258306,0A2.7386127875258306,2.7386127875258306,0,1,1,2.7386127875258306,0" style="fill: #4c78a8; stroke-width: 2; stroke-dasharray: 1,0; opacity: 0;"></path><path transform="translate(301.49999999999994,92.47497265114393)" d="M2.7386127875258306,0A2.7386127875258306,2.7386127875258306,0,1,1,-2.7386127875258306,0A2.7386127875258306,2.7386127875258306,0,1,1,2.7386127875258306,0" style="fill: #4c78a8; stroke-width: 2; stroke-dasharray: 1,0; opacity: 0;"></path><path transform="translate(306,98.59353514539998)" d="M2.7386127875258306,0A2.7386127875258306,2.7386127875258306,0,1,1,-2.7386127875258306,0A2.7386127875258306,2.7386127875258306,0,1,1,2.7386127875258306,0" style="fill: #4c78a8; stroke-width: 2; stroke-dasharray: 1,0; opacity: 0;"></path><path transform="translate(310.5,101.30135849468563)" d="M2.7386127875258306,0A2.7386127875258306,2.7386127875258306,0,1,1,-2.7386127875258306,0A2.7386127875258306,2.7386127875258306,0,1,1,2.7386127875258306,0" style="fill: #4c78a8; stroke-width: 2; stroke-dasharray: 1,0; opacity: 0;"></path><path transform="translate(315,110.27951024865928)" d="M2.7386127875258306,0A2.7386127875258306,2.7386127875258306,0,1,1,-2.7386127875258306,0A2.7386127875258306,2.7386127875258306,0,1,1,2.7386127875258306,0" style="fill: #4c78a8; stroke-width: 2; stroke-dasharray: 1,0; opacity: 0;"></path><path transform="translate(319.49999999999994,105.85433580764378)" d="M2.7386127875258306,0A2.7386127875258306,2.7386127875258306,0,1,1,-2.7386127875258306,0A2.7386127875258306,2.7386127875258306,0,1,1,2.7386127875258306,0" style="fill: #4c78a8; stroke-width: 2; stroke-dasharray: 1,0; opacity: 0;"></path><path transform="translate(324,106.31762121843602)" d="M2.7386127875258306,0A2.7386127875258306,2.7386127875258306,0,1,1,-2.7386127875258306,0A2.7386127875258306,2.7386127875258306,0,1,1,2.7386127875258306,0" style="fill: #4c78a8; stroke-width: 2; stroke-dasharray: 1,0; opacity: 0;"></path><path transform="translate(328.5,106.26969514145753)" d="M2.7386127875258306,0A2.7386127875258306,2.7386127875258306,0,1,1,-2.7386127875258306,0A2.7386127875258306,2.7386127875258306,0,1,1,2.7386127875258306,0" style="fill: #4c78a8; stroke-width: 2; stroke-dasharray: 1,0; opacity: 0;"></path><path transform="translate(333,117.14092693608217)" d="M2.7386127875258306,0A2.7386127875258306,2.7386127875258306,0,1,1,-2.7386127875258306,0A2.7386127875258306,2.7386127875258306,0,1,1,2.7386127875258306,0" style="fill: #4c78a8; stroke-width: 2; stroke-dasharray: 1,0; opacity: 0;"></path><path transform="translate(337.49999999999994,110.46322687707688)" d="M2.7386127875258306,0A2.7386127875258306,2.7386127875258306,0,1,1,-2.7386127875258306,0A2.7386127875258306,2.7386127875258306,0,1,1,2.7386127875258306,0" style="fill: #4c78a8; stroke-width: 2; stroke-dasharray: 1,0; opacity: 0;"></path><path transform="translate(342,108.8656909777933)" d="M2.7386127875258306,0A2.7386127875258306,2.7386127875258306,0,1,1,-2.7386127875258306,0A2.7386127875258306,2.7386127875258306,0,1,1,2.7386127875258306,0" style="fill: #4c78a8; stroke-width: 2; stroke-dasharray: 1,0; opacity: 0;"></path><path transform="translate(346.5,97.49922305439071)" d="M2.7386127875258306,0A2.7386127875258306,2.7386127875258306,0,1,1,-2.7386127875258306,0A2.7386127875258306,2.7386127875258306,0,1,1,2.7386127875258306,0" style="fill: #4c78a8; stroke-width: 2; stroke-dasharray: 1,0; opacity: 0;"></path><path transform="translate(351,94.27220053783792)" d="M2.7386127875258306,0A2.7386127875258306,2.7386127875258306,0,1,1,-2.7386127875258306,0A2.7386127875258306,2.7386127875258306,0,1,1,2.7386127875258306,0" style="fill: #4c78a8; stroke-width: 2; stroke-dasharray: 1,0; opacity: 0;"></path><path transform="translate(355.49999999999994,90.23842239214692)" d="M2.7386127875258306,0A2.7386127875258306,2.7386127875258306,0,1,1,-2.7386127875258306,0A2.7386127875258306,2.7386127875258306,0,1,1,2.7386127875258306,0" style="fill: #4c78a8; stroke-width: 2; stroke-dasharray: 1,0; opacity: 0;"></path><path transform="translate(360,89.59940803243349)" d="M2.7386127875258306,0A2.7386127875258306,2.7386127875258306,0,1,1,-2.7386127875258306,0A2.7386127875258306,2.7386127875258306,0,1,1,2.7386127875258306,0" style="fill: #4c78a8; stroke-width: 2; stroke-dasharray: 1,0; opacity: 0;"></path><path transform="translate(364.5,66.77062003167134)" d="M2.7386127875258306,0A2.7386127875258306,2.7386127875258306,0,1,1,-2.7386127875258306,0A2.7386127875258306,2.7386127875258306,0,1,1,2.7386127875258306,0" style="fill: #4c78a8; stroke-width: 2; stroke-dasharray: 1,0; opacity: 0;"></path><path transform="translate(369,61.03546615324335)" d="M2.7386127875258306,0A2.7386127875258306,2.7386127875258306,0,1,1,-2.7386127875258306,0A2.7386127875258306,2.7386127875258306,0,1,1,2.7386127875258306,0" style="fill: #4c78a8; stroke-width: 2; stroke-dasharray: 1,0; opacity: 0;"></path><path transform="translate(373.5,50.55563065394314)" d="M2.7386127875258306,0A2.7386127875258306,2.7386127875258306,0,1,1,-2.7386127875258306,0A2.7386127875258306,2.7386127875258306,0,1,1,2.7386127875258306,0" style="fill: #4c78a8; stroke-width: 2; stroke-dasharray: 1,0; opacity: 0;"></path><path transform="translate(378,40.31542553953546)" d="M2.7386127875258306,0A2.7386127875258306,2.7386127875258306,0,1,1,-2.7386127875258306,0A2.7386127875258306,2.7386127875258306,0,1,1,2.7386127875258306,0" style="fill: #4c78a8; stroke-width: 2; stroke-dasharray: 1,0; opacity: 0;"></path><path transform="translate(382.5,34.085035532329556)" d="M2.7386127875258306,0A2.7386127875258306,2.7386127875258306,0,1,1,-2.7386127875258306,0A2.7386127875258306,2.7386127875258306,0,1,1,2.7386127875258306,0" style="fill: #4c78a8; stroke-width: 2; stroke-dasharray: 1,0; opacity: 0;"></path><path transform="translate(387,34.71606221254658)" d="M2.7386127875258306,0A2.7386127875258306,2.7386127875258306,0,1,1,-2.7386127875258306,0A2.7386127875258306,2.7386127875258306,0,1,1,2.7386127875258306,0" style="fill: #4c78a8; stroke-width: 2; stroke-dasharray: 1,0; opacity: 0;"></path><path transform="translate(391.5,34.58825934060389)" d="M2.7386127875258306,0A2.7386127875258306,2.7386127875258306,0,1,1,-2.7386127875258306,0A2.7386127875258306,2.7386127875258306,0,1,1,2.7386127875258306,0" style="fill: #4c78a8; stroke-width: 2; stroke-dasharray: 1,0; opacity: 0;"></path><path transform="translate(396,28.485672205340624)" d="M2.7386127875258306,0A2.7386127875258306,2.7386127875258306,0,1,1,-2.7386127875258306,0A2.7386127875258306,2.7386127875258306,0,1,1,2.7386127875258306,0" style="fill: #4c78a8; stroke-width: 2; stroke-dasharray: 1,0; opacity: 0;"></path><path transform="translate(400.5,26.328998741307867)" d="M2.7386127875258306,0A2.7386127875258306,2.7386127875258306,0,1,1,-2.7386127875258306,0A2.7386127875258306,2.7386127875258306,0,1,1,2.7386127875258306,0" style="fill: #4c78a8; stroke-width: 2; stroke-dasharray: 1,0; opacity: 0;"></path><path transform="translate(405,32.1919554916785)" d="M2.7386127875258306,0A2.7386127875258306,2.7386127875258306,0,1,1,-2.7386127875258306,0A2.7386127875258306,2.7386127875258306,0,1,1,2.7386127875258306,0" style="fill: #4c78a8; stroke-width: 2; stroke-dasharray: 1,0; opacity: 0;"></path><path transform="translate(409.5,36.18579523988743)" d="M2.7386127875258306,0A2.7386127875258306,2.7386127875258306,0,1,1,-2.7386127875258306,0A2.7386127875258306,2.7386127875258306,0,1,1,2.7386127875258306,0" style="fill: #4c78a8; stroke-width: 2; stroke-dasharray: 1,0; opacity: 0;"></path><path transform="translate(414,43.34275606867782)" d="M2.7386127875258306,0A2.7386127875258306,2.7386127875258306,0,1,1,-2.7386127875258306,0A2.7386127875258306,2.7386127875258306,0,1,1,2.7386127875258306,0" style="fill: #4c78a8; stroke-width: 2; stroke-dasharray: 1,0; opacity: 0;"></path><path transform="translate(418.5,42.55197579853245)" d="M2.7386127875258306,0A2.7386127875258306,2.7386127875258306,0,1,1,-2.7386127875258306,0A2.7386127875258306,2.7386127875258306,0,1,1,2.7386127875258306,0" style="fill: #4c78a8; stroke-width: 2; stroke-dasharray: 1,0; opacity: 0;"></path><path transform="translate(423,42.144604144215116)" d="M2.7386127875258306,0A2.7386127875258306,2.7386127875258306,0,1,1,-2.7386127875258306,0A2.7386127875258306,2.7386127875258306,0,1,1,2.7386127875258306,0" style="fill: #4c78a8; stroke-width: 2; stroke-dasharray: 1,0; opacity: 0;"></path><path transform="translate(427.5,48.087437689549986)" d="M2.7386127875258306,0A2.7386127875258306,2.7386127875258306,0,1,1,-2.7386127875258306,0A2.7386127875258306,2.7386127875258306,0,1,1,2.7386127875258306,0" style="fill: #4c78a8; stroke-width: 2; stroke-dasharray: 1,0; opacity: 0;"></path><path transform="translate(432,55.18049708236908)" d="M2.7386127875258306,0A2.7386127875258306,2.7386127875258306,0,1,1,-2.7386127875258306,0A2.7386127875258306,2.7386127875258306,0,1,1,2.7386127875258306,0" style="fill: #4c78a8; stroke-width: 2; stroke-dasharray: 1,0; opacity: 0;"></path><path transform="translate(436.5,56.73809458417053)" d="M2.7386127875258306,0A2.7386127875258306,2.7386127875258306,0,1,1,-2.7386127875258306,0A2.7386127875258306,2.7386127875258306,0,1,1,2.7386127875258306,0" style="fill: #4c78a8; stroke-width: 2; stroke-dasharray: 1,0; opacity: 0;"></path><path transform="translate(441,54.04624659387772)" d="M2.7386127875258306,0A2.7386127875258306,2.7386127875258306,0,1,1,-2.7386127875258306,0A2.7386127875258306,2.7386127875258306,0,1,1,2.7386127875258306,0" style="fill: #4c78a8; stroke-width: 2; stroke-dasharray: 1,0; opacity: 0;"></path><path transform="translate(445.5,47.83981962516107)" d="M2.7386127875258306,0A2.7386127875258306,2.7386127875258306,0,1,1,-2.7386127875258306,0A2.7386127875258306,2.7386127875258306,0,1,1,2.7386127875258306,0" style="fill: #4c78a8; stroke-width: 2; stroke-dasharray: 1,0; opacity: 0;"></path><path transform="translate(450,47.47238636832582)" d="M2.7386127875258306,0A2.7386127875258306,2.7386127875258306,0,1,1,-2.7386127875258306,0A2.7386127875258306,2.7386127875258306,0,1,1,2.7386127875258306,0" style="fill: #4c78a8; stroke-width: 2; stroke-dasharray: 1,0; opacity: 0;"></path><path transform="translate(454.5,48.03951161257153)" d="M2.7386127875258306,0A2.7386127875258306,2.7386127875258306,0,1,1,-2.7386127875258306,0A2.7386127875258306,2.7386127875258306,0,1,1,2.7386127875258306,0" style="fill: #4c78a8; stroke-width: 2; stroke-dasharray: 1,0; opacity: 0;"></path><path transform="translate(459,47.79988122767897)" d="M2.7386127875258306,0A2.7386127875258306,2.7386127875258306,0,1,1,-2.7386127875258306,0A2.7386127875258306,2.7386127875258306,0,1,1,2.7386127875258306,0" style="fill: #4c78a8; stroke-width: 2; stroke-dasharray: 1,0; opacity: 0;"></path><path transform="translate(463.5,49.21370049854495)" d="M2.7386127875258306,0A2.7386127875258306,2.7386127875258306,0,1,1,-2.7386127875258306,0A2.7386127875258306,2.7386127875258306,0,1,1,2.7386127875258306,0" style="fill: #4c78a8; stroke-width: 2; stroke-dasharray: 1,0; opacity: 0;"></path><path transform="translate(468,50.77928567984286)" d="M2.7386127875258306,0A2.7386127875258306,2.7386127875258306,0,1,1,-2.7386127875258306,0A2.7386127875258306,2.7386127875258306,0,1,1,2.7386127875258306,0" style="fill: #4c78a8; stroke-width: 2; stroke-dasharray: 1,0; opacity: 0;"></path><path transform="translate(472.5,61.62655443597823)" d="M2.7386127875258306,0A2.7386127875258306,2.7386127875258306,0,1,1,-2.7386127875258306,0A2.7386127875258306,2.7386127875258306,0,1,1,2.7386127875258306,0" style="fill: #4c78a8; stroke-width: 2; stroke-dasharray: 1,0; opacity: 0;"></path><path transform="translate(477,72.40992175614231)" d="M2.7386127875258306,0A2.7386127875258306,2.7386127875258306,0,1,1,-2.7386127875258306,0A2.7386127875258306,2.7386127875258306,0,1,1,2.7386127875258306,0" style="fill: #4c78a8; stroke-width: 2; stroke-dasharray: 1,0; opacity: 0;"></path><path transform="translate(481.5,75.62895659319871)" d="M2.7386127875258306,0A2.7386127875258306,2.7386127875258306,0,1,1,-2.7386127875258306,0A2.7386127875258306,2.7386127875258306,0,1,1,2.7386127875258306,0" style="fill: #4c78a8; stroke-width: 2; stroke-dasharray: 1,0; opacity: 0;"></path><path transform="translate(486,75.68487034967364)" d="M2.7386127875258306,0A2.7386127875258306,2.7386127875258306,0,1,1,-2.7386127875258306,0A2.7386127875258306,2.7386127875258306,0,1,1,2.7386127875258306,0" style="fill: #4c78a8; stroke-width: 2; stroke-dasharray: 1,0; opacity: 0;"></path><path transform="translate(490.5,74.21513732233277)" d="M2.7386127875258306,0A2.7386127875258306,2.7386127875258306,0,1,1,-2.7386127875258306,0A2.7386127875258306,2.7386127875258306,0,1,1,2.7386127875258306,0" style="fill: #4c78a8; stroke-width: 2; stroke-dasharray: 1,0; opacity: 0;"></path><path transform="translate(495,72.78534269247395)" d="M2.7386127875258306,0A2.7386127875258306,2.7386127875258306,0,1,1,-2.7386127875258306,0A2.7386127875258306,2.7386127875258306,0,1,1,2.7386127875258306,0" style="fill: #4c78a8; stroke-width: 2; stroke-dasharray: 1,0; opacity: 0;"></path><path transform="translate(499.5,70.68458298491603)" d="M2.7386127875258306,0A2.7386127875258306,2.7386127875258306,0,1,1,-2.7386127875258306,0A2.7386127875258306,2.7386127875258306,0,1,1,2.7386127875258306,0" style="fill: #4c78a8; stroke-width: 2; stroke-dasharray: 1,0; opacity: 0;"></path><path transform="translate(504,64.26248866979614)" d="M2.7386127875258306,0A2.7386127875258306,2.7386127875258306,0,1,1,-2.7386127875258306,0A2.7386127875258306,2.7386127875258306,0,1,1,2.7386127875258306,0" style="fill: #4c78a8; stroke-width: 2; stroke-dasharray: 1,0; opacity: 0;"></path><path transform="translate(508.5,58.44745799640394)" d="M2.7386127875258306,0A2.7386127875258306,2.7386127875258306,0,1,1,-2.7386127875258306,0A2.7386127875258306,2.7386127875258306,0,1,1,2.7386127875258306,0" style="fill: #4c78a8; stroke-width: 2; stroke-dasharray: 1,0; opacity: 0;"></path><path transform="translate(513,67.22591776296713)" d="M2.7386127875258306,0A2.7386127875258306,2.7386127875258306,0,1,1,-2.7386127875258306,0A2.7386127875258306,2.7386127875258306,0,1,1,2.7386127875258306,0" style="fill: #4c78a8; stroke-width: 2; stroke-dasharray: 1,0; opacity: 0;"></path><path transform="translate(517.5,66.83452146764266)" d="M2.7386127875258306,0A2.7386127875258306,2.7386127875258306,0,1,1,-2.7386127875258306,0A2.7386127875258306,2.7386127875258306,0,1,1,2.7386127875258306,0" style="fill: #4c78a8; stroke-width: 2; stroke-dasharray: 1,0; opacity: 0;"></path><path transform="translate(522,59.64560992086662)" d="M2.7386127875258306,0A2.7386127875258306,2.7386127875258306,0,1,1,-2.7386127875258306,0A2.7386127875258306,2.7386127875258306,0,1,1,2.7386127875258306,0" style="fill: #4c78a8; stroke-width: 2; stroke-dasharray: 1,0; opacity: 0;"></path><path transform="translate(526.5,50.26008651257566)" d="M2.7386127875258306,0A2.7386127875258306,2.7386127875258306,0,1,1,-2.7386127875258306,0A2.7386127875258306,2.7386127875258306,0,1,1,2.7386127875258306,0" style="fill: #4c78a8; stroke-width: 2; stroke-dasharray: 1,0; opacity: 0;"></path><path transform="translate(531,44.68468622407601)" d="M2.7386127875258306,0A2.7386127875258306,2.7386127875258306,0,1,1,-2.7386127875258306,0A2.7386127875258306,2.7386127875258306,0,1,1,2.7386127875258306,0" style="fill: #4c78a8; stroke-width: 2; stroke-dasharray: 1,0; opacity: 0;"></path><path transform="translate(535.5,37.90314633161726)" d="M2.7386127875258306,0A2.7386127875258306,2.7386127875258306,0,1,1,-2.7386127875258306,0A2.7386127875258306,2.7386127875258306,0,1,1,2.7386127875258306,0" style="fill: #4c78a8; stroke-width: 2; stroke-dasharray: 1,0; opacity: 0;"></path><path transform="translate(540,25.650045984112303)" d="M2.7386127875258306,0A2.7386127875258306,2.7386127875258306,0,1,1,-2.7386127875258306,0A2.7386127875258306,2.7386127875258306,0,1,1,2.7386127875258306,0" style="fill: #4c78a8; stroke-width: 2; stroke-dasharray: 1,0; opacity: 0;"></path><path transform="translate(544.5,10.449491902429193)" d="M2.7386127875258306,0A2.7386127875258306,2.7386127875258306,0,1,1,-2.7386127875258306,0A2.7386127875258306,2.7386127875258306,0,1,1,2.7386127875258306,0" style="fill: #4c78a8; stroke-width: 2; stroke-dasharray: 1,0; opacity: 0;"></path><path transform="translate(549,8.013249656021737)" d="M2.7386127875258306,0A2.7386127875258306,2.7386127875258306,0,1,1,-2.7386127875258306,0A2.7386127875258306,2.7386127875258306,0,1,1,2.7386127875258306,0" style="fill: #4c78a8; stroke-width: 2; stroke-dasharray: 1,0; opacity: 0;"></path><path transform="translate(553.5,3.212654278674676)" d="M2.7386127875258306,0A2.7386127875258306,2.7386127875258306,0,1,1,-2.7386127875258306,0A2.7386127875258306,2.7386127875258306,0,1,1,2.7386127875258306,0" style="fill: #4c78a8; stroke-width: 2; stroke-dasharray: 1,0; opacity: 0;"></path><path transform="translate(558,12.8457957513545)" d="M2.7386127875258306,0A2.7386127875258306,2.7386127875258306,0,1,1,-2.7386127875258306,0A2.7386127875258306,2.7386127875258306,0,1,1,2.7386127875258306,0" style="fill: #4c78a8; stroke-width: 2; stroke-dasharray: 1,0; opacity: 0;"></path><path transform="translate(562.5,18.061750462515402)" d="M2.7386127875258306,0A2.7386127875258306,2.7386127875258306,0,1,1,-2.7386127875258306,0A2.7386127875258306,2.7386127875258306,0,1,1,2.7386127875258306,0" style="fill: #4c78a8; stroke-width: 2; stroke-dasharray: 1,0; opacity: 0;"></path><path transform="translate(567,36.01006629096626)" d="M2.7386127875258306,0A2.7386127875258306,2.7386127875258306,0,1,1,-2.7386127875258306,0A2.7386127875258306,2.7386127875258306,0,1,1,2.7386127875258306,0" style="fill: #4c78a8; stroke-width: 2; stroke-dasharray: 1,0; opacity: 0;"></path><path transform="translate(571.5,66.77062003167134)" d="M2.7386127875258306,0A2.7386127875258306,2.7386127875258306,0,1,1,-2.7386127875258306,0A2.7386127875258306,2.7386127875258306,0,1,1,2.7386127875258306,0" style="fill: #4c78a8; stroke-width: 2; stroke-dasharray: 1,0; opacity: 0;"></path><path transform="translate(576,82.53031167810369)" d="M2.7386127875258306,0A2.7386127875258306,2.7386127875258306,0,1,1,-2.7386127875258306,0A2.7386127875258306,2.7386127875258306,0,1,1,2.7386127875258306,0" style="fill: #4c78a8; stroke-width: 2; stroke-dasharray: 1,0; opacity: 0;"></path><path transform="translate(580.5,85.14228287343234)" d="M2.7386127875258306,0A2.7386127875258306,2.7386127875258306,0,1,1,-2.7386127875258306,0A2.7386127875258306,2.7386127875258306,0,1,1,2.7386127875258306,0" style="fill: #4c78a8; stroke-width: 2; stroke-dasharray: 1,0; opacity: 0;"></path><path transform="translate(585,129.1384215397018)" d="M2.7386127875258306,0A2.7386127875258306,2.7386127875258306,0,1,1,-2.7386127875258306,0A2.7386127875258306,2.7386127875258306,0,1,1,2.7386127875258306,0" style="fill: #4c78a8; stroke-width: 2; stroke-dasharray: 1,0; opacity: 0;"></path></g></g><path class="foreground" d="" style="display: none; fill: none;"></path></g></g></g></svg>